<?xml version="1.0" encoding="UTF-8"?><svg id="Layer_2" xmlns="http://www.w3.org/2000/svg" xmlns:xlink="http://www.w3.org/1999/xlink" viewBox="0 0 742.52 377.8"><defs><style>.cls-1{fill:none;}.cls-2{fill:url(#linear-gradient-7);}.cls-2,.cls-3,.cls-4,.cls-5,.cls-6,.cls-7,.cls-8,.cls-9,.cls-10,.cls-11,.cls-12,.cls-13,.cls-14{isolation:isolate;}.cls-2,.cls-14{opacity:.63;}.cls-15{fill:url(#linear-gradient);}.cls-16{clip-path:url(#clippath);}.cls-17{fill:#fff;}.cls-18{fill:#f2ce96;}.cls-19{fill:#cf1c31;}.cls-20{fill:#3a3870;}.cls-21{fill:url(#linear-gradient-102);}.cls-22{fill:url(#linear-gradient-101);}.cls-23{fill:url(#linear-gradient-100);}.cls-3{fill:url(#linear-gradient-14);opacity:.13;}.cls-4{fill:url(#linear-gradient-42);}.cls-4,.cls-5,.cls-6,.cls-7,.cls-8{opacity:.32;}.cls-5{fill:url(#linear-gradient-40);}.cls-6{fill:url(#linear-gradient-48);}.cls-7{fill:url(#linear-gradient-15);}.cls-8{fill:url(#linear-gradient-10);}.cls-9{fill:url(#linear-gradient-59);opacity:.34;}.cls-10{fill:url(#linear-gradient-45);}.cls-10,.cls-11{opacity:.26;}.cls-11{fill:url(#linear-gradient-98);}.cls-12{fill:url(#linear-gradient-41);opacity:.25;}.cls-13{fill:url(#linear-gradient-77);opacity:.4;}.cls-14{fill:url(#linear-gradient-69);}.cls-24{fill:url(#linear-gradient-8);}.cls-25{fill:url(#linear-gradient-9);}.cls-26{fill:url(#linear-gradient-3);}.cls-27{fill:url(#linear-gradient-4);}.cls-28{fill:url(#linear-gradient-2);}.cls-29{fill:url(#linear-gradient-6);}.cls-30{fill:url(#linear-gradient-5);}.cls-31{fill:url(#linear-gradient-57);}.cls-32{fill:url(#linear-gradient-58);}.cls-33{fill:url(#linear-gradient-55);}.cls-34{fill:url(#linear-gradient-56);}.cls-35{fill:url(#linear-gradient-53);}.cls-36{fill:url(#linear-gradient-54);}.cls-37{fill:url(#linear-gradient-51);}.cls-38{fill:url(#linear-gradient-52);}.cls-39{fill:url(#linear-gradient-50);}.cls-40{fill:url(#linear-gradient-78);}.cls-41{fill:url(#linear-gradient-79);}.cls-42{fill:url(#linear-gradient-74);}.cls-43{fill:url(#linear-gradient-75);}.cls-44{fill:url(#linear-gradient-76);}.cls-45{fill:url(#linear-gradient-70);}.cls-46{fill:url(#linear-gradient-71);}.cls-47{fill:url(#linear-gradient-72);}.cls-48{fill:url(#linear-gradient-73);}.cls-49{fill:url(#linear-gradient-68);}.cls-50{fill:url(#linear-gradient-67);}.cls-51{fill:url(#linear-gradient-64);}.cls-52{fill:url(#linear-gradient-63);}.cls-53{fill:url(#linear-gradient-66);}.cls-54{fill:url(#linear-gradient-65);}.cls-55{fill:url(#linear-gradient-60);}.cls-56{fill:url(#linear-gradient-62);}.cls-57{fill:url(#linear-gradient-61);}.cls-58{fill:url(#linear-gradient-91);}.cls-59{fill:url(#linear-gradient-95);}.cls-60{fill:url(#linear-gradient-99);}.cls-61{fill:url(#linear-gradient-96);}.cls-62{fill:url(#linear-gradient-97);}.cls-63{fill:url(#linear-gradient-94);}.cls-64{fill:url(#linear-gradient-92);}.cls-65{fill:url(#linear-gradient-93);}.cls-66{fill:url(#linear-gradient-90);}.cls-67{fill:url(#linear-gradient-81);}.cls-68{fill:url(#linear-gradient-80);}.cls-69{fill:url(#linear-gradient-88);}.cls-70{fill:url(#linear-gradient-89);}.cls-71{fill:url(#linear-gradient-87);}.cls-72{fill:url(#linear-gradient-86);}.cls-73{fill:url(#linear-gradient-85);}.cls-74{fill:url(#linear-gradient-84);}.cls-75{fill:url(#linear-gradient-83);}.cls-76{fill:url(#linear-gradient-82);}.cls-77{fill:url(#linear-gradient-43);}.cls-78{fill:url(#linear-gradient-46);}.cls-79{fill:url(#linear-gradient-44);}.cls-80{fill:url(#linear-gradient-49);}.cls-81{fill:url(#linear-gradient-47);}.cls-82{fill:url(#linear-gradient-18);}.cls-83{fill:url(#linear-gradient-22);}.cls-84{fill:url(#linear-gradient-20);}.cls-85{fill:url(#linear-gradient-21);}.cls-86{fill:url(#linear-gradient-23);}.cls-87{fill:url(#linear-gradient-19);}.cls-88{fill:url(#linear-gradient-16);}.cls-89{fill:url(#linear-gradient-17);}.cls-90{fill:url(#linear-gradient-13);}.cls-91{fill:url(#linear-gradient-12);}.cls-92{fill:url(#linear-gradient-11);}.cls-93{fill:url(#linear-gradient-27);}.cls-94{fill:url(#linear-gradient-24);}.cls-95{fill:url(#linear-gradient-26);}.cls-96{fill:url(#linear-gradient-38);}.cls-97{fill:url(#linear-gradient-35);}.cls-98{fill:url(#linear-gradient-37);}.cls-99{fill:url(#linear-gradient-34);}.cls-100{fill:url(#linear-gradient-39);}.cls-101{fill:url(#linear-gradient-36);}.cls-102{fill:url(#linear-gradient-25);}.cls-103{fill:url(#linear-gradient-28);}.cls-104{fill:url(#linear-gradient-29);}.cls-105{fill:url(#linear-gradient-33);}.cls-106{fill:url(#linear-gradient-30);}.cls-107{fill:url(#linear-gradient-32);}.cls-108{fill:url(#linear-gradient-31);}</style><clipPath id="clippath"><rect class="cls-1" x="104.89" width="637.63" height="377.8"/></clipPath><linearGradient id="linear-gradient" x1="-556.19" y1="492.6" x2=".71" y2="328.97" gradientTransform="translate(564 668.03) scale(1 -1)" gradientUnits="userSpaceOnUse"><stop offset=".33" stop-color="#ffd33d"/><stop offset="1" stop-color="#f1535b"/></linearGradient><linearGradient id="linear-gradient-2" x1="-137.9" y1="484.85" x2="20.7" y2="296.11" gradientTransform="translate(564 668.03) scale(1 -1)" gradientUnits="userSpaceOnUse"><stop offset="0" stop-color="#fecb40"/><stop offset=".45" stop-color="#f2565b"/><stop offset="1" stop-color="#9741c8"/></linearGradient><linearGradient id="linear-gradient-3" x1="-319.74" y1="277.31" x2="223.74" y2="537.41" gradientTransform="translate(564 668.03) scale(1 -1)" gradientUnits="userSpaceOnUse"><stop offset=".11" stop-color="#ffd33d"/><stop offset=".2" stop-color="#fcbb43"/><stop offset=".36" stop-color="#f8964b"/><stop offset=".53" stop-color="#f57952"/><stop offset=".69" stop-color="#f36457"/><stop offset=".85" stop-color="#f1575a"/><stop offset="1" stop-color="#f1535b"/></linearGradient><linearGradient id="linear-gradient-4" x1="-8.27" y1="452.62" x2="-79.51" y2="409.14" gradientTransform="translate(564 668.03) scale(1 -1)" gradientUnits="userSpaceOnUse"><stop offset="0" stop-color="#8e3bcb"/><stop offset=".5" stop-color="#d767b1"/><stop offset="1" stop-color="#f2535b"/></linearGradient><linearGradient id="linear-gradient-5" x1="-100.07" y1="412.79" x2="167.02" y2="516.27" xlink:href="#linear-gradient-4"/><linearGradient id="linear-gradient-6" x1="74.75" y1="567.5" x2="34.06" y2="546.88" gradientTransform="translate(564 668.03) scale(1 -1)" gradientUnits="userSpaceOnUse"><stop offset=".16" stop-color="#fff"/><stop offset=".23" stop-color="#f7faff"/><stop offset=".33" stop-color="#dfebff"/><stop offset=".46" stop-color="#bad4ff"/><stop offset=".57" stop-color="#96bdff"/></linearGradient><linearGradient id="linear-gradient-7" x1="71.54" y1="552.56" x2="17.89" y2="580.36" gradientTransform="translate(564 668.03) scale(1 -1)" gradientUnits="userSpaceOnUse"><stop offset=".06" stop-color="#fff"/><stop offset=".24" stop-color="#f8fafe"/><stop offset=".5" stop-color="#e3ecfb"/><stop offset=".82" stop-color="#c2d6f6"/><stop offset=".95" stop-color="#b3ccf4"/></linearGradient><linearGradient id="linear-gradient-8" x1="69.61" y1="670.06" x2="39.98" y2="247.1" gradientTransform="translate(564 668.03) scale(1 -1)" gradientUnits="userSpaceOnUse"><stop offset=".14" stop-color="#ffd33d"/><stop offset="1" stop-color="#f1535b"/></linearGradient><linearGradient id="linear-gradient-9" x1="74.47" y1="620.73" x2="52.52" y2="308.58" gradientTransform="translate(564 668.03) scale(1 -1)" gradientUnits="userSpaceOnUse"><stop offset=".25" stop-color="#ffd33d"/><stop offset=".97" stop-color="#f1535b"/></linearGradient><linearGradient id="linear-gradient-10" x1="45.44" y1="642.76" x2="-47.42" y2="290.62" xlink:href="#linear-gradient-4"/><linearGradient id="linear-gradient-11" x1="114.11" y1="444.41" x2="-142" y2="445.07" xlink:href="#linear-gradient-4"/><linearGradient id="linear-gradient-12" x1="-75.78" y1="475.42" x2="31.38" y2="422.21" gradientTransform="translate(564 668.03) scale(1 -1)" gradientUnits="userSpaceOnUse"><stop offset="0" stop-color="#8e3bcb"/><stop offset=".5" stop-color="#d767b1"/><stop offset=".85" stop-color="#f2535b"/></linearGradient><linearGradient id="linear-gradient-13" x1="-69.41" y1="434.72" x2="-17.54" y2="408.96" gradientTransform="translate(564 668.03) scale(1 -1)" gradientUnits="userSpaceOnUse"><stop offset=".13" stop-color="#381a46"/><stop offset=".49" stop-color="#1b0c22"/><stop offset=".81" stop-color="#070309"/><stop offset="1" stop-color="#000"/></linearGradient><linearGradient id="linear-gradient-14" x1="76.31" y1="593.88" x2="84.38" y2="214.27" xlink:href="#linear-gradient-4"/><linearGradient id="linear-gradient-15" x1="67.62" y1="618.94" x2="3.9" y2="377.3" xlink:href="#linear-gradient-4"/><linearGradient id="linear-gradient-16" x1="209.56" y1="559.05" x2="142.91" y2="522.17" gradientTransform="translate(564 668.03) scale(1 -1)" gradientUnits="userSpaceOnUse"><stop offset="0" stop-color="#ffd33d"/><stop offset="1" stop-color="#f1535b"/></linearGradient><linearGradient id="linear-gradient-17" x1="171.6" y1="505.12" x2="160.22" y2="609.7" xlink:href="#linear-gradient-13"/><linearGradient id="linear-gradient-18" x1="165.38" y1="545.91" x2="171.87" y2="521.64" xlink:href="#linear-gradient-13"/><linearGradient id="linear-gradient-19" x1="180.32" y1="545.33" x2="169.39" y2="528.81" xlink:href="#linear-gradient-16"/><linearGradient id="linear-gradient-20" x1="175.59" y1="545.57" x2="175.22" y2="532.57" xlink:href="#linear-gradient-16"/><linearGradient id="linear-gradient-21" x1="144.75" y1="627.58" x2="89.18" y2="416.87" xlink:href="#linear-gradient-13"/><linearGradient id="linear-gradient-22" x1="90.96" y1="365.44" x2="122.97" y2="571.83" gradientTransform="translate(564 668.03) scale(1 -1)" gradientUnits="userSpaceOnUse"><stop offset=".06" stop-color="#fff"/><stop offset=".25" stop-color="#f8fafe"/><stop offset=".53" stop-color="#e3ecfb"/><stop offset=".87" stop-color="#c2d6f6"/><stop offset="1" stop-color="#b3ccf4"/></linearGradient><linearGradient id="linear-gradient-23" x1="-37.06" y1="407.47" x2="251.13" y2="311.21" xlink:href="#linear-gradient-4"/><linearGradient id="linear-gradient-24" x1="-50.41" y1="477.16" x2="-80.33" y2="686.12" xlink:href="#linear-gradient-4"/><linearGradient id="linear-gradient-25" x1="-35.33" y1="475.57" x2="-56.28" y2="579.48" xlink:href="#linear-gradient-4"/><linearGradient id="linear-gradient-26" x1="98.69" y1="486.78" x2="223.01" y2="643.05" gradientTransform="translate(564 668.03) scale(1 -1)" gradientUnits="userSpaceOnUse"><stop offset=".06" stop-color="#fff"/><stop offset=".33" stop-color="#e5eefb"/><stop offset=".77" stop-color="#c1d5f6"/><stop offset="1" stop-color="#b3ccf4"/></linearGradient><linearGradient id="linear-gradient-27" x1="-80.24" y1="497.86" x2="-95.32" y2="603.13" xlink:href="#linear-gradient-13"/><linearGradient id="linear-gradient-28" x1="-38.5" y1="421.43" x2="95.69" y2="354.92" xlink:href="#linear-gradient-4"/><linearGradient id="linear-gradient-29" x1="-26.96" y1="362.49" x2="150.79" y2="303.12" xlink:href="#linear-gradient-13"/><linearGradient id="linear-gradient-30" x1="76.92" y1="467.64" x2="76.51" y2="466.88" xlink:href="#linear-gradient-22"/><linearGradient id="linear-gradient-31" x1="-357.56" y1="508.05" x2="-172.99" y2="197.41" xlink:href="#linear-gradient-16"/><linearGradient id="linear-gradient-32" x1="-282.04" y1="449.17" x2="-358.59" y2="304.13" gradientTransform="translate(564 668.03) scale(1 -1)" gradientUnits="userSpaceOnUse"><stop offset="0" stop-color="#ffd33d" stop-opacity="0"/><stop offset="1" stop-color="#f1535b"/></linearGradient><linearGradient id="linear-gradient-33" x1="-82.82" y1="578.96" x2="-83.08" y2="547.1" xlink:href="#linear-gradient-16"/><linearGradient id="linear-gradient-34" x1="95.09" y1="598.63" x2="78.5" y2="562.07" xlink:href="#linear-gradient-16"/><linearGradient id="linear-gradient-35" x1="164.88" y1="463.3" x2="151.01" y2="432.75" xlink:href="#linear-gradient-16"/><linearGradient id="linear-gradient-36" x1="-61.01" y1="667.92" x2="-46.15" y2="586.49" gradientTransform="translate(564 668.03) scale(1 -1)" gradientUnits="userSpaceOnUse"><stop offset=".46" stop-color="#ffd33d"/><stop offset="1" stop-color="#f1535b"/></linearGradient><linearGradient id="linear-gradient-37" x1="87.27" y1="350.99" x2="94.81" y2="416.88" xlink:href="#linear-gradient-36"/><linearGradient id="linear-gradient-38" x1="-150.56" y1="476.21" x2="-83.13" y2="474.8" gradientTransform="translate(564 668.03) scale(1 -1)" gradientUnits="userSpaceOnUse"><stop offset=".29" stop-color="#ffd33d"/><stop offset="1" stop-color="#f1535b"/></linearGradient><linearGradient id="linear-gradient-39" x1="-210.61" y1="424.05" x2="-207.86" y2="397.48" xlink:href="#linear-gradient-16"/><linearGradient id="linear-gradient-40" x1="-32.11" y1="502.21" x2="-31.94" y2="579.52" xlink:href="#linear-gradient-4"/><linearGradient id="linear-gradient-41" x1="149.03" y1="552.3" x2="162.46" y2="528.44" xlink:href="#linear-gradient-16"/><linearGradient id="linear-gradient-42" x1="52.27" y1="370.81" x2="52.59" y2="516.04" xlink:href="#linear-gradient-4"/><linearGradient id="linear-gradient-43" x1=".53" y1="628.16" x2="-61.1" y2="499.5" gradientTransform="translate(564 668.03) scale(1 -1)" gradientUnits="userSpaceOnUse"><stop offset=".15" stop-color="#ffd33d"/><stop offset=".15" stop-color="#fdd250"/><stop offset=".15" stop-color="#f8cf77"/><stop offset=".15" stop-color="#f5cd8f"/><stop offset=".16" stop-color="#f4cc98"/><stop offset=".44" stop-color="#aa6834"/><stop offset=".65" stop-color="#9d5334"/></linearGradient><linearGradient id="linear-gradient-44" x1="10.3" y1="612.46" x2="-33.49" y2="515.96" gradientTransform="translate(564 668.03) scale(1 -1)" gradientUnits="userSpaceOnUse"><stop offset=".15" stop-color="#ffd33d"/><stop offset=".15" stop-color="#fdd250"/><stop offset=".15" stop-color="#f8cf77"/><stop offset=".15" stop-color="#f5cd8f"/><stop offset=".16" stop-color="#f4cc98"/><stop offset=".57" stop-color="#aa6834"/><stop offset=".93" stop-color="#9d5334"/></linearGradient><linearGradient id="linear-gradient-45" x1="-17.19" y1="568.08" x2="-30.42" y2="539.17" gradientTransform="translate(564 668.03) scale(1 -1)" gradientUnits="userSpaceOnUse"><stop offset=".19" stop-color="#aa5234"/><stop offset=".52" stop-color="#9d5334"/></linearGradient><linearGradient id="linear-gradient-46" x1="-2.58" y1="501.53" x2="-21.17" y2="692.7" xlink:href="#linear-gradient-4"/><linearGradient id="linear-gradient-47" x1="-21.64" y1="576.94" x2="42.38" y2="577.96" gradientTransform="translate(564 668.03) scale(1 -1)" gradientUnits="userSpaceOnUse"><stop offset=".2" stop-color="#8e3bcb"/><stop offset=".5" stop-color="#d767b1"/><stop offset="1" stop-color="#f2535b"/></linearGradient><linearGradient id="linear-gradient-48" x1="-21.61" y1="508.16" x2="-16.97" y2="727.68" xlink:href="#linear-gradient-4"/><linearGradient id="linear-gradient-49" x1="-4.84" y1="589.97" x2="-43.74" y2="512.18" gradientTransform="translate(564 668.03) scale(1 -1)" gradientUnits="userSpaceOnUse"><stop offset=".04" stop-color="#ffd33d"/><stop offset=".05" stop-color="#ffd23d"/><stop offset=".25" stop-color="#f99b4a"/><stop offset=".43" stop-color="#f57453"/><stop offset=".57" stop-color="#f25c59"/><stop offset=".65" stop-color="#f1535b"/></linearGradient><linearGradient id="linear-gradient-50" x1="-6.58" y1="588.78" x2="-24.41" y2="546.7" gradientTransform="translate(564 668.03) scale(1 -1)" gradientUnits="userSpaceOnUse"><stop offset="0" stop-color="#ffd33d"/><stop offset="0" stop-color="#ffd23d"/><stop offset=".22" stop-color="#f99b4a"/><stop offset=".41" stop-color="#f57453"/><stop offset=".56" stop-color="#f25c59"/><stop offset=".65" stop-color="#f1535b"/></linearGradient><linearGradient id="linear-gradient-51" x1="110.3" y1="540.54" x2="-170.27" y2="477" gradientTransform="translate(564 668.03) scale(1 -1)" gradientUnits="userSpaceOnUse"><stop offset=".06" stop-color="#fff"/><stop offset=".24" stop-color="#e7f0ff"/><stop offset=".62" stop-color="#a9c9ff"/><stop offset=".73" stop-color="#96bdff"/></linearGradient><linearGradient id="linear-gradient-52" x1="169.89" y1="593.25" x2="-111.44" y2="289.67" xlink:href="#linear-gradient-51"/><linearGradient id="linear-gradient-53" x1="53.86" y1="572.42" x2="54.44" y2="573.29" gradientTransform="translate(564 668.03) scale(1 -1)" gradientUnits="userSpaceOnUse"><stop offset="0" stop-color="#ffcf3e"/><stop offset=".31" stop-color="#fec347"/><stop offset="1" stop-color="#fc7481"/></linearGradient><linearGradient id="linear-gradient-54" x1="51.56" y1="575.6" x2="52.65" y2="571.85" xlink:href="#linear-gradient-4"/><linearGradient id="linear-gradient-55" x1="51.98" y1="577.09" x2="53.12" y2="571.58" gradientTransform="translate(564 668.03) scale(1 -1)" gradientUnits="userSpaceOnUse"><stop offset="0" stop-color="#e8c499"/><stop offset="1" stop-color="#faebd8"/></linearGradient><linearGradient id="linear-gradient-56" x1="50.03" y1="577.37" x2="53.53" y2="573.19" gradientTransform="translate(564 668.03) scale(1 -1)" gradientUnits="userSpaceOnUse"><stop offset="0" stop-color="#cc61b9"/><stop offset=".3" stop-color="#f2535b"/><stop offset=".46" stop-color="#f35f58"/><stop offset=".61" stop-color="#f57553"/><stop offset="1" stop-color="#ffd33e"/></linearGradient><linearGradient id="linear-gradient-57" x1="-61.72" y1="1477.09" x2="80.18" y2="-572.68" xlink:href="#linear-gradient-7"/><linearGradient id="linear-gradient-58" x1="27.64" y1="574.9" x2="-7.22" y2="471.72" gradientTransform="translate(564 668.03) scale(1 -1)" gradientUnits="userSpaceOnUse"><stop offset="0" stop-color="#ffd33d"/><stop offset="0" stop-color="#ffd23d"/><stop offset=".2" stop-color="#f99b4a"/><stop offset=".37" stop-color="#f57453"/><stop offset=".5" stop-color="#f25c59"/><stop offset=".58" stop-color="#f1535b"/></linearGradient><linearGradient id="linear-gradient-59" x1="24.23" y1="571.07" x2="-56.89" y2="408.81" xlink:href="#linear-gradient-58"/><linearGradient id="linear-gradient-60" x1="21.75" y1="604.12" x2="-25.19" y2="510.63" gradientTransform="translate(564 668.03) scale(1 -1)" gradientUnits="userSpaceOnUse"><stop offset=".32" stop-color="#ffd33d"/><stop offset=".42" stop-color="#fecb3f"/><stop offset=".56" stop-color="#fcb644"/><stop offset=".73" stop-color="#f8944c"/><stop offset=".93" stop-color="#f36557"/><stop offset="1" stop-color="#f1535b"/></linearGradient><linearGradient id="linear-gradient-61" x1="32.35" y1="598.79" x2="-14.59" y2="505.31" xlink:href="#linear-gradient-60"/><linearGradient id="linear-gradient-62" x1="52.52" y1="588.67" x2="5.58" y2="495.18" xlink:href="#linear-gradient-60"/><linearGradient id="linear-gradient-63" x1="59.07" y1="537.69" x2="-38.62" y2="533.44" gradientTransform="translate(564 668.03) scale(1 -1)" gradientUnits="userSpaceOnUse"><stop offset=".24" stop-color="#8e3bcb"/><stop offset=".54" stop-color="#d767b1"/><stop offset="1" stop-color="#f2535b"/></linearGradient><linearGradient id="linear-gradient-64" x1="84.66" y1="571.68" x2="-4.14" y2="501.7" xlink:href="#linear-gradient-63"/><linearGradient id="linear-gradient-65" x1="27.41" y1="523.74" x2="53.95" y2="571.02" xlink:href="#linear-gradient-63"/><linearGradient id="linear-gradient-66" x1="25.12" y1="598.83" x2="42.22" y2="456.99" xlink:href="#linear-gradient-7"/><linearGradient id="linear-gradient-67" x1="26.84" y1="584.42" x2="40.13" y2="474.22" xlink:href="#linear-gradient-58"/><linearGradient id="linear-gradient-68" x1="93.2" y1="612.53" x2="11.69" y2="521.33" xlink:href="#linear-gradient-51"/><linearGradient id="linear-gradient-69" x1="75.41" y1="580.57" x2="14.69" y2="529.73" xlink:href="#linear-gradient-7"/><linearGradient id="linear-gradient-70" x1="74.06" y1="585.05" x2="-29.38" y2="469.17" gradientTransform="translate(564 668.03) scale(1 -1)" gradientUnits="userSpaceOnUse"><stop offset=".24" stop-color="#fff"/><stop offset=".33" stop-color="#e7f0ff"/><stop offset=".51" stop-color="#a9c9ff"/><stop offset=".56" stop-color="#96bdff"/></linearGradient><linearGradient id="linear-gradient-71" x1="43.02" y1="553.22" x2="46.6" y2="464.58" xlink:href="#linear-gradient-51"/><linearGradient id="linear-gradient-72" x1="73.72" y1="493.82" x2="60.55" y2="396.29" xlink:href="#linear-gradient-13"/><linearGradient id="linear-gradient-73" x1="38.26" y1="627.38" x2="15.96" y2="547.58" xlink:href="#linear-gradient-51"/><linearGradient id="linear-gradient-74" x1="35.84" y1="647.13" x2="26.37" y2="566.92" xlink:href="#linear-gradient-51"/><linearGradient id="linear-gradient-75" x1="35.72" y1="635.72" x2="21.46" y2="545.63" xlink:href="#linear-gradient-26"/><linearGradient id="linear-gradient-76" x1="68.2" y1="670.04" x2="-21.77" y2="553.93" xlink:href="#linear-gradient-51"/><linearGradient id="linear-gradient-77" x1="8.48" y1="671.5" x2="24.05" y2="586.22" xlink:href="#linear-gradient-51"/><linearGradient id="linear-gradient-78" x1="36.4" y1="683.82" x2="15.16" y2="581.73" gradientTransform="translate(564 668.03) scale(1 -1)" gradientUnits="userSpaceOnUse"><stop offset=".06" stop-color="#fff"/><stop offset=".2" stop-color="#e3edff"/><stop offset=".44" stop-color="#b9d3ff"/><stop offset=".62" stop-color="#9fc3ff"/><stop offset=".73" stop-color="#96bdff"/></linearGradient><linearGradient id="linear-gradient-79" x1="32.29" y1="674.97" x2="32.91" y2="636.9" gradientTransform="translate(564 668.03) scale(1 -1)" gradientUnits="userSpaceOnUse"><stop offset=".06" stop-color="#fff"/><stop offset=".34" stop-color="#ccdfff"/><stop offset=".6" stop-color="#a5c6ff"/><stop offset=".73" stop-color="#96bdff"/></linearGradient><linearGradient id="linear-gradient-80" x1="93" y1="680.23" x2="-2.6" y2="567.43" xlink:href="#linear-gradient-13"/><linearGradient id="linear-gradient-81" x1="-.64" y1="649.45" x2="2.96" y2="581.39" xlink:href="#linear-gradient-51"/><linearGradient id="linear-gradient-82" x1="-.63" y1="658.19" x2="-3.81" y2="582.67" gradientTransform="translate(564 668.03) scale(1 -1)" gradientUnits="userSpaceOnUse"><stop offset=".06" stop-color="#fff"/><stop offset=".2" stop-color="#e7f0ff"/><stop offset=".51" stop-color="#a9c9ff"/><stop offset=".6" stop-color="#96bdff"/></linearGradient><linearGradient id="linear-gradient-83" x1="-11.54" y1="644.57" x2="3.52" y2="627.47" xlink:href="#linear-gradient-13"/><linearGradient id="linear-gradient-84" x1="13.39" y1="669.73" x2="-22.64" y2="590.31" xlink:href="#linear-gradient-13"/><linearGradient id="linear-gradient-85" x1="59.79" y1="651.81" x2="33.63" y2="606.41" xlink:href="#linear-gradient-13"/><linearGradient id="linear-gradient-86" x1="-15.46" y1="584.81" x2="-18.67" y2="567.89" gradientTransform="translate(564 668.03) scale(1 -1)" gradientUnits="userSpaceOnUse"><stop offset="0" stop-color="#fff"/><stop offset="1" stop-color="#231f20"/></linearGradient><linearGradient id="linear-gradient-87" x1="-11.43" y1="584.05" x2="-14.64" y2="567.13" xlink:href="#linear-gradient-86"/><linearGradient id="linear-gradient-88" x1="-7.39" y1="583.28" x2="-10.6" y2="566.36" xlink:href="#linear-gradient-86"/><linearGradient id="linear-gradient-89" x1="-8.89" y1="621.71" x2="2.76" y2="549.63" gradientTransform="translate(564 668.03) scale(1 -1)" gradientUnits="userSpaceOnUse"><stop offset=".23" stop-color="#fff"/><stop offset=".34" stop-color="#e7f0ff"/><stop offset=".58" stop-color="#a9c9ff"/><stop offset=".65" stop-color="#96bdff"/></linearGradient><linearGradient id="linear-gradient-90" x1="-5.03" y1="605.24" x2=".1" y2="549.67" xlink:href="#linear-gradient-89"/><linearGradient id="linear-gradient-91" x1="4.89" y1="681.4" x2="-64.39" y2="504.06" gradientTransform="translate(564 668.03) scale(1 -1)" gradientUnits="userSpaceOnUse"><stop offset=".15" stop-color="#ffd33d"/><stop offset=".16" stop-color="#fdd250"/><stop offset=".2" stop-color="#f8cf77"/><stop offset=".24" stop-color="#f5cd8f"/><stop offset=".26" stop-color="#f4cc98"/><stop offset=".48" stop-color="#aa6834"/><stop offset=".7" stop-color="#9d5334"/></linearGradient><linearGradient id="linear-gradient-92" x1="88.21" y1="566.36" x2="12.24" y2="477.05" xlink:href="#linear-gradient-89"/><linearGradient id="linear-gradient-93" x1=".29" y1="526.06" x2="38.39" y2="565.42" xlink:href="#linear-gradient-63"/><linearGradient id="linear-gradient-94" x1="103.06" y1="534.73" x2="70.84" y2="484.78" xlink:href="#linear-gradient-51"/><linearGradient id="linear-gradient-95" x1="78.12" y1="531.81" x2="66.15" y2="521.77" xlink:href="#linear-gradient-7"/><linearGradient id="linear-gradient-96" x1="74.41" y1="528.23" x2="61.88" y2="517.74" xlink:href="#linear-gradient-7"/><linearGradient id="linear-gradient-97" x1="87.96" y1="553.01" x2="-9.13" y2="519.02" xlink:href="#linear-gradient-89"/><linearGradient id="linear-gradient-98" x1="-2.69" y1="630.29" x2="-66.58" y2="490.64" gradientTransform="translate(564 668.03) scale(1 -1)" gradientUnits="userSpaceOnUse"><stop offset=".36" stop-color="#aa5234" stop-opacity=".2"/><stop offset=".71" stop-color="#9d5334"/></linearGradient><linearGradient id="linear-gradient-99" x1="77.02" y1="546.66" x2="58.53" y2="519.77" xlink:href="#linear-gradient-51"/><linearGradient id="linear-gradient-100" x1="-603.12" y1="369.58" x2="-439.77" y2="621.98" gradientTransform="translate(528.67 890.61) rotate(9.43) scale(1 -1)" xlink:href="#linear-gradient-16"/><linearGradient id="linear-gradient-101" x1="-625.28" y1="395.02" x2="-497.92" y2="591.79" gradientTransform="translate(528.67 890.61) rotate(9.43) scale(1 -1)" xlink:href="#linear-gradient-16"/><linearGradient id="linear-gradient-102" x1="-610.23" y1="399.86" x2="-546.58" y2="625.46" gradientTransform="translate(528.67 890.61) rotate(9.43) scale(1 -1)" gradientUnits="userSpaceOnUse"><stop offset=".1" stop-color="#ffd33d"/><stop offset="1" stop-color="#f1535b"/></linearGradient></defs><g id="Layer_1-2"><g><g class="cls-16"><g><path class="cls-15" d="M416.65,254.6c-5.48-.29-14.42-1.52-24.15-6.28-7.43-3.68-12.83-8.15-16.29-11.55,5.26,.79,10.16,1.15,14.63,1.15,13.99,.14,24.29-2.89,31.5-5.92,20.83-8.8,26.31-22.73,48.8-33.63,15.86-7.72,30.93-9.38,40.8-9.74,.72,2.89,1.44,5.77,2.24,8.66,0,0,.22,2.02,.94,5.63,.22,1.01,.5,2.16,.79,3.46,3.17,13.13,11.61,38.53,33.09,62.71,1.95,2.24,4.04,4.4,6.27,6.64,0,0-.5,1.01-1.66,2.74-4.25,6.64-17.3,24.1-44.19,40.84-.58,.36-1.23,.72-1.87,1.15-1.15,.72-2.31,1.37-3.53,2.09-.79,.51-1.66,.94-2.45,1.37-.58,.36-1.23,.72-1.87,1.01-.65,.36-1.37,.72-2.02,1.08h-.07c-.72,.36-1.37,.72-2.09,1.08-.65,.36-1.3,.65-1.95,1.01-1.51,.79-3.1,1.52-4.76,2.31-.72,.36-1.44,.72-2.23,1.01-.58,.22-1.08,.51-1.66,.72-1.08,.51-2.09,.94-3.17,1.37-.79,.36-1.59,.65-2.31,1.01-.72,.29-1.44,.58-2.23,.94-.94,.36-1.87,.72-2.81,1.08-1.73,.65-3.46,1.3-5.19,1.95-.87,.29-1.8,.65-2.67,.94-1.44,.51-2.88,.94-4.33,1.44-1.15,.36-2.31,.72-3.53,1.08-.87,.29-1.8,.58-2.74,.87-.72,.22-1.44,.43-2.24,.65-.65,.22-1.3,.36-1.95,.58-.79,.22-1.59,.43-2.38,.65-.07,0-.22,.07-.29,.07-.86,.22-1.66,.43-2.52,.65-1.73,.43-3.53,.87-5.26,1.3-.87,.22-1.8,.43-2.67,.65-2.02,.43-4.11,.94-6.2,1.37-.87,.22-1.8,.36-2.67,.58-.94,.22-1.95,.36-2.88,.58-1.15,.22-2.24,.43-3.32,.58-57.81,10.03-105.32-3.25-143.31-16.24-5.05-1.73-9.95-3.46-14.71-5.12h-.07c-19.39-6.86-35.97-12.63-49.89-13.49-20.18-3.46-77.93,4.98-108.35,21.58-.94,.51-1.8,1.01-2.67,1.52-.14,.07-.29-.14-.14-.22,17.66-12.34,98.76-65.16,173.08-55.42-4.9-7.14-7.35-6.06-15.5-9.67,0,0,32.58,2.74,79.15,9.24,46.64,6.49,75.48-28.07,75.48-28.07Z"/><path class="cls-28" d="M515.3,203.06c-15.38-.58-39.36,7.89-68.6,24.33-30.26,16.94-55.89,10.72-55.89,10.72,14.01,.14,24.34-2.9,31.56-5.94,20.87-8.83,26.36-22.81,48.89-33.74,15.89-7.75,30.98-9.41,40.87-9.78,.72,2.9,1.44,5.79,2.24,8.69,0,.07,.22,2.17,.94,5.72Z"/><path class="cls-26" d="M553.76,278.7c-4.26,6.63-17.33,24.07-44.25,40.79-18.55,11.53-43.68,22.63-77.1,29.48-54.29-5.69-117.96-14.99-45.55-21.91,100.78-9.66,125.26-101.55,129.23-120.36,.43-2.16,.65-3.39,.65-3.39l32.49,66.02,4.55,9.37Z"/><path class="cls-27" d="M565.63,278.2s-3.5,1.07-6.94,1.93c-3.43,.86-4.86-.21-7.72-2.36-2.21-1.64-10.36-10.51-16.94-18.23-2.07-2.43-3.93-4.72-5.43-6.58-.29-.36-.57-.71-.79-1.07-6.22-8.37-13.51-22.88-16.37-32.53-3-10.01-6.58-31.82-7.22-36.82-.57-4.93,2.5-6.01,2.5-6.01l7.22-4c.29,6.72,3.43,28.24,9.65,45.47,2.72,7.44,6.08,14.16,9.51,20.16,3.86,6.58,7.79,12.3,11.3,17.02,.64,.93,1.29,1.79,1.93,2.65,6.58,9.37,19.3,20.38,19.3,20.38Z"/><path class="cls-30" d="M513.79,172.96s-4.36,34.89,7.22,57.63c11.65,22.81,30.17,42.97,48.05,46.9l-55.27-104.53Z"/><path class="cls-29" d="M644.5,131.56l-12.23,.93h-.43l-7.22,.57-2.65,.21-1,.07-1.14-7.87-6.58-45.97s.29-.14,.86,.07c.5,.14,1.22,.5,2.22,1.29,.36,.29,.64,.57,1.07,.93,.15,.14,.36,.36,.5,.5,1.5,1.5,3.43,3.86,5.79,7.44,7.65,11.37,20.81,41.83,20.81,41.83Z"/><path class="cls-2" d="M632.27,132.49h-.43l-7.22,.57-2.65,.21-1-5.72-6.93-47.98c.5,.14,1.22,.5,2.21,1.29,.36,.29,.64,.57,1.08,.93,1.14,11.3,7.43,33.75,10.22,40.97,1.43,3.72,3.14,7.01,4.72,9.72Z"/><path class="cls-24" d="M731.87,138.78c0,.43,0,.93-.07,1.36-.14,1.57-.5,3.22-1,5.08-.64,2.22-1.43,4.58-2.5,7.15-.14,.43-.36,.86-.5,1.29-14.02,34.1-59.85,94.74-149,126.77-1.65,.57-3.29,1.14-4.94,1.72-1.22,.43-2.57,.43-3.79,0-.64-.21-1.22-.57-1.79-1-10.51-8.51-27.46-24.74-40.04-50.62-.57-1.14-1.14-2.36-1.72-3.58-3.5-7.72-6.01-15.23-7.94-22.31-3.58-13.73-4.72-25.88-5.08-35.11-.14-4.15,1.57-8.01,5.29-9.58,4.08-1.72,10.08-4.36,17.73-7.51,3.57-1.43,7.44-3,11.58-4.58,17.95-6.94,41.33-14.87,66.92-20.31,.86-.21,1.79-.36,2.65-.57,29.67-6.08,62.2-8.65,92.45-2.29,4.15,.86,8.29,1.93,12.37,3.15,2.36,.72,4.15,1.64,5.58,2.79l.07,.07,2.21,5.08,1.5,3Z"/><path class="cls-25" d="M728.36,152.36c-.15,.43-.36,.86-.5,1.29-14.01,34.1-59.85,94.74-149,126.77-1.64,.57-3.29,1.14-4.93,1.72-1.22,.43-2.57,.43-3.79,0-.64-.21-1.22-.57-1.79-1-3-2.43-6.43-5.43-10.23-9.08-9.51-9.37-20.8-22.95-29.81-41.54,4.36-1.5,9.29-2.86,15.01-4,87.37-17.45,173.96-87.3,173.96-87.3l8.58,10.22,2.5,2.93Z"/><path class="cls-8" d="M586.8,195.19s-1.79,40.11-42.54,60.06c-3.22,1.57-6.58,3-10.3,4.29-2.07-2.43-3.93-4.72-5.43-6.58-.29-.36-.57-.72-.79-1.07l1.64-10.72,3.65-2.93,53.77-43.04Z"/><path class="cls-92" d="M586.58,196.62c-1.79,11.23-10.37,35.03-49.4,50.98-5.79,2.36-12.23,4.5-19.38,6.51-2.07,.57-3.79-.57-4.5-2.15-.64-1.43-.5-3.15,.93-4.43,3.22-2.86,6.79-6.22,10.15-9.72,8.51-8.79,16.16-19.02,16.66-27.46,.07-1.57,1.07-2.93,2.57-3.5l19.88-7.51,17.88-6.79c2.86-1.07,5.72,1.22,5.22,4.08Z"/><path class="cls-91" d="M586.58,196.62c-2.07,12.87-13.09,42.33-68.71,57.41-2.07,.57-3.79-.57-4.5-2.14,39.47-16.95,44.98-40.18,50.27-52.69l17.87-6.79c2.72-.93,5.58,1.36,5.08,4.22Z"/><path class="cls-90" d="M537.24,247.6c-5.79,2.36-12.23,4.5-19.38,6.51-2.07,.57-3.79-.57-4.5-2.15-.64-1.43-.5-3.15,.93-4.43,3.22-2.86,6.79-6.22,10.15-9.72,1.43,3.43,4.79,8.01,12.8,9.8Z"/><path class="cls-3" d="M728.36,152.36c-.15,.43-.36,.86-.5,1.29-14.01,34.1-59.85,94.74-149,126.77-1.64,.57-3.29,1.14-4.93,1.72-1.22,.43-2.57,.43-3.79,0-.64-.21-1.22-.57-1.79-1-3-2.43-6.43-5.43-10.23-9.08,10.8-2.43,83.94-20.45,131.56-71.5,19.59-21.02,30.39-38.11,36.18-51.12l2.5,2.93Z"/><path class="cls-7" d="M657.93,205.77l-50.48,10.51c-4.58,.93-8.94-2.36-9.22-7.01-.29-4.22-.72-9.15-1.29-13.3-1.22-9.01-11.44-10.3-34.96-16.02-19.73-4.79-24.31-22.02-25.24-27.53,3.57-1.43,7.44-3,11.58-4.58l7.08,7.15,35.82,12.8,66.7,37.97Z"/><path class="cls-88" d="M731.87,138.78c0,1.93-.36,4.08-1.07,6.44-.72,2.5-1.65,5.22-2.86,8.15-.07,.07-.07,.21-.14,.29-15.73-6.79-17.45-23.24-17.59-28.96,4.15,.86,8.29,1.93,12.37,3.15,2.36,.72,4.22,1.64,5.65,2.86l1.71,3.86,1.93,4.22Z"/><path class="cls-89" d="M739.09,131.49c0,.36-.07,.79-.43,1.07l-7.94,7.08c-.36,.36-.93,.43-1.36,.21-2.07-1-3.07-2.5-3.5-3.93-.43-1.43-.29-2.86-.14-3.72,.07-.5,.5-.86,1-1l10.23-1.79c.5-.07,.93,.14,1.22,.5l.71,1c.07,.14,.15,.36,.22,.57Z"/><path class="cls-82" d="M739.09,131.49c0,.36-.07,.79-.43,1.07l-7.94,7.08c-.36,.36-.93,.43-1.36,.21-2.07-1-3.07-2.5-3.5-3.93,2,.21,4.86,.43,7.01-.43,3.5-1.36,3.64-5,3.64-5l2.58,1Z"/><path class="cls-87" d="M742.52,130.2c0,1.72-1.43,3.15-3.14,3.15s-3.15-1.43-3.15-3.15c0-.72,.22-1.36,.64-1.93,.57-.79,1.5-1.22,2.5-1.22s1.86,.43,2.43,1.14c.5,.57,.72,1.22,.72,2Z"/><path class="cls-84" d="M742.52,130.2c0,1.72-1.43,3.15-3.14,3.15s-3.15-1.43-3.15-3.15c0-.72,.22-1.36,.64-1.93,0,0-.64,2.57,1.14,3.65,1.79,1.07,3-.21,3-1,.07-.79,.57-.36,.57,.14s1-.93,.15-2.93c.57,.64,.78,1.29,.78,2.07Z"/><path class="cls-85" d="M677.03,183.39c12.52,0,22.67-10.15,22.67-22.66s-10.15-22.67-22.67-22.67-22.66,10.15-22.66,22.67,10.14,22.66,22.66,22.66Z"/><path class="cls-83" d="M694.9,160.73c0,8.08-5.36,14.87-12.73,17.16-1.65,.5-3.44,.79-5.22,.79-3.5,0-6.72-1-9.51-2.72-5.07-3.15-8.43-8.79-8.43-15.16,0-9.65,7.65-17.52,17.16-17.87h.72c4.86,0,9.29,1.93,12.51,5.15,3.44,3.15,5.51,7.65,5.51,12.65Z"/><path class="cls-86" d="M640.06,265.4c-3.5,11.23-9.44,24.67-16.02,33.82-5.93,8.15-14.09,14.66-20.38,18.88-5.3,3.57-9.22,5.58-9.22,5.58-7.01,5.51-18.38,6.79-21.31,2.29-2.93-4.5,1.36-8.44,1.36-8.44,0,0,.5-.57,1.36-1.79,.86-1.14,2.07-2.93,3.72-5.29,1.5-2.22,3.29-4.86,5.36-8.15,4.43-6.93,4.93-15.94,4.79-21.31-.07-2.72-.36-4.43-.36-4.43,12.44-5.08,23.02-10.22,31.39-14.73,14.51-7.79,22.52-13.51,22.52-13.51,.29,3.58-1,9.87-3.22,17.09Z"/><path class="cls-94" d="M544.47,149.5l-6.86,2.79-12.44,4.93s-.21-.79-4-2.72c-.57-.29-1.14-.57-1.79-.93-.86-.43-1.79-.86-2.86-1.36-6.86-3-19.02-.86-25.17,.43-1.36,.29-2.43,.57-3.07,.72-3.57,.79-12.51,1-15.23-1.07-.29-.21-.57-.43-.79-.64-2-1.93-2.22-4.08,.79-9.44,1.64-2.93,5.43-6.58,9.37-9.8,4.22-3.43,8.58-6.44,10.72-7.65,14.09-7.86,30.32-10.65,30.32-10.65l9.01,15.3,6.22,10.37,5.79,9.72Z"/><path class="cls-102" d="M537.53,152.29l-12.44,4.93,6.36-2.43c-3.58-14.44-10.3-21.09-27.46-21.09-14.09,0-25.95,10.44-31.89,17.95-2-1.93-2.22-4.08,.79-9.44,3.36-6.01,15.94-15.09,20.09-17.45,14.09-7.86,30.32-10.65,30.32-10.65,1.64-.43,18.37-4.79,32.11,6.36,10.29,8.37,12.15,19.95,12.51,22.67-10.08,3.07-20.23,6.08-30.39,9.15Z"/><path class="cls-95" d="M689.54,148l-7.3,29.96c-1.64,.5-3.43,.79-5.22,.79-3.5,0-6.72-1-9.51-2.72l8.73-33.1h.71c4.94-.07,9.37,1.86,12.59,5.08Z"/><path class="cls-93" d="M491.27,152.72c-1.36,.29-2.43,.57-3.07,.72-3.57,.79-12.51,1-15.23-1.07-.29-.21-.57-.43-.79-.64-2-1.93-2.22-4.08,.79-9.44,1.64-2.93,5.43-6.58,9.37-9.8-1.57,4.65-2.79,14.16,8.94,20.23Z"/><path class="cls-103" d="M623.97,299.22c-10.94,15.09-29.6,24.52-29.6,24.52-7.01,5.51-18.38,6.79-21.31,2.29-2.93-4.5,1.36-8.44,1.36-8.44,0,0,.5-.57,1.36-1.79,35.39-9.08,43.26-42.61,44.97-53.91,14.51-7.79,22.52-13.51,22.52-13.51,.72,8.87-8.37,35.82-19.31,50.84Z"/><path class="cls-104" d="M603.6,318.17c-5.29,3.57-9.22,5.58-9.22,5.58-7.01,5.51-18.38,6.79-21.31,2.29s1.36-8.44,1.36-8.44c0,0,.5-.57,1.36-1.79s2.07-2.93,3.72-5.29c.36,3.86,2.43,9.37,11.51,9.22,4.79-.07,9.08-.79,12.59-1.57Z"/><path class="cls-106" d="M640.85,201.2c-.07,0-.21,0-.36-.07-.07,0-.21-.07-.29-.07,.22,.07,.43,.14,.64,.14Z"/><path class="cls-108" d="M509.73,319.65c-.58,.36-1.23,.72-1.88,1.16-1.15,.72-2.31,1.37-3.53,2.09-.79,.51-1.66,.94-2.45,1.37-.58,.36-1.23,.72-1.88,1.01-.65,.36-1.37,.72-2.02,1.08h-.07c-.72,.36-1.37,.72-2.09,1.08-.65,.36-1.3,.65-1.95,1.01-1.52,.79-3.1,1.52-4.76,2.31-.72,.36-1.44,.72-2.24,1.01-.58,.22-1.08,.51-1.66,.72-1.08,.51-2.09,.94-3.17,1.37-.79,.36-1.59,.65-2.31,1.01-.72,.29-1.44,.58-2.24,.94-.94,.36-1.88,.72-2.81,1.08-1.73,.65-3.46,1.3-5.19,1.95-.87,.29-1.8,.65-2.67,.94-1.44,.51-2.89,.94-4.33,1.44-1.15,.36-2.31,.72-3.54,1.08-.87,.29-1.8,.58-2.74,.87-.72,.22-1.44,.43-2.24,.65-.65,.22-1.3,.36-1.95,.58l-2.38,.65c-.07,0-.22,.07-.29,.07-.87,.22-1.66,.43-2.53,.65-1.73,.43-3.53,.87-5.27,1.3-.87,.22-1.8,.43-2.67,.65-2.02,.43-4.11,.94-6.2,1.37-.87,.22-1.8,.36-2.67,.58-.94,.22-1.95,.36-2.89,.58-1.15,.22-2.24,.43-3.32,.58-39.39,6.93-69.62,4.48-96.31-1.73-16.59-3.83-31.89-9.17-47.11-14.52-4.91-1.73-9.74-3.47-14.72-5.13h-.07c-15.73-5.42-31.89-10.4-49.92-13.51-20.2-3.47-77.99,4.98-108.43,21.59-.94,.51-1.8,1.01-2.67,1.52-.14,.07-.29-.14-.14-.22,9.81-6.86,39.1-26.14,75.97-40.3,29.58-11.41,64.06-19.5,97.25-15.17,0,0,45.67,5.92,105.9,34.59,41.12,19.57,93.13,11.48,126.18,1.66Z"/><path class="cls-107" d="M327.55,348.97c-16.6-3.81-31.89-9.14-47.12-14.47-4.91-1.73-9.74-3.46-14.72-5.11h-.07c-15.73-5.4-31.89-10.37-49.93-13.46-20.2-3.46-78,4.97-108.45,21.52-.94,.5-1.8,1.01-2.67,1.51-.14,.07-.29-.14-.14-.22,9.81-6.84,39.11-26.06,75.98-40.17,14.79-.79,30.74,.86,47.26,6.55,52.68,17.85,75.69,34.34,99.87,43.84Z"/><path class="cls-105" d="M481.93,91.46l1.07,2.03c.12,.3,.42,.48,.72,.54l2.27,.3c.78,.12,1.13,1.07,.6,1.61l-1.61,1.67c-.24,.24-.3,.54-.24,.84l.42,2.27c.18,.78-.66,1.37-1.37,1.01l-2.09-1.01c-.3-.12-.6-.12-.9,0l-2.03,1.13c-.72,.36-1.55-.18-1.43-.95l.36-2.27c.06-.3-.06-.66-.3-.84l-1.67-1.55c-.6-.54-.3-1.49,.48-1.67l2.27-.36c.3-.06,.6-.24,.72-.54l.95-2.09c.42-.84,1.43-.84,1.79-.12Z"/><path class="cls-99" d="M658.05,68.11l1.21,2.37c.18,.3,.49,.55,.85,.61l2.61,.3c.91,.12,1.28,1.21,.67,1.88l-1.82,1.88c-.24,.24-.36,.61-.3,.97l.48,2.61c.18,.91-.73,1.58-1.57,1.21l-2.37-1.15c-.3-.18-.73-.18-1.03,0l-2.31,1.27c-.79,.42-1.76-.24-1.64-1.09l.36-2.61c.06-.36-.06-.73-.36-.97l-1.94-1.82c-.67-.61-.3-1.76,.55-1.88l2.61-.42c.36-.06,.67-.3,.79-.61l1.09-2.37c.55-.91,1.7-.97,2.13-.18Z"/><path class="cls-97" d="M728.01,203.65l1.01,1.98c.16,.25,.41,.46,.71,.51l2.18,.25c.76,.1,1.07,1.01,.56,1.57l-1.52,1.57c-.2,.2-.3,.51-.25,.81l.41,2.18c.15,.76-.61,1.32-1.32,1.01l-1.98-.96c-.25-.15-.61-.15-.86,0l-1.93,1.06c-.65,.36-1.47-.2-1.37-.91l.3-2.18c.05-.3-.05-.61-.3-.81l-1.62-1.52c-.56-.51-.25-1.47,.45-1.57l2.18-.35c.31-.05,.56-.25,.66-.51l.91-1.98c.45-.76,1.42-.81,1.77-.15Z"/><path class="cls-101" d="M501.79,41.39l2.48,2.69c.34,.34,.48,.9,.34,1.38l-.83,3.58c-.28,1.24,.97,2.27,2.14,1.72l3.31-1.52c7.51,6.62,6.55,28.47,6.55,28.47,8.34-18.75,.34-33.02,.34-33.02l2.76-2.41c.97-.83,.55-2.41-.69-2.62l-3.58-.69c-.48-.07-.9-.41-1.1-.9l-1.45-3.38c-.48-1.17-2.14-1.24-2.76-.14l-1.79,3.24c-.28,.41-.69,.76-1.17,.76l-3.65,.34c-1.17,.07-1.72,1.59-.9,2.48Z"/><path class="cls-98" d="M648.11,284.11l1.84-2.28c.26-.29,.34-.74,.2-1.12l-.85-2.82c-.29-.98,.65-1.87,1.62-1.49l2.73,1.04c5.65-5.69,3.72-23.11,3.72-23.11,7.67,14.55,2.03,26.38,2.03,26.38l2.33,1.78c.82,.61,.57,1.9-.41,2.13l-2.83,.74c-.38,.08-.69,.38-.83,.77l-.98,2.78c-.33,.96-1.64,1.11-2.2,.26l-1.61-2.49c-.24-.32-.59-.57-.98-.54l-2.94-.08c-.94,0-1.46-1.18-.85-1.94Z"/><path class="cls-96" d="M443.79,201.18l1.71-2.37c.22-.33,.61-.5,.99-.5l2.93,.06c.99,0,1.6-1.1,.99-1.93l-1.71-2.37c3.97-6.9,21.2-9.61,21.2-9.61-15.95-3.53-25.83,4.91-25.83,4.91l-2.32-1.77c-.83-.61-1.99-.06-1.93,.99v2.93c0,.39-.22,.77-.5,.99l-2.43,1.66c-.83,.55-.66,1.88,.33,2.15l2.82,.88c.39,.11,.66,.44,.77,.83l.83,2.82c.33,.94,1.6,1.16,2.15,.33Z"/><path class="cls-100" d="M355.1,246.42l1.29,2.43c.14,.36,.5,.57,.86,.64l2.72,.36c.93,.14,1.36,1.29,.72,1.93l-1.93,2c-.29,.29-.36,.64-.29,1l.5,2.72c.21,.93-.79,1.64-1.64,1.22l-2.5-1.22c-.36-.14-.72-.14-1.07,0l-2.43,1.36c-.86,.43-1.86-.21-1.72-1.14l.43-2.72c.07-.36-.07-.79-.36-1l-2-1.86c-.72-.64-.36-1.79,.57-2l2.72-.43c.36-.07,.72-.29,.86-.64l1.14-2.5c.5-1,1.72-1,2.14-.14Z"/><path class="cls-5" d="M544.47,149.5l-6.86,2.79-12.44,4.93s-.21-.79-4-2.72c-.57-.29-1.14-.57-1.79-.93,3.15-2.5,10.3-8.15,19.31-13.8l5.79,9.72Z"/><path class="cls-12" d="M731.87,138.78c0,1.93-.36,4.08-1.07,6.44-.72,2.5-1.65,5.22-2.86,8.15,.5-4.43,1.93-9.51-.57-12.3-2.93-3.22-1.57-8.87-1.57-8.87l4.15,2.43,1.93,4.15Z"/><path class="cls-4" d="M640.06,265.4c-15.94,7.44-40.04,13.3-50.34,15.66-.07-2.72-.36-4.43-.36-4.43,12.44-5.08,23.02-10.22,31.39-14.73,14.51-7.79,22.52-13.51,22.52-13.51,.29,3.5-1,9.8-3.22,17.02Z"/><path class="cls-77" d="M548.11,103.67c-.14,.72-.36,1.64-.57,2.72-.64,3.29-1.72,7.86-2.86,11.8-2,6.93-.21,11.51,2.72,13.51,.07,.07,.14,.14,.07,.29l-5.79,14.23-.14,.43c-.07,.14-.21,.21-.29,.14-1.57-.72-11.3-5.58-15.66-16.66-2-5-2.86-11.37-1.36-19.09,4.79-24.52,10.01-45.9,6.86-59.77-.14-.71,.71-1.14,1.14-.57,3.36,4.5,10.08,14.87,12.01,28.81,.07,.21,.07,.36,.07,.57,0,0,.14-.43,.36-1.07,.36-1.14,.86-2.93,1.22-4.79,.07-.29,.43-.29,.5,0,.21,1.22,.5,3.07,.86,5.36,.93,7.08,1.71,18.02-.93,25.02-.07,.14,.07,.36,.21,.29q.07,0,.14-.07c.36-.29,.78-.64,1.14-1.22,0-.29,.29-.21,.29,.07Z"/><path class="cls-79" d="M547.54,131.99l-5.79,14.23c-2.65-3.65-5.15-8.65-5.93-15.09-.64-5.43,.5-10.37,2.22-14.51,1.36-3.29,3.15-6.01,4.72-8.08,1.93-2.57,3.5-4,3.5-4l.21,.29,1.14,1.57c-.15,.57-.21,1.14-.36,1.79-.64,3.07-1.5,6.79-2.43,10.01-.29,1.07-.5,2.07-.64,3-.79,5.29,.93,8.87,3.36,10.58v.21Z"/><path class="cls-10" d="M547.18,108.18c-.64,3.07-1.5,6.79-2.43,10.01-.29,1.07-.5,2.07-.64,3-2.86-1.14-4.79-2.86-6.08-4.58-2.57-3.65-2.43-7.51-2.43-7.51l7.15-.57,4.43-.36Z"/><path class="cls-78" d="M572.99,75.22l-17.66,31.46-3.72,6.58-2.36,4.22c-9.15,0-12.44-3.79-13.58-7.36-.86-2.86-.36-5.93,1.29-8.44,.86-1.29,2-3.07,3.29-5.15,5-7.94,12.51-19.73,14.37-22.74,2.86-4.65,5.72-6.15,8.94-4.5,1.07,.57,2.5,1.43,3.93,2.29,2.79,1.72,5.5,3.65,5.5,3.65Z"/><path class="cls-81" d="M572.99,75.22l-17.66,31.46-2.07,3.43c.29-.64,10.58-21.09,13.72-27.53,2.36-4.79,1.22-9.08,.5-11.08,2.79,1.79,5.5,3.72,5.5,3.72Z"/><path class="cls-6" d="M551.61,113.25l-2.36,4.22c-9.15,0-12.44-3.79-13.58-7.36-.86-2.86-.36-5.93,1.29-8.44,.86-1.29,2-3.07,3.29-5.15-.21,.43-5.58,12.44,3.07,16.09,4.58,2,7.87,.57,8.29,.64Z"/><path class="cls-80" d="M562.27,94.66l-1.86,3.07-.64,1.07-15.3-9.29c-1.14-.72-1.5-2.22-.79-3.29,.36-.57,.93-1,1.57-1.14,.14,0,.29-.07,.5-.07,.43,0,.86,.14,1.29,.36l15.23,9.29Z"/><path class="cls-39" d="M560.41,97.74l-.64,1.07-15.3-9.29c-1.14-.72-1.5-2.22-.79-3.29,.36-.57,.93-1,1.57-1.14-1.07,1-.79,2.79,.43,3.57l14.73,9.08Z"/><path class="cls-37" d="M663.44,203.7c-.43,1.07-1.43,1.93-2.72,2.07l-53.91,5.22c-1.57,.14-2.86-.86-3.22-2.29-.07-.29-.07-.57-.07-.86,0-.43,.07-.93,.07-1.43,.14-3.65,.14-8.51-.86-12.08-1.29-4.72-4.94-8.87-14.37-12.8-.5-.21-1-.43-1.57-.64-.72-.29-1.5-.57-2.29-.86-2.72-1-5.86-1.93-9.44-2.93-4.22-1.14-8.08-2.43-11.51-3.93-12.44-5.36-19.66-12.94-21.74-22.59-1.86-8.72,2.5-22.31,7.94-34.32,1.57-3.43,3.22-6.79,4.86-9.8,.72-1.36,1.43-2.65,2.15-3.86,7.8-13.44,16.16-27.38,16.16-27.38,0,0,5.79,4.22,15.09,6.08,7.22,1.5,16.59,1.5,26.96-2.93,0,0,.92,3.93,2.21,9.58,.07,.43,.21,.86,.29,1.36v.07c.07,.14,.07,.36,.15,.5,.29,1.36,.64,2.86,1,4.36,.07,.14,.07,.29,.07,.43,0,.07,0,.14,.07,.21,0,.14,.07,.21,.07,.36q0,.07,.07,.14c.07,.21,.15,.5,.15,.72,.14,.71,.36,1.43,.5,2.14,2.65,11.8,5.65,25.24,6.22,29.31,0,0-16.02,1.72-9.58,13.3,0,0,13.59,11.23,16.37,21.95,.43,1.72,.86,3.57,1.29,5.43,.21,1,.43,2,.57,2.93,.07,.29,.14,.57,.14,.86,.72,4,1.29,7.94,1.72,10.94,.43,3.29,.71,5.51,.71,5.51,0,0,19.59,.21,26.02,12.08l.22,.43c.5,.93,.5,1.86,.21,2.72Z"/><path class="cls-38" d="M663.44,203.7l-59.84,5c-.07-.29-.07-.57-.07-.86,0-.43,.07-.93,.07-1.43,.14-3.65,.14-8.51-.86-12.08-1.29-4.72-4.94-8.87-14.37-12.8-.5-.21-1-.43-1.57-.64,2.93-3.86,8.22-9.37,15.8-12.37,9.51-3.72,17.45-.64,26.31,1.93,2.79,.79,4.51,1,5.58,.79,.07,.29,.14,.57,.14,.86,.72,4,1.29,7.94,1.71,10.94,.43,3.29,.72,5.51,.72,5.51,0,0,19.59,.21,26.02,12.08,.07,.14,.15,.29,.21,.43,.43,.86,.43,1.79,.15,2.65Z"/><path class="cls-35" d="M618.97,95.31q0,.07,.07,.14c-.15,0-.29,.07-.43,.07-.21,0-1,.29-1.43-.5,.57,.36,1.29,.29,1.79-.07-.07,.07,0,.21,0,.36Z"/><path class="cls-36" d="M619.25,96.45q-.07,0,0,0c-.07,.07-.14,.07-.14,.07,0,0-.07,0-.07,.07,0,0-.07,0-.07,.07-.21,.14-.43,.21-.64,.36-.14,.07-.21,.07-.36,.14-1.71,.43-3.29-.29-4.07-1.64,.07,.07,.78,.5,1.14,.29,.07,0,.22,0,.36,.07,.21,.07,.57,.21,.78,.29,.15,.07,.29,.07,.22,.07q-.07-.07-.15-.14c-.07-.14-.21-.36-.29-.57-.36-1-.43-2.72,1.29-3.5,.07,0,.14,0,0,.07-.86,.64-.79,1.79,.14,2.07,.15,.07,.29,.07,.43,.14,.21,.14,.21,.43,0,.64-.21,.14-.5,.21-.72,.21,.43,.43,1.08,.5,1.71,.36q.07,0,.15-.07t.07,.14c0,.07,.07,.21,.07,.29v.14s.07,.21,.14,.43Z"/><path class="cls-33" d="M619.04,95.74c-1.43,.57-2.43,0-2.86-.86-.43-.86-.14-2.14,.86-2.79,.07-.07,.15-.07,.22-.14,.29-.14,.57-.29,.78-.5,0-.14-.07-.29-.07-.43v-.07c-.78,.29-1.71,.43-2.43,1.07-1.29,1.14-1.15,2.79-.22,3.72,.15,.14,.36,.29,.5,.43,.21,.14,.35,.21,.57,.29,.43,.14,1,.14,1.57-.07,.43-.14,.79-.29,1.08-.57v-.07Z"/><path class="cls-34" d="M617.97,91.02c-.21,.07-.43,.14-.71,.29-.36,.14-.64,.29-1,.43-.64,.36-1.36,1.14-1.43,1.93,0,.36,.43-.29,.36-.14-.22,.64-.07,1.43,.64,1.79,0,0,.07,0,.07,.07,.07,0,.07,.07,.15,.07,.14,.14,.21,.36,.14,.5,0,.07-.07,.07-.07,.14l-.07,.07c-.07,0-.07,.07-.15,.07-.71,.29-1.71-.14-2.07-.79v-.07s0-.07-.07-.07v-.14c-.07-.21-.15-.36-.22-.57,0-.07-.07-.21-.07-.29-.07-.21-.07-.43-.07-.64,0-1.36,.64-2.72,1.71-3.5-.15-.21,.15-.43,.43-.29,1.14-.57,1.5-.07,2.14,.07,.15,.29,.22,.64,.29,1.07q0-.07,0,0Z"/><path class="cls-31" d="M588.08,81.29c1.14,.43,2.15,.86,3,1.22-4.65-1.14-13.73-2.57-18.09,1.72-6.07,5.93-18.59,31.96-22.88,46.55-4.29,14.66-3.29,30.39,13.44,42.4-12.44-5.36-19.66-12.94-21.74-22.59-1.86-8.72,2.5-22.31,7.94-34.32,1.57-3.43,3.22-6.79,4.86-9.8,.72-1.36,1.43-2.65,2.15-3.86,7.8-13.44,16.16-27.38,16.16-27.38,0,0,5.93,4.15,15.16,6.08Z"/><path class="cls-32" d="M610.24,126.91v11.94s-5.43-.07-13.3-1.22c-2.07-.29-4.36-.71-6.72-1.14l-.64-.14c-6.93-1.43-14.8-3.72-22.24-7.22l-.64-.29c-3.43-1.72-6.79-3.72-9.86-6.01-.22-.14-.36-.29-.57-.43-2.36-1.86-4.51-3.86-6.51-6.08,1.36-2.93,2.79-5.86,4.15-8.51,.21-.43,.43-.86,.71-1.29,0,0,2.22,2.5,6.65,5.79,.14,.14,.36,.29,.5,.36,2.36,1.72,5.36,3.58,8.94,5.43,.21,.07,.36,.21,.57,.29,5.29,2.65,11.94,5.15,19.8,6.79,.21,.07,.43,.07,.64,.14,5.65,1,11.72,1.64,18.52,1.57Z"/><path class="cls-9" d="M596.88,137.64c-2.07-.29-4.37-.72-6.72-1.14l-.64-.14c-6.93-1.43-14.8-3.72-22.24-7.22l-.64-.29c-3.44-1.72-6.79-3.72-9.87-6.01-.21-.14-.36-.29-.57-.43-2.36-1.86-4.51-3.86-6.51-6.08,1.36-2.93,2.79-5.86,4.15-8.51,2.43,4.22,10.94,17.59,25.02,22.31,9.08,2.93,14.73,5.65,18.02,7.51Z"/><path class="cls-55" d="M561.91,112.61c-1,1.43-3.65,5.43-5.08,10.15-.22-.14-.36-.29-.57-.43,1.43-4.72,4.07-8.65,5.07-10.08,.22,.14,.36,.21,.58,.36Z"/><path class="cls-57" d="M567.35,129.05c.29-3.5,3.08-8.87,4.07-10.72-.21-.07-.35-.21-.57-.29-1,1.86-3.72,7.08-4.15,10.72l.64,.29Z"/><path class="cls-56" d="M590.15,136.49l-.64-.14c-.14-3.72,1.22-9.37,1.72-11.23,.21,.07,.43,.07,.64,.14-.5,1.79-1.86,7.58-1.71,11.22Z"/><path class="cls-52" d="M592.45,124.55l-4.29,15.52-1.5-.72c-.78-.43-1.22-1.14-1-2l3.51-12.51c.21-.72,.86-1.29,1.5-1.29l1.79,1Z"/><path class="cls-51" d="M601.88,125.77l-9.15-1.22c-.72-.07-1.5,.5-1.72,1.29l-3.5,12.58c-.21,.86,.21,1.64,1,1.79l20.88,2.93c.79,.07,1.57-.5,1.72-1.36l3-13.08c.22-.86-.29-1.64-1-1.72l-11.22-1.22Z"/><path class="cls-54" d="M613.47,127.05l-1.22-.14-19.8-2.36-1.72-1.07h.22l9.15,1.22,10.87,1.14,.72,.14h.07l1.72,1.07Z"/><path class="cls-53" d="M600.31,133.63c-.21,1.93-1.93,3.5-3.79,3.65-1.86,.07-3.22-1.36-3-3.29s1.93-3.5,3.79-3.65c1.86-.14,3.22,1.36,3,3.29Z"/><path class="cls-50" d="M599.52,133.63c-.15,1.5-1.5,2.72-2.93,2.79-1.43,.07-2.5-1.07-2.36-2.5,.15-1.43,1.5-2.72,2.94-2.79,1.43-.07,2.57,1.07,2.36,2.5Z"/><path class="cls-49" d="M614.97,134.7l-10.08-53.27,.57-.14,10.15,53.34-.64,.07Z"/><path class="cls-14" d="M571.42,95.02s-6.36,11.15,8.73,23.52c20.66,16.87,26.88,19.59,30.46,24.95s7.87,10.87,9.15,9.8c0,0-5.72-13.16-9.44-16.02-3.86-2.86-38.9-42.26-38.9-42.26Z"/><path class="cls-45" d="M630.77,134.92s8.51,7.01,7.94,9.44c-.64,2.5-3.07,2.15-4.43,1.72,0,0,1.79,1.29,1.36,3.15-.43,1.79-3.93,1.79-6.08,.57,0,0,.5,2.22-2.29,2.72-2.65,.43-6.72-4.29-7.01-4.65,.21,.36,2.21,4.22,.21,5.36-1.79,1-5.22-6.72-8.22-10.8-.57-.79-1.14-1.36-1.65-1.79-.93-.72-3.79-3.07-7.36-5.93-8.87-7.22-22.31-18.16-22.31-18.16,0,0-16.23-11.15-8.51-23.52,0-.07,.07-.07,.07-.14,3.93-6.22,14.16-8.15,21.16-.5,4.79,5.15,16.37,18.23,23.31,26.03,3.29,3.72,5.5,6.22,5.5,6.22,0,0,4.51,5.08,9.87,4.65,5.36-.43,6.72-1.93,7.58,.72,.93,2.79-5.58,5.58-9.15,4.93Z"/><path class="cls-46" d="M634.55,172.1c-1.71,.36-3.79,.5-6.29,.07-2.07-.36-3.86-.93-5.58-1.5-3.93-1.22-8.01-2.5-15.8-1.64-8.15,.86-15.59,8.79-18.66,12.51-1.22-.5-2.43-1-3.79-1.5,2.65-3.43,11.51-13.73,22.02-14.87,8.58-.93,13.23,.57,17.38,1.86,1.71,.5,3.28,1,5.07,1.36,1.93,.36,3.58,.21,4.86-.07,.36,1.22,.57,2.5,.78,3.79Z"/><path class="cls-47" d="M660.72,205.77l-53.91,5.22c-1.86,.14-3.36-1.36-3.29-3.15,0-.43,.07-.93,.07-1.43l59.49-5.79c.07,.14,.15,.29,.21,.43,1,2-.29,4.5-2.57,4.72Z"/><path class="cls-48" d="M571.07,69.21s-1.29,1.07-1,3.15c.43,2.79,7.86,9.37,21.52,10.72,13.73,1.29,20.88-2.22,22.31-3.22,1.71-1.22,2.07-3.57,2.07-3.57,0,0-17.01,4.5-22.38,3.29-5.36-1.14-22.52-10.37-22.52-10.37Z"/><path class="cls-42" d="M572.28,67.42s-1.72-1.86-2.22,.5c-.36,1.79,5.36,11.08,21.31,12.44,16.3,1.36,24.1-3.07,24.88-4,.93-1.07,2.5-3.86,1.08-4.08-1.43-.21-17.52,6.58-25.24,4.29-7.65-2.43-19.8-9.15-19.8-9.15Z"/><path class="cls-43" d="M567.35,56.84s-2.65,5.58,6.15,12.66c9.37,7.51,22.81,10.15,37.9,6.15,16.02-4.22,11.08-15.66,11.08-15.66l-55.13-3.15Z"/><path class="cls-44" d="M639.27,39.75c0,9.72-4.5,18.52-11.8,24.81-5.43,4.72-12.44,8.08-20.16,9.37-2.43,.43-4.93,.64-7.44,.64-20.88,0-37.96-14.3-39.4-32.39-.07-.79-.07-1.64-.07-2.43,0-19.23,17.66-34.82,39.46-34.82,15.3,0,28.53,7.65,35.11,18.88,2.72,4.72,4.29,10.15,4.29,15.94Z"/><path class="cls-13" d="M607.25,73.93c-2.43,.43-4.94,.64-7.51,.64-20.88,0-37.97-14.3-39.4-32.39l7.58-8.15,9.08,1s2.86,8.87-8.01,16.02c.07,0,10.08,23.09,38.25,22.88Z"/><path class="cls-40" d="M622.19,11.08c-1.71-1.07-5.65-2.86-5.65-2.86-28.38-7.36-43.54,17.45-43.54,17.45l-1.64-.57-6.37-2.22c.5-1,6.15-13.01,18.87-19.09,12.73-6.08,27.17-3.22,31.75-.93,4.79,2.43,6.15,5.08,6.51,6.72,.22,.86,.07,1.5,.07,1.5Z"/><path class="cls-41" d="M622.19,11.08c-1.71-1.07-5.65-2.86-5.65-2.86-28.38-7.36-43.54,17.45-43.54,17.45l-1.64-.57-.22-.93s11.23-22.24,36.82-20.38c9.8,.71,13.01,3.07,14.16,5.72,.22,.93,.07,1.57,.07,1.57Z"/><path class="cls-68" d="M639.27,39.75c0,9.72-4.5,18.52-11.8,24.81-.21,.14-.5,.29-.71,.43-20.24,12.16-45.48-1.22-46.62-18.16-.78-11.23,5.58-19.59,13.87-24.74,7.36-4.58,16.3-6.65,23.31-6.08,12.51,1.07,17.59,7.72,17.59,7.72,2.79,4.79,4.36,10.22,4.36,16.02Z"/><path class="cls-67" d="M577,35.03c.07,7.29-5.58,13.23-12.59,13.3-7.08,.07-12.87-5.72-12.94-13.01-.07-7.29,5.58-13.23,12.58-13.3,7.08-.07,12.87,5.72,12.94,13.01Z"/><path class="cls-76" d="M573.21,34.25c.07,6.22-4.72,11.3-10.72,11.37-6.01,.07-10.94-4.93-11.01-11.08-.07-6.15,4.72-11.3,10.73-11.37,6-.14,10.94,4.86,11.01,11.08Z"/><path class="cls-75" d="M567.06,33.96c.07,3-2.29,5.51-5.22,5.51-1.57,0-3-.71-4.01-1.79-.86-.93-1.36-2.22-1.36-3.57-.07-3,2.29-5.51,5.22-5.51,1.22,0,2.29,.36,3.22,1.07,1.29,.93,2.15,2.5,2.15,4.29Z"/><path class="cls-74" d="M566.27,33.18c.07,3-2.29,5.51-5.22,5.51-1.21,0-2.29-.36-3.22-1.07-.86-.93-1.36-2.22-1.36-3.57-.07-3,2.29-5.51,5.22-5.51,1.22,0,2.29,.36,3.22,1.07,.86,1,1.36,2.22,1.36,3.57Z"/><path class="cls-73" d="M626.69,64.99c-20.24,12.16-45.48-1.22-46.62-18.16-.78-11.23,5.58-19.59,13.87-24.74,0,0-17.94,18.3-4.93,34.32,9.08,11.15,28.74,13.3,37.68,8.58Z"/><path class="cls-72" d="M546.4,95.74c.67,0,1.22-.54,1.22-1.22s-.55-1.22-1.22-1.22-1.22,.54-1.22,1.22,.54,1.22,1.22,1.22Z"/><path class="cls-71" d="M550.11,98.17c.68,0,1.22-.54,1.22-1.21s-.54-1.22-1.22-1.22-1.22,.54-1.22,1.22,.55,1.21,1.22,1.21Z"/><path class="cls-69" d="M553.91,100.24c.67,0,1.21-.54,1.21-1.22s-.54-1.22-1.21-1.22-1.22,.54-1.22,1.22,.54,1.22,1.22,1.22Z"/><path class="cls-70" d="M566.13,80.08l-.29,.5-3,4.58c-.5,.79-1.5,1-2.29,.5l-3.29-2.15-1.79-1.14c-.57-.36-.86-1.07-.71-1.72,.07-.21,.14-.43,.21-.64l3.29-5.08c.5-.79,1.57-1,2.29-.5l4.29,2.79,.78,.5c.78,.5,1,1.57,.5,2.36Z"/><path class="cls-66" d="M566.13,80.08l-.29,.5c-1.86,1.29-4.79,2.72-8.58,3l-1.79-1.14c-.57-.36-.86-1.07-.71-1.72,2.21-.29,6.86-1.22,10.15-3.36l.79,.5c.71,.36,.93,1.43,.43,2.22Z"/><path class="cls-58" d="M533.17,103.53c-7.15,11.87-7.65,20.38-7.58,26.53-.14-.43-.29-.79-.43-1.22-1.64-4.79-2.29-10.72-.93-17.87,3.43-17.66,7.08-33.6,7.72-46.4,.07-2.07,.14-4,.07-5.86-.07-2.72-.43-5.22-.93-7.58-.14-.71,.72-1.14,1.14-.57,1.29,1.72,3.15,4.36,4.93,7.72,1.22,2.22,2.43,4.72,3.5,7.51,.21,.5,.36,1,.57,1.5,1.29,3.65,2.36,7.65,3,12.08l.07,.57c-.07,.07-.64,6.22-11.15,23.59Z"/><path class="cls-64" d="M630.77,134.92s8.51,7.01,7.94,9.44c-.29,1.29-1.14,1.79-2,1.93-.86,.14-1.79,0-2.43-.21,.07,.07,1.72,1.36,1.36,3.15-.22,.93-1.36,1.43-2.65,1.43-1.14,0-2.43-.29-3.44-.86,0,0,.5,2.22-2.29,2.72-2.65,.43-6.72-4.29-7.01-4.65,.21,.36,2.21,4.22,.21,5.36-2.15,1.22-6.58-9.94-9.87-12.58-.5-.43-1.57-1.29-3-2.43-1.22-1-2.71-2.22-4.36-3.5,1.86-6.86,5.86-11.15,9.44-13.73,1.57-1.14,3.08-1.93,4.22-2.5,3.29,3.72,5.5,6.22,5.5,6.22,0,0,4.51,5.08,9.87,4.65,5.36-.43,6.72-1.93,7.58,.72,.5,1.43-1.15,2.86-3.29,3.86-1.79,.86-4.08,1.29-5.79,1Z"/><path class="cls-65" d="M577.71,134.27l-3.22-1.14c-.21-.07-.36-.29-.29-.57l4.07-11.51c.07-.21,.29-.36,.57-.29l3.22,1.14c.21,.07,.35,.29,.29,.57l-4.08,11.51c-.07,.21-.36,.36-.57,.29Z"/><path class="cls-63" d="M636.99,188.47s-4-.79-9.36-.21c-.86,.07-1.22-1.07-.43-1.5,2.43-1.29,5.72-2.79,9.15-3.72,.43,3.29,.64,5.43,.64,5.43Z"/><path class="cls-59" d="M636.7,146.36c-.86,.14-1.79,0-2.43-.21l-4.86-4.86c.5,.5,4.79,4.22,6.07,4.72,.43,.21,.86,.29,1.22,.36Z"/><path class="cls-61" d="M632.98,150.72c-1.14,0-2.43-.29-3.44-.86l-4.72-5.08c.43,.43,5.22,5.08,8.15,5.93Z"/><path class="cls-17" d="M588.5,95.75l-9.58,8.37,4.38,5.01,9.58-8.37-4.38-5.01Z"/><path class="cls-19" d="M588.38,95.78l-9.53,8.33,.33,.38,9.53-8.33-.33-.38Z"/><path class="cls-19" d="M589.09,96.54l-9.53,8.33,.33,.38,9.53-8.33-.33-.38Z"/><path class="cls-19" d="M589.75,97.35l-9.53,8.33,.33,.38,9.53-8.33-.33-.38Z"/><path class="cls-19" d="M590.47,98.11l-9.53,8.33,.33,.38,9.53-8.33-.33-.38Z"/><path class="cls-19" d="M591.07,98.86l-9.53,8.33,.33,.38,9.53-8.33-.33-.38Z"/><path class="cls-19" d="M591.79,99.62l-9.53,8.33,.33,.38,9.53-8.33-.33-.38Z"/><path class="cls-19" d="M592.45,100.42l-9.53,8.33,.33,.38,9.53-8.33-.33-.38Z"/><path class="cls-20" d="M582.72,100.76l-3.82,3.34,2.4,2.75,3.82-3.34-2.4-2.75Z"/><path class="cls-17" d="M579.21,103.96l.15,.07,.14-.07-.07,.14,.15,.07h-.15v.14l-.07-.14h-.15l.07-.07-.07-.14Z"/><path class="cls-17" d="M579.79,103.96l.15,.07,.14-.07-.07,.14,.15,.07h-.15v.14l-.07-.14h-.15l.07-.07-.07-.14Z"/><path class="cls-17" d="M580.29,104.46l.14,.14,.07-.14v.14l.14,.07-.14,.07-.07,.14-.07-.14h-.14l.14-.14-.07-.14Z"/><path class="cls-17" d="M580.79,105.03l.07,.07,.14-.07v.14l.07,.07h-.15v.14l-.07-.14-.15,.07,.07-.14v-.14Z"/><path class="cls-17" d="M581.22,105.6l.15,.07,.14-.14-.07,.21,.14,.07h-.14v.14l-.07-.14h-.15l.07-.07-.07-.14Z"/><path class="cls-17" d="M580.43,103.39l.15,.07,.14-.07-.07,.14,.15,.07h-.15l-.07,.14v-.14h-.22l.15-.07-.07-.14Z"/><path class="cls-17" d="M580.93,103.96l.15,.07,.07-.14v.21l.14,.07h-.14l-.07,.14-.07-.14h-.14l.14-.07-.07-.14Z"/><path class="cls-17" d="M581.43,104.46l.07,.07,.15-.07v.14l.07,.07h-.15v.21l-.07-.14h-.14l.07-.14v-.14Z"/><path class="cls-17" d="M581.86,105.03l.15,.07,.14-.07-.07,.14,.14,.07h-.14l-.07,.14v-.14h-.22l.15-.07-.07-.14Z"/><path class="cls-17" d="M581.07,102.82l.14,.07,.15-.07-.07,.14,.15,.07h-.15l-.07,.14-.07-.07h-.15l.15-.14-.07-.14Z"/><path class="cls-17" d="M581.57,103.39l.15,.07,.07-.07v.14l.15,.07h-.21v.14l-.07-.14h-.15l.15-.07-.07-.14Z"/><path class="cls-17" d="M582.01,103.96l.14,.07,.15-.14-.07,.14,.15,.07-.15,.07v.14l-.07-.14h-.14l.07-.07-.07-.14Z"/><path class="cls-17" d="M582.5,104.46l.15,.07,.14-.07-.07,.14,.15,.07h-.15l-.07,.14-.07-.14-.15,.07,.15-.14-.07-.14Z"/><path class="cls-17" d="M581.72,102.24l.14,.14,.07-.14v.14l.15,.07-.15,.07-.07,.14-.07-.14h-.14l.14-.14-.07-.14Z"/><path class="cls-17" d="M582.22,102.82l.15,.07,.07-.07v.14l.15,.07h-.21v.14l-.07-.14-.15,.07,.15-.14-.07-.14Z"/><path class="cls-17" d="M582.65,103.39l.14,.07,.15-.14-.07,.21,.14,.07h-.14v.14l-.07-.14h-.14l.07-.07-.07-.14Z"/><path class="cls-17" d="M583.15,103.89l.14,.14,.07-.14v.14l.15,.07h-.15l-.07,.21-.07-.14h-.15l.15-.14-.07-.14Z"/><path class="cls-17" d="M582.36,101.74l.14,.07,.07-.14v.21l.14,.07h-.14l-.07,.14-.07-.14h-.14l.14-.07-.07-.14Z"/><path class="cls-17" d="M582.86,102.24l.07,.07,.14-.07v.14l.07,.07h-.15v.21l-.07-.14h-.15l.07-.14v-.14Z"/><path class="cls-17" d="M583.29,102.82l.15,.07,.14-.07-.07,.14,.14,.07h-.14v.14l-.07-.14h-.15l.07-.07-.07-.14Z"/><path class="cls-17" d="M583.79,103.39l.14,.07,.07-.14v.14l.15,.14h-.15l-.07,.14-.07-.14h-.14l.14-.07-.07-.14Z"/><path class="cls-17" d="M579.71,104.46l.15,.14,.14-.14-.07,.14,.14,.07-.14,.07-.07,.14v-.14h-.21l.14-.14-.07-.14Z"/><path class="cls-17" d="M580.22,105.03l.14,.07,.07-.07v.14l.15,.07h-.15l-.07,.14-.07-.14h-.15l.15-.07-.07-.14Z"/><path class="cls-17" d="M580.64,105.6l.15,.07,.14-.14-.07,.21,.14,.07h-.14v.14l-.07-.14h-.15l.07-.07-.07-.14Z"/><path class="cls-17" d="M581.15,106.1l.14,.07,.15-.07-.07,.14,.14,.07h-.14l-.07,.21v-.14h-.21l.14-.14-.07-.14Z"/><path class="cls-17" d="M579.86,103.39l.14,.07,.15-.07-.07,.14,.15,.07h-.15v.14l-.07-.14-.21,.07,.15-.14-.07-.14Z"/><path class="cls-17" d="M580.36,103.96l.15,.07,.07-.14v.21l.14,.07h-.14l-.07,.14-.07-.14h-.14l.14-.07-.07-.14Z"/><path class="cls-17" d="M580.86,104.46l.07,.07,.15-.07v.14l.07,.07h-.15v.21l-.07-.14h-.14l.07-.14v-.14Z"/><path class="cls-17" d="M581.29,105.03l.15,.07,.14-.07-.07,.14,.15,.07h-.15v.14l-.07-.14h-.22l.15-.07-.07-.14Z"/><path class="cls-17" d="M581.79,105.6l.15,.07,.07-.14v.14l.14,.14h-.14l-.07,.14-.07-.14h-.14l.14-.07-.07-.14Z"/><path class="cls-17" d="M580.5,102.82l.14,.07,.15-.07-.07,.14,.15,.07h-.15v.14l-.07-.14-.14,.07,.07-.14-.07-.14Z"/><path class="cls-17" d="M581,103.39l.15,.07,.07-.07v.14l.15,.07h-.15l-.07,.14-.07-.14h-.15l.15-.07-.07-.14Z"/><path class="cls-17" d="M581.5,103.89l.07,.14,.15-.14v.14l.07,.07-.14,.07v.14l-.07-.14h-.14l.07-.14v-.14Z"/><path class="cls-17" d="M581.93,104.46l.15,.07,.14-.07-.07,.14,.15,.07h-.15v.14l-.07-.14-.15,.07,.07-.14-.07-.14Z"/><path class="cls-17" d="M582.43,105.03l.15,.07,.07-.14v.21l.14,.07h-.14l-.07,.14-.07-.14h-.14l.14-.07-.07-.14Z"/><path class="cls-17" d="M581.15,102.24l.14,.14,.15-.14-.07,.14,.14,.07-.14,.07-.07,.14v-.14h-.21l.14-.14-.07-.14Z"/><path class="cls-17" d="M581.65,102.82l.14,.07,.07-.07v.14l.15,.07h-.15l-.07,.14-.07-.14-.15,.07,.15-.14-.07-.14Z"/><path class="cls-17" d="M582.08,103.39l.14,.07,.15-.14-.07,.21,.14,.07h-.14v.14l-.07-.14h-.14l.07-.07-.07-.14Z"/><path class="cls-17" d="M582.58,103.89l.14,.07,.15-.07-.07,.14,.15,.07h-.15l-.07,.21v-.14h-.21l.15-.14-.07-.14Z"/><path class="cls-17" d="M583.08,104.46l.15,.07,.07-.07v.14l.15,.07h-.15l-.07,.14-.07-.14h-.15l.15-.07-.07-.14Z"/><path class="cls-17" d="M581.79,101.74l.15,.07,.07-.14v.21l.14,.07h-.14l-.07,.14-.07-.14h-.14l.14-.07-.07-.14Z"/><path class="cls-17" d="M582.29,102.24l.14,.07,.07-.07v.14l.15,.07h-.22v.21l-.07-.14h-.15l.15-.14-.07-.14Z"/><path class="cls-17" d="M582.72,102.82l.15,.07,.14-.07-.07,.14,.14,.07h-.14v.14l-.07-.14h-.15l.07-.07-.07-.14Z"/><path class="cls-17" d="M583.22,103.39l.14,.07,.07-.14v.14l.14,.14h-.14l-.07,.14-.07-.14h-.14l.14-.07-.07-.14Z"/><path class="cls-17" d="M583.72,103.89l.14,.07,.07-.07v.14l.15,.07h-.22v.14l-.07-.14-.15,.07,.15-.14-.07-.14Z"/><path class="cls-17" d="M582.43,101.17l.15,.07,.14-.07-.07,.14,.14,.07h-.14l-.07,.14-.07-.14h-.14l.14-.07-.07-.14Z"/><path class="cls-17" d="M582.94,101.67l.14,.14,.07-.14v.14l.14,.07-.21,.07v.14l-.07-.14h-.14l.14-.14-.07-.14Z"/><path class="cls-17" d="M583.36,102.24l.15,.07,.14-.07-.07,.14,.15,.07h-.15v.14l-.07-.14-.15,.07,.07-.14-.07-.14Z"/><path class="cls-17" d="M583.86,102.82l.15,.07,.15-.14-.07,.21,.14,.07h-.14l-.07,.14-.07-.14h-.14l.14-.07-.07-.14Z"/><path class="cls-17" d="M584.36,103.32l.14,.07,.07-.07v.14l.15,.07h-.22v.21l-.07-.14h-.15l.15-.14-.07-.14Z"/><path class="cls-62" d="M607.6,138.28c-1.22-1-2.71-2.22-4.36-3.5,1.86-6.86,5.86-11.15,9.44-13.73-.21,.14-6.51,7.22-5.08,17.23Z"/><path class="cls-18" d="M547.11,79.43c-.93-.86-2.07-.64-2.5-.5,.36-1.14,.86-2.93,1.22-4.79,.07-.29,.43-.29,.5,0,.21,1.14,.5,3,.79,5.29Z"/><path class="cls-11" d="M533.17,103.53c-7.15,11.87-7.65,20.38-7.58,26.53-.14-.43-.29-.79-.43-1.22-.93-6.22-.36-15.16,4.22-23.24,6.79-11.94,15.3-22.95,11.87-38.25,1.29,3.65,2.36,7.65,3,12.08l.07,.57c-.07,0-.64,6.15-11.15,23.52Z"/><path class="cls-18" d="M540.61,65.85c-1.5-3-3.22-4.43-4.86-4.36-1.72,.14-3.43,1.72-3.86,3.07,.07-2.07,.14-4,.07-5.86-.07-2.72-.43-5.22-.93-7.58-.14-.71,.72-1.14,1.14-.57,1.29,1.72,3.15,4.36,4.93,7.72,1.22,2.29,2.43,4.79,3.5,7.58Z"/><path class="cls-60" d="M636.63,133.92c-1.86,.86-4.21,1.29-5.86,1l-2.21-1.57c.21,.07,3.72,2,8.08,.57Z"/></g></g><g><path class="cls-23" d="M0,375.28c1.77-46.65,49.98-86.53,50.71-87.14-3.09,5.33-3.44,10.11-3.44,10.11,25.7-28.83,81.75-36.23,81.75-36.23-11.29,4.84-23.57,13.9-23.57,13.9,54.93-17.65,102.65-6.23,103.96-5.84-1.25-.14-41.53-4.02-108.45,25.85-1.34,.58-2.66,1.24-4,1.81-27.95,13.03-49.16,28.11-64.42,41.53-5.13,4.43-9.49,8.76-13.36,12.62C6.35,365.01,.44,374.57,0,375.28Z"/><path class="cls-22" d="M0,375.28c1.77-46.65,49.98-86.53,50.71-87.14-3.09,5.33-3.44,10.11-3.44,10.11,25.7-28.83,81.75-36.23,81.75-36.23-11.29,4.84-23.57,13.91-23.57,13.91,0,0-32.53,12.8-53.59,38.8-7.13,8.81-13.67,17.22-19.26,24.45C10.38,358.49,.57,374.37,0,375.28Z"/><path class="cls-21" d="M0,375.28c1.77-46.65,49.98-86.53,50.71-87.14-3.09,5.33-3.44,10.11-3.44,10.11,0,0-11.94,13.51-20.64,36.68-2.19,5.82-4.75,11.55-7.41,16.87-12.88,13.21-18.79,22.77-19.23,23.48Z"/></g></g></g></svg>