<?xml version="1.0" encoding="UTF-8"?><svg xmlns="http://www.w3.org/2000/svg" xmlns:xlink="http://www.w3.org/1999/xlink" viewBox="0 0 547.31 482.95"><defs><style>.cls-1{stroke-width:1.5px;}.cls-1,.cls-2,.cls-3,.cls-4{fill:none;stroke:#000;stroke-miterlimit:10;}.cls-1,.cls-2,.cls-4{stroke-linecap:round;}.cls-5{fill:url(#linear-gradient-135);}.cls-5,.cls-6,.cls-7{opacity:.51;}.cls-8{fill:url(#linear-gradient-100);}.cls-8,.cls-9,.cls-10,.cls-11,.cls-12,.cls-13{opacity:.35;}.cls-9{fill:url(#linear-gradient-136);}.cls-10{fill:url(#linear-gradient-131);}.cls-11{fill:url(#linear-gradient-137);}.cls-12{fill:url(#linear-gradient-133);}.cls-14{fill:url(#linear-gradient-132);}.cls-15{fill:url(#linear-gradient-130);}.cls-16{fill:url(#linear-gradient-134);}.cls-17{fill:url(#linear-gradient-139);}.cls-18{fill:url(#linear-gradient-138);}.cls-19{fill:url(#linear-gradient-117);}.cls-20{fill:url(#linear-gradient-118);}.cls-21{fill:url(#linear-gradient-111);}.cls-22{fill:url(#linear-gradient-112);}.cls-23{fill:url(#linear-gradient-127);}.cls-24{fill:url(#linear-gradient-128);}.cls-25{fill:url(#linear-gradient-113);}.cls-26{fill:url(#linear-gradient-114);}.cls-27{fill:url(#linear-gradient-115);}.cls-28{fill:url(#linear-gradient-119);}.cls-29{fill:url(#linear-gradient-106);}.cls-30{fill:url(#linear-gradient-123);}.cls-31{fill:url(#linear-gradient-129);}.cls-32{fill:url(#linear-gradient-122);}.cls-33{fill:url(#linear-gradient-121);}.cls-34{fill:url(#linear-gradient-101);}.cls-35{fill:url(#linear-gradient-126);}.cls-36{fill:url(#linear-gradient-125);}.cls-37{fill:url(#linear-gradient-124);}.cls-38{fill:url(#linear-gradient-120);}.cls-39{fill:url(#linear-gradient-151);}.cls-40{fill:url(#linear-gradient-150);}.cls-41{fill:url(#linear-gradient-148);}.cls-42{fill:url(#linear-gradient-149);}.cls-43{fill:url(#linear-gradient-146);}.cls-44{fill:url(#linear-gradient-141);}.cls-45{fill:url(#linear-gradient-140);}.cls-46{fill:url(#linear-gradient-147);}.cls-47{fill:url(#linear-gradient);}.cls-47,.cls-48,.cls-49,.cls-50,.cls-51,.cls-52,.cls-53,.cls-54,.cls-55,.cls-56,.cls-57,.cls-58,.cls-59,.cls-60,.cls-61,.cls-62,.cls-63,.cls-64,.cls-65,.cls-66,.cls-67,.cls-68,.cls-69,.cls-70,.cls-71,.cls-72,.cls-73,.cls-74,.cls-75,.cls-76,.cls-77{mix-blend-mode:multiply;}.cls-47,.cls-48,.cls-49,.cls-50,.cls-51,.cls-52,.cls-53,.cls-54,.cls-55,.cls-56,.cls-57,.cls-65,.cls-66,.cls-67,.cls-68,.cls-69,.cls-70,.cls-71,.cls-72,.cls-73,.cls-74,.cls-75,.cls-76{opacity:.42;}.cls-48{fill:url(#linear-gradient-78);}.cls-49{fill:url(#linear-gradient-77);}.cls-50{fill:url(#linear-gradient-76);}.cls-51{fill:url(#linear-gradient-75);}.cls-52{fill:url(#linear-gradient-70);}.cls-53{fill:url(#linear-gradient-73);}.cls-54{fill:url(#linear-gradient-71);}.cls-55{fill:url(#linear-gradient-72);}.cls-56{fill:url(#linear-gradient-43);}.cls-57{fill:url(#linear-gradient-91);}.cls-58{fill:url(#linear-gradient-93);}.cls-58,.cls-59{opacity:.28;}.cls-59{fill:url(#linear-gradient-45);}.cls-60{fill:url(#linear-gradient-32);}.cls-60,.cls-61,.cls-62,.cls-63,.cls-64,.cls-77{opacity:.21;}.cls-61{fill:url(#linear-gradient-34);}.cls-62{fill:url(#linear-gradient-51);}.cls-63{fill:url(#linear-gradient-48);}.cls-64{fill:url(#linear-gradient-98);}.cls-2{stroke-width:2px;}.cls-13{fill:url(#linear-gradient-66);}.cls-78{fill:url(#linear-gradient-8);}.cls-79{fill:url(#linear-gradient-9);}.cls-80{fill:url(#linear-gradient-3);}.cls-81{fill:url(#linear-gradient-4);}.cls-82{fill:url(#linear-gradient-2);}.cls-83{fill:url(#linear-gradient-6);}.cls-84{fill:url(#linear-gradient-7);}.cls-85{fill:url(#linear-gradient-5);}.cls-86{fill:url(#linear-gradient-40);}.cls-86,.cls-87{opacity:.4;}.cls-87{fill:url(#linear-gradient-88);}.cls-6{fill:url(#linear-gradient-47);}.cls-7{fill:url(#linear-gradient-95);}.cls-88{fill:url(#linear-gradient-64);}.cls-88,.cls-89{opacity:.9;}.cls-89{fill:url(#linear-gradient-99);}.cls-90{fill:url(#linear-gradient-59);}.cls-91{fill:url(#linear-gradient-57);}.cls-92{fill:url(#linear-gradient-58);}.cls-93{fill:url(#linear-gradient-55);}.cls-94{fill:url(#linear-gradient-56);}.cls-95{fill:url(#linear-gradient-53);}.cls-96{fill:url(#linear-gradient-54);}.cls-97{fill:url(#linear-gradient-52);}.cls-98{fill:url(#linear-gradient-50);}.cls-99{fill:url(#linear-gradient-79);}.cls-100{fill:url(#linear-gradient-74);}.cls-101{fill:url(#linear-gradient-68);}.cls-102{fill:url(#linear-gradient-67);}.cls-103{fill:url(#linear-gradient-69);}.cls-104{fill:url(#linear-gradient-63);}.cls-105{fill:url(#linear-gradient-65);}.cls-106{fill:url(#linear-gradient-60);}.cls-107{fill:url(#linear-gradient-62);}.cls-108{fill:url(#linear-gradient-61);}.cls-109{fill:url(#linear-gradient-96);}.cls-110{fill:url(#linear-gradient-97);}.cls-111{fill:url(#linear-gradient-94);}.cls-112{fill:url(#linear-gradient-92);}.cls-113{fill:url(#linear-gradient-90);}.cls-114{fill:url(#linear-gradient-81);}.cls-115{fill:url(#linear-gradient-80);}.cls-116{fill:url(#linear-gradient-89);}.cls-117{fill:url(#linear-gradient-87);}.cls-118{fill:url(#linear-gradient-86);}.cls-119{fill:url(#linear-gradient-85);}.cls-120{fill:url(#linear-gradient-84);}.cls-121{fill:url(#linear-gradient-83);}.cls-122{fill:url(#linear-gradient-82);}.cls-123{fill:url(#linear-gradient-41);}.cls-124{fill:url(#linear-gradient-42);}.cls-125{fill:url(#linear-gradient-46);}.cls-126{fill:url(#linear-gradient-44);}.cls-127{fill:url(#linear-gradient-49);}.cls-128{fill:url(#linear-gradient-14);}.cls-129{fill:url(#linear-gradient-18);}.cls-130{fill:url(#linear-gradient-22);}.cls-131{fill:url(#linear-gradient-20);}.cls-132{fill:url(#linear-gradient-21);}.cls-133{fill:url(#linear-gradient-23);}.cls-134{fill:url(#linear-gradient-15);}.cls-135{fill:url(#linear-gradient-19);}.cls-136{fill:url(#linear-gradient-16);}.cls-137{fill:url(#linear-gradient-17);}.cls-138{fill:url(#linear-gradient-13);}.cls-139{fill:url(#linear-gradient-12);}.cls-140{fill:url(#linear-gradient-10);}.cls-141{fill:url(#linear-gradient-11);}.cls-142{fill:url(#linear-gradient-27);}.cls-143{fill:url(#linear-gradient-24);}.cls-144{fill:url(#linear-gradient-26);}.cls-145{fill:url(#linear-gradient-38);}.cls-146{fill:url(#linear-gradient-35);}.cls-147{fill:url(#linear-gradient-37);}.cls-148{fill:url(#linear-gradient-39);}.cls-149{fill:url(#linear-gradient-36);}.cls-150{fill:url(#linear-gradient-25);}.cls-151{fill:url(#linear-gradient-28);}.cls-152{fill:url(#linear-gradient-29);}.cls-153{fill:url(#linear-gradient-33);}.cls-154{fill:url(#linear-gradient-30);}.cls-155{fill:url(#linear-gradient-31);}.cls-156{isolation:isolate;}.cls-4{stroke-width:.75px;}.cls-65{fill:url(#linear-gradient-110);}.cls-66{fill:url(#linear-gradient-109);}.cls-67{fill:url(#linear-gradient-108);}.cls-68{fill:url(#linear-gradient-107);}.cls-69{fill:url(#linear-gradient-104);}.cls-70{fill:url(#linear-gradient-103);}.cls-71{fill:url(#linear-gradient-105);}.cls-72{fill:url(#linear-gradient-102);}.cls-73{fill:url(#linear-gradient-143);}.cls-74{fill:url(#linear-gradient-144);}.cls-75{fill:url(#linear-gradient-145);}.cls-76{fill:url(#linear-gradient-142);}.cls-77{fill:url(#linear-gradient-116);}</style><linearGradient id="linear-gradient" x1="194.39" y1="395.44" x2="194.52" y2="395.44" gradientTransform="matrix(1, 0, 0, 1, 0, 0)" gradientUnits="userSpaceOnUse"><stop offset=".18" stop-color="#f2ce96"/><stop offset=".22" stop-color="#f2cd97"/><stop offset=".74" stop-color="#ffc4a6"/></linearGradient><linearGradient id="linear-gradient-2" x1="355.33" y1="-77.23" x2="96.33" y2="447.65" gradientTransform="translate(170.25 367.08) rotate(-90)" gradientUnits="userSpaceOnUse"><stop offset="0" stop-color="#8e3bcb"/><stop offset=".9" stop-color="#0f1536"/></linearGradient><linearGradient id="linear-gradient-3" x1="275.09" y1="-117.32" x2="255.12" y2="552.87" gradientTransform="matrix(1, 0, 0, 1, 0, 0)" gradientUnits="userSpaceOnUse"><stop offset=".06" stop-color="#fff"/><stop offset=".25" stop-color="#f7fafd"/><stop offset=".53" stop-color="#e3ecfa"/><stop offset=".87" stop-color="#c1d5f6"/><stop offset="1" stop-color="#b3ccf4"/></linearGradient><linearGradient id="linear-gradient-4" x1="211.03" y1="-51.37" x2="116.62" y2="347.01" gradientTransform="matrix(1, 0, 0, 1, 0, 0)" xlink:href="#linear-gradient-2"/><linearGradient id="linear-gradient-5" x1="165.85" y1="371.38" x2="174.58" y2="355.1" gradientTransform="translate(24.94 427.11) scale(1 -1)" gradientUnits="userSpaceOnUse"><stop offset="0" stop-color="#ffcf3e"/><stop offset="1" stop-color="#fd9668"/></linearGradient><linearGradient id="linear-gradient-6" x1="162.62" y1="367.04" x2="176.05" y2="346.94" gradientTransform="translate(24.94 427.11) scale(1 -1)" gradientUnits="userSpaceOnUse"><stop offset="0" stop-color="#ffcf3e"/><stop offset=".31" stop-color="#fec347"/><stop offset="1" stop-color="#fc7481"/></linearGradient><linearGradient id="linear-gradient-7" x1="154.72" y1="330.9" x2="162.51" y2="357.86" gradientTransform="translate(24.94 427.11) scale(1 -1)" gradientUnits="userSpaceOnUse"><stop offset="0" stop-color="#8e3bcb"/><stop offset=".5" stop-color="#d767b1"/><stop offset="1" stop-color="#f2535b"/></linearGradient><linearGradient id="linear-gradient-8" x1="153.22" y1="332.71" x2="161.7" y2="373.6" gradientTransform="translate(24.94 427.11) scale(1 -1)" gradientUnits="userSpaceOnUse"><stop offset="0" stop-color="#e8c499"/><stop offset="1" stop-color="#faebd8"/></linearGradient><linearGradient id="linear-gradient-9" x1="132.99" y1="343.05" x2="163.54" y2="379.65" gradientTransform="translate(24.94 427.11) scale(1 -1)" gradientUnits="userSpaceOnUse"><stop offset="0" stop-color="#cc61b9"/><stop offset=".3" stop-color="#f2535b"/><stop offset=".46" stop-color="#f35f58"/><stop offset=".61" stop-color="#f57553"/><stop offset="1" stop-color="#ffd33e"/></linearGradient><linearGradient id="linear-gradient-10" x1="287.64" y1="10.63" x2="264.7" y2="107.43" gradientTransform="matrix(1, 0, 0, 1, 0, 0)" xlink:href="#linear-gradient-2"/><linearGradient id="linear-gradient-11" x1="287.64" y1="25.09" x2="264.7" y2="121.89" gradientTransform="matrix(1, 0, 0, 1, 0, 0)" xlink:href="#linear-gradient-2"/><linearGradient id="linear-gradient-12" x1="287.64" y1="39.55" x2="264.7" y2="136.35" gradientTransform="matrix(1, 0, 0, 1, 0, 0)" xlink:href="#linear-gradient-2"/><linearGradient id="linear-gradient-13" x1="286.24" y1="24.03" x2="247.75" y2="140.06" gradientTransform="matrix(1, 0, 0, 1, 0, 0)" gradientUnits="userSpaceOnUse"><stop offset="0" stop-color="#ffd33d"/><stop offset="1" stop-color="#f1535b"/></linearGradient><linearGradient id="linear-gradient-14" x1="317.28" y1="34.26" x2="278.79" y2="150.29" xlink:href="#linear-gradient-13"/><linearGradient id="linear-gradient-15" x1="395.31" y1="-28.39" x2="288.19" y2="294.55" gradientTransform="matrix(1, 0, 0, 1, 0, 0)" xlink:href="#linear-gradient-2"/><linearGradient id="linear-gradient-16" x1="389.13" y1="-9.76" x2="302.28" y2="252.06" xlink:href="#linear-gradient-13"/><linearGradient id="linear-gradient-17" x1="444.87" y1="-70.77" x2="345.86" y2="143.75" xlink:href="#linear-gradient-13"/><linearGradient id="linear-gradient-18" x1="293.11" y1="-47.09" x2="448.66" y2="202.9" gradientTransform="matrix(1, 0, 0, 1, 0, 0)" gradientUnits="userSpaceOnUse"><stop offset="0" stop-color="#8e3bcb"/><stop offset=".5" stop-color="#d767b1"/><stop offset="1" stop-color="#f2535b"/></linearGradient><linearGradient id="linear-gradient-19" x1="239.18" y1="23.93" x2="109.74" y2="414.11" gradientTransform="matrix(1, 0, 0, 1, 0, 0)" xlink:href="#linear-gradient-2"/><linearGradient id="linear-gradient-20" x1="327.61" y1="95.37" x2="319.41" y2="125.99" xlink:href="#linear-gradient-13"/><linearGradient id="linear-gradient-21" x1="327.61" y1="121.69" x2="319.41" y2="152.31" xlink:href="#linear-gradient-13"/><linearGradient id="linear-gradient-22" x1="301.18" y1="93.75" x2="292.55" y2="125.95" xlink:href="#linear-gradient-13"/><linearGradient id="linear-gradient-23" x1="304.32" y1="100.05" x2="291.07" y2="154.56" xlink:href="#linear-gradient-13"/><linearGradient id="linear-gradient-24" x1="301.18" y1="120.08" x2="292.55" y2="152.28" xlink:href="#linear-gradient-13"/><linearGradient id="linear-gradient-25" x1="304.32" y1="126.38" x2="291.07" y2="180.89" xlink:href="#linear-gradient-13"/><linearGradient id="linear-gradient-26" x1="370.55" y1="114.63" x2="352.91" y2="241.09" gradientTransform="matrix(1, 0, 0, 1, 0, 0)" xlink:href="#linear-gradient-2"/><linearGradient id="linear-gradient-27" x1="371.78" y1="116.24" x2="354.14" y2="242.7" gradientTransform="matrix(1, 0, 0, 1, 0, 0)" xlink:href="#linear-gradient-2"/><linearGradient id="linear-gradient-28" x1="373.01" y1="117.85" x2="355.37" y2="244.31" gradientTransform="matrix(1, 0, 0, 1, 0, 0)" xlink:href="#linear-gradient-2"/><linearGradient id="linear-gradient-29" x1="247.46" y1="13.91" x2="229.63" y2="47.84" xlink:href="#linear-gradient-13"/><linearGradient id="linear-gradient-30" x1="333.71" y1="101.17" x2="309.22" y2="171.42" gradientTransform="matrix(1, 0, 0, 1, 0, 0)" xlink:href="#linear-gradient-2"/><linearGradient id="linear-gradient-31" x1="124.53" y1="87.74" x2="107.49" y2="121.67" gradientTransform="matrix(1, 0, 0, 1, 0, 0)" gradientUnits="userSpaceOnUse"><stop offset=".15" stop-color="#ffd33d"/><stop offset=".16" stop-color="#fdd250"/><stop offset=".2" stop-color="#f8cf77"/><stop offset=".24" stop-color="#f5cd8f"/><stop offset=".26" stop-color="#f4cc98"/><stop offset=".48" stop-color="#aa6834"/><stop offset=".7" stop-color="#9d5334"/></linearGradient><linearGradient id="linear-gradient-32" x1="136.55" y1="97.99" x2="74.79" y2="141.11" gradientTransform="matrix(1, 0, 0, 1, 0, 0)" gradientUnits="userSpaceOnUse"><stop offset="0" stop-color="#a36031"/><stop offset=".6" stop-color="#854127"/><stop offset=".74" stop-color="#7a3524"/></linearGradient><linearGradient id="linear-gradient-33" x1="80.64" y1="40.8" x2="93.87" y2="163.29" xlink:href="#linear-gradient-31"/><linearGradient id="linear-gradient-34" x1="48.26" y1="136.07" x2="59.51" y2="136.07" xlink:href="#linear-gradient-32"/><linearGradient id="linear-gradient-35" x1="177.13" y1="97.01" x2="152.94" y2="261.23" gradientTransform="matrix(1, 0, 0, 1, 0, 0)" gradientUnits="userSpaceOnUse"><stop offset=".28" stop-color="#aa6834"/><stop offset=".7" stop-color="#9d5334"/></linearGradient><linearGradient id="linear-gradient-36" x1="161.19" y1="162.96" x2="158.5" y2="305.53" xlink:href="#linear-gradient-32"/><linearGradient id="linear-gradient-37" x1="177.27" y1="216.96" x2="198.04" y2="113.81" xlink:href="#linear-gradient"/><linearGradient id="linear-gradient-38" x1="106.64" y1="125.74" x2="59.27" y2="270.06" gradientTransform="matrix(1, 0, 0, 1, 0, 0)" gradientUnits="userSpaceOnUse"><stop offset=".15" stop-color="#ffd33d"/><stop offset=".16" stop-color="#fdd250"/><stop offset=".2" stop-color="#f8cf77"/><stop offset=".24" stop-color="#f5cd8f"/><stop offset=".26" stop-color="#f4cc98"/><stop offset=".48" stop-color="#aa6834"/><stop offset=".5" stop-color="#a76334"/><stop offset=".59" stop-color="#9f5734"/><stop offset=".67" stop-color="#9d5334"/></linearGradient><linearGradient id="linear-gradient-39" x1="12.49" y1="112.12" x2="73.37" y2="418.19" gradientTransform="matrix(1, 0, 0, 1, 0, 0)" gradientUnits="userSpaceOnUse"><stop offset=".46" stop-color="#854127" stop-opacity="0"/><stop offset=".8" stop-color="#7a3524"/></linearGradient><linearGradient id="linear-gradient-40" x1="153.39" y1="228.08" x2="77.47" y2="297.64" gradientTransform="matrix(1, 0, 0, 1, 0, 0)" gradientUnits="userSpaceOnUse"><stop offset=".15" stop-color="#f5cc8f"/><stop offset=".16" stop-color="#f4cc98"/><stop offset=".39" stop-color="#aa6834"/><stop offset=".43" stop-color="#a36031"/><stop offset=".63" stop-color="#854127"/><stop offset=".74" stop-color="#7a3524"/></linearGradient><linearGradient id="linear-gradient-41" x1="67.21" y1="255.11" x2="50.04" y2="326.11" gradientTransform="matrix(1, 0, 0, 1, 0, 0)" gradientUnits="userSpaceOnUse"><stop offset=".14" stop-color="#f5cd8f"/><stop offset=".31" stop-color="#f4cc98"/><stop offset=".51" stop-color="#aa6834"/><stop offset=".75" stop-color="#9d5334"/></linearGradient><linearGradient id="linear-gradient-42" x1="75.92" y1="306.6" x2="62.52" y2="427.51" xlink:href="#linear-gradient"/><linearGradient id="linear-gradient-43" x1="105.47" y1="278.28" x2="97.2" y2="354.14" xlink:href="#linear-gradient"/><linearGradient id="linear-gradient-44" x1="126.6" y1="418.82" x2="146.35" y2="380.87" gradientTransform="matrix(1, 0, 0, 1, 0, 0)" gradientUnits="userSpaceOnUse"><stop offset=".02" stop-color="#f2ce96"/><stop offset=".07" stop-color="#f2cd97"/><stop offset=".59" stop-color="#ffc4a6"/></linearGradient><linearGradient id="linear-gradient-45" x1="108.38" y1="397.14" x2="117.89" y2="378.86" xlink:href="#linear-gradient"/><linearGradient id="linear-gradient-46" x1="221.78" y1="-24.62" x2="35.87" y2="436.01" gradientTransform="matrix(1, 0, 0, 1, 0, 0)" gradientUnits="userSpaceOnUse"><stop offset=".15" stop-color="#ffd33d"/><stop offset=".16" stop-color="#fdd250"/><stop offset=".2" stop-color="#f8cf77"/><stop offset=".24" stop-color="#f5cd8f"/><stop offset=".26" stop-color="#f4cc98"/><stop offset=".41" stop-color="#aa6834"/><stop offset=".5" stop-color="#9d5334"/></linearGradient><linearGradient id="linear-gradient-47" x1="249.95" y1="246.71" x2="-48.76" y2="341.49" xlink:href="#linear-gradient-40"/><linearGradient id="linear-gradient-48" x1="74.36" y1="204.33" x2="71.66" y2="346.83" xlink:href="#linear-gradient-32"/><linearGradient id="linear-gradient-49" x1="166.29" y1="182.71" x2="-74.63" y2="393.9" xlink:href="#linear-gradient-41"/><linearGradient id="linear-gradient-50" x1="198.61" y1="155.48" x2="-9.91" y2="421.29" gradientTransform="matrix(1, 0, 0, 1, 0, 0)" gradientUnits="userSpaceOnUse"><stop offset=".14" stop-color="#f5cd8f"/><stop offset=".25" stop-color="#f4cc98"/><stop offset=".66" stop-color="#aa6834"/><stop offset=".75" stop-color="#9d5334"/></linearGradient><linearGradient id="linear-gradient-51" x1="116.55" y1="109.22" x2="79.32" y2="215.63" xlink:href="#linear-gradient-32"/><linearGradient id="linear-gradient-52" x1="87.95" y1="63.08" x2="80.21" y2="-83.26" xlink:href="#linear-gradient-41"/><linearGradient id="linear-gradient-53" x1="-15.61" y1="144.62" x2="69.92" y2="126.32" gradientTransform="matrix(1, 0, 0, 1, 0, 0)" gradientUnits="userSpaceOnUse"><stop offset=".15" stop-color="#ffd33d"/><stop offset=".16" stop-color="#fdd250"/><stop offset=".2" stop-color="#f8cf77"/><stop offset=".24" stop-color="#f5cd8f"/><stop offset=".26" stop-color="#f4cc98"/><stop offset=".48" stop-color="#aa6834"/><stop offset=".93" stop-color="#9d5334"/></linearGradient><linearGradient id="linear-gradient-54" x1="84.7" y1="133.98" x2="45.19" y2="206.79" gradientTransform="matrix(1, 0, 0, 1, 0, 0)" gradientUnits="userSpaceOnUse"><stop offset="0" stop-color="#fff"/><stop offset="1" stop-color="#000"/></linearGradient><linearGradient id="linear-gradient-55" x1="132.9" y1="121.03" x2="151.57" y2="117.68" xlink:href="#linear-gradient-54"/><linearGradient id="linear-gradient-56" x1="78.85" y1="98.9" x2="22.47" y2="270.71" xlink:href="#linear-gradient-38"/><linearGradient id="linear-gradient-57" x1="74.46" y1="136.54" x2="65.12" y2="140.19" xlink:href="#linear-gradient-54"/><linearGradient id="linear-gradient-58" x1="101.94" y1="126.96" x2="92.6" y2="130.6" xlink:href="#linear-gradient-54"/><linearGradient id="linear-gradient-59" x1="153.63" y1="122.6" x2="79.27" y2="190" gradientTransform="matrix(1, 0, 0, 1, 0, 0)" gradientUnits="userSpaceOnUse"><stop offset=".23" stop-color="#a42c38"/><stop offset=".52" stop-color="#9d2e39"/><stop offset="1" stop-color="#99303a"/></linearGradient><linearGradient id="linear-gradient-60" x1="123.73" y1="149.21" x2="122.27" y2="150.54" xlink:href="#linear-gradient-59"/><linearGradient id="linear-gradient-61" x1="121.97" y1="121.41" x2="97.84" y2="152.3" gradientTransform="matrix(1, 0, 0, 1, 0, 0)" gradientUnits="userSpaceOnUse"><stop offset=".09" stop-color="#854a2b"/><stop offset=".19" stop-color="#663821"/><stop offset=".37" stop-color="#2f1a0f"/><stop offset=".51" stop-color="#0c0704"/><stop offset=".59" stop-color="#000"/></linearGradient><linearGradient id="linear-gradient-62" x1="-149.57" y1="335.48" x2="194.99" y2="159.96" xlink:href="#linear-gradient-38"/><linearGradient id="linear-gradient-63" x1="50.6" y1="289.86" x2="22.09" y2="207.18" xlink:href="#linear-gradient"/><linearGradient id="linear-gradient-64" x1="-54.38" y1="169.82" x2="325.27" y2="436.3" gradientTransform="matrix(1, 0, 0, 1, 0, 0)" gradientUnits="userSpaceOnUse"><stop offset=".15" stop-color="#f5cc8f"/><stop offset=".16" stop-color="#f4cc98"/><stop offset=".39" stop-color="#aa6834"/><stop offset=".43" stop-color="#a36031"/><stop offset=".6" stop-color="#854127"/><stop offset=".74" stop-color="#7a3524"/></linearGradient><linearGradient id="linear-gradient-65" x1="116.02" y1="154.48" x2="101.07" y2="182.13" gradientTransform="matrix(1, 0, 0, 1, 0, 0)" gradientUnits="userSpaceOnUse"><stop offset=".31" stop-color="#ff5e7b"/><stop offset=".4" stop-color="#f45974"/><stop offset=".58" stop-color="#d74c64"/><stop offset=".81" stop-color="#a8374a"/><stop offset="1" stop-color="#7b2331"/></linearGradient><linearGradient id="linear-gradient-66" x1="272.31" y1="163.3" x2="26.46" y2="425.38" xlink:href="#linear-gradient-40"/><linearGradient id="linear-gradient-67" x1="118.91" y1="119.06" x2="105.98" y2="142.74" gradientTransform="matrix(1, 0, 0, 1, 0, 0)" gradientUnits="userSpaceOnUse"><stop offset=".09" stop-color="#854a2b"/><stop offset=".2" stop-color="#663821"/><stop offset=".4" stop-color="#2f1a0f"/><stop offset=".56" stop-color="#0c0704"/><stop offset=".64" stop-color="#000"/></linearGradient><linearGradient id="linear-gradient-68" x1="29.02" y1="181.94" x2="13.75" y2="245.08" xlink:href="#linear-gradient-41"/><linearGradient id="linear-gradient-69" x1="156.83" y1="256.21" x2="156.37" y2="280.99" xlink:href="#linear-gradient-32"/><linearGradient id="linear-gradient-70" x1="70.29" y1="360.93" x2="68.97" y2="373.03" xlink:href="#linear-gradient"/><linearGradient id="linear-gradient-71" x1="45.25" y1="370.26" x2="43.42" y2="387.07" xlink:href="#linear-gradient"/><linearGradient id="linear-gradient-72" x1="49.68" y1="375.16" x2="48.21" y2="388.64" xlink:href="#linear-gradient"/><linearGradient id="linear-gradient-73" x1="40.64" y1="369.85" x2="38.78" y2="386.89" xlink:href="#linear-gradient"/><linearGradient id="linear-gradient-74" x1="84.94" y1="389.17" x2="84.63" y2="392.07" xlink:href="#linear-gradient"/><linearGradient id="linear-gradient-75" x1="141.82" y1="380.18" x2="146.98" y2="370.24" xlink:href="#linear-gradient"/><linearGradient id="linear-gradient-76" x1="177.97" y1="388.3" x2="179.66" y2="385.03" xlink:href="#linear-gradient"/><linearGradient id="linear-gradient-77" x1="172.7" y1="388.54" x2="174.13" y2="385.79" xlink:href="#linear-gradient"/><linearGradient id="linear-gradient-78" x1="168.16" y1="388.68" x2="169.04" y2="387" xlink:href="#linear-gradient"/><linearGradient id="linear-gradient-79" x1="1492.03" y1="-550.93" x2="1499.39" y2="-486.6" gradientTransform="translate(-1559 375.6) rotate(15.15)" gradientUnits="userSpaceOnUse"><stop offset=".46" stop-color="#ffd33d"/><stop offset="1" stop-color="#f1535b"/></linearGradient><linearGradient id="linear-gradient-80" x1="-100.68" y1="765.93" x2="-102.05" y2="830.43" gradientTransform="translate(-149.68 -571.82) rotate(-19.82)" xlink:href="#linear-gradient-13"/><linearGradient id="linear-gradient-81" x1="5.82" y1="203.92" x2="7.41" y2="252.01" xlink:href="#linear-gradient-13"/><linearGradient id="linear-gradient-82" x1="45.05" y1="199.06" x2="46.26" y2="235.56" xlink:href="#linear-gradient-13"/><linearGradient id="linear-gradient-83" x1="436.23" y1="82.46" x2="434.97" y2="122.7" gradientTransform="matrix(1, 0, 0, 1, 0, 0)" gradientUnits="userSpaceOnUse"><stop offset=".16" stop-color="#f4cc98"/><stop offset=".2" stop-color="#aa6834"/><stop offset=".5" stop-color="#9d5334"/></linearGradient><linearGradient id="linear-gradient-84" x1="391.81" y1="135.66" x2="389.05" y2="292.64" xlink:href="#linear-gradient-83"/><linearGradient id="linear-gradient-85" x1="374.97" y1="88.54" x2="359.14" y2="190.93" xlink:href="#linear-gradient"/><linearGradient id="linear-gradient-86" x1="570.45" y1="105.2" x2="517.28" y2="267.21" xlink:href="#linear-gradient-38"/><linearGradient id="linear-gradient-87" x1="464" y1="123.92" x2="520.49" y2="407.91" xlink:href="#linear-gradient-39"/><linearGradient id="linear-gradient-88" x1="-2930.56" y1="226.58" x2="-3006.49" y2="296.14" gradientTransform="translate(-2532.89) rotate(-180) scale(1 -1)" xlink:href="#linear-gradient-40"/><linearGradient id="linear-gradient-89" x1="-3016.74" y1="253.6" x2="-3033.91" y2="324.61" gradientTransform="translate(-2532.89) rotate(-180) scale(1 -1)" xlink:href="#linear-gradient-41"/><linearGradient id="linear-gradient-90" x1="-3008.04" y1="305.1" x2="-3021.43" y2="426" gradientTransform="translate(-2532.89) rotate(-180) scale(1 -1)" xlink:href="#linear-gradient"/><linearGradient id="linear-gradient-91" x1="-2978.49" y1="276.78" x2="-2986.75" y2="352.64" gradientTransform="translate(-2532.89) rotate(-180) scale(1 -1)" xlink:href="#linear-gradient"/><linearGradient id="linear-gradient-92" x1="-2957.35" y1="417.32" x2="-2937.6" y2="379.36" gradientTransform="translate(-2532.89) rotate(-180) scale(1 -1)" xlink:href="#linear-gradient-44"/><linearGradient id="linear-gradient-93" x1="-2975.57" y1="395.64" x2="-2966.06" y2="377.36" gradientTransform="translate(-2532.89) rotate(-180) scale(1 -1)" xlink:href="#linear-gradient"/><linearGradient id="linear-gradient-94" x1="-2868.12" y1="-36.03" x2="-3057.08" y2="432.16" gradientTransform="translate(-2532.89) rotate(-180) scale(1 -1)" xlink:href="#linear-gradient-46"/><linearGradient id="linear-gradient-95" x1="-2834.01" y1="245.21" x2="-3132.71" y2="339.99" gradientTransform="translate(-2532.89) rotate(-180) scale(1 -1)" xlink:href="#linear-gradient-40"/><linearGradient id="linear-gradient-96" x1="-2917.66" y1="181.21" x2="-3158.58" y2="392.4" gradientTransform="translate(-2532.89) rotate(-180) scale(1 -1)" xlink:href="#linear-gradient-41"/><linearGradient id="linear-gradient-97" x1="-2885.35" y1="153.98" x2="-3093.86" y2="419.79" gradientTransform="translate(-2532.89) rotate(-180) scale(1 -1)" xlink:href="#linear-gradient-50"/><linearGradient id="linear-gradient-98" x1="-2969.11" y1="107.71" x2="-3005.94" y2="212.95" gradientTransform="translate(-2532.89) rotate(-180) scale(1 -1)" xlink:href="#linear-gradient-32"/><linearGradient id="linear-gradient-99" x1="-3138.33" y1="168.32" x2="-2758.69" y2="434.8" gradientTransform="translate(-2532.89) rotate(-180) scale(1 -1)" xlink:href="#linear-gradient-64"/><linearGradient id="linear-gradient-100" x1="-2811.64" y1="161.8" x2="-3057.49" y2="423.88" gradientTransform="translate(-2532.89) rotate(-180) scale(1 -1)" xlink:href="#linear-gradient-40"/><linearGradient id="linear-gradient-101" x1="-2927.12" y1="254.71" x2="-2927.59" y2="279.49" gradientTransform="translate(-2532.89) rotate(-180) scale(1 -1)" xlink:href="#linear-gradient-32"/><linearGradient id="linear-gradient-102" x1="-3013.67" y1="359.43" x2="-3014.99" y2="371.53" gradientTransform="translate(-2532.89) rotate(-180) scale(1 -1)" xlink:href="#linear-gradient"/><linearGradient id="linear-gradient-103" x1="-3038.7" y1="368.76" x2="-3040.53" y2="385.57" gradientTransform="translate(-2532.89) rotate(-180) scale(1 -1)" xlink:href="#linear-gradient"/><linearGradient id="linear-gradient-104" x1="-3034.27" y1="373.66" x2="-3035.74" y2="387.14" gradientTransform="translate(-2532.89) rotate(-180) scale(1 -1)" xlink:href="#linear-gradient"/><linearGradient id="linear-gradient-105" x1="-3043.31" y1="368.35" x2="-3045.17" y2="385.39" gradientTransform="translate(-2532.89) rotate(-180) scale(1 -1)" xlink:href="#linear-gradient"/><linearGradient id="linear-gradient-106" x1="-2999.01" y1="387.67" x2="-2999.33" y2="390.57" gradientTransform="translate(-2532.89) rotate(-180) scale(1 -1)" xlink:href="#linear-gradient"/><linearGradient id="linear-gradient-107" x1="-2942.14" y1="378.68" x2="-2936.97" y2="368.74" gradientTransform="translate(-2532.89) rotate(-180) scale(1 -1)" xlink:href="#linear-gradient"/><linearGradient id="linear-gradient-108" x1="-2905.99" y1="386.79" x2="-2904.29" y2="383.53" gradientTransform="translate(-2532.89) rotate(-180) scale(1 -1)" xlink:href="#linear-gradient"/><linearGradient id="linear-gradient-109" x1="-2911.25" y1="387.04" x2="-2909.82" y2="384.28" gradientTransform="translate(-2532.89) rotate(-180) scale(1 -1)" xlink:href="#linear-gradient"/><linearGradient id="linear-gradient-110" x1="-2915.79" y1="387.18" x2="-2914.91" y2="385.5" gradientTransform="translate(-2532.89) rotate(-180) scale(1 -1)" xlink:href="#linear-gradient"/><linearGradient id="linear-gradient-111" x1="-1495.2" y1="233.29" x2="-1487.83" y2="297.61" gradientTransform="translate(-973.88 375.6) rotate(164.85) scale(1 -1)" xlink:href="#linear-gradient-79"/><linearGradient id="linear-gradient-112" x1="-2960.85" y1="-358.98" x2="-2961.61" y2="-323.33" gradientTransform="translate(-2330.81 -647.26) rotate(-156.32) scale(1 -1)" xlink:href="#linear-gradient-13"/><linearGradient id="linear-gradient-113" x1="-3075.55" y1="277.6" x2="-3073.96" y2="325.69" gradientTransform="translate(-2532.89) rotate(-180) scale(1 -1)" xlink:href="#linear-gradient-13"/><linearGradient id="linear-gradient-114" x1="-3031.38" y1="225.67" x2="-3030.17" y2="262.17" gradientTransform="translate(-2532.89) rotate(-180) scale(1 -1)" xlink:href="#linear-gradient-13"/><linearGradient id="linear-gradient-115" x1="493.51" y1="37.21" x2="415.8" y2="261.7" xlink:href="#linear-gradient-83"/><linearGradient id="linear-gradient-116" x1="495.54" y1="95.75" x2="494.12" y2="140.99" xlink:href="#linear-gradient-32"/><linearGradient id="linear-gradient-117" x1="482.36" y1="80.08" x2="499.48" y2="37.27" xlink:href="#linear-gradient-41"/><linearGradient id="linear-gradient-118" x1="491.57" y1="87.95" x2="496.84" y2="168.01" xlink:href="#linear-gradient-83"/><linearGradient id="linear-gradient-119" x1="390.88" y1="458.4" x2="406.57" y2="399.07" gradientTransform="translate(-15.92 -86.01) rotate(-3.91)" xlink:href="#linear-gradient-13"/><linearGradient id="linear-gradient-120" x1="427.37" y1="162.69" x2="450.86" y2="162.69" xlink:href="#linear-gradient-59"/><linearGradient id="linear-gradient-121" x1="439.44" y1="83.57" x2="407.06" y2="293.07" xlink:href="#linear-gradient-13"/><linearGradient id="linear-gradient-122" x1="414.25" y1="162.51" x2="380.49" y2="238.2" gradientTransform="translate(292.91 -297.07) rotate(55.49)" xlink:href="#linear-gradient-54"/><linearGradient id="linear-gradient-123" x1="422.02" y1="137.78" x2="389.54" y2="185.32" xlink:href="#linear-gradient-54"/><linearGradient id="linear-gradient-124" x1="439.53" y1="173.79" x2="405.77" y2="249.47" gradientTransform="translate(311.11 -315.62) rotate(55.49)" xlink:href="#linear-gradient-54"/><linearGradient id="linear-gradient-125" x1="443.99" y1="152.79" x2="411.51" y2="200.32" xlink:href="#linear-gradient-54"/><linearGradient id="linear-gradient-126" x1="453.74" y1="135.13" x2="428.04" y2="275.76" xlink:href="#linear-gradient-83"/><linearGradient id="linear-gradient-127" x1="402.01" y1="282.04" x2="389.62" y2="207.33" xlink:href="#linear-gradient"/><linearGradient id="linear-gradient-128" x1="214.87" y1="352.74" x2="200.84" y2="391.08" xlink:href="#linear-gradient-44"/><linearGradient id="linear-gradient-129" x1="335.07" y1="327.81" x2="352.78" y2="237.33" xlink:href="#linear-gradient"/><linearGradient id="linear-gradient-130" x1="229.75" y1="116.36" x2="208.88" y2="464.23" xlink:href="#linear-gradient-83"/><linearGradient id="linear-gradient-131" x1="179" y1="330.3" x2="210.57" y2="335.87" xlink:href="#linear-gradient-40"/><linearGradient id="linear-gradient-132" x1="343.37" y1="185.62" x2="299.99" y2="418.95" xlink:href="#linear-gradient-83"/><linearGradient id="linear-gradient-133" x1="344.65" y1="240.08" x2="316.68" y2="366.84" xlink:href="#linear-gradient-40"/><linearGradient id="linear-gradient-134" x1="285.48" y1="119.71" x2="264.61" y2="467.57" xlink:href="#linear-gradient-83"/><linearGradient id="linear-gradient-135" x1="265.99" y1="178.45" x2="264.9" y2="527.25" gradientTransform="matrix(1, 0, 0, 1, 0, 0)" gradientUnits="userSpaceOnUse"><stop offset=".15" stop-color="#f5cc8f"/><stop offset=".16" stop-color="#f4cc98"/><stop offset=".32" stop-color="#aa6834"/><stop offset=".56" stop-color="#854127" stop-opacity="0"/><stop offset=".74" stop-color="#7a3524"/></linearGradient><linearGradient id="linear-gradient-136" x1="250.31" y1="386.77" x2="250.31" y2="482.1" xlink:href="#linear-gradient-40"/><linearGradient id="linear-gradient-137" x1="278.94" y1="386.77" x2="278.94" y2="482.1" xlink:href="#linear-gradient-40"/><linearGradient id="linear-gradient-138" x1="269.36" y1="241.71" x2="263.88" y2="320.04" xlink:href="#linear-gradient-32"/><linearGradient id="linear-gradient-139" x1="234.12" y1="429.95" x2="229.32" y2="498.71" xlink:href="#linear-gradient-44"/><linearGradient id="linear-gradient-140" x1="302.47" y1="438.87" x2="298.46" y2="496.26" xlink:href="#linear-gradient-44"/><linearGradient id="linear-gradient-141" x1="275.98" y1="119.14" x2="255.11" y2="466.99" xlink:href="#linear-gradient-83"/><linearGradient id="linear-gradient-142" x1="190.46" y1="392.17" x2="194.55" y2="392.17" xlink:href="#linear-gradient"/><linearGradient id="linear-gradient-143" x1="343.14" y1="244.48" x2="345.19" y2="244.48" xlink:href="#linear-gradient"/><linearGradient id="linear-gradient-144" x1="208.97" y1="480.68" x2="218.97" y2="480.68" xlink:href="#linear-gradient"/><linearGradient id="linear-gradient-145" x1="312.74" y1="480.57" x2="320.7" y2="480.57" xlink:href="#linear-gradient"/><linearGradient id="linear-gradient-146" x1="276.04" y1="261.97" x2="270.23" y2="434.24" gradientTransform="matrix(1, 0, 0, 1, 0, 0)" gradientUnits="userSpaceOnUse"><stop offset=".15" stop-color="#f5cc8f"/><stop offset=".16" stop-color="#f4cc98"/><stop offset=".39" stop-color="#aa6834"/><stop offset=".43" stop-color="#a36031"/><stop offset=".63" stop-color="#854127"/><stop offset=".88" stop-color="#7a3524"/></linearGradient><linearGradient id="linear-gradient-147" x1="277.49" y1="262.02" x2="271.68" y2="434.29" gradientTransform="matrix(1, 0, 0, 1, 0, 0)" gradientUnits="userSpaceOnUse"><stop offset=".15" stop-color="#f5cc8f"/><stop offset=".16" stop-color="#f4cc98"/><stop offset=".39" stop-color="#aa6834"/><stop offset=".43" stop-color="#a36031"/><stop offset=".63" stop-color="#854127"/><stop offset=".97" stop-color="#7a3524"/></linearGradient><linearGradient id="linear-gradient-148" x1="302.88" y1="292.13" x2="279.99" y2="407.95" gradientTransform="matrix(1, 0, 0, 1, 0, 0)" gradientUnits="userSpaceOnUse"><stop offset=".15" stop-color="#f5cc8f"/><stop offset=".16" stop-color="#f4cc98"/><stop offset=".31" stop-color="#a36031"/><stop offset=".46" stop-color="#854127"/><stop offset=".74" stop-color="#7a3524"/></linearGradient><linearGradient id="linear-gradient-149" x1="296.17" y1="334.14" x2="271.07" y2="539.15" xlink:href="#linear-gradient-41"/><linearGradient id="linear-gradient-150" x1="273.57" y1="331.38" x2="248.48" y2="536.39" xlink:href="#linear-gradient-41"/><linearGradient id="linear-gradient-151" x1="261.24" y1="329.87" x2="236.15" y2="534.88" xlink:href="#linear-gradient-41"/></defs><g class="cls-156"><g id="Layer_2"><g id="Layer_1-2"><g><path class="cls-47" d="M194.52,395.27c-.03,.07-.07,.19-.13,.34,.04-.12,.08-.24,.13-.34Z"/><path class="cls-4" d="M384.27,139.92s-1.76,4-1.43,6.96"/><path class="cls-4" d="M386.69,144.56s-.46,2.19,0,3.49"/><path class="cls-4" d="M390.69,153.27s-5.76,.54-7.16,5.53"/><g><path class="cls-82" d="M193.62-71.88h150.08c12.9,0,23.37,10.47,23.37,23.37V245.34c0,12.9-10.47,23.37-23.37,23.37H193.62c-12.9,0-23.37-10.47-23.37-23.37V-48.51c0-12.9,10.47-23.37,23.37-23.37Z" transform="translate(367.08 -170.25) rotate(90)"/><rect class="cls-80" x="107.24" y="8.88" width="322.84" height="179.08" rx="13.37" ry="13.37"/><rect class="cls-81" x="127.27" y="34.36" width="109.98" height="71.32" rx="4.48" ry="4.48"/><g><path class="cls-85" d="M195.49,74.74c.07-.08,.17-.12,.32-.15,.12-.03,.25-.06,.37-.08,.06-.01,.1-.06,.1-.12,0-.06-.03-.11-.08-.14-.1-.04-.2-.09-.3-.13-.3-.12-.34-.25-.21-.53,1.98-4.35,1.83-10.03,.01-13.59,1.99,4.51,1.07,9.99-.73,13.28-.15,.27-.3,.32-.59,.2l-.3-.13c-.05-.02-.12,0-.16,.04-.04,.05-.04,.11-.01,.16,.06,.09,.11,.19,.17,.28,.18,.3,.18,.45-.05,.71-.08,.09-.15,.17-.23,.26-.04,.04-.04,.11-.01,.16,.03,.05,.09,.08,.15,.06,.12-.03,.25-.06,.37-.09,.3-.07,.47,.03,.62,.3,.06,.09,.11,.19,.17,.28,.03,.05,.09,.08,.15,.06,.06-.01,.1-.06,.1-.12,.01-.13,.02-.25,.03-.38,.01-.15,.05-.26,.11-.33Zm-1.55-5.62c-.07,.02-.13,.07-.21,.15-.06,.07-.12,.14-.18,.21-.03,.03-.07,.04-.11,.03-.04-.02-.06-.06-.06-.1,0-.08,.01-.16,.02-.24,.02-.22-.03-.35-.24-.44-.09-.03-.17-.07-.26-.11-.04-.02-.06-.05-.06-.1,0-.04,.03-.08,.08-.09l.25-.06c.25-.06,.31-.15,.33-.4l.02-.24s.03-.08,.08-.09c.04,0,.08,0,.11,.04,.04,.07,.08,.14,.13,.2,.13,.21,.23,.27,.48,.21,.08-.02,.16-.04,.25-.06,.04,0,.08,0,.11,.04,.02,.04,.02,.08,0,.11-.06,.07-.12,.14-.18,.21-.15,.17-.14,.31-.02,.5,.04,.07,.08,.14,.13,.2,.02,.04,.02,.08,0,.11-.03,.03-.07,.04-.11,.03-.09-.04-.17-.07-.26-.11-.1-.04-.18-.06-.25-.04Zm3.3-10.69s-.08,.03-.13,.08l-.12,.12s-.05,.02-.07,.01c-.02-.01-.04-.04-.03-.06l.02-.14c.02-.13,0-.21-.13-.28l-.15-.08s-.04-.04-.03-.06c0-.03,.02-.05,.05-.05l.15-.02c.15-.02,.2-.08,.22-.23l.02-.14s.02-.05,.05-.05c.03,0,.05,0,.06,.03,.02,.04,.04,.09,.07,.13,.07,.14,.13,.17,.28,.15,.05,0,.1-.02,.15-.02,.03,0,.05,0,.06,.03,.01,.02,0,.05-.01,.07l-.12,.12c-.1,.1-.1,.18-.03,.3l.07,.13s0,.05-.01,.07c-.02,.02-.05,.02-.07,.01l-.15-.08c-.06-.03-.11-.04-.15-.04Zm2.94,6.23c.33-4.1-1.44-8.74-5.57-11.77,4.03,2.72,6.3,6.77,6.44,11.75,.01,.45,.09,.55,.62,.55,.16,0,.32,0,.48,0,.08,0,.15,.05,.18,.13,.03,.08,0,.16-.07,.21-.14,.1-.28,.2-.42,.3-.34,.25-.38,.5-.25,.9,.05,.14,.09,.28,.14,.43,.03,.08,0,.16-.07,.21-.07,.05-.15,.05-.22,0-.14-.1-.28-.2-.42-.3-.17-.12-.3-.18-.44-.18-.14,0-.27,.06-.44,.18-.14,.1-.28,.2-.42,.31-.07,.05-.15,.05-.22,0-.07-.05-.09-.13-.07-.21,.05-.14,.09-.28,.14-.43,.13-.4,.09-.65-.25-.9-.14-.1-.28-.2-.42-.3-.07-.05-.09-.13-.07-.2,.03-.08,.09-.13,.18-.13,.16,0,.32,0,.48,0,.43,0,.66-.1,.7-.53Z"/><path class="cls-83" d="M182.41,81.88c7.6,4.31,16.08-.85,17.45-8.04,.24-1.26,.28-2.24,.28-3.5,0-.94,.4-.82,.93-.22,.76,.85,1.56,2.49,1.57,2.75,1.44-3.17,1.47-8.85-.42-13.38-.14-.33,0-.49,.33-.28,.4,.26,.88,.69,1.21,1.01-.44-2.74-1.72-6.46-3.78-8.92-.22-.26,.06-.54,.34-.32,3.47,3.21,6.12,7.38,7.47,12.25,.27,.96,.47,1.91,.63,2.87v.04c.28,4.39-3.51,18.73-15.6,18.93-1.46,.02-6.57,1.89-10.4-3.17Z"/><path class="cls-84" d="M181.4,61.89c-5.55,3.99-4.31,11.45,2.51,13.51,1.03,.31,2.02,.53,2.83,.96,1.68,.89,1.93,2.97,.35,4.07-1.21,.83-3.44,1.51-4.68,1.45,3.06,2.8,7.96,3.18,12.04,2.11,7.55-1.98,13.98-9.5,13.96-17.87v-.04c1.58,9.74-2.51,19.34-10.14,25.09l-.05,.04c-.15,.11-.29,.22-.44,.33l-.04,.03c-.15,.11-.31,.22-.46,.32l-.03,.02c-.16,.11-.32,.21-.48,.32l-.03,.02c-.16,.11-.33,.21-.49,.31h-.02c-1.39,.87-2.87,1.6-4.44,2.2h0c-.81,.31-1.63,.58-2.48,.81-11.26,3.09-22.84-1.54-29.02-10.66,.68,.54,5.94,3.02,8.21,1.86,1.1-.82,10.79,3.44,9.37,2.31-3.22-2.58-12.01-20.42,3.29-27.51,.57-.17,.77-.05,.25,.33Z"/><path class="cls-78" d="M169.74,62.6c5.7-5.27,15.69-5.3,20.18-9.52-.33,5.32-6.08,7.1-9.95,9.69-6.55,4.39-7.37,12.48-3.84,18.27,3.67,6.03,11.76,9.49,22.05,4.75-1.69,2.29-4.83,4.19-8.35,5.22-3.58,1.05-7.54,1.2-10.68,.4-12.48-3.18-20.46-18.59-9.4-28.8Z"/><path class="cls-79" d="M168.39,72.13c.29-1.19-2.24,3.17-2.27,.92-.08-5.28,4.23-10.08,8.52-12.66,1.96-1.18,4.13-2.08,6.38-2.87,3.25-1.14,6.44-2.04,8.28-3.73,1.4-1.28,1.93-3.43,.85-5.08-.38-.58-.93-.58-1.9-.36-8.32,1.92-10.23-5.17-20.15-.37-2.19-.82-3.64,.66-2.76,1.84l.07,.08h0c-7.8,6.4-11.54,16.98-8.67,27.3,.17,.6,.36,1.2,.56,1.78,.03,.07,.05,.14,.08,.21,.48,1.32,1.06,2.57,1.72,3.76l.11,.2c.05,.1,.11,.19,.16,.28,.08,.13,.15,.26,.23,.38l.07,.11c.1,.16,.2,.33,.31,.49v.02c.11,.14,.2,.28,.29,.42,2.95,4.3,10.76,7.41,15.49,4.41,1.91-1.21,1.53-3.39-.16-4.54-.45-.31-.98-.59-1.5-.86-4.99-2.63-6.67-7.75-5.7-11.75Z"/></g><rect class="cls-140" x="246.68" y="35.64" width="67.95" height="8.98" rx="4.49" ry="4.49"/><rect class="cls-141" x="246.68" y="50.1" width="67.95" height="8.98" rx="4.49" ry="4.49"/><rect class="cls-139" x="246.68" y="64.56" width="67.95" height="8.98" rx="4.49" ry="4.49"/><rect class="cls-138" x="248.5" y="80.21" width="29.74" height="25.47" rx="3.24" ry="3.24"/><rect class="cls-128" x="282.94" y="80.21" width="29.74" height="25.47" rx="3.24" ry="3.24"/><path class="cls-134" d="M362.67,108.63c-21.29,0-38.62-17.32-38.62-38.62s17.32-38.61,38.62-38.61c11.55,0,22.4,5.11,29.75,14.02,5.71,6.89,8.85,15.63,8.85,24.59,0,2.95-.33,5.88-.99,8.73-.47,2.05-1.11,4.06-1.91,5.97-5.95,14.52-19.97,23.92-35.71,23.92Z"/><path class="cls-136" d="M393.97,70.02c0,2.43-.28,4.8-.8,7.08-.38,1.65-.89,3.26-1.54,4.8-4.67,11.4-15.88,19.42-28.96,19.42-17.29,0-31.3-14.01-31.3-31.3s14.01-31.3,31.3-31.3c9.71,0,18.39,4.42,24.12,11.36,4.49,5.42,7.18,12.36,7.18,19.94Z"/><path class="cls-137" d="M393.97,70.02c0,2.43-.28,4.8-.8,7.08-.38,1.65-.89,3.26-1.54,4.8h-13.71l-15.25-11.88,24.12-19.94c4.49,5.42,7.18,12.36,7.18,19.94Z"/><path class="cls-129" d="M393.16,77.1c-3.21,13.88-15.64,24.23-30.49,24.23v-31.3l30.49,7.08Z"/><rect class="cls-135" x="125.61" y="116.49" width="148.26" height="52.66" rx="6.33" ry="6.33"/><rect class="cls-131" x="309.05" y="116.49" width="20.35" height="20.35" rx="2.72" ry="2.72"/><rect class="cls-132" x="309.05" y="142.82" width="20.35" height="20.35" rx="2.72" ry="2.72"/><rect class="cls-130" x="282.18" y="116.49" width="20.35" height="20.35"/><path class="cls-133" d="M282.18,116.49s4.21,13.55,11.36,16.29h20.96s-10.36-8.37-11.97-16.29h-20.35Z"/><rect class="cls-143" x="282.18" y="142.82" width="20.35" height="20.35"/><path class="cls-150" d="M282.18,142.82s4.21,13.55,11.36,16.29h20.96s-10.36-8.37-11.97-16.29h-20.35Z"/><rect class="cls-144" x="340.69" y="125.87" width="55.84" height="5.42" rx="2.71" ry="2.71"/><rect class="cls-142" x="340.69" y="136.3" width="55.84" height="5.42" rx="2.71" ry="2.71"/><rect class="cls-151" x="340.69" y="146.72" width="55.84" height="5.42" rx="2.71" ry="2.71"/><circle class="cls-152" cx="235.22" cy="37.21" r="5.8"/><circle class="cls-154" cx="327.81" cy="118.08" r="3.55"/></g><g><path class="cls-155" d="M122.61,115.91c-.29,.86-.78,1.34-.78,1.34l-13.87-6.2-6.05-2.7s12.87-3.51,18.21,1.38c2.93,2.68,2.95,4.86,2.49,6.17Z"/><path class="cls-60" d="M122.61,115.91c-.29,.86-.78,1.34-.78,1.34l-13.87-6.2-1.59-.98s11.79,1.63,15.34,4.89c.35,.32,.65,.64,.91,.94Z"/><path class="cls-153" d="M134.15,142.77s5.41,12.01-1.46,8.17c0,0,2.83,24.06-21.22,33.07-30.39,11.37-53.39-13-53.39-13,0,0-.26,4.76-3.35,3.99-3.08-.77-2.44-8.88-2.44-8.88,0,0-3.6,2.83-4.5-2.18-.87-4.85,1.38-9.44,1.54-9.76,0,0,0-.02,0-.02,0,0-1.37-4.52-1.06-11.03,.19-4.13,1.06-9.05,3.38-14.12,2.37-5.19,6.26-10.54,12.51-15.34,0,0-3.2-2.07-5.83-1.72-.16,.02-.24-.18-.12-.28,1.52-1.11,6.02-3.83,10.01-.36-.12-.25-2.09-4.26-3.61-6.68-.37-.59,.2-1.33,.86-1.12,2.39,.77,5.98,2.43,6.49,5.49,0,0,1.64-3.47,4-5.33,.36-.28,.89,.05,.77,.51-.3,1.15-.63,2.93-.4,4.56,0,0,18.55-5.79,37.95,4.04,16.08,8.13,20.2,17.83,15.96,17.71,0,0,3.2,2.53,5.3,5.55,.48,.69,.91,1.42,1.22,2.14,1.67,3.85,1.25,5.37-2.61,4.6Z"/><path class="cls-61" d="M59.51,131.94s-3.35,8.51-11.25,11.19c.19-4.13,1.06-9.05,3.38-14.12l7.87,2.93Z"/><path class="cls-146" d="M200.09,154.33s0,.04-.02,.06c-.2,1.14-3.2,17.49-9.49,35.03-2.55,7.15-5.65,14.49-9.34,21.08-13.04,23.37-30.44,32.25-30.44,32.25l-20.2-43.12s2.63-.53,6.61-2.09c6.92-2.71,17.95-8.51,26.45-20.01,4.94-6.68,8.38-12.82,10.75-17.9,4.07-8.73,5.02-14.37,5.02-14.37,0,0,1.23,6.44,3.95,8.61,.28,.22,.7-.03,.67-.39-.08-.77-.18-1.94-.13-2.78,.02-.33,.47-.43,.62-.12,.9,1.82,3.35,5.85,7.4,5.68,4.22-.18,8.15-1.92,8.15-1.92Z"/><path class="cls-149" d="M190.59,189.42c-2.55,7.15-5.65,14.49-9.34,21.08-13.04,23.37-30.44,32.25-30.44,32.25l-20.2-43.12s2.63-.53,6.61-2.09c4.75,6.56,15.56,18.91,29.93,16.37,8.46-1.49,16.8-12.59,23.43-24.48Z"/><path class="cls-147" d="M205.94,138.02c-3.37,7.97-5.46,14.23-5.84,16.32,0,0-3.93,1.74-8.15,1.92-4.06,.17-6.51-3.86-7.4-5.68-.15-.3-.6-.2-.62,.12-.04,.84,.05,2.01,.13,2.78,.04,.36-.38,.61-.67,.39-2.73-2.17-3.95-8.61-3.95-8.61,0,0,1.19-9.08,2.22-15.35,1.24-7.55,2.86-11.6,4.72-10.24,1.86,1.35,.99,7.92,2.31,11.41,0,0,6.13-11.79,8.97-12.29,2.85-.51,1.57,2.14,1.57,2.14,0,0,1.67-2.35,3.04-2.21,1.3,.14,.84,2.49,.79,2.77,.08-.2,.66-1.57,1.56-.75,.94,.85,.08,5.39,0,5.76,.14-.31,1.61-3.44,2.45-1.56,.88,1.98,1.02,7.97-1.15,13.1Z"/><line class="cls-4" x1="199.24" y1="120.91" x2="195.59" y2="128.71"/><line class="cls-4" x1="203.06" y1="121.5" x2="200.63" y2="129.41"/><line class="cls-4" x1="204.63" y1="126.51" x2="203.06" y2="131.71"/><path class="cls-145" d="M58.28,335.86c-.39,1.08-.58,1.9-.5,2.64l.24,1.31,3.14,16.88,1.73,9.32s-36.16-6.06-38.31-38.52c-2.15-32.44,12.49-50.4,10.52-73.56l4.52-30.98,4.77,28.5,1.9,11.36s1.22-5.57,1.97-10.8c.21-1.4,.38-2.78,.49-4.02,.07-.87,1.18-1.18,1.7-.48,.89,1.19,2.05,2.93,3.23,5.26,2.55,5.04,5.14,12.81,5.14,23.54v.04s1.16-3.13,1.53-6.9c.07-.66,.94-.84,1.25-.27,.27,.49,.57,1.06,.9,1.71,3.19,6.39,8.62,20.52,4.85,37.04-3.99,17.43-7.72,24.22-9.06,27.91Z"/><path class="cls-148" d="M62.49,270.9l-4.22,64.95-.26,3.95,4.47,16.88c-18.57-6.06-29.84-33.48-27.83-49.91,2.7-22.01,11.04-46.79,11.04-46.79l-5.03-9.05,3.71,.52,3.87,.56,5.42,.76c2.55,5.04,5.14,12.81,5.14,23.54v.04s1.16-3.13,1.53-6.9c.07-.66,.94-.84,1.25-.27,.27,.49,.57,1.06,.9,1.71Z"/><path class="cls-86" d="M67.34,307.95c-5.16,22.56-9.91,27.31-9.56,30.55l3.38,18.2c-15.68-5.94-18.82-26.36-12.83-45.04,6.13-19.15,9-29.57,10.02-33.47l.04-.12c.29-1.15,.43-1.7,.43-1.7,0,0,.12-.3,.28-.84l.05-.17c.36-1.22,.95-3.42,1.19-5.89,.07-.66,.94-.84,1.25-.27,.94,1.72,2.33,4.53,3.63,8.17,2.65,7.44,4.91,18.37,2.11,30.59Z"/><path class="cls-123" d="M65.23,277.36c-3.57-1.09-6.87,.82-6.87,.82l.04-.12,.71-2.54,.05-.17c.36-1.22,.95-3.42,1.19-5.89,.07-.66,.94-.84,1.25-.27,.94,1.72,2.33,4.53,3.63,8.17Z"/><path class="cls-124" d="M100.98,366.32s-.03,.05-.04,.08c-1.21,2.39-3.03,6.44-4.76,12.08-.85,2.79-1.39,4.96-1.74,6.65-.67,3.33-3.22,5.96-6.48,6.78-.16,.04-.32,.08-.48,.12-16.63,3.25-41.93,3.38-51.26,3.3-1.46,0-2.25-1.74-1.28-2.85,1.98-2.25,4.9-5.29,7.48-6.86,4.4-2.67,21.2-6.99,21.2-6.99l.44-4.26,.45-4.45c.51-5.1,26.09-5.89,34.88-6.02,1.27-.02,2.09,1.28,1.59,2.41Z"/><path class="cls-56" d="M100.98,366.32s-.03,.05-.04,.08c-1.21,2.39-3.03,6.44-4.76,12.08-.85,2.79-1.39,4.96-1.74,6.65-.67,3.33-3.22,5.96-6.48,6.78,4.82-2.72,6.04-9.06,6.91-13.28,1.03-5.06,1.34-11.49,1.34-11.8l4.77-.51Z"/><path class="cls-126" d="M184.08,388.02l-58.79,1.56s0,0,0,0l-8.26,.22c-1.94,.05-3.53-1.46-3.61-3.4-.04-.82,0-1.79,.17-2.97,.8-5.92-2.67-16.07-2.67-16.07l.96-1.63,3.31-5.65s38.1-2.11,35.62,3.81c-.38,.91-.67,1.71-.88,2.44,0,0,0,0,0,0-.5,1.7-.6,2.94-.55,3.81,.04,.93,.84,1.65,1.78,1.63,.54,0,1.23-.03,2.05-.03,3.66,0,10.05,.28,18.53,2.62,7.22,1.98,11.7,7.63,13.81,10.98,.72,1.15-.1,2.63-1.45,2.67Z"/><path class="cls-59" d="M125.28,389.59l-8.26,.22c-1.94,.05-3.53-1.46-3.61-3.4-.04-.82,0-1.79,.17-2.97,.8-5.92-2.67-16.07-2.67-16.07l.96-1.63,.89,1.15s2.87,11.54,2.81,17.06c-.05,4.24,4.14,4.32,9.72,5.65Z"/><path class="cls-125" d="M150.8,363.89c-5.05,3.67-11.91,4.33-18.13,3.89-2.25-.16-4.41-.47-6.37-.83-.65-.12-1.27-.24-1.87-.37-2.35-.5-4.31-1.05-5.58-1.44-.57-.17-1.05,.44-.74,.95,.43,.72,.97,1.65,1.47,2.64,.05,.11-.04,.24-.17,.22l-8.5-1.57-.45-1.8-.71-2.83-3.17,.5-.25,.04-4,.62s0,0,0,.02l-2.03,3.72c-.48,.88-1.28,1.54-2.24,1.82-2.92,.88-9.16,2.69-9.87,2.33-.88-.43,1.51-3.77,1.77-4.13-6.98,5.99-25.42,2.27-25.42,2.27,0,0-5.57-9.05-7.66-42.91-.87-14.06,.47-23.29,2.44-31.84,.85-3.72,1.83-7.31,2.8-11.12,2.17-8.52,4.29-18.13,4.94-32.66,.03-.49,.04-.99,.05-1.48,.18-5.26,.03-10.7-.35-16.12-2.13-30.85-11.64-61.67-11.93-62.62,0-.02,0-.03,0-.03l4.02-4.14h69.95s-4.64,4.66-2.24,16.4c.35,1.7,.84,3.57,1.54,5.59,3.72,10.94,23.14,36.88,34.43,66.39,4.23,11.05,7.32,22.6,8.02,34.04,2.55,41.98-19.72,74.45-19.72,74.45Z"/><path class="cls-6" d="M89.94,367.65c-6.98,5.99-25.42,2.27-25.42,2.27,0,0-5.57-9.05-7.66-42.91-.87-14.06,.47-23.29,2.44-31.84,2.77-12.05,6.8-22.76,7.73-43.78,.26-5.73,.12-11.66-.29-17.6l9.38-2.12s-1.8,55.82,4.87,68.66c5.22,10.03,9.84,16.95,6.76,16.77-3.08-.2-4.7-2.49-5.43,0-.73,2.5,4.15,14.05,6.43,23.48,2.28,9.43,8.39,20.08,1.2,27.07Z"/><path class="cls-63" d="M62.09,284.05c2.17-8.52,4.29-18.13,4.94-32.66,.03-.49,.04-.99,.05-1.48,7.94-10.66,15.52-19.53,15.52-19.53,0,0,10.51,41.2-20.51,53.67Z"/><path class="cls-127" d="M153.41,275.27c-.55,4.06-1.72,8.05-3.7,11.89-12.74,24.69-37.13,24.49-51.1,8.23-12.1-14.1-11.54-42.76-12.46-67.27,0-.05,0-.11,0-.15-.03-.83-.08-1.65-.15-2.48-1.98-23.9-18.95-49.81-18.95-49.81l52.37-1.87c-2.79,19.9,12.38,39.95,17.43,48.44,4.26,7.17,19.6,30.94,16.57,53.02Z"/><path class="cls-98" d="M153.41,275.27c-.55,4.06-1.72,8.05-3.7,11.89-12.74,24.69-37.13,24.49-51.1,8.23-12.1-14.1-11.54-42.76-12.46-67.27,.91,12.63,6.44,66.63,34.92,67.86,18.3,.8,27.67-10.65,32.35-20.71Z"/><path class="cls-62" d="M126.65,183.41c-5.68,5.12-13.48,10.02-22.87,10.59-28.62,1.73-44.39-21.98-44.96-22.83,0-.02,0-.03,0-.03l16.64-4.14h53.31s-4.39,4.66-2.12,16.4Z"/><path class="cls-97" d="M134.15,142.77s5.41,12.01-1.46,8.17c0,0,2.83,24.06-21.22,33.07-30.39,11.37-53.39-13-53.39-13,0,0-.26,4.76-3.35,3.99-3.08-.77-2.44-8.88-2.44-8.88,0,0-3.6,2.83-4.5-2.18-.87-4.85,1.38-9.44,1.54-9.76,7.46,7.36,28.82,10.54,37.66,.37,10.7-12.31,16.04-12.72,16.04-12.72l9.51-4.59s3.4,3.15,11.57,3.68c4.61,.3,8.56-2.41,11.45-4.87,.48,.69,.91,1.42,1.22,2.14,1.67,3.85,1.25,5.37-2.61,4.6Z"/><path class="cls-95" d="M57.03,120.47s-9.39,2.67-13.77,10.3-.58,13.5,13.17,4.94c7.51-4.68,.61-15.24,.61-15.24Z"/><path class="cls-96" d="M86.27,141.81s-.02,0-.02,0c-.38,.18-.78,.31-1.21,.37-3.03,.47-5.97-2.22-6.57-6.02-.59-3.8,1.39-7.26,4.43-7.73,2.27-.36,4.49,1.07,5.71,3.4,.41,.78,.7,1.67,.85,2.62,.51,3.25-.88,6.26-3.2,7.35Z"/><path d="M86.27,141.81s-.02,0-.02,0c-2.42,.17-4.7-2.02-5.17-5.06-.48-3.17,1.16-6.05,3.69-6.44,1.41-.22,2.81,.39,3.85,1.53,.41,.78,.7,1.67,.85,2.62,.51,3.25-.88,6.26-3.2,7.35Z"/><path class="cls-93" d="M115.98,129.33s-.02,0-.01,.01c-.24,.32-.52,.61-.84,.85-2.33,1.74-5.98,.79-8.16-2.12-2.17-2.92-2.05-6.69,.28-8.43,1.75-1.31,4.23-1.1,6.29,.31,.69,.47,1.33,1.08,1.87,1.81,1.87,2.5,2.04,5.63,.58,7.57Z"/><path d="M115.98,129.33s-.02,0-.01,.01c-1.95,1.22-4.83,.39-6.57-1.94-1.81-2.44-1.71-5.58,.23-7.03,1.09-.81,2.53-.92,3.9-.43,.69,.47,1.33,1.08,1.87,1.81,1.87,2.5,2.04,5.63,.58,7.57Z"/><path class="cls-2" d="M79.27,122.33s-5.21,.88-6.3,6.94"/><path class="cls-2" d="M102.83,113.6s4.77-3.2,9.53,0"/><path class="cls-94" d="M55.64,254.19l-22.49-18.32-3.85-7.28c1.55-6.16-1.23-14.87-4.56-22.31-.51-1.15-1.06-2.27-1.59-3.35-1.2-2.43-2.39-4.62-3.42-6.44-.93-1.65,.88-3.5,2.54-2.59,2.67,1.47,5.46,4.03,8.42,7.23,.9,.97,1.8,1.99,2.73,3.06,.35,.41,.71,.83,1.07,1.24,15.69,18.49,21.17,48.75,21.17,48.75Z"/><circle class="cls-91" cx="81.84" cy="133.66" r="1.72"/><circle class="cls-92" cx="109.32" cy="124.08" r="1.72"/><path class="cls-90" d="M122.8,150.08c-.11,1.72-.87,10.87-4.68,15.68-1.39,1.76-3.2,2.94-5.56,2.94-5.3,0-7.87-3.31-9.1-6.2-.97-2.23-1.12-4.21-1.12-4.21,0,0,9.28,0,10.07-9.49,0,0,2.64,4.67,10.39,1.28Z"/><path class="cls-106" d="M123.25,149.89c-.15,.07-.3,.13-.44,.2,0-.19,.02-.28,.02-.28l.43,.09Z"/><path class="cls-1" d="M112.52,146.15s1.98,16.64-19.07,11.03"/><path class="cls-1" d="M112.42,149.35s6.99,6.42,13.98-3.21"/><path d="M80.12,153.89c-15.33-3.62-31.63-.73-45.4,6.69,.83-.52,1.67-1.03,2.52-1.54,12.67-7.53,28.81-9.81,42.88-5.16h0Z"/><path class="cls-108" d="M115.03,141.83s.06,.66-.07,1.54h0c-.21,1.41-.9,3.37-3.04,4.28-2.94,1.24-6.12-1.49-6.12-1.49,0,0-3.1,2.37-5.28,0-2.17-2.36-1.25-10.56,1-12.87,.19-.2,.39-.36,.59-.51,2.98-2.13,7.95,.12,11.59,3.11,2.33,1.93,2.91,4.49,1.32,5.94Z"/><path d="M76.12,158.33c-12.88,2.42-24.85,8.63-34.59,17.35,.56-.6,1.12-1.2,1.7-1.79,8.65-8.78,20.58-14.58,32.89-15.56h0Z"/><path d="M79.27,164.16c-9.16,6.48-17.29,14.26-24.47,22.87,6.08-9.46,14.55-17.54,24.47-22.87h0Z"/><path d="M126.4,137.23c5.95-5.66,14.05-9.29,22.27-9.65-7.99,1.75-15.48,5.11-22.27,9.65h0Z"/><path d="M130.61,141.82c6.88-3.58,15.92-3.87,22.57,.42-7.2-2.93-15.21-2.64-22.57-.42h0Z"/><path class="cls-107" d="M82.42,243.02c-.77,8.41-6.01,15.76-13.75,19.14-10.31,4.5-26.36,6.62-42.96-10.16,0,0,8.74,1.59,15.82,0l-2.94-3.66s9.69-.63,2.94-18.12c0,0,1.44,.11,3.49-.12,4.5-.48,11.97-2.56,13.8-10.86,2.66-12.08,2.81-20.39,1.16-28.41,0,0,10.4-3.71,17.87,16.48,4.85,13.08,5.45,26.15,4.57,35.69Z"/><path class="cls-104" d="M41.53,230.22c5.06,13.1,.89,16.74-1.52,17.74-.65,.27-.83,1.1-.4,1.65l1.06,1.32c.42,.52,.16,1.3-.49,1.47-7.37,1.98-14.48-.41-14.48-.41-10.11-8.09-9.78-20.94-8.95-26.96,.83-6.02,3.42-5.29,3.42-5.29,0-1.97,2.7-4.25,3.12-.73,.41,3.42,2.85,7.61,3,7.87-.04-.19-.51-2.48-.59-7.25-.07-4.98,2.88-6.01,4.01-2.17,1.15,3.83,3.94,10.5,3.94,10.5,1.25-9.51,10.07-13.4,7.86-6.76-2.2,6.63,0,9.02,0,9.02Z"/><path d="M132.17,146.15c7.09-.61,15.43,1.16,19.93,7.12-5.47-4.86-12.87-6.29-19.93-7.12h0Z"/><path class="cls-4" d="M20.18,219.75s-1.34,6.93,1.9,11.92"/><path class="cls-88" d="M150.8,363.89c-5.05,3.67-11.91,4.33-18.13,3.89,3.08-2.17,7.39-4.76,11.82-9.3,14.48-14.87,20.5-45,20.5-50.39s-1.2-4.09-2.38-3.2c-3.36,2.57-5.18,2.32-.94-8.66,2.94-7.61,1.81-28.62,.83-40.82,4.23,11.05,7.32,22.6,8.02,34.04,2.55,41.98-19.72,74.45-19.72,74.45Z"/><path class="cls-105" d="M118.13,165.76c-1.39,1.76-3.2,2.94-5.56,2.94-5.3,0-7.87-3.31-9.1-6.2,2.7-.64,7.22-1.22,10.95,.7,1.79,.92,2.96,1.78,3.7,2.56Z"/><path class="cls-13" d="M147.71,334.75c-.31,.65-10.31,21.54-23.28,31.82-2.35-.5-4.31-1.05-5.58-1.44-.57-.17-1.05,.44-.74,.95,.43,.72,.97,1.65,1.47,2.64,.05,.11-.04,.24-.17,.22l-8.5-1.57-.45-1.8-.71-2.83-3.17,.5-.25,.04-4,.62s12.38-32.52-3.04-62.51c.48,.57,17.18,20.46,14.06,46.98-.32,2.69,.38,5.46,2.16,7.5,1.73,1.98,4.23,3.06,7.83,1.97,7.02-3.88,15.87-10.79,24.37-23.08Z"/><path class="cls-4" d="M189.54,133.66s6.86,4.63,6.74,11.59"/><path class="cls-4" d="M31.94,234.16s-4.35,2.31-3.45,8.4"/><path class="cls-102" d="M114.96,143.38c-.21,1.4-.9,3.36-3.04,4.27-2.94,1.24-6.12-1.49-6.12-1.49,0,0-3.1,2.37-5.28,0-2.17-2.36-1.25-10.56,1-12.87,.19-.2,.39-.36,.59-.51-.85,3.2-3.2,13.92,4.25,11.1,0,0,4.34,4.66,8.59-.5Z"/><path class="cls-101" d="M30.68,201.13c-.9-.34-1.86-.62-2.89-.78-2.93-.44-4.15,1.05-4.64,2.58-1.2-2.43-2.39-4.62-3.42-6.44-.93-1.65,.88-3.5,2.54-2.59,2.67,1.47,5.46,4.03,8.42,7.23Z"/><path class="cls-103" d="M157.82,260.73s-.49,4.02-2.33,9.36l2.33-9.36Z"/><path class="cls-52" d="M73.11,378.63c-4.85-.36-9.48,0-9.48,0l.44-4.26,9.05,4.26Z"/><path class="cls-54" d="M45.22,389.88s-4.69,2.09-4.8,5.46h.94s.55-3.64,3.87-5.46Z"/><path class="cls-55" d="M49.37,390.86s-3.14,2.17-3.28,4.44l1.16-.02s-.07-2.64,2.12-4.42Z"/><path class="cls-53" d="M40.13,389.69s-3.88,2.76-3.91,5.64l1.16-.03s-.33-2.58,2.75-5.61Z"/><path class="cls-100" d="M82.84,393.36c.13-.05,1.52-.32,3.36-.67-.49,.17-1.01,.3-1.57,.39-1.17,.2-1.71,.28-1.79,.28Z"/><path class="cls-51" d="M153.2,371.76l-14.37,.7c4-.51,10.67-5.8,11.09-6.12-.5,1.7-.6,2.94-.55,3.81,.04,.93,.84,1.65,1.78,1.63,.54,0,1.23-.03,2.05-.03h0Z"/><path class="cls-50" d="M182.86,388.06s-.65-4.39-6.3-6.24c0,0,4.9,3.2,4.9,6.28l1.39-.04Z"/><path class="cls-49" d="M171.66,383.12s4.88,1.58,5.08,5.09l-1.34,.04s-.53-3.25-3.74-5.12Z"/><path class="cls-48" d="M170.42,388.39s-.26-2.3-2.72-2.86c0,0,1.87,1.47,1.9,2.86h.82Z"/><path class="cls-99" d="M15.07,262.44l2.79,.67c.36,.12,.75-.03,1.06-.26l2.15-1.94c.74-.66,1.94-.19,2.01,.8l.21,2.87c.03,.41,.25,.77,.59,.94l2.48,1.42c.86,.47,.77,1.75-.16,2.11l-2.65,1.08s2.29,12.59-8.65,24.34c0,0,6.27-15.92,2.39-22.73l-2.84,.28c-1.01,.11-1.66-.97-1.14-1.82l1.52-2.44c.22-.32,.26-.76,.09-1.11l-1.15-2.62c-.38-.87,.41-1.85,1.29-1.61Z"/><path class="cls-115" d="M11.86,167.11l4.19,3.81c.53,.59,1.37,.76,2.11,.65l5.51-1.2c1.9-.37,3.53,1.54,2.73,3.24l-2.34,5.22c-.35,.75-.24,1.5,.15,2.14l2.86,4.91c1.06,1.65-.37,3.73-2.34,3.5l-5.69-.61c-.79-.03-1.48,.22-2.08,.75l-3.76,4.33c-1.36,1.43-3.75,.88-4.12-1.02l-1.07-5.56c-.11-.74-.69-1.47-1.39-1.69l-5.17-2.2c-1.83-.75-1.94-3.21-.29-4.28l4.96-2.73c.64-.39,1.19-1.05,1.21-1.84l.47-5.64c.27-2.29,2.62-3.14,4.05-1.77Z"/><path class="cls-114" d="M9.98,209.38l-.5,1.94c-.1,.26-.01,.55,.15,.77l1.29,1.53c.43,.53,.1,1.36-.56,1.39l-2.02,.13c-.29,.01-.51,.17-.65,.4l-1.06,1.71c-.34,.61-1.23,.5-1.48-.15l-.75-1.88c-.12-.25-.32-.43-.58-.53l-1.98-.46c-.67-.19-.9-1.03-.36-1.46l1.56-1.25c.21-.16,.35-.46,.3-.71l-.17-1.98c-.07-.7,.68-1.14,1.29-.8l1.67,1.1c.23,.14,.53,.2,.78,.07l1.84-.79c.76-.29,1.42,.3,1.23,.98Z"/><path class="cls-122" d="M48.21,203.2l-.38,1.47c-.07,.2,0,.42,.11,.58l.98,1.16c.33,.4,.08,1.03-.43,1.06l-1.53,.1c-.22,.01-.39,.13-.49,.3l-.81,1.3c-.26,.46-.93,.38-1.13-.12l-.57-1.43c-.09-.19-.24-.32-.44-.4l-1.5-.35c-.51-.14-.68-.78-.28-1.11l1.19-.95c.16-.12,.26-.35,.23-.54l-.13-1.51c-.05-.53,.52-.86,.98-.61l1.27,.84c.17,.1,.4,.15,.59,.06l1.4-.6c.58-.22,1.07,.23,.93,.74Z"/></g><g><path class="cls-121" d="M446.64,106.68s-7.93-2.8-15.4,1.81c-5.57,3.44-7.34,11.09-7.34,11.09l22.74-12.9Z"/><path class="cls-120" d="M429.65,189.35l-2.46,39.35s-66.73,15.68-74.71-61.88v.02c.19,.33,3.02,5.67,5.69,6.47,0,0-.59-1.94-.59-3.28,0,0,10.17,4.5,14.37-.88,0,0,15.74,32.9,57.7,20.2Z"/><path class="cls-119" d="M379.22,156.29c-1.05,3.31-4.7,6.96-6.39,8.52-.57,.52-.89,1.25-.89,2.02v2.31c-4.2,5.38-14.37,.88-14.37,.88,0,1.34,.59,3.28,.59,3.28-2.67-.8-5.5-6.14-5.68-6.47v-.02s.29-3.06-1.78-10.78c-1.23-4.59-.21-8.12,.82-10.23,.36-.75,1.45-.6,1.58,.21,.61,3.72,2.46,5.52,2.46,5.52-.68-9.13,4.39-11.35,7.07-11.9,.48-.1,.78,.47,.44,.83-1.28,1.31-1.7,2.5-1.74,2.65,1.38-1.88,3.35-2.44,4.78-2.57,.68-.06,1.1,.75,.66,1.27-2.09,2.49-3.01,5.83-3.21,6.66,.75-2.59,5.02-7.45,9.62-4.86,2.47,1.38,3.3,3.12,3.53,4.47,.12,.69-.67,1.14-1.23,.71-.54-.42-1.32-.83-2.41-1.05-2.88-.57-5.41,2.77-4.61,5.53,.81,2.76,6.11,2.41,7.25-.51,1.15-2.92,2.88-4.45,4.03-3.52,1.15,.92,.87,2.66-.51,7.04Z"/><g><path class="cls-118" d="M526.49,326c-8.26,31.46-38.31,38.52-38.31,38.52l1.73-9.32,.1-.51,3.04-16.37,.24-1.31c.08-.74-.11-1.55-.5-2.64-1.34-3.68-5.08-10.48-9.06-27.91-3.77-16.52,1.66-30.65,4.85-37.04,.33-.66,.63-1.22,.9-1.71,.31-.58,1.18-.39,1.25,.27,.36,3.76,1.53,6.9,1.53,6.9v-.04c0-7.89,1.4-14.18,3.15-18.95,.63-1.73,1.31-3.26,1.99-4.59,1.18-2.33,2.34-4.08,3.23-5.27,.51-.69,1.62-.37,1.7,.5,.11,1.23,.28,2.61,.49,4.01,.31,2.11,.68,4.28,1.04,6.12,.5,2.71,.93,4.69,.93,4.69,0,0,.77-5.58,2.03-11.38,.55-2.51,1.19-5.06,1.9-7.23,.96-2.91,1.94-5.49,2.89-7.8h0c2.25-5.4,4.43-9.23,6.2-11.87,1-1.49,3.34-.59,3.09,1.19-.53,3.79-1.15,9.01-1.49,14.68-.44,7.19-.45,15.1,.7,21.77,5.22,30.31,11.82,44.59,6.38,65.31Z"/><path class="cls-117" d="M490.01,354.68c-.47,.19-.95,.36-1.43,.51l4.47-16.88-.26-3.95-4.22-64.95c.33-.66,.63-1.22,.9-1.71,.31-.58,1.18-.39,1.25,.27,.36,3.76,1.53,6.9,1.53,6.9v-.04c0-7.89,1.4-14.18,3.15-18.95,.63-1.73,1.31-3.26,1.99-4.59l5.42-.76c.31,2.11,.68,4.28,1.04,6.12,.44,.43,.69,.75,.69,.85,0,0-.14-3.53-.28-7.18l2.41-.35,.13-.02,3.58-.51-5.03,9.05s8.34,24.78,11.04,46.79c1.95,16-8.68,42.44-26.4,49.4Z"/><path class="cls-87" d="M483.73,306.45c5.16,22.56,9.91,27.31,9.56,30.55l-3.38,18.2c15.68-5.94,18.82-26.36,12.83-45.04-6.13-19.15-9-29.57-10.02-33.47l-.04-.12c-.29-1.15-.43-1.7-.43-1.7,0,0-.12-.3-.28-.84l-.05-.17c-.36-1.22-.95-3.42-1.19-5.89-.07-.66-.94-.84-1.25-.27-.94,1.72-2.33,4.53-3.63,8.17-2.65,7.44-4.91,18.37-2.11,30.59Z"/><path class="cls-116" d="M485.84,275.86c3.57-1.09,6.87,.82,6.87,.82l-.04-.12-.71-2.54-.05-.17c-.36-1.22-.95-3.42-1.19-5.89-.07-.66-.94-.84-1.25-.27-.94,1.72-2.33,4.53-3.63,8.17Z"/><path class="cls-113" d="M450.08,364.82s.03,.05,.04,.08c1.21,2.39,3.03,6.44,4.76,12.08,.85,2.79,1.39,4.96,1.74,6.65,.67,3.33,3.22,5.96,6.48,6.78,.16,.04,.32,.08,.48,.12,16.63,3.25,41.93,3.38,51.26,3.3,1.46,0,2.25-1.74,1.28-2.85-1.98-2.25-4.9-5.29-7.48-6.86-4.4-2.67-21.2-6.99-21.2-6.99l-.44-4.26-.45-4.45c-.51-5.1-26.09-5.89-34.88-6.02-1.27-.02-2.09,1.28-1.59,2.41Z"/><path class="cls-57" d="M450.08,364.82s.03,.05,.04,.08c1.21,2.39,3.03,6.44,4.76,12.08,.85,2.79,1.39,4.96,1.74,6.65,.67,3.33,3.22,5.96,6.48,6.78-4.82-2.72-6.04-9.06-6.91-13.28-1.03-5.06-1.34-11.49-1.34-11.8l-4.77-.51Z"/><path class="cls-112" d="M366.99,386.52l58.79,1.56s0,0,0,0l8.26,.22c1.94,.05,3.53-1.46,3.61-3.4,.04-.82,0-1.79-.17-2.97-.8-5.92,2.67-16.07,2.67-16.07l-.96-1.63-3.31-5.65s-38.1-2.11-35.62,3.81c.38,.91,.67,1.71,.88,2.44,0,0,0,0,0,0,.5,1.7,.6,2.94,.55,3.81-.04,.93-.84,1.65-1.78,1.63-.54,0-1.23-.03-2.05-.03-3.66,0-10.05,.28-18.53,2.62-7.22,1.98-11.7,7.63-13.81,10.98-.72,1.15,.1,2.63,1.45,2.67Z"/><path class="cls-58" d="M425.79,388.09l8.26,.22c1.94,.05,3.53-1.46,3.61-3.4,.04-.82,0-1.79-.17-2.97-.8-5.92,2.67-16.07,2.67-16.07l-.96-1.63-.89,1.15s-2.87,11.54-2.81,17.06c.05,4.24-4.14,4.32-9.72,5.65Z"/><path class="cls-111" d="M400.27,362.39c5.05,3.67,11.91,4.33,18.13,3.89,2.25-.16,4.41-.47,6.37-.83,.65-.12,1.27-.24,1.87-.37,2.35-.5,4.31-1.05,5.58-1.44,.57-.17,1.05,.44,.74,.95-.43,.72-.97,1.65-1.47,2.64-.05,.11,.04,.24,.17,.22l8.5-1.57,.45-1.8,.71-2.83,3.17,.5,.25,.04,4,.62s0,0,0,.02l2.03,3.72c.48,.88,1.28,1.54,2.24,1.82,2.92,.88,9.16,2.69,9.87,2.33,.88-.43-1.51-3.77-1.77-4.13,6.98,5.99,25.42,2.27,25.42,2.27,0,0,5.57-9.05,7.66-42.91,.87-14.06-.47-23.29-2.44-31.84-.85-3.72-1.83-7.31-2.8-11.12-2.17-8.52-4.29-18.13-4.94-32.66-.03-.49-.04-.99-.05-1.48-.18-5.26-.03-10.7,.35-16.12,2.13-30.85,10.9-47.41,15.86-62.56,4.79-14.64,4.79-27.79,4.79-27.79l-19.14-5.83-63.54,29.39s4.64,4.66,2.24,16.4c-.35,1.7-.84,3.57-1.54,5.59-3.72,10.94-23.14,36.88-34.43,66.39-4.23,11.05-7.32,22.6-8.02,34.04-2.55,41.98,19.72,74.45,19.72,74.45Z"/><path class="cls-7" d="M461.13,366.15c6.98,5.99,25.42,2.27,25.42,2.27,0,0,5.57-9.05,7.66-42.91,.87-14.06-.47-23.29-2.44-31.84-2.77-12.05-6.8-22.76-7.73-43.78-.26-5.73-.12-11.66,.29-17.6l-9.38-2.12s1.8,55.82-4.87,68.66c-5.22,10.03-9.84,16.95-6.76,16.77,3.08-.2,4.7-2.49,5.43,0,.73,2.5-4.15,14.05-6.43,23.48-2.28,9.43-8.39,20.08-1.2,27.07Z"/><path class="cls-109" d="M397.66,273.77c.55,4.06,1.72,8.05,3.7,11.89,12.74,24.69,37.13,24.49,51.1,8.23,12.1-14.1,11.54-42.76,12.46-67.27,0-.05,0-.11,0-.15,.03-.83,.08-1.65,.15-2.48,1.98-23.9,18.95-49.81,18.95-49.81l-52.37-1.87c2.79,19.9-12.38,39.95-17.43,48.44-4.26,7.17-19.6,30.94-16.57,53.02Z"/><path class="cls-110" d="M397.66,273.77c.55,4.06,1.72,8.05,3.7,11.89,12.74,24.69,37.13,24.49,51.1,8.23,12.1-14.1,11.54-42.76,12.46-67.27-.91,12.63-6.44,66.63-34.92,67.86-18.3,.8-27.67-10.65-32.35-20.71Z"/><path class="cls-64" d="M424.41,181.91c5.68,5.12,13.48,10.02,22.87,10.59,28.62,1.73,44.51-25.32,45.08-26.17,0-.02,1.29-2.49,1.29-2.49l-18.04,1.66h-53.31s4.39,4.66,2.12,16.4Z"/><path class="cls-89" d="M400.27,362.39c5.05,3.67,11.91,4.33,18.13,3.89-3.08-2.17-7.39-4.76-11.82-9.3-14.48-14.87-20.5-45-20.5-50.39,0-5.4,1.2-4.09,2.38-3.2,3.36,2.57,5.18,2.32,.94-8.66-2.94-7.61-1.81-28.62-.83-40.82-4.23,11.05-7.32,22.6-8.02,34.04-2.55,41.98,19.72,74.45,19.72,74.45Z"/><path class="cls-8" d="M403.35,333.24c.31,.65,10.31,21.54,23.28,31.82,2.35-.5,4.31-1.05,5.58-1.44,.57-.17,1.05,.44,.74,.95-.43,.72-.97,1.65-1.47,2.64-.05,.11,.04,.24,.17,.22l8.5-1.57,.45-1.8,.71-2.83,3.17,.5,.25,.04,4,.62s-12.38-32.52,3.04-62.51c-.48,.57-17.18,20.46-14.06,46.98,.32,2.69-.38,5.46-2.16,7.5-1.73,1.98-4.23,3.06-7.83,1.97-7.02-3.88-15.87-10.79-24.37-23.08Z"/><path class="cls-34" d="M393.24,259.23s.49,4.02,2.33,9.36l-2.33-9.36Z"/><path class="cls-72" d="M477.96,377.13c4.85-.36,9.48,0,9.48,0l-.44-4.26-9.05,4.26Z"/><path class="cls-70" d="M505.84,388.38s4.69,2.09,4.8,5.46h-.94s-.55-3.64-3.87-5.46Z"/><path class="cls-69" d="M501.69,389.36s3.14,2.17,3.28,4.44l-1.16-.02s.07-2.64-2.12-4.42Z"/><path class="cls-71" d="M510.93,388.19s3.88,2.76,3.91,5.64l-1.16-.03s.33-2.58-2.75-5.61Z"/><path class="cls-29" d="M468.23,391.86c-.13-.05-1.52-.32-3.36-.67,.49,.17,1.01,.3,1.57,.39,1.17,.2,1.71,.28,1.79,.28Z"/><path class="cls-68" d="M397.87,370.26l14.37,.7c-4-.51-10.67-5.8-11.09-6.12,.5,1.7,.6,2.94,.55,3.81-.04,.93-.84,1.65-1.78,1.63-.54,0-1.23-.03-2.05-.03h0Z"/><path class="cls-67" d="M368.2,386.56s.65-4.39,6.3-6.24c0,0-4.9,3.2-4.9,6.28l-1.39-.04Z"/><path class="cls-66" d="M379.41,381.62s-4.88,1.58-5.08,5.09l1.34,.04s.53-3.25,3.74-5.12Z"/><path class="cls-65" d="M380.64,386.89s.26-2.3,2.72-2.86c0,0-1.87,1.47-1.9,2.86h-.82Z"/><path class="cls-21" d="M541.69,240.17l-1.15,2.62c-.17,.34-.13,.79,.09,1.11l1.52,2.44c.52,.85-.13,1.93-1.14,1.82l-2.84-.28c-3.88,6.81,2.39,22.73,2.39,22.73-10.94-11.75-8.65-24.34-8.65-24.34l-2.65-1.08c-.92-.37-1.02-1.65-.16-2.11l2.48-1.42c.34-.17,.55-.53,.59-.94l.21-2.87c.06-.99,1.27-1.46,2.01-.8l2.15,1.94c.31,.24,.7,.39,1.06,.26l2.79-.67c.88-.25,1.68,.74,1.29,1.61Z"/><path class="cls-22" d="M529.52,205.85l.05,3.13c-.01,.44,.26,.82,.6,1.06l2.63,1.69c.87,.65,.72,2-.32,2.35l-2.94,1.02c-.4,.09-.74,.47-.83,.88l-.79,3.03c-.28,1.03-1.61,1.25-2.31,.41l-1.91-2.53c-.31-.31-.68-.48-1.12-.49l-3.16,.12c-1.09,.05-1.81-1.15-1.16-2.02l1.76-2.6c.24-.34,.33-.74,.16-1.17l-1.1-2.97c-.38-.96,.59-1.96,1.63-1.68l2.99,.87c.4,.09,.88,.03,1.19-.28l2.45-1.94c.84-.7,2.1-.14,2.17,1.13Z"/><path class="cls-25" d="M539.73,282.09l1.84,.79c.25,.12,.55,.06,.78-.07l1.67-1.1c.61-.34,1.36,.1,1.29,.8l-.17,1.98c-.05,.26,.08,.56,.3,.71l1.56,1.25c.53,.43,.31,1.27-.36,1.46l-1.98,.46c-.26,.1-.46,.27-.58,.53l-.75,1.88c-.25,.65-1.14,.76-1.48,.15l-1.06-1.71c-.14-.23-.35-.39-.65-.4l-2.02-.13c-.66-.03-.99-.86-.56-1.39l1.29-1.53c.16-.21,.24-.5,.15-.77l-.5-1.94c-.19-.67,.46-1.27,1.23-.98Z"/><path class="cls-26" d="M496.27,229.08l1.4,.6c.19,.09,.42,.05,.59-.06l1.27-.84c.46-.26,1.03,.08,.98,.61l-.13,1.51c-.04,.19,.06,.42,.23,.54l1.19,.95c.4,.33,.23,.96-.28,1.11l-1.5,.35c-.2,.07-.35,.21-.44,.4l-.57,1.43c-.19,.49-.87,.58-1.13,.12l-.81-1.3c-.1-.17-.27-.29-.49-.3l-1.53-.1c-.5-.02-.75-.65-.43-1.06l.98-1.16c.12-.16,.19-.38,.11-.58l-.38-1.47c-.14-.51,.35-.96,.93-.74Z"/></g><path class="cls-27" d="M500.19,147.22c-1.09-.12-1.94-.44-1.94-.44,3.73,13.55-1.76,12.62-1.76,12.62,0,0,2.17,5.18,0,7.55-2.17,2.38-4.14-.62-4.14-.62-8.07,15.1-35.16,25.35-56.68,17.31-22.01-8.23-22.97-36.25-22.97-36.25-4.91-1.24-.51-7.77-.51-7.77-1.81-1.07-1.65-3.43-.12-6.4,2.4-4.71,8.21-10.99,14.94-16.18,18.42-14.2,35.29-12.65,35.29-12.65,0,0-1.01-2.49-2.6-4.34,0,0,4.29,.25,6.49,3.68,0,0,1.23-8.21,2.57-9.32,0,0,2.09,5.02,1.47,9.93,0,0,4.08-3.91,8.8-3.19,0,0-4.59,3.6-4.59,5.56,0,0,13.4,.73,22.99,15.2,2.73,4.12,5.16,9.37,6.87,16.02,2.24,8.66-1.6,9.54-4.12,9.29Z"/><path class="cls-77" d="M504.3,137.94c-13.46,2.17-19.68-16.02-19.68-16.02h12.81c2.73,4.12,5.16,9.37,6.87,16.02Z"/><path class="cls-19" d="M498.25,146.78c3.73,13.55-1.76,12.62-1.76,12.62,0,0,2.17,5.18,0,7.55-2.17,2.38-4.14-.62-4.14-.62-8.07,15.1-35.16,25.35-56.68,17.31-22.01-8.23-22.97-36.25-22.97-36.25-4.91-1.24-.51-7.77-.51-7.77-1.81-1.07-1.65-3.43-.12-6.4,.75,2.69,2.8,7.95,7.4,8.89,6.24,1.28,9.88-.95,14.62,.38,4.74,1.32,12.03,4.51,22.23,10.35,15.33,8.78,26.98-.31,36.08-4.94,1.85-.94,4.38-1.94,5.85-1.14-1.09-.12,0,0,0,0Z"/><path class="cls-20" d="M481.34,112.57c-.16-1.65,1.17-3.07,2.83-3,3.57,.14,9.89,2.03,14.3,5.43,6.68,5.15,10.17,13.35,5,15.73-9.17,4.22-19.46-7.35-21.39-13.88-.38-1.27-.6-2.9-.74-4.29Z"/><path class="cls-28" d="M409.79,218.97l1.25-29.3c.09-2.03,1.89-3.56,3.91-3.3l32.29,4.14c1.79,.23,3.11,1.79,3.03,3.6l-2.38,54.89c-.09,2.03-1.89,3.55-3.91,3.3l-32.82-4.2c-1.82-.23-3.14-1.84-3.03-3.67l1.65-25.45Z"/><path class="cls-38" d="M427.37,155.66s.88,13.63,10.53,14.05c9.65,.42,12.96-10.71,12.96-10.71,0,0-15.1,4.43-16.76-3.36,0,0-4.63,1.93-6.73,.01Z"/><path class="cls-33" d="M396.98,226.04l-2.64-31.05c-.18-2.15,1.52-4.01,3.68-4.01h34.6c1.92,0,3.52,1.47,3.68,3.38l4.91,58.19c.18,2.15-1.52,4-3.68,4h-35.16c-1.95,0-3.56-1.52-3.68-3.46l-1.7-27.06Z"/><path d="M439.12,136.22c3.28,1.01,3.51,5.06,3.72,9.26,.21,4.19-3.54,4.47-4.89,3.51,0,0-2.68,2.44-5.39,1.14-2.56-1.23-1.6-4.13-1.6-4.13,0,0-3.27-.97-2.01-4.01,1.07-2.58,7.46-6.6,10.17-5.77Z"/><path class="cls-3" d="M434.01,149.39s-2.2,9.12,4.72,10.38,13-1.36,15.73-1.36"/><path class="cls-3" d="M423.52,150.51s2.7,8.77,10.58,5.14"/><g><ellipse class="cls-32" cx="428.81" cy="129.86" rx="6.8" ry="4.9" transform="translate(78.88 409.66) rotate(-55.49)"/><ellipse cx="429.59" cy="131.24" rx="4.87" ry="3.53" transform="translate(101.39 437.93) rotate(-60.05)"/><circle class="cls-30" cx="428.81" cy="127.85" r="1.65"/></g><g><ellipse class="cls-37" cx="455.54" cy="137.9" rx="6.8" ry="4.9" transform="translate(83.84 435.17) rotate(-55.49)"/><ellipse cx="456.32" cy="139.28" rx="4.87" ry="3.53" transform="translate(107.81 465.11) rotate(-60.05)"/><circle class="cls-36" cx="455.54" cy="135.88" r="1.65"/></g><path class="cls-35" d="M479.31,224.25c-6.99,18.45-36.26,35.3-55.16,34.79-18.89-.52-28.76-8.41-32.67-15.52,0,0,1.87-.31,2.89-3.71,1.03-3.41,3.06-2.02,3.92-3.56,.38-.68,.48-1.39,.49-1.98,0-.74-.15-1.26-.15-1.26,0,0,10.72,5.27,22.63-.34,11.91-5.62,26.12-17.06,31.31-22.46,8.18-8.51,12.94-13.62,19.86-11.31,6.26,2.1,12.35,10.93,6.88,25.37Z"/><path class="cls-23" d="M398.77,234.27c0,.59-.11,1.3-.49,1.98-.85,1.54-2.89,.16-3.92,3.56-1.02,3.4-2.89,3.71-2.89,3.71-5.02-10.46,5.14-17.5,5.14-17.5,0,4.15,2.01,6.99,2.01,6.99l.15,1.26Z"/><path class="cls-2" d="M429.59,119.05s4.61-2.66,7.93,0"/><path class="cls-2" d="M460.54,125.21s7.85,.9,8.62,9.02"/><path d="M418.39,137.53c-6.15-7.77-16.09-10.49-25.61-8.83-1.35,.22-2.68,.56-4.04,.8,1.3-.45,2.61-.89,3.94-1.28,9.6-2.49,20.44,.51,25.71,9.31h0Z"/><path d="M414.98,140.44c-6.95-2.96-14.65-4.07-22.09-2.54,7.12-2.95,15.76-1.71,22.09,2.54h0Z"/><path d="M414.98,146.21c-5.82-.77-11.58,1.34-16.24,4.73-.69,.48-1.32,1.02-2.02,1.51,.54-.64,1.12-1.27,1.71-1.88,4.24-4.09,10.83-6.45,16.56-4.35h0Z"/><path d="M464.92,149.11c12.57-6.39,28.7-7.51,41.03,0-1.63-.62-3.24-1.48-4.93-1.94-11.71-3.98-24.71-2.39-36.11,1.94h0Z"/><path d="M464.92,153.52c10.52-.9,31.22-.45,37.1,9.81-.93-1.38-2.15-2.51-3.52-3.4-4.13-2.71-9.05-3.86-13.85-4.73-6.5-1.12-13.13-1.53-19.72-1.68h0Z"/><path d="M463.36,158.39c11.85,.35,25.21,5.56,30.28,17.02-.86-1.21-1.59-2.58-2.62-3.67-6.75-8.16-17.49-11.74-27.66-13.35h0Z"/></g><g><path class="cls-24" d="M207.95,387.99s-1.08,11.76-1.19,14.77c-.06,1.62-.99,2.24-1.84,2.45-.73,.19-1.39,.09-1.39,.09-.58,2.04-3.2,1.55-3.2,1.55-.26,.12-.51,.21-.74,.28-2.11,.67-3.11-.28-3.11-.28-.25,0-.48-.04-.69-.12-1.86-.53-2.5-2.8-2.5-2.8-.47-.42-.83-.96-1.08-1.57-1.22-2.83-.43-7.17-.43-7.17,0,0-.82,.09-1.31-.59-.41-.55-.6-1.62,.05-3.68,1.46-4.56,5.97-7,5.97-7l1.13-7.47,10.34,11.55Z"/><path class="cls-31" d="M338.68,265.41s-1.61-7.82-.82-15.4,4.32-11.76,6.41-11.76,0,5.88,0,5.88c0,0,3.8-10.99,7.46-10.2,0,0,2.48-1.18,4.18,.52,0,0,1.97-.26,2.36,2.49,0,0,2.36-.52,3.4,4.32,1.05,4.84,1.82,17.85-5.76,29.47l-5.93,7.7-11.09-1.96-.22-11.06Z"/><path class="cls-15" d="M235.93,324.94l-27.98,63.05c-1.57-.58-2.89-1.17-4-1.75-5.16-2.7-5.71-5.2-5.71-5.2-.92,2.08-1.76,2.88-1.76,2.88-6.01-31.69,22.61-75.79,32.75-90.16,2.13-3.03,3.44-4.73,3.44-4.73l3.26,35.92Z"/><path class="cls-10" d="M235.93,324.94l-27.98,63.05c-1.57-.58-2.89-1.17-4-1.75,.38-5.19-1.69-21.54,7.67-38.96,14.27-26.56,15.87-48.51,17.61-53.53,.18-.53,.28-.82,.28-.82l1.44-6.05,1.73,2.13,3.26,35.92Z"/><path class="cls-14" d="M355.92,270.73s-.83,7.29-2.84,17.39h0c-2.88,14.46-8.17,34.67-16.89,47.51-14.82,21.8-25.29,22.77-25.29,22.77,0,0-3.99-6.05-8.12-15.06-4.17-9.12-8.5-21.26-8.98-33.25-.97-23.85,4.13-21.07,4.13-21.07,0,0,3.96,14.59,15.36,12.36,11.41-2.24,25.41-35.97,25.41-35.97,0,0,.2,2.62,1.82,4.68,0,0-.33-2.4,.45-3.36,0,0,.79,3.03,3.95,4.18,3.15,1.15,8.26,1.9,11.02-.17Z"/><path class="cls-12" d="M353.08,288.13c-2.88,14.45-8.17,34.66-16.89,47.5-14.82,21.8-25.29,22.77-25.29,22.77,0,0-3.99-6.05-8.12-15.06,6.36-1.18,33.05-8.83,50.31-55.21Z"/><path class="cls-16" d="M323.65,482.95h-45.83c-1.62,0-2.93-1.31-2.95-2.93,0-.81-.03-1.77-.06-2.83-.02-.42-.04-.86-.06-1.31-.1-1.87-.27-3.99-.53-6.15-.13-1.01-.28-2.04-.46-3.06-.9-5.06-2.49-10-5.28-12.63,0,0-1.07,.4-3.05,.4s-3.04-.4-3.04-.4c-3.3,3.1-4.92,9.37-5.7,15.29-.22,1.72-.38,3.43-.49,5.01-.09,1.21-.14,2.35-.18,3.38-.03,.85-.04,1.63-.04,2.31-.02,1.62-1.32,2.93-2.95,2.93h-45.83c-1.65,0-2.58-1.94-1.52-3.2,4.94-5.91,14.9-8.19,20.99-9.05,3.04-.43,5.13-.51,5.13-.51-16.24-14.42-24.28-36.2-25.01-60.5-.62-20.14,3.77-42.01,12.64-62.84,13.07-30.68,13.17-49.31,11.82-58.3-.68-4.47-1.73-6.57-1.73-6.57l35.92,6.14,27.88-4.77,8.03-1.38s-1.39,2.8-2.01,8.84c-.17,1.61-.28,3.44-.28,5.51-.05,10.43,2.33,26.91,12.38,50.52,9.75,22.88,14.08,47.02,12.31,68.75-1.78,21.9-9.78,41.35-24.7,54.58,0,0,7.88,.29,15.44,2.92,4.09,1.42,8.09,3.53,10.7,6.64,1.06,1.27,.12,3.2-1.53,3.2Z"/><path class="cls-5" d="M299.04,470.19s7.88,.29,15.44,2.92c-1.06,1.85-1.74,3.03-1.74,3.03l-37.93,1.06c-.02-.42-.04-.86-.06-1.31-.1-1.87-.27-3.99-.53-6.15-.13-1.01-.28-2.04-.46-3.06-.9-5.06-2.49-10-5.28-12.63,0,0-1.07,.4-3.05,.4s-3.04-.4-3.04-.4c-3.3,3.1-4.92,9.37-5.7,15.29-.22,1.72-.38,3.43-.49,5.01-.09,1.21-.14,2.35-.18,3.38l-25.07,.69-4.28-7.71c3.04-.43,5.13-.51,5.13-.51-16.24-14.42-24.28-36.2-25.01-60.5,7.24-18.17,23.96-45,59.56-45,39.73,0,53.11,33.39,57.4,50.91-1.78,21.9-9.78,41.35-24.7,54.58Z"/><path class="cls-9" d="M238.25,442.65c3.56,3.3,16.08,11.12,24.12,11.38-3.3,3.1-4.92,9.37-5.7,15.29-.22,1.72-.38,3.43-.49,5.01l-5.18-.43s3.91-7.44,2.17-14.89c-1.49-6.39-11.68-13.24-14.93-16.37Z"/><path class="cls-11" d="M268.47,454.03s10.57-2.33,20.93-10.45c-5.57,5.58-12.55,13.52-12.87,18.62-.55,8.56,1.27,13.93,1.27,13.93l-3.05-.26c-.1-1.87-.27-3.99-.53-6.15-.13-1.01-.28-2.04-.46-3.06-.9-5.06-2.49-10-5.28-12.63Z"/><path class="cls-18" d="M229.5,281.98s12.4,21.77,35.92,21.9c23.52,.13,37.76-16.25,37.76-16.25l-73.68-5.65Z"/><path class="cls-17" d="M256.68,469.33c-.54,4.15-.69,8.12-.71,10.7-.02,1.62-1.32,2.93-2.95,2.93h-45.83c-1.65,0-2.58-1.94-1.52-3.2,7.42-8.87,26.12-9.56,26.12-9.56,0,0,11.98,1.72,17.52-.86,0,0,.28,1.34-.58,2.2,0,0,5.65,0,7.94-2.2Z"/><path class="cls-45" d="M323.65,482.95h-45.83c-1.62,0-2.93-1.31-2.95-2.93-.02-2.49-.16-6.29-.66-10.3,4.71,3.29,10.31,2.55,10.31,2.55-1.2-.83-2.39-2.09-2.39-2.09,7.33,3.22,16.9,0,16.9,0,0,0,18.71,.69,26.13,9.56,1.06,1.27,.12,3.2-1.53,3.2Z"/><path d="M200.09,265.41c9.57-2.63,20.47-2.64,29.41,2.04-1.21-.34-2.35-.85-3.57-1.09-8.39-2.25-17.27-2.03-25.84-.94h0Z"/><path d="M207.31,274.68c6.82-2.99,14.86-4.96,22.19-2.81-7.52-.75-14.91,1.13-22.19,2.81h0Z"/><path d="M217.55,281.98c3.18-3.86,8.68-6.89,13.75-5.34-5.13-.07-9.61,2.57-13.75,5.34h0Z"/><path d="M307.91,264.14c7.65-2.66,17.41-4.79,25.11-1.4-.52-.12-1.04-.24-1.55-.38-7.85-1.29-15.82,.46-23.56,1.78h0Z"/><path d="M305.94,268.36c7.29-1.92,16.28-1.37,21.98,4.07-6.5-4.21-14.47-4.57-21.98-4.07h0Z"/><path d="M304.26,273.01c6.74,.04,14.07,3.04,17.68,8.97-4.68-4.96-11.14-7.52-17.68-8.97h0Z"/><path class="cls-44" d="M324.08,240.29c-.88-6.34-14.73-12.18-14.73-12.18-15.11-15.35-40.44-15.35-40.44-15.35,0,0,2.8-4.27,5.3-4.42,0,0-4.92-.74-8.79,2.65,0,0-.78-5.89-.78-7.66s-3.68,2.95-3.68,5.89c0,0-4.65-2.65-7.78-1.33,0,0,3.8,3.53,4.09,5.74,0,0-16.79,.74-29.31,14.47,0,0-13.84,5.83-14.73,12.18s8.98,5.31,11.19,3.84c0,0-6.77,7.51-6.33,10.46,.44,2.95,5.01,1.26,5.01,1.26,0,0-4.57,7.72-3.09,10.37,1.47,2.65,4.12,1.22,4.12,1.22,0,0,2.3,31.03,41.28,31.03h6.48c38.98,0,41.28-31.03,41.28-31.03,0,0,2.65,1.43,4.12-1.22,1.47-2.65-3.09-10.37-3.09-10.37,0,0,4.57,1.68,5.01-1.26,.44-2.95-6.33-10.46-6.33-10.46,2.21,1.47,12.08,2.51,11.19-3.84Z"/><line class="cls-4" x1="351.73" y1="233.93" x2="348.15" y2="245.74"/><line class="cls-4" x1="355.92" y1="234.45" x2="352.45" y2="247.1"/><path class="cls-4" d="M358.28,236.94s.1,5.6-1.63,11.08"/><path class="cls-76" d="M194.55,389.14c-1.14,1.43-2.77,6.05-2.77,6.05,0,0-.82,.09-1.31-.59,.96-1.97,3.51-4.83,4.08-5.46Z"/><path class="cls-73" d="M344.27,244.13s-1.14,3.6-1.14,5.37c0,0-.08-6.48,2.05-10.04v1.32l-.92,3.35Z"/><path class="cls-4" d="M203.53,405.3s-.73-3.6,.41-9.31"/><path class="cls-4" d="M200.33,406.85s-1.27-2.97-.57-6.67"/><path class="cls-4" d="M196.48,406.85s-.53-4.21,.39-6.67"/><path class="cls-4" d="M193.29,403.94s-.4-5.19,1.26-7.71"/><path class="cls-74" d="M218.97,478.47s-6.48,1.93-7.44,4.48h-2.56s3.75-5.17,10-4.48Z"/><path class="cls-75" d="M312.74,478.18s7.18,1.04,7.95,4.78h-1.9s-1.48-3.16-6.05-4.78Z"/></g><g><path class="cls-43" d="M291.27,376.93c-1.46,20.27,4.78,36.95-4.29,56.92-.2,.46-.42,.92-.65,1.39-.35,.71-.73,1.39-1.15,2.04-3.51,5.5-9.41,8.97-15.7,10.1-11.61,2.08-24.55-3.78-26.3-19.48-1.5-13.46,2.24-25.06,6.2-33.14h0c2.26-4.62,4.61-8.09,6.1-10.09,.44-.59,1.4-.26,1.37,.5-.22,4,.12,7.06,.43,8.84h0c.2,1.18,.39,1.81,.39,1.81-.2-2.73,.03-5.43,.53-8.07,1.19-6.13,3.94-11.85,6.67-16.32h0c1.86-3.07,3.7-5.56,5.02-7.22,.65-.81,1.95-.38,2,.65,.09,2.11,.27,4.86,.57,6.48,.24,1.26,.57,1.83,.99,.9,0,0,0-.02,0-.02,.67-1.49,1.37-2.93,2.07-4.31,8.31-16.47,18.03-25.9,23.45-30.28,1.14-.91,2.74,.28,2.2,1.62-3.87,9.55-9.03,25.29-9.92,37.68Z"/><path class="cls-46" d="M286.98,433.85c-.2,.46-.42,.92-.65,1.39-.35,.71-.73,1.39-1.15,2.04-3.51,5.5-9.41,8.97-15.7,10.1,.35-5.43-.1-13.71-4.07-22.95-6.99-16.3-7.74-28.62-7.74-28.62,0,0,.42-3.66,.53-8.07,2-10.33,8.44-19.47,11.68-23.54,.65-.81,1.95-.38,2,.65,.16,3.75,.58,9.52,1.56,7.38,0,0,0-.02,0-.02,.67-1.49,1.37-2.93,2.07-4.31l11.45,65.95Z"/><path class="cls-41" d="M301.19,339.25c-1.61,3.96-3.43,8.97-5.08,14.37-.02,.06-.03,.11-.04,.14,0,.02-.02,.03-.02,.04-2.31,7.59-4.27,15.93-4.78,23.12-1.49,20.75,5.08,37.73-4.94,58.31-.35,.71-.73,1.39-1.15,2.04-.04-8-6.01-17.02-9.07-33.34-4.54-24.26-2.77-31.32-2.66-31.71,0,0,0-.02,0-.02,4.85-10.66,10.38-18.69,15.35-24.54,3.96-4.67,7.56-7.94,10.17-10.05,1.14-.91,2.74,.28,2.2,1.62Z"/><path class="cls-42" d="M301.19,339.25c-1.61,3.96-3.43,8.97-5.08,14.37,.23-.83,1-4.21-1.46-5.44-1.48-.74-3.89-.7-5.83-.51,3.96-4.67,7.56-7.94,10.17-10.05,1.14-.91,2.74,.28,2.2,1.62Z"/><path class="cls-40" d="M272.46,371.34c-.75-.65-1.79-1.47-2.68-1.94-.9-.46-3.12,.81-4.9,2.01,1.86-3.06,3.7-5.55,5.02-7.21,.65-.81,1.95-.38,2,.65,.09,2.11,.27,4.86,.57,6.48Z"/><path class="cls-39" d="M257.29,394.01h0s-1.33-1.29-3.52-1.84c-1.17-.29-2.96,1.16-4.39,2.58,2.26-4.61,4.61-8.08,6.1-10.08,.44-.59,1.4-.26,1.37,.5-.22,4,.12,7.06,.43,8.84Z"/></g></g></g></g></g></svg>