<?xml version="1.0" encoding="UTF-8"?><svg xmlns="http://www.w3.org/2000/svg" xmlns:xlink="http://www.w3.org/1999/xlink" viewBox="0 0 791.93 336.98"><defs><style>.cls-1{fill:url(#linear-gradient);}.cls-2{fill:#9c8ea2;}.cls-3{fill:url(#linear-gradient-84);opacity:.24;}.cls-3,.cls-4,.cls-5,.cls-6,.cls-7,.cls-8,.cls-9,.cls-10,.cls-11,.cls-12,.cls-13,.cls-14{isolation:isolate;}.cls-4{fill:url(#linear-gradient-86);opacity:.66;}.cls-5{fill:url(#linear-gradient-78);opacity:.52;}.cls-15{fill:url(#linear-gradient-49);opacity:.57;}.cls-16{fill:url(#linear-gradient-8);}.cls-17{fill:url(#linear-gradient-9);}.cls-18{fill:url(#linear-gradient-3);}.cls-19{fill:url(#linear-gradient-4);}.cls-20{fill:url(#linear-gradient-2);}.cls-21{fill:url(#linear-gradient-6);}.cls-22{fill:url(#linear-gradient-7);}.cls-23{fill:url(#linear-gradient-5);}.cls-24{stroke:url(#linear-gradient-72);}.cls-24,.cls-25,.cls-26,.cls-27{fill:none;stroke-miterlimit:10;}.cls-25{stroke:url(#linear-gradient-70);}.cls-26{stroke:url(#linear-gradient-71);}.cls-27{stroke:url(#linear-gradient-31);}.cls-6{fill:url(#linear-gradient-33);}.cls-6,.cls-7,.cls-8,.cls-9,.cls-10,.cls-11,.cls-12{opacity:.5;}.cls-6,.cls-7,.cls-8,.cls-9,.cls-10,.cls-11,.cls-12,.cls-13{mix-blend-mode:multiply;}.cls-7{fill:url(#linear-gradient-44);}.cls-8{fill:url(#linear-gradient-47);}.cls-9{fill:url(#linear-gradient-23);}.cls-10{fill:url(#linear-gradient-22);}.cls-11{fill:url(#linear-gradient-17);}.cls-12{fill:url(#linear-gradient-52);}.cls-13{fill:url(#linear-gradient-37);opacity:.77;}.cls-28{fill:url(#linear-gradient-59);}.cls-29{fill:url(#linear-gradient-57);}.cls-30{fill:url(#linear-gradient-58);}.cls-31{fill:url(#linear-gradient-55);}.cls-32{fill:url(#linear-gradient-56);}.cls-33{fill:url(#linear-gradient-53);}.cls-34{fill:url(#linear-gradient-54);}.cls-35{fill:url(#linear-gradient-51);}.cls-36{fill:url(#linear-gradient-50);}.cls-37{fill:url(#linear-gradient-77);}.cls-38{fill:url(#linear-gradient-79);}.cls-39{fill:url(#linear-gradient-74);}.cls-40{fill:url(#linear-gradient-75);}.cls-41{fill:url(#linear-gradient-76);}.cls-42{fill:url(#linear-gradient-73);}.cls-43{fill:url(#linear-gradient-68);}.cls-44{fill:url(#linear-gradient-67);}.cls-45{fill:url(#linear-gradient-69);}.cls-46{fill:url(#linear-gradient-64);}.cls-47{fill:url(#linear-gradient-63);}.cls-48{fill:url(#linear-gradient-66);}.cls-49{fill:url(#linear-gradient-65);}.cls-50{fill:url(#linear-gradient-60);}.cls-51{fill:url(#linear-gradient-62);}.cls-52{fill:url(#linear-gradient-61);}.cls-53{fill:url(#linear-gradient-91);}.cls-54{fill:url(#linear-gradient-95);}.cls-55{fill:url(#linear-gradient-96);}.cls-56{fill:url(#linear-gradient-97);}.cls-57{fill:url(#linear-gradient-94);}.cls-58{fill:url(#linear-gradient-92);}.cls-59{fill:url(#linear-gradient-93);}.cls-60{fill:url(#linear-gradient-90);}.cls-61{fill:url(#linear-gradient-81);}.cls-62{fill:url(#linear-gradient-80);}.cls-63{fill:url(#linear-gradient-88);}.cls-64{fill:url(#linear-gradient-89);}.cls-65{fill:url(#linear-gradient-87);}.cls-66{fill:url(#linear-gradient-85);}.cls-67{fill:url(#linear-gradient-83);}.cls-68{fill:url(#linear-gradient-82);}.cls-69{fill:url(#linear-gradient-41);}.cls-70{fill:url(#linear-gradient-40);}.cls-71{fill:url(#linear-gradient-43);}.cls-72{fill:url(#linear-gradient-42);}.cls-73{fill:url(#linear-gradient-45);}.cls-74{fill:url(#linear-gradient-46);}.cls-75{fill:url(#linear-gradient-48);}.cls-76{fill:url(#linear-gradient-14);}.cls-77{fill:url(#linear-gradient-18);}.cls-78{fill:url(#linear-gradient-20);}.cls-79{fill:url(#linear-gradient-21);}.cls-80{fill:url(#linear-gradient-15);}.cls-81{fill:url(#linear-gradient-19);}.cls-82{fill:url(#linear-gradient-16);}.cls-83{fill:url(#linear-gradient-13);}.cls-84{fill:url(#linear-gradient-12);}.cls-85{fill:url(#linear-gradient-10);}.cls-86{fill:url(#linear-gradient-11);}.cls-87{fill:url(#linear-gradient-27);}.cls-88{fill:url(#linear-gradient-24);}.cls-89{fill:url(#linear-gradient-26);}.cls-90{fill:url(#linear-gradient-38);}.cls-91{fill:url(#linear-gradient-35);}.cls-92{fill:url(#linear-gradient-34);}.cls-93{fill:url(#linear-gradient-39);}.cls-94{fill:url(#linear-gradient-36);}.cls-95{fill:url(#linear-gradient-25);}.cls-96{fill:url(#linear-gradient-28);}.cls-97{fill:url(#linear-gradient-29);}.cls-98{fill:url(#linear-gradient-30);}.cls-99{fill:url(#linear-gradient-32);}</style><linearGradient id="linear-gradient" x1="-249.45" y1="-94.18" x2="-250.51" y2="1.82" gradientTransform="translate(610.08 81.81) rotate(-15.02)" gradientUnits="userSpaceOnUse"><stop offset=".46" stop-color="#ffd33d"/><stop offset="1" stop-color="#f1535b"/></linearGradient><linearGradient id="linear-gradient-2" x1="-250.06" y1="-70.55" x2="-249.61" y2="-2.97" gradientTransform="translate(610.08 81.81) rotate(-15.02)" gradientUnits="userSpaceOnUse"><stop offset=".4" stop-color="#ffd33d"/><stop offset=".49" stop-color="#fdc93f"/><stop offset=".63" stop-color="#fbaf45"/><stop offset=".81" stop-color="#f6854f"/><stop offset="1" stop-color="#f1535b"/></linearGradient><linearGradient id="linear-gradient-3" x1="817.3" y1="116.48" x2="815.68" y2="263.32" gradientTransform="translate(-334.5 -181.32) rotate(9.26)" xlink:href="#linear-gradient"/><linearGradient id="linear-gradient-4" x1="816.37" y1="152.62" x2="817.06" y2="255.99" gradientTransform="translate(-334.5 -181.32) rotate(9.26)" xlink:href="#linear-gradient-2"/><linearGradient id="linear-gradient-5" x1="-1139.71" y1="-3897.45" x2="-1242.52" y2="-3735.73" gradientTransform="translate(2784.97 -3191.3) rotate(-127.33)" xlink:href="#linear-gradient"/><linearGradient id="linear-gradient-6" x1="28.96" y1="26.18" x2="-133.55" y2="82.3" gradientTransform="translate(518.44 -13.85) rotate(-12.1)" gradientUnits="userSpaceOnUse"><stop offset="0" stop-color="#ffd33d"/><stop offset="1" stop-color="#f1535b"/></linearGradient><linearGradient id="linear-gradient-7" x1="308.2" y1="280.91" x2="210.23" y2="314.75" gradientTransform="translate(106.46 -57.97) rotate(-1.01)" xlink:href="#linear-gradient-6"/><linearGradient id="linear-gradient-8" x1="600.74" y1="74.55" x2="538.15" y2="280.58" gradientTransform="matrix(1, 0, 0, 1, 0, 0)" gradientUnits="userSpaceOnUse"><stop offset=".08" stop-color="#fff"/><stop offset=".36" stop-color="#e7f0ff"/><stop offset=".62" stop-color="#a9c9ff"/><stop offset=".73" stop-color="#96bdff"/></linearGradient><linearGradient id="linear-gradient-9" x1="530.24" y1="59.18" x2="511.52" y2="339.94" gradientTransform="translate(109.35 -209.71) rotate(25.14)" gradientUnits="userSpaceOnUse"><stop offset="0" stop-color="#8e3bcb"/><stop offset=".9" stop-color="#0f1536"/></linearGradient><linearGradient id="linear-gradient-10" x1="544.4" y1="85.37" x2="506.6" y2="189.93" gradientTransform="matrix(1, 0, 0, 1, 0, 0)" gradientUnits="userSpaceOnUse"><stop offset=".06" stop-color="#fff"/><stop offset=".25" stop-color="#f7fafd"/><stop offset=".53" stop-color="#e3ecfa"/><stop offset=".87" stop-color="#c1d5f6"/><stop offset="1" stop-color="#b3ccf4"/></linearGradient><linearGradient id="linear-gradient-11" x1="82.91" y1="-4276.86" x2="87.95" y2="-4286.25" gradientTransform="translate(284.66 -4139.98) rotate(-2.18) scale(1 -1)" gradientUnits="userSpaceOnUse"><stop offset="0" stop-color="#ffcf3e"/><stop offset="1" stop-color="#fd9668"/></linearGradient><linearGradient id="linear-gradient-12" x1="81.05" y1="-4279.37" x2="88.79" y2="-4290.95" gradientTransform="translate(284.66 -4139.98) rotate(-2.18) scale(1 -1)" gradientUnits="userSpaceOnUse"><stop offset="0" stop-color="#ffcf3e"/><stop offset=".31" stop-color="#fec347"/><stop offset="1" stop-color="#fc7481"/></linearGradient><linearGradient id="linear-gradient-13" x1="76.5" y1="-4300.2" x2="80.99" y2="-4284.66" gradientTransform="translate(284.66 -4139.98) rotate(-2.18) scale(1 -1)" gradientUnits="userSpaceOnUse"><stop offset="0" stop-color="#8e3bcb"/><stop offset=".5" stop-color="#d767b1"/><stop offset="1" stop-color="#f2535b"/></linearGradient><linearGradient id="linear-gradient-14" x1="75.64" y1="-4299.15" x2="80.52" y2="-4275.58" gradientTransform="translate(284.66 -4139.98) rotate(-2.18) scale(1 -1)" gradientUnits="userSpaceOnUse"><stop offset="0" stop-color="#e8c499"/><stop offset="1" stop-color="#faebd8"/></linearGradient><linearGradient id="linear-gradient-15" x1="63.97" y1="-4293.19" x2="81.59" y2="-4272.09" gradientTransform="translate(284.66 -4139.98) rotate(-2.18) scale(1 -1)" gradientUnits="userSpaceOnUse"><stop offset="0" stop-color="#cc61b9"/><stop offset=".3" stop-color="#f2535b"/><stop offset=".46" stop-color="#f35f58"/><stop offset=".61" stop-color="#f57553"/><stop offset="1" stop-color="#ffd33e"/></linearGradient><linearGradient id="linear-gradient-16" x1="570.92" y1="35.23" x2="535.49" y2="210.41" gradientTransform="matrix(1, 0, 0, 1, 0, 0)" gradientUnits="userSpaceOnUse"><stop offset=".08" stop-color="#fff"/><stop offset=".32" stop-color="#e7f0ff"/><stop offset=".62" stop-color="#a9c9ff"/><stop offset=".73" stop-color="#96bdff"/></linearGradient><linearGradient id="linear-gradient-17" x1="605.59" y1="104.63" x2="578.9" y2="194.17" gradientTransform="matrix(1, 0, 0, 1, 0, 0)" gradientUnits="userSpaceOnUse"><stop offset=".06" stop-color="#fff"/><stop offset=".24" stop-color="#f8fafe"/><stop offset=".5" stop-color="#e3ecfb"/><stop offset=".82" stop-color="#c2d6f6"/><stop offset=".95" stop-color="#b3ccf4"/></linearGradient><linearGradient id="linear-gradient-18" x1="835.05" y1="263.28" x2="589.98" y2="223.34" gradientTransform="matrix(1, 0, 0, 1, 0, 0)" xlink:href="#linear-gradient-13"/><linearGradient id="linear-gradient-19" x1="720.7" y1="242.24" x2="689.17" y2="267.87" gradientTransform="matrix(1, 0, 0, 1, 0, 0)" gradientUnits="userSpaceOnUse"><stop offset=".04" stop-color="#ffd33d"/><stop offset=".05" stop-color="#ffd23d"/><stop offset=".25" stop-color="#f99b4a"/><stop offset=".43" stop-color="#f57453"/><stop offset=".57" stop-color="#f25c59"/><stop offset=".65" stop-color="#f1535b"/></linearGradient><linearGradient id="linear-gradient-20" x1="581.53" y1="389.29" x2="829.55" y2="90.03" gradientTransform="matrix(1, 0, 0, 1, 0, 0)" xlink:href="#linear-gradient-13"/><linearGradient id="linear-gradient-21" x1="653.51" y1="-21.93" x2="688.05" y2="673.42" xlink:href="#linear-gradient-16"/><linearGradient id="linear-gradient-22" x1="698.17" y1="130.51" x2="771.47" y2="185.11" xlink:href="#linear-gradient-17"/><linearGradient id="linear-gradient-23" x1="645.05" y1="152.87" x2="654.93" y2="263.54" xlink:href="#linear-gradient-17"/><linearGradient id="linear-gradient-24" x1="2211.27" y1="-3352.33" x2="2215.03" y2="-3359.34" gradientTransform="translate(1989.89 -3614.07) rotate(52.32) scale(1 -1)" xlink:href="#linear-gradient-11"/><linearGradient id="linear-gradient-25" x1="2209.88" y1="-3354.2" x2="2215.66" y2="-3362.85" gradientTransform="translate(1989.89 -3614.07) rotate(52.32) scale(1 -1)" xlink:href="#linear-gradient-12"/><linearGradient id="linear-gradient-26" x1="2206.48" y1="-3369.76" x2="2209.84" y2="-3358.15" gradientTransform="translate(1989.89 -3614.07) rotate(52.32) scale(1 -1)" xlink:href="#linear-gradient-13"/><linearGradient id="linear-gradient-27" x1="2205.84" y1="-3368.98" x2="2209.49" y2="-3351.38" gradientTransform="translate(1989.89 -3614.07) rotate(52.32) scale(1 -1)" xlink:href="#linear-gradient-14"/><linearGradient id="linear-gradient-28" x1="2197.13" y1="-3364.53" x2="2210.28" y2="-3348.77" gradientTransform="translate(1989.89 -3614.07) rotate(52.32) scale(1 -1)" xlink:href="#linear-gradient-15"/><linearGradient id="linear-gradient-29" x1="620.27" y1="206.62" x2="714.09" y2="314.52" xlink:href="#linear-gradient-16"/><linearGradient id="linear-gradient-30" x1="567.93" y1="78.61" x2="630.97" y2="83.61" xlink:href="#linear-gradient-16"/><linearGradient id="linear-gradient-31" x1="657.38" y1="139.1" x2="627.02" y2="213.99" gradientTransform="matrix(1, 0, 0, 1, 0, 0)" gradientUnits="userSpaceOnUse"><stop offset=".13" stop-color="#381a46"/><stop offset=".49" stop-color="#1b0c22"/><stop offset=".81" stop-color="#070309"/><stop offset="1" stop-color="#000"/></linearGradient><linearGradient id="linear-gradient-32" x1="502.45" y1="-14.43" x2="536.99" y2="680.93" xlink:href="#linear-gradient-16"/><linearGradient id="linear-gradient-33" x1="531.43" y1="180.9" x2="540.92" y2="287.27" xlink:href="#linear-gradient-17"/><linearGradient id="linear-gradient-34" x1="576.05" y1="182.69" x2="573.99" y2="216.89" gradientTransform="translate(1254.97 -2.75) rotate(-174.03) scale(1 -1)" gradientUnits="userSpaceOnUse"><stop offset=".06" stop-color="#fff"/><stop offset=".24" stop-color="#e7f0ff"/><stop offset=".62" stop-color="#a9c9ff"/><stop offset=".73" stop-color="#96bdff"/></linearGradient><linearGradient id="linear-gradient-35" x1="594.28" y1="161.09" x2="521.33" y2="286.87" gradientTransform="translate(1254.97 -2.75) rotate(-174.03) scale(1 -1)" gradientUnits="userSpaceOnUse"><stop offset=".06" stop-color="#fff"/><stop offset=".33" stop-color="#e5eefb"/><stop offset=".77" stop-color="#c1d5f6"/><stop offset="1" stop-color="#b3ccf4"/></linearGradient><linearGradient id="linear-gradient-36" x1="629.69" y1="69.47" x2="454.51" y2="371.49" gradientTransform="translate(1254.97 -2.75) rotate(-174.03) scale(1 -1)" gradientUnits="userSpaceOnUse"><stop offset=".06" stop-color="#fff"/><stop offset=".34" stop-color="#ccdfff"/><stop offset=".6" stop-color="#a5c6ff"/><stop offset=".73" stop-color="#96bdff"/></linearGradient><linearGradient id="linear-gradient-37" x1="591.98" y1="151.27" x2="509.66" y2="225.65" gradientTransform="translate(1254.97 -2.75) rotate(-174.03) scale(1 -1)" xlink:href="#linear-gradient-17"/><linearGradient id="linear-gradient-38" x1="664.34" y1="81.3" x2="450.09" y2="318.04" gradientTransform="translate(1254.97 -2.75) rotate(-174.03) scale(1 -1)" xlink:href="#linear-gradient-31"/><linearGradient id="linear-gradient-39" x1="620.95" y1="122.49" x2="553.89" y2="207.68" gradientTransform="translate(1254.97 -2.75) rotate(-174.03) scale(1 -1)" xlink:href="#linear-gradient-31"/><linearGradient id="linear-gradient-40" x1="584.46" y1="62.25" x2="566.36" y2="148.36" xlink:href="#linear-gradient-36"/><linearGradient id="linear-gradient-41" x1="564.38" y1="70.67" x2="565.72" y2="168.13" xlink:href="#linear-gradient-36"/><linearGradient id="linear-gradient-42" x1="571.86" y1="118.3" x2="402.08" y2="229.78" xlink:href="#linear-gradient-36"/><linearGradient id="linear-gradient-43" x1="546.72" y1="111.74" x2="487.19" y2="189.41" xlink:href="#linear-gradient-36"/><linearGradient id="linear-gradient-44" x1="542.1" y1="129.82" x2="486.78" y2="179.8" gradientTransform="translate(1254.97 -2.75) rotate(-174.03) scale(1 -1)" xlink:href="#linear-gradient-17"/><linearGradient id="linear-gradient-45" x1="491.53" y1="266.21" x2="480.84" y2="278.03" xlink:href="#linear-gradient-31"/><linearGradient id="linear-gradient-46" x1="598.8" y1="217.11" x2="500.01" y2="267.54" xlink:href="#linear-gradient-16"/><linearGradient id="linear-gradient-47" x1="540.61" y1="201.17" x2="522.79" y2="238.72" xlink:href="#linear-gradient-17"/><linearGradient id="linear-gradient-48" x1="527.69" y1="-15.69" x2="562.22" y2="679.67" xlink:href="#linear-gradient-16"/><linearGradient id="linear-gradient-49" x1="514.58" y1="233.99" x2="533.17" y2="451.21" xlink:href="#linear-gradient-16"/><linearGradient id="linear-gradient-50" x1="625.6" y1="161.76" x2="543.79" y2="348.61" xlink:href="#linear-gradient-16"/><linearGradient id="linear-gradient-51" x1="533.5" y1="308.09" x2="509.18" y2="334.95" xlink:href="#linear-gradient-31"/><linearGradient id="linear-gradient-52" x1="582.75" y1="221.17" x2="564.93" y2="258.72" xlink:href="#linear-gradient-17"/><linearGradient id="linear-gradient-53" x1="680.03" y1="127.85" x2="735.4" y2="195.94" xlink:href="#linear-gradient-16"/><linearGradient id="linear-gradient-54" x1="666.72" y1="200.95" x2="606.71" y2="259.42" gradientTransform="matrix(1, 0, 0, 1, 0, 0)" gradientUnits="userSpaceOnUse"><stop offset="0" stop-color="#ffd33d"/><stop offset="0" stop-color="#ffd23d"/><stop offset=".2" stop-color="#f99b4a"/><stop offset=".37" stop-color="#f57453"/><stop offset=".5" stop-color="#f25c59"/><stop offset=".58" stop-color="#f1535b"/></linearGradient><linearGradient id="linear-gradient-55" x1="682.67" y1="174.62" x2="620.1" y2="250.02" xlink:href="#linear-gradient-54"/><linearGradient id="linear-gradient-56" x1="604.31" y1="353.09" x2="654.47" y2="-3.37" gradientTransform="matrix(1, 0, 0, 1, 0, 0)" gradientUnits="userSpaceOnUse"><stop offset=".35" stop-color="#8e3bcb"/><stop offset=".54" stop-color="#d767b1"/><stop offset="1" stop-color="#f2535b"/></linearGradient><linearGradient id="linear-gradient-57" x1="583.66" y1="310.21" x2="678.35" y2="61.81" gradientTransform="matrix(1, 0, 0, 1, 0, 0)" gradientUnits="userSpaceOnUse"><stop offset=".24" stop-color="#8e3bcb"/><stop offset=".54" stop-color="#d767b1"/><stop offset="1" stop-color="#f2535b"/></linearGradient><linearGradient id="linear-gradient-58" x1="790.14" y1="12.1" x2="745.16" y2="206.7" xlink:href="#linear-gradient-16"/><linearGradient id="linear-gradient-59" x1="764.05" y1="174.53" x2="666.74" y2="306.91" xlink:href="#linear-gradient-16"/><linearGradient id="linear-gradient-60" x1="597.18" y1="264.74" x2="655.32" y2="154.04" gradientTransform="matrix(1, 0, 0, 1, 0, 0)" gradientUnits="userSpaceOnUse"><stop offset=".24" stop-color="#8e3bcb"/><stop offset=".44" stop-color="#d767b1"/><stop offset=".52" stop-color="#dd629c"/><stop offset=".64" stop-color="#e65b7f"/><stop offset=".76" stop-color="#ec566b"/><stop offset=".88" stop-color="#f0535f"/><stop offset="1" stop-color="#f2535b"/></linearGradient><linearGradient id="linear-gradient-61" x1="630.27" y1="184.31" x2="590.58" y2="210.61" gradientTransform="translate(760.97 -435.88) rotate(85.51)" xlink:href="#linear-gradient-16"/><linearGradient id="linear-gradient-62" x1="1692.02" y1="387.5" x2="1716.46" y2="323.38" gradientTransform="translate(1409.77 -1510.78) rotate(105.16) scale(1.12 .89) skewX(-8.15)" xlink:href="#linear-gradient-54"/><linearGradient id="linear-gradient-63" x1="652.36" y1="219.86" x2="668.56" y2="268.07" xlink:href="#linear-gradient-56"/><linearGradient id="linear-gradient-64" x1="661.9" y1="244.05" x2="672.72" y2="244.05" xlink:href="#linear-gradient-31"/><linearGradient id="linear-gradient-65" x1="671.77" y1="259.85" x2="682.2" y2="259.85" xlink:href="#linear-gradient-31"/><linearGradient id="linear-gradient-66" x1="779.91" y1="163.03" x2="691.09" y2="275.26" gradientTransform="matrix(1, 0, 0, 1, 0, 0)" gradientUnits="userSpaceOnUse"><stop offset=".08" stop-color="#fff"/><stop offset=".41" stop-color="#e7f0ff"/><stop offset=".7" stop-color="#a9c9ff"/></linearGradient><linearGradient id="linear-gradient-67" x1="702.64" y1="247.57" x2="690.01" y2="263.52" xlink:href="#linear-gradient-31"/><linearGradient id="linear-gradient-68" x1="706.8" y1="252.14" x2="694.17" y2="268.1" xlink:href="#linear-gradient-31"/><linearGradient id="linear-gradient-69" x1="710.95" y1="256.1" x2="698.33" y2="272.05" xlink:href="#linear-gradient-31"/><linearGradient id="linear-gradient-70" x1="768.44" y1="88.69" x2="771.8" y2="88.69" xlink:href="#linear-gradient-31"/><linearGradient id="linear-gradient-71" x1="776.03" y1="91.84" x2="780.95" y2="91.84" xlink:href="#linear-gradient-31"/><linearGradient id="linear-gradient-72" x1="781.18" y1="99.63" x2="784.95" y2="99.63" xlink:href="#linear-gradient-31"/><linearGradient id="linear-gradient-73" x1="231.7" y1="118.36" x2="133.74" y2="152.19" gradientTransform="translate(106.46 -57.97) rotate(-1.01)" xlink:href="#linear-gradient-6"/><linearGradient id="linear-gradient-74" x1="201.82" y1="-4145.25" x2="286.49" y2="-4445.21" gradientTransform="translate(-8.36 -4150.05) scale(1 -1)" gradientUnits="userSpaceOnUse"><stop offset=".13" stop-color="#381a46"/><stop offset=".49" stop-color="#1b0c22"/><stop offset=".81" stop-color="#070309"/><stop offset="1" stop-color="#000"/></linearGradient><linearGradient id="linear-gradient-75" x1="231.99" y1="-4150.44" x2="199.88" y2="-4250.21" gradientTransform="translate(-8.36 -4150.05) scale(1 -1)" gradientUnits="userSpaceOnUse"><stop offset="0" stop-color="#8e3bcb"/><stop offset=".9" stop-color="#0f1536"/></linearGradient><linearGradient id="linear-gradient-76" x1="257.82" y1="-4153.92" x2="232.88" y2="-4197.63" xlink:href="#linear-gradient-75"/><linearGradient id="linear-gradient-77" x1="317.26" y1="-4356.11" x2="39.58" y2="-4409.04" xlink:href="#linear-gradient-75"/><linearGradient id="linear-gradient-78" x1="200.59" y1="-4066.75" x2="165.45" y2="-4518.12" xlink:href="#linear-gradient-75"/><linearGradient id="linear-gradient-79" x1="237.7" y1="-4310.28" x2="45.82" y2="-4593.73" xlink:href="#linear-gradient-75"/><linearGradient id="linear-gradient-80" x1="236.94" y1="-4309.77" x2="45.06" y2="-4593.23" xlink:href="#linear-gradient-75"/><linearGradient id="linear-gradient-81" x1="224.68" y1="-4301.46" x2="32.79" y2="-4584.91" xlink:href="#linear-gradient-75"/><linearGradient id="linear-gradient-82" x1="249.89" y1="-4318.52" x2="58.01" y2="-4601.98" xlink:href="#linear-gradient-75"/><linearGradient id="linear-gradient-83" x1="144.55" y1="-4586.06" x2="212.32" y2="-4129.24" gradientTransform="translate(-8.36 -4150.05) scale(1 -1)" gradientUnits="userSpaceOnUse"><stop offset="0" stop-color="#8e3bcb"/><stop offset=".5" stop-color="#d767b1"/><stop offset="1" stop-color="#f2535b"/></linearGradient><linearGradient id="linear-gradient-84" x1="209.17" y1="-4334.55" x2="182.42" y2="-3901.41" xlink:href="#linear-gradient-75"/><linearGradient id="linear-gradient-85" x1="67.75" y1="-4193" x2="48.74" y2="-4412.12" xlink:href="#linear-gradient-75"/><linearGradient id="linear-gradient-86" x1="69.17" y1="-4132.68" x2="49.54" y2="-4384.9" xlink:href="#linear-gradient-75"/><linearGradient id="linear-gradient-87" x1="181.09" y1="-4258.46" x2="122.18" y2="-4336.02" gradientTransform="translate(-8.36 -4150.05) scale(1 -1)" gradientUnits="userSpaceOnUse"><stop offset="0" stop-color="#8e3bcb"/><stop offset=".9" stop-color="#07030a"/></linearGradient><linearGradient id="linear-gradient-88" x1="194.44" y1="-4242.48" x2="67.16" y2="-4408.07" gradientTransform="translate(-8.36 -4150.05) scale(1 -1)" gradientUnits="userSpaceOnUse"><stop offset=".06" stop-color="#fff"/><stop offset=".25" stop-color="#f7fafd"/><stop offset=".53" stop-color="#e3ecfa"/><stop offset=".87" stop-color="#c1d5f6"/><stop offset="1" stop-color="#b3ccf4"/></linearGradient><linearGradient id="linear-gradient-89" x1="163.21" y1="-4405.6" x2="60.33" y2="-4226.36" xlink:href="#linear-gradient-83"/><linearGradient id="linear-gradient-90" x1="107.58" y1="-4215.25" x2="-84.3" y2="-4498.7" xlink:href="#linear-gradient-75"/><linearGradient id="linear-gradient-91" x1="106.81" y1="-4214.75" x2="-85.07" y2="-4498.2" xlink:href="#linear-gradient-75"/><linearGradient id="linear-gradient-92" x1="94.55" y1="-4206.43" x2="-97.33" y2="-4489.89" xlink:href="#linear-gradient-75"/><linearGradient id="linear-gradient-93" x1="119.76" y1="-4223.5" x2="-72.12" y2="-4506.96" xlink:href="#linear-gradient-75"/><linearGradient id="linear-gradient-94" x1="207.24" y1="-4200.17" x2="268.15" y2="-4166.19" gradientTransform="translate(-8.36 -4150.05) scale(1 -1)" gradientUnits="userSpaceOnUse"><stop offset="0" stop-color="#cc61b9"/><stop offset=".3" stop-color="#f2535b"/><stop offset=".46" stop-color="#f35f58"/><stop offset=".61" stop-color="#f57553"/><stop offset="1" stop-color="#ffd33e"/></linearGradient><linearGradient id="linear-gradient-95" x1="260.36" y1="-4138" x2="234.5" y2="-4206.47" gradientTransform="translate(-8.36 -4150.05) scale(1 -1)" gradientUnits="userSpaceOnUse"><stop offset=".09" stop-color="#ffd33d"/><stop offset="1" stop-color="#f1535b"/></linearGradient><linearGradient id="linear-gradient-96" x1="127.84" y1="-4227.11" x2="293.12" y2="-4259.36" xlink:href="#linear-gradient-88"/><linearGradient id="linear-gradient-97" x1="66.74" y1="-4300.74" x2="295.77" y2="-4449.18" xlink:href="#linear-gradient-83"/></defs><g class="cls-14"><g id="Layer_2"><g id="Layer_1-2"><g><g><path class="cls-1" d="M379.02,104.49l5.95,22.18c.46,1.73-.56,3.51-2.3,3.98l-34.59,9.28c-1.73,.46-3.51-.56-3.97-2.29l-5.95-22.18c-.27-1.02-.03-2.06,.58-2.83,.42-.55,1.01-.95,1.71-1.14l34.59-9.28c1.06-.28,2.13-.02,2.91,.62,.51,.42,.89,.98,1.08,1.67Z"/><path class="cls-20" d="M377.94,102.82l-13.6,19.74c-.98,1.42-2.86,1.89-4.38,1.09l-21.23-11.04c.42-.55,1.01-.95,1.71-1.14l34.59-9.28c1.06-.28,2.13-.02,2.91,.62Z"/></g><g><path class="cls-18" d="M470.39,155.02l-5.65,34.67c-.44,2.7-2.99,4.54-5.71,4.1l-54.07-8.81c-2.7-.44-4.54-2.99-4.1-5.69l5.65-34.67c.26-1.59,1.26-2.9,2.59-3.58,.93-.5,2-.69,3.11-.51l54.07,8.81c1.65,.27,2.98,1.31,3.66,2.7,.45,.9,.63,1.93,.45,3Z"/><path class="cls-19" d="M469.94,152.02l-31.38,18.98c-2.25,1.36-5.17,.83-6.8-1.23l-22.66-28.74c.93-.5,2-.69,3.11-.51l54.07,8.81c1.65,.27,2.98,1.31,3.66,2.7Z"/></g><path class="cls-23" d="M452.67,84.58l1.08-7.1c.23-.91-.23-1.86-.88-2.58l-5.3-4.94c-1.8-1.7-.89-4.8,1.57-5.17l7.09-1.15c1.01-.17,1.86-.79,2.22-1.66l3.01-6.48c.98-2.25,4.18-2.29,5.3-.06l3.27,6.38s30.86-8.41,62.48,16.29c0,0-41-12.18-57.11-1.06l1.31,7c.49,2.49-2.06,4.35-4.28,3.24l-6.41-3.27c-.85-.49-1.96-.49-2.78,0l-6.28,3.43c-2.09,1.14-4.71-.62-4.28-2.87Z"/><path class="cls-21" d="M534.98,.95l3.91,4.67c.48,.71,1.35,1.01,2.16,.99l6.05-.49c2.08-.12,3.54,2.16,2.44,3.85l-3.25,5.23c-.49,.75-.48,1.56-.15,2.3l2.34,5.65c.9,1.91-.94,3.92-3,3.39l-5.98-1.47c-.84-.14-1.61,.02-2.32,.5l-4.63,4.07c-1.66,1.33-4.12,.4-4.25-1.68l-.33-6.08c-.01-.81-.52-1.67-1.24-2l-5.2-3.09c-1.85-1.06-1.6-3.7,.31-4.6l5.68-2.19c.74-.32,1.42-.95,1.56-1.79l1.32-5.95c.62-2.4,3.25-2.96,4.58-1.3Z"/><path class="cls-22" d="M409.9,212.67l1.77,3.21c.2,.47,.68,.75,1.16,.84l3.63,.41c1.24,.17,1.84,1.69,1,2.56l-2.53,2.72c-.37,.39-.46,.87-.36,1.34l.73,3.61c.31,1.23-1.01,2.21-2.17,1.66l-3.37-1.56c-.48-.18-.96-.17-1.43,.03l-3.21,1.87c-1.13,.59-2.49-.24-2.32-1.49l.51-3.64c.09-.48-.11-1.05-.5-1.33l-2.72-2.43c-.97-.84-.52-2.38,.72-2.68l3.62-.64c.48-.1,.95-.4,1.13-.88l1.47-3.37c.64-1.35,2.27-1.38,2.86-.24Z"/><g><path class="cls-16" d="M626.52,166.55c-4.49,14.48-14.83,27.75-14.83,27.75-12.32,0-14.67-3.01-24.63-13.51-9.19-9.71-19.77-15.21-25.58-17.74-2.72-1.17-4.38-1.71-4.38-1.71,0,0-1.81-6.03-4.14-12.26-2.4-6.41-5.34-13-7.43-13.39-4.89-.92-14.11,9.14-17.11,3.61-2.17-4.04,4.85-9.22,8.39-10.48,11.28-4.02,22.51-2.41,32.86,1.17,16.75,5.82,31.2,16.85,39.83,17.64,11.24,1.03,17.29-2.37,17.29-2.37,2.77,6.37,1.98,13.99-.28,21.29Z"/><rect class="cls-17" x="502.42" y="102.28" width="44.83" height="76.03" rx="4.19" ry="4.19" transform="translate(-9.88 236.3) rotate(-25.14)"/><path class="cls-85" d="M553.62,164.85l-28.3,13.28c-1.93,.92-4.25,.08-5.16-1.87l-26.32-56.07c-.91-1.95-.08-4.25,1.87-5.17l6.5-3.06c.41-.19,.89-.14,1.26,.13l1.89,1.43c.19,.11,.4,.11,.59,.03l9.9-4.66c.2-.09,.33-.29,.36-.51l.23-2.42c.04-.43,.3-.81,.7-.99l6.88-3.23c1.93-.91,4.25-.08,5.16,1.87l26.32,56.08c.92,1.95,.08,4.25-1.87,5.16Z"/><g><path class="cls-86" d="M533.3,141.48s.09-.07,.18-.1c.07-.02,.14-.04,.21-.06,.03,0,.06-.04,.06-.07,0-.03-.02-.06-.05-.08-.06-.02-.12-.04-.18-.07-.17-.07-.2-.14-.13-.3,1.05-2.55,.84-5.82-.29-7.83,1.25,2.55,.83,5.73-.13,7.66-.08,.16-.17,.19-.34,.13l-.18-.07s-.07,0-.09,.02c-.02,.03-.02,.06,0,.09l.1,.16c.11,.17,.11,.25-.01,.41-.04,.05-.08,.1-.13,.16-.02,.03-.02,.06,0,.09,.02,.03,.05,.04,.09,.03,.07-.02,.14-.04,.21-.06,.17-.05,.27,0,.37,.16l.1,.16s.05,.04,.09,.03c.03,0,.06-.04,.06-.07v-.22c.02-.09,.03-.15,.07-.19Zm-1.02-3.21s-.08,.04-.12,.09l-.1,.13s-.04,.03-.06,.02c-.02,0-.04-.03-.04-.06,0-.05,0-.09,0-.14,0-.13-.03-.2-.15-.25l-.15-.05s-.04-.03-.04-.06c0-.02,.02-.05,.04-.05l.14-.04c.14-.04,.18-.09,.18-.24v-.14s.02-.05,.05-.05c.02,0,.05,0,.06,.02l.08,.11c.08,.12,.14,.15,.28,.11,.05-.01,.09-.03,.14-.04,.02,0,.05,0,.06,.02,.01,.02,.01,.05,0,.07l-.1,.12c-.08,.1-.07,.18,0,.29l.08,.11s.01,.05,0,.07c-.02,.02-.04,.03-.06,.02l-.15-.06c-.06-.02-.11-.03-.15-.02Zm1.67-6.23s-.05,.02-.07,.05l-.07,.07s-.03,.01-.04,0c-.01,0-.02-.02-.02-.04v-.08c.02-.08,0-.12-.07-.16l-.09-.04s-.02-.02-.02-.04c0-.02,.01-.03,.03-.03l.09-.02c.09-.02,.11-.05,.12-.14v-.08s.02-.03,.04-.03c.01,0,.03,0,.04,.02l.04,.07c.04,.08,.08,.1,.17,.08l.09-.02s.03,0,.04,.02c0,.01,0,.03,0,.04l-.07,.07c-.05,.06-.05,.11-.01,.17l.04,.07s0,.03,0,.04c-.01,.01-.03,.01-.04,0l-.09-.04s-.06-.02-.09-.02Zm1.83,3.53c.1-2.37-1.02-5.01-3.47-6.66,2.38,1.48,3.78,3.76,3.97,6.63,.02,.26,.06,.32,.37,.3,.09,0,.18,0,.27-.01,.05,0,.09,.03,.1,.07,.02,.04,0,.09-.03,.12-.08,.06-.16,.12-.24,.18-.19,.15-.21,.3-.12,.53,.03,.08,.06,.16,.09,.24,.02,.04,0,.09-.03,.12-.04,.03-.09,.03-.12,0l-.25-.17c-.1-.07-.18-.1-.26-.1-.08,0-.16,.04-.25,.12-.08,.06-.16,.12-.24,.19-.04,.03-.09,.03-.13,0-.04-.03-.06-.07-.04-.12l.07-.25c.07-.23,.04-.38-.16-.51l-.25-.17s-.06-.07-.04-.12c.01-.04,.05-.08,.1-.08h.27c.25-.02,.38-.08,.39-.33Z"/><path class="cls-84" d="M525.93,145.88c4.47,2.32,9.24-.84,9.87-5.01,.11-.73,.11-1.29,.08-2.02-.02-.54,.21-.48,.53-.15,.46,.47,.95,1.4,.97,1.55,.76-1.86,.65-5.13-.53-7.7-.09-.19,0-.28,.18-.17,.23,.14,.52,.38,.72,.55-.31-1.57-1.13-3.68-2.37-5.06-.13-.14,.02-.31,.19-.19,2.07,1.77,3.69,4.11,4.57,6.89,.17,.54,.31,1.09,.42,1.64v.02c.26,2.52-1.61,10.86-8.57,11.25-.84,.05-3.74,1.23-6.06-1.6Z"/><path class="cls-83" d="M524.91,134.38c-3.11,2.42-2.23,6.69,1.74,7.73,.6,.16,1.18,.26,1.65,.49,.99,.48,1.18,1.67,.29,2.34-.68,.51-1.95,.94-2.66,.94,1.82,1.55,4.65,1.66,6.98,.95,4.3-1.31,7.84-5.78,7.65-10.6v-.02c1.12,5.57-1.02,11.2-5.29,14.68l-.03,.02c-.08,.07-.17,.13-.25,.2l-.02,.02c-.09,.07-.17,.13-.26,.2h-.02c-.09,.08-.18,.14-.27,.21h-.01c-.09,.07-.18,.14-.28,.2h-.01c-.78,.53-1.62,.98-2.51,1.36h0c-.46,.19-.93,.37-1.41,.52-6.42,2.03-13.19-.38-16.95-5.51,.41,.3,3.49,1.61,4.77,.89,.61-.5,6.29,1.75,5.45,1.12-1.91-1.42-7.37-11.5,1.29-15.92,.32-.11,.44-.05,.15,.18Z"/><path class="cls-76" d="M518.21,135.05c3.17-3.16,8.92-3.4,11.42-5.93-.07,3.07-3.34,4.22-5.52,5.8-3.67,2.67-3.97,7.35-1.81,10.61,2.25,3.39,6.98,5.21,12.8,2.25-.92,1.36-2.69,2.52-4.69,3.19-2.04,.68-4.32,.86-6.14,.47-7.26-1.56-12.19-10.26-6.05-16.39Z"/><path class="cls-80" d="M517.64,140.57c.14-.69-1.22,1.87-1.29,.58-.16-3.04,2.21-5.9,4.63-7.48,1.1-.72,2.33-1.29,3.61-1.79,1.85-.73,3.67-1.32,4.69-2.33,.78-.77,1.03-2.02,.38-2.94-.23-.33-.55-.32-1.1-.17-4.75,1.29-6-2.75-11.62,.23-1.28-.43-2.08,.46-1.55,1.12l.04,.05h0c-4.36,3.86-6.28,10.03-4.4,15.91,.11,.34,.23,.68,.36,1.01,.02,.04,.03,.08,.05,.12,.31,.75,.67,1.46,1.07,2.13l.07,.11c.03,.05,.07,.11,.1,.16,.05,.07,.09,.14,.14,.22l.04,.06c.06,.09,.12,.18,.19,.27h0c.06,.09,.11,.17,.17,.25,1.8,2.41,6.36,4.03,9.02,2.2,1.07-.74,.8-1.99-.19-2.61-.27-.17-.58-.32-.88-.46-2.93-1.41-4.01-4.32-3.54-6.64Z"/></g><path class="cls-82" d="M561.48,163.05c-1.21-.61-2.17-1.83-2.17-1.83,0,0-9.67-24.76-13.79-25.52-4.89-.92-14.11,9.14-17.11,3.61-2.17-4.04,4.98-8.89,8.39-10.48,10.9-5.08,22.51-2.41,32.86,1.17,2.02,7.21,3.97,21.73-8.19,33.05Z"/><path class="cls-11" d="M626.52,166.55c-4.49,14.48-14.83,27.75-14.83,27.75-12.32,0-14.67-3.01-24.63-13.51-9.19-9.71-19.77-15.21-25.58-17.74-2.72-1.17-4.38-1.71-4.38-1.71,0,0-1.81-6.03-4.14-12.26,7.75,7.99,25.22,17.26,38.66,25.16,16.09,9.47,33.92-16.48,33.92-16.48l.99,8.78Z"/><path class="cls-77" d="M746.86,226.22c-9.86,12.74-43.92,56.14-56.63,64.74-.69,.47-1.32,.83-1.87,1.08-9.98,4.53-19,.48-25.46-7.09-1.73-2.01-3.26-4.28-4.6-6.69-2.77-5.04,7.42-21.71,21.47-39.21,18-22.38,42.34-46.08,54.01-48.45,0,0-3.05,3.32-.28,7.35,.73,1.05,4.27,5.04,5.32,6.19,3.4,3.71,7.85,9.09,9.45,14.36,.8,2.65,.27,5.52-1.43,7.71Z"/><path class="cls-81" d="M695.15,245.5l21.7,25.64c2.53,1.71,5.98,1.2,7.91-1.16,1.92-2.35,1.74-5.82-.42-7.96-8.9-10.75-17.79-21.5-26.69-32.24l-2.5,15.72Z"/><path class="cls-78" d="M704.2,227.99s-29.89,43.7-30.4,53.89c-.27,5.32,7.61,8.47,16.44,8.5-.69,.47-1.32,.83-1.87,1.08-9.98,4.53-19,.48-25.46-7.09-1.73-2.01-3.26-4.28-4.6-6.69-2.77-5.04,7.42-21.71,21.47-39.21l24.41-10.48Z"/><path class="cls-79" d="M784.52,109.76c-3.36,4.41-5.46,8.82-6.53,14.63-.16,.89-.64,2.92-1.52,5.81-.35,1.12-.75,2.38-1.21,3.76-5.87,17.19-21.95,52.1-56.94,70.19-1.67,.87-3.38,1.69-5.14,2.48,0,0-5.49,29.03-26.96,56.16-2.88,3.61-6.02,7.19-9.47,10.66-14.68,14.76-34.93,27.59-62.68,32.88-9.39,1.8-19.62,2.73-30.8,2.58l-.03-.05-50.06-87s19.89-18.3,56.84-29.47c.53-.16,1.07-.33,1.6-.52,5.86-2.01,11.23-5.18,15.76-9.33,2.13-1.95,4.06-4.1,5.78-6.45,5.06-6.91,10.27-16.87,13.64-30.83l70.45-2.57s3.14,2.96,6.87,5.78c2.4,1.81,5.04,3.57,7.23,4.45,3.05,1.23,27.07-9.42,38.22-30.69,1.81-3.46,3.29-7.21,4.28-11.23,0,0-4.58-14.91-3.7-20.05,.88-5.16,4.76-3.49,6.17,0s3.53,6.47,4.76,1.37c1.24-5.12,4.05-16.75,7.23-16.21,3.13,.51,3.34,4.97,3,7.47,.2-.97,1.81-8.79,5.28-8.93,3.7-.13,4.06,8.35,3.88,10.02,0,0,3.88-2.64,5.29,.57,1.41,3.2-.17,9.88-1.23,12,0,0,5.98-2.81,7.22,0,1.24,2.82-3.88,8.11-7.22,12.51Z"/><path class="cls-10" d="M776.47,130.2c-.35,1.12-.75,2.38-1.21,3.76-5.87,17.19-21.95,52.1-56.94,70.19,3.04-3.2,7.83-7.61,15.47-13.53,20.61-16.03,36.97-58.76,36.97-58.76l5.72-1.65Z"/><path class="cls-9" d="M630.6,227.25s8.27,7.94,17.72,13.23c9.45,5.29,23.99,27.71,23.99,27.71l3.67-4.99-33.82-48.3-11.56,12.35Z"/><g><path class="cls-88" d="M682.99,191.69s.09,.03,.14,.07c.04,.03,.08,.07,.13,.11,.02,.02,.05,.02,.07,0,.02-.01,.03-.04,.02-.06l-.04-.14c-.04-.13,0-.18,.13-.21,2-.47,3.9-2.02,4.63-3.57-1.01,1.87-3.12,2.99-4.72,3.24-.13,.02-.19-.02-.22-.15l-.04-.14s-.03-.04-.05-.04c-.03,0-.05,.01-.06,.04l-.05,.13c-.05,.14-.11,.18-.26,.17h-.15s-.05,0-.06,.03c0,.02,0,.05,.02,.07,.04,.03,.08,.07,.13,.1,.1,.09,.11,.17,.06,.29l-.05,.13s0,.05,.02,.07c.02,.02,.05,.02,.07,0l.14-.09c.05-.04,.1-.05,.14-.05Zm1.51-2.01s-.06-.03-.11-.03h-.12s-.03-.02-.04-.04c0-.02,0-.04,.02-.05l.09-.06c.08-.05,.11-.1,.08-.2l-.03-.12s0-.04,.02-.05c.02-.01,.04,0,.05,0l.08,.07c.09,.07,.13,.07,.22,0l.09-.06s.03,0,.05,0c.01,.01,.02,.03,.01,.05l-.04,.1c-.04,.1-.03,.15,.06,.22l.09,.07s.02,.03,.01,.05c0,.02-.02,.03-.04,.03h-.12c-.1-.01-.14,.03-.17,.12l-.04,.1s-.02,.03-.04,.03c-.02,0-.03-.01-.04-.03l-.03-.12s-.03-.08-.05-.1Zm4.51-1.69s-.03-.02-.06-.02h-.07s-.02-.02-.02-.03c0-.01,0-.02,.01-.03l.05-.03c.05-.03,.07-.06,.06-.12v-.07s-.01-.02,0-.03c0,0,.02,0,.03,0l.05,.05s.08,.05,.14,.02l.05-.03s.02,0,.03,0c0,0,.01,.02,0,.03l-.03,.06c-.03,.06-.02,.09,.02,.13l.05,.05s.01,.02,0,.03c0,.01-.02,.02-.03,.01h-.07c-.06-.02-.09,0-.11,.06l-.03,.06s-.02,.02-.03,.01c-.01,0-.02,0-.02-.02v-.07s-.03-.05-.04-.06Zm-1.35,2.64c1.48-.97,2.6-2.79,2.54-4.99,.13,2.09-.65,3.93-2.31,5.29-.15,.12-.16,.18-.02,.36l.13,.16s.02,.06,0,.09c-.02,.03-.05,.04-.09,.03l-.21-.06c-.17-.05-.27,0-.37,.15l-.11,.16s-.05,.04-.09,.03c-.03,0-.06-.04-.06-.07v-.22c0-.09-.02-.15-.06-.2-.04-.05-.09-.08-.18-.1l-.21-.06s-.06-.04-.06-.07c0-.03,.02-.07,.05-.08l.18-.06c.17-.06,.25-.14,.24-.32v-.22s.01-.07,.04-.08c.03-.01,.07,0,.09,.03l.13,.16c.11,.15,.21,.2,.36,.1Z"/><path class="cls-95" d="M677.12,189.11c.53,3.72,4.52,5.25,7.33,3.83,.49-.25,.83-.49,1.27-.83,.32-.25,.38-.08,.32,.26-.09,.48-.44,1.19-.52,1.26,1.46-.34,3.4-1.83,4.45-3.66,.08-.13,.17-.13,.18,.04,.02,.2,0,.48-.03,.68,.82-.87,1.75-2.29,2.05-3.64,.03-.14,.2-.12,.2,.03-.18,2.03-.9,4.03-2.21,5.77-.26,.34-.53,.66-.81,.97h-.02c-1.42,1.26-7.3,3.74-10.55-.33-.39-.49-2.37-1.74-1.66-4.38Z"/><path class="cls-89" d="M683.66,183.51c-2.82-.84-5.03,1.54-3.94,4.41,.17,.43,.35,.83,.42,1.22,.14,.81-.51,1.44-1.3,1.19-.6-.19-1.42-.78-1.72-1.21-.15,1.78,1.01,3.55,2.45,4.65,2.66,2.05,6.92,2.26,9.76,.05h.02c-2.9,3.09-7.25,4.22-11.22,3.14h-.03c-.08-.03-.15-.05-.23-.07h-.02c-.08-.03-.15-.05-.23-.08h-.02c-.08-.03-.16-.06-.24-.08h-.01c-.08-.03-.16-.06-.24-.09h0c-.66-.25-1.3-.56-1.91-.94h0c-.32-.19-.63-.4-.93-.63-4.02-3.03-5.49-8.19-4-12.69,0,.37,.53,2.82,1.53,3.29,.57,.16,1.67,4.58,1.68,3.8,.03-1.78,3.8-9.47,10.24-6.12,.21,.15,.22,.25-.05,.17Z"/><path class="cls-87" d="M680.35,179.72c3.29,.56,5.93,3.95,8.56,4.37-1.9,1.29-4.02-.2-5.92-.84-3.22-1.08-6.19,.77-7.24,3.5-1.09,2.84-.14,6.5,4.18,8.76-1.22,.03-2.7-.54-3.98-1.47-1.3-.94-2.39-2.25-2.95-3.53-2.2-5.09,.95-11.86,7.34-10.78Z"/><path class="cls-96" d="M676.75,181.77c.48-.21-1.67,.07-.91-.53,1.78-1.42,4.55-1.21,6.55-.43,.92,.36,1.79,.86,2.65,1.42,1.24,.81,2.39,1.66,3.45,1.84,.81,.14,1.68-.25,1.95-1.04,.1-.28-.05-.47-.38-.74-2.84-2.33-.93-4.84-5.18-6.96-.3-.96-1.18-1.06-1.35-.46v.05h-.01c-4.23-.97-8.82,.54-11.58,4.23-.16,.22-.31,.44-.46,.66-.02,.03-.03,.05-.05,.08-.32,.51-.6,1.04-.83,1.58l-.04,.09s-.04,.09-.05,.13c-.02,.06-.05,.12-.07,.18l-.02,.05c-.03,.08-.06,.16-.09,.23h0c-.02,.08-.05,.15-.07,.22-.69,2.14,.31,5.62,2.57,6.44,.91,.33,1.56-.37,1.5-1.25-.01-.24-.06-.49-.1-.74-.42-2.39,.89-4.31,2.5-5.03Z"/></g><path class="cls-97" d="M713.18,206.62s-5.49,29.03-26.96,56.16c-2.88,3.61-6.02,7.19-9.47,10.66-14.68,14.76-34.93,27.59-62.68,32.88,7.73-2.49,17.11-6.27,28.3-11.96,29.88-15.18,47.65-52.85,55.29-72.86,2.69-7.04,8.4-12.43,15.53-14.88h0Z"/><circle class="cls-98" cx="608.58" cy="81.84" r="16.96"/><path class="cls-27" d="M662.55,141.46s5.85,43.2-46.33,67.79"/><path class="cls-99" d="M579.01,271.17l-18.52,6.37c-19.13-2.96-33.56,7.73-40.51,14.43-.84,.81-1.57,1.57-2.2,2.24-1.45,1.56-3.84,1.81-5.58,.59l-22.65-15.96-35.29-24.87c-1.37-.97-1.24-3.06,.25-3.84,1.11-.57,2.21-1.12,3.32-1.6,27.86-12.44,53.29,2.01,53.29,2.01,1.16-2.9,2.6-5.66,4.18-8.26,5.41-8.87,12.5-15.72,15.88-18.73,1.05-.93,1.75-1.51,1.93-1.65,.04-.03,.05-.04,.05-.04,14.47,.19,25.44,11,33.01,22.46,8.61,13.02,12.83,26.86,12.83,26.86Z"/><path class="cls-6" d="M579.01,271.17l-18.52,6.37c-19.13-2.96-33.56,7.73-40.51,14.43-.84,.81-1.57,1.57-2.2,2.24-1.45,1.56-3.84,1.81-5.58,.59l-22.65-15.96c2.41-.29,5.1,.09,8.07,1.55,13.59,6.66,30.66,3.09,42.71-14.13,15.52-22.19,34.91-27.31,44.65-30.75,8.61,13.02-5.98,35.68-5.98,35.68Z"/><g><path class="cls-92" d="M702.4,139.97s3.2,2.63,1.08,5.75c-2.12,3.12-18.96,12.86-42.11,12-23.15-.86-38.24-11.19-40.34-14.04-2.1-2.85-.64-7.61-.64-7.61,0,0,17.41,15.36,38.9,15.09s34.13-5.42,43.12-11.18Z"/><path class="cls-91" d="M707.9,125.9s1.2,13.06-9.09,18.5c-12,6.34-22.7,9.63-38.19,8.77-25.34-1.4-38.02-11.42-42.01-17.16-3.99-5.73-3.18-7.8-3.18-7.8l92.47-2.31Z"/><path class="cls-94" d="M599.69,84.8c-.94,8.98,.42,17.72,3.63,25.71,2.63,6.53,6.5,12.57,11.37,17.83,4.84,5.24,10.68,9.7,17.27,13.13,0,0,.02,0,.02,0,7.22,3.76,15.34,6.27,24.04,7.18,32.7,3.42,61.95-16.94,67.63-46.14,.3-1.54,.54-3.1,.7-4.68,.65-6.22,.2-12.31-1.2-18.12-.29-1.21-.62-2.4-.99-3.58-6.97-22.11-27.88-39.41-54.15-42.16-15.59-1.63-30.39,2.14-42.23,9.71-.03,.01-.06,.03-.09,.06-.02,.02-.03,.02-.03,.02-.72,.45-1.42,.93-2.1,1.41h0c-7.42,5.21-13.54,11.96-17.75,19.81-2.07,3.85-3.69,7.96-4.78,12.28,0,0,0,0,0,.01-.62,2.44-1.07,4.95-1.34,7.53Z"/><path class="cls-13" d="M631.97,141.48c7.22,3.76,15.34,6.27,24.04,7.18,32.7,3.42,61.95-16.94,67.63-46.14l-5.43-16.91-16.35,2.1s-5.2,15.18,3.25,24.58c2.8,3.12,3.06,7.78,.49,11.09-8.9,11.48-31.34,31.47-73.64,18.1Z"/><path class="cls-90" d="M599.69,84.8c-.94,8.98,.42,17.72,3.63,25.71,.03,.06,.06,.13,.08,.19,2.69,6.61,6.85,12.43,12.07,17.05,.29,.27,.6,.53,.9,.78,1.66,1.41,3.43,2.7,5.28,3.85,3.99,2.5,8.37,4.39,13.03,5.56,1.9,.48,3.85,.86,5.84,1.15,27.82,3.99,53.06-13.06,56.37-38.07,1.21-9.16-.68-18.12-4.94-25.99-7.36-13.63-21.81-24-39.44-26.53-13.01-1.87-25.45,.87-35.35,6.87-8,4.84-13.8,12.71-16.09,21.77-.01,.04-.03,.09-.04,.13,0,0,0,0,0,.01-.62,2.44-1.07,4.95-1.34,7.53Z"/><path class="cls-93" d="M617.43,129.23l4.22,3.16c3.99,2.5,8.37,4.39,13.03,5.56,1.9,.48,3.85,.86,5.84,1.15,27.82,3.99,53.06-13.06,56.37-38.07,1.21-9.16-.68-18.12-4.94-25.99,0,0,.08,.46,.19,1.3,.91,6.9,3.45,39.41-26.55,53.03-24.42,11.09-40.94,4.38-48.16-.13Z"/><path class="cls-70" d="M679.17,33.1c-19.8-5.73-43.62-3.25-54.74,11.47,1.61-.94,22.26-11.7,53.08-.37,27.83,10.23,35.44,34.44,35.44,34.44l10.19,1.07c-.29-1.21-.62-2.4-.99-3.58-6.97-22.11-17.62-35.69-42.99-43.03Z"/><path class="cls-69" d="M631.72,37.69s10.45-6.97,32.42-3.1c22.8,4.02,35.51,12.2,44.64,25.46,9.13,13.25,9.65,19.17,9.65,19.17l10.57,1.11s-7.93-31.96-38.02-44.58c-26.82-11.26-48.72-6.61-59.26,1.94Z"/><circle class="cls-72" cx="720.86" cy="93.8" r="19.94"/><path class="cls-71" d="M709.89,91.9c-.89,8.52,5.3,16.17,13.83,17.06,8.52,.89,16.16-5.3,17.05-13.83,.12-1.19,.11-2.37-.03-3.51-.85-7.02-6.46-12.78-13.79-13.54-7.36-.77-14.06,3.73-16.32,10.47h0s0,.02,0,.03c-.01,.03-.02,.06-.03,.09-.14,.41-.26,.83-.35,1.26-.16,.65-.27,1.31-.35,1.99Z"/><path class="cls-7" d="M709.89,91.9c-.89,8.52,5.3,16.17,13.83,17.06,8.52,.89,16.16-5.3,17.05-13.83,.12-1.19,.11-2.37-.03-3.51-1.2,6.98-4.21,12.67-10.56,13.91-18.4,3.6-19.52-16.4-19.55-16.98,0,0,0,.01,0,.02,0,.02-.01,.05-.03,.09-.06,.2-.18,.65-.35,1.26-.16,.65-.27,1.31-.35,1.99Z"/><path d="M716.9,92.64c-.49,4.66,2.89,8.82,7.55,9.31,3.24,.34,6.25-1.2,7.94-3.73,.74-1.1,1.22-2.4,1.37-3.82,.49-4.66-2.89-8.82-7.55-9.31-2.41-.25-4.69,.53-6.39,1.99-1.59,1.36-2.69,3.31-2.92,5.56Z"/></g><path class="cls-73" d="M454.27,253.96c-1.37-.97-1.24-3.06,.25-3.84,1.11-.57,2.21-1.12,3.32-1.6l62.15,43.44c-.84,.81-1.57,1.57-2.2,2.24-1.45,1.56-3.84,1.81-5.58,.59"/><path class="cls-74" d="M554.14,266.6l-.88,2.5c-15.84-5.49-15.37-16.35-14.88-27.83,.08-1.89,.16-3.84,.17-5.8,.04-6.43-4.13-10.28-7.37-11.94,1.05-.93,1.75-1.51,1.93-1.65,3.29,1.68,8.15,5.54,8.1,13.61-.01,1.98-.09,3.97-.17,5.87-.49,11.38-.88,20.37,13.1,25.22Z"/><path class="cls-8" d="M519.79,258.02c-4.33-4.89-8.66-7.49-8.66-7.49,1.16-2.9,2.6-5.66,4.18-8.26l4.48,15.74Z"/><path class="cls-75" d="M593.47,306.09c-16.04,1.93-27.82,17.54-33.2,26.23-.49,.8-.92,1.53-1.31,2.18-1.19,2.06-3.68,2.98-5.93,2.2l-67.74-23.69c-1.8-.63-2.64-2.84-1.53-4.4,.59-.83,1.21-1.61,1.88-2.37,18.08-21.16,58.5-16.76,58.5-16.76,.08-.68,.17-1.36,.28-2.02,.28-1.92,.64-3.78,1.08-5.58,8.05-33.17,39.5-46.39,39.5-46.39,33.93,32.4,8.47,70.59,8.47,70.59Z"/><path class="cls-15" d="M556.87,293.43c-.59-.17-13.31-3.89-36.89-1.47-24.15,2.48-13.87,22.25-13.87,22.25l-22.35-5.6c.59-.83,1.21-1.61,1.88-2.37,18.08-21.16,58.5-16.76,58.5-16.76,.08-.68,.17-1.36,.28-2.02l12.46,5.97Z"/><path class="cls-36" d="M590.23,307.44l-2.52-.86c2.32-6.8,1.39-16.09-2.32-23.12-2.12-4.02-6.17-9.23-13.41-11.24-2.48-.69-4.64-1.1-6.73-1.5-4.79-.92-8.92-1.71-13.35-5.48l1.73-2.03c3.9,3.32,7.35,3.98,12.12,4.89,2.04,.39,4.36,.83,6.94,1.55,6.46,1.79,11.67,6.14,15.06,12.56,4.03,7.64,5.03,17.77,2.48,25.22Z"/><path class="cls-35" d="M560.27,332.32c-.49,.8-.92,1.53-1.31,2.18-1.19,2.06-3.68,2.98-5.93,2.2l-67.74-23.69c-1.8-.63-2.64-2.84-1.53-4.4,.59-.83,1.21-1.61,1.88-2.37l74.63,26.07Z"/><path class="cls-12" d="M556.9,293.44c-5.02-3.46-12.76-3.96-12.76-3.96,.32-2.65,.77-5.18,1.36-7.61l11.4,11.56Z"/><path class="cls-33" d="M711.35,152.92s-8.1,4.85-16.21,6.96l8.97-11.41c2.4,1.81,5.04,3.57,7.23,4.45Z"/><path class="cls-34" d="M686.21,262.79c-2.88,3.61-6.02,7.19-9.47,10.66-1.35-2.62-2.77-5.33-4.3-8.09-.23-.4-.44-.8-.67-1.21-2.76-4.92-5.8-9.98-9.13-15.04-.24-.37-.49-.75-.75-1.12-12.18-18.29-28.08-36.46-47.75-47.53-9.26-5.21-17.12-7.54-22.54-8.59,3.18-1.09,6.21-2.52,9.05-4.28,2.38-1.45,4.64-3.14,6.71-5.05,17.15,6.47,41.04,21.55,64.58,56.44,.25,.37,.51,.75,.76,1.12,2.94,4.42,5.89,9.17,8.79,14.23,.24,.4,.47,.79,.69,1.19,.73,1.29,1.48,2.61,2.21,3.96,.6,1.09,1.2,2.2,1.8,3.32Z"/><path class="cls-31" d="M686.21,262.79c-2.88,3.61-6.02,7.19-9.47,10.66-12.72-24.86-33.57-56.66-62.59-72.99-9.26-5.21-17.12-7.54-22.54-8.59,3.18-1.09,6.21-2.52,9.05-4.28,8.02,2.13,32.24,10.62,52.07,38.45,22.39,31.43,24.53,38.66,31.68,33.44,.6,1.09,1.2,2.2,1.8,3.32Z"/><g><path class="cls-32" d="M655.46,208.4l-.04-5.19-8.19-.56-27.18-16.75c-1.09-.67-2.82-.52-3.86,.35l-15.84,13.2-5.22-.36,.04,5.46h0c0,.52,.28,1.03,.84,1.38l34.59,21.32c1.09,.67,2.82,.52,3.86-.35l20.27-16.89c.57-.48,.8-1.06,.73-1.61Z"/><path class="cls-29" d="M654.7,204.47l-20.28,16.89c-1.04,.87-2.77,1.01-3.86,.35l-8.19-5.05-19.64-12.1-6.75-4.17c-1.11-.68-1.15-1.93-.11-2.8l20.28-16.89c1.04-.87,2.77-1.03,3.86-.35l3.98,2.45,21.02,12.95,9.59,5.91c1.09,.68,1.13,1.92,.09,2.8Z"/></g><path class="cls-30" d="M784.52,109.76c-3.36,4.41-5.46,8.82-6.53,14.63-.23,1.24-1.07,4.69-2.73,9.57-9.84-.31-20.84-7.95-25.68-11.72,1.81-3.46,3.29-7.21,4.28-11.23,0,0-4.58-14.91-3.7-20.05,.88-5.16,4.76-3.49,6.17,0s3.53,6.47,4.76,1.37c1.24-5.12,4.05-16.75,7.23-16.21,3.13,.51,3.34,4.97,3,7.47,.2-.97,1.81-8.79,5.28-8.93,3.7-.13,4.06,8.35,3.88,10.02,0,0,3.88-2.64,5.29,.57,1.41,3.2-.17,9.88-1.23,12,0,0,5.98-2.81,7.22,0,1.24,2.82-3.88,8.11-7.22,12.51Z"/><path class="cls-28" d="M742.91,223.54l-11.48,12.22c-.16,.17-.35,.32-.53,.41-.89,.51-2,.27-2.72-.67l-3.4-4.38-7.45-9.59c-.87-1.13-.83-2.84,.09-3.82l11.48-12.22c.93-.99,2.38-.87,3.26,.25l2.5,3.24,4.96,6.39,3.37,4.34c.88,1.13,.83,2.84-.09,3.82Z"/><path class="cls-50" d="M654.7,204.47l-20.28,16.89c-1.04,.87-2.77,1.01-3.86,.35l-8.19-5.05-19.64-12.1,17.17-3.53,5.64,3.29,19.48-8.57,9.59,5.91c1.09,.68,1.13,1.92,.09,2.8Z"/><ellipse class="cls-52" cx="616.23" cy="193.62" rx="4.69" ry="6.21" transform="translate(374.93 792.78) rotate(-85.51)"/><ellipse class="cls-51" cx="616.23" cy="193.62" rx="3.92" ry="5.19" transform="translate(374.93 792.78) rotate(-85.51)"/><path class="cls-47" d="M648.32,235.2c-.57,0-1.14-.25-1.54-.72-.71-.85-.59-2.11,.26-2.81l13.33-11.08c.85-.7,2.11-.59,2.81,.26,.71,.85,.59,2.11-.26,2.81l-13.33,11.08c-.37,.31-.83,.46-1.28,.46Z"/><path class="cls-46" d="M672.72,240.1l-10.07,9.01c-.24-.37-.49-.75-.75-1.12l10.06-9.01c.25,.37,.51,.75,.76,1.12Z"/><path class="cls-49" d="M682.2,255.52l-9.76,9.84c-.23-.4-.44-.8-.67-1.21l9.74-9.82c.24,.4,.47,.79,.69,1.19Z"/><path class="cls-2" d="M607.1,92.3c.15,0,.29,0,.44-.03,.94-.19,1.54-1.11,1.35-2.04,0-.03-.64-3.24-.23-7.69,.39-4.28,2.65-7.83,2.67-7.86,.52-.8,.29-1.87-.51-2.39-.8-.52-1.87-.29-2.39,.51-.11,.17-2.75,4.27-3.22,9.43-.45,4.99,.26,8.55,.29,8.7,.16,.79,.83,1.34,1.6,1.38Z"/><circle class="cls-2" cx="608.89" cy="97.27" r="2.17"/><path class="cls-48" d="M739.64,215.38l-8.74,20.8c-.89,.51-2,.27-2.72-.67l-3.4-4.38,9.9-22.14,4.96,6.39Z"/><circle class="cls-44" cx="695.88" cy="256.1" r="1.77"/><circle class="cls-43" cx="700.04" cy="260.68" r="1.77"/><circle class="cls-45" cx="704.2" cy="264.63" r="1.77"/><path class="cls-25" d="M771.3,83.58s-.29,6.91-2.46,9.93"/><path class="cls-26" d="M780.45,84.68s-.72,8.34-3.98,14.12"/><path class="cls-24" d="M784.52,97.25s-1.49,2.56-2.92,4.74"/></g><path class="cls-42" d="M330.55,51.49l1.77,3.21c.2,.47,.68,.75,1.16,.84l3.63,.41c1.24,.17,1.84,1.69,1,2.56l-2.53,2.72c-.37,.39-.46,.87-.36,1.34l.73,3.61c.31,1.23-1.01,2.21-2.17,1.66l-3.37-1.56c-.48-.18-.96-.17-1.43,.03l-3.21,1.87c-1.13,.59-2.49-.24-2.32-1.49l.51-3.64c.09-.48-.11-1.05-.5-1.33l-2.72-2.43c-.97-.84-.52-2.38,.72-2.68l3.62-.64c.48-.1,.95-.4,1.13-.88l1.47-3.37c.64-1.35,2.27-1.38,2.86-.24Z"/></g><g><path class="cls-39" d="M237.47,32.69l-8.08,15.89-18.71,36.76-5.27,10.37-21.96-15.21,12.97-13.01,26.39-26.47,10.98-11.02c1.85-1.87,4.87,.33,3.68,2.67Z"/><path class="cls-40" d="M210.68,85.33l-5.27,10.37-21.96-15.21,12.97-13.01c2.58,5.35,7.05,12.42,14.27,17.83h-.01Z"/><path class="cls-41" d="M237.47,32.69l-8.08,15.89c-3.04-1.97-5.13-4.74-6.58-7.54l10.98-11.02c1.85-1.87,4.87,.33,3.68,2.67Z"/><path class="cls-37" d="M230.58,237.43l-27.12,36-2.9,3.86c-1.23,1.64-3.56,1.97-5.2,.73l-66.4-50.01,34.47-45.77,66.4,50c1.63,1.23,1.97,3.56,.73,5.19h.02Z"/><path class="cls-5" d="M203.47,273.43l-2.9,3.86c-1.23,1.64-3.56,1.97-5.2,.73l-66.4-50.01,34.47-45.77s-9.81,52.26,40.02,91.19h0Z"/><path class="cls-38" d="M150.42,199.11l-.47,.63,70.14,51.83,.47-.63-70.14-51.83Z"/><path class="cls-62" d="M139.04,214.3l-.47,.64,70.14,51.83,.47-.64-70.14-51.83Z"/><path class="cls-61" d="M185.33,198.92l-34.36,45.87,.63,.47,34.36-45.87-.63-.47Z"/><path class="cls-68" d="M175.99,263.51l-.63-.47,34.39-45.85,.63,.47-34.39,45.85Z"/><path class="cls-67" d="M251.51,131.61c-26.15,29.27-70.84,34.02-102.69,9.93-2.37-1.79-4.62-3.7-6.72-5.7-26.11-24.94-31.16-65.16-11.66-95.82,1.81-2.87,5.68-3.59,8.39-1.55l111.88,84.64c2.7,2.05,3.06,5.94,.79,8.49h.01Z"/><path class="cls-3" d="M251.51,131.61c-26.15,29.27-70.84,34.02-102.69,9.93-2.37-1.79-4.62-3.7-6.72-5.7,11.3,4.82,29.74,9.48,55.2,8.52,27.45-1.05,46.34-15.02,53.42-21.23,2.7,2.05,3.06,5.95,.79,8.49h0Z"/><path class="cls-66" d="M102.67,139.43l-5.47,7.3-28.88,38.57L1.49,135.26c-1.64-1.23-1.98-3.56-.75-5.19l1.76-2.36,28.15-37.59c1.23-1.64,3.55-1.98,5.19-.75l66.84,50.04h0Z"/><path class="cls-4" d="M97.2,146.73l-28.88,38.56L1.49,135.26c-1.64-1.23-1.98-3.56-.75-5.19l1.76-2.36c30.22,23.45,75.66,21.23,94.69,19.02h0Z"/><path class="cls-65" d="M169.06,155.1l-40.54-30.44c-1.48-1.11-3.58-.81-4.69,.67l-2.02,2.69c-1.11,1.48-.81,3.58,.67,4.69l40.54,30.44c1.48,1.11,3.58,.81,4.69-.67l2.02-2.7c1.11-1.48,.81-3.58-.67-4.69Z"/><path class="cls-63" d="M168.86,174.96l-3.62,4.82-42.09,56.08-2.48,3.31c-2.92,3.89-8.45,4.69-12.34,1.75l-45.25-33.97c-3.89-2.93-4.69-8.45-1.75-12.35l2.65-3.52,41.64-55.46,3.91-5.22c2.93-3.89,8.45-4.69,12.35-1.75l45.25,33.97c3.9,2.93,4.69,8.45,1.76,12.35h-.02Z"/><path class="cls-64" d="M165.24,179.78l-42.09,56.07-46.95-35.52-12.24-9.26,41.64-55.46,26.88,19.9,32.78,24.26Z"/><path class="cls-60" d="M20.3,104.09l-.47,.63,70.14,51.83,.47-.63L20.3,104.09Z"/><path class="cls-53" d="M8.92,119.27l-.47,.64,70.14,51.83,.47-.64L8.92,119.27Z"/><path class="cls-58" d="M55.21,103.89l-34.36,45.87,.63,.47,34.36-45.87-.63-.47Z"/><path class="cls-59" d="M45.87,168.49l-.63-.47,34.39-45.85,.63,.47-34.39,45.85Z"/><path class="cls-57" d="M245.58,30.39c-.56,5.26-5.27,9.08-10.54,8.52-5.26-.56-9.08-5.28-8.53-10.54,.3-2.85,1.84-5.29,4.01-6.83,1.84-1.29,4.13-1.96,6.54-1.7,4.81,.51,8.41,4.5,8.57,9.2,.01,.43,0,.88-.05,1.34Z"/><path class="cls-54" d="M245.63,29.05c-1.04,4.08-4.94,6.89-9.26,6.43-4.73-.5-8.17-4.75-7.66-9.48,.18-1.69,.84-3.22,1.83-4.46,1.84-1.29,4.13-1.96,6.53-1.7,4.81,.51,8.41,4.5,8.57,9.2h-.01Z"/><path class="cls-55" d="M132.57,98.77c-1.18-.12-2.24-.91-2.65-2.11-1.76-5.13-2.67-10.48-2.74-15.89-.07-6.17,.96-12.25,3.08-18.07,.6-1.64,2.4-2.47,4.03-1.89,1.64,.6,2.48,2.39,1.89,4.03-1.86,5.1-2.76,10.44-2.7,15.84,.06,4.74,.86,9.42,2.41,13.93,.56,1.65-.31,3.44-1.96,4-.45,.15-.91,.2-1.34,.15Z"/><path class="cls-56" d="M165.24,179.78l-42.1,56.08-46.94-35.52c15.29,.94,46.17-2.69,56.27-44.82l32.77,24.26h0Z"/></g></g></g></g></svg>