<?xml version="1.0" encoding="UTF-8"?><svg xmlns="http://www.w3.org/2000/svg" xmlns:xlink="http://www.w3.org/1999/xlink" viewBox="0 0 456.07 464.5"><defs><style>.cls-1{fill:url(#linear-gradient-101);}.cls-1,.cls-2{opacity:.36;}.cls-2{fill:url(#linear-gradient-100);}.cls-3{stroke:url(#linear-gradient-4);}.cls-3,.cls-4,.cls-5,.cls-6,.cls-7,.cls-8,.cls-9,.cls-10,.cls-11{fill:none;stroke-miterlimit:10;}.cls-12{fill:url(#linear-gradient);}.cls-13{fill:#fff;}.cls-14{fill:#f2ce96;}.cls-15{fill:#9c8ea2;}.cls-16{fill:#cf1c31;}.cls-17{fill:#3a3870;}.cls-18{fill:url(#linear-gradient-104);}.cls-19{fill:url(#linear-gradient-103);}.cls-20{fill:url(#linear-gradient-102);}.cls-21{fill:url(#linear-gradient-6);opacity:.32;}.cls-21,.cls-22,.cls-23,.cls-24,.cls-25,.cls-26,.cls-27,.cls-28,.cls-29,.cls-30{isolation:isolate;}.cls-21,.cls-22,.cls-23,.cls-24,.cls-25,.cls-26,.cls-27,.cls-28,.cls-30{mix-blend-mode:multiply;}.cls-31{fill:url(#linear-gradient-61);opacity:.66;}.cls-32{fill:url(#linear-gradient-8);}.cls-33{fill:url(#linear-gradient-9);}.cls-34{fill:url(#linear-gradient-3);}.cls-35{fill:url(#linear-gradient-7);}.cls-36{fill:url(#linear-gradient-5);}.cls-37{fill:url(#linear-gradient-94);opacity:.61;}.cls-4{stroke:url(#linear-gradient-40);}.cls-5{stroke:url(#linear-gradient-41);}.cls-6{stroke:url(#linear-gradient-42);}.cls-7{stroke:url(#linear-gradient-37);}.cls-8{stroke:url(#linear-gradient-39);}.cls-9{stroke:url(#linear-gradient-38);}.cls-10{stroke:url(#linear-gradient-19);}.cls-11{stroke:url(#linear-gradient-18);}.cls-38{fill:url(#linear-gradient-53);opacity:.52;}.cls-39{fill:url(#linear-gradient-86);}.cls-39,.cls-40{opacity:.55;}.cls-40{fill:url(#linear-gradient-87);}.cls-22{fill:url(#linear-gradient-34);}.cls-22,.cls-23,.cls-24,.cls-25,.cls-26,.cls-27,.cls-30{opacity:.5;}.cls-23{fill:url(#linear-gradient-44);}.cls-24{fill:url(#linear-gradient-15);}.cls-25{fill:url(#linear-gradient-14);}.cls-26{fill:url(#linear-gradient-20);}.cls-27{fill:url(#linear-gradient-13);}.cls-28{fill:url(#linear-gradient-27);opacity:.77;}.cls-41{fill:url(#linear-gradient-59);}.cls-42{fill:url(#linear-gradient-57);}.cls-43{fill:url(#linear-gradient-58);}.cls-44{fill:url(#linear-gradient-55);}.cls-45{fill:url(#linear-gradient-56);}.cls-46{fill:url(#linear-gradient-54);}.cls-47{fill:url(#linear-gradient-51);}.cls-48{fill:url(#linear-gradient-52);}.cls-49{fill:url(#linear-gradient-50);}.cls-50{fill:url(#linear-gradient-77);}.cls-51{fill:url(#linear-gradient-78);}.cls-52{fill:url(#linear-gradient-79);}.cls-53{fill:url(#linear-gradient-74);}.cls-54{fill:url(#linear-gradient-75);}.cls-55{fill:url(#linear-gradient-76);}.cls-56{fill:url(#linear-gradient-70);}.cls-57{fill:url(#linear-gradient-71);}.cls-58{fill:url(#linear-gradient-72);}.cls-59{fill:url(#linear-gradient-73);}.cls-60{fill:url(#linear-gradient-68);}.cls-61{fill:url(#linear-gradient-67);}.cls-62{fill:url(#linear-gradient-69);}.cls-63{fill:url(#linear-gradient-64);}.cls-64{fill:url(#linear-gradient-63);}.cls-65{fill:url(#linear-gradient-66);}.cls-66{fill:url(#linear-gradient-65);}.cls-67{fill:url(#linear-gradient-60);}.cls-68{fill:url(#linear-gradient-62);}.cls-69{fill:url(#linear-gradient-98);}.cls-70{fill:url(#linear-gradient-91);}.cls-71{fill:url(#linear-gradient-95);}.cls-72{fill:url(#linear-gradient-99);}.cls-73{fill:url(#linear-gradient-96);}.cls-74{fill:url(#linear-gradient-97);}.cls-75{fill:url(#linear-gradient-92);}.cls-76{fill:url(#linear-gradient-93);}.cls-77{fill:url(#linear-gradient-90);}.cls-78{fill:url(#linear-gradient-81);}.cls-79{fill:url(#linear-gradient-80);}.cls-80{fill:url(#linear-gradient-88);}.cls-81{fill:url(#linear-gradient-89);}.cls-82{fill:url(#linear-gradient-85);}.cls-83{fill:url(#linear-gradient-84);}.cls-84{fill:url(#linear-gradient-83);}.cls-85{fill:url(#linear-gradient-82);}.cls-86{fill:url(#linear-gradient-43);}.cls-87{fill:url(#linear-gradient-45);}.cls-88{fill:url(#linear-gradient-46);}.cls-89{fill:url(#linear-gradient-49);}.cls-90{fill:url(#linear-gradient-47);}.cls-91{fill:url(#linear-gradient-48);}.cls-92{fill:url(#linear-gradient-22);}.cls-93{fill:url(#linear-gradient-21);}.cls-94{fill:url(#linear-gradient-23);}.cls-95{fill:url(#linear-gradient-16);}.cls-96{fill:url(#linear-gradient-17);}.cls-97{fill:url(#linear-gradient-12);}.cls-98{fill:url(#linear-gradient-10);}.cls-99{fill:url(#linear-gradient-11);}.cls-100{fill:url(#linear-gradient-24);}.cls-101{fill:url(#linear-gradient-26);}.cls-102{fill:url(#linear-gradient-35);}.cls-103{fill:url(#linear-gradient-36);}.cls-104{fill:url(#linear-gradient-25);}.cls-105{fill:url(#linear-gradient-28);}.cls-106{fill:url(#linear-gradient-29);}.cls-107{fill:url(#linear-gradient-33);}.cls-108{fill:url(#linear-gradient-30);}.cls-109{fill:url(#linear-gradient-32);}.cls-110{fill:url(#linear-gradient-31);}.cls-30{fill:url(#linear-gradient-2);}</style><linearGradient id="linear-gradient" x1="388.39" y1="156.93" x2="241.11" y2="375.85" gradientTransform="matrix(1, 0, 0, 1, 0, 0)" gradientUnits="userSpaceOnUse"><stop offset=".29" stop-color="#fff"/><stop offset=".38" stop-color="#fbfcff"/><stop offset=".46" stop-color="#f0f5ff"/><stop offset=".51" stop-color="#e7f0ff"/><stop offset=".62" stop-color="#a9c9ff"/><stop offset=".73" stop-color="#96bdff"/></linearGradient><linearGradient id="linear-gradient-2" x1="344.95" y1="227.15" x2="240.59" y2="310.33" gradientTransform="matrix(1, 0, 0, 1, 0, 0)" gradientUnits="userSpaceOnUse"><stop offset=".06" stop-color="#fff"/><stop offset=".24" stop-color="#f8fafe"/><stop offset=".5" stop-color="#e3ecfb"/><stop offset=".82" stop-color="#c2d6f6"/><stop offset=".95" stop-color="#b3ccf4"/></linearGradient><linearGradient id="linear-gradient-3" x1="307.89" y1="172.36" x2="446.33" y2="372.38" gradientTransform="matrix(1, 0, 0, 1, 0, 0)" gradientUnits="userSpaceOnUse"><stop offset=".08" stop-color="#fff"/><stop offset=".32" stop-color="#e7f0ff"/><stop offset=".62" stop-color="#a9c9ff"/><stop offset=".73" stop-color="#96bdff"/></linearGradient><linearGradient id="linear-gradient-4" x1="370.16" y1="246.09" x2="375.39" y2="246.09" gradientTransform="matrix(1, 0, 0, 1, 0, 0)" gradientUnits="userSpaceOnUse"><stop offset=".13" stop-color="#381a46"/><stop offset=".49" stop-color="#1b0c22"/><stop offset=".81" stop-color="#070309"/><stop offset="1" stop-color="#000"/></linearGradient><linearGradient id="linear-gradient-5" x1="98.42" y1="184.22" x2="298.98" y2="411.72" gradientTransform="matrix(1, 0, 0, 1, 0, 0)" gradientUnits="userSpaceOnUse"><stop offset="0" stop-color="#8e3bcb"/><stop offset=".5" stop-color="#d767b1"/><stop offset="1" stop-color="#f2535b"/></linearGradient><linearGradient id="linear-gradient-6" x1="192.77" y1="322.58" x2="100.49" y2="72.61" xlink:href="#linear-gradient-5"/><linearGradient id="linear-gradient-7" x1="181.87" y1="195" x2="181.05" y2="277.31" gradientTransform="matrix(1, 0, 0, 1, 0, 0)" gradientUnits="userSpaceOnUse"><stop offset=".12" stop-color="#fff"/><stop offset=".29" stop-color="#e7f0ff"/><stop offset=".58" stop-color="#a9c9ff"/><stop offset=".65" stop-color="#96bdff"/></linearGradient><linearGradient id="linear-gradient-8" x1="178.05" y1="243.85" x2="149.84" y2="324.59" gradientTransform="translate(-102.03 105.45) rotate(-26.83)" gradientUnits="userSpaceOnUse"><stop offset=".04" stop-color="#ffd33d"/><stop offset=".05" stop-color="#ffd23d"/><stop offset=".25" stop-color="#f99b4a"/><stop offset=".43" stop-color="#f57453"/><stop offset=".57" stop-color="#f25c59"/><stop offset=".65" stop-color="#f1535b"/></linearGradient><linearGradient id="linear-gradient-9" x1="169.72" y1="212.94" x2="154.44" y2="280.96" gradientTransform="matrix(1, 0, 0, 1, 0, 0)" gradientUnits="userSpaceOnUse"><stop offset="0" stop-color="#fff"/><stop offset="1" stop-color="#231f20"/></linearGradient><linearGradient id="linear-gradient-10" x1="186.66" y1="216.74" x2="171.38" y2="284.77" xlink:href="#linear-gradient-9"/><linearGradient id="linear-gradient-11" x1="178.04" y1="214.81" x2="162.76" y2="282.83" xlink:href="#linear-gradient-9"/><linearGradient id="linear-gradient-12" x1="415.03" y1="255.81" x2="-6.03" y2="475.06" xlink:href="#linear-gradient-3"/><linearGradient id="linear-gradient-13" x1="267.98" y1="171.25" x2="266.79" y2="271.8" xlink:href="#linear-gradient-2"/><linearGradient id="linear-gradient-14" x1="297.72" y1="171.44" x2="279.46" y2="305.93" xlink:href="#linear-gradient-2"/><linearGradient id="linear-gradient-15" x1="349.37" y1="208.35" x2="21.85" y2="469.4" xlink:href="#linear-gradient-2"/><linearGradient id="linear-gradient-16" x1="173.71" y1="204.74" x2="191.37" y2="293.53" gradientTransform="matrix(1, 0, 0, 1, 0, 0)" gradientUnits="userSpaceOnUse"><stop offset=".12" stop-color="#fff"/><stop offset=".31" stop-color="#e7f0ff"/><stop offset=".58" stop-color="#a9c9ff"/><stop offset=".65" stop-color="#96bdff"/></linearGradient><linearGradient id="linear-gradient-17" x1="266.41" y1="278" x2="68.97" y2="415.14" gradientTransform="matrix(1, 0, 0, 1, 0, 0)" gradientUnits="userSpaceOnUse"><stop offset="0" stop-color="#ffd33d"/><stop offset="0" stop-color="#ffd23d"/><stop offset=".2" stop-color="#f99b4a"/><stop offset=".37" stop-color="#f57453"/><stop offset=".5" stop-color="#f25c59"/><stop offset=".58" stop-color="#f1535b"/></linearGradient><linearGradient id="linear-gradient-18" x1="179.63" y1="302.39" x2="188.25" y2="302.39" xlink:href="#linear-gradient-4"/><linearGradient id="linear-gradient-19" x1="198.78" y1="309.81" x2="205.23" y2="309.81" xlink:href="#linear-gradient-4"/><linearGradient id="linear-gradient-20" x1="283.98" y1="214.31" x2="218.85" y2="318.51" xlink:href="#linear-gradient-2"/><linearGradient id="linear-gradient-21" x1="265.61" y1="243.28" x2="152.72" y2="410.58" gradientTransform="translate(-46.77 38.28) rotate(-9.07)" gradientUnits="userSpaceOnUse"><stop offset=".24" stop-color="#8e3bcb"/><stop offset=".54" stop-color="#d767b1"/><stop offset="1" stop-color="#f2535b"/></linearGradient><linearGradient id="linear-gradient-22" x1="286.43" y1="211.35" x2="254.65" y2="303.21" gradientTransform="matrix(1, 0, 0, 1, 0, 0)" gradientUnits="userSpaceOnUse"><stop offset=".06" stop-color="#fff"/><stop offset=".24" stop-color="#e7f0ff"/><stop offset=".62" stop-color="#a9c9ff"/><stop offset=".73" stop-color="#96bdff"/></linearGradient><linearGradient id="linear-gradient-23" x1="469.26" y1="359.96" x2="48.21" y2="579.21" xlink:href="#linear-gradient-3"/><linearGradient id="linear-gradient-24" x1="251.47" y1="202.56" x2="248.91" y2="244.92" xlink:href="#linear-gradient-22"/><linearGradient id="linear-gradient-25" x1="274.05" y1="175.81" x2="183.7" y2="331.59" gradientTransform="matrix(1, 0, 0, 1, 0, 0)" gradientUnits="userSpaceOnUse"><stop offset=".06" stop-color="#fff"/><stop offset=".33" stop-color="#e5eefb"/><stop offset=".77" stop-color="#c1d5f6"/><stop offset="1" stop-color="#b3ccf4"/></linearGradient><linearGradient id="linear-gradient-26" x1="317.9" y1="62.35" x2="100.95" y2="436.38" gradientTransform="matrix(1, 0, 0, 1, 0, 0)" gradientUnits="userSpaceOnUse"><stop offset=".06" stop-color="#fff"/><stop offset=".34" stop-color="#ccdfff"/><stop offset=".6" stop-color="#a5c6ff"/><stop offset=".73" stop-color="#96bdff"/></linearGradient><linearGradient id="linear-gradient-27" x1="271.2" y1="163.65" x2="169.24" y2="255.77" xlink:href="#linear-gradient-2"/><linearGradient id="linear-gradient-28" x1="360.82" y1="77" x2="95.47" y2="370.18" xlink:href="#linear-gradient-4"/><linearGradient id="linear-gradient-29" x1="307.07" y1="128.01" x2="224.03" y2="233.52" xlink:href="#linear-gradient-4"/><linearGradient id="linear-gradient-30" x1="261.89" y1="53.4" x2="239.47" y2="160.05" xlink:href="#linear-gradient-26"/><linearGradient id="linear-gradient-31" x1="237.01" y1="63.83" x2="238.68" y2="184.54" xlink:href="#linear-gradient-26"/><linearGradient id="linear-gradient-32" x1="246.28" y1="122.82" x2="36.01" y2="260.88" xlink:href="#linear-gradient-26"/><linearGradient id="linear-gradient-33" x1="215.15" y1="114.7" x2="141.42" y2="210.88" xlink:href="#linear-gradient-26"/><linearGradient id="linear-gradient-34" x1="209.42" y1="137.09" x2="140.91" y2="198.98" xlink:href="#linear-gradient-2"/><linearGradient id="linear-gradient-35" x1="267.16" y1="275.43" x2="207.23" y2="368.13" gradientTransform="matrix(1, 0, 0, 1, 0, 0)" gradientUnits="userSpaceOnUse"><stop offset=".06" stop-color="#fff"/><stop offset=".31" stop-color="#e7f0ff"/><stop offset=".62" stop-color="#a9c9ff"/><stop offset=".73" stop-color="#96bdff"/></linearGradient><linearGradient id="linear-gradient-36" x1="304.11" y1="247.86" x2="272.01" y2="421.64" xlink:href="#linear-gradient-3"/><linearGradient id="linear-gradient-37" x1="308.07" y1="286.1" x2="316.98" y2="286.1" xlink:href="#linear-gradient-4"/><linearGradient id="linear-gradient-38" x1="311.39" y1="290.64" x2="318.48" y2="290.64" xlink:href="#linear-gradient-4"/><linearGradient id="linear-gradient-39" x1="312.18" y1="297.42" x2="317.68" y2="297.42" xlink:href="#linear-gradient-4"/><linearGradient id="linear-gradient-40" x1="288.43" y1="625.52" x2="297.44" y2="625.52" gradientTransform="translate(-134.29 -232.76) rotate(-22.59)" xlink:href="#linear-gradient-4"/><linearGradient id="linear-gradient-41" x1="291.85" y1="630.08" x2="299.02" y2="630.08" gradientTransform="translate(-134.29 -232.76) rotate(-22.59)" xlink:href="#linear-gradient-4"/><linearGradient id="linear-gradient-42" x1="292.71" y1="636.88" x2="298.25" y2="636.88" gradientTransform="translate(-134.29 -232.76) rotate(-22.59)" xlink:href="#linear-gradient-4"/><linearGradient id="linear-gradient-43" x1="299.82" y1="286.08" x2="271.32" y2="386.04" xlink:href="#linear-gradient-22"/><linearGradient id="linear-gradient-44" x1="360.16" y1="236.69" x2="249.47" y2="399.41" xlink:href="#linear-gradient-2"/><linearGradient id="linear-gradient-45" x1="290.72" y1="276.85" x2="291.78" y2="275.26" gradientTransform="matrix(1, 0, 0, 1, 0, 0)" gradientUnits="userSpaceOnUse"><stop offset="0" stop-color="#ffcf3e"/><stop offset=".31" stop-color="#fec347"/><stop offset="1" stop-color="#fc7481"/></linearGradient><linearGradient id="linear-gradient-46" x1="284.86" y1="269.39" x2="287.57" y2="278.8" xlink:href="#linear-gradient-5"/><linearGradient id="linear-gradient-47" x1="286.41" y1="264.91" x2="289.38" y2="279.27" gradientTransform="matrix(1, 0, 0, 1, 0, 0)" gradientUnits="userSpaceOnUse"><stop offset="0" stop-color="#e8c499"/><stop offset="1" stop-color="#faebd8"/></linearGradient><linearGradient id="linear-gradient-48" x1="255.09" y1="185.77" x2="266.55" y2="199.49" gradientTransform="translate(24.94 462.25) scale(1 -1)" gradientUnits="userSpaceOnUse"><stop offset="0" stop-color="#cc61b9"/><stop offset=".3" stop-color="#f2535b"/><stop offset=".46" stop-color="#f35f58"/><stop offset=".61" stop-color="#f57553"/><stop offset="1" stop-color="#ffd33e"/></linearGradient><linearGradient id="linear-gradient-49" x1="362.32" y1="339.51" x2="472.93" y2="163.36" gradientTransform="matrix(1, 0, 0, 1, 0, 0)" gradientUnits="userSpaceOnUse"><stop offset="0" stop-color="#8e3bcb"/><stop offset=".9" stop-color="#0f1536"/></linearGradient><linearGradient id="linear-gradient-50" x1="430.91" y1="244.84" x2="382.11" y2="302.39" xlink:href="#linear-gradient-49"/><linearGradient id="linear-gradient-51" x1="437.72" y1="203.99" x2="418.85" y2="247.04" xlink:href="#linear-gradient-49"/><linearGradient id="linear-gradient-52" x1="512.83" y1="385.99" x2="260.06" y2="462.47" xlink:href="#linear-gradient-49"/><linearGradient id="linear-gradient-53" x1="375.99" y1="128.62" x2="387.71" y2="551.44" xlink:href="#linear-gradient-49"/><linearGradient id="linear-gradient-54" x1="434.41" y1="351.23" x2="284" y2="633.44" gradientTransform="translate(556.17 -139.42) rotate(59.58)" xlink:href="#linear-gradient-49"/><linearGradient id="linear-gradient-55" x1="433.66" y1="350.83" x2="283.26" y2="633.05" gradientTransform="translate(564.82 -124.08) rotate(59.58)" xlink:href="#linear-gradient-49"/><linearGradient id="linear-gradient-56" x1="421.44" y1="344.31" x2="271.03" y2="626.53" gradientTransform="translate(543.53 -127.44) rotate(59.2)" xlink:href="#linear-gradient-49"/><linearGradient id="linear-gradient-57" x1="446.54" y1="357.69" x2="296.14" y2="639.91" xlink:href="#linear-gradient-49"/><linearGradient id="linear-gradient-58" x1="384.48" y1="214.72" x2="391.47" y2="373.37" gradientTransform="matrix(1, 0, 0, 1, 0, 0)" gradientUnits="userSpaceOnUse"><stop offset=".06" stop-color="#fff"/><stop offset=".25" stop-color="#f7fafd"/><stop offset=".53" stop-color="#e3ecfa"/><stop offset=".87" stop-color="#c1d5f6"/><stop offset="1" stop-color="#b3ccf4"/></linearGradient><linearGradient id="linear-gradient-59" x1="419.59" y1="162.53" x2="403.44" y2="315.55" gradientTransform="matrix(1, 0, 0, 1, 0, 0)" gradientUnits="userSpaceOnUse"><stop offset=".36" stop-color="#fff"/><stop offset=".49" stop-color="#f7fafd"/><stop offset=".68" stop-color="#e3ecfa"/><stop offset=".91" stop-color="#c1d5f6"/><stop offset="1" stop-color="#b3ccf4"/></linearGradient><linearGradient id="linear-gradient-60" x1="264.98" y1="258.98" x2="268.87" y2="464.43" xlink:href="#linear-gradient-49"/><linearGradient id="linear-gradient-61" x1="260.37" y1="202.8" x2="266.92" y2="439.05" xlink:href="#linear-gradient-49"/><linearGradient id="linear-gradient-62" x1="301.57" y1="280.43" x2="151.17" y2="562.65" gradientTransform="translate(426.71 -64.34) rotate(59.58)" xlink:href="#linear-gradient-49"/><linearGradient id="linear-gradient-63" x1="300.83" y1="280.04" x2="150.42" y2="562.25" gradientTransform="translate(435.36 -49) rotate(59.58)" xlink:href="#linear-gradient-49"/><linearGradient id="linear-gradient-64" x1="288.6" y1="273.52" x2="138.2" y2="555.74" gradientTransform="translate(415.07 -52.37) rotate(59.2)" xlink:href="#linear-gradient-49"/><linearGradient id="linear-gradient-65" x1="313.71" y1="286.9" x2="163.3" y2="569.12" gradientTransform="translate(439.53 -66.27) rotate(59.2)" xlink:href="#linear-gradient-49"/><linearGradient id="linear-gradient-66" x1="376.71" y1="308.66" x2="329.62" y2="386.5" gradientTransform="translate(-126.31 230.91) rotate(-30.86)" xlink:href="#linear-gradient-49"/><linearGradient id="linear-gradient-67" x1="387.54" y1="292.49" x2="285.56" y2="458.84" xlink:href="#linear-gradient-58"/><linearGradient id="linear-gradient-68" x1="374.58" y1="447.12" x2="261.37" y2="290.7" xlink:href="#linear-gradient-5"/><linearGradient id="linear-gradient-69" x1="395.28" y1="251.92" x2="448.54" y2="214.37" gradientTransform="matrix(1, 0, 0, 1, 0, 0)" xlink:href="#linear-gradient-48"/><linearGradient id="linear-gradient-70" x1="438.52" y1="188.94" x2="421.23" y2="255.1" gradientTransform="matrix(1, 0, 0, 1, 0, 0)" gradientUnits="userSpaceOnUse"><stop offset=".09" stop-color="#ffd33d"/><stop offset="1" stop-color="#f1535b"/></linearGradient><linearGradient id="linear-gradient-71" x1="324.17" y1="284.75" x2="480.9" y2="298.47" xlink:href="#linear-gradient-58"/><linearGradient id="linear-gradient-72" x1="274.64" y1="359.17" x2="502.02" y2="474.57" xlink:href="#linear-gradient-5"/><linearGradient id="linear-gradient-73" x1="286.97" y1="307.45" x2="241.03" y2="445.52" gradientTransform="matrix(1, 0, 0, 1, 0, 0)" gradientUnits="userSpaceOnUse"><stop offset=".15" stop-color="#ffd33d"/><stop offset=".16" stop-color="#fdd250"/><stop offset=".2" stop-color="#f8cf77"/><stop offset=".24" stop-color="#f5cd8f"/><stop offset=".26" stop-color="#f4cc98"/><stop offset=".48" stop-color="#aa6834"/><stop offset=".7" stop-color="#9d5334"/></linearGradient><linearGradient id="linear-gradient-74" x1="515.26" y1="281.68" x2="53.53" y2="499.4" gradientTransform="matrix(1, 0, 0, 1, 0, 0)" gradientUnits="userSpaceOnUse"><stop offset=".15" stop-color="#ffd33d"/><stop offset=".16" stop-color="#fdd250"/><stop offset=".2" stop-color="#f8cf77"/><stop offset=".24" stop-color="#f5cd8f"/><stop offset=".31" stop-color="#f4cc98"/><stop offset=".51" stop-color="#aa6834"/><stop offset=".75" stop-color="#9d5334"/></linearGradient><linearGradient id="linear-gradient-75" x1="419.33" y1="141.72" x2="198.58" y2="582.57" gradientTransform="matrix(1, 0, 0, 1, 0, 0)" gradientUnits="userSpaceOnUse"><stop offset=".15" stop-color="#ffd33d"/><stop offset=".16" stop-color="#fdd250"/><stop offset=".2" stop-color="#f8cf77"/><stop offset=".24" stop-color="#f5cd8f"/><stop offset=".26" stop-color="#f4cc98"/><stop offset=".55" stop-color="#aa6834"/><stop offset=".7" stop-color="#9d5334"/></linearGradient><linearGradient id="linear-gradient-76" x1="314.47" y1="214.49" x2="302.58" y2="225.23" xlink:href="#linear-gradient-2"/><linearGradient id="linear-gradient-77" x1="294.62" y1="288.59" x2="294.49" y2="288.24" xlink:href="#linear-gradient-5"/><linearGradient id="linear-gradient-78" x1="295.6" y1="288.7" x2="291.84" y2="278.52" xlink:href="#linear-gradient-5"/><linearGradient id="linear-gradient-79" x1="191.27" y1="-26.11" x2="219.27" y2="-191.84" gradientTransform="translate(207.42 29.7) rotate(41.83)" xlink:href="#linear-gradient-17"/><linearGradient id="linear-gradient-80" x1="197.07" y1="-32.01" x2="196.81" y2="-103.63" gradientTransform="translate(207.42 29.7) rotate(41.83)" xlink:href="#linear-gradient-17"/><linearGradient id="linear-gradient-81" x1="197.62" y1="-84.17" x2="198.11" y2="-39.87" gradientTransform="translate(207.42 29.7) rotate(41.83)" xlink:href="#linear-gradient-5"/><linearGradient id="linear-gradient-82" x1="197.81" y1="-51.62" x2="198.3" y2="-139.31" gradientTransform="translate(207.42 29.7) rotate(41.83)" xlink:href="#linear-gradient-5"/><linearGradient id="linear-gradient-83" x1="214.82" y1="-123.62" x2="154.26" y2="16.89" gradientTransform="translate(207.42 29.7) rotate(41.83)" xlink:href="#linear-gradient-17"/><linearGradient id="linear-gradient-84" x1="208.14" y1="-128.98" x2="104.75" y2="141.47" gradientTransform="translate(207.42 29.7) rotate(41.83)" xlink:href="#linear-gradient-3"/><linearGradient id="linear-gradient-85" x1="219.95" y1="-120.1" x2="168.33" y2="-77.91" gradientTransform="translate(207.42 29.7) rotate(41.83)" xlink:href="#linear-gradient-3"/><linearGradient id="linear-gradient-86" x1="205.71" y1="-109.92" x2="158.19" y2="-50.41" gradientTransform="translate(207.42 29.7) rotate(41.83)" xlink:href="#linear-gradient-17"/><linearGradient id="linear-gradient-87" x1="184.02" y1="-112.62" x2="248.81" y2="-43.59" gradientTransform="translate(207.42 29.7) rotate(41.83)" xlink:href="#linear-gradient-17"/><linearGradient id="linear-gradient-88" x1="-290.26" y1="131.66" x2="-279.72" y2="223.7" gradientTransform="translate(627.57 610.45) rotate(64.11)" gradientUnits="userSpaceOnUse"><stop offset=".46" stop-color="#ffd33d"/><stop offset="1" stop-color="#f1535b"/></linearGradient><linearGradient id="linear-gradient-89" x1="-413.87" y1="-16.44" x2="-405.38" y2="57.68" gradientTransform="translate(855.28 310.98) rotate(9.91)" xlink:href="#linear-gradient-88"/><linearGradient id="linear-gradient-90" x1="-430.47" y1="136.89" x2="-423.08" y2="201.43" gradientTransform="translate(203.66 -81.37) rotate(-127.32) scale(1 -1)" xlink:href="#linear-gradient-88"/><linearGradient id="linear-gradient-91" x1="412.67" y1="359.14" x2="308.85" y2="394.99" gradientTransform="matrix(1, 0, 0, 1, 0, 0)" gradientUnits="userSpaceOnUse"><stop offset="0" stop-color="#ffd33d"/><stop offset="1" stop-color="#f1535b"/></linearGradient><linearGradient id="linear-gradient-92" x1="376.06" y1="195.52" x2="272.24" y2="231.38" xlink:href="#linear-gradient-91"/><linearGradient id="linear-gradient-93" x1="54.44" y1="405.34" x2="91.87" y2="-6.42" gradientTransform="matrix(1, 0, 0, 1, 0, 0)" xlink:href="#linear-gradient-48"/><linearGradient id="linear-gradient-94" x1="60.28" y1="262.55" x2="93.79" y2="27.02" gradientTransform="matrix(1, 0, 0, 1, 0, 0)" xlink:href="#linear-gradient-48"/><linearGradient id="linear-gradient-95" x1="69.93" y1="15.78" x2="67.48" y2="152.31" gradientTransform="matrix(1, 0, 0, 1, 0, 0)" gradientUnits="userSpaceOnUse"><stop offset="0" stop-color="#ffd33d"/><stop offset="0" stop-color="#fed13d"/><stop offset=".2" stop-color="#f89b4a"/><stop offset=".37" stop-color="#f47453"/><stop offset=".5" stop-color="#f15b58"/><stop offset=".58" stop-color="#f1535b"/></linearGradient><linearGradient id="linear-gradient-96" x1="108.11" y1="-78.86" x2="-20.62" y2="276.35" xlink:href="#linear-gradient-95"/><linearGradient id="linear-gradient-97" x1="175.27" y1="-54.52" x2="46.55" y2="300.69" xlink:href="#linear-gradient-95"/><linearGradient id="linear-gradient-98" x1="161.56" y1="-59.49" x2="32.84" y2="295.72" xlink:href="#linear-gradient-95"/><linearGradient id="linear-gradient-99" x1="70.27" y1="222.82" x2="100.41" y2="-196.91" xlink:href="#linear-gradient-5"/><linearGradient id="linear-gradient-100" x1="134" y1="-78.58" x2="130.94" y2="174.21" xlink:href="#linear-gradient-49"/><linearGradient id="linear-gradient-101" x1="34.63" y1="36.23" x2="16.26" y2="150.87" xlink:href="#linear-gradient-49"/><linearGradient id="linear-gradient-102" x1="-132.13" y1="390.31" x2="-113.81" y2="550.24" gradientTransform="translate(-304.3 -97.82) rotate(141.61) scale(1 -1)" xlink:href="#linear-gradient-88"/><linearGradient id="linear-gradient-103" x1="216.27" y1="56.36" x2="112.45" y2="92.22" xlink:href="#linear-gradient-91"/><linearGradient id="linear-gradient-104" x1="132.58" y1="8.56" x2="-11.85" y2="58.44" xlink:href="#linear-gradient-91"/></defs><g class="cls-29"><g id="Layer_2"><g id="Layer_1-2"><g><g><g><path class="cls-12" d="M387,242.59c-.09,5.28-10.72,26.79-37.96,39.56-.65,.31-1.31,.6-1.98,.9-14.77,6.51-28.74,7.72-40.64,5.53-11.22-2.06-20.62-7.12-27.14-13.6-1.45-1.43-2.69-2.88-3.76-4.31-9.31-12.47-5.36-24.29-5.36-24.29,2.52-9.56,13.93-15.89,25.96-11.02,1.31,.53,2.62,1.19,3.94,2,.6,.37,1.22,.75,1.86,1.15,10.61,6.5,27.04,16.02,44.9,11.14,5.23-1.42,10.56-4.07,15.92-8.38,0,0,.53-12.71,3.53-13.93,3-1.22,3.01,4.42,4.17,6.15,0,0,4.06-9.64,8.65-6.13,0,0,3.38,0,3.48,4.23,0,0,4.46,1.21,2.01,7.02,0,0,2.49-1.43,2.4,3.98Z"/><path class="cls-30" d="M301.93,238.5c.11,13.98,.9,35.9,4.49,50.07-11.22-2.06-20.62-7.12-27.14-13.6-1.45-1.43-2.69-2.88-3.76-4.31l20.6-35.3,5.8,3.15Z"/><path class="cls-34" d="M387,242.58c-.09,5.28-10.73,26.79-37.95,39.56-8.61-13.87-4.16-27.79-2.21-32.5,5.22-1.42,10.56-4.07,15.92-8.38,0,0,.53-12.71,3.53-13.93,3-1.22,3.01,4.42,4.16,6.16,0,0,4.06-9.64,8.65-6.14,0,0,3.38,0,3.49,4.23,0,0,4.46,1.21,2.01,7.03,0,0,2.49-1.43,2.4,3.98Z"/><path class="cls-3" d="M370.4,241.44s5.59,3.11,4.3,9.63"/><path class="cls-36" d="M205.71,233.1l-33.47,68.57c-3.26,6.67-9.95,10.58-16.94,10.58-2.62,0-5.29-.55-7.82-1.71-5.48-2.51-8.89-7.65-9.45-13.22-.31-3,.21-6.12,1.69-9.02l31.19-61.19c2.6-5.1,8.84-7.14,13.95-4.56l6.83,3.45,14.01,7.09Z"/><path class="cls-21" d="M205.71,233.1l-33.47,68.57c-3.26,6.67-9.95,10.58-16.94,10.58-2.62,0-5.29-.55-7.82-1.71-5.48-2.51-8.89-7.65-9.45-13.22,7.06,7.8,19.71,9.62,29.5,2.52,12.04-8.73,21.75-60.12,24.16-73.83l14.01,7.09Z"/><path class="cls-35" d="M191.95,242.09l-1.76,3.87-2.84,6.22c-.81,1.77-2.9,2.55-4.67,1.74l-4.55-2.08-5.53-2.53c-1.77-.81-2.55-2.9-1.74-4.67l.22-.48,4.38-9.61c.81-1.77,2.9-2.55,4.67-1.74l8.58,3.92,1.51,.69c1.77,.81,2.56,2.9,1.75,4.67Z"/><rect class="cls-32" x="146.3" y="261.14" width="47.56" height="11.03" rx="5.52" ry="5.52" transform="translate(138.64 -48.06) rotate(26.83)"/><circle class="cls-33" cx="155.91" cy="274.45" r="2.71"/><circle class="cls-98" cx="171.83" cy="282.77" r="2.71"/><circle class="cls-99" cx="163.72" cy="278.56" r="2.71"/><path class="cls-97" d="M352.31,420.18l-50.27,9.66-5.22-28.79s-28.7,7.29-59.53,8.75c-6.87,1.19-14.31,1.54-22.35,.72-1.97-.2-3.87-.43-5.72-.71-8.24-1.19-15.27-3.04-21.24-5.44-5.1-1.9-9.66-4.37-13.44-7.5,0,0,0,0-.01-.01-17.96-13.8-19.63-35.53-17.04-56.59,1.2-9.75,5.7-22.76,11.53-36.38,2.33-5.45,4.87-11.01,7.5-16.48,13.32-27.79,28.71-53.48,29.19-54.28v-.02c25.55,14.81,51.59,13.94,69.2,10.49,.04-.01,.09-.02,.13-.03,2.99-.58,5.73-1.24,8.19-1.92,0,0,.02,0,.04,0,8.29-2.28,13.29-4.66,13.29-4.66,0,0-.12,.46-.33,1.4h0c-.49,2.27-1.43,7.35-2.16,15.78-.39,4.51-.74,9.97-.92,16.49v.03c-.05,1.68-.09,3.43-.11,5.26,0,.23-.01,.45-.01,.68v.26c0,.32,0,.64,0,.96,0,.29,0,.59,0,.89,0,.55-.01,1.11,0,1.68,0,1.47,0,2.98,0,4.54,.06,7.78,.32,15.77,.69,23.55,.25,5.41,.56,10.72,.9,15.8,.8,11.99,1.76,22.67,2.49,30.25,17.1,7.15,33.42,18.07,39.8,34.52,8.61,22.18,13.12,29.26,15.44,31.12Z"/><path class="cls-27" d="M296.22,238.38c-.49,2.26-1.43,7.34-2.16,15.77-1.01-2.66-2.54-4.11-4.81-3.48-10.04,2.76-48.51-1.25-51.22-1.54,7.26,.62,23.04-2.4,36.88-5.54,.04-.01,.09-.02,.13-.03,2.84-.65,5.6-1.29,8.19-1.92,0,0,.02,0,.04,0,5.34-1.29,9.93-2.47,12.96-3.26Z"/><path class="cls-25" d="M294.58,324.29c-12.55,4.33-27.87,6.26-27.87,6.26l-6.23-14.58,32.5-7.6s.26,.04,.71,.12c.25,5.41,.56,10.72,.9,15.8Z"/><path class="cls-24" d="M209.22,409.8c-8.24-1.19-15.27-3.04-21.24-5.44-5.1-1.9-9.66-4.37-13.44-7.5,0,0,0,0-.01-.01-17.96-13.8-19.63-35.53-17.04-56.59,1.2-9.75,5.7-22.76,11.53-36.38,2.33-5.45,4.87-11.01,7.5-16.48,13.32-27.79,28.71-53.48,29.19-54.28v-.02l4.52,6.37s-47.68,62.63-39.71,112.52c5.52,34.56,26.4,50.98,38.71,57.81Z"/><path class="cls-95" d="M191.95,242.09l-1.76,3.87-12.07,5.88-5.53-2.53c-1.77-.81-2.55-2.9-1.74-4.67l.22-.48,17.63-7.44,1.51,.69c1.77,.81,2.56,2.9,1.75,4.67Z"/><path class="cls-96" d="M233.91,304.45l2.76,8.35-12.47-7.91c-25.32-3.01-43.47-14.58-47.69-17.49-2.62,5.47-5.17,11.03-7.5,16.48,31.68,23.43,71.48,20.48,71.48,20.48,0,0,30.98-1.14,41.7-4.29v-20.11s-30.34,5.52-48.28,4.49Z"/><path class="cls-11" d="M187.81,293.94s-5.31,9.87-7.7,16.98"/><line class="cls-10" x1="204.75" y1="300.72" x2="199.26" y2="318.9"/><path class="cls-26" d="M206.47,269.38s-11.44,35.23,25.27,55.02l22.68,6.15-.79-18.3-47.16-42.87Z"/><rect class="cls-93" x="214.34" y="302.69" width="7.18" height="22.5" rx="1.6" ry="1.6" transform="translate(52.22 -30.43) rotate(9.07)"/><path class="cls-92" d="M266.35,293.73c-2.85-21.73-.7-48.42-.68-48.69l.73,.06c-.02,.27-2.16,26.88,.68,48.53l-.73,.1Z"/><path class="cls-94" d="M352.31,420.18c1.91,1.54,2.34-.45,2.34-.45l-2.34,.45Z"/><path class="cls-100" d="M200.29,223.29s-4.28,2.83-2.07,6.95c2.21,4.12,21.69,18.29,50.32,20.2,28.63,1.92,48.55-8.85,51.5-12.1,2.95-3.25,1.77-9.3,1.77-9.3,0,0-23.42,16.67-49.85,13.58-26.44-3.1-41.34-11.07-51.67-19.33Z"/><path class="cls-104" d="M195.33,205.25s-3.16,15.93,8.81,23.96c13.97,9.36,26.73,14.78,45.91,15.72,31.39,1.53,48.3-9.17,53.95-15.72,5.65-6.55,4.92-9.2,4.92-9.2l-113.6-14.76Z"/><path class="cls-101" d="M333.91,168.57c0,11.19-2.8,21.77-7.78,31.2-4.08,7.71-9.62,14.64-16.3,20.49-6.64,5.83-14.41,10.58-22.96,13.95,0,0-.02,0-.03,0-9.37,3.7-19.7,5.75-30.54,5.75-40.72,0-74.12-28.85-77.36-65.55-.18-1.93-.26-3.89-.26-5.86,0-7.74,1.34-15.19,3.81-22.17,.51-1.45,1.07-2.88,1.68-4.29,11.43-26.34,39.41-44.95,72.12-44.95,19.41,0,37.16,6.56,50.76,17.4,.04,.02,.07,.04,.1,.08,.02,.02,.04,.03,.04,.03,.82,.65,1.62,1.32,2.41,2.01h0c8.47,7.37,15.13,16.47,19.32,26.69,2.06,5.01,3.52,10.28,4.3,15.74,0,0,0,0,0,.01,.45,3.09,.68,6.24,.68,9.45Z"/><path class="cls-28" d="M286.84,234.22c-9.37,3.7-19.7,5.75-30.54,5.75-40.72,0-74.12-28.85-77.36-65.55l8.86-20.13,19.87,4.69s4.44,19.37-7.17,29.85c-3.85,3.48-4.77,9.19-2.04,13.6,9.48,15.29,34.55,42.8,88.37,31.78Z"/><path class="cls-105" d="M333.91,168.57c0,11.19-2.8,21.77-7.78,31.2-.04,.07-.09,.15-.12,.23-4.16,7.8-10.04,14.42-17.06,19.45-.4,.29-.8,.57-1.21,.85-2.23,1.52-4.57,2.88-7,4.06-5.23,2.57-10.88,4.33-16.77,5.17-2.4,.35-4.86,.57-7.34,.66-34.78,1.33-63.67-22.92-64.52-54.16-.32-11.44,3.18-22.23,9.43-31.38,10.83-15.84,29.95-26.76,52-27.6,16.26-.62,31.23,4.35,42.66,13.01,9.22,7,15.36,17.43,17.02,28.89,0,.05,.02,.11,.03,.16,0,0,0,0,0,.01,.45,3.09,.68,6.24,.68,9.45Z"/><path class="cls-106" d="M306.33,221l-5.6,3.34c-5.23,2.57-10.88,4.33-16.77,5.17-2.4,.35-4.86,.57-7.34,.66-34.78,1.33-63.67-22.92-64.52-54.16-.32-11.44,3.18-22.23,9.43-31.38,0,0-.16,.56-.4,1.58-2.01,8.39-9.33,48.1,25.87,68.74,28.65,16.8,49.86,10.67,59.34,6.04Z"/><path class="cls-108" d="M242.66,94.65c25.13-4.51,54.15,1.61,65.95,21.18-1.86-1.37-25.91-17.28-65.34-7.29-35.6,9.02-48.09,37.86-48.09,37.86h-12.69c.51-1.45,1.07-2.88,1.68-4.29,11.43-26.34,26.3-41.69,58.49-47.46Z"/><path class="cls-110" d="M300.53,106.41s-11.97-9.93-39.53-7.99c-28.6,2.01-45.31,10.46-58.26,25.61-12.96,15.15-14.35,22.37-14.35,22.37h-13.16s13.89-38.34,52.57-50.01c34.49-10.41,60.86-1.86,72.74,10.03Z"/><circle class="cls-109" cx="183.5" cy="164.04" r="24.7"/><path class="cls-107" d="M197.26,163.12c0,10.61-8.61,19.23-19.23,19.23s-19.22-8.61-19.22-19.23c0-1.48,.17-2.93,.49-4.32,1.96-8.54,9.6-14.91,18.73-14.91s16.83,6.41,18.76,15h0s0,.03,0,.04c.01,.04,.02,.07,.02,.11,.12,.52,.21,1.06,.27,1.6,.12,.82,.17,1.65,.17,2.49Z"/><path class="cls-22" d="M197.26,163.12c0,10.61-8.61,19.23-19.23,19.23s-19.22-8.61-19.22-19.23c0-1.48,.17-2.93,.49-4.32,.58,8.75,3.56,16.15,11.22,18.49,22.21,6.8,26.16-17.69,26.27-18.39,0,0,0,.01,0,.02,0,.03,0,.07,.02,.11,.04,.26,.14,.82,.27,1.6,.12,.82,.17,1.65,.17,2.49Z"/><path d="M188.53,163.12c0,5.8-4.7,10.5-10.5,10.5-4.04,0-7.54-2.28-9.3-5.62-.76-1.46-1.2-3.12-1.2-4.88,0-5.8,4.7-10.5,10.5-10.5,3,0,5.7,1.26,7.62,3.27,1.79,1.88,2.88,4.42,2.88,7.23Z"/><path class="cls-102" d="M318.03,299.64c-2.11,4.84-19.97,20.71-49.45,22.27-.71,.04-1.42,.06-2.13,.09-30.75,.89-51.06-15.54-58.07-32.91-7.31-18.11,2.76-29.83,2.76-29.83,6.6-8.73,21.53-9.7,30.45,2.91,6.99,9.88,18.4,26.56,37.48,28.91,5.26,.65,11.1,.21,17.59-1.76,0,0,5.36-11.53,8.54-11.53s1.01,5.21,1.39,7.25c0,0,7.37-7.38,10.16-2.42,0,0,3.05,1.27,1.52,5.21,0,0,3.56,2.79-.89,7.24,0,0,2.79-.39,.64,4.57Z"/><g><rect class="cls-13" x="219.11" y="273.47" width="19.4" height="10.16" transform="translate(-118.56 182.22) rotate(-35.1)"/><rect class="cls-16" x="216.4" y="274.3" width="19.38" height=".8" transform="translate(-116.84 179.95) rotate(-35.1)"/><rect class="cls-16" x="217.3" y="275.58" width="19.38" height=".8" transform="translate(-117.41 180.71) rotate(-35.1)"/><rect class="cls-16" x="218.21" y="276.87" width="19.38" height=".8" transform="translate(-117.99 181.46) rotate(-35.1)"/><rect class="cls-16" x="219.11" y="278.16" width="19.38" height=".8" transform="translate(-118.56 182.21) rotate(-35.1)"/><rect class="cls-16" x="220.02" y="279.44" width="19.38" height=".8" transform="translate(-119.14 182.97) rotate(-35.1)"/><rect class="cls-16" x="220.92" y="280.73" width="19.38" height=".8" transform="translate(-119.71 183.72) rotate(-35.1)"/><rect class="cls-16" x="221.82" y="282.02" width="19.38" height=".8" transform="translate(-120.29 184.47) rotate(-35.1)"/><rect class="cls-17" x="218.81" y="277.22" width="7.74" height="5.52" transform="translate(-120.49 178.95) rotate(-35.1)"/><g><polygon class="cls-13" points="218.59 279.74 218.78 279.88 218.97 279.75 218.9 279.97 219.09 280.11 218.85 280.11 218.78 280.33 218.7 280.1 218.47 280.1 218.66 279.96 218.59 279.74"/><polygon class="cls-13" points="219.44 279.84 219.63 279.98 219.82 279.84 219.74 280.07 219.93 280.21 219.7 280.2 219.62 280.43 219.55 280.2 219.32 280.2 219.51 280.06 219.44 279.84"/><polygon class="cls-13" points="220.08 280.74 220.26 280.88 220.46 280.75 220.38 280.97 220.57 281.11 220.33 281.11 220.26 281.33 220.19 281.11 219.95 281.1 220.15 280.97 220.08 280.74"/><polygon class="cls-13" points="220.71 281.65 220.9 281.79 221.09 281.65 221.02 281.88 221.21 282.02 220.97 282.02 220.9 282.24 220.83 282.01 220.59 282.01 220.78 281.87 220.71 281.65"/><polygon class="cls-13" points="221.35 282.55 221.54 282.69 221.73 282.56 221.65 282.78 221.84 282.93 221.61 282.92 221.53 283.14 221.46 282.92 221.23 282.91 221.42 282.78 221.35 282.55"/><polygon class="cls-13" points="220.5 279.09 220.69 279.23 220.88 279.1 220.8 279.32 220.99 279.47 220.76 279.46 220.68 279.68 220.61 279.46 220.38 279.45 220.57 279.32 220.5 279.09"/><polygon class="cls-13" points="221.13 280 221.32 280.14 221.51 280.01 221.44 280.23 221.63 280.37 221.39 280.37 221.32 280.59 221.25 280.36 221.01 280.36 221.2 280.22 221.13 280"/><polygon class="cls-13" points="221.77 280.9 221.96 281.05 222.15 280.91 222.08 281.13 222.26 281.28 222.03 281.27 221.95 281.49 221.88 281.27 221.65 281.26 221.84 281.13 221.77 280.9"/><polygon class="cls-13" points="222.41 281.81 222.6 281.95 222.79 281.82 222.71 282.04 222.9 282.18 222.67 282.18 222.59 282.4 222.52 282.17 222.28 282.17 222.48 282.03 222.41 281.81"/><polygon class="cls-13" points="221.56 278.35 221.74 278.49 221.94 278.36 221.86 278.58 222.05 278.72 221.81 278.72 221.74 278.94 221.67 278.71 221.43 278.71 221.63 278.57 221.56 278.35"/><polygon class="cls-13" points="222.19 279.25 222.38 279.4 222.57 279.26 222.5 279.48 222.69 279.63 222.45 279.62 222.38 279.85 222.31 279.62 222.07 279.61 222.26 279.48 222.19 279.25"/><polygon class="cls-13" points="222.83 280.16 223.02 280.3 223.21 280.17 223.13 280.39 223.32 280.53 223.09 280.53 223.01 280.75 222.94 280.52 222.71 280.52 222.9 280.39 222.83 280.16"/><polygon class="cls-13" points="223.46 281.06 223.65 281.21 223.85 281.07 223.77 281.3 223.96 281.44 223.72 281.43 223.65 281.66 223.58 281.43 223.34 281.43 223.53 281.29 223.46 281.06"/><polygon class="cls-13" points="222.61 277.6 222.8 277.75 222.99 277.61 222.92 277.84 223.11 277.98 222.87 277.97 222.8 278.2 222.73 277.97 222.49 277.97 222.68 277.83 222.61 277.6"/><polygon class="cls-13" points="223.25 278.51 223.44 278.65 223.63 278.52 223.56 278.74 223.74 278.88 223.51 278.88 223.43 279.1 223.36 278.88 223.13 278.87 223.32 278.74 223.25 278.51"/><polygon class="cls-13" points="223.89 279.42 224.08 279.56 224.27 279.42 224.19 279.65 224.38 279.79 224.15 279.78 224.07 280.01 224 279.78 223.76 279.78 223.96 279.64 223.89 279.42"/><polygon class="cls-13" points="224.52 280.32 224.71 280.46 224.9 280.33 224.83 280.55 225.02 280.69 224.78 280.69 224.71 280.91 224.64 280.69 224.4 280.68 224.59 280.55 224.52 280.32"/><polygon class="cls-13" points="223.67 276.86 223.86 277 224.05 276.87 223.98 277.09 224.17 277.23 223.93 277.23 223.86 277.45 223.79 277.23 223.55 277.22 223.74 277.09 223.67 276.86"/><polygon class="cls-13" points="224.31 277.77 224.5 277.91 224.69 277.77 224.61 278 224.8 278.14 224.57 278.13 224.49 278.36 224.42 278.13 224.19 278.13 224.38 277.99 224.31 277.77"/><polygon class="cls-13" points="224.94 278.67 225.13 278.81 225.33 278.68 225.25 278.9 225.44 279.05 225.2 279.04 225.13 279.26 225.06 279.04 224.82 279.03 225.01 278.9 224.94 278.67"/><polygon class="cls-13" points="225.58 279.58 225.77 279.72 225.96 279.58 225.89 279.81 226.08 279.95 225.84 279.95 225.76 280.17 225.69 279.94 225.46 279.94 225.65 279.8 225.58 279.58"/><polygon class="cls-13" points="219.23 280.64 219.42 280.79 219.61 280.65 219.53 280.88 219.72 281.02 219.49 281.01 219.41 281.24 219.34 281.01 219.11 281.01 219.3 280.87 219.23 280.64"/><polygon class="cls-13" points="219.86 281.55 220.05 281.69 220.24 281.56 220.17 281.78 220.36 281.92 220.12 281.92 220.05 282.14 219.98 281.92 219.74 281.91 219.93 281.78 219.86 281.55"/><polygon class="cls-13" points="220.5 282.46 220.69 282.6 220.88 282.46 220.81 282.69 220.99 282.83 220.76 282.82 220.68 283.05 220.61 282.82 220.38 282.82 220.57 282.68 220.5 282.46"/><polygon class="cls-13" points="221.14 283.36 221.33 283.5 221.52 283.37 221.44 283.59 221.63 283.73 221.4 283.73 221.32 283.95 221.25 283.73 221.02 283.72 221.21 283.59 221.14 283.36"/><polygon class="cls-13" points="219.64 279.01 219.82 279.15 220.02 279.01 219.94 279.24 220.13 279.38 219.89 279.37 219.82 279.6 219.75 279.37 219.51 279.37 219.71 279.23 219.64 279.01"/><polygon class="cls-13" points="220.27 279.91 220.46 280.05 220.65 279.92 220.58 280.14 220.77 280.28 220.53 280.28 220.46 280.5 220.39 280.28 220.15 280.27 220.34 280.14 220.27 279.91"/><polygon class="cls-13" points="220.91 280.82 221.1 280.96 221.29 280.82 221.21 281.05 221.4 281.19 221.17 281.18 221.09 281.41 221.02 281.18 220.79 281.18 220.98 281.04 220.91 280.82"/><polygon class="cls-13" points="221.54 281.72 221.73 281.86 221.93 281.73 221.85 281.95 222.04 282.1 221.8 282.09 221.73 282.31 221.66 282.09 221.42 282.08 221.61 281.95 221.54 281.72"/><polygon class="cls-13" points="222.18 282.63 222.37 282.77 222.56 282.63 222.49 282.86 222.68 283 222.44 283 222.36 283.22 222.29 282.99 222.06 282.99 222.25 282.85 222.18 282.63"/><polygon class="cls-13" points="220.71 278.25 220.9 278.39 221.09 278.26 221.01 278.48 221.2 278.63 220.97 278.62 220.89 278.84 220.82 278.62 220.59 278.61 220.78 278.48 220.71 278.25"/><polygon class="cls-13" points="221.34 279.16 221.53 279.3 221.72 279.16 221.65 279.39 221.84 279.53 221.6 279.53 221.53 279.75 221.46 279.52 221.22 279.52 221.41 279.38 221.34 279.16"/><polygon class="cls-13" points="221.98 280.06 222.17 280.21 222.36 280.07 222.29 280.29 222.47 280.44 222.24 280.43 222.16 280.65 222.09 280.43 221.86 280.42 222.05 280.29 221.98 280.06"/><polygon class="cls-13" points="222.62 280.97 222.81 281.11 223 280.98 222.92 281.2 223.11 281.34 222.88 281.34 222.8 281.56 222.73 281.33 222.5 281.33 222.69 281.19 222.62 280.97"/><polygon class="cls-13" points="223.25 281.87 223.44 282.02 223.63 281.88 223.56 282.1 223.75 282.25 223.51 282.24 223.44 282.47 223.37 282.24 223.13 282.23 223.32 282.1 223.25 281.87"/><polygon class="cls-13" points="221.76 277.51 221.95 277.66 222.14 277.52 222.06 277.74 222.25 277.89 222.02 277.88 221.94 278.1 221.87 277.88 221.64 277.87 221.83 277.74 221.76 277.51"/><polygon class="cls-13" points="222.4 278.42 222.58 278.56 222.78 278.43 222.7 278.65 222.89 278.79 222.65 278.79 222.58 279.01 222.51 278.78 222.27 278.78 222.47 278.64 222.4 278.42"/><polygon class="cls-13" points="223.03 279.32 223.22 279.47 223.41 279.33 223.34 279.55 223.53 279.7 223.29 279.69 223.22 279.92 223.15 279.69 222.91 279.68 223.1 279.55 223.03 279.32"/><polygon class="cls-13" points="223.67 280.23 223.86 280.37 224.05 280.24 223.97 280.46 224.16 280.6 223.93 280.6 223.85 280.82 223.78 280.59 223.55 280.59 223.74 280.46 223.67 280.23"/><polygon class="cls-13" points="224.3 281.13 224.49 281.28 224.68 281.14 224.61 281.37 224.8 281.51 224.56 281.5 224.49 281.73 224.42 281.5 224.18 281.5 224.37 281.36 224.3 281.13"/><polygon class="cls-13" points="222.81 276.77 223 276.92 223.19 276.78 223.12 277 223.3 277.15 223.07 277.14 222.99 277.37 222.92 277.14 222.69 277.13 222.88 277 222.81 276.77"/><polygon class="cls-13" points="223.45 277.68 223.64 277.82 223.83 277.69 223.75 277.91 223.94 278.05 223.71 278.05 223.63 278.27 223.56 278.05 223.32 278.04 223.52 277.91 223.45 277.68"/><polygon class="cls-13" points="224.08 278.58 224.27 278.73 224.46 278.59 224.39 278.82 224.58 278.96 224.34 278.95 224.27 279.18 224.2 278.95 223.96 278.95 224.15 278.81 224.08 278.58"/><polygon class="cls-13" points="224.72 279.49 224.91 279.63 225.1 279.5 225.02 279.72 225.21 279.86 224.98 279.86 224.9 280.08 224.83 279.86 224.6 279.85 224.79 279.72 224.72 279.49"/><polygon class="cls-13" points="225.36 280.4 225.54 280.54 225.74 280.4 225.66 280.63 225.85 280.77 225.61 280.76 225.54 280.99 225.47 280.76 225.23 280.76 225.43 280.62 225.36 280.4"/><polygon class="cls-13" points="223.88 276.02 224.07 276.16 224.26 276.03 224.19 276.25 224.38 276.39 224.14 276.39 224.07 276.61 224 276.39 223.76 276.38 223.95 276.25 223.88 276.02"/><polygon class="cls-13" points="224.52 276.93 224.71 277.07 224.9 276.93 224.82 277.16 225.01 277.3 224.78 277.29 224.7 277.52 224.63 277.29 224.4 277.29 224.59 277.15 224.52 276.93"/><polygon class="cls-13" points="225.15 277.83 225.34 277.97 225.54 277.84 225.46 278.06 225.65 278.2 225.41 278.2 225.34 278.42 225.27 278.2 225.03 278.19 225.23 278.06 225.15 277.83"/><polygon class="cls-13" points="225.79 278.74 225.98 278.88 226.17 278.74 226.1 278.97 226.29 279.11 226.05 279.11 225.98 279.33 225.91 279.1 225.67 279.1 225.86 278.96 225.79 278.74"/><polygon class="cls-13" points="226.43 279.64 226.62 279.79 226.81 279.65 226.73 279.87 226.92 280.02 226.69 280.01 226.61 280.23 226.54 280.01 226.31 280 226.5 279.87 226.43 279.64"/></g></g><path class="cls-103" d="M318.03,299.64c-2.11,4.84-19.97,20.71-49.45,22.27-2.44-16.04,6.92-27.22,10.49-30.84,5.26,.65,11.1,.21,17.59-1.76,0,0,5.36-11.53,8.54-11.53s1.01,5.21,1.39,7.25c0,0,7.37-7.38,10.16-2.42,0,0,3.05,1.27,1.52,5.21,0,0,3.56,2.79-.89,7.24,0,0,2.79-.39,.64,4.57Z"/><path class="cls-7" d="M316.76,282.61s-5.85,2.95-8.25,7.2"/><path class="cls-9" d="M318.28,287.82s-4.36,1.92-6.45,5.87"/><path class="cls-8" d="M317.39,295.06s-3.59,2.5-4.76,4.9"/><path class="cls-4" d="M379.1,227.35s-4.37,4.97-4.97,9.81"/><path class="cls-5" d="M382.59,231.57s-3.36,3.45-3.79,7.89"/><path class="cls-6" d="M384.6,238.6s-2.41,3.69-2.57,6.36"/><path class="cls-86" d="M297.08,354.53s-11.28-6.41-28.9-16.29c0,0,27.15,12.35,27.39-.68l1.51,16.97Z"/><polygon class="cls-23" points="218.78 348.63 278.39 406.08 318.28 394.15 286.72 368.39 218.78 348.63"/><g><path class="cls-87" d="M293.03,275.93c0,.23-.01,.45-.01,.68v.26c-.66,.07-2.43,.59-3.79-1.2,1.29,.74,2.65,.74,3.81,.26Z"/><path class="cls-88" d="M293.01,276.6v.26c0,.32,0,.64,0,.96,0,.29,0,.59,0,.89,0,.55-.01,1.11,0,1.68-.08,.04-.17,.07-.26,.1-.3,.12-.61,.21-.93,.3-4.23,1.16-8.56-.57-10.88-3.99,.28,.21,2.23,1.12,3.07,.69,.11-.08,.45-.03,.88,.09,0,0,0,0,0,0,.65,.17,1.48,.48,2.05,.67,.47,.16,.75,.24,.57,.1-.11-.09-.24-.23-.37-.4-.26-.34-.57-.84-.84-1.43-1.12-2.44-1.75-6.53,2.45-8.48,.2-.06,.27-.02,.12,.1-.01,0-.02,.01-.04,.02-2.08,1.49-1.62,4.29,.94,5.06,.39,.12,.76,.2,1.07,.36,.63,.34,.72,1.12,.13,1.53-.46,.32-1.29,.57-1.76,.54,.97,.89,2.44,1.12,3.79,.94Z"/><path class="cls-90" d="M293,277.82c0,.29,0,.59,0,.89-.32,.15-.65,.27-1,.37-1.34,.39-2.83,.45-4.01,.15-.57-.15-1.1-.35-1.6-.62-.54-.29-1.04-.63-1.5-1.03,0,0,0,0,0,0-2.62-2.31-3.52-6.28-.41-9.15,2.12-1.96,5.86-1.98,7.55-3.55h.01c-.1,1.73-1.77,2.46-3.16,3.26-.01,0-.02,.01-.04,.02-.18,.11-.37,.22-.54,.33-2.46,1.65-2.76,4.67-1.44,6.85,1.12,1.83,3.32,3.03,6.15,2.48Z"/><path class="cls-91" d="M283.96,272.01c.11-.45-.84,1.19-.85,.35-.03-1.98,1.59-3.78,3.19-4.75,.74-.44,1.55-.78,2.39-1.07,1.22-.43,2.42-.77,3.1-1.4,.52-.48,.72-1.29,.32-1.9-.14-.22-.35-.22-.71-.14-3.12,.72-3.83-1.94-7.56-.14-.82-.31-1.36,.25-1.04,.69l.03,.03h0c-2.93,2.4-4.33,6.37-3.25,10.24,.06,.23,.13,.45,.21,.67l.03,.08c.18,.49,.4,.96,.64,1.41l.04,.07s.04,.07,.06,.11c.03,.05,.06,.1,.09,.14l.03,.04c.04,.06,.08,.12,.12,.18h0c.03,.06,.07,.11,.11,.17,1.11,1.61,4.04,2.78,5.81,1.66,.72-.45,.57-1.27-.06-1.7-.17-.12-.37-.22-.56-.32-1.87-.99-2.5-2.91-2.14-4.41Z"/></g></g><g><path class="cls-89" d="M429.42,231.93l-5.95,15.55-13.77,36-3.88,10.16-21.9-11.97,10.77-13.36,21.92-27.19,9.12-11.31c1.54-1.91,4.56-.17,3.68,2.12Z"/><path class="cls-49" d="M409.71,283.48l-3.88,10.16-21.9-11.97,10.77-13.36c2.93,4.72,7.77,10.85,15.01,15.16Z"/><path class="cls-47" d="M429.42,231.93l-5.95,15.55c-3.01-1.53-5.23-3.9-6.86-6.36l9.12-11.31c1.54-1.91,4.56-.17,3.68,2.12Z"/><g><path class="cls-48" d="M443.16,422.84l-21.65,36.11-2.32,3.87c-.98,1.65-3.11,2.18-4.76,1.19l-66.6-39.94,27.53-45.91h0l66.6,39.93c1.64,.98,2.18,3.11,1.19,4.75Z"/><path class="cls-38" d="M421.5,458.95l-2.32,3.87c-.98,1.65-3.11,2.18-4.76,1.19l-66.6-39.94,27.53-45.91h0s-3.98,49.51,46.14,80.79Z"/><rect class="cls-46" x="399.49" y="375.32" width=".74" height="81.47" transform="translate(-161.39 550.2) rotate(-59.58)"/><rect class="cls-44" x="390.41" y="390.55" width=".74" height="81.47" transform="translate(-179 549.89) rotate(-59.58)"/><rect class="cls-45" x="357.16" y="414.31" width="53.55" height=".73" transform="translate(-168.85 532.12) rotate(-59.2)"/><polygon class="cls-42" points="395 452.44 394.37 452.06 421.81 406.08 422.44 406.46 395 452.44"/></g><path class="cls-43" d="M452.2,322.46c-21.43,29.76-62.47,38.58-94.44,19.32-2.38-1.43-4.65-2.98-6.8-4.64-26.71-20.6-35.35-57.47-20.26-87.88,1.4-2.84,4.92-3.9,7.64-2.26l112.27,67.64s0,0,0,0c2.71,1.63,3.43,5.23,1.57,7.81Z"/><path class="cls-41" d="M452.2,322.46c-21.43,29.76-62.47,38.58-94.44,19.32-2.38-1.43-4.65-2.98-6.8-4.64,10.97,3.36,28.56,5.89,52.12,2.48,25.4-3.67,41.57-18.51,47.54-24.97,2.71,1.63,3.43,5.23,1.57,7.81Z"/><g><path class="cls-67" d="M314.68,344.35l-4.37,7.33-23.04,38.67-67.02-39.92c-1.65-.98-2.18-3.11-1.21-4.75l1.4-2.36,22.46-37.69c.98-1.65,3.1-2.18,4.75-1.21l67.02,39.92Z"/><path class="cls-31" d="M310.32,351.68l-23.04,38.67-67.02-39.92c-1.65-.98-2.18-3.11-1.21-4.75l1.4-2.36c30.38,18.82,72.38,12.28,89.85,8.36Z"/><rect class="cls-68" x="269.18" y="299.79" width=".74" height="81.47" transform="translate(-160.58 400.54) rotate(-59.58)"/><rect class="cls-64" x="260.11" y="315.02" width=".74" height="81.47" transform="translate(-178.19 400.24) rotate(-59.58)"/><rect class="cls-63" x="226.86" y="338.78" width="53.54" height=".73" transform="translate(-167.55 383.34) rotate(-59.2)"/><rect class="cls-66" x="251.32" y="353.36" width="53.54" height=".73" transform="translate(-168.14 411.47) rotate(-59.2)"/></g><rect class="cls-65" x="328.35" y="339.58" width="53.62" height="9.4" rx="3.35" ry="3.35" transform="translate(226.87 -133.43) rotate(30.86)"/><path class="cls-61" d="M379.67,370.86l-2.89,4.83-33.6,56.24-1.98,3.32c-2.33,3.9-7.39,5.18-11.3,2.84l-45.38-27.11c-3.9-2.34-5.18-7.39-2.84-11.31l2.11-3.53,33.23-55.62,3.12-5.23c2.34-3.9,7.39-5.18,11.31-2.84l45.38,27.11c3.91,2.34,5.18,7.39,2.85,11.31Z"/><polygon class="cls-60" points="376.78 375.69 343.18 431.93 296.07 403.55 283.78 396.15 317.01 340.52 343.94 356.37 376.78 375.69"/><path class="cls-62" d="M436.74,229c0,4.95-4.01,8.95-8.95,8.95s-8.96-4.01-8.96-8.95c0-2.68,1.18-5.09,3.06-6.74,1.58-1.38,3.65-2.22,5.9-2.22,4.52,0,8.25,3.35,8.86,7.71,.06,.4,.09,.82,.09,1.25Z"/><path class="cls-56" d="M436.65,227.75c-.56,3.9-3.91,6.89-7.97,6.89-4.45,0-8.06-3.61-8.06-8.06,0-1.59,.46-3.07,1.26-4.32,1.58-1.38,3.65-2.22,5.9-2.22,4.52,0,8.25,3.35,8.86,7.71Z"/><path class="cls-57" d="M338.45,303.64c-1.11,0-2.17-.63-2.67-1.7-2.13-4.6-3.52-9.47-4.11-14.49-.68-5.72-.31-11.47,1.08-17.09,.39-1.58,1.99-2.54,3.56-2.15,1.58,.39,2.54,1.99,2.15,3.56-1.22,4.93-1.54,9.97-.95,14.98,.52,4.4,1.73,8.67,3.6,12.71,.68,1.47,.04,3.22-1.43,3.9-.4,.19-.82,.27-1.24,.27Z"/><path class="cls-58" d="M376.78,375.69l-33.6,56.24-47.11-28.38c14.3-.62,42.63-7.03,47.87-47.18l32.84,19.32Z"/></g><g><path class="cls-59" d="M386.11,367.68c-6.84,2.06-24.37,8.18-33.8,19.24-5.36,6.28-14.27,20.1-28.24,33.31-17.02,16.08-41.52,31.25-76.22,30.71-23.01-.36-41.65-6.17-56.08-14.97-17.49-10.65-28.81-25.69-34.28-40.74-1.17-3.2-2.07-6.4-2.71-9.56-5.01-24.88,3.85-51.87,3.85-51.87,0,0-4.95,42.95,26.04,61.73,30.99,18.78,61.85,8.62,72.25,3.73,6.09-2.87,10.59-4.66,14.23-5.73,5.12-1.51,8.54-1.58,12.3-1.16,0,0-8.57,4.54-9.67,7.52,0,0,1.34-.12,3.7-.68,5.24-1.22,15.54-4.51,27.51-13.12,15.88-11.41,21-8.73,21-8.73,0,0-6.95,5.42-11.02,12.42h.01c.46-.32,10.22-6.98,20.88-12.76,5.4-2.93,11.03-5.62,15.8-7.14,11.83-3.78,27.56-4.64,34.28-3.79,.87,.11,.98,1.33,.13,1.59Z"/><path class="cls-14" d="M273.81,399.89s1.34-.12,3.7-.68c-1.6,1.16-2.93,2.02-3.65,2.21-2.71,.72,1.26-1.73,0-5.06-.49-1.33-1.57-2.23-2.69-2.83,5.12-1.51,8.54-1.58,12.3-1.16,0,0-8.57,4.54-9.67,7.52Z"/><path class="cls-53" d="M335.9,377.02v5.88l-11.83,37.32c-17.02,16.08-41.52,31.25-76.22,30.71-23.01-.36-41.65-6.17-56.08-14.97-17.49-10.65-28.81-25.69-34.28-40.74,14.33,15.87,35.83,23.49,61.33,22.32,31.92-1.46,54.97-17.66,54.97-17.66,0,0,13.28-1.26,30.15-13.05,.35-.24,.71-.49,1.07-.75,15.88-11.41,21-8.73,21-8.73,0,0-6.95,5.42-11.02,12.42h.01c.21-.15,2.38-1.63,5.69-3.75,3.91-2.5,9.42-5.89,15.19-9.01Z"/><path class="cls-14" d="M315.01,389.78h.01c.21-.15,2.38-1.63,5.69-3.75-2.51,3.43-6.98,8.96-7.09,9.09-.14,.15-.96-5.08-4.79-7.53-1.5-.97-3.28-1.03-4.88-.74,.35-.24,.71-.49,1.07-.75,15.88-11.41,21-8.73,21-8.73,0,0-6.95,5.42-11.02,12.42Z"/><path class="cls-54" d="M386.11,367.68c-5.26,1.58-16.83,5.56-26.19,12.35-2.82,2.04-5.42,4.33-7.61,6.89-11.89,13.93-41.3,65-104.46,64.02-23.01-.36-41.65-6.17-56.08-14.97,22.15,5.92,45.79,5.12,66.94-2.47,26.76-9.6,56.29-43.71,56.29-43.71h.01c.68-.48,22.51-15.38,36.68-19.91,2.26-.72,4.66-1.34,7.12-1.85,10.39-2.19,21.72-2.62,27.16-1.93,.87,.11,.98,1.33,.13,1.59Z"/></g><path class="cls-15" d="M323.04,181.1c-.25,0-.5-.03-.75-.1-1.57-.41-2.51-2.02-2.1-3.59,.01-.05,1.38-5.44,1.11-13.02-.27-7.3-3.78-13.53-3.82-13.59-.8-1.41-.32-3.2,1.09-4.01,1.41-.81,3.2-.33,4.01,1.08,.17,.3,4.27,7.5,4.59,16.31,.31,8.51-1.23,14.49-1.3,14.74-.35,1.32-1.54,2.19-2.84,2.19Z"/><circle class="cls-15" cx="319.55" cy="189.37" r="3.69"/><path class="cls-14" d="M386.11,367.68c-5.26,1.58-16.83,5.56-26.19,12.35,2.91-3.33,3.67-4.89,3.02-7.74-.72-3.19-3.02-3.39-4.13-4.26,10.39-2.19,21.72-2.62,27.16-1.93,.87,.11,.98,1.33,.13,1.59Z"/><path class="cls-55" d="M311.8,217.74c-.22,.17-1.62,1.23-4.07,2.55-.43,.23-.9,.47-1.4,.71l2.61-1.56,2.86-1.71Z"/><path class="cls-50" d="M294.58,288.57v-.11c0,.07,0,.11,0,.11Z"/><path class="cls-51" d="M294.64,288.12l.33-3.14c-.14,1.47-.26,2.57-.33,3.14Z"/></g><g><path class="cls-52" d="M396.69,133.45c-.85,.25-1.58-.74-1.07-1.48,.84-1.2,1.57-2.86,1.14-4.67-.16-.72-1.03-1.03-1.59-.52-2.42,2.12-8.95,7.3-16.22,7.84-.34,.06-.61-.1-.8-.33-.24-.16-.43-.41-.43-.77-.25-7.27,4.17-14.34,6.02-16.98,.45-.61,.04-1.44-.69-1.53-1.85-.23-3.43,.67-4.53,1.64-.67,.6-1.73-.01-1.57-.89,1.01-5.63,5-10.01,7.1-11.98l2.27,2.06,19.65,17.9,1.66,1.51c-1.79,2.38-5.63,6.64-10.94,8.18Z"/><path class="cls-79" d="M396.69,133.45c-.85,.25-1.58-.74-1.07-1.48,.84-1.2,1.57-2.86,1.14-4.67-.16-.72-1.03-1.03-1.59-.52-2.42,2.12-8.95,7.3-16.22,7.84-.34,.06-.61-.1-.8-.33-.24-.16-.43-.41-.43-.77-.25-7.27,4.17-14.34,6.02-16.98,.45-.61,.04-1.44-.69-1.53-1.85-.23-3.43,.67-4.53,1.64-.67,.6-1.73-.01-1.57-.89,1.01-5.63,5-10.01,7.1-11.98l2.27,2.06c-1.58,1.42-5.9,5.51-3.83,5.85,2.49,.41,6.26,1.57,3.47,5.71-1.76,2.61-3.27,7.39-4.13,10.54-.33,1.19,.92,2.18,2,1.6,3.13-1.7,8.07-4.32,10.27-5.25,3.35-1.42,6.58-.09,5.4,3.41-1.06,3.13,4.46-1.29,6.48-3.95l1.66,1.51c-1.79,2.38-5.63,6.64-10.94,8.18Z"/><path class="cls-78" d="M417.54,129.7s-6.8-.47-21.25-12.95l-.02,.02c-.32-.29-.59-.55-.9-.82s-.61-.52-.93-.81l.02-.02c-13.69-12.7-14.82-19.33-14.82-19.33,2.3-2.14,5-2.71,7.21-2.73,2.41,0,4.2,.66,4.2,.66l27.16,24.31s.97,1.92,1.2,4.52c.2,2.16-.11,4.76-1.88,7.15Z"/><path class="cls-85" d="M419.43,122.55c-3.51-1.08-11.19-4.12-19.22-11.46-8.47-7.74-12.13-15.11-13.34-18.03,2.41,0,4.2,.66,4.2,.66l27.16,24.31s.97,1.92,1.2,4.52Z"/><path class="cls-84" d="M418.97,118.7l-28.4-25.42c10.26-10.76,19.35-17.11,26.8-20.82h.01c9.62-4.8,16.49-5.22,19.71-5.07,1.24,.07,2.26,.99,2.47,2.21,.52,3.2,.85,10.18-2.95,20.38-2.89,7.79-8.17,17.47-17.65,28.72Z"/><circle class="cls-83" cx="422.87" cy="85.62" r="7.19"/><circle class="cls-82" cx="422.87" cy="85.62" r="5.15"/><path class="cls-39" d="M404.06,105.35l-13.48-12.07c10.26-10.76,19.35-17.11,26.8-20.82-6.45,6.74-13.71,17.73-13.31,32.89Z"/><path class="cls-40" d="M418.97,118.7l-14.91-13.35s11.95,2.48,32.56-15.37c-2.89,7.79-8.17,17.47-17.65,28.72Z"/></g><path class="cls-80" d="M342.02,422.82l1.9,3.65c.2,.5,.73,.78,1.28,.9l4.11,.5c1.41,.18,2.03,1.92,1.02,2.92l-2.89,2.92c-.41,.42-.6,.99-.47,1.52l.79,4.01c.31,1.37-1.16,2.47-2.43,1.82l-3.66-1.85s-11.43,14.3-34.39,13.54c0,0,23.07-8.2,26.77-18.77l-2.97-2.8c-1.07-.98-.51-2.7,.89-2.94l4.07-.65c.56-.06,1.07-.43,1.28-.94l1.74-3.7c.58-1.23,2.38-1.3,2.95-.12Z"/><path class="cls-81" d="M441.85,257.47l3.28,.48c.42,.1,.86-.11,1.19-.41l2.26-2.45c.78-.83,2.21-.42,2.39,.71l.54,3.27c.08,.47,.37,.86,.77,1.02l2.99,1.37c1.04,.45,1.06,1.92,.04,2.44l-2.93,1.52s3.95,14.2-7.36,28.84c0,0,5.51-18.93,.35-26.33l-3.22,.62c-1.14,.23-2.01-.94-1.5-1.97l1.49-2.96c.22-.39,.22-.9,0-1.28l-1.6-2.88c-.53-.96,.27-2.17,1.31-1.98Z"/><path class="cls-77" d="M332.02,365.97l-2.87-.08c-.38-.03-.78,.18-.99,.51l-1.69,2.34c-.59,.8-1.84,.6-2.12-.37l-.81-2.74c-7.79-1.02-20.21,10.83-20.21,10.83,6.78-14.61,19.34-17.25,19.34-17.25v-2.88c0-1,1.15-1.57,1.91-.95l2.26,1.77c.29,.25,.71,.31,1.1,.19l2.74-.89c.94-.32,1.84,.62,1.51,1.56l-.99,2.73c-.1,.38-.09,.8,.16,1.08l1.68,2.34c.56,.73-.05,1.84-1,1.81Z"/><path class="cls-70" d="M402.51,353.87l1.82,3.44c.2,.51,.71,.81,1.21,.91l3.84,.51c1.31,.2,1.92,1.82,1.01,2.73l-2.73,2.83c-.4,.4-.51,.91-.4,1.42l.71,3.84c.3,1.31-1.11,2.33-2.33,1.72l-3.54-1.72c-.51-.2-1.01-.2-1.52,0l-3.44,1.92c-1.21,.61-2.63-.3-2.43-1.62l.61-3.84c.1-.51-.1-1.11-.51-1.42l-2.83-2.63c-1.01-.91-.51-2.53,.81-2.83l3.84-.61c.51-.1,1.01-.4,1.21-.91l1.62-3.54c.71-1.42,2.43-1.42,3.03-.2Z"/><path class="cls-75" d="M365.9,190.25l1.82,3.44c.2,.51,.71,.81,1.21,.91l3.84,.51c1.31,.2,1.92,1.82,1.01,2.73l-2.73,2.83c-.4,.4-.51,.91-.4,1.42l.71,3.84c.3,1.31-1.11,2.33-2.33,1.72l-3.54-1.72c-.51-.2-1.01-.2-1.52,0l-3.44,1.92c-1.21,.61-2.63-.3-2.43-1.62l.61-3.84c.1-.51-.1-1.11-.51-1.42l-2.83-2.63c-1.01-.91-.51-2.53,.81-2.83l3.84-.61c.51-.1,1.01-.4,1.21-.91l1.62-3.54c.71-1.42,2.43-1.42,3.03-.2Z"/><g><path class="cls-76" d="M132.88,101c0,2.92-.24,5.78-.72,8.56-.49,2.82-1.19,5.56-2.12,8.2-1.04,3-2.36,5.87-3.93,8.58-8.45,14.66-24.01,24.69-41.99,25.4-.67,.02-1.35,.04-2.03,.04-22.99,0-42.41-15.27-48.66-36.24-.35-1.15-.65-2.33-.9-3.51-.79-3.55-1.21-7.24-1.21-11.03,0-1.53,.07-3.04,.21-4.53,.62-7.07,2.7-13.73,5.92-19.67,8.59-15.83,25.37-26.58,44.65-26.58,6.54,0,12.8,1.24,18.54,3.5,5.4,2.11,10.35,5.12,14.66,8.85,10.78,9.31,17.59,23.07,17.59,38.43Z"/><path class="cls-37" d="M130.04,117.77c-1.04,3-2.36,5.87-3.93,8.58-8.45,14.66-24.01,24.69-41.99,25.4-.67,.02-1.35,.04-2.03,.04-22.99,0-42.41-15.27-48.66-36.24-.35-1.15-.65-2.33-.9-3.51,17.03,15.03,47.68,28.04,97.51,5.73Z"/><path class="cls-71" d="M100.64,53.73c-4.98,8.87-23.07,20.53-29.63,20.14-6.95-.4,9.4-10.63,2.04-13.08-7.36-2.46-35.6,16.02-35.6,16.02,8.59-15.83,25.37-26.58,44.65-26.58,6.54,0,12.8,1.24,18.54,3.5Z"/><path class="cls-73" d="M33.44,115.55c-1.38-4.61-2.12-9.49-2.12-14.55,0-1.53,.07-3.04,.2-4.53,9.05-6.17,24.9-16,28.6-11.85,4.65,5.23-14.11,21.24-26.68,30.92Z"/><path class="cls-74" d="M126.12,126.35c-8.46,14.66-24.02,24.69-41.99,25.4,3.11-8.71,31.13-20.91,41.99-25.4Z"/><path class="cls-69" d="M132.89,101.01c0,2.92-.25,5.78-.72,8.56-8.85,5.83-25.8,16.6-36.05,20.49-6.97,2.64-13.39,1.51-12.77-3.39,.37-2.94,2.12-4.98,3.62-6.16-1.11,.49-2.69,1.11-4.86,1.87-10.71,3.75-18.48-6.83-5.36-16.6,4.64-3.46,11.02-6.79,13.24-8.54,2.92-2.3,.49-5.67-1.9-5.24-3.3,.6-9.22,2.68-11.46,.3-2.1-2.23-.06-4.96,1.02-5.98,8.17-7.77,26.25-17.81,37.65-23.75,10.78,9.31,17.59,23.08,17.59,38.43Z"/><path class="cls-72" d="M156.89,59.77c-1.01-1.84-2.81-3.17-5.29-4.02-7.59-2.62-21.58-.76-38.76,4.84,1.59,1.21,3.1,2.51,4.54,3.9,12.95-3.9,21.99-4.42,24.07-.65,1.96,3.59-2.74,10.41-12.02,18.67,0,0-.01,0-.01,0-10.24,9.11-26.05,19.96-44.63,30.15-15.65,8.59-30.65,15.26-42.88,19.38-15.44,5.21-26.44,6.36-28.75,2.15-2.4-4.39,5.18-13.63,18.92-24.42-.35-1.96-.58-3.97-.68-6.01-7.71,5.87-14.26,11.64-19.35,17.02-9.7,10.26-14.1,19.11-11.14,24.52,4.51,8.23,24.92,6.34,51.23-3.32,11.97-4.39,25.17-10.39,38.65-17.78,16.3-8.94,30.67-18.63,41.88-27.87,18.41-15.18,28.31-29.15,24.22-36.58Z"/><path class="cls-2" d="M129.43,82.51c9.28-8.26,13.98-15.08,12.02-18.67-2.07-3.77-11.11-3.25-24.07,.65-1.43-1.39-2.95-2.69-4.54-3.9,17.18-5.6,31.17-7.46,38.76-4.84,2.68,14.09-21.46,26.4-22.18,26.76Z"/><path class="cls-1" d="M13.16,134.21c-2.86-3.41-2.44-8.66-1.12-13.4,5.09-5.38,11.64-11.16,19.35-17.02,.1,2.04,.33,4.04,.68,6.01-13.74,10.79-21.32,20.03-18.92,24.42Z"/></g><path class="cls-20" d="M97.32,183.92l-.06,7.11c-.05,.95,.48,1.92,1.3,2.44l5.88,4.08c2.02,1.43,1.58,4.54-.83,5.27l-6.75,2.14c-2.18,19.35,27.76,49.57,27.76,49.57-36.51-16.12-43.63-47.12-43.63-47.12l-7.13,.13c-2.47,.07-3.94-2.76-2.43-4.67l4.27-5.68c.6-.73,.74-1.76,.41-2.73l-2.33-6.76c-.83-2.32,1.46-4.58,3.8-3.8l6.82,2.32c.94,.23,1.99,.19,2.68-.44l5.72-4.28c1.78-1.43,4.55,.03,4.53,2.41Z"/><path class="cls-19" d="M206.12,51.09l1.82,3.44c.2,.51,.71,.81,1.21,.91l3.84,.51c1.31,.2,1.92,1.82,1.01,2.73l-2.73,2.83c-.4,.4-.51,.91-.4,1.42l.71,3.84c.3,1.31-1.11,2.33-2.33,1.72l-3.54-1.72c-.51-.2-1.01-.2-1.52,0l-3.44,1.92c-1.21,.61-2.63-.3-2.43-1.62l.61-3.84c.1-.51-.1-1.11-.51-1.42l-2.83-2.63c-1.01-.91-.51-2.53,.81-2.83l3.84-.61c.51-.1,1.01-.4,1.21-.91l1.62-3.54c.71-1.42,2.43-1.42,3.03-.2Z"/><path class="cls-18" d="M118.46,1.23l2.53,4.78c.28,.7,.98,1.13,1.69,1.27l5.35,.7c1.83,.28,2.67,2.53,1.41,3.8l-3.8,3.94c-.56,.56-.7,1.27-.56,1.97l.98,5.35c.42,1.83-1.55,3.24-3.24,2.39l-4.92-2.39c-.7-.28-1.41-.28-2.11,0l-4.78,2.67c-1.69,.84-3.66-.42-3.38-2.25l.84-5.35c.14-.7-.14-1.55-.7-1.97l-3.94-3.66c-1.41-1.27-.7-3.52,1.13-3.94l5.35-.84c.7-.14,1.41-.56,1.69-1.27l2.25-4.92c.98-1.97,3.38-1.97,4.22-.28Z"/></g></g></g></g></svg>