<?xml version="1.0" encoding="UTF-8"?><svg xmlns="http://www.w3.org/2000/svg" xmlns:xlink="http://www.w3.org/1999/xlink" viewBox="0 0 597.81 479.17"><defs><style>.cls-1{stroke-width:1.5px;}.cls-1,.cls-2,.cls-3,.cls-4,.cls-5,.cls-6,.cls-7,.cls-8,.cls-9{fill:none;stroke-miterlimit:10;}.cls-1,.cls-2,.cls-3,.cls-9{stroke:#000;}.cls-1,.cls-2,.cls-9{stroke-linecap:round;}.cls-10{fill:url(#linear-gradient);}.cls-11{fill:url(#linear-gradient-104);opacity:.77;}.cls-11,.cls-12,.cls-13,.cls-14,.cls-15,.cls-16,.cls-17,.cls-18,.cls-19,.cls-20,.cls-21,.cls-22,.cls-23,.cls-24,.cls-25,.cls-26,.cls-27,.cls-28,.cls-29,.cls-30{mix-blend-mode:multiply;}.cls-11,.cls-12,.cls-13,.cls-14,.cls-28,.cls-29,.cls-30,.cls-31{isolation:isolate;}.cls-12{fill:url(#linear-gradient-130);}.cls-12,.cls-13,.cls-14,.cls-28,.cls-29{opacity:.5;}.cls-13{fill:url(#linear-gradient-119);}.cls-14{fill:url(#linear-gradient-111);}.cls-32{fill:#fff;}.cls-33{fill:#9c8ea2;}.cls-34{fill:#cf1c31;}.cls-35{fill:#3a3870;}.cls-36{fill:url(#linear-gradient-133);}.cls-37{fill:url(#linear-gradient-132);}.cls-38{fill:url(#linear-gradient-135);}.cls-39{fill:url(#linear-gradient-131);}.cls-40{fill:url(#linear-gradient-136);}.cls-41{fill:url(#linear-gradient-134);}.cls-42{fill:url(#linear-gradient-117);}.cls-43{fill:url(#linear-gradient-118);}.cls-44{fill:url(#linear-gradient-112);}.cls-45{fill:url(#linear-gradient-127);}.cls-46{fill:url(#linear-gradient-128);}.cls-47{fill:url(#linear-gradient-110);}.cls-48{fill:url(#linear-gradient-113);}.cls-49{fill:url(#linear-gradient-114);}.cls-50{fill:url(#linear-gradient-115);}.cls-51{fill:url(#linear-gradient-116);}.cls-52{fill:url(#linear-gradient-106);}.cls-53{fill:url(#linear-gradient-107);}.cls-54{fill:url(#linear-gradient-109);}.cls-55{fill:url(#linear-gradient-108);}.cls-56{fill:url(#linear-gradient-103);}.cls-57{fill:url(#linear-gradient-102);}.cls-58{fill:url(#linear-gradient-105);}.cls-59{fill:url(#linear-gradient-123);}.cls-60{fill:url(#linear-gradient-129);}.cls-61{fill:url(#linear-gradient-122);}.cls-62{fill:url(#linear-gradient-121);}.cls-63{fill:url(#linear-gradient-101);}.cls-64{fill:url(#linear-gradient-100);}.cls-65{fill:url(#linear-gradient-126);}.cls-66{fill:url(#linear-gradient-125);}.cls-67{fill:url(#linear-gradient-124);}.cls-68{fill:url(#linear-gradient-120);}.cls-69{fill:url(#linear-gradient-143);}.cls-70{fill:url(#linear-gradient-141);}.cls-71{fill:url(#linear-gradient-140);}.cls-72{fill:url(#linear-gradient-142);}.cls-15{fill:url(#linear-gradient-32);}.cls-15,.cls-16,.cls-17,.cls-18,.cls-19,.cls-20,.cls-21,.cls-22,.cls-23{opacity:.42;}.cls-16{fill:url(#linear-gradient-75);}.cls-17{fill:url(#linear-gradient-74);}.cls-18{fill:url(#linear-gradient-73);}.cls-19{fill:url(#linear-gradient-67);}.cls-20{fill:url(#linear-gradient-68);}.cls-21{fill:url(#linear-gradient-66);}.cls-22{fill:url(#linear-gradient-64);}.cls-23{fill:url(#linear-gradient-65);}.cls-24{fill:url(#linear-gradient-39);opacity:.28;}.cls-25{fill:url(#linear-gradient-27);}.cls-25,.cls-26,.cls-27{opacity:.21;}.cls-26{fill:url(#linear-gradient-25);}.cls-27{fill:url(#linear-gradient-46);}.cls-2,.cls-3{stroke-width:2px;}.cls-73{fill:url(#linear-gradient-61);opacity:.35;}.cls-74{fill:url(#linear-gradient-8);}.cls-75{fill:url(#linear-gradient-9);}.cls-76{fill:url(#linear-gradient-3);}.cls-77{fill:url(#linear-gradient-4);}.cls-78{fill:url(#linear-gradient-2);}.cls-79{fill:url(#linear-gradient-6);}.cls-80{fill:url(#linear-gradient-7);}.cls-81{fill:url(#linear-gradient-5);}.cls-82{opacity:.25;}.cls-4{stroke:url(#linear-gradient-137);}.cls-5{stroke:url(#linear-gradient-138);}.cls-6{stroke:url(#linear-gradient-139);}.cls-7{stroke:url(#linear-gradient-91);}.cls-8{stroke:url(#linear-gradient-90);}.cls-83{fill:url(#linear-gradient-41);}.cls-83,.cls-84,.cls-85{opacity:.51;}.cls-84{fill:url(#linear-gradient-79);}.cls-85{fill:url(#linear-gradient-80);}.cls-86{fill:url(#linear-gradient-59);}.cls-86,.cls-87{opacity:.9;}.cls-87{fill:url(#linear-gradient-50);}.cls-28{fill:url(#linear-gradient-88);}.cls-29{fill:url(#linear-gradient-99);}.cls-30{fill:url(#linear-gradient-95);opacity:.32;}.cls-88{fill:url(#linear-gradient-57);}.cls-89{fill:url(#linear-gradient-58);}.cls-90{fill:url(#linear-gradient-55);}.cls-91{fill:url(#linear-gradient-56);}.cls-92{fill:url(#linear-gradient-53);}.cls-93{fill:url(#linear-gradient-54);}.cls-94{fill:url(#linear-gradient-51);}.cls-95{fill:url(#linear-gradient-52);}.cls-96{fill:url(#linear-gradient-77);}.cls-97{fill:url(#linear-gradient-78);}.cls-98{fill:url(#linear-gradient-76);}.cls-99{fill:url(#linear-gradient-70);}.cls-100{fill:url(#linear-gradient-71);}.cls-101{fill:url(#linear-gradient-72);}.cls-102{fill:url(#linear-gradient-69);}.cls-103{fill:url(#linear-gradient-63);}.cls-104{fill:url(#linear-gradient-60);}.cls-105{fill:url(#linear-gradient-62);}.cls-106{fill:url(#linear-gradient-98);}.cls-107{fill:url(#linear-gradient-96);}.cls-108{fill:url(#linear-gradient-97);}.cls-109{fill:url(#linear-gradient-94);}.cls-110{fill:url(#linear-gradient-92);}.cls-111{fill:url(#linear-gradient-93);}.cls-112{fill:url(#linear-gradient-81);}.cls-113{fill:url(#linear-gradient-89);}.cls-114{fill:url(#linear-gradient-87);}.cls-115{fill:url(#linear-gradient-86);}.cls-116{fill:url(#linear-gradient-85);}.cls-117{fill:url(#linear-gradient-84);}.cls-118{fill:url(#linear-gradient-83);}.cls-119{fill:url(#linear-gradient-82);}.cls-120{fill:url(#linear-gradient-40);}.cls-121{fill:url(#linear-gradient-43);}.cls-122{fill:url(#linear-gradient-42);}.cls-123{fill:url(#linear-gradient-45);}.cls-124{fill:url(#linear-gradient-44);}.cls-125{fill:url(#linear-gradient-49);}.cls-126{fill:url(#linear-gradient-47);}.cls-127{fill:url(#linear-gradient-48);}.cls-128{fill:url(#linear-gradient-14);}.cls-129{fill:url(#linear-gradient-18);}.cls-130{fill:url(#linear-gradient-22);}.cls-131{fill:url(#linear-gradient-20);}.cls-132{fill:url(#linear-gradient-21);}.cls-133{fill:url(#linear-gradient-23);}.cls-134{fill:url(#linear-gradient-15);}.cls-135{fill:url(#linear-gradient-19);}.cls-136{fill:url(#linear-gradient-16);}.cls-137{fill:url(#linear-gradient-17);}.cls-138{fill:url(#linear-gradient-13);}.cls-139{fill:url(#linear-gradient-12);}.cls-140{fill:url(#linear-gradient-10);}.cls-141{fill:url(#linear-gradient-11);}.cls-142{fill:url(#linear-gradient-24);}.cls-143{fill:url(#linear-gradient-26);}.cls-144{fill:url(#linear-gradient-38);}.cls-145{fill:url(#linear-gradient-35);}.cls-146{fill:url(#linear-gradient-37);}.cls-147{fill:url(#linear-gradient-34);}.cls-148{fill:url(#linear-gradient-36);}.cls-149{fill:url(#linear-gradient-28);}.cls-150{fill:url(#linear-gradient-29);}.cls-151{fill:url(#linear-gradient-33);}.cls-152{fill:url(#linear-gradient-30);}.cls-153{fill:url(#linear-gradient-31);}.cls-9{stroke-width:.75px;}</style><linearGradient id="linear-gradient" x1="539.82" y1="-136.38" x2="438.47" y2="114.72" gradientTransform="matrix(1, 0, 0, 1, 0, 0)" gradientUnits="userSpaceOnUse"><stop offset=".14" stop-color="#8e3bcb"/><stop offset=".5" stop-color="#d767b1"/><stop offset="1" stop-color="#f2535b"/></linearGradient><linearGradient id="linear-gradient-2" x1="436.31" y1="105.96" x2="548.52" y2="-146.35" gradientTransform="matrix(1, 0, 0, 1, 0, 0)" gradientUnits="userSpaceOnUse"><stop offset=".01" stop-color="#8e3bcb"/><stop offset=".48" stop-color="#d767b1"/><stop offset="1" stop-color="#f2535b"/></linearGradient><linearGradient id="linear-gradient-3" x1="397.11" y1="-137.32" x2="226.3" y2="502.29" gradientTransform="matrix(1, 0, 0, 1, 0, 0)" gradientUnits="userSpaceOnUse"><stop offset="0" stop-color="#ffcf3e"/><stop offset=".49" stop-color="#fec347"/><stop offset="1" stop-color="#fc7481"/></linearGradient><linearGradient id="linear-gradient-4" x1="314.15" y1="-1043.54" x2="384.11" y2="-1173.92" gradientTransform="translate(24.94 -996.74) scale(1 -1)" gradientUnits="userSpaceOnUse"><stop offset="0" stop-color="#ffcf3e"/><stop offset="1" stop-color="#fd9668"/></linearGradient><linearGradient id="linear-gradient-5" x1="326.86" y1="289.03" x2="470.95" y2="73.43" gradientTransform="matrix(1, 0, 0, 1, 0, 0)" gradientUnits="userSpaceOnUse"><stop offset="0" stop-color="#ffcf3e"/><stop offset=".31" stop-color="#fec347"/><stop offset="1" stop-color="#fc7481"/></linearGradient><linearGradient id="linear-gradient-6" x1="174.74" y1="293.45" x2="176.04" y2="297.98" gradientTransform="matrix(1, 0, 0, 1, 0, 0)" gradientUnits="userSpaceOnUse"><stop offset="0" stop-color="#8e3bcb"/><stop offset=".5" stop-color="#d767b1"/><stop offset="1" stop-color="#f2535b"/></linearGradient><linearGradient id="linear-gradient-7" x1="306.85" y1="84.64" x2="357.45" y2="259.86" xlink:href="#linear-gradient-6"/><linearGradient id="linear-gradient-8" x1="219.04" y1="28.41" x2="273.7" y2="292.15" gradientTransform="matrix(1, 0, 0, 1, 0, 0)" gradientUnits="userSpaceOnUse"><stop offset="0" stop-color="#e8c499"/><stop offset="1" stop-color="#faebd8"/></linearGradient><linearGradient id="linear-gradient-9" x1="384.09" y1="289.72" x2="385.87" y2="298.27" xlink:href="#linear-gradient-8"/><linearGradient id="linear-gradient-10" x1="131.59" y1="197.74" x2="220.5" y2="304.25" gradientTransform="matrix(1, 0, 0, 1, 0, 0)" gradientUnits="userSpaceOnUse"><stop offset="0" stop-color="#cc61b9"/><stop offset=".3" stop-color="#f2535b"/><stop offset=".46" stop-color="#f35f58"/><stop offset=".61" stop-color="#f57553"/><stop offset="1" stop-color="#ffd33e"/></linearGradient><linearGradient id="linear-gradient-11" x1="186.14" y1="11.46" x2="253.62" y2="92.3" xlink:href="#linear-gradient-10"/><linearGradient id="linear-gradient-12" x1="320.18" y1="56.19" x2="280.34" y2="381.97" gradientTransform="matrix(1, 0, 0, 1, 0, 0)" gradientUnits="userSpaceOnUse"><stop offset=".37" stop-color="#ffd33d"/><stop offset=".93" stop-color="#f1535b"/></linearGradient><linearGradient id="linear-gradient-13" x1="276.71" y1="210.68" x2="257.59" y2="327.09" gradientTransform="matrix(1, 0, 0, 1, 0, 0)" gradientUnits="userSpaceOnUse"><stop offset="0" stop-color="#ffd33d"/><stop offset=".33" stop-color="#f89b49"/><stop offset=".68" stop-color="#f36756"/><stop offset=".84" stop-color="#f1535b"/></linearGradient><linearGradient id="linear-gradient-14" x1="322.57" y1="168.97" x2="323.01" y2="149.96" gradientTransform="matrix(1, 0, 0, 1, 0, 0)" gradientUnits="userSpaceOnUse"><stop offset="0" stop-color="#ffd33d"/><stop offset="1" stop-color="#f1535b"/></linearGradient><linearGradient id="linear-gradient-15" x1="353.95" y1="106.65" x2="304.04" y2="149.09" xlink:href="#linear-gradient-14"/><linearGradient id="linear-gradient-16" x1="339.28" y1="111.55" x2="309.97" y2="155.16" xlink:href="#linear-gradient-14"/><linearGradient id="linear-gradient-17" x1="323.36" y1="137.16" x2="323.64" y2="161.93" xlink:href="#linear-gradient-6"/><linearGradient id="linear-gradient-18" x1="328.04" y1="112.81" x2="320.89" y2="135.35" gradientTransform="matrix(1, 0, 0, 1, 0, 0)" gradientUnits="userSpaceOnUse"><stop offset=".06" stop-color="#fff"/><stop offset=".25" stop-color="#f7fafd"/><stop offset=".53" stop-color="#e3ecfa"/><stop offset=".87" stop-color="#c1d5f6"/><stop offset="1" stop-color="#b3ccf4"/></linearGradient><linearGradient id="linear-gradient-19" x1="403.83" y1="88.52" x2="320.65" y2="139.55" xlink:href="#linear-gradient-14"/><linearGradient id="linear-gradient-20" x1="291.95" y1="182.12" x2="344.11" y2="106.58" xlink:href="#linear-gradient"/><linearGradient id="linear-gradient-21" x1="323.46" y1="155.36" x2="323.74" y2="106.34" xlink:href="#linear-gradient-6"/><linearGradient id="linear-gradient-22" x1="325.58" y1="119.7" x2="319.32" y2="143.96" xlink:href="#linear-gradient-18"/><linearGradient id="linear-gradient-23" x1="322.93" y1="166.48" x2="322.75" y2="144.95" xlink:href="#linear-gradient-14"/><linearGradient id="linear-gradient-24" x1="-2965.67" y1="172.98" x2="-2982.63" y2="206.75" gradientTransform="translate(-2500.43) rotate(-180) scale(1 -1)" gradientUnits="userSpaceOnUse"><stop offset=".15" stop-color="#ffd33d"/><stop offset=".16" stop-color="#fdd250"/><stop offset=".2" stop-color="#f8cf77"/><stop offset=".24" stop-color="#f5cd8f"/><stop offset=".26" stop-color="#f4cc98"/><stop offset=".48" stop-color="#aa6834"/><stop offset=".7" stop-color="#9d5334"/></linearGradient><linearGradient id="linear-gradient-25" x1="-2953.7" y1="183.17" x2="-3015.19" y2="226.1" gradientTransform="translate(-2500.43) rotate(-180) scale(1 -1)" gradientUnits="userSpaceOnUse"><stop offset="0" stop-color="#a36031"/><stop offset=".6" stop-color="#854127"/><stop offset=".74" stop-color="#7a3524"/></linearGradient><linearGradient id="linear-gradient-26" x1="-3009.36" y1="126.25" x2="-2996.19" y2="248.17" xlink:href="#linear-gradient-24"/><linearGradient id="linear-gradient-27" x1="-3041.59" y1="221.08" x2="-3030.39" y2="221.08" xlink:href="#linear-gradient-25"/><linearGradient id="linear-gradient-28" x1="-2913.31" y1="182.2" x2="-2937.39" y2="345.67" gradientTransform="translate(-2500.43) rotate(-180) scale(1 -1)" gradientUnits="userSpaceOnUse"><stop offset=".28" stop-color="#aa6834"/><stop offset=".7" stop-color="#9d5334"/></linearGradient><linearGradient id="linear-gradient-29" x1="-2929.18" y1="247.85" x2="-2931.86" y2="389.77" xlink:href="#linear-gradient-25"/><linearGradient id="linear-gradient-30" x1="-2913.17" y1="301.6" x2="-2892.5" y2="198.92" gradientTransform="translate(-2500.43) rotate(-180) scale(1 -1)" gradientUnits="userSpaceOnUse"><stop offset=".18" stop-color="#f2ce96"/><stop offset=".22" stop-color="#f2cd97"/><stop offset=".74" stop-color="#ffc4a6"/></linearGradient><linearGradient id="linear-gradient-31" x1="-3014.06" y1="390.83" x2="-3027.4" y2="511.18" xlink:href="#linear-gradient-30"/><linearGradient id="linear-gradient-32" x1="-2984.65" y1="362.64" x2="-2992.88" y2="438.15" xlink:href="#linear-gradient-30"/><linearGradient id="linear-gradient-33" x1="621.03" y1="152.89" x2="563.41" y2="328.48" gradientTransform="matrix(1, 0, 0, 1, 0, 0)" gradientUnits="userSpaceOnUse"><stop offset=".15" stop-color="#ffd33d"/><stop offset=".16" stop-color="#fdd250"/><stop offset=".2" stop-color="#f8cf77"/><stop offset=".24" stop-color="#f5cd8f"/><stop offset=".26" stop-color="#f4cc98"/><stop offset=".48" stop-color="#aa6834"/><stop offset=".5" stop-color="#a76334"/><stop offset=".59" stop-color="#9f5734"/><stop offset=".67" stop-color="#9d5334"/></linearGradient><linearGradient id="linear-gradient-34" x1="539.31" y1="303.73" x2="531.47" y2="410.54" gradientTransform="matrix(1, 0, 0, 1, 0, 0)" gradientUnits="userSpaceOnUse"><stop offset=".14" stop-color="#f5cd8f"/><stop offset=".31" stop-color="#f4cc98"/><stop offset=".51" stop-color="#aa6834"/><stop offset=".75" stop-color="#9d5334"/></linearGradient><linearGradient id="linear-gradient-35" x1="554.37" y1="266.32" x2="541.37" y2="443.36" xlink:href="#linear-gradient-34"/><linearGradient id="linear-gradient-36" x1="576.48" y1="259.03" x2="557.57" y2="375.34" xlink:href="#linear-gradient-34"/><linearGradient id="linear-gradient-37" x1="503.4" y1="181.98" x2="561.71" y2="475.14" gradientTransform="matrix(1, 0, 0, 1, 0, 0)" gradientUnits="userSpaceOnUse"><stop offset=".46" stop-color="#854127" stop-opacity="0"/><stop offset=".8" stop-color="#7a3524"/></linearGradient><linearGradient id="linear-gradient-38" x1="-2963.61" y1="502.54" x2="-2943.95" y2="464.76" gradientTransform="translate(-2500.43) rotate(-180) scale(1 -1)" gradientUnits="userSpaceOnUse"><stop offset=".02" stop-color="#f2ce96"/><stop offset=".07" stop-color="#f2cd97"/><stop offset=".59" stop-color="#ffc4a6"/></linearGradient><linearGradient id="linear-gradient-39" x1="-2981.75" y1="480.96" x2="-2972.28" y2="462.76" xlink:href="#linear-gradient-30"/><linearGradient id="linear-gradient-40" x1="-2868.87" y1="61.13" x2="-3053.93" y2="519.65" gradientTransform="translate(-2500.43) rotate(-180) scale(1 -1)" gradientUnits="userSpaceOnUse"><stop offset=".15" stop-color="#ffd33d"/><stop offset=".16" stop-color="#fdd250"/><stop offset=".2" stop-color="#f8cf77"/><stop offset=".24" stop-color="#f5cd8f"/><stop offset=".26" stop-color="#f4cc98"/><stop offset=".41" stop-color="#aa6834"/><stop offset=".5" stop-color="#9d5334"/></linearGradient><linearGradient id="linear-gradient-41" x1="-2877.44" y1="342.84" x2="-3121.26" y2="420.2" gradientTransform="translate(-2500.43) rotate(-180) scale(1 -1)" gradientUnits="userSpaceOnUse"><stop offset=".15" stop-color="#f5cc8f"/><stop offset=".16" stop-color="#f4cc98"/><stop offset=".39" stop-color="#aa6834"/><stop offset=".43" stop-color="#a36031"/><stop offset=".63" stop-color="#854127"/><stop offset=".74" stop-color="#7a3524"/></linearGradient><linearGradient id="linear-gradient-42" x1="-2924.1" y1="267.51" x2="-3163.92" y2="477.73" gradientTransform="translate(-2500.43) rotate(-180) scale(1 -1)" xlink:href="#linear-gradient-34"/><linearGradient id="linear-gradient-43" x1="-2891.93" y1="240.41" x2="-3099.49" y2="505" gradientTransform="translate(-2500.43) rotate(-180) scale(1 -1)" gradientUnits="userSpaceOnUse"><stop offset=".14" stop-color="#f5cd8f"/><stop offset=".25" stop-color="#f4cc98"/><stop offset=".66" stop-color="#aa6834"/><stop offset=".75" stop-color="#9d5334"/></linearGradient><linearGradient id="linear-gradient-44" x1="473.21" y1="148.48" x2="400.51" y2="458.15" xlink:href="#linear-gradient-2"/><linearGradient id="linear-gradient-45" x1="404.4" y1="398.75" x2="509.25" y2="112.85" xlink:href="#linear-gradient-2"/><linearGradient id="linear-gradient-46" x1="-2973.62" y1="194.36" x2="-3010.68" y2="300.28" xlink:href="#linear-gradient-25"/><linearGradient id="linear-gradient-47" x1="-3002.09" y1="148.42" x2="-3009.79" y2="2.76" gradientTransform="translate(-2500.43) rotate(-180) scale(1 -1)" xlink:href="#linear-gradient-34"/><linearGradient id="linear-gradient-48" x1="-3105.17" y1="229.59" x2="-3020.03" y2="211.38" gradientTransform="translate(-2500.43) rotate(-180) scale(1 -1)" gradientUnits="userSpaceOnUse"><stop offset=".15" stop-color="#ffd33d"/><stop offset=".16" stop-color="#fdd250"/><stop offset=".2" stop-color="#f8cf77"/><stop offset=".24" stop-color="#f5cd8f"/><stop offset=".26" stop-color="#f4cc98"/><stop offset=".48" stop-color="#aa6834"/><stop offset=".93" stop-color="#9d5334"/></linearGradient><linearGradient id="linear-gradient-49" x1="409.81" y1="418.94" x2="474.72" y2="280.86" gradientTransform="matrix(1, 0, 0, 1, 0, 0)" xlink:href="#linear-gradient-40"/><linearGradient id="linear-gradient-50" x1="437.65" y1="228.21" x2="510.13" y2="417.42" gradientTransform="matrix(1, 0, 0, 1, 0, 0)" gradientUnits="userSpaceOnUse"><stop offset=".15" stop-color="#f5cc8f"/><stop offset=".16" stop-color="#f4cc98"/><stop offset=".39" stop-color="#aa6834"/><stop offset=".43" stop-color="#a36031"/><stop offset=".6" stop-color="#854127"/><stop offset=".74" stop-color="#7a3524"/></linearGradient><linearGradient id="linear-gradient-51" x1="415.86" y1="248.33" x2="415.57" y2="378.45" gradientTransform="matrix(1, 0, 0, 1, 0, 0)" xlink:href="#linear-gradient-30"/><linearGradient id="linear-gradient-52" x1="-3135.44" y1="-299.01" x2="-3174.76" y2="-226.53" gradientTransform="translate(-2587.93 -374.74) rotate(-163.69) scale(1 -1)" gradientUnits="userSpaceOnUse"><stop offset="0" stop-color="#fff"/><stop offset="1" stop-color="#000"/></linearGradient><linearGradient id="linear-gradient-53" x1="-2957.34" y1="206.11" x2="-2938.75" y2="202.78" gradientTransform="translate(-2500.43) rotate(-180) scale(1 -1)" xlink:href="#linear-gradient-52"/><linearGradient id="linear-gradient-54" x1="-3145.63" y1="-296.46" x2="-3154.93" y2="-292.83" xlink:href="#linear-gradient-52"/><linearGradient id="linear-gradient-55" x1="-2988.16" y1="212.01" x2="-2997.46" y2="215.64" gradientTransform="translate(-2500.43) rotate(-180) scale(1 -1)" xlink:href="#linear-gradient-52"/><linearGradient id="linear-gradient-56" x1="-2936.7" y1="207.67" x2="-3010.72" y2="274.77" gradientTransform="translate(-2500.43) rotate(-180) scale(1 -1)" gradientUnits="userSpaceOnUse"><stop offset=".23" stop-color="#a42c38"/><stop offset=".52" stop-color="#9d2e39"/><stop offset="1" stop-color="#99303a"/></linearGradient><linearGradient id="linear-gradient-57" x1="-2966.47" y1="234.16" x2="-2967.93" y2="235.48" xlink:href="#linear-gradient-56"/><linearGradient id="linear-gradient-58" x1="-2968.22" y1="206.49" x2="-2992.24" y2="237.24" gradientTransform="translate(-2500.43) rotate(-180) scale(1 -1)" gradientUnits="userSpaceOnUse"><stop offset=".09" stop-color="#854a2b"/><stop offset=".19" stop-color="#663821"/><stop offset=".37" stop-color="#2f1a0f"/><stop offset=".51" stop-color="#0c0704"/><stop offset=".59" stop-color="#000"/></linearGradient><linearGradient id="linear-gradient-59" x1="-3143.76" y1="254.68" x2="-2765.85" y2="519.94" gradientTransform="translate(-2500.43) rotate(-180) scale(1 -1)" xlink:href="#linear-gradient-50"/><linearGradient id="linear-gradient-60" x1="-2974.15" y1="239.4" x2="-2989.03" y2="266.93" gradientTransform="translate(-2500.43) rotate(-180) scale(1 -1)" gradientUnits="userSpaceOnUse"><stop offset=".31" stop-color="#ff5e7b"/><stop offset=".4" stop-color="#f45974"/><stop offset=".58" stop-color="#d74c64"/><stop offset=".81" stop-color="#a8374a"/><stop offset="1" stop-color="#7b2331"/></linearGradient><linearGradient id="linear-gradient-61" x1="-2818.56" y1="248.19" x2="-3063.29" y2="509.07" xlink:href="#linear-gradient-41"/><linearGradient id="linear-gradient-62" x1="-2971.27" y1="204.15" x2="-2984.13" y2="227.72" gradientTransform="translate(-2500.43) rotate(-180) scale(1 -1)" gradientUnits="userSpaceOnUse"><stop offset=".09" stop-color="#854a2b"/><stop offset=".2" stop-color="#663821"/><stop offset=".4" stop-color="#2f1a0f"/><stop offset=".56" stop-color="#0c0704"/><stop offset=".64" stop-color="#000"/></linearGradient><linearGradient id="linear-gradient-63" x1="-2933.52" y1="340.67" x2="-2933.98" y2="365.34" xlink:href="#linear-gradient-25"/><linearGradient id="linear-gradient-64" x1="-3019.67" y1="444.91" x2="-3020.98" y2="456.96" xlink:href="#linear-gradient-30"/><linearGradient id="linear-gradient-65" x1="-3044.59" y1="454.2" x2="-3046.41" y2="470.94" xlink:href="#linear-gradient-30"/><linearGradient id="linear-gradient-66" x1="-3040.18" y1="459.08" x2="-3041.64" y2="472.5" xlink:href="#linear-gradient-30"/><linearGradient id="linear-gradient-67" x1="-3049.18" y1="453.79" x2="-3051.03" y2="470.76" xlink:href="#linear-gradient-30"/><linearGradient id="linear-gradient-68" x1="-2948.47" y1="464.07" x2="-2943.32" y2="454.18" xlink:href="#linear-gradient-30"/><linearGradient id="linear-gradient-69" x1="-1429.07" y1="78.53" x2="-1421.12" y2="147.92" gradientTransform="translate(-836.46 394.41) rotate(171.93) scale(1 -1)" gradientUnits="userSpaceOnUse"><stop offset=".46" stop-color="#ffd33d"/><stop offset="1" stop-color="#f1535b"/></linearGradient><linearGradient id="linear-gradient-70" x1="-3253.82" y1="-608.13" x2="-3254.64" y2="-569.67" gradientTransform="translate(-2523.88 -867.33) rotate(-149.24) scale(1 -1)" xlink:href="#linear-gradient-14"/><linearGradient id="linear-gradient-71" x1="-3157.6" y1="120.62" x2="-3155.88" y2="172.5" gradientTransform="translate(-2524.98 -163.27) rotate(-172.92) scale(1 -1)" xlink:href="#linear-gradient-14"/><linearGradient id="linear-gradient-72" x1="-3109.95" y1="64.6" x2="-3108.65" y2="103.98" gradientTransform="translate(-2524.98 -163.27) rotate(-172.92) scale(1 -1)" xlink:href="#linear-gradient-14"/><linearGradient id="linear-gradient-73" x1="-2912.48" y1="472.15" x2="-2910.79" y2="468.9" xlink:href="#linear-gradient-30"/><linearGradient id="linear-gradient-74" x1="-2917.72" y1="472.4" x2="-2916.3" y2="469.65" xlink:href="#linear-gradient-30"/><linearGradient id="linear-gradient-75" x1="-2922.24" y1="472.54" x2="-2921.37" y2="470.86" xlink:href="#linear-gradient-30"/><linearGradient id="linear-gradient-76" x1="243.59" y1="217.82" x2="243.56" y2="217.88" gradientTransform="matrix(1, 0, 0, 1, 0, 0)" gradientUnits="userSpaceOnUse"><stop offset=".08" stop-color="#fff"/><stop offset=".32" stop-color="#e7f0ff"/><stop offset=".62" stop-color="#a9c9ff"/><stop offset=".73" stop-color="#96bdff"/></linearGradient><linearGradient id="linear-gradient-77" x1="-3476.29" y1="-618.44" x2="-3539.51" y2="-297.38" gradientTransform="translate(-3404.89 -616.78) rotate(-158.9) scale(1 -1)" gradientUnits="userSpaceOnUse"><stop offset=".06" stop-color="#f4cc98"/><stop offset=".1" stop-color="#aa6834"/><stop offset=".2" stop-color="#a56034"/><stop offset=".42" stop-color="#9f5634"/><stop offset=".7" stop-color="#9d5334"/></linearGradient><linearGradient id="linear-gradient-78" x1="-3466.09" y1="-605.02" x2="-3556.17" y2="-307.1" gradientTransform="translate(-3404.89 -616.78) rotate(-158.9) scale(1 -1)" xlink:href="#linear-gradient-41"/><linearGradient id="linear-gradient-79" x1="-3416.18" y1="-590.71" x2="-3531.82" y2="-441.5" gradientTransform="translate(-3404.89 -616.78) rotate(-158.9) scale(1 -1)" xlink:href="#linear-gradient-41"/><linearGradient id="linear-gradient-80" x1="-3542.02" y1="-540.59" x2="-3529.34" y2="-395.08" gradientTransform="translate(-3404.89 -616.78) rotate(-158.9) scale(1 -1)" xlink:href="#linear-gradient-41"/><linearGradient id="linear-gradient-81" x1="-3490.79" y1="-546.14" x2="-3408.8" y2="-288.39" gradientTransform="translate(-3404.89 -616.78) rotate(-158.9) scale(1 -1)" gradientUnits="userSpaceOnUse"><stop offset=".14" stop-color="#f5cd8f"/><stop offset=".37" stop-color="#f4cc98"/><stop offset=".55" stop-color="#aa6834"/><stop offset=".75" stop-color="#9d5334"/></linearGradient><linearGradient id="linear-gradient-82" x1="-3527.17" y1="-534.57" x2="-3445.19" y2="-276.82" xlink:href="#linear-gradient-81"/><linearGradient id="linear-gradient-83" x1="-3544.68" y1="-529" x2="-3462.69" y2="-271.25" xlink:href="#linear-gradient-81"/><linearGradient id="linear-gradient-84" x1="1699.35" y1="-668.76" x2="1682.62" y2="-515.3" gradientTransform="translate(-1749.33 15.57) rotate(22.91)" xlink:href="#linear-gradient-69"/><linearGradient id="linear-gradient-85" x1="1675.22" y1="-92.66" x2="1682.85" y2="-26.02" gradientTransform="translate(-1600.54 -75.76) rotate(8.73)" xlink:href="#linear-gradient-69"/><linearGradient id="linear-gradient-86" x1="-2854.12" y1="1000.68" x2="-2962.64" y2="1038.16" gradientTransform="translate(-2989.64 286.54) rotate(157.22) scale(1 -1)" xlink:href="#linear-gradient-14"/><linearGradient id="linear-gradient-87" x1="-12.7" y1="657.68" x2="-171.83" y2="809.16" gradientTransform="translate(78.54 -478.43) rotate(-17.79)" gradientUnits="userSpaceOnUse"><stop offset=".14" stop-color="#fff"/><stop offset=".36" stop-color="#e7f0ff"/><stop offset=".62" stop-color="#a9c9ff"/><stop offset=".73" stop-color="#96bdff"/></linearGradient><linearGradient id="linear-gradient-88" x1="86.24" y1="668.53" x2="-362.75" y2="758.45" gradientTransform="translate(78.54 -478.43) rotate(-17.79)" gradientUnits="userSpaceOnUse"><stop offset=".06" stop-color="#fff"/><stop offset=".24" stop-color="#f8fafe"/><stop offset=".5" stop-color="#e3ecfb"/><stop offset=".82" stop-color="#c2d6f6"/><stop offset=".95" stop-color="#b3ccf4"/></linearGradient><linearGradient id="linear-gradient-89" x1="11.5" y1="627.96" x2="-100.8" y2="840.75" gradientTransform="translate(78.54 -478.43) rotate(-17.79)" xlink:href="#linear-gradient-76"/><linearGradient id="linear-gradient-90" x1="-19.98" y1="711.62" x2="-5.43" y2="711.62" gradientTransform="translate(78.54 -478.43) rotate(-17.79)" gradientUnits="userSpaceOnUse"><stop offset=".13" stop-color="#381a46"/><stop offset=".49" stop-color="#1b0c22"/><stop offset=".81" stop-color="#070309"/><stop offset="1" stop-color="#000"/></linearGradient><linearGradient id="linear-gradient-91" x1="-11.32" y1="709.08" x2="-1.13" y2="709.08" xlink:href="#linear-gradient-90"/><linearGradient id="linear-gradient-92" x1="280.5" y1="303.18" x2="65.54" y2="374.7" gradientTransform="matrix(1, 0, 0, 1, 0, 0)" gradientUnits="userSpaceOnUse"><stop offset=".08" stop-color="#fff"/><stop offset=".43" stop-color="#e7f0ff"/><stop offset=".62" stop-color="#a9c9ff"/><stop offset=".73" stop-color="#96bdff"/></linearGradient><linearGradient id="linear-gradient-93" x1="365.67" y1="355.67" x2="-37.73" y2="436.46" gradientTransform="matrix(1, 0, 0, 1, 0, 0)" xlink:href="#linear-gradient-90"/><linearGradient id="linear-gradient-94" x1="125.65" y1="61.09" x2="21.84" y2="351.29" xlink:href="#linear-gradient-6"/><linearGradient id="linear-gradient-95" x1="65.89" y1="147.98" x2="89.13" y2="291.6" xlink:href="#linear-gradient-6"/><linearGradient id="linear-gradient-96" x1="80.7" y1="173.44" x2="62.29" y2="274.39" gradientTransform="matrix(1, 0, 0, 1, 0, 0)" gradientUnits="userSpaceOnUse"><stop offset=".04" stop-color="#ffd33d"/><stop offset=".05" stop-color="#ffd23d"/><stop offset=".25" stop-color="#f99b4a"/><stop offset=".43" stop-color="#f57453"/><stop offset=".57" stop-color="#f25c59"/><stop offset=".65" stop-color="#f1535b"/></linearGradient><linearGradient id="linear-gradient-97" x1="157.11" y1="246.48" x2="185.03" y2="356.62" xlink:href="#linear-gradient-76"/><linearGradient id="linear-gradient-98" x1="483.82" y1="241.39" x2="-405.43" y2="419.48" xlink:href="#linear-gradient-76"/><linearGradient id="linear-gradient-99" x1="183.06" y1="219.2" x2="84.56" y2="297.8" gradientTransform="matrix(1, 0, 0, 1, 0, 0)" xlink:href="#linear-gradient-88"/><linearGradient id="linear-gradient-100" x1="73.61" y1="214.39" x2="239.11" y2="216.36" gradientTransform="translate(262.9 -52.96) rotate(56.99)" xlink:href="#linear-gradient-76"/><linearGradient id="linear-gradient-101" x1="284.64" y1="-275.03" x2="282.38" y2="-237.6" gradientTransform="translate(-165.02 359.79) rotate(13.43)" gradientUnits="userSpaceOnUse"><stop offset=".06" stop-color="#fff"/><stop offset=".24" stop-color="#e7f0ff"/><stop offset=".62" stop-color="#a9c9ff"/><stop offset=".73" stop-color="#96bdff"/></linearGradient><linearGradient id="linear-gradient-102" x1="304.6" y1="-298.67" x2="224.75" y2="-161.01" gradientTransform="translate(-165.02 359.79) rotate(13.43)" gradientUnits="userSpaceOnUse"><stop offset=".06" stop-color="#fff"/><stop offset=".33" stop-color="#e5eefb"/><stop offset=".77" stop-color="#c1d5f6"/><stop offset="1" stop-color="#b3ccf4"/></linearGradient><linearGradient id="linear-gradient-103" x1="343.34" y1="-398.94" x2="151.63" y2="-68.41" gradientTransform="translate(-165.02 359.79) rotate(13.43)" gradientUnits="userSpaceOnUse"><stop offset=".06" stop-color="#fff"/><stop offset=".34" stop-color="#ccdfff"/><stop offset=".6" stop-color="#a5c6ff"/><stop offset=".73" stop-color="#96bdff"/></linearGradient><linearGradient id="linear-gradient-104" x1="302.08" y1="-309.42" x2="211.98" y2="-228.01" gradientTransform="translate(-165.02 359.79) rotate(13.43)" xlink:href="#linear-gradient-88"/><linearGradient id="linear-gradient-105" x1="381.27" y1="-385.99" x2="146.79" y2="-126.9" gradientTransform="translate(-165.02 359.79) rotate(13.43)" xlink:href="#linear-gradient-90"/><linearGradient id="linear-gradient-106" x1="333.78" y1="-340.91" x2="260.39" y2="-247.67" gradientTransform="translate(-165.02 359.79) rotate(13.43)" xlink:href="#linear-gradient-90"/><linearGradient id="linear-gradient-107" x1="293.85" y1="-406.85" x2="274.03" y2="-312.6" xlink:href="#linear-gradient-103"/><linearGradient id="linear-gradient-108" x1="271.87" y1="-397.63" x2="273.34" y2="-290.96" xlink:href="#linear-gradient-103"/><linearGradient id="linear-gradient-109" x1="280.06" y1="-345.5" x2="94.24" y2="-223.5" xlink:href="#linear-gradient-103"/><linearGradient id="linear-gradient-110" x1="252.54" y1="-352.67" x2="187.39" y2="-267.68" xlink:href="#linear-gradient-103"/><linearGradient id="linear-gradient-111" x1="247.48" y1="-332.89" x2="186.94" y2="-278.19" gradientTransform="translate(-165.02 359.79) rotate(13.43)" xlink:href="#linear-gradient-88"/><linearGradient id="linear-gradient-112" x1="150.97" y1="177.61" x2="17.01" y2="348.35" gradientTransform="matrix(1, 0, 0, 1, 0, 0)" gradientUnits="userSpaceOnUse"><stop offset="0" stop-color="#ffd33d"/><stop offset="0" stop-color="#ffd23d"/><stop offset=".2" stop-color="#f99b4a"/><stop offset=".37" stop-color="#f57453"/><stop offset=".5" stop-color="#f25c59"/><stop offset=".58" stop-color="#f1535b"/></linearGradient><linearGradient id="linear-gradient-113" x1="184.12" y1="174.83" x2="33.32" y2="293.69" xlink:href="#linear-gradient-112"/><linearGradient id="linear-gradient-114" x1="168.82" y1="52.86" x2="232.36" y2="73.92" gradientTransform="translate(-63.22 181.44) rotate(6.72)" gradientUnits="userSpaceOnUse"><stop offset=".24" stop-color="#8e3bcb"/><stop offset=".54" stop-color="#d767b1"/><stop offset="1" stop-color="#f2535b"/></linearGradient><linearGradient id="linear-gradient-115" x1="136.71" y1="133.29" x2="242.24" y2="49.58" xlink:href="#linear-gradient-114"/><linearGradient id="linear-gradient-116" x1="109.75" y1="352.84" x2="202.31" y2="186.19" gradientTransform="matrix(1, 0, 0, 1, 0, 0)" xlink:href="#linear-gradient-114"/><linearGradient id="linear-gradient-117" x1="209.89" y1="109.31" x2="135.81" y2="261.13" gradientTransform="translate(-.11 74.47) rotate(39.14) scale(1.01 .99) skewX(-5.28)" gradientUnits="userSpaceOnUse"><stop offset=".24" stop-color="#fff"/><stop offset=".33" stop-color="#e7f0ff"/><stop offset=".51" stop-color="#a9c9ff"/><stop offset=".56" stop-color="#96bdff"/></linearGradient><linearGradient id="linear-gradient-118" x1="193.06" y1="126.39" x2="214.62" y2="18.32" gradientTransform="translate(14.39 90.21) rotate(39.02)" xlink:href="#linear-gradient-112"/><linearGradient id="linear-gradient-119" x1="234.11" y1="179.19" x2="138.6" y2="260.84" gradientTransform="matrix(1, 0, 0, 1, 0, 0)" xlink:href="#linear-gradient-88"/><linearGradient id="linear-gradient-120" x1="224.24" y1="224.35" x2="84.38" y2="315.74" gradientTransform="matrix(1, 0, 0, 1, 0, 0)" gradientUnits="userSpaceOnUse"><stop offset=".08" stop-color="#fff"/><stop offset=".46" stop-color="#e7f0ff"/><stop offset=".72" stop-color="#a9c9ff"/><stop offset=".88" stop-color="#96bdff"/></linearGradient><linearGradient id="linear-gradient-121" x1="271.49" y1="421.92" x2="342.76" y2="42.23" xlink:href="#linear-gradient-6"/><linearGradient id="linear-gradient-122" x1="277.23" y1="221.38" x2="178.06" y2="373.09" xlink:href="#linear-gradient-76"/><linearGradient id="linear-gradient-123" x1="112.09" y1="257.89" x2="140" y2="368.03" xlink:href="#linear-gradient-76"/><linearGradient id="linear-gradient-124" x1="295.43" y1="393.8" x2="-68.32" y2="466.64" gradientTransform="matrix(1, 0, 0, 1, 0, 0)" xlink:href="#linear-gradient-90"/><linearGradient id="linear-gradient-125" x1="213.36" y1="341.07" x2="119.01" y2="422.54" xlink:href="#linear-gradient-76"/><linearGradient id="linear-gradient-126" x1="73.42" y1="227.27" x2="87.14" y2="227.27" gradientTransform="translate(190.77 13.06) rotate(46.74)" xlink:href="#linear-gradient-90"/><linearGradient id="linear-gradient-127" x1="84.31" y1="240.98" x2="97.66" y2="240.98" gradientTransform="translate(216.6 16.1) rotate(49.87)" xlink:href="#linear-gradient-90"/><linearGradient id="linear-gradient-128" x1="94.72" y1="289.33" x2="124.43" y2="189.56" gradientTransform="translate(-125.22 104.57) rotate(-34.57)" xlink:href="#linear-gradient-114"/><linearGradient id="linear-gradient-129" x1="203.31" y1="319.92" x2="189.97" y2="396.36" xlink:href="#linear-gradient-76"/><linearGradient id="linear-gradient-130" x1="329.18" y1="212.4" x2="-269.77" y2="332.35" gradientTransform="matrix(1, 0, 0, 1, 0, 0)" xlink:href="#linear-gradient-88"/><linearGradient id="linear-gradient-131" x1="97.74" y1="157.29" x2="75.74" y2="255.67" xlink:href="#linear-gradient-76"/><linearGradient id="linear-gradient-132" x1="191.36" y1="-272.48" x2="180.47" y2="-223.97" gradientTransform="translate(-168.7 24.93) rotate(90)" gradientUnits="userSpaceOnUse"><stop offset="0" stop-color="#fff"/><stop offset="1" stop-color="#231f20"/></linearGradient><linearGradient id="linear-gradient-133" x1="203.81" y1="-269.77" x2="192.91" y2="-221.27" gradientTransform="translate(-152.83 21.78) rotate(90)" xlink:href="#linear-gradient-132"/><linearGradient id="linear-gradient-134" x1="197.47" y1="-271.15" x2="186.58" y2="-222.65" gradientTransform="translate(-160.9 23.41) rotate(90)" xlink:href="#linear-gradient-132"/><linearGradient id="linear-gradient-135" x1="106.88" y1="159.24" x2="71.1" y2="218.33" xlink:href="#linear-gradient-76"/><linearGradient id="linear-gradient-136" x1="86.8" y1="176.25" x2="46.1" y2="240.94" xlink:href="#linear-gradient-96"/><linearGradient id="linear-gradient-137" x1="255.02" y1="275.06" x2="270.17" y2="275.06" gradientTransform="matrix(1, 0, 0, 1, 0, 0)" xlink:href="#linear-gradient-90"/><linearGradient id="linear-gradient-138" x1="265.45" y1="277.52" x2="257.58" y2="286.21" gradientTransform="matrix(1, 0, 0, 1, 0, 0)" xlink:href="#linear-gradient-90"/><linearGradient id="linear-gradient-139" x1="262.38" y1="285.23" x2="255.17" y2="293.2" gradientTransform="matrix(1, 0, 0, 1, 0, 0)" xlink:href="#linear-gradient-90"/><linearGradient id="linear-gradient-140" x1="304.77" y1="-842.63" x2="305.75" y2="-844.1" gradientTransform="translate(-523.13 761.07) rotate(33.29)" xlink:href="#linear-gradient-5"/><linearGradient id="linear-gradient-141" x1="299.33" y1="-849.55" x2="301.85" y2="-840.83" gradientTransform="translate(-523.13 761.07) rotate(33.29)" xlink:href="#linear-gradient-6"/><linearGradient id="linear-gradient-142" x1="300.77" y1="-853.7" x2="303.53" y2="-840.39" gradientTransform="translate(-523.13 761.07) rotate(33.29)" xlink:href="#linear-gradient-8"/><linearGradient id="linear-gradient-143" x1="269.92" y1="-153.77" x2="280.54" y2="-141.04" gradientTransform="translate(44.76 -58.45) rotate(33.29) scale(1 -1)" xlink:href="#linear-gradient-10"/></defs><g class="cls-31"><g id="Layer_2"><g id="Layer_1-2"><g><g><g><path class="cls-10" d="M518.69,6.17V41.76c0,3.41-2.77,6.19-6.17,6.19h-74.82c-3.41,0-6.19-2.77-6.19-6.19V6.17c0-3.41,2.77-6.17,6.19-6.17h74.82c3.4,0,6.17,2.76,6.17,6.17Z"/><path class="cls-78" d="M518.69,6.17v26.45c-27.22,4.6-27.84,.73-39.54-14.06-8.81-11.14-33.28-10.33-47.64-8.75v-3.64c0-3.41,2.77-6.17,6.19-6.17h74.82c3.4,0,6.17,2.76,6.17,6.17Z"/></g><g><path class="cls-76" d="M479.15,50.39v221.83c0,14.16-11.47,25.63-25.63,25.63H181.2c-.34,0-.67-.01-1.01-.02-3.93-.15-7.63-1.18-10.9-2.91-8.16-4.28-13.72-12.84-13.72-22.69V50.39c0-14.16,11.47-25.63,25.63-25.63H453.52c14.16,0,25.63,11.47,25.63,25.63Z"/><g class="cls-82"><path class="cls-77" d="M382.42,195.08c-.81-.35-1.62-.68-2.44-1.03-2.37-1-2.69-1.99-1.67-4.24,15.87-34.84,14.67-80.36,.1-108.83,15.96,36.1,8.56,80.01-5.85,106.33-1.18,2.16-2.44,2.57-4.72,1.6l-2.44-1.04c-.44-.19-.93-.08-1.25,.28-.31,.36-.36,.86-.12,1.26,.45,.76,.92,1.51,1.38,2.26,1.43,2.37,1.43,3.59-.42,5.7-.62,.7-1.23,1.4-1.84,2.09-.31,.36-.37,.86-.12,1.27s.71,.61,1.18,.5c.99-.24,1.98-.47,2.98-.69,2.44-.55,3.73,.26,5,2.38,.45,.76,.91,1.51,1.35,2.26,.25,.41,.71,.61,1.18,.5s.79-.49,.83-.96c.09-1.01,.17-2.03,.27-3.03,.1-1.2,.36-2.05,.89-2.65s1.33-.97,2.52-1.23c1-.24,1.99-.45,2.99-.68,.47-.11,.8-.49,.84-.95,.04-.48-.22-.9-.66-1.08Zm-12.48-48.35c.23-.27,.25-.63,.08-.92-.18-.29-.52-.43-.87-.36-.65,.16-1.31,.32-1.97,.48-1.99,.48-2.78,.08-3.83-1.65-.34-.54-.67-1.09-1.01-1.64-.18-.29-.52-.43-.86-.35-.34,.08-.57,.35-.61,.69-.04,.64-.1,1.28-.14,1.91-.16,2.01-.67,2.73-2.68,3.2-.65,.16-1.31,.31-1.97,.47-.34,.09-.58,.36-.61,.7-.02,.35,.16,.65,.49,.78,.68,.28,1.38,.56,2.06,.84,1.68,.69,2.09,1.72,1.95,3.5-.05,.64-.11,1.28-.16,1.91-.02,.35,.17,.66,.49,.79,.33,.13,.68,.04,.91-.22,.48-.56,.96-1.13,1.44-1.69,.57-.66,1.08-1.06,1.65-1.19,.57-.14,1.21-.01,2.03,.32,.68,.28,1.38,.56,2.06,.84,.32,.14,.67,.05,.9-.21,.23-.26,.26-.63,.08-.92l-1.01-1.62c-.94-1.53-1.04-2.63,.14-4,.48-.56,.96-1.13,1.45-1.68Zm24.55-82.56c.15-.14,.18-.37,.09-.55-.1-.18-.29-.28-.5-.25-.41,.06-.82,.14-1.22,.21-1.23,.21-1.69-.09-2.25-1.17-.18-.35-.36-.69-.54-1.04-.1-.18-.29-.28-.5-.25-.21,.03-.37,.2-.4,.4-.05,.38-.12,.77-.17,1.15-.18,1.21-.53,1.62-1.75,1.82-.41,.06-.82,.13-1.22,.19-.22,.03-.37,.19-.4,.4-.03,.21,.08,.41,.26,.5,.4,.21,.8,.4,1.21,.61,.99,.49,1.19,1.13,1.03,2.21-.06,.38-.12,.77-.18,1.15-.03,.21,.07,.4,.26,.5,.18,.1,.4,.05,.55-.1,.33-.31,.64-.64,.95-.95,.38-.38,.7-.6,1.06-.66,.35-.05,.73,.05,1.21,.29,.4,.19,.8,.4,1.2,.61,.19,.1,.41,.05,.56-.09,.15-.15,.18-.37,.09-.56-.18-.34-.37-.68-.54-1.03-.51-.96-.52-1.65,.26-2.42,.31-.32,.64-.64,.95-.96Zm36.95,59.34c-.19-.62-.75-1.02-1.41-1.02-1.27,0-2.53,.01-3.81,.01-4.26,.01-4.87-.78-4.98-4.4-1.14-39.47-18.9-71.6-50.42-93.34-.39-.27-.77-.53-1.16-.79,.36,.26,.71,.53,1.07,.79,32.27,24.26,46.12,61.02,43.53,93.48-.28,3.46-2.18,4.27-5.59,4.26-1.28,0-2.55,0-3.82-.01-.65,0-1.2,.4-1.41,1.02-.19,.62,.02,1.27,.55,1.65,1.13,.8,2.25,1.61,3.38,2.43,2.75,1.98,3.07,4.03,2.01,7.23-.38,1.13-.76,2.27-1.13,3.4-.21,.62,.01,1.27,.53,1.65,.53,.38,1.21,.38,1.74,0,1.13-.82,2.25-1.64,3.38-2.45,1.33-.97,2.44-1.46,3.53-1.47,1.1,.01,2.2,.5,3.54,1.47,1.13,.81,2.25,1.62,3.37,2.44,.53,.39,1.21,.39,1.74,.01,.53-.38,.74-1.03,.53-1.65-.37-1.14-.75-2.27-1.12-3.4-1.05-3.2-.75-5.24,2-7.23,1.13-.81,2.25-1.62,3.38-2.44,.53-.38,.75-1.03,.54-1.64Z"/><path class="cls-81" d="M479.15,123.35v25.4c-6.4,46.14-40.47,131.42-123.84,132.8-11.72,.19-52.59,15.12-83.32-25.37,.02,.01,.03,.02,.05,.03,60.82,34.47,128.71-6.87,139.69-64.42,1.93-10.12,2.21-17.93,2.2-28.06,0-7.55,3.18-6.54,7.45-1.78,6.1,6.79,12.48,19.95,12.61,22.01,11.54-25.39,11.8-70.84-3.34-107.18-1.1-2.64,.01-3.96,2.64-2.27,3.17,2.05,7.03,5.54,9.66,8.06-2.78-17.35-9.77-39.54-20.7-57.82h8.87c20.07,22.97,35.43,50.63,44.12,81.9,1.54,5.56,2.84,11.14,3.9,16.69Z"/><path class="cls-79" d="M179.45,297.18c.79,.22,1.59,.44,2.42,.67h-.66c-.34,0-.67-.01-1.01-.02-3.93-.15-7.63-1.18-10.9-2.91,2.92,.47,6.38,1.26,10.15,2.26Z"/><path class="cls-80" d="M479.15,146.83v55.64c-6.84,35.2-22.64,68.06-45.6,95.38H222.38c-4.22-6.46-8.61-14.36-12.68-23.31-23.82-52.17-37.28-139.62,52.24-181.1,4.46-1.38,6.12-.42,2.13,2.5-.05,.04-.11,.08-.16,.12-44.48,31.94-34.51,91.68,20.13,108.19,8.26,2.5,16.18,4.28,22.66,7.71,13.48,7.14,15.47,23.82,2.77,32.63-9.65,6.68-27.56,12.08-37.46,11.6l.03,.03c24.5,22.41,63.73,25.4,96.36,16.84,55.32-14.52,103.14-66.23,110.75-126.24Z"/><path class="cls-74" d="M332.15,25.55l.03-.03c-2.31,37.58-38.33,53.06-68.11,70.42-4.01,2.34-7.92,4.71-11.6,7.18-52.42,35.13-59,99.92-30.77,146.32,13.14,21.6,33.36,39.08,59.08,48.41h-99.57c-.34,0-.67-.01-1.01-.02l-.75-.65c-8.97-7.9-17-16.71-23.87-26.19V117.75c4.4-5.47,9.38-10.8,14.97-15.97,45.62-42.16,125.6-42.45,161.6-76.24Z"/><path class="cls-75" d="M398.26,287.45c-2.65,3.61-5.76,7.08-9.25,10.4h-17.86c8.8-2.68,17.84-6.12,27.11-10.4Z"/><path class="cls-140" d="M228.84,297.85h-47.64c-.34,0-.67-.01-1.01-.02-3.93-.15-7.63-1.18-10.9-2.91-8.16-4.28-13.72-12.84-13.72-22.69v-91.81c2.96-3.47,4.97-5.68,4.15-2.3-7.79,32.04,5.65,73.03,45.64,94.12,1.44,.76,2.9,1.53,4.33,2.31,2.68,1.45,5.29,2.95,7.65,4.56,7.02,4.79,11.22,11.79,11.5,18.75Z"/><path class="cls-141" d="M332.69,24.76c-.17,.27-.36,.53-.54,.79-1.46,2.08-3.15,4.02-5.05,5.75-14.68,13.5-40.23,20.77-66.27,29.87-18.06,6.32-35.37,13.5-51.1,22.95-20.49,12.32-41.05,30.95-54.16,52.97V50.39c0-14.16,11.47-25.63,25.63-25.63h151.49Z"/></g><path class="cls-139" d="M428.66,297.85c-.21,13.97-11.6,25.24-25.62,25.24H181.2c-12.08,0-22.19-8.35-24.9-19.58-.48-1.94-.73-3.96-.73-6.04v-25.24c0,14.16,11.47,25.63,25.63,25.63h247.46Z"/><path class="cls-138" d="M365.13,323.09c-2.71,11.23-12.84,19.58-24.9,19.58H181.2c-14.16,0-25.63-11.47-25.63-25.63v-19.58l.73,6.04c2.71,11.23,12.83,19.58,24.9,19.58h183.93Z"/></g><g><path class="cls-128" d="M331.02,155.7c-.17,.39-.38,.79-.61,1.16-.26,.42-.93,.29-.99-.21-.1-.82-.42-1.77-1.27-2.37-.34-.23-.82-.04-.86,.38-.21,1.79-1,6.39-3.82,9.33-.13,.14-.3,.18-.46,.15-.16,.03-.34,0-.47-.15-2.82-2.94-3.61-7.53-3.82-9.33-.04-.42-.52-.61-.86-.38-.85,.6-1.17,1.56-1.27,2.37-.06,.5-.73,.64-.99,.21-.4-.65-.71-1.33-.93-2.02-.82-2.49-.64-5.03-.51-6.07,.04-.28,.28-.48,.56-.47l8.23,.37s.04,0,.06,0c.02,0,.04,0,.05,0l8.23-.37c.29,0,.53,.2,.56,.47,.15,1.16,.36,4.18-.83,6.93Z"/><path class="cls-134" d="M334.19,142.42s0,0-.03,.04c-.26,.3-2.6,2.78-10.63,2.78-8.57,0-10.65-2.81-10.65-2.81,.6-19,7.25-26.12,9.73-28.13,.07-.05,.14-.11,.22-.15,.51-.27,1.16-.22,1.62,.15,2.48,2.01,9.14,9.13,9.74,28.13Z"/><path class="cls-136" d="M334.16,142.45c-.26,.3-2.6,2.78-10.63,2.78-8.57,0-10.65-2.81-10.65-2.81,.6-19,7.25-26.12,9.73-28.13,.07-.05,.14-.11,.22-.15-1.78,2.71-5.01,8.44-5.03,14.78-.03,8.77,9.54,7.63,11.21,4.03,0,0,4.79,2.02,5.16,9.5Z"/><path class="cls-137" d="M337.69,147.53s-3.01,2.34-13.68,2.53v.02c-.24,0-.45,0-.68,0s-.45,0-.69,0v-.02c-10.44-.19-13.38-2.53-13.38-2.53,.16-1.75,1.07-2.99,1.99-3.82,1-.9,2-1.29,2-1.29h20.38s1.12,.44,2.19,1.43c.89,.82,1.73,2.02,1.88,3.68Z"/><path class="cls-129" d="M327.5,127.19c0,1.3-.62,2.45-1.59,3.19-.68,.52-1.52,.82-2.44,.82-.14,0-.28,0-.41-.02-2.02-.21-3.6-1.92-3.6-4,0-.56,.12-1.09,.32-1.58,.39-.92,1.12-1.67,2.02-2.09,.51-.23,1.07-.36,1.67-.36,2.22,0,4.02,1.8,4.02,4.02Z"/><path class="cls-135" d="M321.94,86.01c-2.59,0-5.12,.18-7.61,.55-25.49,3.69-45.13,25.69-45.13,52.19,0,29.08,23.66,52.75,52.74,52.75,16.96,0,32.08-8.06,41.74-20.54,6.9-8.91,11.01-20.1,11.01-32.21,0-29.07-23.66-52.74-52.74-52.74Zm0,92.5c-21.91,0-39.74-17.83-39.74-39.75,0-19.9,14.71-36.44,33.83-39.31,1.93-.28,3.91-.43,5.91-.43,21.91,0,39.74,17.83,39.74,39.74,0,8.87-2.92,17.07-7.84,23.69-7.25,9.74-18.85,16.06-31.9,16.06Z"/><path class="cls-131" d="M363.68,170.96c-9.65,12.48-24.77,20.54-41.74,20.54-29.08,0-52.74-23.67-52.74-52.75,0-26.5,19.64-48.5,45.13-52.19,.6,.19,1.18,.45,1.75,.76,4.55,2.47,4.14,5.64,3.4,8.75-.31,1.34-1.83,2.49-3.46,3.37-19.12,2.87-33.83,19.41-33.83,39.31,0,21.92,17.83,39.75,39.74,39.75,13.05,0,24.65-6.33,31.9-16.06,2.88-.84,6.24-.79,8.3,1.42,1.86,1.99,1.9,4.87,1.54,7.11Z"/><path class="cls-132" d="M335.81,143.85c-1.86,.86-6.2,2.45-12.28,2.39-6.41-.06-10.69-1.77-12.28-2.54,1-.9,2-1.29,2-1.29h20.38s1.12,.44,2.19,1.43Z"/><path class="cls-130" d="M326.6,130.02c-.68,.52-1.52,.82-2.44,.82-.14,0-.28,0-.41-.02l-3.28-5.57c.39-.92,1.12-1.67,2.02-2.09l4.1,6.85Z"/><path class="cls-133" d="M331.02,155.7c-.17,.39-.38,.79-.61,1.16-.26,.42-.93,.29-.99-.21-.1-.82-.42-1.77-1.27-2.37-.34-.23-.82-.04-.86,.38-.21,1.79-1,6.39-3.82,9.33-.13,.14-.3,.18-.46,.15-.16,.03-.34,0-.47-.15-2.82-2.94-3.61-7.53-3.82-9.33-.04-.42-.52-.61-.86-.38-.85,.6-1.17,1.56-1.27,2.37-.06,.5-.73,.64-.99,.21-.4-.65-.71-1.33-.93-2.02,1.26-1.71,3.12-4.15,4.81-2.05,2.4,2.99,1.23,6.62,3.54,8.44,0,0,1.56-1.02,2.01-5.52,.32-3.18,1.91-3.52,3.09-3.39,1.19,.13,2.27,.57,2.92,3.38Z"/><circle class="cls-3" cx="323.48" cy="127.19" r="4.02"/></g></g><g><path class="cls-142" d="M467.15,201.02c.29,.86,.78,1.33,.78,1.33l13.81-6.17,6.02-2.69s-12.81-3.49-18.12,1.38c-2.92,2.67-2.93,4.84-2.48,6.14Z"/><path class="cls-26" d="M467.15,201.02c.29,.86,.78,1.33,.78,1.33l13.81-6.17,1.58-.97s-11.73,1.63-15.27,4.87c-.34,.32-.65,.64-.9,.94Z"/><path class="cls-143" d="M455.67,227.76s-5.39,11.96,1.46,8.13c0,0-2.82,23.95,21.13,32.91,30.26,11.32,53.15-12.94,53.15-12.94,0,0,.26,4.74,3.33,3.97,3.07-.77,2.43-8.84,2.43-8.84,0,0,3.59,2.82,4.48-2.17,.87-4.82-1.37-9.4-1.53-9.72,0,0,0-.02,0-.02,0,0,1.36-4.5,1.05-10.97-.19-4.11-1.05-9-3.37-14.06-2.36-5.17-6.23-10.49-12.45-15.27,0,0,3.18-2.06,5.81-1.71,.16,.02,.24-.18,.11-.27-1.51-1.1-5.99-3.81-9.97-.36,.11-.25,2.09-4.24,3.6-6.64,.37-.59-.19-1.33-.86-1.11-2.38,.77-5.96,2.42-6.46,5.46,0,0-1.63-3.45-3.99-5.3-.36-.28-.88,.05-.77,.5,.3,1.14,.63,2.92,.4,4.54,0,0-18.47-5.76-37.77,4.02-16,8.09-20.11,17.75-15.89,17.63,0,0-3.18,2.52-5.28,5.52-.48,.69-.9,1.41-1.21,2.13-1.66,3.83-1.25,5.35,2.6,4.58Z"/><path class="cls-25" d="M529.96,216.97s3.33,8.47,11.2,11.14c-.19-4.11-1.05-9-3.37-14.06l-7.83,2.92Z"/><path class="cls-149" d="M390.02,239.26s0,.04,.02,.06c.2,1.13,3.18,17.41,9.45,34.87,2.54,7.11,5.63,14.42,9.3,20.99,12.98,23.27,30.3,32.1,30.3,32.1l20.11-42.93s-2.62-.53-6.58-2.09c-6.89-2.7-17.87-8.47-26.33-19.92-4.91-6.64-8.34-12.76-10.7-17.82-4.06-8.69-4.99-14.31-4.99-14.31,0,0-1.22,6.41-3.93,8.57-.28,.22-.7-.03-.66-.39,.08-.77,.18-1.93,.13-2.77-.02-.33-.47-.42-.62-.12-.89,1.81-3.33,5.82-7.37,5.66-4.2-.18-8.11-1.91-8.11-1.91Z"/><path class="cls-150" d="M399.49,274.19c2.54,7.11,5.63,14.42,9.3,20.99,12.98,23.27,30.3,32.1,30.3,32.1l20.11-42.93s-2.62-.53-6.58-2.09c-4.73,6.53-15.49,18.82-29.8,16.29-8.42-1.48-16.72-12.53-23.33-24.37Z"/><path class="cls-152" d="M384.21,223.02c3.36,7.93,5.43,14.16,5.81,16.24,0,0,3.91,1.73,8.11,1.91,4.04,.17,6.48-3.84,7.37-5.66,.15-.3,.6-.2,.62,.12,.04,.84-.05,2-.13,2.77-.04,.36,.38,.61,.66,.39,2.71-2.16,3.93-8.57,3.93-8.57,0,0-1.18-9.04-2.21-15.28-1.24-7.51-2.85-11.55-4.7-10.2-1.86,1.34-.98,7.88-2.3,11.35,0,0-6.11-11.73-8.93-12.24-2.84-.5-1.56,2.13-1.56,2.13,0,0-1.66-2.34-3.03-2.2-1.29,.14-.84,2.48-.79,2.76-.08-.2-.65-1.56-1.56-.75-.94,.85-.08,5.36,0,5.73-.14-.31-1.6-3.43-2.44-1.56-.87,1.97-1.02,7.93,1.15,13.04Z"/><line class="cls-9" x1="390.88" y1="205.99" x2="394.5" y2="213.76"/><line class="cls-9" x1="387.07" y1="206.58" x2="389.48" y2="214.45"/><line class="cls-9" x1="385.51" y1="211.56" x2="387.07" y2="216.74"/><path class="cls-153" d="M488.68,450.28s.03,.05,.04,.08c1.2,2.38,3.01,6.42,4.74,12.03,.85,2.77,1.39,4.94,1.73,6.62,.67,3.31,3.21,5.93,6.45,6.75,.16,.04,.32,.08,.48,.11,16.55,3.23,41.74,3.37,51.03,3.29,1.46,0,2.24-1.73,1.27-2.84-1.97-2.24-4.88-5.27-7.45-6.83-4.38-2.66-21.1-6.95-21.1-6.95l-.43-4.24-.45-4.43c-.51-5.07-25.97-5.87-34.72-5.99-1.26-.02-2.09,1.27-1.58,2.4Z"/><path class="cls-15" d="M488.68,450.28s.03,.05,.04,.08c1.2,2.38,3.01,6.42,4.74,12.03,.85,2.77,1.39,4.94,1.73,6.62,.67,3.31,3.21,5.93,6.45,6.75-4.8-2.7-6.01-9.02-6.87-13.22-1.03-5.04-1.33-11.43-1.33-11.74l-4.75-.51Z"/><path class="cls-151" d="M573.85,301.48c-1.39,7.51-2.4,15.77-2.06,22.91,1.56,33.13,6.72,49.3-1.85,70.76-13.01,32.58-46.13,36.14-46.13,36.14l3.09-9.75,.17-.53,5.44-17.12,.43-1.38c.18-.78,.09-1.68-.18-2.89-.95-4.12-4.04-11.9-5.99-31.08-1.55-15.26,3.62-27.85,7.83-35.3,.82-1.43,1.59-2.68,2.28-3.71,.44-.66,.84-1.23,1.19-1.72,.41-.57,1.31-.26,1.3,.45-.05,1.96,.11,3.79,.3,5.16,.2,1.48,.42,2.43,.42,2.43v-.04c.13-1.06,.28-2.08,.45-3.08,.09-.5,.18-.99,.27-1.47s.19-.96,.29-1.43c.1-.47,.21-.93,.32-1.39,.21-.88,.43-1.73,.67-2.55,.14-.48,.28-.95,.42-1.41,.21-.68,.43-1.35,.67-1.99,.59-1.67,1.22-3.22,1.88-4.64,.1-.22,.2-.44,.3-.65,.21-.43,.42-.85,.63-1.26,.25-.49,.5-.95,.75-1.4,.66-1.2,1.33-2.28,1.98-3.25,1.58-2.34,3.06-4.06,4.16-5.21,.65-.67,1.79-.18,1.76,.76-.05,1.33-.05,2.83-.01,4.36,.03,1.56,.1,3.15,.18,4.64,.04,.71,.08,1.39,.12,2.04,.17,2.97,.38,5.14,.38,5.14,0,0,1.57-5.87,3.69-11.91,.92-2.61,1.94-5.26,2.99-7.48,.96-2.04,1.91-3.91,2.84-5.64,.44-.81,.87-1.58,1.29-2.33h.01c3.13-5.48,5.96-9.29,8.21-11.88,1.27-1.46,3.65-.19,3.14,1.68-1.07,3.99-2.42,9.5-3.54,15.52-.03,.17-.06,.33-.09,.5Z"/><path class="cls-147" d="M539.67,333.42c-1.65-1.12-3.65-.71-5.07-.18,.82-1.43,1.59-2.68,2.28-3.71,.44-.66,.84-1.23,1.19-1.72,.41-.57,1.31-.26,1.3,.45-.05,1.96,.11,3.79,.3,5.16Z"/><path class="cls-145" d="M554.63,311.2c.03,1.56,.1,3.15,.18,4.64-.06-.07-.12-.15-.19-.24-2.13-3.04-6.7-1.52-7.88-1.06,.66-1.2,1.33-2.28,1.98-3.25,1.58-2.34,3.06-4.06,4.16-5.21,.65-.67,1.79-.18,1.76,.76-.05,1.33-.05,2.83-.01,4.36Z"/><path class="cls-148" d="M577.48,285.46c-1.07,3.99-2.42,9.5-3.54,15.52-.03,.17-.06,.33-.09,.5-1.92-3.14-6.5-3.54-9.02-3.49,.44-.81,.87-1.58,1.29-2.33h.01c3.13-5.48,5.96-9.29,8.21-11.88,1.27-1.46,3.65-.19,3.14,1.68Z"/><path class="cls-146" d="M555.31,323.02s6.63,24.68,6.59,48.61c-.03,17.39-14.93,44.28-34.83,49.38-.52,.13-1.06,.25-1.59,.36l7.03-17.48,.25-4.27s5.84-8.61,7.78-31.23c.68-7.93-.4-31.44-.45-32.54v-.04c.13-1.06,.28-2.08,.45-3.08,.09-.5,.18-.99,.27-1.47s.19-.96,.29-1.43c.1-.47,.21-.93,.32-1.39,.21-.88,.43-1.73,.67-2.55,.14-.48,.28-.95,.42-1.41,.21-.68,.43-1.35,.67-1.99,.59-1.67,1.22-3.22,1.88-4.64,.1-.22,.2-.44,.3-.65,.21-.43,.42-.85,.63-1.26,.25-.49,.5-.95,.75-1.4,.66-1.2,1.33-2.28,1.98-3.25l5.91-.09c.03,1.56,.1,3.15,.18,4.64,.04,.71,.08,1.39,.12,2.04,.41,.51,.63,.88,.63,1"/><path class="cls-144" d="M405.96,471.88l58.52,1.56s0,0,0,0l8.22,.22c1.93,.05,3.52-1.46,3.6-3.38,.04-.81,0-1.78-.17-2.96-.8-5.89,2.66-15.99,2.66-15.99l-.95-1.63-3.3-5.63s-37.93-2.1-35.46,3.79c.38,.9,.66,1.71,.87,2.43,0,0,0,0,0,0,.49,1.7,.6,2.92,.55,3.79-.04,.93-.84,1.64-1.77,1.63-.54,0-1.22-.03-2.04-.03-3.64,0-10,.28-18.44,2.61-7.18,1.97-11.65,7.59-13.75,10.93-.72,1.14,.1,2.62,1.44,2.66Z"/><path class="cls-24" d="M464.49,473.44l8.22,.22c1.93,.05,3.52-1.46,3.6-3.38,.04-.81,0-1.78-.17-2.96-.8-5.89,2.66-15.99,2.66-15.99l-.95-1.63-.88,1.14s-2.86,11.49-2.79,16.98c.05,4.22-4.12,4.3-9.68,5.62Z"/><path class="cls-120" d="M439.09,447.86c5.03,3.65,11.86,4.31,18.04,3.87,2.24-.16,4.39-.47,6.34-.83,.65-.11,1.26-.24,1.86-.37,2.34-.49,4.29-1.04,5.56-1.43,.57-.17,1.04,.44,.73,.95-.43,.72-.96,1.64-1.47,2.62-.05,.11,.04,.24,.17,.22l8.47-1.56,.45-1.79,.71-2.82,3.15,.49,.25,.04,3.99,.62s0,0,0,.02l2.02,3.7c.48,.87,1.27,1.53,2.23,1.81,2.91,.87,9.12,2.68,9.83,2.32,.87-.43-1.5-3.76-1.76-4.11,6.95,5.96,25.31,2.26,25.31,2.26,0,0,5.54-9,7.63-42.71,.87-14-.47-23.19-2.43-31.7-.85-3.7-1.82-7.28-2.78-11.07-2.16-8.48-4.27-18.04-4.91-32.51-.03-.49-.04-.98-.05-1.48-.18-5.24-.03-10.65,.34-16.05,2.12-30.71,11.58-61.39,11.88-62.33,0-.02,0-.03,0-.03l-4-4.12h-69.63s4.62,4.64,2.23,16.33c-.34,1.7-.84,3.55-1.53,5.57-3.7,10.89-23.04,36.71-34.28,66.09-4.21,11-7.29,22.5-7.98,33.89-2.54,41.79,19.63,74.11,19.63,74.11Z"/><path class="cls-83" d="M499.67,451.6c6.95,5.96,25.31,2.26,25.31,2.26,0,0,5.54-9,7.63-42.71,.87-14-.47-23.19-2.43-31.7-2.76-11.99-6.77-22.66-7.7-43.58-.26-5.7-.11-11.61,.29-17.52h0s-7.55,53.45-14.19,66.24c-5.2,9.98-9.79,16.88-6.72,16.69,3.07-.19,4.68-2.48,5.41,0,.72,2.49-4.13,13.99-6.4,23.37-2.27,9.38-8.35,19.99-1.19,26.95Z"/><path class="cls-122" d="M436.49,359.65c.55,4.04,1.71,8.01,3.68,11.83,12.68,24.57,36.96,24.38,50.87,8.19,12.04-14.03,11.49-42.56,12.41-66.96,0-.05,0-.11,0-.15,.03-.82,.08-1.64,.15-2.47,1.97-23.79,18.87-49.58,18.87-49.58l-52.13-1.86c2.77,19.81-12.33,39.76-17.35,48.22-4.24,7.14-19.51,30.79-16.5,52.78Z"/><path class="cls-121" d="M436.49,359.65c.55,4.04,1.71,8.01,3.68,11.83,12.68,24.57,36.96,24.38,50.87,8.19,12.04-14.03,11.49-42.56,12.41-66.96-.9,12.57-6.41,66.32-34.76,67.55-18.22,.8-27.54-10.6-32.2-20.61Z"/><path class="cls-124" d="M466.26,337.69c.19,2.47-1.66,4.63-4.14,4.82l-46.33,3.5c-2.47,.19-4.63-1.67-4.81-4.14l-4.38-57.91-.65-8.6c-.19-2.48,1.66-4.63,4.14-4.82l46.33-3.5c2.47-.19,4.63,1.66,4.81,4.14l3.35,44.23,1.68,22.28Z"/><path class="cls-123" d="M466.26,337.69c.19,2.47-1.66,4.63-4.14,4.82l-46.33,3.5c-2.47,.19-4.63-1.67-4.81-4.14l-4.38-57.91c8.02,12.21,28.34,37.04,57.98,31.45l1.68,22.28Z"/><path class="cls-27" d="M463.13,268.21c5.66,5.1,13.42,9.98,22.76,10.54,28.49,1.72,44.18-21.88,44.75-22.73,0-.02,0-.03,0-.03l-16.56-4.12h-53.07s4.37,4.64,2.11,16.33Z"/><path class="cls-126" d="M455.67,227.76s-5.39,11.96,1.46,8.13c0,0-2.82,23.95,21.13,32.91,30.26,11.32,53.15-12.94,53.15-12.94,0,0,.26,4.74,3.33,3.97,3.07-.77,2.43-8.84,2.43-8.84,0,0,3.59,2.82,4.48-2.17,.87-4.82-1.37-9.4-1.53-9.72-7.42,7.33-28.68,10.49-37.48,.37-10.65-12.25-15.97-12.67-15.97-12.67l-9.47-4.57s-3.38,3.13-11.51,3.67c-4.59,.3-8.52-2.39-11.4-4.85-.48,.69-.9,1.41-1.21,2.13-1.66,3.83-1.25,5.35,2.6,4.58Z"/><path class="cls-127" d="M532.43,205.55s9.34,2.66,13.71,10.25c4.37,7.6,.58,13.44-13.11,4.92-7.48-4.66-.6-15.17-.6-15.17Z"/><path class="cls-125" d="M516.82,315.86c-3.64,13.99-31.58,41.18-72.87,34.87-3.98-.61-7.6-1.38-10.89-2.3-6.35-1.75-11.48-4-15.61-6.5-15.95-9.59-17.15-22.75-16.98-24.79l1.33,.49s-1.37-6.67,.96-4.98c0,0-.5-7.68,2.11-4.85,2.6,2.84,4.84,5.9,6.08,7.32,0,0-1.28-6.72-.73-8.19,.54-1.46,2.37,1.19,4.98,5.21,2.61,4.03,6.95,8.28,14.22,8.14,.15,0,.3,0,.46,0,7.33-.12,19.48-.3,32.82-10.78,13.63-10.7,19.01-15.5,23.92-18.33,5.39-3.11,13.3-4.44,16.35-3.47,8.82,2.79,14.06,9.02,14.86,17.6,.31,3.21-.02,6.76-1.01,10.57Z"/><path class="cls-87" d="M516.82,315.86c-3.64,13.99-31.58,41.18-72.87,34.87-3.98-.61-7.6-1.38-10.89-2.3,5.65-.21,14.18,1.79,26.14-.3,47.2-8.27,58.63-42.84,58.63-42.84,.31,3.21-.02,6.76-1.01,10.57Z"/><path class="cls-94" d="M429.92,325.54c-2.57-.07-3.13-1.12-2.23,1.18,.83,2.1,3.71,13.89-10.25,15.21-15.95-9.59-17.15-22.75-16.98-24.79l1.33,.49s-1.37-6.67,.96-4.98c0,0-.5-7.68,2.11-4.85,2.6,2.84,4.84,5.9,6.08,7.32,0,0-1.28-6.72-.73-8.19,.54-1.46,2.37,1.19,4.98,5.21,2.61,4.03,6.95,8.28,14.22,8.14,.15,0,.3,0,.46-.01,.79,1.92,1.94,5.31,.05,5.27Z"/><path class="cls-9" d="M402.75,312.65s2.76,5.68,5.38,7.77"/><path class="cls-9" d="M401.79,317.63s2.02,5.84,4.81,7.8"/><path class="cls-95" d="M501.6,225.89s.02,0,.02,.01c.31,.28,.66,.51,1.05,.69,2.76,1.3,6.33-.45,7.96-3.91,1.62-3.46,.7-7.32-2.07-8.62-2.07-.98-4.59-.23-6.41,1.65-.61,.63-1.14,1.4-1.54,2.26-1.39,2.97-.91,6.23,1,7.91Z"/><path d="M501.6,225.89s.02,0,.02,.01c2.27,.84,5.06-.62,6.35-3.38,1.35-2.89,.58-6.11-1.73-7.19-1.29-.61-2.8-.41-4.1,.39-.61,.63-1.14,1.4-1.54,2.26-1.39,2.97-.91,6.23,1,7.91Z"/><path class="cls-92" d="M473.75,214.38s.02,0,.01,.01c.24,.32,.51,.6,.84,.84,2.32,1.73,5.95,.79,8.13-2.11,2.16-2.91,2.04-6.66-.28-8.39-1.74-1.3-4.21-1.09-6.26,.31-.68,.47-1.32,1.08-1.86,1.81-1.86,2.49-2.03,5.6-.58,7.53Z"/><path d="M473.75,214.38s.02,0,.01,.01c1.94,1.21,4.81,.39,6.54-1.93,1.8-2.43,1.7-5.55-.23-7-1.08-.81-2.52-.92-3.88-.42-.68,.47-1.32,1.08-1.86,1.81-1.86,2.49-2.03,5.6-.58,7.53Z"/><path class="cls-2" d="M510.29,207.4s5.19,.87,6.27,6.91"/><path class="cls-2" d="M486.84,198.72s-4.74-3.19-9.49,0"/><circle class="cls-93" cx="508.11" cy="219.35" r="1.71"/><circle class="cls-90" cx="480.38" cy="209.14" r="1.71"/><path class="cls-91" d="M466.96,235.03c.11,1.71,.87,10.82,4.66,15.6,1.39,1.75,3.19,2.92,5.53,2.92,5.28,0,7.84-3.3,9.06-6.17,.96-2.22,1.11-4.19,1.11-4.19,0,0-9.23,0-10.02-9.45,0,0-2.62,4.65-10.34,1.27Z"/><path class="cls-88" d="M466.52,234.83c.15,.07,.3,.13,.44,.19,0-.19-.02-.28-.02-.28l-.42,.09Z"/><path class="cls-1" d="M477.19,231.11s-1.97,16.56,18.99,10.98"/><path class="cls-1" d="M477.3,234.3s-6.96,6.39-13.91-3.19"/><path d="M509.45,238.82c14.01-4.64,30.08-2.37,42.69,5.13,.84,.5,1.68,1.01,2.51,1.53-13.71-7.38-29.93-10.27-45.2-6.66h0Z"/><path class="cls-89" d="M474.7,226.81s-.06,.65,.07,1.54h0c.21,1.4,.89,3.36,3.03,4.26,2.92,1.24,6.09-1.48,6.09-1.48,0,0,3.08,2.36,5.26,0,2.16-2.35,1.25-10.52-1-12.81-.19-.19-.39-.36-.59-.5-2.97-2.12-7.92,.12-11.54,3.09-2.32,1.92-2.9,4.47-1.32,5.91Z"/><path d="M513.43,243.24c12.26,.98,24.14,6.75,32.74,15.49,.57,.59,1.14,1.18,1.69,1.78-9.7-8.68-21.61-14.86-34.43-17.27h0Z"/><path d="M510.29,249.04c9.88,5.3,18.31,13.35,24.36,22.77-7.15-8.57-15.24-16.32-24.36-22.77h0Z"/><path d="M463.38,222.24c-6.76-4.51-14.22-7.86-22.17-9.61,8.19,.36,16.25,3.97,22.17,9.61h0Z"/><path d="M459.19,226.81c-7.33-2.21-15.3-2.5-22.47,.42,1.65-1,3.42-1.92,5.34-2.37,5.65-1.52,11.98-.74,17.13,1.95h0Z"/><path d="M457.64,231.11c-7.03,.82-14.39,2.25-19.83,7.08,4.48-5.93,12.78-7.69,19.83-7.08h0Z"/><path class="cls-86" d="M439.09,447.86c5.03,3.65,11.86,4.31,18.04,3.87-3.07-2.16-7.36-4.74-11.76-9.26-14.41-14.81-20.4-44.79-20.4-50.16s1.19-4.07,2.37-3.18c3.34,2.56,5.16,2.31,.94-8.62-2.92-7.57-1.8-28.49-.83-40.64-4.21,11-7.29,22.5-7.98,33.89-2.54,41.79,19.63,74.11,19.63,74.11Z"/><path class="cls-104" d="M471.62,250.63c1.39,1.75,3.19,2.92,5.53,2.92,5.28,0,7.84-3.3,9.06-6.17-2.69-.64-7.18-1.21-10.9,.7-1.78,.92-2.94,1.78-3.68,2.54Z"/><path class="cls-73" d="M442.16,418.85c.31,.65,10.26,21.44,23.18,31.68,2.34-.49,4.29-1.04,5.56-1.43,.57-.17,1.04,.44,.73,.95-.43,.72-.96,1.64-1.47,2.62-.05,.11,.04,.24,.17,.22l8.47-1.56,.45-1.79,.71-2.82,3.15,.49,.25,.04,3.99,.62s-12.33-32.38,3.02-62.22c-.48,.56-17.1,20.36-14,46.77,.31,2.68-.38,5.43-2.15,7.46-1.72,1.97-4.21,3.05-7.8,1.96-6.99-3.86-15.8-10.74-24.26-22.97Z"/><path class="cls-9" d="M401.21,218.68s-3.48,4.34-3.36,11.27"/><path class="cls-105" d="M474.77,228.36c.21,1.4,.89,3.35,3.03,4.25,2.92,1.24,6.09-1.48,6.09-1.48,0,0,3.08,2.36,5.26,0,2.16-2.35,1.25-10.52-1-12.81-.19-.19-.39-.36-.59-.5,.85,3.19,3.19,13.86-4.23,11.05,0,0-4.32,4.64-8.55-.49Z"/><path class="cls-103" d="M432.1,345.17s.49,4,2.32,9.31l-2.32-9.31Z"/><path class="cls-22" d="M516.42,462.53c4.82-.35,9.44,0,9.44,0l-.43-4.24-9,4.24Z"/><path class="cls-23" d="M544.18,473.73s4.67,2.08,4.78,5.44h-.93s-.55-3.62-3.85-5.44Z"/><path class="cls-21" d="M540.05,474.71s3.13,2.16,3.27,4.42l-1.16-.02s.07-2.63-2.11-4.4Z"/><path class="cls-19" d="M549.25,473.54s3.86,2.75,3.89,5.62l-1.15-.03s.33-2.57-2.73-5.59Z"/><path class="cls-20" d="M436.7,455.7l14.31,.7c-3.99-.5-10.62-5.77-11.04-6.1,.49,1.7,.6,2.92,.55,3.79-.04,.93-.84,1.64-1.77,1.63-.54,0-1.22-.03-2.04-.03h0Z"/><path class="cls-102" d="M597.63,305.29l-1.58,2.65c-.23,.35-.24,.82-.05,1.2l1.31,2.82c.44,.98-.4,2.05-1.46,1.79l-3-.68c-5.05,6.77-.46,24.65-.46,24.65-10.14-14.03-6.02-27.21-6.02-27.21l-2.7-1.51c-.94-.52-.87-1.9,.11-2.28l2.84-1.19c.38-.14,.66-.5,.75-.93l.61-3.04c.2-1.05,1.55-1.4,2.25-.59l2.04,2.36c.3,.29,.7,.51,1.1,.42l3.08-.35c.98-.15,1.7,1.01,1.17,1.89Z"/><path class="cls-99" d="M589.16,266.93l-.36,3.36c-.07,.47,.17,.92,.5,1.22l2.6,2.16c.85,.81,.5,2.24-.65,2.47l-3.28,.7c-.44,.05-.86,.41-1.01,.83l-1.25,3.13c-.43,1.07-1.89,1.12-2.53,.13l-1.71-2.96c-.29-.38-.66-.6-1.13-.67l-3.4-.29c-1.17-.09-1.78-1.47-.97-2.31l2.23-2.55c.3-.33,.45-.75,.33-1.24l-.78-3.32c-.27-1.08,.9-2.02,1.97-1.59l3.09,1.33c.42,.15,.93,.15,1.31-.14l2.88-1.76c.99-.64,2.27,.13,2.17,1.5Z"/><path class="cls-100" d="M589.96,349.91l1.87,1.09c.25,.16,.58,.14,.84,.02l1.94-.96c.69-.28,1.44,.29,1.28,1.03l-.44,2.1c-.09,.27,.02,.61,.22,.8l1.51,1.55c.51,.53,.16,1.4-.58,1.51l-2.18,.23c-.29,.07-.52,.23-.69,.49l-1.06,1.92c-.36,.66-1.32,.66-1.61-.03l-.91-1.97c-.12-.26-.32-.46-.64-.51l-2.15-.41c-.7-.12-.95-1.05-.42-1.56l1.58-1.46c.2-.21,.33-.51,.26-.8l-.28-2.14c-.11-.75,.67-1.3,1.44-.88Z"/><path class="cls-101" d="M550.48,287.38l1.42,.83c.19,.12,.44,.11,.64,.02l1.47-.73c.53-.22,1.1,.22,.97,.78l-.34,1.6c-.07,.2,.01,.46,.17,.61l1.14,1.18c.39,.4,.12,1.06-.44,1.15l-1.65,.18c-.22,.05-.4,.18-.52,.37l-.8,1.45c-.27,.5-1,.5-1.22-.03l-.69-1.5c-.09-.2-.25-.35-.48-.39l-1.63-.31c-.54-.09-.72-.8-.32-1.19l1.2-1.11c.15-.16,.25-.39,.2-.61l-.21-1.63c-.09-.57,.51-.98,1.09-.67Z"/><path class="cls-18" d="M407.18,471.92s.65-4.37,6.27-6.21c0,0-4.88,3.19-4.88,6.25l-1.39-.04Z"/><path class="cls-17" d="M418.33,467s-4.86,1.57-5.06,5.06l1.33,.04s.53-3.24,3.72-5.1Z"/><path class="cls-16" d="M419.56,472.24s.26-2.29,2.71-2.85c0,0-1.86,1.46-1.9,2.85h-.82Z"/></g><g><path class="cls-98" d="M243.57,217.86s-.08-.03-.11-.05c.03,0,.4,.12,.11,.05Z"/><g><path class="cls-96" d="M45.84,121.45c1.23,11.22,2.97,37.41-5.29,53.12-4.89,9.31-13.62,20.52-21.73,32.66-4.68,7.01-9.15,14.33-12.56,21.77C2.63,236.91,.2,244.97,.01,252.95c-.36,14.93,7.51,26.33,20.01,31.09,.71,.27,1.44,.52,2.17,.74,7.5,2.31,16.45,2.36,26.19-.46l1.09-10.27,2.93-27.41s-10.72-.63-7.77-11.11c1.03-3.68,2.67-6.88,4.39-9.81,2.64-4.49,5.49-8.33,6.71-12.22,.17-.54-.41-.79-.89-.47-2.76,1.85-6.38,4.36-8.57,5.79,.36-.6,8.51-14.16,12.66-30.97h0c1.65-6.68,2.66-13.87,2.31-20.96-.02-.48-.69-.58-.86-.13-.72,2-2.05,5.1-4.26,8.13h0c-.24,.34-.49,.67-.75,1,0,0,.01-.06,.04-.17h0c.25-1.16,1.58-7.68,2.06-16.25,.69-12.14-.32-28.39-8.54-39.27-1.06-1.4-3.29-.5-3.09,1.24Z"/><path class="cls-97" d="M22.19,284.78c7.5,2.31,16.45,2.36,26.19-.46l1.09-10.27,2.93-27.41s-10.72-.63-7.77-11.11c1.03-3.68,2.67-6.88,4.39-9.81,.13-.2,.25-.42,.37-.62,2.53-4.22,5.18-7.89,6.34-11.6,.17-.54-.41-.79-.89-.47-2.77,1.86-6.4,4.37-8.59,5.81-.11,.08-.97,.67-2.34,1.72-.01,.01-.03,.03-.04,.03-5.44,4.18-18.96,15.5-28.01,30.79-6.23,10.54-6.39,23.63,6.32,33.4Z"/><path class="cls-84" d="M46.83,136.12c.32,12.35-.69,27.8-6.28,38.45-7.72,14.68-24.97,34.09-34.29,54.43,6.58-9.05,16.38-18.14,28.12-27.04,15.97-12.11,21.73-27.04,21.73-27.04-.24,.34-.49,.66-.75,.99,0,0,5.06-22.5,.09-41.53-1.33-5.15-3.42-10.04-6.53-14.16-1.06-1.4-3.29-.5-3.09,1.24,.4,3.62,.85,8.79,.99,14.67Z"/><path class="cls-85" d="M33.58,265.77c3.3,4.75,9.43,7.15,15.9,8.28l2.93-27.41s-10.72-.63-7.77-11.11c1.03-3.68,2.67-6.88,4.39-9.81,0,0-24.5,27.03-15.45,40.04Z"/><path class="cls-112" d="M45.84,121.45c.4,3.62,.85,8.79,.99,14.67,3.08-1.61,6.29-1.85,8.63-1.75-1.33-5.15-3.42-10.04-6.53-14.16-1.06-1.4-3.29-.5-3.09,1.24Z"/><path class="cls-119" d="M52.14,182.48c5.46-1.46,6.73,5.05,6.79,5.37,1.65-6.67,2.66-13.86,2.31-20.95-.02-.48-.69-.58-.86-.13-.72,2-2.05,5.1-4.26,8.13h0c-.24,.34-.49,.67-.75,1,0,0,.01-.06,.04-.17-1.56,3.69-3.27,6.75-3.27,6.75Z"/><path class="cls-118" d="M43.86,220.62c.16-.02,2.09-.3,3.78,1.47,.9,.94,1.44,2.13,1.76,3.02,2.53-4.22,5.18-7.89,6.34-11.6,.17-.54-.41-.79-.89-.47-2.77,1.86-6.4,4.37-8.59,5.81-.11,.08-.97,.67-2.34,1.72-.01,.01-.03,.03-.04,.03-.01,.01-.02,.02-.02,.03Z"/></g><path class="cls-117" d="M21.87,138.03l1.12,3.91c.17,.52,.03,1.13-.35,1.54l-2.61,3.15c-.89,1.1-.18,2.74,1.26,2.78l4.05,.15c4.15,10.33-7.73,31.55-7.73,31.55,17.66-14.45,16.85-32.63,16.85-32.63l3.95-1.02c1.37-.34,1.75-2.12,.63-2.95l-3.22-2.48c-.44-.31-.68-.86-.64-1.44l.25-4.08c.1-1.41-1.5-2.3-2.67-1.52l-3.4,2.32c-.48,.27-1.07,.41-1.54,.17l-3.8-1.49c-1.2-.52-2.5,.71-2.13,2.02Z"/><path class="cls-116" d="M61.14,119.24l1.49,2.56c.21,.33,.22,.79,.03,1.15l-1.29,2.69c-.44,.93,.36,1.97,1.39,1.74l2.89-.62c4.78,6.56,.17,23.67,.17,23.67,9.9-13.37,6.08-26.06,6.08-26.06l2.61-1.42c.91-.48,.86-1.81-.08-2.19l-2.72-1.18c-.37-.14-.63-.48-.71-.9l-.55-2.93c-.18-1.01-1.47-1.36-2.16-.59l-1.99,2.25c-.29,.28-.68,.48-1.06,.39l-2.95-.37c-.94-.15-1.64,.95-1.14,1.81Z"/><path class="cls-115" d="M36.99,95.14l-.36,4.05c0,.57-.35,1.07-.8,1.37l-3.5,2.04c-1.19,.73-1.11,2.53,.13,3.04l3.78,1.62c.55,.23,.86,.67,.96,1.2l.87,3.99c.24,1.39,2.01,1.79,2.94,.72l2.72-3.09c.41-.4,.89-.6,1.46-.61l4.09,.46c1.41,.09,2.41-1.36,1.68-2.54l-2.14-3.46c-.3-.45-.35-1.11-.09-1.57l1.67-3.68c.61-1.29-.54-2.64-1.93-2.4l-3.95,.97c-.53,.11-1.14,.02-1.54-.39l-2.99-2.76c-1.25-1.08-2.91-.38-3.01,1.03Z"/><g><path class="cls-114" d="M297.7,197.79c.79,3.35-2.61,3.81-2.61,3.81-.12,3.36-3.43,3.43-3.43,3.43,.09,1.17-2.19,3.11-5,2.25-9.4-2.89-15.2,1-15.2,1,7.78,.08,9.26,6.18,6.98,7.14-2.26,.97-6.43,1.13-15.36,3.29-.16,.04-.32,.08-.49,.12-5.55,1.39-11.07,3.77-20.73,11.92-.57,.48-1.15,.98-1.75,1.5-3.74,3.25-16.1,11-21.72,12.8-24.08,7.73-44-.88-51.46-4.95-2.07-1.12-3.18-1.9-3.18-1.9l21.75-29.23,4.52-17.98s2.87,.76,7.54,1.71c.63,.13,1.3,.26,2,.4,9.15,1.76,23.5,3.87,37.01,3.12,.41-.02,.84-.05,1.25-.07,7.63,.45,22.94-6.72,37.07-7.94,14.11-1.2,22.02,6.23,22.81,9.59Z"/><path class="cls-28" d="M199.56,193.09c-1.11,8.77-2.37,27.78,6.06,35.77,11.14,10.55,47.83-11.56,57.46-10.15-.16,.04-.32,.08-.49,.12-5.55,1.39-11.07,3.77-20.73,11.92-.57,.48-1.15,.98-1.75,1.5-3.74,3.25-16.1,11-21.72,12.8-24.08,7.73-44-.88-51.46-4.95l30.63-47.41,2,.4Z"/><path class="cls-113" d="M297.7,197.79c.79,3.35-2.61,3.81-2.61,3.81-.12,3.36-3.43,3.43-3.43,3.43,.09,1.17-2.19,3.11-5,2.25-9.4-2.89-15.2,1-15.2,1,7.78,.08,9.26,6.18,6.98,7.14-2.26,.97-6.43,1.13-15.36,3.29-.16,.04-.32,.08-.49,.12-5.55,1.39-11.07,3.77-20.73,11.92-2.48-3.23-4.8-7.25-6.05-12.06-2.77-10.52-.52-18.96,.76-22.49l.07-.18c.35,.05,.7,.08,1.06,.09,.03,0,.08,.02,.12,.01,7.63,.45,22.94-6.72,37.07-7.94,14.11-1.2,22.02,6.23,22.81,9.59Z"/><path class="cls-8" d="M291.66,205.03s-1.63-5.75-15.77-3.39"/><path class="cls-7" d="M295.09,201.6s-3.45-6.53-11.84-5.42"/></g><path class="cls-110" d="M247.19,381.52l-66.76,16.84-10.76,2.71-3.05-6.59-43.4-93.89,12.64-9.32,.05-.04,13.99-10.31,3.87-2.85s1.94,.38,5.05,1.57c2.41,.91,5.53,2.31,8.98,4.37,.02,.02,.05,.03,.07,.04,4.63,2.78,9.86,6.77,14.85,12.42h.01c3.67,4.16,7.2,9.2,10.25,15.33,.67,1.32,1.3,2.68,1.91,4.11,3.86,8.99,6.72,20.05,7.7,33.65,.15,2.04,.26,4.13,.32,6.28,0,0,31.66,.2,44.38,17.39,.76,1.04,1.46,2.14,2.08,3.3,1.06,1.98,0,4.43-2.18,4.99Z"/><path class="cls-111" d="M247.19,381.52l-77.52,19.55-3.05-6.59,80.67-21.25c.76,1.04,1.46,2.14,2.08,3.3,1.06,1.98,0,4.43-2.18,4.99Z"/><path class="cls-109" d="M112.37,181.91l-51.04,55.83c-4.41,4.83-12.01,4.85-16.45,.05l-4.33-4.69c-1.85-2-2.83-4.5-2.96-7.04-.14-3,.92-6.05,3.18-8.36l45.84-46.77c4.53-4.62,12.02-4.44,16.32,.39l4.8,5.38,4.64,5.21Z"/><path class="cls-30" d="M112.37,181.91l-51.04,55.83c-4.41,4.83-12.01,4.85-16.45,.05l-4.33-4.69c-1.85-2-2.83-4.5-2.96-7.04,2.96,7.04,12.4,7.29,16.04,6.03,6.28-2.18,44.07-40.25,49.43-44.89,3.39-2.93,4.39-7.52,4.67-10.5l4.64,5.21Z"/><path class="cls-107" d="M88.49,215.52c-.87,.92-2.04,1.38-3.21,1.38-1.09,0-2.19-.4-3.04-1.21l-3.16-2.98-16.8-15.89c-1.78-1.67-1.85-4.47-.18-6.25,.19-.2,.4-.39,.62-.54,.77-.56,1.68-.84,2.59-.84,1.09,0,2.19,.4,3.04,1.21l19.96,18.87c1.78,1.67,1.86,4.47,.18,6.25Z"/><path class="cls-108" d="M194.9,315.91c-2.38,.04-6.56,1.32-10.36,8.6l-.85,1.64c-5.76,11.03-10.74,20.56-21.24,21.01l-.17-4.3c8.02-.33,12.24-8.44,17.6-18.7l.86-1.63c3.83-7.31,8.3-9.76,11.38-10.55,.3-.08,.59-.14,.87-.18,.67,1.32,1.3,2.69,1.91,4.12Z"/><path class="cls-106" d="M180.43,398.36c15.27,15.84,16.36,31.01,15.33,39.5-.06,.53-.13,1.04-.21,1.52-.47,2.9-3.55,4.56-6.23,3.39l-75.39-32.91c-2.1-.91-3.01-3.36-2.08-5.43,.4-.88,.89-1.72,1.08-2.64,7.8-38.21-9.61-52.34-9.61-52.34,0,0-12.28,1.07-26.09-3.38-13-4.18-27.37-13.26-34.12-32.74-12.62-36.4,3.82-66.37,24.88-89.6,4.57-5.04,9.24-9.72,13.64-13.99,3.52-3.41,6.87-6.55,9.89-9.42,22.93-21.78,37-30.39,38.42-31.24,.08-.05,.12-.07,.12-.07l1.24,.6,38.31,18.58,40.52,10.94c-8.79,16.81-19.23,34.69-31.64,53.13-6.55,9.72-13.14,18.85-19.67,27.38l-.8,1.25-2.79,4.48-1.98,3.18-3.37,5.4c-2.09,3.34-2.63,7.33-1.67,10.97,.51,1.89,1.42,3.69,2.75,5.25,10.67,12.6,14.16,26.9,16.16,38.69,.3,1.46,.55,2.9,.78,4.32,1.71,10.59,1.52,20.08,1,26.4-.38,4.81-.94,7.8-.99,8.07v.02c4.97,3.55,9.1,7.14,12.52,10.69Z"/><path class="cls-29" d="M153.62,286.3l-.37,2.25-3.37,5.4c-2.09,3.34-2.63,7.33-1.67,10.97l-42.88-23.19c-2.82-1.52-3.83-5.07-2.24-7.86l2.3-4.02c-11.85-5.28-25.11-26.56-25.11-26.56l73.34,43.01Z"/><rect class="cls-64" x="165.01" y="215.16" width="30.43" height="1" transform="translate(-98.8 249.32) rotate(-56.99)"/><g><path class="cls-63" d="M127.48,165.72s-4.26,1.55-3.2,5.55,14.89,20.17,39.1,27.7c24.21,7.53,43.55,2.36,46.75,.17,3.2-2.18,3.43-7.63,3.43-7.63,0,0-23.55,9.52-45.64,1.43-22.09-8.09-33.26-18-40.44-27.22Z"/><path class="cls-57" d="M126.93,149.19s-5.99,13.05,2.66,22.4c10.08,10.91,19.94,18.19,36.24,22.94,26.66,7.76,43.4,2.03,49.6-2.44,6.2-4.47,6.12-6.9,6.12-6.9l-94.61-36Z"/><path class="cls-56" d="M253.57,146.11c-2.3,9.62-6.88,18.14-13.1,25.22-5.09,5.79-11.28,10.61-18.21,14.27-6.9,3.65-14.55,6.13-22.6,7.28,0,0-.02,0-.03,0-8.82,1.26-18.11,.9-27.43-1.33-35-8.36-57.79-40.01-53.03-72.22,.25-1.7,.57-3.4,.98-5.09,1.59-6.65,4.27-12.78,7.83-18.27,.74-1.14,1.51-2.26,2.33-3.34,15.23-20.29,43.1-30.54,71.22-23.83,16.69,3.99,30.59,13.26,40.06,25.38,.03,.03,.05,.05,.07,.09,.01,.02,.03,.03,.03,.03,.57,.72,1.12,1.47,1.66,2.22h0c5.77,8.08,9.63,17.27,11.13,26.91,.74,4.73,.92,9.56,.47,14.41,0,0,0,0,0,.01-.25,2.75-.7,5.5-1.36,8.26Z"/><path class="cls-11" d="M199.63,192.88c-8.82,1.26-18.11,.9-27.43-1.33-35-8.36-57.79-40.01-53.03-72.22l11.75-15.48,16.11,8.11s-.16,17.56-12.29,24.19c-4.02,2.2-5.99,6.92-4.54,11.27,5.01,15.09,20.91,43.88,69.44,45.46Z"/><path class="cls-58" d="M253.57,146.11c-2.3,9.62-6.88,18.14-13.1,25.22-.05,.05-.11,.11-.15,.17-5.18,5.85-11.59,10.33-18.66,13.21-.4,.17-.81,.33-1.22,.48-2.23,.85-4.52,1.54-6.85,2.05-5.03,1.13-10.24,1.49-15.47,1.01-2.14-.2-4.29-.51-6.45-.94-30.17-6-50.02-32.77-44.34-59.8,2.08-9.9,7.29-18.45,14.55-25.04,12.56-11.39,31.24-16.85,50.36-13.05,14.1,2.8,25.95,10.15,33.99,19.94,6.49,7.91,9.62,18.13,8.7,28.32,0,.05,0,.1,0,.15,0,0,0,0,0,.01-.25,2.75-.7,5.5-1.36,8.26Z"/><path class="cls-52" d="M219.1,185.52l-5.5,1.72c-5.03,1.13-10.24,1.49-15.47,1.01-2.14-.2-4.29-.51-6.45-.94-30.17-6-50.02-32.77-44.34-59.8,2.08-9.9,7.29-18.45,14.55-25.04,0,0-.25,.45-.67,1.28-3.45,6.8-17.89,39.43,8.12,64.39,21.17,20.32,40.66,19.41,49.76,17.38Z"/><path class="cls-53" d="M190.31,63.85c22.52,1.29,46.21,12.5,52.34,31.74-1.32-1.56-18.73-20.17-54.66-19.68-32.45,.44-49.11,22.67-49.11,22.67l-10.91-2.61c.74-1.14,1.51-2.26,2.33-3.34,15.23-20.29,31.16-30.43,60.02-28.79Z"/><path class="cls-55" d="M237.64,85.83s-8.25-10.99-32.34-14.98c-25-4.14-41.09-.31-55.34,10.05-14.25,10.36-16.93,16.28-16.93,16.28l-11.31-2.7s19.81-30.1,55.45-32.19c31.78-1.87,52.7,10.9,60.46,23.55Z"/><circle class="cls-54" cx="125.21" cy="111.35" r="21.82"/><path class="cls-47" d="M137.23,113.38c-2.18,9.12-11.35,14.76-20.48,12.58s-14.75-11.35-12.57-20.47c.3-1.28,.75-2.49,1.31-3.61,3.43-6.94,11.31-10.84,19.16-8.97,7.88,1.88,13.15,8.96,13.05,16.74h0s0,.03,0,.03c0,.03,0,.07,0,.1,0,.47-.03,.95-.09,1.43-.07,.73-.19,1.45-.37,2.18Z"/><path class="cls-14" d="M137.23,113.38c-2.18,9.12-11.35,14.76-20.48,12.58s-14.75-11.35-12.57-20.47c.3-1.28,.75-2.49,1.31-3.61-1.3,7.64-.26,14.61,5.84,18.2,17.69,10.4,26.12-9.83,26.36-10.41,0,0,0,.01,0,.02,0,.03,0,.06,0,.1-.01,.23-.05,.74-.09,1.43-.07,.73-.19,1.45-.37,2.18Z"/><path d="M129.73,111.58c-1.19,4.98-6.19,8.06-11.18,6.87-3.47-.83-6.01-3.51-6.84-6.74-.36-1.41-.39-2.92-.03-4.44,1.19-4.98,6.19-8.06,11.18-6.87,2.58,.62,4.64,2.25,5.87,4.37,1.15,1.98,1.57,4.39,.99,6.8Z"/></g><path class="cls-44" d="M129.13,255.27l-5.91,17.35c-2.51-.69-4.93-1.5-7.25-2.39-29.39-11.35-43.88-37.8-47.98-46.5,1.41-1.56,2.84-3.08,4.25-4.57,3.18-3.33,6.35-6.47,9.39-9.42,10.81,30.16,47.5,45.53,47.5,45.53Z"/><path class="cls-48" d="M124.11,265.97l-8.14,4.26c-29.39-11.35-43.88-37.8-47.98-46.5,1.41-1.56,2.84-3.08,4.25-4.57,2.78,6.94,8.69,18.88,18.74,27.04,14.94,12.12,33.13,19.77,33.13,19.77Z"/><g><path class="cls-49" d="M133.42,251.17c-1.66-.84-3.74-.15-4.67,1.54l-13.25,24.22c-.92,1.68-.35,3.72,1.29,4.57l-3.53-1.8c-1.66-.84-2.25-2.9-1.32-4.59l13.25-24.22c.93-1.69,3.02-2.38,4.67-1.54l3.57,1.82Z"/><path class="cls-50" d="M172.7,275.05l-13.26,24.22c-.92,1.7-3.01,2.38-4.67,1.54l-3.57-1.81-24.34-12.37-10.05-5.11s-.03-.02-.04-.02c-1.63-.86-2.21-2.89-1.28-4.57l13.26-24.22c.92-1.69,3-2.38,4.66-1.54h0l33.08,16.82,1.3,.65,3.58,1.82c1.65,.84,2.25,2.89,1.32,4.59Z"/><path class="cls-51" d="M172.66,275.73l-2.92,5.08-1.87,3.24-1.91,3.32-1.24,2.14-5.85,10.17c-.24,.43-.56,.78-.92,1.06-1.07,.84-2.55,1.03-3.78,.37l-3.52-1.89-14.79-7.95-2.17-1.17-7.07-3.8,14.07-7.94,7.77,3.59,1.42-1.05,15.41-11.39,1.34-.99,1.28,.69,3.53,1.9c.99,.54,1.58,1.51,1.67,2.56,.07,.69-.07,1.4-.45,2.06Z"/><ellipse class="cls-42" cx="133.12" cy="269.85" rx="6.92" ry="6" transform="translate(-123.59 112.88) rotate(-32.3)"/><ellipse class="cls-43" cx="133.12" cy="269.85" rx="5.84" ry="5.06" transform="translate(-123.59 112.88) rotate(-32.3)"/></g><path class="cls-13" d="M182.72,296.47l-17.95-6.94-.05-.02-1.7-.66-12.89-7.73c-.08-.07-.16-.14-.23-.2l-.02-.02c-3.89-3.39-7.34-6.76-10.37-10.08-.29-.31-.56-.61-.83-.92-1.62-1.79-3.1-3.57-4.49-5.33-.25-.33-.5-.65-.74-.97-2.26-2.96-4.21-5.87-5.89-8.71h-.01c-.83-1.4-1.58-2.78-2.28-4.14-14.53-28.33-2.82-49.46-2.82-49.46l41.38,65.34,1.63,2.58-.17,.3-5.1,9.15c1.72,.65,5.47,1.24,9.55,2.15h0l-1.87,3.24c4.63,2.78,9.86,6.77,14.85,12.42Z"/><path class="cls-68" d="M267.99,280c1.91,5.28-2.64,8.2-2.64,8.2,0,2.64,0,5.04-7.05,7.05-5.71,1.63-23.57,0-23.57,0,0,0-11.04,.11-25.72-1.82-14.93-1.97-33.64-6.04-48.31-14.49-29.08-16.75-42.85-48.76-41.86-64.34,1.24-19.45,18.1-32.69,32.82-26.82,15.02,5.99,22.34,24.67,30.33,37.63,6.91,11.21,23.33,25.38,38.11,33.08,3.22,1.69,6.48,3.1,9.69,4.15,11.18,3.67,21.34,0,25.08-2.12,3.74-2.11,8.91-1.82,7.47,3.07-1.43,4.89-9.49,7.29-9.49,7.29,5.57,1.34,15.63-6.04,17.47-3.93,1.83,2.11-.4,5.75-.4,5.75,1.54,4.22-1.91,7.29-1.91,7.29Z"/><rect class="cls-62" x="234.49" y="214.8" width="140.53" height="59.8" rx="8.54" ry="8.54"/><path class="cls-61" d="M267.99,280c1.91,5.28-2.64,8.2-2.64,8.2,0,2.64,0,5.04-7.05,7.05-5.71,1.63-23.57,0-23.57,0,0,0-11.04,.11-25.72-1.82-.71-3.17-1.49-9.09,.72-16.06,3.36-10.58,7.87-15.63,10.37-18.88,3.22,1.69,6.48,3.1,9.69,4.15,11.18,3.67,21.34,0,25.08-2.12,3.74-2.11,8.91-1.82,7.47,3.07-1.43,4.89-9.49,7.29-9.49,7.29,5.57,1.34,15.63-6.04,17.47-3.93,1.83,2.11-.4,5.75-.4,5.75,1.54,4.22-1.91,7.29-1.91,7.29Z"/><path class="cls-59" d="M167.9,353.18c-4.19-.05-12.68-1-25.98-6.17-14.01-5.45-25.68-3.61-35.69,5.61l-2.91-3.17c11.18-10.3,24.69-12.46,40.16-6.45,11.93,4.64,19.68,5.7,23.64,5.86,.3,1.46,.56,2.9,.78,4.32Z"/><path class="cls-67" d="M195.76,437.86c-.06,.53-.13,1.04-.21,1.52-.47,2.9-3.55,4.56-6.23,3.39l-75.39-32.91c-2.1-.91-3.01-3.36-2.08-5.43,.4-.88,.76-1.76,1.08-2.64l82.83,36.07Z"/><path class="cls-66" d="M168.9,379.58c-.38,4.81-.94,7.8-.99,8.07v.02s-4.7-3.42-11.5-4.78c0,0,5.57-3.45,12.49-3.31Z"/><rect class="cls-65" x="70.79" y="226.77" width="18.98" height="1" transform="translate(-140.25 129.99) rotate(-46.74)"/><rect class="cls-45" x="81.21" y="240.48" width="19.55" height="1" transform="translate(-151.91 155.24) rotate(-49.87)"/><rect class="cls-46" x="102.22" y="242.38" width="6.36" height="22.21" rx=".91" ry=".91" transform="translate(162.45 -15.05) rotate(34.57)"/><path class="cls-60" d="M202.91,355.84s-6.75-.55-12.02,1.58c0,0,5.4-5.22,11.7-7.86,.15,2.04,.26,4.13,.32,6.28Z"/><path class="cls-12" d="M146.36,191.54s-15.39-9.53-25.66-7.23c-10.27,2.3-66.99,52.65-71.98,91.68-4.28,33.5,9.32,54.35,28.51,70.08-13-4.18-27.37-13.26-34.12-32.74-12.62-36.4,3.82-66.37,24.88-89.6,4.57-5.04,9.24-9.72,13.64-13.99,3.52-3.41,6.87-6.55,9.89-9.42,22.93-21.78,37-30.39,38.42-31.24l16.42,22.46Z"/><path class="cls-39" d="M100.66,186.49l-.72,.71-6.19,6.11c-1.18,1.16-3.08,1.15-4.24-.03l-5.99-6.08-.83-.84c-1.12-1.14-1.14-2.96-.07-4.12,.03-.04,.06-.07,.1-.11l6.92-6.82c1.18-1.16,3.07-1.15,4.24,.03l6.8,6.9h.01c1.16,1.19,1.15,3.09-.03,4.25Z"/><ellipse class="cls-37" cx="59.92" cy="206.44" rx="1.93" ry="2" transform="translate(-154.88 214.8) rotate(-76.04)"/><ellipse class="cls-36" cx="69.87" cy="215.02" rx="1.93" ry="2" transform="translate(-155.66 230.96) rotate(-76.04)"/><ellipse class="cls-41" cx="64.79" cy="210.67" rx="1.93" ry="2" transform="translate(-155.29 222.73) rotate(-76.04)"/><path class="cls-38" d="M100.66,186.49l-.72,.71h-16.42l-.83-.84c-1.12-1.14-1.14-2.96-.07-4.12h18.07c1.16,1.19,1.15,3.09-.03,4.25Z"/><path class="cls-40" d="M80.28,211.68l-1.2,1.03-16.8-15.89c-1.78-1.67-1.85-4.47-.18-6.25,.19-.2,.4-.39,.62-.54,0,0-.9,3.85,2.07,7.1,2.96,3.24,15.49,14.55,15.49,14.55Z"/><path class="cls-33" d="M239.35,158.04c-.18-.07-.34-.15-.5-.27-1-.71-1.24-2.09-.54-3.09,.02-.03,2.41-3.48,4.21-8.91,1.73-5.23,.89-10.56,.88-10.61-.2-1.21,.62-2.35,1.82-2.55,1.21-.2,2.35,.61,2.55,1.82,.04,.26,1.04,6.43-1.05,12.74-2.02,6.1-4.68,9.91-4.79,10.07-.59,.84-1.66,1.15-2.59,.8Z"/><circle class="cls-33" cx="234.71" cy="162.96" r="2.78"/><path class="cls-4" d="M269.9,272.71s-8.47,5.42-14.81,4.53"/><path class="cls-5" d="M267.99,280s-5.49,3.45-12.9,3.45"/><path class="cls-6" d="M265.34,288.2s-6.91,2.79-13.14,1.76"/><g><rect class="cls-32" x="136.7" y="214.04" width="26.39" height="13.82" transform="translate(-88.77 101.25) rotate(-29.21)"/><rect class="cls-34" x="133.57" y="214.81" width="26.37" height="1.09" transform="translate(-86.44 99.01) rotate(-29.21)"/><rect class="cls-34" x="134.61" y="216.67" width="26.37" height="1.09" transform="translate(-87.21 99.75) rotate(-29.21)"/><rect class="cls-34" x="135.66" y="218.54" width="26.37" height="1.09" transform="translate(-87.99 100.5) rotate(-29.21)"/><rect class="cls-34" x="136.7" y="220.41" width="26.37" height="1.09" transform="translate(-88.77 101.25) rotate(-29.21)"/><rect class="cls-34" x="137.75" y="222.28" width="26.37" height="1.09" transform="translate(-89.55 101.99) rotate(-29.21)"/><rect class="cls-34" x="138.79" y="224.14" width="26.37" height="1.09" transform="translate(-90.33 102.74) rotate(-29.21)"/><rect class="cls-34" x="139.83" y="226.01" width="26.37" height="1.09" transform="translate(-91.11 103.49) rotate(-29.21)"/><rect class="cls-35" x="136.14" y="218.27" width="10.53" height="7.51" transform="translate(-90.37 97.25) rotate(-29.21)"/><g><polygon class="cls-32" points="135.9 221.13 136.14 221.35 136.42 221.19 136.28 221.48 136.52 221.7 136.2 221.66 136.07 221.95 136 221.64 135.69 221.6 135.97 221.44 135.9 221.13"/><polygon class="cls-32" points="137.04 221.38 137.27 221.59 137.55 221.44 137.42 221.73 137.65 221.95 137.34 221.91 137.2 222.2 137.14 221.89 136.82 221.85 137.1 221.69 137.04 221.38"/><polygon class="cls-32" points="137.77 222.69 138.01 222.91 138.28 222.75 138.15 223.04 138.39 223.26 138.07 223.22 137.94 223.52 137.87 223.2 137.56 223.16 137.83 223.01 137.77 222.69"/><polygon class="cls-32" points="138.51 224 138.74 224.22 139.02 224.07 138.89 224.36 139.12 224.58 138.8 224.54 138.67 224.83 138.61 224.51 138.29 224.48 138.57 224.32 138.51 224"/><polygon class="cls-32" points="139.24 225.32 139.48 225.54 139.75 225.38 139.62 225.67 139.86 225.89 139.54 225.85 139.41 226.14 139.34 225.83 139.03 225.79 139.3 225.63 139.24 225.32"/><polygon class="cls-32" points="138.57 220.52 138.81 220.74 139.09 220.58 138.95 220.87 139.19 221.09 138.87 221.05 138.74 221.34 138.67 221.03 138.36 220.99 138.64 220.83 138.57 220.52"/><polygon class="cls-32" points="139.31 221.83 139.54 222.05 139.82 221.89 139.69 222.19 139.92 222.41 139.61 222.37 139.47 222.66 139.41 222.34 139.09 222.3 139.37 222.15 139.31 221.83"/><polygon class="cls-32" points="140.04 223.15 140.28 223.36 140.56 223.21 140.42 223.5 140.66 223.72 140.34 223.68 140.21 223.97 140.14 223.66 139.83 223.62 140.1 223.46 140.04 223.15"/><polygon class="cls-32" points="140.78 224.46 141.01 224.68 141.29 224.52 141.16 224.81 141.39 225.03 141.08 224.99 140.94 225.29 140.88 224.97 140.56 224.93 140.84 224.77 140.78 224.46"/><polygon class="cls-32" points="140.11 219.66 140.34 219.88 140.62 219.72 140.49 220.01 140.72 220.23 140.41 220.19 140.27 220.48 140.21 220.17 139.89 220.13 140.17 219.97 140.11 219.66"/><polygon class="cls-32" points="140.84 220.97 141.08 221.19 141.36 221.04 141.22 221.33 141.46 221.55 141.14 221.51 141.01 221.8 140.95 221.48 140.63 221.44 140.91 221.29 140.84 220.97"/><polygon class="cls-32" points="141.58 222.29 141.81 222.51 142.09 222.35 141.96 222.64 142.19 222.86 141.88 222.82 141.74 223.11 141.68 222.8 141.36 222.76 141.64 222.6 141.58 222.29"/><polygon class="cls-32" points="142.31 223.6 142.55 223.82 142.83 223.66 142.69 223.96 142.93 224.18 142.61 224.14 142.48 224.43 142.41 224.11 142.1 224.07 142.38 223.92 142.31 223.6"/><polygon class="cls-32" points="141.64 218.8 141.88 219.02 142.16 218.86 142.02 219.15 142.26 219.37 141.94 219.33 141.81 219.63 141.75 219.31 141.43 219.27 141.71 219.11 141.64 218.8"/><polygon class="cls-32" points="142.38 220.11 142.61 220.33 142.89 220.18 142.76 220.47 143 220.69 142.68 220.65 142.54 220.94 142.48 220.62 142.16 220.58 142.44 220.43 142.38 220.11"/><polygon class="cls-32" points="143.11 221.43 143.35 221.65 143.63 221.49 143.49 221.78 143.73 222 143.41 221.96 143.28 222.25 143.22 221.94 142.9 221.9 143.18 221.74 143.11 221.43"/><polygon class="cls-32" points="143.85 222.74 144.08 222.96 144.36 222.81 144.23 223.1 144.46 223.32 144.15 223.28 144.01 223.57 143.95 223.25 143.63 223.21 143.91 223.06 143.85 222.74"/><polygon class="cls-32" points="143.18 217.94 143.41 218.16 143.69 218 143.56 218.3 143.8 218.52 143.48 218.48 143.35 218.77 143.28 218.45 142.96 218.41 143.24 218.26 143.18 217.94"/><polygon class="cls-32" points="143.91 219.25 144.15 219.47 144.43 219.32 144.3 219.61 144.53 219.83 144.21 219.79 144.08 220.08 144.02 219.77 143.7 219.73 143.98 219.57 143.91 219.25"/><polygon class="cls-32" points="144.65 220.57 144.88 220.79 145.16 220.63 145.03 220.92 145.27 221.14 144.95 221.1 144.82 221.4 144.75 221.08 144.43 221.04 144.71 220.88 144.65 220.57"/><polygon class="cls-32" points="145.38 221.88 145.62 222.1 145.9 221.95 145.76 222.24 146 222.46 145.68 222.42 145.55 222.71 145.49 222.39 145.17 222.35 145.45 222.2 145.38 221.88"/><polygon class="cls-32" points="136.64 222.44 136.87 222.66 137.15 222.5 137.02 222.8 137.25 223.02 136.94 222.98 136.8 223.27 136.74 222.95 136.42 222.91 136.7 222.76 136.64 222.44"/><polygon class="cls-32" points="137.37 223.75 137.61 223.97 137.89 223.82 137.75 224.11 137.99 224.33 137.67 224.29 137.54 224.58 137.47 224.27 137.16 224.23 137.44 224.07 137.37 223.75"/><polygon class="cls-32" points="138.11 225.07 138.34 225.29 138.62 225.13 138.49 225.42 138.72 225.64 138.41 225.6 138.27 225.9 138.21 225.58 137.89 225.54 138.17 225.38 138.11 225.07"/><polygon class="cls-32" points="138.84 226.38 139.08 226.6 139.36 226.45 139.22 226.74 139.46 226.96 139.14 226.92 139.01 227.21 138.94 226.89 138.63 226.85 138.9 226.7 138.84 226.38"/><polygon class="cls-32" points="137.42 220.28 137.65 220.5 137.93 220.34 137.8 220.63 138.03 220.85 137.72 220.81 137.58 221.11 137.52 220.79 137.2 220.75 137.48 220.59 137.42 220.28"/><polygon class="cls-32" points="138.15 221.59 138.39 221.81 138.67 221.66 138.53 221.95 138.77 222.17 138.45 222.13 138.32 222.42 138.26 222.1 137.94 222.06 138.22 221.91 138.15 221.59"/><polygon class="cls-32" points="138.89 222.91 139.12 223.13 139.4 222.97 139.27 223.26 139.5 223.48 139.19 223.44 139.05 223.73 138.99 223.42 138.67 223.38 138.95 223.22 138.89 222.91"/><polygon class="cls-32" points="139.62 224.22 139.86 224.44 140.14 224.29 140 224.58 140.24 224.8 139.92 224.76 139.79 225.05 139.72 224.73 139.41 224.69 139.69 224.54 139.62 224.22"/><polygon class="cls-32" points="140.36 225.54 140.59 225.76 140.87 225.6 140.74 225.89 140.97 226.11 140.66 226.07 140.52 226.36 140.46 226.05 140.14 226.01 140.42 225.85 140.36 225.54"/><polygon class="cls-32" points="138.97 219.41 139.21 219.63 139.49 219.47 139.35 219.76 139.59 219.98 139.27 219.94 139.14 220.24 139.08 219.92 138.76 219.88 139.04 219.72 138.97 219.41"/><polygon class="cls-32" points="139.71 220.72 139.94 220.94 140.22 220.79 140.09 221.08 140.33 221.3 140.01 221.26 139.87 221.55 139.81 221.23 139.49 221.19 139.77 221.04 139.71 220.72"/><polygon class="cls-32" points="140.44 222.04 140.68 222.26 140.96 222.1 140.82 222.39 141.06 222.61 140.74 222.57 140.61 222.86 140.55 222.55 140.23 222.51 140.51 222.35 140.44 222.04"/><polygon class="cls-32" points="141.18 223.35 141.41 223.57 141.69 223.42 141.56 223.71 141.79 223.93 141.48 223.89 141.34 224.18 141.28 223.86 140.96 223.82 141.24 223.67 141.18 223.35"/><polygon class="cls-32" points="141.91 224.67 142.15 224.89 142.43 224.73 142.29 225.02 142.53 225.24 142.21 225.2 142.08 225.49 142.02 225.18 141.7 225.14 141.98 224.98 141.91 224.67"/><polygon class="cls-32" points="140.5 218.56 140.73 218.78 141.01 218.62 140.88 218.91 141.12 219.13 140.8 219.09 140.67 219.38 140.6 219.07 140.28 219.03 140.56 218.87 140.5 218.56"/><polygon class="cls-32" points="141.23 219.87 141.47 220.09 141.75 219.93 141.62 220.23 141.85 220.44 141.53 220.41 141.4 220.7 141.34 220.38 141.02 220.34 141.3 220.19 141.23 219.87"/><polygon class="cls-32" points="141.97 221.18 142.2 221.4 142.48 221.25 142.35 221.54 142.59 221.76 142.27 221.72 142.14 222.01 142.07 221.7 141.75 221.66 142.03 221.5 141.97 221.18"/><polygon class="cls-32" points="142.7 222.5 142.94 222.72 143.22 222.56 143.08 222.85 143.32 223.07 143 223.03 142.87 223.32 142.81 223.01 142.49 222.97 142.77 222.81 142.7 222.5"/><polygon class="cls-32" points="143.44 223.81 143.67 224.03 143.95 223.88 143.82 224.17 144.06 224.39 143.74 224.35 143.6 224.64 143.54 224.32 143.22 224.28 143.5 224.13 143.44 223.81"/><polygon class="cls-32" points="142.02 217.7 142.26 217.92 142.54 217.77 142.41 218.06 142.64 218.28 142.32 218.24 142.19 218.53 142.13 218.21 141.81 218.17 142.09 218.02 142.02 217.7"/><polygon class="cls-32" points="142.76 219.02 143 219.24 143.27 219.08 143.14 219.37 143.38 219.59 143.06 219.55 142.93 219.84 142.86 219.53 142.54 219.49 142.82 219.33 142.76 219.02"/><polygon class="cls-32" points="143.49 220.33 143.73 220.55 144.01 220.4 143.88 220.69 144.11 220.91 143.79 220.87 143.66 221.16 143.6 220.84 143.28 220.8 143.56 220.65 143.49 220.33"/><polygon class="cls-32" points="144.23 221.65 144.46 221.86 144.74 221.71 144.61 222 144.85 222.22 144.53 222.18 144.4 222.47 144.33 222.16 144.01 222.12 144.29 221.96 144.23 221.65"/><polygon class="cls-32" points="144.96 222.96 145.2 223.18 145.48 223.02 145.35 223.31 145.58 223.53 145.26 223.49 145.13 223.79 145.07 223.47 144.75 223.43 145.03 223.28 144.96 222.96"/><polygon class="cls-32" points="143.58 216.83 143.82 217.05 144.1 216.9 143.96 217.19 144.2 217.41 143.88 217.37 143.75 217.66 143.68 217.34 143.37 217.3 143.64 217.15 143.58 216.83"/><polygon class="cls-32" points="144.32 218.15 144.55 218.37 144.83 218.21 144.7 218.5 144.93 218.72 144.62 218.68 144.48 218.97 144.42 218.66 144.1 218.62 144.38 218.46 144.32 218.15"/><polygon class="cls-32" points="145.05 219.46 145.29 219.68 145.56 219.52 145.43 219.82 145.67 220.04 145.35 220 145.22 220.29 145.15 219.97 144.84 219.93 145.11 219.78 145.05 219.46"/><polygon class="cls-32" points="145.79 220.78 146.02 220.99 146.3 220.84 146.17 221.13 146.4 221.35 146.08 221.31 145.95 221.6 145.89 221.29 145.57 221.25 145.85 221.09 145.79 220.78"/><polygon class="cls-32" points="146.52 222.09 146.76 222.31 147.03 222.15 146.9 222.44 147.14 222.66 146.82 222.62 146.69 222.92 146.62 222.6 146.31 222.56 146.58 222.41 146.52 222.09"/></g></g><g><path class="cls-71" d="M196.35,224.4c-.12,.17-.24,.34-.36,.52l-.13,.2c-.55-.28-2.18-.78-2.33-2.86,.63,1.23,1.68,1.92,2.82,2.14Z"/><path class="cls-70" d="M195.99,224.92l-.13,.2c-.17,.24-.33,.49-.5,.74-.16,.22-.3,.45-.46,.69-.29,.42-.58,.85-.86,1.29-.08-.01-.16-.03-.25-.05-.29-.06-.58-.15-.87-.24-3.87-1.25-6.34-4.8-6.4-8.63,.11,.31,1.15,2,2.03,2.1,.13,0,.36,.21,.64,.52,0,0,0,0,0,0,.42,.46,.91,1.13,1.25,1.56,.28,.36,.46,.57,.39,.37-.04-.12-.07-.3-.08-.5-.03-.4-.01-.94,.08-1.54,.38-2.46,1.97-5.95,6.21-5.33,.18,.06,.22,.12,.04,.14-.02,0-.02,0-.04,0-2.37,.1-3.44,2.5-1.85,4.4,.24,.29,.49,.54,.64,.82,.32,.58-.01,1.23-.68,1.25-.51,.01-1.29-.22-1.64-.47,.3,1.18,1.32,2.11,2.46,2.66Z"/><path class="cls-72" d="M195.36,225.86c-.16,.22-.3,.45-.46,.69-.32-.05-.65-.12-.97-.22-1.23-.38-2.42-1.09-3.18-1.92-.36-.4-.67-.83-.93-1.29-.28-.5-.49-1.02-.64-1.56,0,0,0,0,0,0-.85-3.12,.47-6.66,4.34-7.3,2.64-.44,5.55,1.44,7.66,1.09h.02c-.97,1.29-2.63,1.01-4.12,.93-.02,0-.02,0-.04,0-.2,0-.4-.02-.58-.02-2.74,.03-4.51,2.22-4.6,4.58-.07,1.99,1.03,4.03,3.5,5.05Z"/><path class="cls-69" d="M191.32,216.75c.31-.29-1.25,.49-.84-.17,.98-1.55,3.15-2.12,4.89-2.05,.8,.03,1.6,.18,2.4,.38,1.16,.29,2.26,.63,3.12,.49,.65-.11,1.21-.63,1.22-1.31,0-.24-.16-.35-.48-.47-2.79-1.03-1.99-3.45-5.79-3.95-.48-.66-1.18-.5-1.15,0v.04h0c-3.49,.37-6.59,2.73-7.73,6.28-.07,.21-.12,.42-.18,.62l-.02,.08c-.11,.47-.18,.95-.22,1.42v.08s-.01,.08-.01,.11c0,.05,0,.1,0,.16v.05c0,.07,0,.13,0,.2h0c0,.07,0,.13,0,.19,.04,1.81,1.71,4.21,3.66,4.24,.79,.01,1.09-.69,.82-1.35-.07-.18-.17-.36-.27-.53-.95-1.72-.46-3.52,.59-4.5Z"/></g></g></g></g></g></g></svg>