<?xml version="1.0" encoding="UTF-8"?><svg xmlns="http://www.w3.org/2000/svg" xmlns:xlink="http://www.w3.org/1999/xlink" viewBox="0 0 667.86 506.11"><defs><style>.cls-1{fill:url(#linear-gradient-122);opacity:.61;}.cls-2{fill:url(#linear-gradient-107);}.cls-2,.cls-3,.cls-4,.cls-5,.cls-6,.cls-7,.cls-8,.cls-9,.cls-10,.cls-11,.cls-12,.cls-13{opacity:.51;}.cls-14{fill:url(#linear-gradient-129);}.cls-14,.cls-15,.cls-16{opacity:.36;}.cls-15{fill:url(#linear-gradient-128);}.cls-17{fill:url(#linear-gradient);}.cls-18{fill:#231f20;}.cls-19{fill:url(#linear-gradient-117);}.cls-20{fill:url(#linear-gradient-118);}.cls-21{fill:url(#linear-gradient-111);}.cls-22{fill:url(#linear-gradient-112);}.cls-23{fill:url(#linear-gradient-127);}.cls-24{fill:url(#linear-gradient-110);}.cls-25{fill:url(#linear-gradient-113);}.cls-26{fill:url(#linear-gradient-114);}.cls-27{fill:url(#linear-gradient-115);}.cls-28{fill:url(#linear-gradient-116);}.cls-29{fill:url(#linear-gradient-119);}.cls-30{fill:url(#linear-gradient-106);}.cls-31{fill:url(#linear-gradient-109);}.cls-32{fill:url(#linear-gradient-108);}.cls-33{fill:url(#linear-gradient-104);}.cls-34{fill:url(#linear-gradient-103);}.cls-35{fill:url(#linear-gradient-102);}.cls-36{fill:url(#linear-gradient-105);}.cls-37{fill:url(#linear-gradient-123);}.cls-38{fill:url(#linear-gradient-121);}.cls-39{fill:url(#linear-gradient-101);}.cls-40{fill:url(#linear-gradient-100);}.cls-41{fill:url(#linear-gradient-126);}.cls-42{fill:url(#linear-gradient-125);}.cls-43{fill:url(#linear-gradient-124);}.cls-44{fill:url(#linear-gradient-120);}.cls-45{fill:url(#linear-gradient-77);}.cls-45,.cls-46,.cls-47,.cls-48,.cls-49,.cls-50,.cls-51,.cls-52,.cls-53,.cls-54,.cls-55,.cls-56,.cls-57,.cls-58,.cls-59,.cls-60,.cls-61{mix-blend-mode:multiply;opacity:.42;}.cls-46{fill:url(#linear-gradient-76);}.cls-47{fill:url(#linear-gradient-75);}.cls-48{fill:url(#linear-gradient-74);}.cls-49{fill:url(#linear-gradient-73);}.cls-50{fill:url(#linear-gradient-63);}.cls-51{fill:url(#linear-gradient-66);}.cls-52{fill:url(#linear-gradient-64);}.cls-53{fill:url(#linear-gradient-65);}.cls-54{fill:url(#linear-gradient-50);}.cls-55{fill:url(#linear-gradient-52);}.cls-56{fill:url(#linear-gradient-51);}.cls-57{fill:url(#linear-gradient-48);}.cls-58{fill:url(#linear-gradient-45);}.cls-59{fill:url(#linear-gradient-80);}.cls-60{fill:url(#linear-gradient-81);}.cls-61{fill:url(#linear-gradient-92);}.cls-62{stroke:#000;stroke-linecap:round;stroke-width:2px;}.cls-62,.cls-63{fill:none;stroke-miterlimit:10;}.cls-64{fill:url(#linear-gradient-8);}.cls-65{fill:url(#linear-gradient-9);}.cls-66{fill:url(#linear-gradient-3);}.cls-67{fill:url(#linear-gradient-4);}.cls-68{fill:url(#linear-gradient-2);}.cls-69{fill:url(#linear-gradient-6);}.cls-70{fill:url(#linear-gradient-7);}.cls-71{fill:url(#linear-gradient-49);}.cls-71,.cls-72,.cls-73,.cls-74,.cls-75{opacity:.32;}.cls-72{fill:url(#linear-gradient-70);}.cls-73{fill:url(#linear-gradient-96);}.cls-74{fill:url(#linear-gradient-95);}.cls-75{fill:url(#linear-gradient-29);}.cls-63{stroke:#231f20;}.cls-3{fill:url(#linear-gradient-32);}.cls-4{fill:url(#linear-gradient-31);}.cls-5{fill:url(#linear-gradient-27);}.cls-6{fill:url(#linear-gradient-26);}.cls-7{fill:url(#linear-gradient-17);}.cls-8{fill:url(#linear-gradient-16);}.cls-9{fill:url(#linear-gradient-46);}.cls-10{fill:url(#linear-gradient-62);}.cls-11{fill:url(#linear-gradient-61);}.cls-12{fill:url(#linear-gradient-84);}.cls-13{fill:url(#linear-gradient-85);}.cls-76{fill:url(#linear-gradient-35);opacity:.49;}.cls-77{fill:url(#linear-gradient-59);}.cls-78{fill:url(#linear-gradient-57);}.cls-79{fill:url(#linear-gradient-58);}.cls-80{fill:url(#linear-gradient-55);}.cls-81{fill:url(#linear-gradient-56);}.cls-82{fill:url(#linear-gradient-53);}.cls-83{fill:url(#linear-gradient-54);}.cls-84{fill:url(#linear-gradient-78);}.cls-85{fill:url(#linear-gradient-79);}.cls-86{fill:url(#linear-gradient-71);}.cls-87{fill:url(#linear-gradient-72);}.cls-88{fill:url(#linear-gradient-68);}.cls-89{fill:url(#linear-gradient-67);}.cls-90{fill:url(#linear-gradient-69);}.cls-91{fill:url(#linear-gradient-60);}.cls-92{fill:url(#linear-gradient-98);}.cls-93{fill:url(#linear-gradient-91);}.cls-94{fill:url(#linear-gradient-99);}.cls-95{fill:url(#linear-gradient-97);}.cls-96{fill:url(#linear-gradient-94);}.cls-97{fill:url(#linear-gradient-93);}.cls-98{fill:url(#linear-gradient-90);}.cls-99{fill:url(#linear-gradient-88);}.cls-100{fill:url(#linear-gradient-89);}.cls-101{fill:url(#linear-gradient-87);}.cls-102{fill:url(#linear-gradient-86);}.cls-103{fill:url(#linear-gradient-83);}.cls-104{fill:url(#linear-gradient-82);}.cls-105{fill:url(#linear-gradient-41);}.cls-106{fill:url(#linear-gradient-40);}.cls-107{fill:url(#linear-gradient-43);}.cls-108{fill:url(#linear-gradient-42);}.cls-109{fill:url(#linear-gradient-44);}.cls-110{fill:url(#linear-gradient-47);}.cls-111{fill:url(#linear-gradient-14);}.cls-112{fill:url(#linear-gradient-18);}.cls-113{fill:url(#linear-gradient-22);}.cls-114{fill:url(#linear-gradient-20);}.cls-115{fill:url(#linear-gradient-21);}.cls-116{fill:url(#linear-gradient-23);}.cls-117{fill:url(#linear-gradient-15);}.cls-118{fill:url(#linear-gradient-19);}.cls-119{fill:url(#linear-gradient-13);}.cls-120{fill:url(#linear-gradient-12);}.cls-121{fill:url(#linear-gradient-10);}.cls-122{fill:url(#linear-gradient-11);}.cls-123{fill:url(#linear-gradient-24);}.cls-124{fill:url(#linear-gradient-38);}.cls-125{fill:url(#linear-gradient-37);}.cls-126{fill:url(#linear-gradient-34);}.cls-127{fill:url(#linear-gradient-39);}.cls-128{fill:url(#linear-gradient-36);}.cls-129{fill:url(#linear-gradient-25);}.cls-130{fill:url(#linear-gradient-28);}.cls-131{fill:url(#linear-gradient-33);}.cls-132{fill:url(#linear-gradient-30);}.cls-133{isolation:isolate;}.cls-16{fill:url(#linear-gradient-5);}</style><linearGradient id="linear-gradient" x1="121.88" y1="-29.75" x2="113.27" y2="583.39" gradientTransform="matrix(1, 0, 0, 1, 0, 0)" gradientUnits="userSpaceOnUse"><stop offset="0" stop-color="#8e3bcb"/><stop offset=".9" stop-color="#0f1536"/></linearGradient><linearGradient id="linear-gradient-2" x1="342.26" y1="294.24" x2="354.83" y2="758.29" gradientTransform="matrix(1, 0, 0, 1, 0, 0)" gradientUnits="userSpaceOnUse"><stop offset="0" stop-color="#8e3bcb"/><stop offset=".5" stop-color="#d767b1"/><stop offset="1" stop-color="#f2535b"/></linearGradient><linearGradient id="linear-gradient-3" x1="368.73" y1="607.59" x2="348.15" y2="391.57" xlink:href="#linear-gradient-2"/><linearGradient id="linear-gradient-4" x1="431.62" y1="14.09" x2="245.23" y2="635.41" gradientTransform="matrix(1, 0, 0, 1, 0, 0)" gradientUnits="userSpaceOnUse"><stop offset=".25" stop-color="#ffd33d"/><stop offset=".97" stop-color="#f1535b"/></linearGradient><linearGradient id="linear-gradient-5" x1="346.08" y1="468.48" x2="357.97" y2="-183.81" gradientTransform="matrix(1, 0, 0, 1, 0, 0)" gradientUnits="userSpaceOnUse"><stop offset="0" stop-color="#ffd33d"/><stop offset="1" stop-color="#f1535b"/></linearGradient><linearGradient id="linear-gradient-6" x1="353.24" y1="-91.71" x2="348.06" y2="233.45" xlink:href="#linear-gradient-5"/><linearGradient id="linear-gradient-7" x1="314.12" y1="135.92" x2="387" y2="135.92" gradientTransform="matrix(1, 0, 0, 1, 0, 0)" gradientUnits="userSpaceOnUse"><stop offset=".13" stop-color="#381a46"/><stop offset=".49" stop-color="#1b0c22"/><stop offset=".81" stop-color="#070309"/><stop offset="1" stop-color="#000"/></linearGradient><linearGradient id="linear-gradient-8" x1="388.82" y1="-24.46" x2="305.4" y2="325.22" gradientTransform="matrix(1, 0, 0, 1, 0, 0)" gradientUnits="userSpaceOnUse"><stop offset=".06" stop-color="#fff"/><stop offset=".25" stop-color="#f8fafe"/><stop offset=".53" stop-color="#e3ecfb"/><stop offset=".87" stop-color="#c2d6f6"/><stop offset="1" stop-color="#b3ccf4"/></linearGradient><linearGradient id="linear-gradient-9" x1="354.28" y1="64.11" x2="348.57" y2="309.85" xlink:href="#linear-gradient-5"/><linearGradient id="linear-gradient-10" x1="349.38" y1="62.84" x2="351.67" y2="557.74" xlink:href="#linear-gradient-5"/><linearGradient id="linear-gradient-11" x1="348.61" y1="600.47" x2="352.03" y2="175.28" gradientTransform="matrix(1, 0, 0, 1, 0, 0)" gradientUnits="userSpaceOnUse"><stop offset="0" stop-color="#8e3bcb"/><stop offset=".5" stop-color="#d767b1"/><stop offset=".85" stop-color="#f2535b"/></linearGradient><linearGradient id="linear-gradient-12" x1="208.01" y1="518.81" x2="284.33" y2="136.44" xlink:href="#linear-gradient-11"/><linearGradient id="linear-gradient-13" x1="-82.56" y1="518.81" x2="-6.23" y2="136.44" gradientTransform="translate(404.62) rotate(-180) scale(1 -1)" xlink:href="#linear-gradient-11"/><linearGradient id="linear-gradient-14" x1="93.22" y1="216.09" x2="24.17" y2="566.74" gradientTransform="translate(156.79) rotate(-180) scale(1 -1)" gradientUnits="userSpaceOnUse"><stop offset=".06" stop-color="#f4cc98"/><stop offset=".1" stop-color="#aa6834"/><stop offset=".2" stop-color="#a56034"/><stop offset=".42" stop-color="#9f5634"/><stop offset=".7" stop-color="#9d5334"/></linearGradient><linearGradient id="linear-gradient-15" x1="104.37" y1="230.74" x2="5.98" y2="556.13" gradientTransform="translate(156.79) rotate(-180) scale(1 -1)" gradientUnits="userSpaceOnUse"><stop offset=".15" stop-color="#f5cc8f"/><stop offset=".16" stop-color="#f4cc98"/><stop offset=".39" stop-color="#aa6834"/><stop offset=".43" stop-color="#a36031"/><stop offset=".63" stop-color="#854127"/><stop offset=".74" stop-color="#7a3524"/></linearGradient><linearGradient id="linear-gradient-16" x1="158.88" y1="246.36" x2="32.57" y2="409.34" xlink:href="#linear-gradient-15"/><linearGradient id="linear-gradient-17" x1="21.43" y1="301.11" x2="35.29" y2="460.03" xlink:href="#linear-gradient-15"/><linearGradient id="linear-gradient-18" x1="77.39" y1="295.05" x2="166.93" y2="576.56" gradientTransform="translate(156.79) rotate(-180) scale(1 -1)" gradientUnits="userSpaceOnUse"><stop offset=".14" stop-color="#f5cd8f"/><stop offset=".37" stop-color="#f4cc98"/><stop offset=".55" stop-color="#aa6834"/><stop offset=".75" stop-color="#9d5334"/></linearGradient><linearGradient id="linear-gradient-19" x1="37.65" y1="307.69" x2="127.19" y2="589.2" xlink:href="#linear-gradient-18"/><linearGradient id="linear-gradient-20" x1="18.53" y1="313.77" x2="108.08" y2="595.28" xlink:href="#linear-gradient-18"/><linearGradient id="linear-gradient-21" x1="1516.43" y1="242.07" x2="1501.24" y2="381.36" gradientTransform="translate(-1460.07 124.95) rotate(-5.05)" gradientUnits="userSpaceOnUse"><stop offset=".46" stop-color="#ffd33d"/><stop offset="1" stop-color="#f1535b"/></linearGradient><linearGradient id="linear-gradient-22" x1="247.57" y1="267.78" x2="203.13" y2="328.33" gradientTransform="matrix(1, 0, 0, 1, 0, 0)" xlink:href="#linear-gradient-14"/><linearGradient id="linear-gradient-23" x1="146.84" y1="383.33" x2="146.21" y2="519.8" gradientTransform="matrix(1, 0, 0, 1, 0, 0)" gradientUnits="userSpaceOnUse"><stop offset=".18" stop-color="#f2ce96"/><stop offset=".22" stop-color="#f2cd97"/><stop offset=".74" stop-color="#ffc4a6"/></linearGradient><linearGradient id="linear-gradient-24" x1="225.22" y1="383.69" x2="224.59" y2="520.16" xlink:href="#linear-gradient-23"/><linearGradient id="linear-gradient-25" x1="332.51" y1="162.5" x2="11.49" y2="584.11" gradientTransform="matrix(1, 0, 0, 1, 0, 0)" xlink:href="#linear-gradient-14"/><linearGradient id="linear-gradient-26" x1="251.08" y1="275.61" x2="108.28" y2="330.77" gradientTransform="matrix(1, 0, 0, 1, 0, 0)" xlink:href="#linear-gradient-15"/><linearGradient id="linear-gradient-27" x1="312.29" y1="400.83" x2="223.16" y2="436.21" gradientTransform="matrix(1, 0, 0, 1, 0, 0)" xlink:href="#linear-gradient-15"/><linearGradient id="linear-gradient-28" x1="111.98" y1="545.38" x2="281.24" y2="76.44" gradientTransform="matrix(1, 0, 0, 1, 0, 0)" gradientUnits="userSpaceOnUse"><stop offset=".14" stop-color="#f5cd8f"/><stop offset=".51" stop-color="#f4cc98"/><stop offset=".67" stop-color="#aa6834"/><stop offset=".82" stop-color="#9d5334"/></linearGradient><linearGradient id="linear-gradient-29" x1="192.43" y1="188.63" x2="175.18" y2="295.55" gradientTransform="matrix(1, 0, 0, 1, 0, 0)" xlink:href="#linear-gradient-15"/><linearGradient id="linear-gradient-30" x1="190.22" y1="300.17" x2="185.74" y2="327.97" xlink:href="#linear-gradient-23"/><linearGradient id="linear-gradient-31" x1="56.85" y1="280.9" x2="174.96" y2="475.96" gradientTransform="matrix(1, 0, 0, 1, 0, 0)" xlink:href="#linear-gradient-15"/><linearGradient id="linear-gradient-32" x1="164.14" y1="242" x2="146.39" y2="395.71" gradientTransform="matrix(1, 0, 0, 1, 0, 0)" xlink:href="#linear-gradient-15"/><linearGradient id="linear-gradient-33" x1="205.21" y1="357.43" x2="394.07" y2="18.49" gradientTransform="matrix(1, 0, 0, 1, 0, 0)" gradientUnits="userSpaceOnUse"><stop offset=".01" stop-color="#8e3bcb"/><stop offset=".48" stop-color="#d767b1"/><stop offset="1" stop-color="#f2535b"/></linearGradient><linearGradient id="linear-gradient-34" x1="79.67" y1="647.27" x2="328.56" y2="151.99" xlink:href="#linear-gradient-33"/><linearGradient id="linear-gradient-35" x1="219.23" y1="234.81" x2="192.22" y2="718.04" xlink:href="#linear-gradient-33"/><linearGradient id="linear-gradient-36" x1="101.13" y1="388.25" x2="205.77" y2="325.56" xlink:href="#linear-gradient-23"/><linearGradient id="linear-gradient-37" x1="47.83" y1="413.66" x2="315.14" y2="176.86" gradientTransform="matrix(1, 0, 0, 1, 0, 0)" xlink:href="#linear-gradient-14"/><linearGradient id="linear-gradient-38" x1="1321.92" y1="325.31" x2="1330.25" y2="398.1" gradientTransform="translate(-1276.67 214.19) rotate(-12.37)" xlink:href="#linear-gradient-21"/><linearGradient id="linear-gradient-39" x1="1296.07" y1="146.92" x2="1177.54" y2="187.86" gradientTransform="translate(881.6 -724.15) rotate(136.13) scale(1 -1)" xlink:href="#linear-gradient-5"/><linearGradient id="linear-gradient-40" x1="230.42" y1="109.02" x2="140.39" y2="350.87" gradientTransform="matrix(1, 0, 0, 1, 0, 0)" xlink:href="#linear-gradient-14"/><linearGradient id="linear-gradient-41" x1="179.17" y1="166.51" x2="191.47" y2="619.13" gradientTransform="matrix(1, 0, 0, 1, 0, 0)" gradientUnits="userSpaceOnUse"><stop offset=".14" stop-color="#f5cd8f"/><stop offset=".31" stop-color="#f4cc98"/><stop offset=".51" stop-color="#aa6834"/><stop offset=".75" stop-color="#9d5334"/></linearGradient><linearGradient id="linear-gradient-42" x1="185.31" y1="258.16" x2="212.3" y2="258.16" gradientTransform="matrix(1, 0, 0, 1, 0, 0)" gradientUnits="userSpaceOnUse"><stop offset=".23" stop-color="#a42c38"/><stop offset=".52" stop-color="#9d2e39"/><stop offset="1" stop-color="#99303a"/></linearGradient><linearGradient id="linear-gradient-43" x1="205.87" y1="245.33" x2="177.74" y2="289.27" gradientTransform="matrix(1, 0, 0, 1, 0, 0)" gradientUnits="userSpaceOnUse"><stop offset=".31" stop-color="#ff5e7b"/><stop offset=".4" stop-color="#f45974"/><stop offset=".58" stop-color="#d74c64"/><stop offset=".81" stop-color="#a8374a"/><stop offset="1" stop-color="#7b2331"/></linearGradient><linearGradient id="linear-gradient-44" x1="266.9" y1="293.31" x2="256.63" y2="333.06" xlink:href="#linear-gradient-23"/><linearGradient id="linear-gradient-45" x1="263.34" y1="335.28" x2="259.04" y2="324.06" xlink:href="#linear-gradient-23"/><linearGradient id="linear-gradient-46" x1="216.07" y1="392.25" x2="200" y2="474.22" gradientTransform="matrix(1, 0, 0, 1, 0, 0)" xlink:href="#linear-gradient-15"/><linearGradient id="linear-gradient-47" x1="284.82" y1="406.92" x2="257.99" y2="336.92" xlink:href="#linear-gradient-23"/><linearGradient id="linear-gradient-48" x1="265.88" y1="375.4" x2="256.61" y2="351.22" xlink:href="#linear-gradient-23"/><linearGradient id="linear-gradient-49" x1="148.61" y1="183.39" x2="140.88" y2="226.88" gradientTransform="matrix(1, 0, 0, 1, 0, 0)" xlink:href="#linear-gradient-15"/><linearGradient id="linear-gradient-50" x1="163.77" y1="477.62" x2="169.73" y2="477.62" xlink:href="#linear-gradient-23"/><linearGradient id="linear-gradient-51" x1="236.64" y1="488.97" x2="248.93" y2="488.97" xlink:href="#linear-gradient-23"/><linearGradient id="linear-gradient-52" x1="221.81" y1="476.12" x2="230.44" y2="476.12" xlink:href="#linear-gradient-23"/><linearGradient id="linear-gradient-53" x1="230.06" y1="220.26" x2="180.38" y2="253.75" gradientTransform="matrix(1, 0, 0, 1, 0, 0)" gradientUnits="userSpaceOnUse"><stop offset=".09" stop-color="#854a2b"/><stop offset=".19" stop-color="#663821"/><stop offset=".37" stop-color="#2f1a0f"/><stop offset=".51" stop-color="#0c0704"/><stop offset=".59" stop-color="#000"/></linearGradient><linearGradient id="linear-gradient-54" x1="182.32" y1="222.26" x2="205.02" y2="349.89" gradientTransform="translate(334.45 -22.82) rotate(69.43)" gradientUnits="userSpaceOnUse"><stop offset=".03" stop-color="#fff"/><stop offset="1" stop-color="#000"/></linearGradient><linearGradient id="linear-gradient-55" x1="209.11" y1="217.5" x2="231.81" y2="345.12" gradientTransform="translate(51.92 -38.75) rotate(11.95)" gradientUnits="userSpaceOnUse"><stop offset="0" stop-color="#fff"/><stop offset="1" stop-color="#000"/></linearGradient><linearGradient id="linear-gradient-56" x1="161.42" y1="165.66" x2="118.05" y2="257.82" gradientTransform="matrix(1, 0, 0, 1, 0, 0)" xlink:href="#linear-gradient-14"/><linearGradient id="linear-gradient-57" x1="316.72" y1="279.91" x2="56.89" y2="124.9" gradientTransform="matrix(1, 0, 0, 1, 0, 0)" gradientUnits="userSpaceOnUse"><stop offset=".19" stop-color="#ffd33d"/><stop offset="1" stop-color="#f1535b"/></linearGradient><linearGradient id="linear-gradient-58" x1="197.67" y1="114.08" x2="171.43" y2="277.43" gradientTransform="matrix(1, 0, 0, 1, 0, 0)" gradientUnits="userSpaceOnUse"><stop offset=".27" stop-color="#ffd33d"/><stop offset=".37" stop-color="#fdc83f"/><stop offset=".56" stop-color="#faac45"/><stop offset=".79" stop-color="#f57f50"/><stop offset="1" stop-color="#f1535b"/></linearGradient><linearGradient id="linear-gradient-59" x1="204.22" y1="79.8" x2="177.08" y2="250.79" xlink:href="#linear-gradient-57"/><linearGradient id="linear-gradient-60" x1="184.52" y1="109.77" x2="183.03" y2="247.88" xlink:href="#linear-gradient-57"/><linearGradient id="linear-gradient-61" x1="153.86" y1="275.21" x2="145.62" y2="346.59" gradientTransform="matrix(1, 0, 0, 1, 0, 0)" xlink:href="#linear-gradient-15"/><linearGradient id="linear-gradient-62" x1="271.94" y1="390.99" x2="271.4" y2="391.21" gradientTransform="matrix(1, 0, 0, 1, 0, 0)" xlink:href="#linear-gradient-15"/><linearGradient id="linear-gradient-63" x1="124.57" y1="500.91" x2="131.89" y2="500.91" xlink:href="#linear-gradient-23"/><linearGradient id="linear-gradient-64" x1="121.55" y1="500.41" x2="126.81" y2="500.41" xlink:href="#linear-gradient-23"/><linearGradient id="linear-gradient-65" x1="118.6" y1="498.48" x2="122.93" y2="498.48" xlink:href="#linear-gradient-23"/><linearGradient id="linear-gradient-66" x1="118.16" y1="495.33" x2="120.76" y2="495.33" xlink:href="#linear-gradient-23"/><linearGradient id="linear-gradient-67" x1="183.12" y1="232.84" x2="185.45" y2="248.09" gradientTransform="matrix(1, 0, 0, 1, 0, 0)" xlink:href="#linear-gradient-55"/><linearGradient id="linear-gradient-68" x1="212.85" y1="231.56" x2="215.18" y2="246.82" gradientTransform="matrix(1, 0, 0, 1, 0, 0)" xlink:href="#linear-gradient-55"/><linearGradient id="linear-gradient-69" x1="466.87" y1="248.86" x2="463.91" y2="417.25" gradientTransform="matrix(1, 0, 0, 1, 0, 0)" gradientUnits="userSpaceOnUse"><stop offset=".16" stop-color="#f4cc98"/><stop offset=".2" stop-color="#aa6834"/><stop offset=".5" stop-color="#9d5334"/></linearGradient><linearGradient id="linear-gradient-70" x1="458.7" y1="263.79" x2="475.9" y2="354.4" gradientTransform="matrix(1, 0, 0, 1, 0, 0)" xlink:href="#linear-gradient-15"/><linearGradient id="linear-gradient-71" x1="448.8" y1="198.32" x2="431.82" y2="308.14" xlink:href="#linear-gradient-23"/><linearGradient id="linear-gradient-72" x1="476.72" y1="393.56" x2="503.23" y2="548.34" xlink:href="#linear-gradient-23"/><linearGradient id="linear-gradient-73" x1="507.82" y1="473.86" x2="522.93" y2="531.04" xlink:href="#linear-gradient-23"/><linearGradient id="linear-gradient-74" x1="464.81" y1="500.05" x2="475.54" y2="500.05" xlink:href="#linear-gradient-23"/><linearGradient id="linear-gradient-75" x1="473.55" y1="500.74" x2="481.49" y2="500.74" xlink:href="#linear-gradient-23"/><linearGradient id="linear-gradient-76" x1="482.09" y1="501.25" x2="488.92" y2="501.25" xlink:href="#linear-gradient-23"/><linearGradient id="linear-gradient-77" x1="497.19" y1="485.19" x2="503.93" y2="485.19" xlink:href="#linear-gradient-23"/><linearGradient id="linear-gradient-78" x1="521.21" y1="356.32" x2="503.16" y2="513.27" xlink:href="#linear-gradient-69"/><linearGradient id="linear-gradient-79" x1="564.69" y1="370.94" x2="538.17" y2="498.36" xlink:href="#linear-gradient-23"/><linearGradient id="linear-gradient-80" x1="511.77" y1="499.58" x2="524.52" y2="499.58" xlink:href="#linear-gradient-23"/><linearGradient id="linear-gradient-81" x1="520.04" y1="500.28" x2="528.78" y2="500.28" xlink:href="#linear-gradient-23"/><linearGradient id="linear-gradient-82" x1="-549.2" y1="212.16" x2="-618.25" y2="562.82" gradientTransform="translate(1190.46)" xlink:href="#linear-gradient-14"/><linearGradient id="linear-gradient-83" x1="-538.05" y1="226.82" x2="-636.43" y2="552.2" gradientTransform="translate(1190.46)" xlink:href="#linear-gradient-15"/><linearGradient id="linear-gradient-84" x1="-483.54" y1="242.44" x2="-609.85" y2="405.41" gradientTransform="translate(1190.46)" xlink:href="#linear-gradient-15"/><linearGradient id="linear-gradient-85" x1="-620.98" y1="297.19" x2="-607.13" y2="456.1" gradientTransform="translate(1190.46)" xlink:href="#linear-gradient-15"/><linearGradient id="linear-gradient-86" x1="-565.03" y1="291.12" x2="-475.48" y2="572.63" gradientTransform="translate(1190.46)" xlink:href="#linear-gradient-18"/><linearGradient id="linear-gradient-87" x1="-604.77" y1="303.76" x2="-515.22" y2="585.27" gradientTransform="translate(1190.46)" xlink:href="#linear-gradient-18"/><linearGradient id="linear-gradient-88" x1="-623.88" y1="309.84" x2="-534.34" y2="591.35" gradientTransform="translate(1190.46)" xlink:href="#linear-gradient-18"/><linearGradient id="linear-gradient-89" x1="2156.7" y1="294.66" x2="2141.51" y2="433.95" gradientTransform="translate(2807.31 124.95) rotate(-174.95) scale(1 -1)" xlink:href="#linear-gradient-21"/><linearGradient id="linear-gradient-90" x1="1950.26" y1="459.1" x2="1958.59" y2="531.89" gradientTransform="translate(2623.91 214.19) rotate(-167.63) scale(1 -1)" xlink:href="#linear-gradient-21"/><linearGradient id="linear-gradient-91" x1="830.23" y1="589.32" x2="711.71" y2="630.25" gradientTransform="translate(465.65 -724.15) rotate(43.87)" xlink:href="#linear-gradient-5"/><linearGradient id="linear-gradient-92" x1="540.74" y1="485.63" x2="547.09" y2="485.63" xlink:href="#linear-gradient-23"/><linearGradient id="linear-gradient-93" x1="573.27" y1="143.3" x2="505.02" y2="491.58" xlink:href="#linear-gradient-69"/><linearGradient id="linear-gradient-94" x1="444.32" y1="661.87" x2="593.32" y2="-186.05" gradientTransform="matrix(1, 0, 0, 1, 0, 0)" gradientUnits="userSpaceOnUse"><stop offset=".14" stop-color="#f5cd8f"/><stop offset=".42" stop-color="#f4cc98"/><stop offset=".55" stop-color="#aa6834"/><stop offset=".75" stop-color="#9d5334"/></linearGradient><linearGradient id="linear-gradient-95" x1="506.41" y1="235.6" x2="517.57" y2="294.37" gradientTransform="matrix(1, 0, 0, 1, 0, 0)" xlink:href="#linear-gradient-15"/><linearGradient id="linear-gradient-96" x1="497.2" y1="265.55" x2="517.66" y2="402.47" gradientTransform="matrix(1, 0, 0, 1, 0, 0)" xlink:href="#linear-gradient-15"/><linearGradient id="linear-gradient-97" x1="547.07" y1="174.81" x2="460.07" y2="360.41" xlink:href="#linear-gradient-69"/><linearGradient id="linear-gradient-98" x1="535.89" y1="208.33" x2="546.33" y2="268.42" xlink:href="#linear-gradient-69"/><linearGradient id="linear-gradient-99" x1="501.93" y1="335.84" x2="517.15" y2="125.63" gradientTransform="matrix(1, 0, 0, 1, 0, 0)" gradientUnits="userSpaceOnUse"><stop offset=".14" stop-color="#f5cd8f"/><stop offset=".4" stop-color="#f4cc98"/><stop offset=".55" stop-color="#aa6834"/><stop offset=".75" stop-color="#9d5334"/></linearGradient><linearGradient id="linear-gradient-100" x1="472.16" y1="264.88" x2="486.49" y2="264.88" xlink:href="#linear-gradient-42"/><linearGradient id="linear-gradient-101" x1="479.59" y1="262.99" x2="493.95" y2="297.98" xlink:href="#linear-gradient-43"/><linearGradient id="linear-gradient-102" x1="492.95" y1="238.4" x2="531.99" y2="359.16" gradientTransform="translate(378.15 -295.4) rotate(51.61)" gradientUnits="userSpaceOnUse"><stop offset=".05" stop-color="#fff"/><stop offset="1" stop-color="#000"/></linearGradient><linearGradient id="linear-gradient-103" x1="454.05" y1="232.86" x2="502.33" y2="267.34" xlink:href="#linear-gradient-53"/><linearGradient id="linear-gradient-104" x1="449.98" y1="196.56" x2="435.98" y2="318.39" xlink:href="#linear-gradient-57"/><linearGradient id="linear-gradient-105" x1="492.17" y1="363.55" x2="426.23" y2="334.49" xlink:href="#linear-gradient-23"/><linearGradient id="linear-gradient-106" x1="483.34" y1="228.4" x2="509.57" y2="403.95" xlink:href="#linear-gradient-69"/><linearGradient id="linear-gradient-107" x1="725.75" y1="261.37" x2="459.97" y2="507.46" gradientTransform="matrix(1, 0, 0, 1, 0, 0)" xlink:href="#linear-gradient-15"/><linearGradient id="linear-gradient-108" x1="495.36" y1="244.05" x2="490.37" y2="250.6" gradientTransform="matrix(1, 0, 0, 1, 0, 0)" xlink:href="#linear-gradient-55"/><linearGradient id="linear-gradient-109" x1="520.83" y1="162.59" x2="521.19" y2="278.32" xlink:href="#linear-gradient-57"/><linearGradient id="linear-gradient-110" x1="515.76" y1="266.58" x2="512.13" y2="153.39" xlink:href="#linear-gradient-57"/><linearGradient id="linear-gradient-111" x1="510.05" y1="169.81" x2="520.94" y2="224.59" xlink:href="#linear-gradient-57"/><linearGradient id="linear-gradient-112" x1="521.32" y1="187.41" x2="520.89" y2="236.41" xlink:href="#linear-gradient-57"/><linearGradient id="linear-gradient-113" x1="354.89" y1="98.98" x2="343.1" y2="268.78" xlink:href="#linear-gradient-8"/><linearGradient id="linear-gradient-114" x1="352.05" y1="-91.73" x2="346.87" y2="233.44" xlink:href="#linear-gradient-7"/><linearGradient id="linear-gradient-115" x1="351.8" y1="-26.28" x2="349.53" y2="43.22" xlink:href="#linear-gradient-11"/><linearGradient id="linear-gradient-116" x1="242.03" y1="155.34" x2="239.1" y2="339.66" xlink:href="#linear-gradient-7"/><linearGradient id="linear-gradient-117" x1="2616.43" y1="20.37" x2="2582.98" y2="327.23" gradientTransform="translate(-2115.79 -248.07) rotate(3.61)" xlink:href="#linear-gradient-21"/><linearGradient id="linear-gradient-118" x1="1960.1" y1="14.89" x2="1931.99" y2="272.79" gradientTransform="translate(2198.97 285.96) rotate(-169.48) scale(1 -1)" xlink:href="#linear-gradient-21"/><linearGradient id="linear-gradient-119" x1="972.21" y1="140.93" x2="892.69" y2="168.39" gradientTransform="translate(881.6 -724.15) rotate(136.13) scale(1 -1)" xlink:href="#linear-gradient-5"/><linearGradient id="linear-gradient-120" x1="881.94" y1="249.85" x2="763.42" y2="290.78" gradientTransform="translate(881.6 -724.15) rotate(136.13) scale(1 -1)" xlink:href="#linear-gradient-5"/><linearGradient id="linear-gradient-121" x1="543.23" y1="395.11" x2="581.38" y2="-24.55" gradientTransform="translate(1155.61) rotate(-180) scale(1 -1)" gradientUnits="userSpaceOnUse"><stop offset="0" stop-color="#cc61b9"/><stop offset=".3" stop-color="#f2535b"/><stop offset=".46" stop-color="#f35f58"/><stop offset=".61" stop-color="#f57553"/><stop offset="1" stop-color="#ffd33e"/></linearGradient><linearGradient id="linear-gradient-122" x1="549.19" y1="249.59" x2="583.34" y2="9.54" xlink:href="#linear-gradient-121"/><linearGradient id="linear-gradient-123" x1="559.02" y1="-1.92" x2="556.52" y2="137.23" gradientTransform="translate(1155.61) rotate(-180) scale(1 -1)" gradientUnits="userSpaceOnUse"><stop offset="0" stop-color="#ffd33d"/><stop offset="0" stop-color="#fed13d"/><stop offset=".2" stop-color="#f89b4a"/><stop offset=".37" stop-color="#f47453"/><stop offset=".5" stop-color="#f15b58"/><stop offset=".58" stop-color="#f1535b"/></linearGradient><linearGradient id="linear-gradient-124" x1="597.93" y1="-98.38" x2="466.74" y2="263.65" xlink:href="#linear-gradient-123"/><linearGradient id="linear-gradient-125" x1="666.38" y1="-73.57" x2="535.19" y2="288.46" xlink:href="#linear-gradient-123"/><linearGradient id="linear-gradient-126" x1="652.41" y1="-78.63" x2="521.22" y2="283.39" xlink:href="#linear-gradient-123"/><linearGradient id="linear-gradient-127" x1="559.36" y1="209.09" x2="590.08" y2="-218.69" gradientTransform="translate(1155.61) rotate(-180) scale(1 -1)" xlink:href="#linear-gradient-2"/><linearGradient id="linear-gradient-128" x1="624.32" y1="-98.09" x2="621.2" y2="159.55" gradientTransform="translate(1155.61) rotate(-180) scale(1 -1)" gradientUnits="userSpaceOnUse"><stop offset="0" stop-color="#8e3bcb"/><stop offset=".9" stop-color="#0f1536"/></linearGradient><linearGradient id="linear-gradient-129" x1="523.04" y1="18.93" x2="504.33" y2="135.76" xlink:href="#linear-gradient-128"/></defs><g class="cls-133"><g id="Layer_2"><g id="Layer_1-2"><g><g id="T6D50V.tif"><path class="cls-17" d="M0,221.08v-25.93c.33-.72,.67-1.44,.98-2.17,1.57-3.74,3.83-6.88,7.95-7.98,3.09-.83,6.26-1.38,9.42-1.87,3.79-.59,7.63-.91,11.42-1.52,.8-.13,1.87-.83,2.17-1.55,1.75-4.1,3.31-8.27,4.97-12.51-3.54-4.49-7.28-9.07-10.84-13.79-5.61-7.44-4.73-15.14,1.86-21.53,4.87-4.72,9.64-9.56,14.41-14.38,5-5.05,13.08-5.63,18.61-1.73,4.98,3.51,9.65,7.45,14.51,11.12,.51,.38,1.5,.54,2.09,.32,3.69-1.34,7.36-2.74,10.98-4.28,.74-.32,1.58-1.24,1.71-1.99,.89-5.41,1.85-10.83,2.32-16.29,.66-7.67,6.26-13.91,14.76-14.01,7.25-.08,14.5-.13,21.75,.05,2.19,.06,4.38,.83,6.51,1.48,3.13,.95,4.98,3.52,6.95,5.9l.47,.93c.96,6.06,2.3,12.09,2.73,18.19,.27,3.83,1.22,6.22,5.23,6.7l1.84,.58,.47,.35,1.39,.45,2.74,1.11c1.44,1.52,2.87,2.06,4.25-.07l2.73-1.96,1.44-1.28,2.73-1.96,1.44-1.28,2.73-1.96,1.44-1.28c1.14-.62,2.27-1.27,3.43-1.85,3.18-1.59,6.56-1.36,9.95-1.02l2.78,1.05c8.53,6.57,16.08,14.14,22.67,22.65l.9,2.33,.02,1.32c-.63,.74-.86,1.35,.47,1.45-.43,2.31-.87,4.63-1.3,6.94l-.64,1.82c-3.98,5.1-7.97,10.19-11.95,15.29-1.92,1.75,.28,2.58,.85,3.77l.17,.89,.38,.49,.57,1.36,.8,1.87c.49,1.47,1.09,2.91,1.43,4.42,.35,1.56,1.41,2.21,2.76,2.46,1.55,.29,3.14,.31,4.71,.52,5.38,.73,10.76,1.49,16.14,2.24l1.83,1.04c2.53,1.77,4.42,4.06,5.66,6.9l.37,.48c.31,3.77,.76,7.53,.89,11.3,.16,4.38,.21,8.78-.02,13.16-.16,2.96-.9,5.89-1.38,8.83l-.5,1.37c-1.53,1.55-2.96,3.23-4.62,4.63-3.1,2.62-7.02,2.86-10.81,3.23-2.68,.26-5.39,.1-8.09,.13l-.98,1.28-2.72-.47-.97,.47c-2.75,.4-2.19,3.03-3.13,4.65l-.41,1.39-2.03,4.61c-.41,1.11-.83,2.22-1.24,3.33,0,.23-.08,.53,.03,.67,4.1,5.19,8.22,10.37,12.34,15.55l.43,.87,.15,.9,.38,.48c.92,3.04,.97,6.12,.42,9.22-.3,.78-.6,1.55-.89,2.33-1.86,2.26-3.6,4.64-5.62,6.75-3.94,4.12-8,8.14-12.1,12.1-1.51,1.46-3.29,2.63-4.95,3.93l-2.78,.91c-2.98-.13-5.96-.25-8.95-.38l-1.69-.68-2.74-1.82-1.44-1.28-2.73-1.96-1.44-1.28c-.91-.65-1.82-1.31-2.73-1.96l-1.44-1.28c-1.37-1.08-2.74-2.15-4.1-3.23l-3.69,1.54-1.93,.76-1.41,.79-.45,.15c-.62,.26-1.24,.52-1.87,.78-2.14,.46-4.49,.61-5.08,3.4l-.36,.35c-.03,1.53,.09,3.08-.12,4.59-.74,5.41-1.58,10.81-2.38,16.21l-.47,.93c-1.67,1.69-3.34,3.38-5.02,5.08l-1.39,.93c-.92,.35-1.84,.71-2.76,1.06-.46,.13-.93,.25-1.39,.38h-27.79l-5.56-2.87-.51-.36-4.12-5.56-.37-.48c-.18-.57-.46-1.12-.54-1.7-.79-5.65-1.53-11.31-2.34-16.96-.21-1.45,.25-3.25-1.63-4.03-3.84-1.58-7.69-3.15-11.56-4.66-.52-.2-1.38-.26-1.76,.03-4.48,3.44-8.94,6.91-13.32,10.47-5.13,4.18-13.28,4.95-18.49,.54l-.51-.35c-5.79-5.74-11.85-11.24-17.3-17.28-4.86-5.38-5.33-12.5-.65-18.64,3.84-5.04,7.69-10.07,11.4-14.94-1.54-3.7-3.14-7.22-4.47-10.84-1.13-3.07-2.54-4-5.75-3.29-.3,.07-.66-.17-1.01-.21-3.97-.5-7.93-1.07-11.91-1.48-3.53-.36-6.88-1.33-9.16-4.07C2.77,229.14,1.52,226.38,0,223.86v-2.78Zm162.17-34.26c-2.57-3.69-4.79-7.69-7.78-11.01-5.43-6.04-12.23-10.11-19.96-12.82-8.25-2.9-16.66-3.22-25.09-1.99-7.35,1.08-14.07,4.39-20.05,8.7-6.11,4.39-11,10.15-14.54,16.8-5.44,10.23-7.31,21.17-4.75,32.56,.97,4.31,2.48,8.58,4.38,12.57,1.54,3.25,4.08,6.01,6.09,9.04,2.56,3.86,6.17,6.69,9.86,9.26,3,2.09,6.67,3.18,9.83,5.08,3.51,2.1,7.26,3.03,11.22,3.61,7.25,1.07,14.33,.3,21.26-1.83,9.43-2.9,17.37-8.11,23.68-15.77,7.13-8.65,11.19-18.44,11.28-29.7,.03-3.56-.03-7.22-.81-10.66-1.03-4.53-2.8-8.89-4.26-13.32l-.36-.5Z"/></g><g><path class="cls-68" d="M308.09,452.67c-3.68,5.56-13.23,21.62-18.21,45.35-.63,2.99,1.65,5.81,4.71,5.81h106.45c3.02,0,5.29-2.75,4.72-5.72-1.92-9.98-6.7-30.87-15.3-45.26-.87-1.45-2.44-2.33-4.12-2.33h-74.23c-1.62,0-3.12,.81-4.01,2.16Z"/><path class="cls-66" d="M402.17,458.18h-102.67c-3.7,0-6.85-2.72-7.37-6.39l-5.03-34.95h126.92l-4.46,34.84c-.48,3.72-3.64,6.5-7.39,6.5Z"/><path class="cls-67" d="M445.25,317.48c-1.61,25.33-4.78,46.8-8.09,63.72-3.48,17.71-7.11,30.44-9.32,37.4-1.16,3.66-4.56,6.13-8.4,6.13h-137.76c-3.84,0-7.24-2.48-8.4-6.13-2.2-6.93-5.82-19.58-9.27-37.17-3.32-16.91-6.5-38.39-8.13-63.75-1.72-27.02-1.69-58.46,1.79-93.47,.07-.81,.15-1.62,.24-2.44,.34-3.3,.73-6.58,1.17-9.83,.29-2.18,.6-4.34,.93-6.49,4.6-29.77,12.94-56.96,22.76-80.92,7.35-17.94,15.53-34.06,23.6-48.08,14.83-25.79,29.27-44.46,37.42-54.21,3.53-4.23,10.02-4.23,13.55,0,8.15,9.75,22.6,28.42,37.42,54.21,6.24,10.84,12.54,22.93,18.47,36.16,12.01,26.72,22.5,58.03,27.88,92.84,.47,3.02,.9,6.07,1.28,9.14,.3,2.38,.58,4.77,.83,7.18,.09,.82,.17,1.63,.24,2.44,3.49,34.93,3.51,66.29,1.8,93.27Z"/><path class="cls-16" d="M442.39,214.6l-183.31-2.65c.29-2.18,.6-4.34,.93-6.49,4.6-29.77,12.94-56.96,22.76-80.92,8.02,65.61,67.98,84.94,67.98,84.94,47.59-10.24,59.6-64.65,62.48-96.86,12.01,26.72,22.5,58.03,27.88,92.84,.47,3.02,.9,6.07,1.28,9.14Z"/><path class="cls-69" d="M394.76,76.46l-20.38-3.55c-15.76-2.75-31.88-2.75-47.64,0l-20.38,3.55c14.83-25.79,29.27-44.46,37.42-54.21,3.53-4.23,10.02-4.23,13.55,0,8.15,9.75,22.6,28.42,37.42,54.21Z"/><path class="cls-70" d="M350.56,172.36c-20.09,0-36.44-16.35-36.44-36.44s16.35-36.44,36.44-36.44,36.44,16.35,36.44,36.44-16.35,36.44-36.44,36.44Z"/><path class="cls-64" d="M377.48,135.92c0,14.86-12.05,26.92-26.92,26.92-2.23,0-4.4-.28-6.47-.79-6.89-1.69-12.75-6.06-16.4-11.92-2.57-4.12-4.06-9-4.06-14.21,0-14.86,12.05-26.92,26.93-26.92,4.82,0,9.34,1.27,13.25,3.49,6.11,3.46,10.73,9.25,12.66,16.15,.66,2.31,1,4.75,1,7.27Z"/><path class="cls-65" d="M443.45,224.22h-185.78c.07-.81,.15-1.62,.24-2.44,.57-5.52,1.28-10.96,2.1-16.32h181.1c.83,5.36,1.53,10.8,2.1,16.32,.09,.82,.17,1.63,.24,2.44Z"/><path class="cls-121" d="M445.25,317.49c-1.61,25.33-4.78,46.8-8.09,63.72-24.36,2.92-51.31,4.91-80.51,5.2-33.94,.32-65.01-1.73-92.64-4.97-3.32-16.91-6.5-38.39-8.13-63.75,30.27,3.14,63.88,5.08,100.32,4.82,32.09-.24,61.88-2.14,89.05-5.02Z"/><ellipse class="cls-122" cx="350.56" cy="358.1" rx="15.11" ry="97.53"/><path class="cls-120" d="M254.76,261.46s-35.57,57.14-46.33,112.11c-1.01,5.16,3.98,9.42,8.91,7.59,10.57-3.92,27.71-7.38,46.67,.28l-9.25-119.98Z"/><path class="cls-119" d="M440.42,261.46s35.57,57.14,46.33,112.11c1.01,5.16-3.98,9.42-8.91,7.59-10.57-3.92-27.71-7.38-46.67,.28l9.25-119.98Z"/></g><g><g><path class="cls-111" d="M73.25,287.21c5.67,10.95,17.73,36.95,15.49,56.21-1.32,11.41-5.82,26.26-9.3,41.82-2.01,8.98-3.69,18.2-4.24,27.12-.59,9.49,.1,18.66,3.05,26.87,5.5,15.35,18.01,23.87,32.61,23.81,.83,0,1.67-.04,2.5-.1,8.55-.6,17.69-4.07,26.51-10.77l-2.92-10.89-7.79-29.08s-11.17,3.57-12.28-8.27c-.39-4.15,.02-8.07,.62-11.72,.92-5.61,2.32-10.65,2.03-15.09-.04-.62-.73-.65-1.09-.13-2.09,2.97-4.79,6.95-6.46,9.27,.13-.75,3.1-17.78,.72-36.54h0c-.94-7.46-2.73-15.18-5.88-22.26-.21-.48-.93-.31-.92,.21,.05,2.32-.09,6.01-1.14,9.96h0c-.11,.45-.24,.88-.37,1.31,0,0,0-.07-.03-.19h0c-.2-1.28-1.41-8.45-4.28-17.37-4.08-12.65-11.49-28.8-24.14-36.66-1.63-1.01-3.55,.78-2.67,2.48Z"/><path class="cls-117" d="M113.37,462.95c8.55-.6,17.69-4.07,26.51-10.77l-2.92-10.89-7.79-29.08s-11.17,3.57-12.28-8.27c-.39-4.15,.02-8.07,.62-11.72,.05-.26,.09-.52,.13-.78,.91-5.29,2.18-10.07,1.89-14.31-.04-.62-.73-.65-1.09-.13-2.09,2.98-4.8,6.97-6.47,9.29-.09,.12-.72,1.07-1.7,2.68,0,.02-.02,.04-.03,.05-3.89,6.4-13.23,23.24-16.43,42.38-2.21,13.19,2.78,26.59,19.57,31.56Z"/><path class="cls-8" d="M80.03,301.77c5.18,12.46,10.23,28.6,8.71,41.65-2.09,18-12.05,44.55-13.54,68.94,3.14-11.81,9.56-24.92,18.03-38.61,11.51-18.62,11.51-36.1,11.51-36.1-.11,.44-.24,.87-.37,1.3,0,0-3.69-24.92-16.24-42.35-3.38-4.72-7.43-8.88-12.22-11.86-1.63-1.01-3.55,.78-2.67,2.48,1.83,3.53,4.32,8.63,6.78,14.56Z"/><path class="cls-7" d="M117.5,439.09c5.23,3.54,12.43,3.58,19.45,2.19l-7.79-29.08s-11.17,3.57-12.28-8.27c-.39-4.15,.02-8.07,.62-11.72,0,0-14.34,37.17,0,46.88Z"/><path class="cls-112" d="M73.25,287.21c1.83,3.53,4.32,8.63,6.78,14.56,2.5-2.85,5.68-4.36,8.1-5.17-3.38-4.72-7.43-8.88-12.22-11.86-1.63-1.01-3.55,.78-2.67,2.48Z"/><path class="cls-118" d="M103.67,346.92c4.99-3.64,8.85,2.49,9.03,2.8-.94-7.45-2.73-15.17-5.88-22.25-.21-.48-.93-.31-.92,.21,.05,2.32-.09,6.01-1.14,9.96h0c-.11,.45-.24,.88-.37,1.31,0,0,0-.07-.03-.19-.14,4.37-.68,8.16-.68,8.16Z"/><path class="cls-114" d="M110.23,389.05c.15-.09,2.01-1.12,4.43,0,1.29,.61,2.3,1.6,2.98,2.38,.91-5.29,2.18-10.07,1.89-14.31-.04-.62-.73-.65-1.09-.13-2.09,2.98-4.8,6.97-6.47,9.29-.09,.12-.72,1.07-1.7,2.68,0,.02-.02,.04-.03,.05,0,.02,0,.03,0,.04Z"/></g><path class="cls-115" d="M60.86,317.51l2.56,2.66c.36,.34,.51,.89,.38,1.38l-.76,3.64c-.25,1.26,1.02,2.27,2.19,1.69l3.31-1.6c7.73,6.51,7.23,28.59,7.23,28.59,8.01-19.1-.37-33.33-.37-33.33l2.73-2.49c.96-.86,.5-2.45-.75-2.63l-3.64-.62c-.49-.06-.91-.4-1.13-.88l-1.53-3.38c-.52-1.17-2.18-1.21-2.79-.08l-1.74,3.31c-.27,.42-.68,.78-1.17,.79l-3.68,.43c-1.18,.1-1.7,1.64-.85,2.52Z"/><path class="cls-113" d="M213.01,277.19s-1.68,9.72,3.88,18.24c5.56,8.52,18.53,30.02,18.53,30.02l-12.97,13.58-23.72-45.82,14.28-16.02Z"/><path class="cls-116" d="M174.65,458.24s-3.21,9.44-4.91,14.89c0,0,0,0,0,.02-.5,1.63-.88,2.9-.99,3.46-.26,1.29,.13,3.17,.55,4.64,.02,.08,.04,.15,.05,.23,.27,1.29-.31,2.6-1.45,3.29-6.91,4.15-28.51,17.1-33.31,19.64-5.05,2.68-7.59,1.49-8.11,1.18-.07-.04-.1-.07-.1-.07-.69,0-1.29-.18-1.8-.44-1.05-.52-1.67-1.32-1.67-1.32-.5-.12-.95-.3-1.35-.51-1.6-.81-2.32-2.04-2.32-2.04,0,0,0-.02-.03-.07-.06-.1-.14-.29-.26-.56-.1-.26-.23-.59-.34-.98-.06-.17-.1-.34-.14-.53-.5-2.07-.65-5.34,1.89-8.56,3.19-4.05,11.57-9.47,15.29-11.78,1.09-.68,1.64-1.96,1.36-3.22l-2.42-11.11,40.07-6.15Z"/><path class="cls-123" d="M194.05,467.29s1.65,7.58,1.04,13.34c-.33,3.1-1.14,6.02-1.81,8.06-.47,1.41,.59,2.85,2.07,2.85h59.2c1.62,0,2.38-2.02,1.15-3.07-4.09-3.49-12.42-8.95-26.03-10.86,0,0,1.62-6.4,2.55-9.08l-38.17-1.25Z"/><path class="cls-129" d="M237.45,456.18c-3.02,12.02-6.09,15.7-6.09,15.7,0,0-7.5,3.16-7.24,.2l.03-.2c.12-.66,.21-1.1,.27-1.41,0,0-.02,0-.03,0-.79,.37-8.38,3.7-17.04,2.37-2.82-.42-5.74-1.34-8.59-3.02,0,0,2.48,3.3,0,3.51-2.48,.2-5.58-8.16-5.58-8.16,0,0-11.15,2.48-20.43-.3,0,0-1.55,3.09-4.03,5.57s-8.89,5.09-7.04,.73c-.2,.09-2.77,1.29-6.6,1.75-3.79,.47-8.81,.22-13.98-2.52,0,0,1.11,2.09-.55,2.22-1.66,.14-5.12-3.19-5.96-8.25-.83-5.06-12.45-40.14-11.9-51.8,0,0-4.99,3.22-4.66,0,.33-3.22,4.1-8.21,3.1-18.85-.44-4.68-.7-12.7-.77-21.81-.09-11.65,.15-25.08,.77-35.55,1.11-18.63,19.08-44.7,18.86-68-.22-23.3,0-29.58,0-29.58l61.57,17.58,16.3,4.66s-3.43,6.85-4.82,15.9c-.44,2.85-.68,5.91-.54,9.05,.55,13.12,15.63,59.6,22.92,85.45,1.94,6.89,3.49,13.22,4.64,19.13,4.93,25.13,3.11,42.8-2.61,65.62Z"/><path class="cls-6" d="M155.64,285.71s9.12,7.4,6.66,23.93c-3.05,20.46-5.86,25.13-3.44,27.1,2.41,1.98-11.93,4.5-11.93,4.5,0,0,12.06-47.52,8.72-55.54Z"/><path class="cls-5" d="M240.06,390.57c4.93,25.13,3.11,42.8-2.61,65.62-3.02,12.02-6.09,15.7-6.09,15.7,0,0-7.5,3.16-7.24,.2l.03-.2c.08-.46-.09-1.04,.24-1.4,13.06-14.3,13.16-50.7,13.16-50.7-2.71,2.11-5.01-1.33-2.12-7.43,1.38-2.92,3.16-12.56,4.64-21.8Z"/><path class="cls-130" d="M165.31,268.38s7.11,17.55,6,35.27-5.19,52.18-8.89,69.6c-3.71,17.42-7.29,42.99,4.51,51.88,11.8,8.89,51.08-1.48,45.52-49.66-5.56-48.17-9.26-78.93-2.96-107.09,0,0-16.08,10.38-44.17,0Z"/><path class="cls-75" d="M217.87,261.04s-3.43,6.85-4.82,15.9c-4.72,4.02-12.39,7.79-26.25,7.48-23.3-.51-41.91-25.83-42.65-26.59l57.42-1.45,16.3,4.66Z"/><path class="cls-132" d="M179.91,323.73s7.53-6.36,12.02-6.04c4.49,.33-.94,5.38-2.11,6.04s-9.91,0-9.91,0Z"/><path class="cls-4" d="M155.08,472.94c-3.79,.47-8.81,.22-13.98-2.52,0,0,1.11,2.09-.55,2.22-1.66,.14-5.12-3.19-5.96-8.25-.83-5.06-12.45-40.14-11.9-51.8,0,0-4.99,3.22-4.66,0,.33-3.22,4.1-8.21,3.1-18.85-.44-4.68-.7-12.7-.77-21.81l6.48-20.17,15.93,14.08s-1.1,25.57,3.34,40.02c4.45,14.45,5.06,18.9-1.73,16.67,0,0-.44,5.93,5.09,17.42,5.12,10.64,5.82,22.22,5.6,32.99Z"/><path class="cls-3" d="M120.36,371.39l41.15-17.53,18.06,4.17c-5.59,2.39-12.22,11.85-26.83,21.01-12.45,7.79-27.76,8.28-32.02,8.27l-.36-15.91Z"/><path class="cls-131" d="M192.1,305.81s40.76-6.14,81.89,2.3c0,0-7.78,13.63-12.6,23.64l-69.3-25.94Z"/><path class="cls-126" d="M275.47,318.41s-5.85,7.8-12.59,22.83c-2.56,5.69-5.25,12.42-7.79,20.15-9.26,28.17-14.82,84.49-14.82,84.49l-81.53-1.85c-.31-13.4,.44-26.23,1.9-38.3,7.16-59.12,31.44-99.92,31.44-99.92,30.01-4.45,83.37,12.6,83.37,12.6Z"/><path class="cls-76" d="M262.89,341.24c-2.56,5.69-5.25,12.42-7.79,20.15-9.26,28.17-14.82,84.49-14.82,84.49l-81.53-1.85c-.31-13.4,.44-26.23,1.9-38.3,4.48,18.94,13.5,24.83,29.46,29.65,20.2,6.09,40.32-3.42,47.43-15.59,5.91-10.12,13.93-61.11,15.04-68.03,1.1-6.92-2.96-10.51-2.96-10.51h13.25Z"/><path class="cls-128" d="M166.69,333.56s9.63-8.66,12.84-9.71c3.96-1.3,10.59-1.04,12.8-.62,2.21,.42,1.36,2.63-2.46,3.14-3.82,.51-7.4,2.21-7.4,2.21,0,0,5.95,2.04,8.53,5.33,2.08,2.67,2.69,5.8-.87,5.12,0,0,4.25,4.93,1.27,6.63-1.92,1.1-3.65-1.1-4.93-1.53,0,0,6.26,5.89,3.91,8.24-1.02,1.02-6.27-2.63-10.53-1.95-4.26,.68-11.54,9.18-11.54,9.18,0,0-10.89-.26-10.97-.85s-.59-17.16-.59-17.16l5.1-5.1,4.86-2.92Z"/><path class="cls-125" d="M166.89,361.03s-25.03,21.77-44.35,18.92c-19.33-2.85-20.15-24.82-18.52-34.38,1.63-9.56,16.68-39.27,16.68-39.27-1.42,.82-4.88,1.02-4.88,0s7.53-7.93,7.53-7.93c-1.22-.2-5.08-1.63,0-4.07,5.08-2.45,12.55-9.97,12.55-9.97,6.58-6.1,12.84-4.52,17.16-1.43,3.46,2.48,7.77,10.99,7.16,21.36-.38,6.52-2.87,16.07-4.95,23.19h0c-1.63,5.53-3.03,9.58-3.03,9.58l14.44-3.47s-4.27,5.09-2.85,5.9c1.43,.82,0,4.07-1.83,8.75-1.84,4.68,1.63,8.75,4.88,9.87,3.25,1.11,0,2.94,0,2.94Z"/><path class="cls-124" d="M88.63,285.03l2.53,2.03c.35,.26,.54,.72,.48,1.16l-.25,3.25c-.08,1.12,1.14,1.86,2.1,1.23l2.7-1.76c7.45,4.8,9.48,24.06,9.48,24.06,4.83-17.51-4.05-28.95-4.05-28.95l2.1-2.48c.74-.85,.16-2.18-.95-2.2l-3.23-.13c-.43,0-.84-.24-1.08-.64l-1.71-2.77c-.58-.96-2.03-.8-2.43,.24l-1.14,3.07c-.19,.4-.5,.75-.93,.82l-3.15,.78c-1.02,.21-1.3,1.61-.46,2.29Z"/><path class="cls-127" d="M53.29,267.64l1.22,4.27c.23,.58,.06,1.23-.28,1.71l-2.76,3.46c-.92,1.21-.14,3.02,1.33,3.05l4.49,.17c.65,.01,1.14,.35,1.45,.85l2.46,3.72c.79,1.32,2.76,1.03,3.27-.43l1.55-4.22c.26-.57,.67-.97,1.25-1.2l4.35-1.14c1.48-.46,1.92-2.33,.72-3.25l-3.54-2.68c-.48-.34-.8-1-.7-1.57l.25-4.4c.11-1.55-1.58-2.48-2.91-1.69l-3.64,2.54c-.5,.32-1.15,.47-1.72,.21l-4.13-1.63c-1.7-.6-3.12,.76-2.66,2.23Z"/><path class="cls-106" d="M225.63,251.06s-7.67,24.51-34.93,26.06c-25.33,1.44-43.43-19.62-43.43-19.62-.15,2.39-4.19,5.68-7.04,1.19-1.89-2.98-.76-8.73-.76-8.73-10.46,3.23-4.26-11.2-4.26-11.2-2.25-1.09-2.92-2.77-2.8-4.55,.26-3.75,4.06-7.95,4.06-7.95,.06-.74,.14-1.48,.26-2.22,.38-2.86,1.07-5.69,2.01-8.44,3.78-10.96,11.7-20.42,21.58-22.97,12.99-3.37,42.95-5.66,55.18,10.08,12.23,15.74,11.77,33.01,11.77,33.01,1.11,1.73,1.79,3.1,2.17,4.19,1.38,3.97-1.26,4.07-1.26,4.07,5.35,9.78-2.55,7.07-2.55,7.07Z"/><path class="cls-105" d="M225.63,251.06s-7.67,24.51-34.93,26.06c-25.33,1.44-43.43-19.62-43.43-19.62-.15,2.39-4.19,5.68-7.04,1.19-1.89-2.98-.76-8.73-.76-8.73-10.46,3.23-4.26-11.2-4.26-11.2-2.25-1.09-2.92-2.77-2.8-4.55,5.57-1.13,11.6-1.58,15.63-.52,8.07,2.12,14.29,16.04,28.08,11.57,13.79-4.48,19.04-2.99,19.04-2.99,0,0,6.2-2.6,12.91,0,6.71,2.6,9.48,3.54,14.71,0,2.08-1.4,4.49-2.06,6.65-2.34,1.38,3.97-1.26,4.07-1.26,4.07,5.35,9.78-2.55,7.07-2.55,7.07Z"/><path class="cls-108" d="M212.3,252.23c-.11,.32-2.98,7.96-8.62,12.05-2.23,1.62-4.9,2.69-8.02,2.52-5.13-.28-7.73-3.53-9.04-6.97-1.54-4.02-1.31-8.28-1.31-8.28,0,0,2.78,.35,8.96,1.92,7.21,1.83,7.75-3.99,7.75-3.99,1.81,7.07,9.91,2.92,10.27,2.74Z"/><path class="cls-107" d="M203.69,264.28c-2.23,1.62-4.9,2.69-8.02,2.52-5.13-.28-7.73-3.53-9.04-6.97,3.78-.14,11.85,.15,17.05,4.45Z"/><path class="cls-63" d="M181.11,334.44s5.52,.93,9,4.59"/><path class="cls-109" d="M266.59,326.82l-7.33-.94-1.02-.13-3.58-.46c-.5-.3-.92-.7-1.29-1.12-.33-.39-.61-.81-.84-1.25-1.24-2.34-.99-5.03,.68-4.43,1.53,.56,5.93,3.3,9.36,5.57,.05,.03,.1,.07,.13,.09,.1,.08,.21,.14,.3,.21,.93,.62,1.77,1.19,2.44,1.65,.48,.33,.87,.61,1.14,.82Z"/><path class="cls-58" d="M265.49,326.01h-.05l-6.19-.12-1.02-.13-3.58-.46c-.5-.3-.92-.7-1.29-1.12,2.46-.49,6.08-1.29,9.33-.02,.02,0,.05,.02,.07,.03l2.72,1.83Z"/><path class="cls-63" d="M186.46,344.13s-3.48-2.12-6.88-1.7"/><path class="cls-9" d="M206.14,465.19c-.34,3.32,.33,5.87,1.2,7.67-2.82-.42-5.74-1.34-8.59-3.02,0,0,2.48,3.3,0,3.51-2.48,.2-5.58-8.16-5.58-8.16,0,0,13.49-4,18.92-8.81-1.79,1.77-5.66,5.93-5.95,8.81Z"/><path class="cls-110" d="M272.46,344.13c-3.76,12.8-18.82,22.01-18.82,22.01,.26-.91,.8-2.69,1.46-4.82,1.69-5.38,4.18-12.99,4.77-14.44,.15-.37-.12-.73-.68-1.11,0,0-.02,0-.02,0-2.46-1.62-10.37-3.21-11.4-4.51-1.22-1.55,5.02-2.17,5.42-2.21-.27,0-2.98-.04-4.37-1.43-1.01-1,1.14-2.11,2.59-2.72-1.42,.49-3.64,1-3.64-.44,0-2.04,4.07-4.09,4.38-4.25-.34,.09-4.38,1.09-4.38,0,0-1.15,5.86-5.96,11.92-5.75,6.07,.2,16.53,6.89,12.76,19.69Z"/><path class="cls-57" d="M259.87,346.88c.15-.37-.12-.73-.68-1.11,.2,.12,1.87,1.2,1.74,4.15-.1,2.31-3.36,7.9-5.84,11.4,1.69-5.38,4.18-12.99,4.77-14.44Z"/><path class="cls-71" d="M149.04,207.39s-4.45,15.95-12.31,16.65c.38-2.86,1.07-5.69,2.01-8.44,3.14-3.37,7.3-6.79,10.3-8.22Z"/><path class="cls-63" d="M252.17,330.18s5.07-1.53,8.27-1.1"/><path class="cls-63" d="M252.59,334.44s4.01-1.16,7.01-1.16"/><path class="cls-63" d="M253.21,339.03s4.7,.41,6.38,0"/><path class="cls-54" d="M169.29,481.24c.02,.08,.04,.15,.05,.23-3.18,.6-6.75,1.08-5.2-.18,2.54-2.06,5.42-7.79,5.59-8.14-.5,1.63-.88,2.9-.99,3.46-.26,1.29,.13,3.17,.55,4.64Z"/><path class="cls-56" d="M236.64,486.39s9.87,1.36,12.3,5.16h-4.3s-1.41-3.05-8-5.16Z"/><path class="cls-55" d="M229.66,477.62s-5.12-.51-7.85,0l8.63-2.99-.78,2.99Z"/><path class="cls-82" d="M198.19,232.78c1.41-1.03,3.33-1.05,4.82-.15,2.94,1.77,5.25,5.09,5.83,6.85,.76,2.29-1.96,3.71-3.21,5.2-.93,1.11-2.27,3.37-4.26,3.22-1.99-.15-3.66-3.38-6.6-4.14-2.39-.62-2.84-2.96-1.62-5.4,.77-1.54,3.14-4.18,5.04-5.57Z"/><path class="cls-63" d="M201.82,247.89s1.01,6.96-6.8,5.7c-7.81-1.25-12.64-4.15-18.42-.48"/><path class="cls-63" d="M201.82,247.89s-.05,5.2,4.58,5.84,7.52-3.58,10.23-2.92"/><ellipse class="cls-83" cx="183.7" cy="229.97" rx="7.18" ry="5.55" transform="translate(-96.16 321.14) rotate(-69.43)"/><ellipse cx="184.66" cy="231.7" rx="4.86" ry="3.75" transform="translate(-97.15 323.17) rotate(-69.43)"/><ellipse class="cls-80" cx="211.11" cy="228.74" rx="4.7" ry="6.08" transform="translate(-42.78 48.66) rotate(-11.95)"/><ellipse cx="210.41" cy="230.4" rx="3.18" ry="4.11" transform="translate(-43.14 48.55) rotate(-11.95)"/><path class="cls-62" d="M179.55,217.63s-5.23,1.1-6.88,5.78"/><path class="cls-63" d="M211.11,216.94s4.43,0,5.97,3.58"/><path class="cls-18" d="M172.68,241.28c-12.29-8.77-28.28-10.37-42.91-8.56-2.12,.28-4.23,.68-6.36,.97,2.08-.51,4.18-1.01,6.28-1.46,14.63-2.56,31.31-.86,42.99,9.05h0Z"/><path class="cls-18" d="M167.13,243.77c-12.48,.3-33.35,.07-43.72,7.07,9.69-8.19,31.45-8.14,43.72-7.07h0Z"/><path class="cls-18" d="M165.31,251.97c-11.02,3.52-21.53,9.36-29.57,17.75-1.19,1.14-2.22,2.51-3.34,3.73,7.36-11.26,19.84-18.81,32.91-21.48h0Z"/><path class="cls-18" d="M219.64,239.93c8.73-6.72,20.31-9.71,31.21-8.22,1.56,.19,3.08,.61,4.61,.94-12.34-1.83-25.14,.85-35.82,7.27h0Z"/><path class="cls-18" d="M224.95,245.26c7.98-3.62,18.05-5.23,26.03-.83-1.08-.31-2.09-.75-3.19-.93-7.57-1.71-15.46-.23-22.84,1.76h0Z"/><path class="cls-18" d="M222.79,250.82c9.57,.56,19.17,5.67,24.12,14.01-.84-.86-1.52-1.85-2.42-2.64-5.8-5.95-13.64-9.63-21.71-11.37h0Z"/><path class="cls-81" d="M148.86,199.31s-13.84,4.46-17.22,12.34c-2.72,6.33,2.81,10.77,11.64,5.98,7.35-3.99,5.58-18.31,5.58-18.31Z"/><g><path class="cls-78" d="M222.79,203.17s11.87,2.19,15.17,8.47c2.78,5.3-28.16,20.52-85.9-6.91l70.73-1.56Z"/><path class="cls-79" d="M222.79,203.17s-11.63,12.1-38.61,8.99c-26.98-3.12-39.92-11.01-39.92-11.01,0,0,.36-3.15,1.78-7.59,2.36-7.38,7.66-18.3,19.08-24.14h0c5.06-2.59,11.31-4.18,19.04-4.02,5.04,.1,9.42,.92,13.24,2.27,15.37,5.41,21.5,19.18,23.9,27.89,1.23,4.47,1.48,7.61,1.48,7.61Z"/><path class="cls-77" d="M209.22,204.92c-8.6,3.14-23.91,1.37-23.91,1.37,0,0,1.15-22.45-7.18-30.32-3.35-3.16-9.04-7-12.99-6.56,5.06-2.58,11.31-4.17,19.04-4.01,5.04,.1,9.42,.92,13.24,2.27,14.47,11.25,11.81,37.25,11.81,37.25Z"/><path class="cls-91" d="M222.79,203.17s-11.63,12.1-38.61,8.99c-26.98-3.12-39.92-11.01-39.92-11.01,0,0,.36-3.15,1.78-7.59,7.93,2.82,23.56,9.37,43.18,10.35,16.6,.83,24.96-4.27,32.09-8.35,1.23,4.47,1.48,7.61,1.48,7.61Z"/></g><path class="cls-11" d="M155.27,327.45c-1.63,5.52-3.03,9.57-3.03,9.57,0,0-9.22,3.32-13.67,6.22,.32-.4,10.03-12.41,16.7-15.79Z"/><path class="cls-10" d="M271.56,391.44l-.22-.16c.18-.96,.22,.16,.22,.16Z"/><path class="cls-50" d="M131.89,496.24s-4.61,4.72-5.42,9.34c-.07-.04-.1-.07-.1-.07-.69,0-1.29-.18-1.8-.44,1.03-2.3,3.77-7.71,7.32-8.84Z"/><path class="cls-52" d="M126.81,497.06c-2.96,2.56-3.9,6.69-3.9,6.69-.5-.12-.95-.3-1.35-.51,.88-3.88,4.99-6.05,5.26-6.18Z"/><path class="cls-53" d="M122.93,495.83c-2.05,1.1-3.28,4.08-3.73,5.3-.06-.1-.14-.29-.26-.56-.1-.26-.23-.59-.34-.98,1.95-3.41,4.33-3.76,4.33-3.76Z"/><path class="cls-51" d="M118.31,494.96c.55-.41,1.37-.85,2.45-.98,0,0-1.48,.76-2.6,2.69l.15-1.7Z"/><circle class="cls-89" cx="182.48" cy="228.63" r="1.53"/><circle class="cls-88" cx="212.21" cy="227.35" r="1.53"/></g><g><path class="cls-90" d="M507.45,306.45l-2.64,42.21s-11.59,2.72-26,.55c-15.18-2.28-33.49-9.98-44.68-32.01-4.59-9.03-7.98-20.46-9.46-34.92v.02c.2,.35,3.24,6.08,6.1,6.94,0,0-.64-2.09-.64-3.52,0,0,10.91,4.83,15.42-.94,0,0,15,31.34,54.39,23.55,.6-.11,1.21-.24,1.82-.38,1.85-.41,3.74-.9,5.68-1.49Z"/><path class="cls-72" d="M499.95,308.32c-3.77,7.02-14.7,22.86-35.77,21.66-12.84-.73-22.94-6.71-30.03-12.79,11.19,22.03,29.5,29.74,44.68,32.01,25.51-4.89,26.16-3.93,26.16-3.93l-3.21-37.34-1.82,.38Z"/><path class="cls-86" d="M453.37,270.99c-1.12,3.55-5.04,7.47-6.86,9.14-.61,.56-.95,1.34-.95,2.17v2.48c-4.5,5.77-15.42,.94-15.42,.94,0,1.44,.64,3.52,.64,3.52-2.87-.86-5.9-6.59-6.09-6.94v-.02s.31-3.29-1.91-11.56c-1.32-4.92-.23-8.71,.88-10.97,.38-.8,1.55-.65,1.69,.23,.66,3.99,2.64,5.92,2.64,5.92-.73-9.8,4.71-12.18,7.58-12.76,.51-.1,.84,.5,.48,.89-1.37,1.41-1.82,2.69-1.87,2.84,1.48-2.02,3.59-2.62,5.13-2.76,.73-.07,1.18,.8,.7,1.36-2.24,2.67-3.23,6.26-3.45,7.14,.8-2.78,5.38-7.99,10.32-5.22,2.65,1.49,3.54,3.35,3.79,4.8,.12,.74-.72,1.22-1.32,.76-.58-.45-1.42-.89-2.59-1.12-3.09-.61-5.81,2.97-4.94,5.93,.87,2.96,6.55,2.59,7.78-.54,1.24-3.13,3.09-4.77,4.32-3.78,1.24,.99,.93,2.86-.55,7.55Z"/><path class="cls-87" d="M528.15,492.32v11.39h-68.01c-.92,0-1.45-1.08-.86-1.8,3.35-4.14,13.91-14.06,38.54-14.64,0,0-.18-1.77-.63-4.48-.53-3.23-1.44-7.8-2.85-12.27-2.59-8.21-1.27-11.89-1.27-11.89l33.49,13.58s-.72,6.32,.34,13.99c.28,1.98,.68,4.06,1.24,6.13Z"/><path class="cls-49" d="M528.15,492.32v11.39h-28.27c2.89-9.43,21.08-15.7,27.03-17.52,.28,1.98,.68,4.06,1.24,6.13Z"/><path class="cls-48" d="M464.81,503.71s6.3-7.31,10.73-7.31c0,0-5.36,3.65-7.48,7.31h-3.25Z"/><path class="cls-47" d="M473.55,503.71s3.51-4.41,7.94-5.94c0,0-4.27,4.01-4.81,5.94h-3.13Z"/><path class="cls-46" d="M482.09,503.71s2.77-4.17,6.82-4.92c0,0-3.97,3.16-4.35,4.92h-2.47Z"/><path class="cls-45" d="M503.93,487.59l-6.11-.33s-.18-1.77-.63-4.48l6.74,4.81Z"/><path class="cls-84" d="M490.36,461.93s2.63,14.27,5.89,15.92c3.26,1.65,.71-3.88,.71-3.88,0,0,7.66,6.15,19.16,4.19,0,0-2.02,1.24-1.38,2.09s5.64-.64,6.81-1.38c0,0,1.89,3,4.93,3.2l.09-9.87-36.66-15.21s0,2.03,.46,4.95Z"/><path class="cls-85" d="M568.64,499.14c.5,2.35-1.31,4.56-3.71,4.56h-56.8c-1.41,0-2.15-1.64-1.26-2.72,7.46-8.91,33.87-13.79,33.87-13.79v-6.08l18.27-7.92,10.04,7.92c-2.03,7.09-1.31,13.8-.41,18.03Z"/><path class="cls-59" d="M511.77,503.71s5.78-6.47,12.75-8.26c0,0-7.97,5.16-9.37,8.26h-3.39Z"/><path class="cls-60" d="M520.04,503.71s4.32-6.02,8.74-6.86c0,0-4.53,4.77-4.84,6.86h-3.9Z"/><g><path class="cls-104" d="M631.57,283.28c-5.67,10.95-17.73,36.95-15.49,56.21,1.32,11.41,5.82,26.26,9.3,41.82,2.01,8.98,3.69,18.2,4.24,27.12,.59,9.49-.1,18.66-3.05,26.87-5.5,15.35-18.01,23.87-32.61,23.81-.83,0-1.67-.04-2.5-.1-8.55-.6-17.69-4.07-26.51-10.77l2.92-10.89,7.79-29.08s11.17,3.57,12.28-8.27c.39-4.15-.02-8.07-.62-11.72-.92-5.61-2.32-10.65-2.03-15.09,.04-.62,.73-.65,1.09-.13,2.09,2.97,4.79,6.95,6.46,9.27-.13-.75-3.1-17.78-.72-36.54h0c.94-7.46,2.73-15.18,5.88-22.26,.21-.48,.93-.31,.92,.21-.05,2.32,.09,6.01,1.14,9.96h0c.11,.45,.24,.88,.37,1.31,0,0,0-.07,.03-.19h0c.2-1.28,1.41-8.45,4.28-17.37,4.08-12.65,11.49-28.8,24.14-36.66,1.63-1.01,3.55,.78,2.67,2.48Z"/><path class="cls-103" d="M591.46,459.02c-8.55-.6-17.69-4.07-26.51-10.77l2.92-10.89,7.79-29.08s11.17,3.57,12.28-8.27c.39-4.15-.02-8.07-.62-11.72-.05-.26-.09-.52-.13-.78-.91-5.29-2.18-10.07-1.89-14.31,.04-.62,.73-.65,1.09-.13,2.09,2.98,4.8,6.97,6.47,9.29,.09,.12,.72,1.07,1.7,2.68,0,.02,.02,.04,.03,.05,3.89,6.4,13.23,23.24,16.43,42.38,2.21,13.19-2.78,26.59-19.57,31.56Z"/><path class="cls-12" d="M624.79,297.84c-5.18,12.46-10.23,28.6-8.71,41.65,2.09,18,12.05,44.55,13.54,68.94-3.14-11.81-9.56-24.92-18.03-38.61-11.51-18.62-11.51-36.1-11.51-36.1,.11,.44,.24,.87,.37,1.3,0,0,3.69-24.92,16.24-42.35,3.38-4.72,7.43-8.88,12.22-11.86,1.63-1.01,3.55,.78,2.67,2.48-1.83,3.53-4.32,8.63-6.78,14.56Z"/><path class="cls-13" d="M587.32,435.17c-5.23,3.54-12.43,3.58-19.45,2.19l7.79-29.08s11.17,3.57,12.28-8.27c.39-4.15-.02-8.07-.62-11.72,0,0,14.34,37.17,0,46.88Z"/><path class="cls-102" d="M631.57,283.28c-1.83,3.53-4.32,8.63-6.78,14.56-2.5-2.85-5.68-4.36-8.1-5.17,3.38-4.72,7.43-8.88,12.22-11.86,1.63-1.01,3.55,.78,2.67,2.48Z"/><path class="cls-101" d="M601.16,342.99c-4.99-3.64-8.85,2.49-9.03,2.8,.94-7.45,2.73-15.17,5.88-22.25,.21-.48,.93-.31,.92,.21-.05,2.32,.09,6.01,1.14,9.96h0c.11,.45,.24,.88,.37,1.31,0,0,0-.07,.03-.19,.14,4.37,.68,8.16,.68,8.16Z"/><path class="cls-99" d="M594.6,385.12c-.15-.09-2.01-1.12-4.43,0-1.29,.61-2.3,1.6-2.98,2.38-.91-5.29-2.18-10.07-1.89-14.31,.04-.62,.73-.65,1.09-.13,2.09,2.98,4.8,6.97,6.47,9.29,.09,.12,.72,1.07,1.7,2.68,0,.02,.02,.04,.03,.05,0,.02,0,.03,0,.04Z"/></g><path class="cls-100" d="M643.96,313.58l-2.56,2.66c-.36,.34-.51,.89-.38,1.38l.76,3.64c.25,1.26-1.02,2.27-2.19,1.69l-3.31-1.6c-7.73,6.51-7.23,28.59-7.23,28.59-8.01-19.1,.37-33.33,.37-33.33l-2.73-2.49c-.96-.86-.5-2.45,.75-2.63l3.64-.62c.49-.06,.91-.4,1.13-.88l1.53-3.38c.52-1.17,2.18-1.21,2.79-.08l1.74,3.31c.27,.42,.68,.78,1.17,.79l3.68,.43c1.18,.1,1.7,1.64,.85,2.52Z"/><path class="cls-98" d="M616.19,281.11l-2.53,2.03c-.35,.26-.54,.72-.48,1.16l.25,3.25c.08,1.12-1.14,1.86-2.1,1.23l-2.7-1.76c-7.45,4.8-9.48,24.06-9.48,24.06-4.83-17.51,4.05-28.95,4.05-28.95l-2.1-2.48c-.74-.85-.16-2.18,.95-2.2l3.23-.13c.43,0,.84-.24,1.08-.64l1.71-2.77c.58-.96,2.03-.8,2.43,.24l1.14,3.07c.19,.4,.5,.75,.93,.82l3.15,.78c1.02,.21,1.3,1.61,.46,2.29Z"/><path class="cls-93" d="M651.54,263.71l-1.22,4.27c-.23,.58-.06,1.23,.28,1.71l2.76,3.46c.92,1.21,.14,3.02-1.33,3.05l-4.49,.17c-.65,.01-1.14,.35-1.45,.85l-2.46,3.72c-.79,1.32-2.76,1.03-3.27-.43l-1.55-4.22c-.26-.57-.67-.97-1.25-1.2l-4.35-1.14c-1.48-.46-1.92-2.33-.72-3.25l3.54-2.68c.48-.34,.8-1,.7-1.57l-.25-4.4c-.11-1.55,1.58-2.48,2.91-1.69l3.64,2.54c.5,.32,1.15,.47,1.72,.21l4.13-1.63c1.7-.6,3.12,.76,2.66,2.23Z"/><polygon class="cls-61" points="547.09 486.8 540.74 487.19 540.74 484.07 547.09 486.8"/><path class="cls-97" d="M580.42,412.02c-3.08,34.07-12.73,49.87-11.29,70.39,0,0-4.64,2.99-6.13,2.13-1.49-.85,.84-3.4,1.28-4.27-.33,.18-6.28,3.5-13.19,2.66-1.63-.19-3.31-.63-4.99-1.38,0,0,2.13,2.45,.85,3.15-1.28,.7-6.2-3.58-6.2-3.58l-1.71-6.21s-64.09,2.48-73.07-52.84c-.4-2.52-.7-5.17-.87-7.94-.92-15.17,.5-29.04,3.1-41.49,1.24-5.88,2.73-11.42,4.36-16.64h0c7.29-23.31,17.36-39.92,19.19-48.42,1.06-4.89,1.64-8.87,1.72-12.25,.17-7.16-1.89-11.62-6.47-16.44-.29-.3-.58-.61-.9-.91-.26-.27-.53-.53-.81-.8-4.48-4.3,40.1-62.79,40.1-62.79,10.46-.21,26.69,2.54,31.01,29.37,1.59,9.88-1.65,26.82,1.43,32.37,3.08,5.54,0,8.41-3.08,6.15,0,0-2.26,26.27,1.85,41.67,.91,3.42,2.74,7.98,5.01,13.38,7.94,18.93,21.21,48.18,18.81,74.69Z"/><path class="cls-96" d="M517.31,398.37c-.72,16.8-13.32,39.83-30.82,37.7-1.93-.24-3.75-.63-5.47-1.19-9.02-2.91-15.33-11.21-15.93-20.67v-.08c-3.31-54.28,23.53-92.1,26.65-106.54,3.29-15.28,1.98-21.59-4.74-28.69,1.26-4.72,2.01-7.48,2.01-7.48l28.23,8.75s-6.65,24.27-4.68,49.82c1.98,25.55,5.47,51.58,4.74,68.39Z"/><path class="cls-74" d="M540.72,267.04s-10.45,28.32-46.67,28.32c-.2,0-.4,0-.59,0,.17-7.16-1.89-11.62-6.47-16.44-.29-.3-.58-.61-.9-.91,5.26-4.97,11.43-9.08,11.43-9.08l43.19-1.87Z"/><path class="cls-73" d="M550.47,320.85s-6.65,38.07-38.41,49.72c-22.59,8.29-37.27,4.79-43.86,2.07,1.24-5.88,2.73-11.42,4.36-16.64h0l77.91-35.16Z"/><path class="cls-95" d="M547.66,254.9c-.53,7.11-2.11,7.9-3.69,6.59,0,0-.17,1.9-.56,4.13-.57,3.33-1.65,7.41-3.38,6.93-2.78-.75-2.18-4.16-2.12-4.47-.43,.75-17.41,30.62-46.72,16.39-4.56-2.21-8.07-5.28-10.76-8.67-4.84-6.06-7.07-13.13-8.1-18.18,0-.02,0-.04,0-.06-.4-1.94-.62-3.58-.74-4.74-.11-1.18-.13-1.86-.13-1.86,0,0,13.8-32.04,40.4-36.58,10.91-1.86,22.4,7.58,27.66,13.9,5.27,6.32,8.69,19.49,8.17,26.6Z"/><path class="cls-92" d="M533.66,230.72s-.11,9.79,5.06,13.22c5.17,3.43,9.77,.39,8.99-4.78s-4.15-9.12-4.15-9.12l-9.9,.69Z"/><path class="cls-94" d="M543.4,265.62c-.57,3.33-1.65,7.41-3.38,6.93-2.78-.75-2.18-4.16-2.12-4.47-.43,.75-17.41,30.62-46.72,16.39-4.56-2.21-8.07-5.28-10.76-8.67-4.84-6.06-7.07-13.13-8.1-18.18,0-.02,0-.04,0-.06-.4-1.94-.62-3.58-.74-4.74l7.77-3.34s1.1,6.02,16.96,3.65c15.86-2.37,34.03-7.44,43.44,6.67,1.41,2.11,2.63,4.05,3.68,5.81Z"/><path class="cls-40" d="M486.49,267.04c.02,1.27-.11,2.48-.48,3.44-.92,2.43-3.19,5.27-5.6,5.33-.67-.84-1.29-1.69-1.85-2.56-3.58-5.41-5.37-11.26-6.26-15.62,0-.02,0-.04,0-.06-.17-1.5-.19-2.78-.03-3.62,0,0,2.69,11.76,13.09,5.75,0,0,1.09,3.86,1.12,7.33Z"/><path class="cls-39" d="M486.49,267.04c.02,1.27-.11,2.48-.48,3.44-.92,2.43-3.19,5.27-5.6,5.33-.67-.84-1.29-1.69-1.85-2.56,1.44-2.19,4.16-5.45,7.92-6.21Z"/><ellipse class="cls-35" cx="494.55" cy="243.34" rx="6.03" ry="4.27" transform="translate(-3.31 479.84) rotate(-51.61)"/><path class="cls-34" d="M475.69,240.97c1.97-2.15,6.21,1.11,6.99,3.11s1.72,5.94-1.72,7.15c-3.44,1.21-4.16,1.95-6.16,3.72-2,1.77-3.73,.79-4.33-.78s-.38-7.08,5.21-13.2Z"/><path class="cls-63" d="M472.88,255.09s1.57,5.42,6.11,6.29c4.54,.87,11.35-6.03,17.29-4.72"/><ellipse class="cls-18" cx="492.75" cy="243.78" rx="3.91" ry="2.77" transform="translate(-4.33 478.59) rotate(-51.61)"/><path class="cls-62" d="M501.52,231.63s6.01,1.35,6.92,8.64"/><path class="cls-33" d="M460.92,367.9c1.17,4.74,.34,9.51-1.95,13.4-.85,1.46-3.06,1.11-3.46-.52l-5.88-13.42c-.47-1.05-1.71-1.5-2.73-.99l-9.41,4.65c-.89,.44-1.42,1.38-1.33,2.36l1.04,12.48c.38,1.54-1.27,2.74-2.65,1.96-4.47-2.55-7.84-7-8.82-12.57-1.07-6.11,1.18-12.19,5.51-16.23l-11.11-45.06c-5.71-1.57-10.52-5.91-12.42-11.81-1.72-5.38-.81-10.9,1.97-15.23,.85-1.33,2.87-1.03,3.25,.51l4.88,11.54c.39,.91,1.29,1.5,2.28,1.47l10.5-.25c1.15-.03,2.04-1,1.96-2.15l-1.03-14.61c-.4-1.63,1.39-2.96,2.82-2.07,3.83,2.39,6.78,6.22,7.95,10.96,1.62,6.58-.6,13.2-5.23,17.5l11.1,45.03c6.1,1.65,11.14,6.48,12.76,13.06Z"/><path class="cls-36" d="M453.64,335.27s-8.45-1.73-14.18-6.79c-5.41-4.79-15.3-5.8-20.75-1.87-.59,.42-.8,1.22-.48,1.87,.3,.62,.79,1.3,1.52,1.51,0,0-.24,2.17,1.57,4.58,0,0-.72,2.95,3.38,6.15,0,0-.9,1.75,1.27,4.58s7.96,6.33,13.86,5.67l8.76,5.21,9.69,.88,5.91-5.43-7.84-12.12-2.7-4.24Z"/><path class="cls-63" d="M419.75,329.98s2.88,.91,8.84,1.32"/><path class="cls-30" d="M516.72,312.89c16.16-15.4,25.79-12.61,30.27-6.03s7.98,23.26-11.43,42.72c-5.09,5.11-42.15,31.96-86.98,6.58,0,0,5.61-1.05,7-4.1s-2.12-11.54-2.77-12.74,1.02-1.11,1.48-.92l-.65-3.14s30.94,8.25,63.08-22.37Z"/><path class="cls-63" d="M421.32,334.56s4.67,3.81,8.74,4.34"/><path class="cls-63" d="M424.69,340.71s3.43,2.86,7.23,3.19"/><path class="cls-2" d="M580.42,412.02c-3.08,34.07-12.73,49.87-11.29,70.39,0,0-4.64,2.99-6.13,2.13-1.49-.85,.84-3.4,1.28-4.27-.33,.18-6.28,3.5-13.19,2.66-12.16-34.96-4.12-62.41-.59-71.92,3.97-10.69-1.06-3.13-8-3.58-6.92-.45,.45-10.15,7.54-23.4,7.85-14.66,9.98-34.2,11.57-46.71,7.94,18.93,21.21,48.18,18.81,74.69Z"/><circle class="cls-32" cx="496.12" cy="243.05" r="1.41"/><g><path class="cls-31" d="M550.05,222.2h-58.07c0-1.27,.09-2.51,.25-3.74,.3-2.46,.93-4.82,1.83-7.05,4.28-10.69,14.73-18.25,26.96-18.25,7.47,0,14.27,2.82,19.42,7.45h0c5.03,4.53,8.47,10.8,9.38,17.85,.16,1.23,.24,2.48,.24,3.74Z"/><path class="cls-24" d="M550.05,222.2l2.3,7.83h-75.53s4.39-7.83,15.15-7.83h58.07Z"/><path class="cls-21" d="M540.43,200.6h0c-30.15-10.12-46.37,10.81-46.37,10.81,4.28-10.69,14.73-18.25,26.96-18.25,7.47,0,14.27,2.82,19.42,7.45Z"/><path class="cls-22" d="M550.05,222.2h-58.07c0-1.27,.09-2.51,.25-3.74h57.58c.16,1.23,.24,2.48,.24,3.74Z"/></g></g><path class="cls-25" d="M376.48,128.64l-32.39,33.4c-6.89-1.69-12.75-6.06-16.4-11.92l36.13-37.63c6.11,3.46,10.73,9.25,12.66,16.15Z"/><path class="cls-26" d="M346.08,22.88l2.96-15.19h2.76l2.56,15.19c-.82,1.64-2.52,2.66-4.32,2.59-1.68-.07-3.2-1.06-3.96-2.59Z"/><circle class="cls-27" cx="350.74" cy="6.03" r="6.03"/><path class="cls-28" d="M237.97,211.65l5.33,.08c3.66,22.76-5.33-.08-5.33-.08Z"/><path class="cls-19" d="M442.26,118.16l4.7,6.64c.67,.86,.81,2.11,.37,3.14l-2.85,7.67c-.96,2.66,1.47,5.29,4.22,4.41l7.74-2.39c14.67,16.75,6.27,64.66,6.27,64.66,23.77-38.95,10.24-72.71,10.24-72.71l6.77-4.53c2.37-1.55,1.9-5.16-.76-5.97l-7.72-2.55c-1.04-.29-1.85-1.17-2.17-2.29l-2.22-7.86c-.74-2.72-4.36-3.35-6.04-1.1l-4.88,6.63c-.73,.83-1.74,1.47-2.8,1.34l-8.16-.29c-2.6-.18-4.25,3-2.68,5.21Z"/><path class="cls-20" d="M274.23,101.02l-5.19,4.45c-.72,.56-1.09,1.56-.94,2.48l.75,6.83c.24,2.36-2.29,4.01-4.34,2.73l-5.82-3.54c-15.39,10.64-18.37,51.41-18.37,51.41-11.39-36.62,6.57-61.36,6.57-61.36l-4.59-5.08c-1.61-1.75-.49-4.6,1.85-4.71l6.81-.5c.9-.02,1.75-.57,2.24-1.42l3.42-5.95c1.16-2.07,4.24-1.84,5.15,.35l2.62,6.4c.43,.83,1.12,1.56,2.01,1.66l6.71,1.44c2.16,.38,2.85,3.32,1.12,4.8Z"/><path class="cls-29" d="M281.22,42.93l.82,2.86c.16,.39,.04,.82-.19,1.15l-1.85,2.32c-.62,.81-.09,2.03,.89,2.04l3.01,.11c.44,0,.76,.23,.98,.57l1.65,2.5c.53,.89,1.85,.69,2.2-.29l1.04-2.83c.17-.38,.45-.65,.84-.81l2.92-.76c.99-.31,1.29-1.56,.48-2.18l-2.38-1.8c-.32-.23-.53-.67-.47-1.05l.17-2.95c.08-1.04-1.06-1.66-1.95-1.13l-2.44,1.7c-.33,.21-.77,.31-1.15,.14l-2.77-1.1c-1.14-.41-2.09,.51-1.78,1.5Z"/><path class="cls-44" d="M423.16,54.83l1.22,4.27c.23,.58,.06,1.23-.28,1.71l-2.76,3.46c-.92,1.21-.14,3.02,1.33,3.05l4.49,.17c.65,.01,1.14,.35,1.45,.85l2.46,3.72c.79,1.32,2.76,1.03,3.27-.43l1.55-4.22c.26-.57,.67-.97,1.25-1.2l4.35-1.14c1.48-.46,1.92-2.33,.72-3.25l-3.54-2.68c-.48-.34-.8-1-.7-1.57l.25-4.4c.11-1.55-1.58-2.48-2.91-1.69l-3.64,2.54c-.5,.32-1.15,.47-1.72,.21l-4.13-1.63c-1.7-.6-3.12,.76-2.66,2.23Z"/><g><path class="cls-38" d="M532.43,84.94c0,2.97,.25,5.9,.73,8.73,.49,2.88,1.21,5.67,2.17,8.36,1.06,3.06,2.4,5.98,4,8.74,8.62,14.94,24.48,25.16,42.79,25.89,.68,.02,1.37,.04,2.07,.04,23.43,0,43.22-15.57,49.59-36.93,.35-1.18,.66-2.37,.92-3.58,.81-3.62,1.24-7.38,1.24-11.24,0-1.56-.07-3.09-.21-4.61-.64-7.21-2.75-13.99-6.04-20.05-8.76-16.14-25.85-27.09-45.5-27.09-6.67,0-13.04,1.27-18.89,3.57-5.51,2.15-10.55,5.22-14.94,9.02-10.98,9.49-17.93,23.52-17.93,39.17Z"/><path class="cls-1" d="M535.33,102.03c1.06,3.06,2.4,5.98,4,8.74,8.62,14.94,24.48,25.16,42.79,25.89,.68,.02,1.37,.04,2.07,.04,23.43,0,43.22-15.57,49.59-36.93,.35-1.18,.66-2.37,.92-3.58-17.36,15.32-48.6,28.57-99.38,5.84Z"/><path class="cls-37" d="M565.29,36.75c5.08,9.04,23.51,20.92,30.2,20.53,7.09-.41-9.58-10.83-2.08-13.33,7.5-2.5,36.28,16.32,36.28,16.32-8.76-16.14-25.85-27.09-45.5-27.09-6.67,0-13.04,1.27-18.89,3.57Z"/><path class="cls-43" d="M633.78,99.77c1.4-4.7,2.16-9.67,2.16-14.83,0-1.56-.07-3.09-.21-4.61-9.22-6.29-25.38-16.31-29.15-12.08-4.74,5.33,14.38,21.64,27.19,31.52Z"/><path class="cls-42" d="M539.32,110.77c8.62,14.94,24.48,25.17,42.79,25.89-3.17-8.88-31.72-21.31-42.79-25.89Z"/><path class="cls-41" d="M532.42,84.94c0,2.97,.25,5.89,.74,8.73,9.02,5.94,26.3,16.91,36.74,20.88,7.1,2.69,13.65,1.54,13.01-3.46-.38-3-2.16-5.07-3.69-6.27,1.13,.5,2.75,1.13,4.96,1.91,10.92,3.82,18.83-6.96,5.46-16.91-4.73-3.53-11.23-6.92-13.49-8.7-2.97-2.35-.5-5.78,1.94-5.34,3.36,.61,9.4,2.73,11.68,.3,2.15-2.27,.06-5.05-1.04-6.09-8.33-7.92-26.75-18.15-38.37-24.21-10.98,9.49-17.93,23.52-17.93,39.17Z"/><path class="cls-23" d="M532.64,80.2c11.42,9.42,26.07,19.3,42.68,28.41,13.74,7.54,27.19,13.65,39.39,18.12,26.82,9.85,47.62,11.77,52.22,3.39,3.02-5.51-1.47-14.53-11.35-24.99-5.19-5.48-11.87-11.37-19.73-17.35-.1,2.08-.34,4.12-.7,6.12,14,11,21.73,20.41,19.28,24.89-2.35,4.29-13.57,3.12-29.3-2.2-12.46-4.2-27.75-11.01-43.7-19.76-18.93-10.38-35.05-21.44-45.48-30.73,0,0,0,0-.01,0-9.45-8.42-14.25-15.37-12.25-19.03,2.11-3.84,11.33-3.31,24.53,.66,1.46-1.42,3-2.74,4.62-3.97-17.51-5.71-31.76-7.6-39.5-4.94-2.52,.87-4.36,2.22-5.39,4.1-4.17,7.58,5.92,21.82,24.68,37.29Z"/><path class="cls-15" d="M535.95,66.09c-9.45-8.42-14.25-15.37-12.25-19.03,2.11-3.84,11.33-3.31,24.53,.66,1.46-1.42,3-2.74,4.62-3.97-17.51-5.71-31.76-7.6-39.5-4.94-2.73,14.36,21.87,26.91,22.6,27.28Z"/><path class="cls-14" d="M654.44,118.78c2.91-3.48,2.49-8.83,1.14-13.66-5.19-5.48-11.87-11.37-19.73-17.35-.1,2.08-.34,4.12-.7,6.12,14,11,21.73,20.41,19.28,24.89Z"/></g></g></g></g></g></svg>