<?xml version="1.0" encoding="UTF-8"?><svg id="Layer_2" xmlns="http://www.w3.org/2000/svg" xmlns:xlink="http://www.w3.org/1999/xlink" viewBox="0 0 623.22 507.02"><defs><style>.cls-1{fill:url(#linear-gradient-8);}.cls-1,.cls-2{isolation:isolate;opacity:.32;}.cls-3{fill:url(#linear-gradient);}.cls-2{fill:url(#linear-gradient-12);}.cls-4{fill:url(#linear-gradient-9);}.cls-5{fill:url(#linear-gradient-3);}.cls-6{fill:url(#linear-gradient-4);}.cls-7{fill:url(#linear-gradient-2);}.cls-8{fill:url(#linear-gradient-6);}.cls-9{fill:url(#linear-gradient-7);}.cls-10{fill:url(#linear-gradient-5);}.cls-11{fill:url(#linear-gradient-16);opacity:.24;}.cls-12{fill:url(#linear-gradient-41);}.cls-13{fill:url(#linear-gradient-40);}.cls-14{fill:url(#linear-gradient-43);}.cls-15{fill:url(#linear-gradient-42);}.cls-16{fill:url(#linear-gradient-44);}.cls-17{fill:url(#linear-gradient-14);}.cls-18{fill:url(#linear-gradient-18);}.cls-19{fill:url(#linear-gradient-22);}.cls-20{fill:url(#linear-gradient-20);}.cls-21{fill:url(#linear-gradient-21);}.cls-22{fill:url(#linear-gradient-23);}.cls-23{fill:url(#linear-gradient-15);}.cls-24{fill:url(#linear-gradient-19);}.cls-25{fill:url(#linear-gradient-17);}.cls-26{fill:url(#linear-gradient-13);}.cls-27{fill:url(#linear-gradient-10);}.cls-28{fill:url(#linear-gradient-11);}.cls-29{fill:url(#linear-gradient-27);}.cls-30{fill:url(#linear-gradient-24);}.cls-31{fill:url(#linear-gradient-26);}.cls-32{fill:url(#linear-gradient-38);}.cls-33{fill:url(#linear-gradient-35);}.cls-34{fill:url(#linear-gradient-37);}.cls-35{fill:url(#linear-gradient-34);}.cls-36{fill:url(#linear-gradient-39);}.cls-37{fill:url(#linear-gradient-36);}.cls-38{fill:url(#linear-gradient-25);}.cls-39{fill:url(#linear-gradient-28);}.cls-40{fill:url(#linear-gradient-29);}.cls-41{fill:url(#linear-gradient-33);}.cls-42{fill:url(#linear-gradient-30);}.cls-43{fill:url(#linear-gradient-32);}.cls-44{fill:url(#linear-gradient-31);}</style><linearGradient id="linear-gradient" x1="140.15" y1="472.89" x2="411.84" y2="44.46" gradientTransform="matrix(1, 0, 0, 1, 0, 0)" gradientUnits="userSpaceOnUse"><stop offset=".25" stop-color="#ffd33d"/><stop offset=".97" stop-color="#f1535b"/></linearGradient><linearGradient id="linear-gradient-2" x1="423.94" y1="478.57" x2="252.28" y2="144.73" xlink:href="#linear-gradient"/><linearGradient id="linear-gradient-3" x1="448.65" y1="404.14" x2="258.95" y2="193.54" xlink:href="#linear-gradient"/><linearGradient id="linear-gradient-4" x1="118.39" y1="433.96" x2="336.72" y2="89.67" xlink:href="#linear-gradient"/><linearGradient id="linear-gradient-5" x1="129.6" y1="-2161.77" x2="403.71" y2="-2253.32" gradientTransform="translate(545.91 -2047.65) rotate(6.75) scale(1 -1)" gradientUnits="userSpaceOnUse"><stop offset="0" stop-color="#8e3bcb"/><stop offset=".5" stop-color="#d767b1"/><stop offset="1" stop-color="#f2535b"/></linearGradient><linearGradient id="linear-gradient-6" x1="128.23" y1="-2148.49" x2="255.86" y2="-2211.75" xlink:href="#linear-gradient-5"/><linearGradient id="linear-gradient-7" x1="139.21" y1="-2204.55" x2="308.27" y2="-2261.02" gradientTransform="translate(545.91 -2047.65) rotate(6.75) scale(1 -1)" gradientUnits="userSpaceOnUse"><stop offset=".13" stop-color="#381a46"/><stop offset=".49" stop-color="#1b0c22"/><stop offset=".81" stop-color="#070309"/><stop offset="1" stop-color="#000"/></linearGradient><linearGradient id="linear-gradient-8" x1="214.57" y1="-2196.63" x2="214.87" y2="-2058.5" xlink:href="#linear-gradient-5"/><linearGradient id="linear-gradient-9" x1="-1824.02" y1="369.53" x2="-1549.91" y2="277.97" gradientTransform="translate(752.22 -1703.04) rotate(-68.57)" xlink:href="#linear-gradient-5"/><linearGradient id="linear-gradient-10" x1="-1825.39" y1="382.81" x2="-1697.76" y2="319.55" gradientTransform="translate(752.22 -1703.04) rotate(-68.57)" xlink:href="#linear-gradient-5"/><linearGradient id="linear-gradient-11" x1="-1814.41" y1="326.75" x2="-1645.35" y2="270.28" gradientTransform="translate(752.22 -1703.04) rotate(-68.57)" xlink:href="#linear-gradient-7"/><linearGradient id="linear-gradient-12" x1="-1739.06" y1="334.66" x2="-1738.75" y2="472.79" gradientTransform="translate(752.22 -1703.04) rotate(-68.57)" xlink:href="#linear-gradient-5"/><linearGradient id="linear-gradient-13" x1="894.73" y1="-1805.11" x2="901.47" y2="-1556.08" gradientTransform="translate(-1514.79 236.15) rotate(59.09)" xlink:href="#linear-gradient-5"/><linearGradient id="linear-gradient-14" x1="908.93" y1="-1636.95" x2="897.89" y2="-1752.88" gradientTransform="translate(-1514.79 236.15) rotate(59.09)" xlink:href="#linear-gradient-5"/><linearGradient id="linear-gradient-15" x1="942.68" y1="-1955.44" x2="842.66" y2="-1622.03" gradientTransform="translate(-1514.79 236.15) rotate(59.09)" xlink:href="#linear-gradient"/><linearGradient id="linear-gradient-16" x1="912.7" y1="-1245.44" x2="935.54" y2="-2498.12" gradientTransform="translate(-1514.79 236.15) rotate(59.09)" gradientUnits="userSpaceOnUse"><stop offset="0" stop-color="#ffd33d"/><stop offset="1" stop-color="#f1535b"/></linearGradient><linearGradient id="linear-gradient-17" x1="900.62" y1="-2012.23" x2="897.84" y2="-1837.73" xlink:href="#linear-gradient-16"/><linearGradient id="linear-gradient-18" x1="879.62" y1="-1890.07" x2="918.74" y2="-1890.07" gradientTransform="translate(-1514.79 236.15) rotate(59.09)" xlink:href="#linear-gradient-7"/><linearGradient id="linear-gradient-19" x1="919.71" y1="-1976.13" x2="874.95" y2="-1788.48" gradientTransform="translate(-1514.79 236.15) rotate(59.09)" gradientUnits="userSpaceOnUse"><stop offset=".06" stop-color="#fff"/><stop offset=".25" stop-color="#f8fafe"/><stop offset=".53" stop-color="#e3ecfb"/><stop offset=".87" stop-color="#c2d6f6"/><stop offset="1" stop-color="#b3ccf4"/></linearGradient><linearGradient id="linear-gradient-20" x1="901.18" y1="-1928.61" x2="898.11" y2="-1796.73" xlink:href="#linear-gradient-16"/><linearGradient id="linear-gradient-21" x1="898.55" y1="-1929.29" x2="899.78" y2="-1663.7" xlink:href="#linear-gradient-16"/><linearGradient id="linear-gradient-22" x1="898.13" y1="-1640.77" x2="899.97" y2="-1868.95" gradientTransform="translate(-1514.79 236.15) rotate(59.09)" gradientUnits="userSpaceOnUse"><stop offset="0" stop-color="#8e3bcb"/><stop offset=".5" stop-color="#d767b1"/><stop offset=".85" stop-color="#f2535b"/></linearGradient><linearGradient id="linear-gradient-23" x1="883.43" y1="-1716.12" x2="942.19" y2="-1750.11" gradientTransform="translate(-1514.79 236.15) rotate(59.09)" xlink:href="#linear-gradient-7"/><linearGradient id="linear-gradient-24" x1="363.14" y1="41.98" x2="284.6" y2="176.62" gradientTransform="matrix(1, 0, 0, 1, 0, 0)" gradientUnits="userSpaceOnUse"><stop offset=".41" stop-color="#ffd33d"/><stop offset="1" stop-color="#f1535b"/></linearGradient><linearGradient id="linear-gradient-25" x1="-199.56" y1="711.39" x2="-258.25" y2="812" gradientTransform="translate(311.55 -588.62) rotate(-20.44)" xlink:href="#linear-gradient-24"/><linearGradient id="linear-gradient-26" x1="1001.31" y1="-1208.59" x2="882.75" y2="-1167.64" gradientTransform="translate(-1220.93 479.13) rotate(43.87)" xlink:href="#linear-gradient-16"/><linearGradient id="linear-gradient-27" x1="881.85" y1="-1369.31" x2="763.29" y2="-1328.36" gradientTransform="translate(-1220.93 479.13) rotate(43.87)" xlink:href="#linear-gradient-16"/><linearGradient id="linear-gradient-28" x1="378.69" y1="141" x2="32.13" y2="547.55" gradientTransform="matrix(1, 0, 0, 1, 0, 0)" xlink:href="#linear-gradient-16"/><linearGradient id="linear-gradient-29" x1="532.7" y1="-93.73" x2="-63.25" y2="689.91" gradientTransform="matrix(1, 0, 0, 1, 0, 0)" xlink:href="#linear-gradient-16"/><linearGradient id="linear-gradient-30" x1="306.11" y1="292.56" x2="270.56" y2="473.53" gradientTransform="matrix(1, 0, 0, 1, 0, 0)" gradientUnits="userSpaceOnUse"><stop offset=".1" stop-color="#ffd33d"/><stop offset="1" stop-color="#f1535b"/></linearGradient><linearGradient id="linear-gradient-31" x1="276.39" y1="63.82" x2="-178.22" y2="473.04" xlink:href="#linear-gradient-30"/><linearGradient id="linear-gradient-32" x1="283.65" y1="238.06" x2="-6.69" y2="354.77" xlink:href="#linear-gradient-30"/><linearGradient id="linear-gradient-33" x1="391.39" y1="268.56" x2="282.86" y2="576.59" xlink:href="#linear-gradient-30"/><linearGradient id="linear-gradient-34" x1="576.26" y1="-287.1" x2="546.54" y2="-202.75" gradientTransform="translate(-418.72 427.54) rotate(18.06)" xlink:href="#linear-gradient-30"/><linearGradient id="linear-gradient-35" x1="380.56" y1="402.9" x2="178.87" y2="407.95" xlink:href="#linear-gradient-30"/><linearGradient id="linear-gradient-36" x1="558.38" y1="432.46" x2="221.36" y2="440.91" xlink:href="#linear-gradient-30"/><linearGradient id="linear-gradient-37" x1="300.38" y1="418.85" x2="295.71" y2="418.97" xlink:href="#linear-gradient-30"/><linearGradient id="linear-gradient-38" x1="466.71" y1="340.56" x2="315.02" y2="771.05" xlink:href="#linear-gradient-30"/><linearGradient id="linear-gradient-39" x1="448.93" y1="390.48" x2="309.24" y2="477.12" xlink:href="#linear-gradient-30"/><linearGradient id="linear-gradient-40" x1="237.74" y1="86.44" x2="4.45" y2="337.19" xlink:href="#linear-gradient-30"/><linearGradient id="linear-gradient-41" x1="-3416.36" y1="-149.4" x2="-3552.46" y2="-3.11" gradientTransform="translate(-886.58 -3192.75) rotate(-107.23)" xlink:href="#linear-gradient-30"/><linearGradient id="linear-gradient-42" x1="123.81" y1="98.18" x2="105.34" y2="118.03" xlink:href="#linear-gradient-30"/><linearGradient id="linear-gradient-43" x1="-673.91" y1="891.92" x2="-705.02" y2="1050.3" gradientTransform="translate(394.99 -843.68) rotate(-26.46) scale(1.03 1)" xlink:href="#linear-gradient-30"/><linearGradient id="linear-gradient-44" x1="466.9" y1="179.39" x2="275.49" y2="446.6" xlink:href="#linear-gradient-30"/></defs><g id="Layer_1-2"><g><g><path class="cls-3" d="M405.38,140.75c-117.13,75.24-128.55,251.04-128.55,251.04-11.95,1.75-22.84,2.26-32.77,1.78-7.27-.36-14.02-1.25-20.29-2.57-16.52-3.48-29.66-9.93-40.02-17.47-27.45-19.96-35.47-47.53-35.47-47.53,45.21-77.18,125.16-132.82,182.03-165.03,.01,0,.01-.01,.02-.02h.01c38.09-21.57,65.82-32.64,65.82-32.64l2.84,3.84,1.29,1.73,5.09,6.87Z"/><path class="cls-7" d="M405.38,140.75c-117.13,75.24-128.55,251.04-128.55,251.04-11.95,1.75-22.84,2.26-32.77,1.78-7.27-.36-14.02-1.25-20.29-2.57,0-11.29,10.52-65.72,53.06-138.53,36.91-63.18,108.16-111.48,122.17-120.32l1.29,1.73,5.09,6.87Z"/><path class="cls-5" d="M405.38,140.75c-117.13,75.24-128.55,251.04-128.55,251.04-11.95,1.75-22.84,2.26-32.77,1.78,12.76-99.79,77.71-187.95,102.95-213.59,21.05-21.39,44.83-39.77,53.28-46.1l5.09,6.87Z"/><path class="cls-6" d="M330.31,160.97c-2.02,1.5-124.99,92.83-146.56,212.56-27.45-19.96-35.47-47.53-35.47-47.53,45.21-77.18,125.16-132.82,182.03-165.03Z"/></g><g><g><path class="cls-10" d="M526.75,131.59c-4.56,10.21-11.67,22.24-18.91,30.15-6.52,7.04-14.95,12.27-21.36,15.55-5.4,2.78-9.34,4.24-9.34,4.24-7.24,4.42-18.12,4.36-20.38-.22-2.26-4.58,2.22-7.82,2.22-7.82,0,0,.54-.48,1.48-1.54,.94-.98,2.29-2.54,4.11-4.58,1.67-1.93,3.65-4.22,5.98-7.1,4.96-6.05,6.44-14.51,6.91-19.59,.24-2.57,.16-4.23,.16-4.23,12.32-3.4,22.89-7.08,31.29-10.4,14.58-5.74,22.78-10.25,22.78-10.25-.13,3.41-2.05,9.21-4.95,15.78Z"/><path class="cls-8" d="M507.78,161.73c-12.02,13.03-30.7,19.85-30.7,19.85-7.23,4.42-18.12,4.36-20.38-.22-2.26-4.58,2.22-7.82,2.22-7.82,0,0,.54-.48,1.49-1.54,34.44-4.62,45.62-35.41,48.51-45.89,14.58-5.74,22.78-10.25,22.78-10.25-.31,8.45-11.91,32.9-23.92,45.86Z"/><path class="cls-9" d="M486.41,177.35c-5.4,2.78-9.34,4.24-9.34,4.24-7.23,4.42-18.12,4.36-20.38-.22-2.26-4.58,2.22-7.82,2.22-7.82,0,0,.54-.48,1.49-1.54,.95-1.05,2.29-2.54,4.1-4.58-.09,3.69,1.25,9.12,9.84,10,4.53,.47,8.67,.27,12.06-.08Z"/><path class="cls-1" d="M526.75,131.59c-15.89,5.24-39.31,8.08-49.29,9.16,.24-2.57,.16-4.23,.16-4.23,12.32-3.4,22.89-7.08,31.29-10.4,14.58-5.74,22.78-10.25,22.78-10.25-.12,3.34-2.04,9.14-4.94,15.71Z"/></g><g><path class="cls-4" d="M464.76,28.04c-11.16-.8-25.12-.22-35.51,2.43-9.28,2.42-17.87,7.38-23.79,11.48-5.01,3.45-8.14,6.23-8.14,6.23-7.31,4.29-12.4,13.91-9.43,18.07,2.97,4.16,7.94,1.73,7.94,1.73,0,0,.68-.24,2.05-.58,1.31-.37,3.32-.82,5.98-1.46,2.48-.56,5.45-1.22,9.08-1.92,7.68-1.51,15.83,1.17,20.53,3.16,2.38,1.01,3.8,1.86,3.8,1.86,8.82-9.25,17.05-16.83,23.95-22.67,11.94-10.14,19.79-15.24,19.79-15.24-3.07-1.5-9.08-2.54-16.25-3.09Z"/><path class="cls-27" d="M429.23,30.53c-17.16,4.44-32,17.68-32,17.68-7.31,4.29-12.4,13.91-9.43,18.07,2.97,4.16,7.94,1.73,7.94,1.73,0,0,.68-.25,2.06-.58,20.34-28.18,52.76-23.49,63.36-21.08,11.94-10.14,19.79-15.24,19.79-15.24-7.6-3.72-34.62-5.04-51.72-.57Z"/><path class="cls-28" d="M405.37,41.99c-5,3.44-8.14,6.23-8.14,6.23-7.31,4.29-12.4,13.91-9.43,18.07,2.97,4.16,7.94,1.73,7.94,1.73,0,0,.68-.25,2.06-.58,1.37-.34,3.32-.82,5.98-1.45-3.29-1.66-7.45-5.41-4.17-13.4,1.73-4.22,3.85-7.77,5.77-10.6Z"/><path class="cls-2" d="M464.76,28.04c-12.12,11.53-25.69,30.83-31.36,39.12,2.38,1.01,3.8,1.86,3.8,1.86,8.82-9.25,17.05-16.83,23.95-22.67,11.94-10.14,19.79-15.24,19.79-15.24-3-1.47-9.02-2.52-16.18-3.07Z"/></g><path class="cls-26" d="M411.2,104.53c-3.57-.16-13.6-.13-25.9,4.12-1.55,.54-2.22,2.36-1.38,3.77l29.34,49.01c.83,1.39,2.73,1.68,3.93,.6,4.06-3.63,12.36-11.6,16.62-19.52,.43-.8,.4-1.76-.07-2.54l-20.46-34.18c-.45-.74-1.23-1.21-2.1-1.25Z"/><path class="cls-17" d="M434.59,149.37l-28.3-47.27c-1.02-1.71-.63-3.9,.91-5.16l14.71-11.95,34.99,58.44-17.27,7.55c-1.84,.81-4,.12-5.03-1.61Z"/><path class="cls-23" d="M511.25,130.42c-12.11,6.24-22.87,10.7-31.57,13.84-9.11,3.28-15.98,5.12-19.79,6.02-2,.47-4.08-.41-5.14-2.18l-37.97-63.43c-1.06-1.77-.85-4.01,.51-5.56,2.59-2.92,7.41-8.08,14.56-14.52,6.87-6.19,15.88-13.58,27.11-21.32,11.97-8.24,26.45-16.89,43.53-24.94,.39-.19,.79-.38,1.19-.56,1.62-.75,3.23-1.48,4.85-2.17,1.08-.47,2.16-.92,3.25-1.36,14.97-6.09,29.79-9.74,43.53-11.83,10.29-1.56,19.96-2.24,28.64-2.39,15.96-.28,28.54,1.22,35.27,2.29,2.92,.46,4.71,3.45,3.74,6.24-1.99,5.72-5.86,15.68-12.16,27.61-.79,1.49-1.61,3.01-2.48,4.56-3.27,5.86-7.1,12.09-11.55,18.47-8.99,12.89-20.52,26.36-35.06,38.43-1.26,1.05-2.55,2.08-3.86,3.11-1.01,.8-2.04,1.58-3.08,2.36-.35,.27-.7,.53-1.06,.78-15.12,11.23-29.55,19.89-42.45,26.54Z"/><path class="cls-11" d="M511.25,130.42c-12.11,6.24-22.87,10.7-31.57,13.84-9.11,3.28-15.98,5.12-19.79,6.02-2,.47-4.08-.41-5.14-2.18l-12.95-21.64c16.33-6.61,36.87-15.93,57.46-27.92,45.49-26.5,104.2-84.41,104.2-84.41l7.32,22.03c-.79,1.49-1.61,3.01-2.48,4.56-3.27,5.86-7.1,12.09-11.55,18.47-8.99,12.89-20.52,26.36-35.06,38.43-1.26,1.05-2.55,2.08-3.86,3.11-1.01,.8-2.04,1.58-3.08,2.36-.35,.27-.7,.53-1.06,.78-15.12,11.23-29.55,19.89-42.45,26.54Z"/><path class="cls-25" d="M608.3,40.73l-3.98-10.36c-3.08-8.01-7.52-15.43-13.13-21.93L583.94,.04c15.96-.28,28.54,1.22,35.27,2.29,2.92,.46,4.71,3.45,3.74,6.24-2.24,6.44-6.86,18.24-14.64,32.17Z"/><path class="cls-18" d="M551.97,46.82c-5.54-9.25-2.52-21.29,6.73-26.83s21.29-2.52,26.83,6.73,2.52,21.29-6.73,26.83c-9.25,5.54-21.29,2.52-26.83-6.73Z"/><path class="cls-24" d="M576.17,49.17c-6.84,4.1-15.72,1.87-19.81-4.97-.61-1.03-1.09-2.1-1.42-3.2-1.12-3.64-.73-7.54,.97-10.84,1.19-2.32,3.02-4.35,5.42-5.78,6.84-4.1,15.72-1.87,19.82,4.98,1.33,2.22,1.99,4.65,2.04,7.07,.09,3.77-1.3,7.49-3.94,10.28-.88,.94-1.91,1.77-3.07,2.47Z"/><path class="cls-20" d="M553.7,103.88l-51.21-85.54c.39-.19,.79-.38,1.19-.56,2.7-1.26,5.4-2.43,8.09-3.53l49.92,83.38c-2.24,1.86-4.55,3.68-6.93,5.47-.35,.27-.7,.53-1.06,.78Z"/><path class="cls-21" d="M511.25,130.42c-12.11,6.24-22.87,10.7-31.57,13.84-8.06-10.41-16.41-22.27-24.59-35.64-9.5-15.54-17.12-30.41-23.25-44.02,6.87-6.19,15.88-13.58,27.11-21.32,6.9,14.8,15.27,30.81,25.44,47.52,8.96,14.71,18.04,27.9,26.86,39.62Z"/><path class="cls-19" d="M470.61,104.97c-14.66,8.78-28.33,15.49-37.54,18.71-6.37,2.23-10.59,2.79-11.53,1.22s1.62-5.14,6.75-9.79c7.22-6.57,19.48-15.36,34-24.05,24.8-14.85,46.77-23.77,49.07-19.93,2.3,3.84-15.94,18.99-40.74,33.84Z"/><path class="cls-22" d="M433.07,123.68c-6.37,2.23-10.59,2.79-11.53,1.22s1.62-5.14,6.75-9.79c.49,2.61,1.72,6.13,4.79,8.57Z"/></g><path class="cls-30" d="M328.16,138.84l-5.32-4.97c-.75-.58-.98-1.62-.92-2.61l1.11-7.25c.36-2.48-2.31-4.37-4.49-3.12l-6.36,3.54c-.91,.5-1.97,.55-2.81,.07l-6.46-3.26c-2.19-1.17-4.76,.81-4.25,3.27l1.4,7.12s-29.81,12.69-39.44,52.18c0,0,24.95-35.43,44.74-36.71l3.36,6.39c1.17,2.28,4.36,2.16,5.44-.12l3.04-6.62c.37-.92,1.25-1.62,2.21-1.74l7.14-1.21c2.38-.4,3.36-3.45,1.6-4.97Z"/><path class="cls-38" d="M373.8,224.62l-5.02-2.09c-.68-.21-1.11-.88-1.32-1.59l-1.11-5.37c-.4-1.83-2.76-2.46-3.96-1.02l-3.53,4.14c-.51,.59-1.24,.9-1.95,.78l-5.38-.6c-1.84-.25-3.12,1.81-2.12,3.4l2.84,4.62s-17.56,16.67-14,46.83c0,0,8.22-31.32,21.75-37.38l4.02,3.6c1.42,1.29,3.62,.38,3.78-1.5l.4-5.43c.02-.74,.45-1.46,1.09-1.8l4.69-2.71c1.56-.9,1.45-3.29-.18-3.9Z"/><path class="cls-31" d="M334.32,289.46l-1.22,4.27c-.23,.58-.06,1.23,.28,1.71l2.76,3.46c.92,1.21,.14,3.02-1.33,3.05l-4.49,.17c-.65,.01-1.14,.35-1.45,.85l-2.46,3.72c-.79,1.32-2.76,1.03-3.28-.43l-1.55-4.22c-.26-.57-.67-.97-1.25-1.2l-4.35-1.14c-1.48-.46-1.92-2.33-.72-3.25l3.54-2.68c.48-.34,.8-1,.7-1.57l-.25-4.41c-.11-1.55,1.58-2.48,2.91-1.69l3.64,2.54c.5,.32,1.15,.47,1.72,.21l4.13-1.63c1.7-.61,3.12,.76,2.66,2.23Z"/><path class="cls-29" d="M359.59,90.8l-1.22,4.27c-.23,.58-.06,1.23,.28,1.71l2.76,3.46c.92,1.21,.14,3.02-1.33,3.05l-4.49,.17c-.65,.01-1.14,.35-1.45,.85l-2.46,3.72c-.79,1.32-2.76,1.03-3.28-.43l-1.55-4.22c-.26-.57-.67-.97-1.25-1.2l-4.35-1.14c-1.48-.46-1.92-2.33-.72-3.25l3.54-2.68c.48-.34,.8-1,.7-1.57l-.25-4.41c-.11-1.55,1.58-2.48,2.91-1.69l3.64,2.54c.5,.32,1.15,.47,1.72,.21l4.13-1.63c1.7-.61,3.12,.76,2.66,2.23Z"/><path class="cls-39" d="M444.52,479.52c-7.33,17.71-26.49,27.75-48.28,27.5-.08,0-.16,0-.24-.01-9.01-.11-18.46-2-27.71-5.83-7.86-3.25-14.82-7.6-20.7-12.69-2.82-2.44-5.4-5.05-7.7-7.79-11.55,7.99-29.37,8.62-45.53,.34-11.63-5.96-20.01-15.31-23.9-25.31-2.54,1.65-5.27,3.05-8.14,4.15-4.85,1.85-10.12,2.87-15.63,2.87-16.29,0-30.5-8.9-38.04-22.1-2.46-4.31-4.21-9.08-5.09-14.16h-.01c-13.27,14.69-32.45,23.93-53.81,23.93-40.04,0-72.49-32.46-72.49-72.49,0-5.43,.61-10.71,1.74-15.79C34.45,356.54,0,318.53,0,272.46c0-27.21,12.03-51.62,31.06-68.19-8.15-10.15-13.04-23.03-13.04-37.06,0-1.85,.09-3.68,.26-5.49,2.76-30.14,28.11-53.73,58.97-53.73,8.97,0,17.47,2,25.09,5.57,.31-3.19,.89-6.28,1.71-9.21,.04-.16,.09-.31,.13-.46,3.91-13.54,12.93-23.95,24.09-27.42,2.63-.83,5.37-1.26,8.2-1.26,19.01,0,34.41,19.6,34.41,43.78,0,1.97-.11,3.9-.31,5.8,33.84-.31,63.45,20.43,69.77,51.22,4.41,21.51-3.57,42.97-19.43,58.41-.13,.13-.26,.26-.4,.39h-.01s.01,.01,.02,.02c6.84,4.89,12.21,11.6,15.22,19.77,5.11,13.92,2.23,29.02-6.39,41.14,.46-.07,.91-.13,1.37-.19,2.58-.33,5.21-.5,7.87-.5,18.56,0,35.17,8.3,46.34,21.4,5.76,6.75,10.07,14.77,12.45,23.58,.45,1.66,.83,3.35,1.14,5.07,4.37-4.95,9.31-9.22,14.68-12.68,12.11-7.81,26.37-11.52,41.06-9.59,36,4.71,60.89,41.41,55.59,81.98-.3,2.28-.7,4.52-1.17,6.72,1.8,.83,3.56,1.72,5.26,2.66,26.5,14.67,40.05,42.45,30.58,65.33Z"/><path class="cls-40" d="M396,507.01c-9.01-.11-18.46-2-27.71-5.83-7.86-3.25-14.82-7.6-20.7-12.69-2.82-2.44-5.4-5.05-7.7-7.79-11.55,7.99-29.37,8.62-45.53,.34-11.63-5.96-20.01-15.31-23.9-25.31-2.54,1.65-5.27,3.05-8.14,4.15-4.85,1.85-10.12,2.87-15.63,2.87-16.29,0-30.5-8.9-38.04-22.1-2.46-4.31-4.21-9.08-5.09-14.16h-.01c-13.27,14.69-32.45,23.93-53.81,23.93-40.04,0-72.49-32.46-72.49-72.49,0-5.43,.61-10.71,1.74-15.79C34.45,356.54,0,318.53,0,272.46c0-27.21,12.03-51.62,31.06-68.19-8.15-10.15-13.04-23.03-13.04-37.06,0-1.85,.09-3.68,.26-5.49,2.83-.41,5.72-.63,8.67-.63,8.97,0,17.47,2,25.09,5.57,.31-3.19,.89-6.28,1.71-9.21,.04-.16,.09-.31,.13-.46,3.91-13.54,12.93-23.95,24.09-27.42,2.63-.83,5.37-1.26,8.2-1.26,19.01,0,34.41,19.6,34.41,43.78,0,1.97-.11,3.9-.31,5.8,33.84-.31,63.45,20.43,69.77,51.22,4.41,21.51-3.57,42.97-19.43,58.41-.13,.13-.26,.26-.4,.39h-.01s.01,.01,.02,.02c6.84,4.89,12.21,11.6,15.22,19.77,5.11,13.92,2.23,29.02-6.39,41.14,.46-.07,.91-.13,1.37-.19,2.58-.33,5.21-.5,7.87-.5,18.56,0,35.17,8.3,46.34,21.4,5.76,6.75,10.07,14.77,12.45,23.58,.45,1.66,.83,3.35,1.14,5.07,4.37-4.95,9.31-9.22,14.68-12.68,12.11-7.81,26.37-11.52,41.06-9.59,36,4.71,60.89,41.41,55.59,81.98-.3,2.28-.7,4.52-1.17,6.72,1.8,.83,3.56,1.72,5.26,2.66,17.02,9.42,28.7,24.25,32.36,39.72Z"/><path class="cls-42" d="M298.52,345.09c4.37-4.95,9.31-9.22,14.68-12.68l1.37,1.03-21.59,24.63c6.77-16.67-4.04-31.39-8.05-41.63,5.76,6.75,10.07,14.77,12.45,23.58,.45,1.66,.83,3.35,1.14,5.07"/><path class="cls-44" d="M220.51,234.8c.37-.7,17.22-32.19,3.26-62.11-21.35-45.75-68.97-40.54-68.97-40.54,13.61-34.5-26.53-55.69-26.53-55.69,2.63-.83,5.37-1.26,8.2-1.26,19.01,0,34.41,19.6,34.41,43.78,0,1.97-.11,3.9-.31,5.8,33.84-.31,63.45,20.43,69.77,51.22,4.45,21.69-3.71,43.33-19.83,58.8Z"/><path class="cls-43" d="M229.35,295.73c.46-.07,.91-.13,1.37-.19l-6.93,7.2c.56-.98,12.53-22.3,3.9-44.82-8.84-23.04-29.69-25.9-29.69-25.9,3.86-2.81,14.35-.35,22.91,2.39-.13,.13-.26,.26-.4,.39h-.01s.01,0,.02,.02c6.84,4.89,12.21,11.6,15.22,19.77,5.11,13.92,2.23,29.02-6.39,41.14Z"/><path class="cls-41" d="M409.85,404.8c-.3,2.28-.7,4.52-1.17,6.72,0,0-6.42-64.56-42.99-74.78-45.57-12.73-62.01,11.4-72.71,21.33,0,0-.63-4.75,5.54-12.98,.45,1.66-.31-1.72,0,0,14.22-16.1,34.54-25.05,55.74-22.27,36,4.71,60.89,41.41,55.59,81.98Z"/><path class="cls-35" d="M178.06,347s26.55-11.34,47.19,15.38c0,0-16.66-16.05-47.19-15.38Z"/><path class="cls-33" d="M208.66,440.63s0,.01-.01,.01c-2.46-4.31-4.21-9.08-5.09-14.16,0,0,20.73-22.46,14.58-52.95,0,0,17.28,30.51-9.48,67.1Z"/><path class="cls-37" d="M296.04,419.04c-4.69,1.02-26.47,7.37-25.58,36.68-2.54,1.65-5.27,3.05-8.14,4.15-.51-12.5,3.08-34.85,33.72-40.83Z"/><path class="cls-34" d="M296.75,418.9l-.48,.09c.21-.04,.37-.07,.48-.09Z"/><path class="cls-32" d="M444.52,479.51c-7.33,17.71-26.49,27.75-48.28,27.5,19.37-6.39,36.48-20.39,39.41-40.49,3.97-27.23-13.99-45.76-21.71-52.34,26.5,14.67,40.05,42.45,30.58,65.33Z"/><path class="cls-36" d="M347.59,488.48c-2.82-2.44-5.4-5.05-7.7-7.79,0,0,30.02-18.11,6.22-61.59,1.33,1.83,32.38,45.39,1.48,69.38Z"/><path class="cls-13" d="M96.26,339.1c-16.77,10.48-17.27,23.03-17.27,23.03C34.45,356.53,0,318.52,0,272.45,0,245.24,12.03,220.83,31.06,204.26c-33.07,46.76-24,103.27,7.92,126.46,28.02,20.36,57.28,8.38,57.28,8.38Z"/><path class="cls-12" d="M95.69,185.1s31.99-33.58,62.76,3.99c0,0-28.97-22.06-62.76-3.99Z"/><path class="cls-15" d="M114.97,122.75c-5.21-6.67-12.63-9.2-12.63-9.2,.31-3.19,.89-6.28,1.71-9.21,3.52,8.47,9.86,17.02,10.92,18.41Z"/><path class="cls-14" d="M166.26,290.88s30.27-1.71,22.26,29.51c0,0-.94-23.1-22.26-29.51Z"/><path class="cls-16" d="M296.04,375.53s28.8-14.66,45.62,21.08c0,0-19.29-23.52-45.62-21.08Z"/></g></g></svg>