<?xml version="1.0" encoding="UTF-8"?><svg xmlns="http://www.w3.org/2000/svg" xmlns:xlink="http://www.w3.org/1999/xlink" viewBox="0 0 638.14 504.18"><defs><style>.cls-1{fill:url(#linear-gradient-116);opacity:.61;}.cls-2{fill:url(#linear-gradient-103);}.cls-2,.cls-3,.cls-4,.cls-5,.cls-6,.cls-7,.cls-8,.cls-9,.cls-10{opacity:.51;}.cls-3{fill:url(#linear-gradient-102);}.cls-4{fill:url(#linear-gradient-139);}.cls-11{fill:url(#linear-gradient);}.cls-12{fill:url(#linear-gradient-137);}.cls-13{fill:url(#linear-gradient-133);}.cls-14{fill:url(#linear-gradient-132);}.cls-15{fill:url(#linear-gradient-130);}.cls-16{fill:url(#linear-gradient-135);}.cls-17{fill:url(#linear-gradient-131);}.cls-18{fill:url(#linear-gradient-136);}.cls-19{fill:url(#linear-gradient-134);}.cls-20{fill:url(#linear-gradient-117);}.cls-21{fill:url(#linear-gradient-118);}.cls-22{fill:url(#linear-gradient-111);}.cls-23{fill:url(#linear-gradient-112);}.cls-24{fill:url(#linear-gradient-127);}.cls-25{fill:url(#linear-gradient-128);}.cls-26{fill:url(#linear-gradient-110);}.cls-27{fill:url(#linear-gradient-113);}.cls-28{fill:url(#linear-gradient-114);}.cls-29{fill:url(#linear-gradient-115);}.cls-30{fill:url(#linear-gradient-119);}.cls-31{fill:url(#linear-gradient-109);}.cls-32{fill:url(#linear-gradient-123);}.cls-33{fill:url(#linear-gradient-129);}.cls-34{fill:url(#linear-gradient-122);}.cls-35{fill:url(#linear-gradient-121);}.cls-36{fill:url(#linear-gradient-101);}.cls-37{fill:url(#linear-gradient-126);}.cls-38{fill:url(#linear-gradient-125);}.cls-39{fill:url(#linear-gradient-124);}.cls-40{fill:url(#linear-gradient-120);}.cls-41{fill:url(#linear-gradient-141);}.cls-42{fill:url(#linear-gradient-140);}.cls-43{fill:url(#linear-gradient-142);}.cls-44{fill:url(#linear-gradient-57);}.cls-44,.cls-45{opacity:.52;}.cls-44,.cls-45,.cls-46,.cls-47,.cls-48,.cls-49,.cls-50,.cls-51,.cls-52,.cls-53,.cls-54,.cls-55,.cls-56,.cls-57,.cls-58,.cls-59,.cls-60,.cls-61,.cls-62,.cls-63,.cls-64,.cls-65,.cls-66,.cls-67,.cls-68,.cls-69,.cls-70,.cls-71{mix-blend-mode:multiply;}.cls-45{fill:url(#linear-gradient-72);}.cls-46{fill:url(#linear-gradient-53);}.cls-46,.cls-47,.cls-48,.cls-49,.cls-50,.cls-51,.cls-52,.cls-53,.cls-54,.cls-65,.cls-66,.cls-67,.cls-68,.cls-69{opacity:.42;}.cls-47{fill:url(#linear-gradient-56);}.cls-48{fill:url(#linear-gradient-55);}.cls-49{fill:url(#linear-gradient-58);}.cls-50{fill:url(#linear-gradient-64);}.cls-51{fill:url(#linear-gradient-62);}.cls-52{fill:url(#linear-gradient-61);}.cls-53{fill:url(#linear-gradient-60);}.cls-54{fill:url(#linear-gradient-40);}.cls-55{fill:url(#linear-gradient-79);}.cls-55,.cls-56,.cls-57{opacity:.28;}.cls-56{fill:url(#linear-gradient-77);}.cls-57{fill:url(#linear-gradient-41);}.cls-58{fill:url(#linear-gradient-86);}.cls-58,.cls-59,.cls-60,.cls-61,.cls-70,.cls-71{opacity:.26;}.cls-59{fill:url(#linear-gradient-87);}.cls-60{fill:url(#linear-gradient-92);}.cls-61{fill:url(#linear-gradient-97);}.cls-62{fill:url(#linear-gradient-34);}.cls-62,.cls-63,.cls-64{opacity:.21;}.cls-63{fill:url(#linear-gradient-48);}.cls-64{fill:url(#linear-gradient-46);}.cls-72{fill:url(#linear-gradient-8);}.cls-73{fill:url(#linear-gradient-9);}.cls-74{fill:url(#linear-gradient-3);}.cls-75{fill:url(#linear-gradient-4);}.cls-76{fill:url(#linear-gradient-2);}.cls-77{fill:url(#linear-gradient-6);}.cls-78{fill:url(#linear-gradient-7);}.cls-79{fill:url(#linear-gradient-5);}.cls-80{opacity:.35;}.cls-5{fill:url(#linear-gradient-25);}.cls-6{fill:url(#linear-gradient-26);}.cls-7{fill:url(#linear-gradient-43);}.cls-8{fill:url(#linear-gradient-81);}.cls-9{fill:url(#linear-gradient-83);}.cls-10{fill:url(#linear-gradient-82);}.cls-81{fill:url(#linear-gradient-54);opacity:.9;}.cls-82{fill:url(#linear-gradient-59);}.cls-83{fill:url(#linear-gradient-51);}.cls-84{fill:url(#linear-gradient-52);}.cls-85{fill:url(#linear-gradient-50);}.cls-86{fill:url(#linear-gradient-78);}.cls-87{fill:url(#linear-gradient-74);}.cls-88{fill:url(#linear-gradient-75);}.cls-89{fill:url(#linear-gradient-76);}.cls-90{fill:url(#linear-gradient-70);}.cls-91{fill:url(#linear-gradient-71);}.cls-92{fill:url(#linear-gradient-73);}.cls-93{fill:url(#linear-gradient-68);}.cls-94{fill:url(#linear-gradient-67);}.cls-95{fill:url(#linear-gradient-69);}.cls-96{fill:url(#linear-gradient-63);}.cls-97{fill:url(#linear-gradient-66);}.cls-98{fill:url(#linear-gradient-65);}.cls-99{fill:url(#linear-gradient-98);}.cls-100{fill:url(#linear-gradient-91);}.cls-101{fill:url(#linear-gradient-95);}.cls-102{fill:url(#linear-gradient-99);}.cls-103{fill:url(#linear-gradient-96);}.cls-104{fill:url(#linear-gradient-94);}.cls-105{fill:url(#linear-gradient-93);}.cls-106{fill:url(#linear-gradient-90);}.cls-107{fill:url(#linear-gradient-80);}.cls-108{fill:url(#linear-gradient-88);}.cls-109{fill:url(#linear-gradient-89);}.cls-110{fill:url(#linear-gradient-85);}.cls-111{fill:url(#linear-gradient-84);}.cls-112{fill:url(#linear-gradient-42);}.cls-113{fill:url(#linear-gradient-45);}.cls-114{fill:url(#linear-gradient-44);}.cls-115{fill:url(#linear-gradient-49);}.cls-116{fill:url(#linear-gradient-47);}.cls-117{fill:url(#linear-gradient-14);}.cls-118{fill:url(#linear-gradient-18);}.cls-119{fill:url(#linear-gradient-22);}.cls-120{fill:url(#linear-gradient-20);}.cls-121{fill:url(#linear-gradient-21);}.cls-122{fill:url(#linear-gradient-23);}.cls-123{fill:url(#linear-gradient-15);}.cls-124{fill:url(#linear-gradient-19);}.cls-125{fill:url(#linear-gradient-16);}.cls-126{fill:url(#linear-gradient-17);}.cls-127{fill:url(#linear-gradient-13);}.cls-128{fill:url(#linear-gradient-12);}.cls-129{fill:url(#linear-gradient-10);}.cls-130{fill:url(#linear-gradient-11);}.cls-131{fill:url(#linear-gradient-27);}.cls-132{fill:url(#linear-gradient-24);}.cls-133{fill:url(#linear-gradient-38);}.cls-134{fill:url(#linear-gradient-35);}.cls-135{fill:url(#linear-gradient-37);}.cls-136{fill:url(#linear-gradient-39);}.cls-137{fill:url(#linear-gradient-36);}.cls-138{fill:url(#linear-gradient-28);}.cls-139{fill:url(#linear-gradient-29);}.cls-140{fill:url(#linear-gradient-33);}.cls-141{fill:url(#linear-gradient-30);}.cls-142{fill:url(#linear-gradient-32);}.cls-143{fill:url(#linear-gradient-31);}.cls-144{isolation:isolate;}.cls-65{fill:url(#linear-gradient-108);}.cls-66{fill:url(#linear-gradient-106);}.cls-67{fill:url(#linear-gradient-107);}.cls-68{fill:url(#linear-gradient-104);}.cls-69{fill:url(#linear-gradient-105);}.cls-70{fill:url(#linear-gradient-138);}.cls-71{fill:url(#linear-gradient-100);}</style><linearGradient id="linear-gradient" x1="343.53" y1="-84.08" x2="351.57" y2="611.28" gradientTransform="matrix(1, 0, 0, 1, 0, 0)" gradientUnits="userSpaceOnUse"><stop offset="0" stop-color="#8e3bcb"/><stop offset=".9" stop-color="#0f1536"/></linearGradient><linearGradient id="linear-gradient-2" x1="345.21" y1="-90.7" x2="347.51" y2="149.48" xlink:href="#linear-gradient"/><linearGradient id="linear-gradient-3" x1="325.15" y1="-40.68" x2="163.19" y2="391.24" gradientTransform="matrix(1, 0, 0, 1, 0, 0)" gradientUnits="userSpaceOnUse"><stop offset=".46" stop-color="#ffd33d"/><stop offset="1" stop-color="#f1535b"/></linearGradient><linearGradient id="linear-gradient-4" x1="284.38" y1="145.82" x2="1217.99" y2="320.38" gradientTransform="matrix(1, 0, 0, 1, 0, 0)" gradientUnits="userSpaceOnUse"><stop offset=".06" stop-color="#fff"/><stop offset=".34" stop-color="#ccdfff"/><stop offset=".6" stop-color="#a5c6ff"/><stop offset=".73" stop-color="#96bdff"/></linearGradient><linearGradient id="linear-gradient-5" x1="248.35" y1="4.86" x2="234.93" y2="354.8" gradientTransform="matrix(1, 0, 0, 1, 0, 0)" gradientUnits="userSpaceOnUse"><stop offset=".14" stop-color="#ffd33d"/><stop offset="1" stop-color="#f1535b"/></linearGradient><linearGradient id="linear-gradient-6" x1="290.46" y1="132.03" x2="184.65" y2="218.01" xlink:href="#linear-gradient-5"/><linearGradient id="linear-gradient-7" x1="238.62" y1="148.84" x2="327.79" y2="234.99" gradientTransform="matrix(1, 0, 0, 1, 0, 0)" gradientUnits="userSpaceOnUse"><stop offset="0" stop-color="#8e3bcb"/><stop offset=".44" stop-color="#d767b1"/><stop offset="1" stop-color="#f2535b"/></linearGradient><linearGradient id="linear-gradient-8" x1="293.34" y1="161.26" x2="217.88" y2="268.48" xlink:href="#linear-gradient-7"/><linearGradient id="linear-gradient-9" x1="238.66" y1="162.04" x2="155.55" y2="219.47" gradientTransform="matrix(1, 0, 0, 1, 0, 0)" gradientUnits="userSpaceOnUse"><stop offset="0" stop-color="#8e3bcb"/><stop offset=".5" stop-color="#d767b1"/><stop offset="1" stop-color="#f2535b"/></linearGradient><linearGradient id="linear-gradient-10" x1="193.61" y1="159.7" x2="258.77" y2="279.28" xlink:href="#linear-gradient-7"/><linearGradient id="linear-gradient-11" x1="258.15" y1="116.77" x2="215.9" y2="198.71" gradientTransform="matrix(1, 0, 0, 1, 0, 0)" gradientUnits="userSpaceOnUse"><stop offset=".13" stop-color="#381a46"/><stop offset=".49" stop-color="#1b0c22"/><stop offset=".81" stop-color="#070309"/><stop offset="1" stop-color="#000"/></linearGradient><linearGradient id="linear-gradient-12" x1="255.34" y1="130.27" x2="202.23" y2="200.84" gradientTransform="matrix(1, 0, 0, 1, 0, 0)" gradientUnits="userSpaceOnUse"><stop offset=".06" stop-color="#fff"/><stop offset=".25" stop-color="#f8fafe"/><stop offset=".53" stop-color="#e3ecfb"/><stop offset=".87" stop-color="#c2d6f6"/><stop offset="1" stop-color="#b3ccf4"/></linearGradient><linearGradient id="linear-gradient-13" x1="250.3" y1="131.79" x2="213.39" y2="214.82" xlink:href="#linear-gradient-4"/><linearGradient id="linear-gradient-14" x1="249.43" y1="170.34" x2="112.93" y2="300.02" xlink:href="#linear-gradient-4"/><linearGradient id="linear-gradient-15" x1="179.67" y1="59.67" x2="187.56" y2="59.67" xlink:href="#linear-gradient-11"/><linearGradient id="linear-gradient-16" x1="326.4" y1="59.67" x2="334.29" y2="59.67" xlink:href="#linear-gradient-11"/><linearGradient id="linear-gradient-17" x1="326.4" y1="235.98" x2="334.29" y2="235.98" xlink:href="#linear-gradient-11"/><linearGradient id="linear-gradient-18" x1="540.15" y1="296.89" x2="326.81" y2="-52.07" gradientTransform="matrix(1, 0, 0, 1, 0, 0)" gradientUnits="userSpaceOnUse"><stop offset=".59" stop-color="#fff"/><stop offset=".73" stop-color="#ccdfff"/><stop offset=".89" stop-color="#a5c6ff"/></linearGradient><linearGradient id="linear-gradient-19" x1="427.89" y1="122.56" x2="348.51" y2="21.68" xlink:href="#linear-gradient-4"/><linearGradient id="linear-gradient-20" x1="409.35" y1="24.53" x2="417.11" y2="104.9" xlink:href="#linear-gradient-5"/><linearGradient id="linear-gradient-21" x1="554.16" y1="18.11" x2="504.1" y2="92.49" xlink:href="#linear-gradient-5"/><linearGradient id="linear-gradient-22" x1="429.39" y1="213.55" x2="346.19" y2="261.49" xlink:href="#linear-gradient-5"/><linearGradient id="linear-gradient-23" x1="115.14" y1="232.95" x2="6.34" y2="437.07" gradientTransform="matrix(1, 0, 0, 1, 0, 0)" gradientUnits="userSpaceOnUse"><stop offset=".06" stop-color="#f4cc98"/><stop offset=".1" stop-color="#aa6834"/><stop offset=".22" stop-color="#a56034"/><stop offset=".49" stop-color="#9f5634"/><stop offset=".82" stop-color="#9d5334"/></linearGradient><linearGradient id="linear-gradient-24" x1="-2278.25" y1="212.53" x2="-2375.13" y2="532.95" gradientTransform="translate(-2278.04) rotate(-180) scale(1 -1)" gradientUnits="userSpaceOnUse"><stop offset=".15" stop-color="#f5cc8f"/><stop offset=".16" stop-color="#f4cc98"/><stop offset=".39" stop-color="#aa6834"/><stop offset=".43" stop-color="#a36031"/><stop offset=".63" stop-color="#854127"/><stop offset=".74" stop-color="#7a3524"/></linearGradient><linearGradient id="linear-gradient-25" x1="-2224.84" y1="227.96" x2="-2349.23" y2="388.46" xlink:href="#linear-gradient-24"/><linearGradient id="linear-gradient-26" x1="-2359.77" y1="281.83" x2="-2346.12" y2="438.37" xlink:href="#linear-gradient-24"/><linearGradient id="linear-gradient-27" x1="-2305.08" y1="275.86" x2="-2216.81" y2="553.37" gradientTransform="translate(-2278.04) rotate(-180) scale(1 -1)" gradientUnits="userSpaceOnUse"><stop offset=".14" stop-color="#f5cd8f"/><stop offset=".37" stop-color="#f4cc98"/><stop offset=".55" stop-color="#aa6834"/><stop offset=".75" stop-color="#9d5334"/></linearGradient><linearGradient id="linear-gradient-28" x1="-2343.94" y1="288.32" x2="-2255.78" y2="565.46" xlink:href="#linear-gradient-27"/><linearGradient id="linear-gradient-29" x1="-2362.71" y1="294.34" x2="-2274.55" y2="571.51" xlink:href="#linear-gradient-27"/><linearGradient id="linear-gradient-30" x1="2342.42" y1="156.21" x2="2324.43" y2="321.29" gradientTransform="translate(-2307.95 -34.47) rotate(1.81)" xlink:href="#linear-gradient-3"/><linearGradient id="linear-gradient-31" x1="1944.34" y1="626.43" x2="1952.54" y2="698.06" gradientTransform="translate(-2002.37 28.96) rotate(-12.37)" xlink:href="#linear-gradient-3"/><linearGradient id="linear-gradient-32" x1="-675.27" y1="1182.28" x2="-791.18" y2="1222.31" gradientTransform="translate(-1308.11 -126.97) rotate(136.13) scale(1 -1)" gradientUnits="userSpaceOnUse"><stop offset="0" stop-color="#ffd33d"/><stop offset="1" stop-color="#f1535b"/></linearGradient><linearGradient id="linear-gradient-33" x1="357.58" y1="540.9" x2="357.58" y2="242.81" gradientTransform="matrix(1, 0, 0, 1, 0, 0)" gradientUnits="userSpaceOnUse"><stop offset="0" stop-color="#8e3bcb"/><stop offset=".16" stop-color="#8a39c6"/><stop offset=".33" stop-color="#8036ba"/><stop offset=".49" stop-color="#6f31a6"/><stop offset=".66" stop-color="#572a8a"/><stop offset=".82" stop-color="#382166"/><stop offset=".98" stop-color="#12163a"/><stop offset="1" stop-color="#0f1536"/></linearGradient><linearGradient id="linear-gradient-34" x1="371.87" y1="-34.19" x2="383.5" y2="-34.19" gradientTransform="translate(-294.34 180.51) rotate(12.71)" gradientUnits="userSpaceOnUse"><stop offset="0" stop-color="#a36031"/><stop offset=".6" stop-color="#854127"/><stop offset=".74" stop-color="#7a3524"/></linearGradient><linearGradient id="linear-gradient-35" x1="526.03" y1="-109.35" x2="501.8" y2="55.12" gradientTransform="translate(-320.17 178.35) rotate(14.2)" gradientUnits="userSpaceOnUse"><stop offset=".28" stop-color="#aa6834"/><stop offset=".7" stop-color="#9d5334"/></linearGradient><linearGradient id="linear-gradient-36" x1="510.07" y1="-43.3" x2="507.37" y2="99.49" gradientTransform="translate(-320.17 178.35) rotate(14.2)" xlink:href="#linear-gradient-34"/><linearGradient id="linear-gradient-37" x1="526.17" y1="10.78" x2="546.98" y2="-92.52" gradientTransform="translate(-320.17 178.35) rotate(14.2)" gradientUnits="userSpaceOnUse"><stop offset=".18" stop-color="#f2ce96"/><stop offset=".22" stop-color="#f2cd97"/><stop offset=".74" stop-color="#ffc4a6"/></linearGradient><linearGradient id="linear-gradient-38" x1="144.79" y1="528.69" x2="165.41" y2="489.06" gradientTransform="matrix(1, 0, 0, 1, 0, 0)" gradientUnits="userSpaceOnUse"><stop offset=".02" stop-color="#f2ce96"/><stop offset=".07" stop-color="#f2cd97"/><stop offset=".59" stop-color="#ffc4a6"/></linearGradient><linearGradient id="linear-gradient-39" x1="91.86" y1="411.5" x2="77.87" y2="537.76" gradientTransform="matrix(1, 0, 0, 1, 0, 0)" xlink:href="#linear-gradient-37"/><linearGradient id="linear-gradient-40" x1="122.71" y1="381.93" x2="114.08" y2="461.15" gradientTransform="matrix(1, 0, 0, 1, 0, 0)" xlink:href="#linear-gradient-37"/><linearGradient id="linear-gradient-41" x1="125.76" y1="506.05" x2="135.69" y2="486.97" gradientTransform="matrix(1, 0, 0, 1, 0, 0)" xlink:href="#linear-gradient-37"/><linearGradient id="linear-gradient-42" x1="256.56" y1="55.93" x2="116.81" y2="362.11" gradientTransform="matrix(1, 0, 0, 1, 0, 0)" xlink:href="#linear-gradient-35"/><linearGradient id="linear-gradient-43" x1="273.59" y1="348.96" x2="-38.34" y2="447.94" gradientTransform="matrix(1, 0, 0, 1, 0, 0)" xlink:href="#linear-gradient-24"/><linearGradient id="linear-gradient-44" x1="184.47" y1="280.12" x2="-67.12" y2="500.66" gradientTransform="matrix(1, 0, 0, 1, 0, 0)" gradientUnits="userSpaceOnUse"><stop offset=".14" stop-color="#f5cd8f"/><stop offset=".31" stop-color="#f4cc98"/><stop offset=".51" stop-color="#aa6834"/><stop offset=".75" stop-color="#9d5334"/></linearGradient><linearGradient id="linear-gradient-45" x1="170.91" y1="274.2" x2="54.37" y2="560.27" gradientTransform="matrix(1, 0, 0, 1, 0, 0)" gradientUnits="userSpaceOnUse"><stop offset=".14" stop-color="#f5cd8f"/><stop offset=".25" stop-color="#f4cc98"/><stop offset=".66" stop-color="#aa6834"/><stop offset=".75" stop-color="#9d5334"/></linearGradient><linearGradient id="linear-gradient-46" x1="442.48" y1="-61.95" x2="403.98" y2="48.08" xlink:href="#linear-gradient-34"/><linearGradient id="linear-gradient-47" x1="450.73" y1="-84.16" x2="433.11" y2="-49.08" gradientTransform="translate(-294.34 180.51) rotate(12.71)" gradientUnits="userSpaceOnUse"><stop offset=".15" stop-color="#ffd33d"/><stop offset=".16" stop-color="#fdd250"/><stop offset=".2" stop-color="#f8cf77"/><stop offset=".24" stop-color="#f5cd8f"/><stop offset=".26" stop-color="#f4cc98"/><stop offset=".48" stop-color="#aa6834"/><stop offset=".7" stop-color="#9d5334"/></linearGradient><linearGradient id="linear-gradient-48" x1="463.16" y1="-73.57" x2="399.3" y2="-28.98" xlink:href="#linear-gradient-34"/><linearGradient id="linear-gradient-49" x1="214.72" y1="36.84" x2="74.97" y2="343.02" gradientTransform="matrix(1, 0, 0, 1, 0, 0)" xlink:href="#linear-gradient-35"/><linearGradient id="linear-gradient-50" x1="412.9" y1="-109.67" x2="404.9" y2="-260.97" gradientTransform="translate(-294.34 180.51) rotate(12.71)" xlink:href="#linear-gradient-44"/><linearGradient id="linear-gradient-51" x1="408.94" y1="-35.59" x2="372.68" y2="31.23" gradientTransform="translate(-294.34 180.51) rotate(12.71)" gradientUnits="userSpaceOnUse"><stop offset="0" stop-color="#fff"/><stop offset="1" stop-color="#000"/></linearGradient><linearGradient id="linear-gradient-52" x1="399.54" y1="-33.24" x2="390.97" y2="-29.89" xlink:href="#linear-gradient-51"/><linearGradient id="linear-gradient-53" x1="85.98" y1="468.24" x2="84.6" y2="480.87" gradientTransform="matrix(1, 0, 0, 1, 0, 0)" xlink:href="#linear-gradient-37"/><linearGradient id="linear-gradient-54" x1="-44.21" y1="268.67" x2="352.25" y2="546.95" gradientTransform="matrix(1, 0, 0, 1, 0, 0)" gradientUnits="userSpaceOnUse"><stop offset=".15" stop-color="#f5cc8f"/><stop offset=".16" stop-color="#f4cc98"/><stop offset=".39" stop-color="#aa6834"/><stop offset=".43" stop-color="#a36031"/><stop offset=".6" stop-color="#854127"/><stop offset=".74" stop-color="#7a3524"/></linearGradient><linearGradient id="linear-gradient-55" x1="59.83" y1="477.98" x2="57.92" y2="495.54" gradientTransform="matrix(1, 0, 0, 1, 0, 0)" xlink:href="#linear-gradient-37"/><linearGradient id="linear-gradient-56" x1="64.46" y1="483.1" x2="62.93" y2="497.18" gradientTransform="matrix(1, 0, 0, 1, 0, 0)" xlink:href="#linear-gradient-37"/><linearGradient id="linear-gradient-57" x1="199.83" y1="365.49" x2="137.38" y2="431.96" gradientTransform="matrix(1, 0, 0, 1, 0, 0)" xlink:href="#linear-gradient-24"/><linearGradient id="linear-gradient-58" x1="55.02" y1="477.55" x2="53.08" y2="495.35" gradientTransform="matrix(1, 0, 0, 1, 0, 0)" xlink:href="#linear-gradient-37"/><linearGradient id="linear-gradient-59" x1="176.36" y1="358.88" x2="175.87" y2="384.76" gradientTransform="matrix(1, 0, 0, 1, 0, 0)" xlink:href="#linear-gradient-34"/><linearGradient id="linear-gradient-60" x1="160.67" y1="488.34" x2="166.07" y2="477.97" gradientTransform="matrix(1, 0, 0, 1, 0, 0)" xlink:href="#linear-gradient-37"/><linearGradient id="linear-gradient-61" x1="198.42" y1="496.82" x2="200.2" y2="493.41" gradientTransform="matrix(1, 0, 0, 1, 0, 0)" xlink:href="#linear-gradient-37"/><linearGradient id="linear-gradient-62" x1="192.92" y1="497.07" x2="194.42" y2="494.2" gradientTransform="matrix(1, 0, 0, 1, 0, 0)" xlink:href="#linear-gradient-37"/><linearGradient id="linear-gradient-63" x1="305.82" y1="-25.36" x2="394.26" y2="-44.27" gradientTransform="translate(-294.34 180.51) rotate(12.71)" gradientUnits="userSpaceOnUse"><stop offset=".15" stop-color="#ffd33d"/><stop offset=".16" stop-color="#fdd250"/><stop offset=".2" stop-color="#f8cf77"/><stop offset=".24" stop-color="#f5cd8f"/><stop offset=".26" stop-color="#f4cc98"/><stop offset=".48" stop-color="#aa6834"/><stop offset=".93" stop-color="#9d5334"/></linearGradient><linearGradient id="linear-gradient-64" x1="188.19" y1="497.22" x2="189.1" y2="495.46" gradientTransform="matrix(1, 0, 0, 1, 0, 0)" xlink:href="#linear-gradient-37"/><linearGradient id="linear-gradient-65" x1="558.63" y1="-173.47" x2="576.04" y2="-176.58" gradientTransform="translate(-422.03 230.34) rotate(17.75)" xlink:href="#linear-gradient-51"/><linearGradient id="linear-gradient-66" x1="529.76" y1="-167.94" x2="521.05" y2="-164.54" gradientTransform="translate(-422.03 230.34) rotate(17.75)" xlink:href="#linear-gradient-51"/><linearGradient id="linear-gradient-67" x1="480.82" y1="-48.12" x2="403.93" y2="21.58" gradientTransform="translate(-294.34 180.51) rotate(12.71)" gradientUnits="userSpaceOnUse"><stop offset=".23" stop-color="#a42c38"/><stop offset=".52" stop-color="#9d2e39"/><stop offset="1" stop-color="#99303a"/></linearGradient><linearGradient id="linear-gradient-68" x1="449.9" y1="-20.61" x2="448.39" y2="-19.23" xlink:href="#linear-gradient-67"/><linearGradient id="linear-gradient-69" x1="448.09" y1="-49.35" x2="423.13" y2="-17.41" gradientTransform="translate(-294.34 180.51) rotate(12.71)" gradientUnits="userSpaceOnUse"><stop offset=".09" stop-color="#854a2b"/><stop offset=".19" stop-color="#663821"/><stop offset=".37" stop-color="#2f1a0f"/><stop offset=".51" stop-color="#0c0704"/><stop offset=".59" stop-color="#000"/></linearGradient><linearGradient id="linear-gradient-70" x1="441.92" y1="-15.16" x2="426.47" y2="13.43" gradientTransform="translate(-294.34 180.51) rotate(12.71)" gradientUnits="userSpaceOnUse"><stop offset=".31" stop-color="#ff5e7b"/><stop offset=".4" stop-color="#f45974"/><stop offset=".58" stop-color="#d74c64"/><stop offset=".81" stop-color="#a8374a"/><stop offset="1" stop-color="#7b2331"/></linearGradient><linearGradient id="linear-gradient-71" x1="444.92" y1="-51.78" x2="431.55" y2="-27.3" gradientTransform="translate(-294.34 180.51) rotate(12.71)" gradientUnits="userSpaceOnUse"><stop offset=".09" stop-color="#854a2b"/><stop offset=".2" stop-color="#663821"/><stop offset=".4" stop-color="#2f1a0f"/><stop offset=".56" stop-color="#0c0704"/><stop offset=".64" stop-color="#000"/></linearGradient><linearGradient id="linear-gradient-72" x1="251.61" y1="331.58" x2="-12.62" y2="415.41" gradientTransform="matrix(1, 0, 0, 1, 0, 0)" xlink:href="#linear-gradient-24"/><linearGradient id="linear-gradient-73" x1="142.41" y1="309.72" x2="-22.08" y2="395.13" gradientTransform="matrix(1, 0, 0, 1, 0, 0)" xlink:href="#linear-gradient-34"/><linearGradient id="linear-gradient-74" x1="77.44" y1="385.32" x2="116.84" y2="356.87" gradientTransform="matrix(1, 0, 0, 1, 0, 0)" gradientUnits="userSpaceOnUse"><stop offset=".18" stop-color="#f2ce96"/><stop offset=".22" stop-color="#f2cd97"/><stop offset=".91" stop-color="#ffc4a6"/></linearGradient><linearGradient id="linear-gradient-75" x1="142.85" y1="300.27" x2="85.56" y2="346.82" gradientTransform="matrix(1, 0, 0, 1, 0, 0)" xlink:href="#linear-gradient-34"/><linearGradient id="linear-gradient-76" x1="490.03" y1="396.68" x2="493.71" y2="516.2" gradientTransform="matrix(1, 0, 0, 1, 0, 0)" xlink:href="#linear-gradient-37"/><linearGradient id="linear-gradient-77" x1="499.15" y1="447.07" x2="513.81" y2="494.23" gradientTransform="matrix(1, 0, 0, 1, 0, 0)" xlink:href="#linear-gradient-37"/><linearGradient id="linear-gradient-78" x1="537.36" y1="395.23" x2="541.04" y2="514.74" gradientTransform="matrix(1, 0, 0, 1, 0, 0)" xlink:href="#linear-gradient-37"/><linearGradient id="linear-gradient-79" x1="549.22" y1="428.98" x2="568.37" y2="490.58" gradientTransform="matrix(1, 0, 0, 1, 0, 0)" xlink:href="#linear-gradient-37"/><linearGradient id="linear-gradient-80" x1="650.99" y1="238.36" x2="582.34" y2="441.96" gradientTransform="matrix(1, 0, 0, 1, 0, 0)" xlink:href="#linear-gradient-35"/><linearGradient id="linear-gradient-81" x1="667.72" y1="328.21" x2="535.62" y2="461.2" gradientTransform="matrix(1, 0, 0, 1, 0, 0)" gradientUnits="userSpaceOnUse"><stop offset=".26" stop-color="#a36031"/><stop offset=".5" stop-color="#854127"/><stop offset=".65" stop-color="#7a3524"/></linearGradient><linearGradient id="linear-gradient-82" x1="637.7" y1="220.7" x2="585.24" y2="437.57" gradientTransform="matrix(1, 0, 0, 1, 0, 0)" gradientUnits="userSpaceOnUse"><stop offset=".26" stop-color="#a36031"/><stop offset=".43" stop-color="#854127"/><stop offset=".63" stop-color="#7a3524" stop-opacity=".4"/></linearGradient><linearGradient id="linear-gradient-83" x1="526.18" y1="297.95" x2="597.85" y2="425.88" gradientTransform="matrix(1, 0, 0, 1, 0, 0)" xlink:href="#linear-gradient-24"/><linearGradient id="linear-gradient-84" x1="524.16" y1="59.52" x2="525.97" y2="430.21" gradientTransform="matrix(1, 0, 0, 1, 0, 0)" xlink:href="#linear-gradient-35"/><linearGradient id="linear-gradient-85" x1="479.68" y1="496.44" x2="567.75" y2="32.33" gradientTransform="matrix(1, 0, 0, 1, 0, 0)" gradientUnits="userSpaceOnUse"><stop offset=".14" stop-color="#f5cd8f"/><stop offset=".37" stop-color="#f4cc98"/><stop offset=".56" stop-color="#aa6834"/><stop offset=".75" stop-color="#9d5334"/></linearGradient><linearGradient id="linear-gradient-86" x1="481.88" y1="275.51" x2="482.43" y2="386.99" gradientTransform="matrix(1, 0, 0, 1, 0, 0)" xlink:href="#linear-gradient-34"/><linearGradient id="linear-gradient-87" x1="517.58" y1="213.91" x2="549.14" y2="388.18" gradientTransform="matrix(1, 0, 0, 1, 0, 0)" xlink:href="#linear-gradient-34"/><linearGradient id="linear-gradient-88" x1="497.48" y1="186.55" x2="505.06" y2="407.53" gradientTransform="matrix(1, 0, 0, 1, 0, 0)" gradientUnits="userSpaceOnUse"><stop offset="0" stop-color="#cc61b9"/><stop offset=".3" stop-color="#f2535b"/><stop offset=".46" stop-color="#f35f58"/><stop offset=".61" stop-color="#f57553"/><stop offset="1" stop-color="#ffd33e"/></linearGradient><linearGradient id="linear-gradient-89" x1="515" y1="59.56" x2="516.81" y2="430.24" gradientTransform="matrix(1, 0, 0, 1, 0, 0)" xlink:href="#linear-gradient-35"/><linearGradient id="linear-gradient-90" x1="492.36" y1="311.6" x2="581.87" y2="23.56" xlink:href="#linear-gradient-44"/><linearGradient id="linear-gradient-91" x1="476.51" y1="59.75" x2="478.32" y2="430.44" gradientTransform="matrix(1, 0, 0, 1, 0, 0)" xlink:href="#linear-gradient-35"/><linearGradient id="linear-gradient-92" x1="503.38" y1="281.45" x2="472.25" y2="325.86" gradientTransform="matrix(1, 0, 0, 1, 0, 0)" xlink:href="#linear-gradient-34"/><linearGradient id="linear-gradient-93" x1="471.01" y1="183.39" x2="503.74" y2="243.96" gradientTransform="matrix(1, 0, 0, 1, 0, 0)" xlink:href="#linear-gradient-69"/><linearGradient id="linear-gradient-94" x1="477.88" y1="235.83" x2="494.77" y2="235.83" gradientTransform="matrix(1, 0, 0, 1, 0, 0)" xlink:href="#linear-gradient-67"/><linearGradient id="linear-gradient-95" x1="483.72" y1="224.12" x2="492.68" y2="278.95" gradientTransform="matrix(1, 0, 0, 1, 0, 0)" xlink:href="#linear-gradient-70"/><linearGradient id="linear-gradient-96" x1="510.26" y1="219.91" x2="520.51" y2="240.19" gradientTransform="translate(196.83 -239.55) rotate(32.51)" xlink:href="#linear-gradient-51"/><linearGradient id="linear-gradient-97" x1="542.2" y1="257.14" x2="559.96" y2="217.27" gradientTransform="matrix(1, 0, 0, 1, 0, 0)" xlink:href="#linear-gradient-34"/><linearGradient id="linear-gradient-98" x1="562.5" y1="196.05" x2="546.55" y2="251.52" gradientTransform="matrix(1, 0, 0, 1, 0, 0)" xlink:href="#linear-gradient-35"/><linearGradient id="linear-gradient-99" x1="445.76" y1="205.86" x2="461.21" y2="279.54" gradientTransform="matrix(1, 0, 0, 1, 0, 0)" xlink:href="#linear-gradient-37"/><linearGradient id="linear-gradient-100" x1="526.67" y1="275.79" x2="495.05" y2="351.01" gradientTransform="matrix(1, 0, 0, 1, 0, 0)" xlink:href="#linear-gradient-34"/><linearGradient id="linear-gradient-101" x1="506.69" y1="59.61" x2="508.5" y2="430.29" gradientTransform="matrix(1, 0, 0, 1, 0, 0)" xlink:href="#linear-gradient-35"/><linearGradient id="linear-gradient-102" x1="368.67" y1="357.53" x2="669.04" y2="433.5" gradientTransform="matrix(1, 0, 0, 1, 0, 0)" xlink:href="#linear-gradient-24"/><linearGradient id="linear-gradient-103" x1="480.69" y1="284.5" x2="530.95" y2="446.19" gradientTransform="matrix(1, 0, 0, 1, 0, 0)" xlink:href="#linear-gradient-24"/><linearGradient id="linear-gradient-104" x1="466.45" y1="493.2" x2="474.12" y2="493.2" gradientTransform="matrix(1, 0, 0, 1, 0, 0)" xlink:href="#linear-gradient-37"/><linearGradient id="linear-gradient-105" x1="474.45" y1="493.2" x2="480.64" y2="493.2" gradientTransform="matrix(1, 0, 0, 1, 0, 0)" xlink:href="#linear-gradient-37"/><linearGradient id="linear-gradient-106" x1="512.16" y1="493.38" x2="519.16" y2="493.38" gradientTransform="matrix(1, 0, 0, 1, 0, 0)" xlink:href="#linear-gradient-37"/><linearGradient id="linear-gradient-107" x1="520.23" y1="494" x2="526.46" y2="494" gradientTransform="matrix(1, 0, 0, 1, 0, 0)" xlink:href="#linear-gradient-37"/><linearGradient id="linear-gradient-108" x1="480.64" y1="493.68" x2="486.9" y2="493.68" gradientTransform="matrix(1, 0, 0, 1, 0, 0)" xlink:href="#linear-gradient-37"/><linearGradient id="linear-gradient-109" x1="958.86" y1="567.66" x2="967.07" y2="639.29" gradientTransform="translate(1623.14 -242.13) rotate(-176.18) scale(1 -1)" xlink:href="#linear-gradient-3"/><linearGradient id="linear-gradient-110" x1="991.97" y1="558.39" x2="998.34" y2="614.01" gradientTransform="translate(1623.14 -242.13) rotate(-176.18) scale(1 -1)" xlink:href="#linear-gradient-3"/><linearGradient id="linear-gradient-111" x1="-1243.76" y1="1636.7" x2="-1359.67" y2="1676.73" gradientTransform="translate(-1390.12 -212.49) rotate(140.67) scale(1 -1)" xlink:href="#linear-gradient-32"/><linearGradient id="linear-gradient-112" x1="287.72" y1="120.15" x2="318.5" y2="90.5" gradientTransform="matrix(1, 0, 0, 1, 0, 0)" gradientUnits="userSpaceOnUse"><stop offset="0" stop-color="#8e3bcb"/><stop offset=".33" stop-color="#d767b1"/><stop offset="1" stop-color="#f2535b"/></linearGradient><linearGradient id="linear-gradient-113" x1="322.64" y1="228.47" x2="289.71" y2="165.69" gradientTransform="matrix(1, 0, 0, 1, 0, 0)" gradientUnits="userSpaceOnUse"><stop offset="0" stop-color="#cc61b9"/><stop offset=".18" stop-color="#f2535b"/><stop offset=".42" stop-color="#f35f58"/><stop offset=".58" stop-color="#f57553"/><stop offset="1" stop-color="#ffd33e"/></linearGradient><linearGradient id="linear-gradient-114" x1="334.48" y1="232.3" x2="285.57" y2="174.15" xlink:href="#linear-gradient-113"/><linearGradient id="linear-gradient-115" x1="905.43" y1="-378.44" x2="916.17" y2="-496.57" gradientTransform="translate(-703.19 115.53) rotate(28.81)" xlink:href="#linear-gradient-88"/><linearGradient id="linear-gradient-116" x1="907.1" y1="-419.4" x2="916.72" y2="-486.97" gradientTransform="translate(-703.19 115.53) rotate(28.81)" xlink:href="#linear-gradient-88"/><linearGradient id="linear-gradient-117" x1="909.87" y1="-490.2" x2="909.17" y2="-451.03" gradientTransform="translate(-703.19 115.53) rotate(28.81)" gradientUnits="userSpaceOnUse"><stop offset="0" stop-color="#ffd33d"/><stop offset="0" stop-color="#fed13d"/><stop offset=".2" stop-color="#f89b4a"/><stop offset=".37" stop-color="#f47453"/><stop offset=".5" stop-color="#f15b58"/><stop offset=".58" stop-color="#f1535b"/></linearGradient><linearGradient id="linear-gradient-118" x1="920.82" y1="-517.35" x2="883.89" y2="-415.44" xlink:href="#linear-gradient-117"/><linearGradient id="linear-gradient-119" x1="940.09" y1="-510.36" x2="903.16" y2="-408.46" xlink:href="#linear-gradient-117"/><linearGradient id="linear-gradient-120" x1="936.16" y1="-511.79" x2="899.23" y2="-409.88" xlink:href="#linear-gradient-117"/><linearGradient id="linear-gradient-121" x1="450.49" y1="74.58" x2="446.73" y2="161.98" xlink:href="#linear-gradient-5"/><linearGradient id="linear-gradient-122" x1="456.53" y1="133.77" x2="382" y2="173.18" xlink:href="#linear-gradient-7"/><linearGradient id="linear-gradient-123" x1="421.86" y1="168.11" x2="457.79" y2="102.43" xlink:href="#linear-gradient-7"/><linearGradient id="linear-gradient-124" x1="435.02" y1="132.13" x2="508.75" y2="168.86" xlink:href="#linear-gradient-7"/><linearGradient id="linear-gradient-125" x1="471.34" y1="181.27" x2="461.15" y2="67.33" xlink:href="#linear-gradient-7"/><linearGradient id="linear-gradient-126" x1="437.3" y1="251.09" x2="442.66" y2="118.65" xlink:href="#linear-gradient-7"/><linearGradient id="linear-gradient-127" x1="439.03" y1="222.81" x2="439.28" y2="164.99" xlink:href="#linear-gradient-7"/><linearGradient id="linear-gradient-128" x1="456.07" y1="251.85" x2="461.43" y2="119.41" xlink:href="#linear-gradient-7"/><linearGradient id="linear-gradient-129" x1="457.83" y1="222.89" x2="458.08" y2="165.07" xlink:href="#linear-gradient-7"/><linearGradient id="linear-gradient-130" x1="446.56" y1="124.47" x2="449.24" y2="225" xlink:href="#linear-gradient-5"/><linearGradient id="linear-gradient-131" x1="447.66" y1="214.5" x2="449.38" y2="173.34" xlink:href="#linear-gradient-5"/><linearGradient id="linear-gradient-132" x1="418.42" y1="198.75" x2="497.46" y2="198.28" gradientTransform="matrix(1, 0, 0, 1, 0, 0)" gradientUnits="userSpaceOnUse"><stop offset="0" stop-color="#8e3bcb"/><stop offset=".19" stop-color="#8f3cca"/><stop offset=".27" stop-color="#9640c7"/><stop offset=".32" stop-color="#a247c3"/><stop offset=".36" stop-color="#b351bd"/><stop offset=".4" stop-color="#c95fb5"/><stop offset=".42" stop-color="#d767b1"/><stop offset="1" stop-color="#f2535b"/></linearGradient><linearGradient id="linear-gradient-133" x1="3463.16" y1="-187.66" x2="3491.47" y2="59.61" gradientTransform="translate(-2579.05 -1292.67) rotate(24.39)" xlink:href="#linear-gradient-3"/><linearGradient id="linear-gradient-134" x1="-1558.67" y1="1145.34" x2="-1719.94" y2="1201.04" gradientTransform="translate(-1772.88 -444.35) rotate(159.77) scale(1 -1)" xlink:href="#linear-gradient-32"/><linearGradient id="linear-gradient-135" x1="-2069.57" y1="981.4" x2="-2350.66" y2="1078.48" gradientTransform="translate(-2020.59 -834.75) rotate(-180) scale(1 -1)" xlink:href="#linear-gradient-32"/><linearGradient id="linear-gradient-136" x1="511.34" y1="218.43" x2="515.47" y2="227.17" gradientTransform="matrix(1, 0, 0, 1, 0, 0)" xlink:href="#linear-gradient-51"/><linearGradient id="linear-gradient-137" x1="488.49" y1="312.89" x2="541.32" y2="604.62" gradientTransform="matrix(1, 0, 0, 1, 0, 0)" gradientUnits="userSpaceOnUse"><stop offset=".14" stop-color="#f5cd8f"/><stop offset=".25" stop-color="#f4cc98"/><stop offset=".27" stop-color="#eec490"/><stop offset=".42" stop-color="#c9925e"/><stop offset=".52" stop-color="#b2733f"/><stop offset=".59" stop-color="#aa6834"/><stop offset=".75" stop-color="#9d5334"/></linearGradient><linearGradient id="linear-gradient-138" x1="505.71" y1="303.22" x2="711.45" y2="227.2" gradientTransform="matrix(1, 0, 0, 1, 0, 0)" xlink:href="#linear-gradient-34"/><linearGradient id="linear-gradient-139" x1="481.95" y1="160.38" x2="484.01" y2="583.1" gradientTransform="matrix(1, 0, 0, 1, 0, 0)" xlink:href="#linear-gradient-24"/><linearGradient id="linear-gradient-140" x1="269.43" y1="109.65" x2="396.81" y2="117.84" xlink:href="#linear-gradient-7"/><linearGradient id="linear-gradient-141" x1="469.49" y1="198.55" x2="413.75" y2="198.55" gradientTransform="matrix(1, 0, 0, 1, 0, 0)" gradientUnits="userSpaceOnUse"><stop offset="0" stop-color="#8e3bcb"/><stop offset=".18" stop-color="#8f3cca"/><stop offset=".25" stop-color="#9640c7"/><stop offset=".3" stop-color="#a247c3"/><stop offset=".34" stop-color="#b351bd"/><stop offset=".37" stop-color="#c95fb5"/><stop offset=".39" stop-color="#d767b1"/><stop offset="1" stop-color="#f2535b"/></linearGradient><linearGradient id="linear-gradient-142" x1="345.12" y1="-56.18" x2="346.51" y2="41.87" xlink:href="#linear-gradient-33"/></defs><g class="cls-144"><g id="Layer_2"><g id="Layer_1-2"><g><rect class="cls-11" x="141.48" y="27.55" width="409.46" height="240.46"/><rect class="cls-76" x="118.05" width="456.31" height="27.55"/><rect class="cls-74" x="160.73" y="41.16" width="187.5" height="213.23" rx="3.33" ry="3.33"/><path class="cls-75" d="M341.78,52.67V242.61c0,1.66-1.35,3.01-3.01,3.01h-89.24c-.19,0-.38-.02-.56-.05-4.46-.8-8.58-1.98-12.38-3.45-31.23-12.05-47.47-45.5-55.8-72.79-1.11-3.64-2.1-7.32-2.97-11.02l-.06-.24s-.01-.03-.01-.03c-3.33-14.14-4.94-28.65-4.94-43.21V52.67c0-1.66,1.35-3.01,3.01-3.01h162.95c1.66,0,3.01,1.35,3.01,3.01Z"/><g><path class="cls-79" d="M268,165.45c0,9.71-.87,18.67-2.05,26.38-1.67,10.83-3.97,19.2-5.38,23.74-.75,2.45-1.25,3.78-1.25,3.78h-34.31s-8.69-23.18-8.69-53.9c0-15.07,3.71-29.65,8.32-41.95,5.48-14.62,12.23-26.01,15.52-31.15,.93-1.46,3.06-1.46,3.99,0,5.84,9.12,22.54,37.84,23.78,69.42,.05,1.22,.07,2.45,.07,3.68Z"/><path class="cls-77" d="M260.57,215.57c-.75,2.45-1.25,3.78-1.25,3.78h-34.31s-8.69-23.18-8.69-53.9c0-15.07,3.71-29.65,8.32-41.95-1.47,18.13-1.62,46.45,8.63,65.15,8.46,15.44,19.1,23.11,27.3,26.92Z"/><path class="cls-78" d="M280.99,201.18c-.02,.18-.08,.34-.16,.48-.39,.7-1.43,.88-2.03,.21-2.37-2.65-6.94-7.15-12.85-10.04,.78-5.11,1.43-10.76,1.77-16.82,.18-3.09,.28-6.28,.28-9.56,0-1.23-.02-2.46-.07-3.68l.07-1.11s15.98,13.91,12.99,40.52Z"/><path class="cls-72" d="M280.83,201.66c-.39,.7-1.43,.88-2.03,.21-2.37-2.65-6.94-7.15-12.85-10.04,.78-5.11,1.43-10.76,1.77-16.82,3.46,4.96,11.02,16.61,13.11,26.65Z"/><path class="cls-73" d="M218.26,191.83c-5.91,2.89-10.48,7.39-12.85,10.04-.57,.64-1.53,.51-1.96-.11-.12-.16-.2-.36-.23-.58-2.98-26.61,12.99-40.52,12.99-40.52l.07,1.11c-.05,1.22-.07,2.45-.07,3.68,0,4.37,.18,8.58,.47,12.59,.37,4.92,.93,9.55,1.58,13.79Z"/><path class="cls-129" d="M218.26,191.83c-5.91,2.89-10.48,7.39-12.85,10.04-.57,.64-1.53,.51-1.96-.11,2.47-9.69,9.4-19.07,13.23-23.72,.37,4.92,.93,9.55,1.58,13.79Z"/><circle class="cls-130" cx="242.16" cy="147.78" r="12.42"/><path class="cls-128" d="M251.75,147.78c0,5.3-4.3,9.59-9.59,9.59-.52,0-1.03-.04-1.52-.12-2.41-.38-4.52-1.66-5.97-3.49-1.31-1.64-2.1-3.72-2.1-5.98,0-5.29,4.3-9.59,9.59-9.59,1.16,0,2.28,.21,3.31,.58,2.38,.88,4.32,2.68,5.38,4.96,.58,1.23,.9,2.6,.9,4.05Z"/><path d="M256.75,119.81h-2c-.28,0-.5-.22-.5-.5s.22-.5,.5-.5h2c.28,0,.5,.22,.5,.5s-.22,.5-.5,.5Zm-4,0h-2c-.28,0-.5-.22-.5-.5s.22-.5,.5-.5h2c.28,0,.5,.22,.5,.5s-.22,.5-.5,.5Zm-4,0h-2c-.28,0-.5-.22-.5-.5s.22-.5,.5-.5h2c.28,0,.5,.22,.5,.5s-.22,.5-.5,.5Zm-4,0h-2c-.28,0-.5-.22-.5-.5s.22-.5,.5-.5h2c.28,0,.5,.22,.5,.5s-.22,.5-.5,.5Zm-4,0h-2c-.28,0-.5-.22-.5-.5s.22-.5,.5-.5h2c.28,0,.5,.22,.5,.5s-.22,.5-.5,.5Zm-4,0h-2c-.28,0-.5-.22-.5-.5s.22-.5,.5-.5h2c.28,0,.5,.22,.5,.5s-.22,.5-.5,.5Zm-4,0h-2c-.28,0-.5-.22-.5-.5s.22-.5,.5-.5h2c.28,0,.5,.22,.5,.5s-.22,.5-.5,.5Zm-4,0h-2c-.28,0-.5-.22-.5-.5s.22-.5,.5-.5h2c.28,0,.5,.22,.5,.5s-.22,.5-.5,.5Z"/><path d="M242.16,135.86c-.28,0-.5-.22-.5-.5s.22-.55,.5-.55,.5,.18,.5,.45v.09c0,.28-.22,.5-.5,.5Zm.01-2.09h0c-.28,0-.5-.23-.5-.5v-2c.01-.28,.24-.5,.51-.5h0c.28,0,.5,.23,.5,.5v2c-.01,.28-.24,.5-.51,.5Zm.02-4h0c-.28,0-.5-.23-.5-.5v-2c.01-.28,.24-.5,.51-.5h0c.28,0,.5,.23,.5,.5v2c-.01,.28-.24,.5-.51,.5Zm.02-4h0c-.28,0-.5-.23-.5-.5v-2c.01-.28,.24-.5,.51-.5h0c.28,0,.5,.23,.5,.5v2c-.01,.28-.24,.5-.51,.5Zm.02-4h0c-.28,0-.5-.23-.5-.5v-2c.01-.28,.24-.5,.51-.5h0c.28,0,.5,.23,.5,.5v2c-.01,.28-.24,.5-.51,.5Zm.02-4h0c-.28,0-.5-.23-.5-.5v-2c.01-.28,.24-.5,.51-.5h0c.28,0,.5,.23,.5,.5v2c-.01,.28-.24,.5-.51,.5Zm.02-4h0c-.28,0-.5-.23-.5-.5v-2c.01-.28,.24-.5,.51-.5h0c.28,0,.5,.23,.5,.5v2c-.01,.28-.24,.5-.51,.5Zm.02-4h0c-.28,0-.5-.23-.5-.5v-2c.01-.28,.24-.5,.51-.5h0c.28,0,.5,.23,.5,.5v2c-.01,.28-.24,.5-.51,.5Zm.02-4h0c-.28,0-.5-.23-.5-.5v-2c.01-.28,.24-.5,.51-.5h0c.28,0,.5,.23,.5,.5v2c-.01,.28-.24,.5-.51,.5Zm.02-4h0c-.28,0-.5-.23-.5-.5v-2c.01-.28,.26-.52,.51-.5,.28,0,.5,.23,.5,.5v2c-.01,.28-.24,.5-.51,.5Zm.02-4h0c-.28,0-.5-.23-.5-.5v-2c.01-.28,.24-.5,.51-.5h0c.28,0,.5,.23,.5,.5v2c-.01,.28-.24,.5-.51,.5Zm.02-4h0c-.28,0-.5-.23-.5-.5v-2c.01-.28,.22-.54,.51-.5,.28,0,.5,.23,.5,.5v2c-.01,.28-.24,.5-.51,.5Z"/><path d="M242.16,205.18c-.28,0-.5-.22-.5-.5v-.48c0-.28,.22-.5,.5-.5s.5,.22,.5,.5v.48c0,.28-.22,.5-.5,.5Zm0-2.48c-.28,0-.5-.22-.5-.5v-2c0-.28,.22-.5,.5-.5s.5,.22,.5,.5v2c0,.28-.22,.5-.5,.5Zm0-4c-.28,0-.5-.22-.5-.5v-2c0-.28,.22-.5,.5-.5s.5,.22,.5,.5v2c0,.28-.22,.5-.5,.5Zm0-4c-.28,0-.5-.22-.5-.5v-2c0-.28,.22-.5,.5-.5s.5,.22,.5,.5v2c0,.28-.22,.5-.5,.5Zm0-4c-.28,0-.5-.22-.5-.5v-2c0-.28,.22-.5,.5-.5s.5,.22,.5,.5v2c0,.28-.22,.5-.5,.5Zm0-4c-.28,0-.5-.22-.5-.5v-2c0-.28,.22-.5,.5-.5s.5,.22,.5,.5v2c0,.28-.22,.5-.5,.5Zm0-4c-.28,0-.5-.22-.5-.5v-2c0-.28,.22-.5,.5-.5s.5,.22,.5,.5v2c0,.28-.22,.5-.5,.5Zm0-4c-.28,0-.5-.22-.5-.5v-2c0-.28,.22-.5,.5-.5s.5,.22,.5,.5v2c0,.28-.22,.5-.5,.5Zm0-4c-.28,0-.5-.22-.5-.5v-2c0-.28,.22-.5,.5-.5s.5,.22,.5,.5v2c0,.28-.22,.5-.5,.5Zm0-4c-.28,0-.5-.22-.5-.5v-2c0-.28,.22-.5,.5-.5s.5,.22,.5,.5v2c0,.28-.22,.5-.5,.5Zm0-4c-.28,0-.5-.22-.5-.5v-2c0-.28,.22-.5,.5-.5s.5,.22,.5,.5v2c0,.28-.22,.5-.5,.5Zm0-4c-.28,0-.5-.22-.5-.5v-2c0-.28,.22-.5,.5-.5s.5,.22,.5,.5v2c0,.28-.22,.5-.5,.5Z"/><path d="M229.74,150.82h-.24c-.28,0-.5-.22-.5-.5s.22-.5,.5-.5h.24c.28,0,.5,.22,.5,.5s-.22,.5-.5,.5Zm-2.24,0h-2c-.28,0-.5-.22-.5-.5s.22-.5,.5-.5h2c.28,0,.5,.22,.5,.5s-.22,.5-.5,.5Zm-4,0h-2c-.28,0-.5-.22-.5-.5s.22-.5,.5-.5h2c.28,0,.5,.22,.5,.5s-.22,.5-.5,.5Zm-4,0h-2c-.28,0-.5-.22-.5-.5s.22-.5,.5-.5h2c.28,0,.5,.22,.5,.5s-.22,.5-.5,.5Z"/><path d="M266.83,150.82h-.34c-.28,0-.5-.22-.5-.5s.22-.5,.5-.5h.34c.28,0,.5,.22,.5,.5s-.22,.5-.5,.5Zm-2.34,0h-2c-.28,0-.5-.22-.5-.5s.22-.5,.5-.5h2c.28,0,.5,.22,.5,.5s-.22,.5-.5,.5Zm-4,0h-2c-.28,0-.5-.22-.5-.5s.22-.5,.5-.5h2c.28,0,.5,.22,.5,.5s-.22,.5-.5,.5Zm-4,0h-2c-.28,0-.5-.22-.5-.5s.22-.5,.5-.5h2c.28,0,.5,.22,.5,.5s-.22,.5-.5,.5Z"/><path class="cls-127" d="M250.85,143.73l-10.21,13.52c-2.41-.38-4.52-1.66-5.97-3.49l10.8-14.99c2.38,.88,4.32,2.68,5.38,4.96Z"/></g><path class="cls-117" d="M254.48,245.62h-5.24c-4.57-.8-8.78-2-12.66-3.5-31.23-12.05-47.47-45.5-55.8-72.79-1.11-3.64-2.1-7.32-2.97-11.02,.97,3.53,12.48,40.72,68.13,47.95,1.52,.2,2.53,1.68,2.15,3.17-1.82,7.15-5.24,26.14,6.39,36.19Z"/><circle class="cls-123" cx="183.62" cy="59.67" r="3.95"/><circle class="cls-125" cx="330.35" cy="59.67" r="3.95"/><circle class="cls-126" cx="330.35" cy="235.98" r="3.95"/><path class="cls-118" d="M530.59,52.6V248.03h-160.1V85.06s2.55-24.19,30.24-32.46h129.86Z"/><path class="cls-124" d="M395.95,85.54s-16.07-5.25-25.46-.48c0,0,2.55-24.19,30.24-32.46,0,0-8.18,11.96-4.78,32.94Z"/><polygon class="cls-120" points="412.13 42.66 421.62 45.78 412.13 67.36 409.41 61.25 402.9 63.62 412.13 42.66"/><path class="cls-121" d="M517.19,47.68s11.67,15.33,21.17,19l-1.76-5.83s3.21-.2,6.2-.47c0,0-13.81-9.86-19.63-18.39l-5.97,5.7Z"/><polygon class="cls-119" points="385.5 253.98 364.54 232.97 364.54 239.06 358.17 239.61 378.53 260.81 385.5 253.98"/><g><path class="cls-122" d="M21.05,268.15c5.53,10.78,17.29,36.4,15.11,55.36-1.29,11.24-5.67,25.86-9.07,41.19-1.96,8.84-3.6,17.92-4.13,26.71-.58,9.35,.1,18.38,2.97,26.47,5.37,15.12,17.56,23.51,31.81,23.45,.81,0,1.63-.04,2.44-.09,8.34-.59,17.26-4,25.86-10.61l-2.85-10.73-7.6-28.64s-10.89,3.52-11.98-8.14c-.38-4.09,.02-7.94,.6-11.54,.9-5.52,2.27-10.48,1.98-14.86-.04-.61-.72-.64-1.07-.13-2.03,2.93-4.67,6.85-6.3,9.13,.13-.74,3.03-17.51,.71-35.98h0c-.92-7.34-2.67-14.95-5.74-21.93-.2-.47-.91-.31-.9,.21,.05,2.29-.08,5.92-1.11,9.81h0c-.11,.44-.23,.86-.36,1.29,0,0,0-.07-.03-.19h0c-.19-1.26-1.37-8.32-4.18-17.11-3.97-12.45-11.21-28.37-23.54-36.11-1.59-.99-3.46,.77-2.6,2.44Z"/><path class="cls-132" d="M60.17,441.23c8.34-.59,17.26-4,25.86-10.61l-2.85-10.73-7.6-28.64s-10.89,3.52-11.98-8.14c-.38-4.09,.02-7.94,.6-11.54,.05-.25,.08-.52,.13-.77,.89-5.21,2.13-9.92,1.85-14.1-.04-.61-.72-.64-1.07-.13-2.04,2.94-4.68,6.86-6.31,9.15-.08,.12-.71,1.05-1.66,2.64,0,.02-.02,.04-.03,.05-3.8,6.3-12.9,22.89-16.03,41.74-2.15,12.99,2.71,26.19,19.08,31.08Z"/><path class="cls-5" d="M27.66,282.49c5.05,12.28,9.97,28.17,8.5,41.02-2.04,17.72-11.75,43.88-13.21,67.9,3.06-11.63,9.32-24.54,17.58-38.03,11.23-18.33,11.23-35.55,11.23-35.55-.11,.43-.23,.85-.36,1.28,0,0-3.6-24.54-15.83-41.71-3.3-4.65-7.24-8.75-11.92-11.69-1.59-.99-3.46,.77-2.6,2.44,1.78,3.48,4.22,8.5,6.61,14.34Z"/><path class="cls-6" d="M64.2,417.74c5.1,3.49,12.12,3.53,18.97,2.16l-7.6-28.64s-10.89,3.52-11.98-8.14c-.38-4.09,.02-7.94,.6-11.54,0,0-13.99,36.61,0,46.17Z"/><path class="cls-131" d="M21.05,268.15c1.78,3.48,4.22,8.5,6.61,14.34,2.44-2.8,5.54-4.3,7.9-5.09-3.3-4.65-7.24-8.75-11.92-11.69-1.59-.99-3.46,.77-2.6,2.44Z"/><path class="cls-138" d="M50.71,326.96c4.87-3.58,8.63,2.46,8.8,2.76-.92-7.33-2.67-14.94-5.74-21.92-.2-.47-.91-.31-.9,.21,.05,2.29-.08,5.92-1.11,9.81h0c-.11,.44-.23,.86-.36,1.29,0,0,0-.07-.03-.19-.14,4.3-.66,8.04-.66,8.04Z"/><path class="cls-139" d="M57.11,368.45c.15-.08,1.96-1.11,4.32,0,1.25,.6,2.25,1.58,2.91,2.34,.89-5.21,2.13-9.92,1.85-14.1-.04-.61-.72-.64-1.07-.13-2.04,2.94-4.68,6.86-6.31,9.15-.08,.12-.71,1.05-1.66,2.64,0,.02-.02,.04-.03,.05,0,.02,0,.03,0,.04Z"/></g><path class="cls-141" d="M3.59,294.08l2.61,3.49c.37,.45,.46,1.12,.25,1.68l-1.39,4.17c-.47,1.45,.87,2.82,2.32,2.3l4.08-1.42c8.09,8.76,4.42,34.66,4.42,34.66,12.01-21.34,4.24-39.27,4.24-39.27l3.53-2.55c1.23-.87,.93-2.81-.51-3.2l-4.15-1.24c-.56-.14-1-.6-1.19-1.2l-1.31-4.19c-.44-1.45-2.37-1.73-3.24-.49l-2.49,3.65c-.38,.46-.9,.82-1.47,.77l-4.35-.02c-1.39-.06-2.21,1.69-1.34,2.85Z"/><path class="cls-143" d="M35.41,260.01l2.46,2c.34,.25,.53,.71,.47,1.14l-.25,3.2c-.08,1.11,1.12,1.84,2.05,1.21l2.63-1.74c7.26,4.73,9.25,23.69,9.25,23.69,4.71-17.25-3.95-28.51-3.95-28.51l2.04-2.44c.72-.84,.16-2.15-.92-2.17l-3.15-.13c-.42,0-.81-.24-1.05-.63l-1.67-2.72c-.57-.95-1.98-.79-2.37,.24l-1.11,3.03c-.18,.39-.49,.74-.9,.81l-3.08,.77c-.99,.21-1.27,1.59-.44,2.25Z"/><path class="cls-142" d="M2.16,245.18l1.19,4.21c.23,.57,.06,1.21-.27,1.68l-2.69,3.4c-.9,1.19-.14,2.97,1.3,3l4.38,.17c.64,.01,1.11,.34,1.42,.83l2.4,3.67c.77,1.3,2.69,1.02,3.19-.42l1.51-4.15c.25-.56,.66-.95,1.22-1.18l4.24-1.12c1.44-.45,1.88-2.29,.7-3.2l-3.45-2.64c-.47-.33-.78-.98-.69-1.54l.24-4.34c.11-1.53-1.55-2.44-2.83-1.66l-3.55,2.5c-.48,.31-1.12,.46-1.68,.21l-4.03-1.61c-1.66-.6-3.04,.74-2.59,2.2Z"/><polygon class="cls-140" points="476.53 489.62 457.88 489.62 422.43 387.62 369.72 387.62 369.72 489.62 345.44 489.62 345.44 387.62 292.73 387.62 257.29 489.62 238.63 489.62 304.24 268.01 334.29 268.01 298.7 370.43 345.44 370.43 345.44 268.01 369.72 268.01 369.72 370.43 416.46 370.43 380.87 268.01 410.93 268.01 476.53 489.62"/><g><path class="cls-62" d="M88.22,227.36s-5.31,7.82-13.89,8.73c1.13-4.12,3.12-8.88,6.62-13.48l7.27,4.75Z"/><path class="cls-134" d="M224.83,262.65s-.02,.03-.03,.06c-.48,1.05-7.4,16.19-17.82,31.68-4.23,6.31-9.05,12.68-14.25,18.18-18.4,19.49-37.48,23.84-37.48,23.84l-9.02-46.83s2.68,.13,6.94-.41c7.39-.93,19.52-3.86,30.6-12.93,6.43-5.27,11.28-10.39,14.84-14.74,6.1-7.47,8.4-12.72,8.4-12.72,0,0-.39,6.55,1.72,9.33,.22,.29,.69,.15,.74-.22,.11-.77,.3-1.92,.55-2.73,.1-.31,.56-.3,.63,.03,.42,1.99,1.81,6.5,5.79,7.33,4.14,.86,8.38,.14,8.38,.14Z"/><path class="cls-137" d="M206.98,294.39c-4.23,6.31-9.05,12.68-14.25,18.18-18.4,19.49-37.48,23.84-37.48,23.84l-9.02-46.83s2.68,.13,6.94-.41c3,7.54,10.46,22.18,25.04,23.25,8.58,.63,19.4-8.1,28.77-18.01Z"/><path class="cls-135" d="M234.51,248.25c-5.23,6.91-8.8,12.47-9.68,14.41,0,0-4.25,.72-8.38-.14-3.98-.83-5.37-5.35-5.79-7.33-.07-.33-.54-.35-.63-.03-.25,.81-.44,1.96-.55,2.73-.05,.36-.52,.5-.74,.22-2.11-2.78-1.72-9.33-1.72-9.33,0,0,3.39-8.52,5.92-14.36,3.06-7.02,5.63-10.56,7.1-8.79,1.48,1.77-.99,7.93-.56,11.64,0,0,8.85-9.94,11.73-9.73,2.89,.21,1,2.46,1,2.46,0,0,2.2-1.87,3.5-1.4,1.22,.46,.21,2.63,.09,2.88,.13-.18,1.02-1.36,1.7-.35,.7,1.06-1.25,5.25-1.41,5.6,.21-.27,2.41-2.95,2.76-.92,.37,2.14-.97,7.99-4.34,12.44Z"/><path class="cls-133" d="M204.81,496.53l-61.39,1.63s0,0,0,0l-8.62,.23c-2.02,.06-3.69-1.53-3.77-3.55-.04-.85,0-1.87,.18-3.11,.83-6.18-2.79-16.78-2.79-16.78l1-1.71,3.46-5.9s39.79-2.21,37.2,3.98c-.4,.95-.7,1.79-.92,2.55,0,0,0,0,0,0-.52,1.78-.63,3.07-.57,3.98,.05,.97,.88,1.72,1.85,1.71,.57,0,1.28-.03,2.14-.03,3.82,0,10.49,.3,19.35,2.73,7.54,2.07,12.22,7.96,14.42,11.47,.75,1.2-.1,2.74-1.51,2.79Z"/><path class="cls-136" d="M118.03,473.87s-.03,.06-.04,.08c-1.26,2.49-3.16,6.73-4.97,12.62-.89,2.91-1.46,5.18-1.82,6.94-.7,3.48-3.36,6.22-6.77,7.08-.17,.05-.33,.08-.5,.12-17.36,3.39-43.79,3.53-53.53,3.45-1.53,0-2.35-1.82-1.33-2.98,2.07-2.35,5.12-5.52,7.81-7.17,4.6-2.79,22.14-7.3,22.14-7.3l.45-4.45,.47-4.64c.54-5.32,27.24-6.16,36.42-6.28,1.33-.02,2.19,1.33,1.66,2.52Z"/><path class="cls-54" d="M118.03,473.87s-.03,.06-.04,.08c-1.26,2.49-3.16,6.73-4.97,12.62-.89,2.91-1.46,5.18-1.82,6.94-.7,3.48-3.36,6.22-6.77,7.08,5.03-2.84,6.3-9.46,7.21-13.87,1.08-5.28,1.4-12,1.4-12.32l4.98-.54Z"/><path class="cls-57" d="M143.41,498.17l-8.62,.23c-2.02,.06-3.69-1.53-3.77-3.55-.04-.85,0-1.87,.18-3.11,.83-6.18-2.79-16.78-2.79-16.78l1-1.71,.93,1.2s3,12.05,2.93,17.82c-.05,4.43,4.32,4.51,10.15,5.9Z"/><path d="M226.75,237.05c-.08,0-.17-.03-.24-.08-.16-.13-.18-.37-.05-.53l5.45-6.68c.13-.16,.37-.18,.53-.05,.16,.13,.18,.37,.05,.53l-5.45,6.68c-.07,.09-.18,.14-.29,.14Z"/><path d="M231.48,238.96c-.07,0-.13-.02-.19-.05-.18-.11-.23-.34-.13-.51l4.3-7.08c.11-.18,.34-.23,.51-.13,.18,.11,.23,.34,.13,.51l-4.3,7.08c-.07,.12-.19,.18-.32,.18Z"/><path d="M233.27,241.8c-.07,0-.13-.02-.19-.05-.18-.11-.23-.34-.13-.51l2.8-4.67c.11-.18,.34-.23,.51-.13,.18,.11,.23,.34,.13,.51l-2.8,4.67c-.07,.12-.19,.18-.32,.18Z"/><path class="cls-112" d="M170.06,471.33c-5.27,3.83-12.44,4.52-18.93,4.06-2.35-.16-4.61-.49-6.66-.87-.67-.12-1.33-.25-1.95-.38-2.46-.52-4.5-1.1-5.84-1.51-.59-.17-1.09,.47-.77,1,.46,.75,1.02,1.72,1.55,2.75,.05,.12-.05,.25-.18,.23l-8.88-1.63-.48-1.88-.74-2.96-3.3,.52-.26,.04-4.19,.64v.02l-2.12,3.89c-.51,.91-1.34,1.6-2.34,1.89-3.04,.92-9.57,2.81-10.31,2.44-.91-.45,1.58-3.94,1.84-4.3-7.28,6.25-26.55,2.37-26.55,2.37,0,0-5.81-9.45-8-44.82-.88-14.4,.45-23.96,2.44-32.74,.04-.17,.08-.34,.12-.51,.88-3.89,1.91-7.65,2.92-11.62,.96-3.8,1.92-7.8,2.75-12.33,1.12-6.07,2.02-13.07,2.4-21.77,.03-.51,.05-1.03,.06-1.55,.18-5.5,.03-11.17-.37-16.84-2.22-32.22-12.15-64.39-12.46-65.39,0,0,0,0,0-.02-.24-.85-7.13-25.53,4.53-42.33l15.2,4.81-1.83,33.2h59.35s-4.84,4.87-2.33,17.13c.37,1.79,.88,3.73,1.6,5.84,3.89,11.42,24.17,38.52,35.96,69.33,4.41,11.55,7.65,23.6,8.37,35.55,2.66,43.84-20.58,77.75-20.58,77.75Z"/><path class="cls-7" d="M106.5,475.26c-7.29,6.26-26.55,2.37-26.55,2.37,0,0-5.81-9.45-8-44.81-.91-14.68,.49-24.32,2.55-33.25,2.89-12.58,7.1-23.77,8.07-45.72,.27-5.98,.12-12.18-.31-18.38l9.8-2.22s-1.88,58.29,5.09,71.7c5.45,10.48,10.27,17.71,7.05,17.51-3.22-.2-4.91-2.6-5.67,0-.76,2.61,4.33,14.67,6.71,24.52,2.38,9.84,8.76,20.97,1.25,28.27Z"/><path class="cls-114" d="M172.78,378.79c-.57,4.24-1.8,8.41-3.87,12.41-13.3,25.78-38.78,25.58-53.37,8.59-12.63-14.72-12.05-44.65-13.01-70.25,0-.06,0-.11,0-.16-.03-.86-.08-1.72-.16-2.59-2.07-24.95-22.36-56.87-22.36-56.87l57.26,2.9c-2.91,20.78,12.93,41.71,18.21,50.59,4.45,7.49,20.47,32.31,17.31,55.37Z"/><path class="cls-113" d="M172.78,378.79c-.57,4.24-1.8,8.41-3.87,12.41-13.3,25.78-38.78,25.58-53.37,8.59-12.63-14.72-12.05-44.65-13.01-70.25,.95,13.19,6.72,69.58,36.47,70.87,19.11,.83,28.89-11.12,33.78-21.63Z"/><path class="cls-64" d="M144.24,294.55c-6.9,3.87-15.88,7.04-25.47,5.48-29.26-4.77-39.77-32.27-40.15-33.26,0-.02,0-.03,0-.03l17.72-.39,53.77,12.13s-5.49,3.7-5.87,16.07Z"/><path class="cls-116" d="M155.51,225.55c-.49,.8-1.09,1.17-1.09,1.17l-12.59-9.41-5.48-4.1s13.78-.61,18.05,5.54c2.34,3.37,1.87,5.58,1.11,6.79Z"/><path class="cls-63" d="M155.51,225.55c-.49,.8-1.09,1.17-1.09,1.17l-12.59-9.41-1.38-1.35s11.52,4.33,14.36,8.42c.28,.4,.51,.79,.7,1.16Z"/><path class="cls-115" d="M161.04,255.27s2.73,13.35-3.34,7.9c0,0-2.62,24.91-28.93,28.52-33.24,4.56-50.9-25.25-50.9-25.25,0,0-1.34,4.74-4.28,3.26-2.93-1.48-.44-9.51-.44-9.51,0,0-4.28,2.04-4.04-3.23,.23-5.09,3.54-9.21,3.77-9.5,.01,0,.01-.02,.01-.02,0,0-.35-4.87,1.44-11.36,1.13-4.12,3.12-8.88,6.62-13.48,3.57-4.7,8.71-9.2,16.11-12.63,0,0-2.75-2.81-5.49-3.06-.17-.02-.2-.23-.05-.3,1.78-.77,6.94-2.49,10.18,1.91-.06-.28-1.14-4.77-2.13-7.56-.24-.68,.5-1.3,1.12-.93,2.23,1.32,5.48,3.81,5.3,7.01,0,0,2.45-3.13,5.25-4.46,.43-.2,.88,.26,.66,.69-.56,1.09-1.3,2.81-1.44,4.51,0,0,20.03-1.62,37.36,12.71,14.37,11.86,16.32,22.58,12.07,21.49,0,0,2.65,3.28,4.08,6.8,.33,.81,.59,1.64,.74,2.43,.81,4.27,.04,5.7-3.68,4.04Z"/><path class="cls-85" d="M161.04,255.27s2.73,13.35-3.34,7.9c0,0-2.62,24.91-28.93,28.52-33.24,4.56-50.9-25.25-50.9-25.25,0,0-1.34,4.74-4.28,3.26-2.93-1.48-.44-9.51-.44-9.51,0,0-4.28,2.04-4.04-3.23,.23-5.09,3.54-9.21,3.77-9.5,5.85,9.12,26.67,17.19,37.9,8.94,13.59-9.98,19.08-9.18,19.08-9.18l10.64-2.47s2.71,3.95,10.83,6.35c4.58,1.35,9.18-.48,12.66-2.31,.33,.81,.59,1.64,.74,2.43,.81,4.27,.04,5.7-3.68,4.04Z"/><path class="cls-83" d="M112.23,243.08s-.02,0-.02,0c-.38,.08-.76,.12-1.15,.09-2.81-.19-4.9-3.19-4.66-6.71,.24-3.52,2.71-6.21,5.53-6.02,2.11,.14,3.81,1.87,4.43,4.2,.21,.78,.29,1.63,.23,2.51-.2,3.01-2.05,5.43-4.35,5.93Z"/><path d="M112.23,243.08s-.02,0-.02,0c-2.2-.34-3.8-2.76-3.61-5.57,.21-2.93,2.26-5.18,4.61-5.02,1.31,.09,2.44,.92,3.14,2.15,.21,.78,.29,1.63,.23,2.51-.2,3.01-2.05,5.43-4.35,5.93Z"/><path d="M102.4,228.73c-.13,0-.26-.03-.39-.08-.51-.21-.75-.8-.53-1.31,2.73-6.45,8.66-6.21,8.91-6.18,.55,.03,.97,.5,.94,1.05-.03,.55-.49,.99-1.05,.94-.19-.01-4.8-.16-6.97,4.96-.16,.38-.53,.61-.92,.61Z"/><circle class="cls-84" cx="109.91" cy="234.9" r="1.58"/><path d="M104.02,254.18c-14.63-7.16-31.75-7.95-47.32-3.58,.96-.33,1.92-.66,2.89-.97,14.49-4.7,31.28-3.33,44.43,4.55h0Z"/><path class="cls-46" d="M88.93,486.73c-5.06-.37-9.9,0-9.9,0l.45-4.45,9.45,4.45Z"/><path class="cls-81" d="M170.06,471.33c-5.27,3.83-12.44,4.52-18.93,4.06,3.22-2.27,7.72-4.97,12.34-9.71,15.12-15.53,21.4-46.99,21.4-52.63s-1.25-4.27-2.48-3.34c-3.5,2.69-5.41,2.42-.98-9.05,3.07-7.94,1.89-29.89,.87-42.63,4.41,11.54,7.65,23.6,8.37,35.55,2.66,43.84-20.59,77.75-20.59,77.75Z"/><path class="cls-48" d="M59.8,498.47s-4.9,2.18-5.02,5.71h.98s.58-3.8,4.04-5.71Z"/><path class="cls-47" d="M64.14,499.49s-3.28,2.27-3.43,4.64l1.21-.02s-.07-2.76,2.21-4.62Z"/><g class="cls-80"><path class="cls-44" d="M166.83,440.9c-.32,.68-10.76,22.49-24.32,33.23-2.46-.52-4.5-1.09-5.83-1.5-.59-.18-1.09,.46-.77,.99,.45,.75,1.01,1.72,1.54,2.75,.06,.11-.05,.25-.18,.23l-8.88-1.64-.47-1.88-.74-2.96-3.31,.52-.26,.04-4.18,.65s12.93-33.97-3.17-65.28c.5,.59,17.94,21.36,14.69,49.06-.33,2.81,.4,5.7,2.26,7.83,1.81,2.07,4.42,3.2,8.18,2.06,7.33-4.05,16.57-11.27,25.45-24.1Z"/></g><path class="cls-49" d="M54.49,498.27s-4.05,2.88-4.08,5.89l1.21-.03s-.34-2.7,2.87-5.86Z"/><path d="M223.36,253.28s-.07,0-.1-.01c-.2-.05-.32-.26-.26-.46,1.75-6.46-3.56-12.5-3.61-12.56-.14-.15-.12-.39,.03-.53s.39-.12,.53,.03c.23,.26,5.64,6.42,3.78,13.26-.05,.17-.2,.28-.36,.28Z"/><path class="cls-82" d="M177.39,363.6s-.51,4.2-2.43,9.77l2.43-9.77Z"/><path class="cls-53" d="M172.56,479.55l-15.01,.73c4.18-.53,11.14-6.05,11.58-6.4-.52,1.78-.63,3.07-.57,3.98,.05,.97,.88,1.72,1.85,1.71,.57,0,1.28-.03,2.14-.03h0Z"/><path class="cls-52" d="M203.54,496.57s-.68-4.58-6.58-6.52c0,0,5.12,3.34,5.12,6.55l1.46-.04Z"/><path class="cls-51" d="M191.84,491.41s5.09,1.65,5.3,5.31l-1.4,.04s-.56-3.39-3.91-5.35Z"/><path class="cls-96" d="M88.33,215.23s-10.07,.56-16.24,7.26c-6.16,6.7-3.65,13.48,12.16,7.98,8.64-3.01,4.08-15.23,4.08-15.23Z"/><path class="cls-50" d="M190.55,496.91s-.27-2.4-2.85-2.99c0,0,1.95,1.53,1.99,2.99h.86Z"/><path class="cls-98" d="M145.5,237.97s-.02,0-.02,0c-.3,.21-.63,.39-.99,.51-2.56,.88-5.54-1-6.65-4.21-1.1-3.21,.08-6.52,2.65-7.41,1.92-.66,4.07,.23,5.49,2.06,.48,.61,.87,1.34,1.14,2.14,.95,2.75,.21,5.58-1.63,6.88Z"/><path d="M145.5,237.97s-.02,0-.02,0c-2.08,.52-4.4-1.03-5.28-3.59-.92-2.68,.07-5.44,2.21-6.18,1.19-.41,2.51-.1,3.58,.73,.48,.61,.87,1.34,1.14,2.14,.95,2.75,.21,5.58-1.63,6.88Z"/><path d="M98.97,257.76c-13.54-.51-27.04,3.03-38.84,9.63,.7-.48,1.41-.95,2.12-1.41,10.73-6.87,24.07-10,36.72-8.22h0Z"/><path d="M100.82,264.35c-10.73,4.43-20.7,10.43-29.88,17.5,8.3-8.14,18.67-14.36,29.88-17.5h0Z"/><path d="M145.71,221.89c-.26,0-.53-.1-.73-.31-3.55-3.76-8.33-2-8.53-1.92-.52,.2-1.09-.06-1.29-.58-.2-.51,.06-1.09,.57-1.29,.25-.1,6.21-2.33,10.7,2.41,.38,.4,.36,1.03-.04,1.41-.19,.18-.44,.27-.69,.27Z"/><circle class="cls-97" cx="141.08" cy="231.4" r="1.61"/><path class="cls-94" d="M147.93,260.06c-.5,1.71-3.35,10.77-8.28,14.75-1.81,1.46-3.9,2.23-6.27,1.7-5.35-1.21-7.19-5.13-7.77-8.32-.47-2.47-.17-4.5-.17-4.5,0,0,9.36,2.11,12.31-7.28,0,0,1.6,5.31,10.19,3.65Z"/><path class="cls-93" d="M148.43,259.96c-.17,.04-.33,.07-.49,.1,.05-.19,.08-.28,.08-.28l.41,.19Z"/><path d="M127.9,264.65c-3.29,0-7.14-1.15-11.54-3.45-.37-.19-.51-.65-.32-1.01,.19-.37,.65-.51,1.01-.32,6.56,3.44,11.75,4.18,15.43,2.21,4.56-2.45,5.22-8.35,5.23-8.41,.04-.41,.42-.72,.82-.67,.41,.04,.71,.41,.67,.82-.03,.28-.76,6.76-6.01,9.57-1.55,.83-3.32,1.25-5.29,1.25Z"/><path d="M144.48,261.28c-.36,0-.71-.02-1.06-.06-4.06-.5-6.32-3.69-6.41-3.83-.24-.34-.15-.81,.19-1.04,.34-.24,.81-.15,1.04,.19,.02,.03,1.99,2.79,5.38,3.2,2.61,.31,5.42-.82,8.34-3.38,.31-.27,.79-.24,1.06,.07s.24,.79-.07,1.06c-2.88,2.53-5.72,3.81-8.46,3.81Z"/><path class="cls-95" d="M141.97,249.96s-.09,.68-.42,1.54h0c-.53,1.38-1.67,3.2-4.04,3.62-3.25,.59-5.83-2.9-5.83-2.9,0,0-3.66,1.69-5.33-1.2-1.66-2.88,1.14-10.94,3.94-12.75,.23-.15,.48-.28,.71-.38,3.49-1.47,7.99,1.93,10.99,5.77,1.92,2.47,1.92,5.19-.02,6.29Z"/><path d="M154.48,247.91c7.3-4.33,16.27-6.15,24.66-4.67-1.07,.06-2.12-.03-3.18,.07-7.36,.25-14.63,1.96-21.48,4.6h0Z"/><path d="M157.69,253.5c7.78-2.02,16.92-.26,22.67,5.56-6.59-4.62-14.74-6.14-22.67-5.56h0Z"/><path d="M158.27,258.22c7.28,1.02,15.27,4.7,18.48,11.71-4.39-6.16-11.54-9.3-18.48-11.71h0Z"/><path class="cls-90" d="M139.65,274.8c-1.81,1.46-3.9,2.23-6.27,1.7-5.35-1.21-7.19-5.13-7.77-8.32,2.87-.03,7.56,.41,10.89,3.2,1.6,1.34,2.58,2.47,3.15,3.42Z"/><path class="cls-91" d="M141.54,251.51c-.53,1.37-1.67,3.19-4.04,3.61-3.25,.59-5.83-2.9-5.83-2.9,0,0-3.66,1.69-5.33-1.2-1.66-2.88,1.14-10.94,3.94-12.75,.23-.15,.48-.28,.71-.38-1.59,3.04-6.4,13.31,1.76,12.16,0,0,3.32,5.69,8.78,1.45Z"/></g><g class="cls-80"><path class="cls-45" d="M113.42,367.33s-13.1,23.68-25.3,28.95c-4.86,2.1-9.68,3.22-13.73,3.8,.04-.17,.08-.34,.12-.51,.88-3.89,1.91-7.65,2.92-11.62,.96-3.8,1.92-7.8,2.75-12.33,10.71-5.98,28.33-14.43,33.24-8.29Z"/></g><path class="cls-92" d="M103.01,375.47s-19.72,23.93-43.2,17.72c-23.48-6.21-13.98-33.67-10.2-40.76,3.77-7.09,15.96-28.35,18.17-38.98,0,0-2.65,2.64-3.15,.9-.5-1.74,3.73-8.86,3.73-8.86,0,0-3.48,1.33-2.9,.08,2.18-4.68,4.55-7.61,6.09-8.96,4.72-4.13,19.93-6.87,23.48,10.63,1.23,6.09,1.77,12.78,1.67,19.24h0c-.18,12.1-2.57,23.32-6.76,28.03l14.38-4.4c-.34,.22-5.75,3.77-5.96,7.42,0,0,2.66-2.22,2.44,0-.22,2.21-2,11.74,3.54,11.07,0,0-2.22,3.99-1.33,6.86Z"/><path class="cls-87" d="M127.26,350.71c-.2,.76-2.75,.83-4.95,0,.24,.3,5.28,6.47,2.06,6.88,0,0,2.34,4.62-.62,3.52,0,0,2.34,4.75-.61,4.2,0,0,1.79,1.32,1.03,2.14-.76,.83-2.34,1.24-4.82,.61-2.48-.61-5.37-1.37-8.33-.13-2.97,1.24-8,7.54-8,7.54-.89-2.87,1.33-6.86,1.33-6.86-5.54,.66-3.77-8.87-3.54-11.07,.22-2.22-2.44,0-2.44,0,.21-3.65,5.63-7.19,5.96-7.42h.02s8.57-7.42,13.55-6.11c5.93,1.57,9.59,5.94,9.37,6.69Z"/><path d="M122.31,351.09c-.09,0-.17-.03-.24-.09-1.71-1.44-4.65-2-4.68-2-.2-.04-.34-.23-.3-.44,.04-.2,.23-.33,.44-.3,.13,.02,3.17,.6,5.03,2.17,.16,.13,.18,.37,.05,.53-.07,.09-.18,.13-.29,.13Z"/><path d="M124.37,357.97c-.13,0-.25-.07-.32-.19-2.13-3.67-7.7-4.68-7.76-4.69-.2-.04-.34-.23-.3-.43,.03-.2,.22-.34,.43-.3,.24,.04,5.97,1.08,8.28,5.05,.1,.18,.04,.41-.14,.51-.06,.03-.12,.05-.19,.05Z"/><path d="M123.74,361.49c-.09,0-.17-.03-.24-.09-2.84-2.42-6.52-3.43-6.56-3.44-.2-.05-.32-.26-.26-.46,.05-.2,.26-.32,.46-.26,.16,.04,3.88,1.06,6.85,3.59,.16,.13,.18,.37,.04,.53-.07,.09-.18,.13-.29,.13Z"/><path d="M123.13,365.69c-.11,0-.21-.04-.28-.13-1.79-2.07-7.77-3.43-7.83-3.45-.2-.05-.33-.25-.28-.45s.25-.33,.45-.28c.26,.06,6.28,1.43,8.23,3.69,.13,.16,.12,.39-.04,.53-.07,.06-.16,.09-.25,.09Z"/><path class="cls-88" d="M96.69,326.5c-.18,12.09-2.57,23.31-6.76,28.02l-10.4,.63c7.08-2.29,16.93-28.05,17.16-28.65Z"/><path class="cls-89" d="M523.34,496.14h-59.24c-1.15,0-1.72-1.38-.92-2.2,3.75-3.83,13.76-11.33,34.55-11.19,0,0-2.65-2.81-4.03-4.53-1.39-1.72,2.47-10.16,2.47-10.16l14.21,2.24,3.89,2.53,4.89,4.18,.76,.65s.09,4.12,1.65,8.79c1.55,4.67,1.51,7.11,1.77,9.69Z"/><path class="cls-56" d="M523.34,496.14h-20.2c5.01-8.94,16.02-12.28,16.02-12.28v-6.85l.76,.65s.09,4.12,1.65,8.79c1.55,4.67,1.51,7.11,1.77,9.69Z"/><path class="cls-86" d="M570.52,496.14h-61.91c-1.1,0-1.66-1.32-.89-2.1,4-4.06,14.3-12.65,30.51-13.45,0,0-1.6-2.53-3.01-5.22-1.41-2.69-.52-9.41-.52-9.41l29.26,1.57,3.84,2.91,2.84,2.15s-.02,9.83,1.55,14.79c.66,2.1,1.02,3.98,1.22,5.46,.23,1.75-1.12,3.3-2.89,3.3Z"/><path class="cls-55" d="M570.52,496.14h-8.29c4.21-1.46,7.13-3.38,6.4-5.87-2.19-7.45-4.37-17.22-4.37-17.22l3.54-2.61,2.84,2.15s-.02,9.83,1.55,14.79c.66,2.1,1.02,3.98,1.22,5.46,.23,1.75-1.12,3.3-2.89,3.3Z"/><path class="cls-107" d="M625.69,417.33c-.31,.86-.66,1.71-1.04,2.54-.42,.89-.87,1.75-1.38,2.6-1.19,1.98-2.47,3.66-3.82,5.08-15.1,15.82-39.09-1.49-39.09-1.49,5.17-7.83,1.34-22.44,1.21-22.84,5.75,2.3,10.66-6.86,7.06-21.47-3.59-14.61-2.65-22.01-2.65-22.01,2.67,5.63,5.59,9.05,5.77,9.26h.01s-.01,0-.01-.03c-.01-.02-.02-.06-.04-.11-8.56-28.68-2.25-50.77-2.25-50.77l1.68,5.75c3.06-42.68,21.92-50.78,22.51-51.02-.31,.69-13.35,29.29-8.62,54.61,2.57,13.75,11.99,32.78,17.84,51.38,4.35,13.86,6.72,27.48,2.82,38.52Z"/><path class="cls-8" d="M624.65,419.87c-.42,.89-.87,1.75-1.38,2.6-1.19,1.98-2.47,3.66-3.82,5.08-15.1,15.82-39.09-1.49-39.09-1.49,1.37-2.08,2.11-4.63,2.45-7.27,.95-7.31-1.14-15.28-1.24-15.57,4.27,1.71,8.08-2.91,8.28-11.4,.07-2.93-.3-6.32-1.22-10.07-3.59-14.61-2.65-22.01-2.65-22.01,2.67,5.63,5.59,9.05,5.77,9.26h.01s4.65,9.72,15.25,22.83c8.46,10.48,15.48,19.65,17.64,28.04Z"/><path class="cls-10" d="M622.87,378.81c-24.13-23.46-31.73-54.97-31.73-54.97,3.06-42.68,21.92-50.78,22.51-51.02-.31,.69-13.35,29.29-8.62,54.61,2.57,13.75,11.99,32.78,17.84,51.38Z"/><path class="cls-9" d="M583.58,418.78c-.26,.01-.52,.01-.77,.01,.95-7.31-1.14-15.28-1.24-15.57,4.27,1.71,8.08-2.91,8.28-11.4,0,0,12.23,26.19-6.27,26.96Z"/><path class="cls-111" d="M585.45,419.84c-4.26,18.86-16.64,38.54-14.81,52.75,0,0-3.85,4.46-10.14,4.05,0,0,1.62-2.43,1.82-5.07,0,0-4.26,2.57-10.07,3.57-4.64,.79-10.26,.57-15.49-2.76,0,0-1.78,2.22-.85,4.21-.45-.77-4.14-7.24-6.05-13.34,0,0-6.7,.61-11.36-1.82,0,0,0,.04,.01,.11,.08,1.28,.83,13.05,1.41,16.12,0,0-3.86,2.03-7.1,1.82,0,0,2.33-2.57,1.96-4.33,0,0-6.8,2.66-13.25,2.05-1.86-.18-3.68-.63-5.31-1.49,0,0-2.04,.73-1.45,3.79,0,0-10.15-11.63-19.71-29.28-6.21-11.46-9.94-30.39-9.97-49.71-.02-10.45,1.05-21,3.4-30.55,.78-3.18,1.86-6.6,3.14-10.22,2.28-6.44,5.22-13.5,8.3-20.91,7.98-19.16,17-40.69,18.57-60.24,.07-.92,.13-1.83,.17-2.74l-.12-7.95c-.02-.29-.04-.57-.08-.86-.07-.85-.17-1.7-.29-2.54l52.08-30,6.29-3.63,4.96-2.85s.18,4.44-.51,12.45c-.36,4.16-.95,9.27-1.92,15.23-2.84,17.45-1.81,20.49,1.22,23.74,3.04,3.24,4.7,5.68,1.23,5.27,0,0,5.05,11.16-.22,9.13,0,0-1.7,18.12,8.02,43.26,.35,.92,.72,1.86,1.11,2.8,10.95,26.58,19.27,61.07,15.01,79.94Z"/><path class="cls-110" d="M528.96,373.37h0s-.01,.02-.01,.03c-3.1,19.66-10.81,36.46-27.43,40.46-24.33,5.86-28.87-9.4-26.73-27.42,.92-7.77,3.08-16.05,5.43-23.37,9.47-29.48,24.65-42.11,24.31-95.06l26.06-4.69s-6.26,18.86-2.38,48.22c2.02,15.34,4.15,40.3,.75,61.83Z"/><path class="cls-58" d="M492.86,340.19s-3.24,4.94-7.78,9.88c-3.93,4.29-8.84,8.58-13.45,9.67,2.28-6.44,5.22-13.5,8.3-20.91l9.65,1.01,3.28,.35Z"/><path class="cls-59" d="M498.67,275.85c24.04,2.61,49.98-5.47,55.18-27.99,0,0-37.84,17.56-55.38,19.18,.04,.29,.06,.57,.08,.86,.03,.37,.03,.7,.02,1.01l.1,6.94Z"/><rect class="cls-108" x="479.91" y="277.57" width="43.25" height="54.26" rx="2.69" ry="2.69"/><path class="cls-109" d="M556.17,239.05c-1.01,6.54-3.42,12.52-5.23,13.24-2.7,1.07-3.5-2.56-3.5-2.56-.43,5.77-1.71,8.55-3.85,9.61-2.13,1.07-2.35-2.35-2.35-2.35-2.13,5.13-13.53,12.71-25.39,13.72-5.16,.44-11.33-.45-17.3-2.81-6.65-2.63-13.05-7.07-17.56-13.51-7.71-11.01-8.69-24.82,1.77-36.65,2.32-2.63,5.2-5.16,8.7-7.54,20.73-14.1,44.66-6.84,44.66-6.84,0,0-1.29-4.7,0-5.55,1.28-.86,3.84,5.02,3.84,5.02,1.28-3.74,7.69-7.59,8.55-5.45,.85,2.14-5.56,8.55-5.56,8.55,4.7-1.71,7.99,0,7.99,0-3.77,.21-5.21,2.35-5.21,2.35,0,0,6.47,5.77,9.5,15.93,.5,1.66,.91,3.45,1.18,5.34,.06,.43,.11,.87,.14,1.32,.22,2.59,.05,5.44-.38,8.18Z"/><path class="cls-106" d="M556.17,239.05c-1.01,6.54-3.42,12.52-5.23,13.24-2.7,1.07-3.5-2.56-3.5-2.56-.43,5.77-1.71,8.55-3.85,9.61-2.13,1.07-2.35-2.35-2.35-2.35-2.13,5.13-13.53,12.71-25.39,13.72-5.16,.44-11.33-.45-17.3-2.81-6.65-2.63-13.05-7.07-17.56-13.51-7.71-11.01-8.69-24.82,1.77-36.65l5.25,.44s5.1-2.53,8.48,6.43c3.37,8.96,15.37,3.28,26.85,2.61,11.48-.67,28.92,1.99,32.83,11.83Z"/><path class="cls-100" d="M471.3,301.07s-17.74,21.44-12.84,35.98c4.89,14.54,21.31,14.25,27.64,9.21,6.33-5.04,12-11.6,12-11.6l-26.79-33.59Z"/><polygon class="cls-60" points="475.94 319.33 482.41 315.78 479.18 311.54 475.94 319.33"/><path class="cls-105" d="M495.4,207.79c2.19-.26,.6,6.69-.65,10.18-1.26,3.49-6.7,2.79-8.37,2.51,0,0-4.61,2.23-6.49,.98-1.88-1.25,3.66-12.24,15.51-13.66Z"/><path class="cls-104" d="M494.77,233.88s-.35,2.92-1.53,6.01c-1.41,3.71-4.01,7.67-8.61,7.11-2.2-.27-3.7-1.72-4.72-3.72-2.87-5.64-1.86-15.67-1.86-15.67,1.68-1.02,3.09-3,3.09-3,.22,11.05,13.63,9.27,13.63,9.27Z"/><path class="cls-101" d="M493.24,239.89c-1.41,3.71-4.01,7.67-8.61,7.11-2.2-.27-3.7-1.72-4.72-3.72,2.21-1.42,7.62-4.36,13.33-3.39Z"/><path d="M504.58,234.96c-.09,0-.18-.02-.27-.05-2.09-.81-4.85-.61-7.76-.4-3.67,.27-7.47,.55-10.91-.98-6.52-2.88-5.16-11.45-5.1-11.81,.07-.41,.45-.69,.86-.62,.41,.07,.68,.45,.62,.86-.01,.08-1.22,7.79,4.22,10.2,3.1,1.37,6.71,1.11,10.19,.85,3.09-.22,6.01-.44,8.42,.5,.39,.15,.58,.58,.43,.97-.12,.3-.4,.48-.7,.48Z"/><path d="M476.56,228.77c-.4,0-.74-.32-.75-.72-.01-.41,.31-.76,.72-.78,2.43-.09,3.89-3.79,3.9-3.83,.15-.39,.59-.58,.97-.43,.39,.15,.58,.58,.43,.97-.07,.19-1.82,4.67-5.25,4.79h-.03Z"/><ellipse class="cls-103" cx="509.15" cy="217.71" rx="6.09" ry="4.43" transform="translate(-37.22 307.79) rotate(-32.51)"/><ellipse cx="507.55" cy="217.45" rx="4.29" ry="3.12" transform="translate(-22.86 370.94) rotate(-39.33)"/><path d="M520.92,215.01c-.07,0-.15,0-.22-.02-.54-.12-.88-.66-.76-1.19,.98-4.38-2.49-7-2.64-7.11-.44-.33-.54-.95-.22-1.4,.33-.45,.95-.54,1.39-.22,.19,.14,4.69,3.48,3.41,9.16-.1,.46-.52,.78-.97,.78Z"/><path class="cls-61" d="M561,240.47c-1.83-.3-3.43-.79-4.83-1.42-2.58-1.15-4.49-2.77-5.91-4.55-4.17-5.23-4.09-11.81-4.09-11.81,1.98-.88,5.32-.08,9.06,1.52,.5,1.66,.91,3.45,1.18,5.34,.06,.43,.11,.87,.14,1.32l4.96-2.85s.18,4.44-.51,12.45Z"/><path class="cls-99" d="M547.73,210.4s6.34,2.9,12.44,9.52,5.26,11.81,.61,13.41c-4.79,1.65-11.42-4.02-13.05-7.05-5.51-10.28,0-15.88,0-15.88Z"/><path class="cls-102" d="M473.85,270.26l-4.38-3.75s-1.54-7.23-4.38-13.13c-2.85-5.9-8.24-11.3-9.06-9.37s.71,6.31,.71,6.31c0,0-5.31-3.73-7.76-6.96-2.77-3.63-4.14-8.91-5.47-7.54-1.32,1.37-.41,7.92,.61,11.06,0,0-1.43,3.24-.2,6.8,0,0-2.24,2.14-.31,5.7,0,0-1.63,3.26,.92,7.02,2.54,3.77,13.07,15.27,13.07,15.27,0,0,13.61,2.95,13.81,2.34s2.44-13.76,2.44-13.76Z"/><path class="cls-71" d="M479.18,306.28s9.37,28.5,22.36,35.91c12.99,7.41,35.22-7.9,35.22-7.9l-57.58-28.01Z"/><path class="cls-36" d="M556.65,317.7c-5.06,11.43-17.88,16.44-28.4,19.39-9.73,2.73-23.37,4.84-31.76-3.92-7.51-7.83-34.05-44.01-39.56-51.55-.44-.6-.07-1.44,.67-1.53,3.22-.37,10.08-1.63,11.93-5.67,2.45-5.32,2.6-1.29,2.6-1.29l1.14-2.35c.26-.53,.95-.68,1.41-.31l34.01,29s23.54-9.23,36.59-8.21h.02c.48,.03,.95,.08,1.4,.15,8.16,1.21,16.32,11.9,9.95,26.29Z"/><path d="M452.77,256.12s-.1,0-.14-.03c-4.59-1.92-8.65-8.72-8.82-9.01-.1-.18-.05-.41,.13-.51,.18-.1,.41-.05,.51,.13,.04,.07,4.1,6.87,8.46,8.7,.19,.08,.28,.3,.2,.49-.06,.14-.2,.23-.35,.23Z"/><path d="M448.45,259.74c-.08,0-.16-.03-.23-.08-2.04-1.59-4.51-5.61-4.62-5.78-.11-.18-.05-.41,.12-.52,.17-.11,.41-.05,.52,.12,.02,.04,2.5,4.07,4.44,5.57,.16,.13,.19,.36,.07,.53-.07,.09-.18,.14-.3,.14Z"/><path d="M446.75,263.7c-.1,0-.19-.04-.26-.11-1.99-1.98-3.15-3.92-3.2-4-.1-.18-.05-.41,.13-.51,.18-.1,.41-.05,.51,.13,.01,.02,1.16,1.95,3.08,3.85,.15,.15,.15,.38,0,.53-.07,.07-.17,.11-.27,.11Z"/><path class="cls-3" d="M585.45,419.84c-4.26,18.86-16.64,38.54-14.81,52.75,0,0-3.85,4.46-10.14,4.05,0,0,1.62-2.43,1.82-5.07,0,0-4.26,2.57-10.07,3.57-4.99-16-3.71-44.18,.57-54.88,4.57-11.44,4.57-15.16,4.57-15.16-2.57,2.58-7.15,4.58-7.43,3.43-.29-1.14,8-11.43,15.44-29.72,5.08-12.49,4.68-31.14,3.93-41.71,.35,.92,.72,1.86,1.11,2.8,10.95,26.58,19.27,61.07,15.01,79.94Z"/><path class="cls-2" d="M529.86,463.25s-6.7,.61-11.36-1.82c0,0,0,.04,.01,.11-3.91-1.6-9.11-4.23-15.98-8.49l20.6,4.37s-8.2-40.69,20.56-68.51c-1.31,1.38-27.36,29.46-13.83,74.34Z"/><path class="cls-68" d="M466.45,496.14s4.27-5.2,7.67-5.87c0,0-3.67,3.2-4.73,5.87h-2.93Z"/><path class="cls-69" d="M480.64,490.27s-4.27,2.45-6.19,5.87h2.28s1.68-4.23,3.9-5.87Z"/><path class="cls-66" d="M512.16,496.14s2.7-4.81,7-5.51c0,0-3.7,3.41-4.1,5.51h-2.9Z"/><path class="cls-67" d="M520.23,496.14s2.57-4.21,6.23-4.27c0,0-3.18,2.18-3.73,4.27h-2.5Z"/><path class="cls-65" d="M480.64,496.14s2.57-4.35,6.26-4.91c0,0-3.75,2.89-4.17,4.91h-2.09Z"/><path class="cls-31" d="M629.6,296.43l-2.14,2.34c-.3,.3-.42,.78-.3,1.2l.72,3.13c.24,1.08-.83,1.98-1.84,1.5l-2.86-1.33c-6.48,5.76-5.62,24.8-5.62,24.8-7.22-16.35-.33-28.78-.33-28.78l-2.38-2.11c-.83-.72-.48-2.1,.59-2.28l3.1-.6c.41-.06,.77-.36,.95-.78l1.25-2.94c.42-1.02,1.84-1.08,2.38-.12l1.55,2.83c.24,.36,.6,.66,1.01,.66l3.16,.31c1.01,.06,1.49,1.38,.78,2.16Z"/><path class="cls-26" d="M596.97,276.93l-1.66,1.82c-.23,.23-.32,.61-.23,.93l.56,2.43c.19,.84-.64,1.54-1.43,1.16l-2.22-1.03c-5.03,4.47-4.37,19.26-4.37,19.26-5.61-12.7-.26-22.35-.26-22.35l-1.85-1.64c-.65-.56-.37-1.63,.46-1.77l2.41-.46c.32-.05,.6-.28,.74-.61l.97-2.29c.33-.79,1.43-.84,1.85-.09l1.21,2.19c.19,.28,.46,.51,.79,.51l2.45,.24c.79,.05,1.16,1.07,.6,1.68Z"/><path class="cls-22" d="M614.32,253.39l.86,4.29c.18,.58-.04,1.21-.4,1.66l-2.96,3.18c-.99,1.11-.37,2.95,1.05,3.09l4.35,.51c.63,.06,1.08,.43,1.35,.94l2.1,3.84c.66,1.36,2.6,1.23,3.22-.16l1.84-4.02c.29-.54,.73-.9,1.31-1.08l4.32-.78c1.47-.34,2.05-2.14,.95-3.14l-3.23-2.91c-.44-.37-.7-1.04-.56-1.59l.59-4.3c.23-1.51-1.35-2.56-2.69-1.88l-3.74,2.21c-.51,.27-1.16,.37-1.69,.07l-3.89-1.92c-1.61-.73-3.09,.5-2.76,1.99Z"/><path d="M298.35,153.76s-.07,0-.1,0c-1.62-.17-3.21-.5-4.76-1-.53-.17-.81-.73-.64-1.26,.17-.52,.73-.81,1.26-.64,1.41,.46,2.87,.76,4.34,.91,.55,.06,.95,.55,.89,1.1-.05,.52-.49,.9-.99,.9Zm4.65,0c-.51,0-.94-.38-.99-.9-.06-.55,.34-1.04,.89-1.1,1.47-.15,2.93-.46,4.34-.92,.52-.17,1.09,.12,1.26,.64,.17,.53-.12,1.09-.64,1.26-1.54,.5-3.14,.84-4.75,1.01-.04,0-.07,0-.1,0Zm-13.45-2.84c-.17,0-.34-.04-.5-.13-1.4-.81-2.72-1.77-3.93-2.85-.41-.37-.45-1-.08-1.41,.37-.41,1-.45,1.41-.08,1.1,.99,2.31,1.87,3.59,2.61,.48,.28,.64,.89,.37,1.37-.19,.32-.52,.5-.87,.5Zm22.24-.02c-.35,0-.68-.18-.87-.5-.28-.48-.11-1.09,.36-1.37,1.28-.74,2.49-1.62,3.59-2.61,.41-.37,1.04-.34,1.41,.07,.37,.41,.34,1.04-.07,1.41-1.21,1.09-2.53,2.05-3.93,2.86-.16,.09-.33,.13-.5,.13Zm-29.12-6.16c-.31,0-.61-.14-.81-.41-.96-1.31-1.78-2.72-2.44-4.2-.23-.5,0-1.1,.5-1.32,.5-.23,1.1,0,1.32,.5,.61,1.35,1.36,2.64,2.23,3.84,.33,.45,.23,1.07-.22,1.4-.18,.13-.38,.19-.59,.19Zm35.99-.03c-.2,0-.41-.06-.59-.19-.45-.33-.54-.95-.22-1.4,.87-1.2,1.62-2.49,2.22-3.84,.22-.5,.81-.73,1.32-.51,.5,.22,.73,.82,.51,1.32-.66,1.48-1.48,2.89-2.43,4.21-.2,.27-.5,.41-.81,.41Zm-39.77-8.4c-.46,0-.88-.32-.98-.79-.34-1.58-.51-3.2-.51-4.83,0-.55,.45-1,1-1h0c.55,0,1,.45,1,1,0,1.49,.16,2.97,.47,4.42,.12,.54-.23,1.07-.77,1.19-.07,.02-.14,.02-.21,.02Zm43.53-.04c-.07,0-.14,0-.21-.02-.54-.11-.89-.64-.77-1.18,.3-1.44,.46-2.93,.46-4.42,0-.55,.45-1.05,1-1.05s1,.4,1,.95v.09c0,1.62-.17,3.25-.5,4.83-.1,.47-.51,.79-.98,.79Zm-43.55-9.2c-.07,0-.14,0-.21-.02-.54-.11-.89-.64-.77-1.18,.33-1.59,.83-3.14,1.49-4.63,.22-.5,.81-.73,1.32-.51,.5,.22,.73,.81,.51,1.32-.6,1.35-1.06,2.78-1.36,4.23-.1,.47-.51,.79-.98,.79Zm43.53-.13c-.46,0-.88-.32-.98-.79-.31-1.45-.78-2.87-1.39-4.22-.23-.5,0-1.1,.5-1.32,.5-.23,1.09,0,1.32,.5,.66,1.48,1.18,3.03,1.52,4.62,.12,.54-.23,1.07-.77,1.19-.07,.02-.14,.02-.21,.02Zm-39.79-8.32c-.2,0-.41-.06-.59-.19-.45-.32-.55-.95-.22-1.4,.95-1.31,2.04-2.53,3.24-3.62,.41-.37,1.04-.34,1.41,.07,.37,.41,.34,1.04-.07,1.41-1.1,1-2.1,2.11-2.96,3.31-.2,.27-.5,.41-.81,.41Zm35.99-.11c-.31,0-.61-.14-.81-.41-.88-1.19-1.88-2.3-2.98-3.29-.41-.37-.45-1-.08-1.41,.37-.41,1-.45,1.41-.08,1.21,1.08,2.31,2.29,3.26,3.6,.33,.45,.23,1.07-.21,1.4-.18,.13-.39,.19-.59,.19Zm-29.13-6.1c-.34,0-.68-.18-.87-.5-.28-.48-.12-1.09,.36-1.37,1.41-.82,2.9-1.49,4.43-1.99,.52-.17,1.09,.12,1.26,.64,.17,.52-.11,1.09-.64,1.26-1.4,.46-2.76,1.07-4.05,1.82-.16,.09-.33,.14-.5,.14Zm22.24-.07c-.17,0-.34-.04-.5-.13-1.29-.74-2.65-1.34-4.06-1.79-.53-.17-.82-.73-.65-1.26,.17-.53,.73-.81,1.26-.65,1.54,.5,3.04,1.16,4.44,1.96,.48,.27,.65,.89,.37,1.36-.18,.32-.52,.5-.87,.5Zm-13.45-2.81c-.5,0-.94-.38-.99-.89-.06-.55,.34-1.04,.89-1.1,1.6-.17,3.25-.18,4.86-.02,.55,.05,.95,.54,.9,1.09-.06,.55-.53,.94-1.09,.9-1.47-.15-2.98-.14-4.44,.01-.04,0-.07,0-.11,0Z"/><path class="cls-23" d="M304.87,111.32c0,.14,0,.28-.01,.42-.08,1.49-.57,2.87-1.36,4.04-1.42,2.13-3.86,3.53-6.62,3.53-3.7,0-6.81-2.51-7.72-5.92-.18-.66-.27-1.35-.27-2.07,0-1.99,.73-3.79,1.93-5.19,1.45-1.71,3.63-2.8,6.06-2.8,4.41,0,7.99,3.58,7.99,7.99Z"/><path class="cls-27" d="M314.96,194.58c0,5.58-4.52,10.1-10.09,10.1-.72,0-1.43-.08-2.11-.23-4.56-.96-7.99-5.01-7.99-9.87s3.43-8.9,7.99-9.86c.68-.15,1.39-.23,2.11-.23,5.57,0,10.09,4.52,10.09,10.09Z"/><path class="cls-28" d="M310.74,194.58c0,4.85-3.42,8.91-7.98,9.87-4.56-.96-7.99-5.01-7.99-9.87s3.43-8.9,7.99-9.86c4.56,.96,7.98,5.01,7.98,9.86Z"/><path class="cls-29" d="M334.33,154.66c-.4,.73-.86,1.42-1.37,2.05-.51,.64-1.07,1.23-1.67,1.77-.68,.61-1.4,1.15-2.17,1.61-4.15,2.52-9.45,2.89-14.07,.58-.17-.09-.34-.18-.52-.27-5.78-3.18-8.55-9.7-7.22-15.84,.07-.34,.16-.68,.26-1.01,.29-1,.7-1.99,1.22-2.94,.21-.38,.44-.75,.68-1.11,1.13-1.69,2.58-3.08,4.21-4.13,4.35-2.79,10.05-3.17,14.9-.51,1.64,.9,3.05,2.08,4.18,3.44,1.07,1.28,1.89,2.72,2.46,4.25,1.42,3.83,1.23,8.23-.89,12.09Z"/><path class="cls-1" d="M331.29,158.48c-.68,.61-1.4,1.15-2.17,1.61-4.15,2.52-9.45,2.89-14.07,.58-.17-.09-.34-.18-.52-.27-5.78-3.18-8.55-9.7-7.22-15.84,.07-.34,.16-.68,.26-1.01,2.2,6.13,8.11,13.64,23.72,14.92Z"/><path class="cls-20" d="M332.76,138.32c-2.48,1.54-8.64,1.97-10.23,.97-1.69-1.06,3.83-1.37,2.32-3-1.51-1.63-11.16-.9-11.16-.9,4.35-2.79,10.05-3.17,14.9-.51,1.64,.9,3.05,2.08,4.18,3.44Z"/><path class="cls-21" d="M307.32,144.57c.29-1.35,.78-2.68,1.48-3.95,.21-.38,.44-.75,.68-1.11,3.13-.3,8.47-.58,8.83,.98,.44,1.96-6.48,3.39-10.98,4.08Z"/><path class="cls-30" d="M329.12,160.1c-4.15,2.51-9.45,2.89-14.07,.58,1.99-1.76,10.71-.95,14.07-.58Z"/><path class="cls-40" d="M334.33,154.66c-.4,.73-.86,1.42-1.37,2.05-3.03,.24-8.78,.6-11.89,.17-2.12-.3-3.57-1.47-2.74-2.62,.5-.69,1.22-.96,1.76-1.05-.35-.03-.83-.09-1.48-.2-3.21-.54-3.7-4.27,.95-4.91,1.65-.23,3.71-.18,4.51-.32,1.05-.18,.91-1.36,.25-1.58-.91-.3-2.69-.6-2.92-1.51-.22-.85,.67-1.25,1.08-1.36,3.13-.82,9.06-.85,12.75-.77,1.42,3.83,1.23,8.23-.89,12.09Z"/><g><path d="M273.66,68.36h-63.1c-.55,0-1-.45-1-1s.45-1,1-1h63.1c.55,0,1,.45,1,1s-.45,1-1,1Z"/><path d="M210.56,72.78c-.26,0-.51-.1-.71-.29l-3.55-3.54c-.87-.87-.89-2.3-.04-3.19l3.57-3.73c.38-.4,1.01-.41,1.41-.03,.4,.38,.41,1.01,.03,1.41l-3.57,3.73c-.1,.11-.1,.28,0,.39l3.55,3.54c.39,.39,.39,1.02,0,1.41-.2,.2-.45,.29-.71,.29Z"/><path d="M273.66,72.78c-.26,0-.51-.1-.71-.29-.39-.39-.39-1.02,0-1.41l3.55-3.54c.11-.11,.11-.28,0-.39l-3.57-3.73c-.38-.4-.37-1.03,.03-1.41,.4-.38,1.03-.37,1.41,.03l3.57,3.73c.85,.89,.83,2.32-.04,3.19l-3.55,3.53c-.2,.19-.45,.29-.71,.29Z"/></g><g><path d="M264.89,79.4h-45.57c-.55,0-1-.45-1-1s.45-1,1-1h45.57c.55,0,1,.45,1,1s-.45,1-1,1Z"/><path d="M219.32,82.59c-.26,0-.51-.1-.71-.29l-2.56-2.55c-.73-.73-.75-1.94-.03-2.69l2.58-2.69c.38-.4,1.01-.41,1.41-.03,.4,.38,.41,1.01,.03,1.41l-2.52,2.64,2.51,2.5c.39,.39,.39,1.02,0,1.41-.2,.2-.45,.29-.71,.29Z"/><path d="M264.89,82.59c-.26,0-.51-.1-.71-.29-.39-.39-.39-1.02,0-1.41l2.51-2.5-2.52-2.64c-.38-.4-.37-1.03,.03-1.41,.4-.38,1.03-.37,1.41,.03l2.58,2.69c.72,.75,.7,1.96-.03,2.69l-2.56,2.55c-.2,.19-.45,.29-.71,.29Zm1.85-4.15h0Z"/></g><g><path d="M190.75,181.22c-.55,0-1-.45-1-1V95.71c0-.55,.45-1,1-1s1,.45,1,1v84.5c0,.55-.45,1-1,1Z"/><path d="M195.38,96.71c-.25,0-.5-.09-.69-.28l-3.73-3.57c-.11-.1-.28-.1-.39,0l-3.54,3.55c-.39,.39-1.02,.39-1.41,0s-.39-1.02,0-1.41l3.54-3.55c.87-.87,2.3-.89,3.18-.04l3.73,3.57c.4,.38,.41,1.01,.03,1.41-.2,.21-.46,.31-.72,.31Z"/></g><path d="M323.31,192.05c-.31,0-.62-.15-.81-.42-.32-.45-.22-1.07,.23-1.4,10.55-7.55,4.46-24.27,4.4-24.44-.19-.52,.07-1.09,.59-1.29,.52-.19,1.09,.07,1.29,.59,.07,.18,1.7,4.59,1.92,10.07,.31,7.4-2.12,13.17-7.04,16.69-.18,.13-.38,.19-.58,.19Z"/><path d="M321.77,194.13c-.49,0-.95-.21-1.27-.59-.33-.39-.46-.9-.37-1.4l.73-3.87c.1-.54,.63-.9,1.17-.8,.54,.1,.9,.63,.8,1.17l-.66,3.47,3.33-.08c.55,0,1.01,.42,1.02,.98,.01,.55-.42,1.01-.98,1.02l-3.74,.09h-.04Z"/><path d="M407.94,102.88c-.25,0-.5-.09-.69-.28l-5.22-5.01c-.4-.38-.41-1.02-.03-1.41,.38-.4,1.02-.41,1.41-.03l5.22,5.01c.4,.38,.41,1.02,.03,1.41-.2,.21-.46,.31-.72,.31Z"/><path d="M402.82,102.98c-.25,0-.5-.09-.69-.28-.4-.38-.41-1.02-.03-1.41l5.01-5.22c.38-.4,1.02-.41,1.41-.03,.4,.38,.41,1.02,.03,1.41l-5.01,5.22c-.2,.21-.46,.31-.72,.31Z"/><path d="M464.7,125.18c-.25,0-.5-.09-.69-.28l-5.22-5.01c-.4-.38-.41-1.02-.03-1.41,.38-.4,1.02-.41,1.41-.03l5.22,5.01c.4,.38,.41,1.02,.03,1.41-.2,.21-.46,.31-.72,.31Z"/><path d="M432.33,76.33c-.25,0-.5-.09-.69-.28-.4-.38-.41-1.02-.03-1.41l5.01-5.22c.38-.4,1.02-.41,1.41-.03,.4,.38,.41,1.02,.03,1.41l-5.01,5.22c-.2,.21-.46,.31-.72,.31Z"/><path d="M437.45,76.22c-.25,0-.5-.09-.69-.28l-5.22-5.01c-.4-.38-.41-1.02-.03-1.41,.38-.4,1.02-.41,1.41-.03l5.22,5.01c.4,.38,.41,1.02,.03,1.41-.2,.21-.46,.31-.72,.31Z"/><path d="M459.58,125.28c-.25,0-.5-.09-.69-.28-.4-.38-.41-1.02-.03-1.41l5.01-5.22c.38-.4,1.02-.41,1.41-.03,.4,.38,.41,1.02,.03,1.41l-5.01,5.22c-.2,.21-.46,.31-.72,.31Z"/><path d="M407.78,227.62c-.12,0-.25-.05-.35-.14l-5.22-5.01c-.2-.19-.21-.51-.01-.71,.19-.2,.51-.21,.71-.01l5.22,5.01c.2,.19,.21,.51,.01,.71-.1,.1-.23,.15-.36,.15Z"/><path d="M402.67,227.72c-.12,0-.25-.05-.35-.14-.2-.19-.21-.51-.01-.71l5.01-5.22c.19-.2,.51-.21,.71-.01,.2,.19,.21,.51,.01,.71l-5.01,5.22c-.1,.1-.23,.15-.36,.15Z"/><path d="M407.78,228.12c-.25,0-.5-.09-.69-.28l-5.22-5.01c-.4-.38-.41-1.02-.03-1.41,.38-.4,1.02-.41,1.41-.03l5.22,5.01c.4,.38,.41,1.02,.03,1.41-.2,.21-.46,.31-.72,.31Z"/><path d="M402.67,228.22c-.25,0-.5-.09-.69-.28-.4-.38-.41-1.02-.03-1.41l5.01-5.22c.38-.4,1.02-.41,1.41-.03,.4,.38,.41,1.02,.03,1.41l-5.01,5.22c-.2,.21-.46,.31-.72,.31Z"/><path d="M405.17,224.71c-.55,0-1-.45-1-1V99.3c0-.55,.45-1,1-1s1,.45,1,1v124.41c0,.55-.45,1-1,1Z"/><path d="M463.09,122.67h-29.25v-49.03c-.36-.15-.61-.51-.61-.92,0-.55,.45-1,1-1h28.86v50.95Zm-27.25-2h25.25v-46.95h-25.25v46.95Z"/><path d="M514.29,73.72h-30.02c-.55,0-1-.45-1-1s.45-1,1-1h30.02c.55,0,1,.45,1,1s-.45,1-1,1Z"/><path d="M514.29,79.32h-30.02c-.55,0-1-.45-1-1s.45-1,1-1h30.02c.55,0,1,.45,1,1s-.45,1-1,1Z"/><path d="M509.71,84.93h-20.88c-.55,0-1-.45-1-1s.45-1,1-1h20.88c.55,0,1,.45,1,1s-.45,1-1,1Z"/><path d="M514.29,90.54h-30.02c-.55,0-1-.45-1-1s.45-1,1-1h30.02c.55,0,1,.45,1,1s-.45,1-1,1Z"/><path d="M514.29,96.14h-30.02c-.55,0-1-.45-1-1s.45-1,1-1h30.02c.55,0,1,.45,1,1s-.45,1-1,1Z"/><path d="M509.71,101.75h-20.88c-.55,0-1-.45-1-1s.45-1,1-1h20.88c.55,0,1,.45,1,1s-.45,1-1,1Z"/><path class="cls-35" d="M434.84,121.67c.9-17.32,8.11-29.04,13.59-29.05,5.48,0,12.73,11.7,13.66,29.05h-27.25Z"/><path class="cls-34" d="M434.84,129.38v32.41c0,1.09-.82,2.01-1.9,2.13-3.26,.37-9.92,.59-13.41-3.05-.65-.67-.91-1.63-.66-2.53,.35-1.27,.97-3.42,1.8-6.02,2.55-8,7.14-20.21,12.29-23.91,.79-.56,1.88,0,1.88,.97Z"/><path class="cls-32" d="M434.84,154.46v7.33c0,1.09-.82,2.01-1.9,2.13-3.26,.37-9.92,.59-13.41-3.05-.65-.67-.91-1.63-.66-2.53,.35-1.27,.97-3.42,1.8-6.02,2.6,1.51,7.72,3.65,14.17,2.14Z"/><path class="cls-39" d="M461.44,129.38v32.41c0,1.09,.82,2.01,1.9,2.13,3.26,.37,9.92,.59,13.41-3.05,.65-.67,.91-1.63,.66-2.53-.35-1.27-.97-3.42-1.8-6.02-2.55-8-7.14-20.21-12.29-23.91-.79-.56-1.88,0-1.88,.97Z"/><path class="cls-38" d="M461.44,154.46v7.33c0,1.09,.82,2.01,1.9,2.13,3.26,.37,9.92,.59,13.41-3.05,.65-.67,.91-1.63,.66-2.53-.35-1.27-.97-3.42-1.8-6.02-2.6,1.51-7.72,3.65-14.17,2.14Z"/><g><rect class="cls-37" x="433.16" y="198.55" width="11.78" height="18.75"/><rect class="cls-24" x="431.09" y="214.88" width="15.91" height="8.83" rx="2.57" ry="2.57"/></g><g><rect class="cls-25" x="451.95" y="198.55" width="11.78" height="18.75"/><rect class="cls-33" x="449.89" y="214.88" width="15.91" height="8.83" rx="2.57" ry="2.57"/></g><path class="cls-15" d="M474.46,192.04v6.17c0,.12-.08,.23-.2,.26-.85,.2-4.33,1.01-9.09,1.77-4.76,.76-10.79,1.47-16.71,1.48h-.04c-11.84-.01-24.12-2.85-25.8-3.25-.12-.03-.2-.14-.2-.26v-6.17c0-1.17,.58-2.25,1.54-2.91,3.41-2.35,11.49-9.18,13.69-22.26,1.7-10.06,6.59-16.75,9.17-19.69,.87-.99,2.41-.98,3.28,.01,2.57,2.94,7.43,9.63,9.12,19.68,2.21,13.08,10.29,19.91,13.7,22.26,.96,.66,1.54,1.74,1.54,2.91Z"/><path class="cls-17" d="M474.46,193.26v4.95c0,.12-.08,.23-.2,.26-.85,.2-4.33,1.01-9.09,1.77-4.76,.76-10.79,1.47-16.71,1.48h-.04c-11.84-.01-24.12-2.85-25.8-3.25-.12-.03-.2-.14-.2-.26v-4.73c4.18,.89,16.5,3.29,26.32,3.29,8.87,0,20.34-2.31,25.72-3.51Z"/><path d="M448.44,196.8c-.28,0-.5-.22-.5-.5v-1.86c0-.28,.22-.5,.5-.5s.5,.22,.5,.5v1.86c0,.28-.22,.5-.5,.5Zm0-3.86c-.28,0-.5-.22-.5-.5v-2c0-.28,.22-.5,.5-.5s.5,.22,.5,.5v2c0,.28-.22,.5-.5,.5Zm0-4c-.28,0-.5-.22-.5-.5v-2c0-.28,.22-.5,.5-.5s.5,.22,.5,.5v2c0,.28-.22,.5-.5,.5Zm0-4c-.28,0-.5-.22-.5-.5v-2c0-.28,.22-.5,.5-.5s.5,.22,.5,.5v2c0,.28-.22,.5-.5,.5Zm0-4c-.28,0-.5-.22-.5-.5v-2c0-.28,.22-.5,.5-.5s.5,.22,.5,.5v2c0,.28-.22,.5-.5,.5Zm0-4c-.28,0-.5-.22-.5-.5v-2c0-.28,.22-.5,.5-.5s.5,.22,.5,.5v2c0,.28-.22,.5-.5,.5Zm0-4c-.28,0-.5-.22-.5-.5v-2c0-.28,.22-.5,.5-.5s.5,.22,.5,.5v2c0,.28-.22,.5-.5,.5Zm0-4c-.28,0-.5-.22-.5-.5v-2c0-.28,.22-.5,.5-.5s.5,.22,.5,.5v2c0,.28-.22,.5-.5,.5Zm0-4c-.28,0-.5-.22-.5-.5v-2c0-.28,.22-.5,.5-.5s.5,.22,.5,.5v2c0,.28-.22,.5-.5,.5Zm0-4c-.28,0-.5-.22-.5-.5v-2c0-.28,.22-.5,.5-.5s.5,.22,.5,.5v2c0,.28-.22,.5-.5,.5Zm0-4c-.28,0-.5-.22-.5-.5v-2c0-.28,.22-.5,.5-.5s.5,.22,.5,.5v2c0,.28-.22,.5-.5,.5Zm0-4c-.28,0-.5-.22-.5-.5v-2c0-.28,.22-.5,.5-.5s.5,.22,.5,.5v2c0,.28-.22,.5-.5,.5Zm0-4c-.28,0-.5-.22-.5-.5v-2c0-.28,.22-.5,.5-.5s.5,.22,.5,.5v2c0,.28-.22,.5-.5,.5Z"/><path class="cls-14" d="M455.12,193.52v15.26s-3.1-4.04-6.68-4.72c-3.63,.68-6.67,4.72-6.67,4.72v-15.26c.92-1.77,2.58-3.07,4.01-3.93,1.44-.85,2.65-1.26,2.66-1.27,.03,.01,4.8,1.65,6.68,5.2Z"/><path d="M426.38,235.54c-.25,0-.5-.09-.69-.28l-5.22-5.01c-.4-.38-.41-1.02-.03-1.41,.38-.4,1.02-.41,1.41-.03l5.22,5.01c.4,.38,.41,1.02,.03,1.41-.2,.21-.46,.31-.72,.31Z"/><path d="M421.26,235.64c-.25,0-.5-.09-.69-.28-.4-.38-.41-1.02-.03-1.41l5.01-5.22c.38-.4,1.02-.41,1.41-.03,.4,.38,.41,1.02,.03,1.41l-5.01,5.22c-.2,.21-.46,.31-.72,.31Z"/><path d="M471.21,233.03h-47.44c-.55,0-1-.45-1-1s.45-1,1-1h47.44c.55,0,1,.45,1,1s-.45,1-1,1Z"/><path d="M505.86,202.92c-.28,0-.5-.22-.5-.5v-2c0-.28,.22-.5,.5-.5s.5,.22,.5,.5v2c0,.28-.22,.5-.5,.5Zm0-4c-.28,0-.5-.22-.5-.5v-2c0-.28,.22-.5,.5-.5s.5,.22,.5,.5v2c0,.28-.22,.5-.5,.5Zm0-4c-.28,0-.5-.22-.5-.5v-2c0-.28,.22-.5,.5-.5s.5,.22,.5,.5v2c0,.28-.22,.5-.5,.5Zm0-4c-.28,0-.5-.22-.5-.5v-2c0-.28,.22-.5,.5-.5s.5,.22,.5,.5v2c0,.28-.22,.5-.5,.5Zm0-4c-.28,0-.5-.22-.5-.5v-2c0-.28,.22-.5,.5-.5s.5,.22,.5,.5v2c0,.28-.22,.5-.5,.5Zm0-4c-.28,0-.5-.22-.5-.5v-2c0-.28,.22-.5,.5-.5s.5,.22,.5,.5v2c0,.28-.22,.5-.5,.5Zm0-4c-.28,0-.5-.22-.5-.5v-2c0-.28,.22-.5,.5-.5s.5,.22,.5,.5v2c0,.28-.22,.5-.5,.5Zm0-4c-.28,0-.5-.22-.5-.5v-2c0-.28,.22-.5,.5-.5s.5,.22,.5,.5v2c0,.28-.22,.5-.5,.5Zm0-4c-.28,0-.5-.22-.5-.5v-2c0-.28,.22-.5,.5-.5s.5,.22,.5,.5v2c0,.28-.22,.5-.5,.5Zm0-4c-.28,0-.5-.22-.5-.5v-2c0-.28,.22-.5,.5-.5s.5,.22,.5,.5v2c0,.28-.22,.5-.5,.5Zm0-4c-.28,0-.5-.22-.5-.5v-2c0-.28,.22-.5,.5-.5s.5,.22,.5,.5v2c0,.28-.22,.5-.5,.5Zm0-4c-.28,0-.5-.22-.5-.5v-2c0-.28,.22-.5,.5-.5s.5,.22,.5,.5v2c0,.28-.22,.5-.5,.5Zm0-4c-.28,0-.5-.22-.5-.5v-2c0-.28,.22-.5,.5-.5s.5,.22,.5,.5v2c0,.28-.22,.5-.5,.5Zm0-4c-.28,0-.5-.22-.5-.5v-2c0-.28,.22-.5,.5-.5s.5,.22,.5,.5v2c0,.28-.22,.5-.5,.5Zm0-4c-.28,0-.5-.22-.5-.5v-2c0-.28,.22-.5,.5-.5s.5,.22,.5,.5v2c0,.28-.22,.5-.5,.5Zm0-4c-.28,0-.5-.22-.5-.5v-2c0-.28,.22-.5,.5-.5s.5,.22,.5,.5v2c0,.28-.22,.5-.5,.5Zm0-4c-.28,0-.5-.22-.5-.5v-2c0-.28,.22-.5,.5-.5s.5,.22,.5,.5v2c0,.28-.22,.5-.5,.5Zm0-4c-.28,0-.5-.22-.5-.5v-2c0-.28,.22-.5,.5-.5s.5,.22,.5,.5v2c0,.28-.22,.5-.5,.5Zm0-4c-.28,0-.5-.22-.5-.5v-2c0-.28,.22-.5,.5-.5s.5,.22,.5,.5v2c0,.28-.22,.5-.5,.5Zm-1.77-2.23h-2c-.28,0-.5-.22-.5-.5s.22-.5,.5-.5h2c.28,0,.5,.22,.5,.5s-.22,.5-.5,.5Zm-4,0h-2c-.28,0-.5-.22-.5-.5s.22-.5,.5-.5h2c.28,0,.5,.22,.5,.5s-.22,.5-.5,.5Zm-4,0h-2c-.28,0-.5-.22-.5-.5s.22-.5,.5-.5h2c.28,0,.5,.22,.5,.5s-.22,.5-.5,.5Zm-4,0h-2c-.28,0-.5-.22-.5-.5s.22-.5,.5-.5h2c.28,0,.5,.22,.5,.5s-.22,.5-.5,.5Zm-4,0h-2c-.28,0-.5-.22-.5-.5s.22-.5,.5-.5h2c.28,0,.5,.22,.5,.5s-.22,.5-.5,.5Zm-4,0h-2c-.28,0-.5-.22-.5-.5s.22-.5,.5-.5h2c.28,0,.5,.22,.5,.5s-.22,.5-.5,.5Zm-4,0h-2c-.28,0-.5-.22-.5-.5s.22-.5,.5-.5h2c.28,0,.5,.22,.5,.5s-.22,.5-.5,.5Zm-4,0h-2c-.28,0-.5-.22-.5-.5s.22-.5,.5-.5h2c.28,0,.5,.22,.5,.5s-.22,.5-.5,.5Zm-4,0h-2c-.28,0-.5-.22-.5-.5s.22-.5,.5-.5h2c.28,0,.5,.22,.5,.5s-.22,.5-.5,.5Zm-4,0h-2c-.28,0-.5-.22-.5-.5s.22-.5,.5-.5h2c.28,0,.5,.22,.5,.5s-.22,.5-.5,.5Zm-4,0h-2c-.28,0-.5-.22-.5-.5s.22-.5,.5-.5h2c.28,0,.5,.22,.5,.5s-.22,.5-.5,.5Z"/><path d="M508.47,131.69c-.25,0-.5-.09-.69-.28l-5.22-5.01c-.4-.38-.41-1.02-.03-1.41,.38-.4,1.02-.41,1.41-.03l5.22,5.01c.4,.38,.41,1.02,.03,1.41-.2,.21-.46,.31-.72,.31Z"/><path d="M503.35,131.8c-.25,0-.5-.09-.69-.28-.4-.38-.41-1.02-.03-1.41l5.01-5.22c.38-.4,1.02-.41,1.41-.03,.4,.38,.41,1.02,.03,1.41l-5.01,5.22c-.2,.21-.46,.31-.72,.31Z"/><path d="M448.43,122.17c-.28,0-.5-.22-.5-.5v-1.04c0-.28,.22-.5,.5-.5s.5,.22,.5,.5v1.04c0,.28-.22,.5-.5,.5Zm0-3.04c-.28,0-.5-.22-.5-.5v-2c0-.28,.22-.5,.5-.5s.5,.22,.5,.5v2c0,.28-.22,.5-.5,.5Zm0-4c-.28,0-.5-.22-.5-.5v-2c0-.28,.22-.5,.5-.5s.5,.22,.5,.5v2c0,.28-.22,.5-.5,.5Zm0-4c-.28,0-.5-.22-.5-.5v-2c0-.28,.22-.5,.5-.5s.5,.22,.5,.5v2c0,.28-.22,.5-.5,.5Zm0-4c-.28,0-.5-.22-.5-.5v-2c0-.28,.22-.5,.5-.5s.5,.22,.5,.5v2c0,.28-.22,.5-.5,.5Zm0-4c-.28,0-.5-.22-.5-.5v-2c0-.28,.22-.5,.5-.5s.5,.22,.5,.5v2c0,.28-.22,.5-.5,.5Zm0-4c-.28,0-.5-.22-.5-.5v-2c0-.28,.22-.5,.5-.5s.5,.22,.5,.5v2c0,.28-.22,.5-.5,.5Zm0-4c-.28,0-.5-.22-.5-.5v-2c0-.28,.22-.5,.5-.5s.5,.22,.5,.5v2c0,.28-.22,.5-.5,.5Z"/><path class="cls-13" d="M590.87,74.36l2.69,10.61c.42,1.4,0,3.05-1.06,4.14l-7.29,8.34c-2.49,2.9-.71,7.38,3.16,7.57l10.87,.63c10.32,28.09-23.36,84.63-23.36,84.63,48.65-37.96,47.97-87,47.97-87l10.69-2.52c3.72-.84,4.88-5.62,1.93-7.91l-8.45-6.87c-1.16-.86-1.76-2.35-1.61-3.92l1.01-10.98c.39-3.79-3.85-6.29-7.06-4.24l-9.33,6.06c-1.32,.71-2.9,1.04-4.16,.36l-10.1-4.22c-3.18-1.46-6.78,1.78-5.89,5.32Z"/><path class="cls-19" d="M97.71,78.1l-.83,6.03c-.03,.85-.6,1.57-1.29,1.99l-5.33,2.84c-1.81,1.01-1.83,3.71-.02,4.55l5.48,2.65c.8,.37,1.22,1.06,1.34,1.85l1.01,6.01c.26,2.09,2.86,2.8,4.3,1.25l4.25-4.45c.63-.57,1.37-.85,2.21-.83l6.03,.94c2.09,.23,3.67-1.88,2.68-3.69l-2.93-5.29c-.42-.69-.44-1.68-.02-2.35l2.73-5.39c.99-1.88-.61-3.98-2.68-3.7l-5.92,1.21c-.79,.13-1.69-.04-2.25-.67l-4.24-4.3c-1.78-1.69-4.29-.75-4.53,1.36Z"/><path class="cls-16" d="M76.56,132.31l-4.98,9.36c-.56,1.37-1.93,2.21-3.3,2.49l-10.43,1.42c-3.57,.57-5.24,4.97-2.78,7.42l7.37,7.65c1.09,1.09,1.36,2.46,1.08,3.84l-1.97,10.44c-.84,3.57,2.99,6.3,6.29,4.63l9.63-4.71c1.37-.56,2.75-.56,4.12-.02l9.3,5.17c3.28,1.63,7.14-.86,6.61-4.42l-1.6-10.42c-.27-1.37,.29-3.02,1.39-3.85l7.72-7.17c2.76-2.48,1.41-6.87-2.16-7.67l-10.42-1.6c-1.37-.27-2.74-1.08-3.28-2.45l-4.34-9.58c-1.9-3.83-6.57-3.81-8.23-.51Z"/><circle class="cls-18" cx="510.81" cy="217.3" r="1.14"/><path d="M459.65,254.98c-.14,0-.28-.08-.34-.22-.99-2.26-2.81-4.14-2.83-4.16-.14-.15-.14-.39,0-.53s.39-.14,.53,0c.08,.08,1.93,2,2.98,4.38,.08,.19,0,.41-.19,.49-.05,.02-.1,.03-.15,.03Z"/><path class="cls-12" d="M528.95,373.4c-3.1,19.66-10.81,36.46-27.43,40.46-24.33,5.86-28.87-9.4-26.73-27.42,.53,9.19,3.12,18.62,11.53,20.44,29.53,6.38,42.28-32.23,42.63-33.48Z"/><path class="cls-70" d="M545.28,291.26c-18.98,2.81-32.16,11.54-32.16,11.54l-4.43-3.33s23.54-9.23,36.59-8.21Z"/><path class="cls-4" d="M501.53,477.19h0c-1.86-.17-3.68-.62-5.31-1.48,0,0-2.04,.73-1.45,3.79,0,0-10.15-11.63-19.71-29.28-6.21-11.46-9.94-30.39-9.97-49.71,2.26,7.52,5.94,17.83,9.97,20.98,6.56,5.12-2.36,4.77-3.42,2.96,.33,.83,11.13,27.63,29.89,52.74Z"/><path class="cls-42" d="M304.86,111.74c-.08,1.49-.57,2.87-1.36,4.04-1.01-.41-1.6-.14-3.57,.24-2.7,.51-7.16,.72-7.05-1.25,.08-1.62-2.21-1.35-3.72-1.38-.18-.66-.27-1.35-.27-2.07,0-1.99,.73-3.79,1.93-5.19,3.79-.37,5.06,1.59,3.72,2.94-1.56,1.55-.52,4.77,4.15,3.31,4.63-1.44,5.61-1.65,6.17-.64Z"/><path class="cls-41" d="M455.12,193.52v15.26s-3.1-4.04-6.68-4.72v-15.74s4.8,1.65,6.68,5.2Z"/><rect class="cls-43" x="118.05" y="13.78" width="456.31" height="13.77"/></g></g></g></g></svg>