<?xml version="1.0" encoding="UTF-8"?><svg xmlns="http://www.w3.org/2000/svg" xmlns:xlink="http://www.w3.org/1999/xlink" viewBox="0 0 775.02 388.2"><defs><style>.cls-1{fill:url(#linear-gradient-132);}.cls-1,.cls-2,.cls-3,.cls-4,.cls-5,.cls-6,.cls-7,.cls-8,.cls-9{opacity:.51;}.cls-2{fill:url(#linear-gradient-133);}.cls-3{fill:url(#linear-gradient-107);}.cls-4{fill:url(#linear-gradient-138);}.cls-5{fill:url(#linear-gradient-155);}.cls-10{fill:url(#linear-gradient-140);}.cls-10,.cls-11,.cls-12,.cls-13,.cls-14,.cls-15,.cls-16,.cls-17,.cls-18,.cls-19,.cls-20,.cls-21,.cls-22{opacity:.35;}.cls-11{fill:url(#linear-gradient-141);}.cls-12{fill:url(#linear-gradient-148);}.cls-13{fill:url(#linear-gradient-126);}.cls-14{fill:url(#linear-gradient-109);}.cls-15{fill:url(#linear-gradient-108);}.cls-16{fill:url(#linear-gradient-103);}.cls-17{fill:url(#linear-gradient-105);}.cls-23{fill:url(#linear-gradient);}.cls-24{fill:url(#linear-gradient-137);}.cls-25{fill:url(#linear-gradient-130);}.cls-26{fill:url(#linear-gradient-135);}.cls-27{fill:url(#linear-gradient-131);}.cls-28{fill:url(#linear-gradient-136);}.cls-29{fill:url(#linear-gradient-134);}.cls-30{fill:url(#linear-gradient-139);}.cls-31{fill:url(#linear-gradient-118);}.cls-32{fill:url(#linear-gradient-111);}.cls-33{fill:url(#linear-gradient-112);}.cls-34{fill:url(#linear-gradient-127);}.cls-35{fill:url(#linear-gradient-110);}.cls-36{fill:url(#linear-gradient-113);}.cls-37{fill:url(#linear-gradient-119);}.cls-38{fill:url(#linear-gradient-106);}.cls-39{fill:url(#linear-gradient-104);}.cls-40{fill:url(#linear-gradient-102);}.cls-41{fill:url(#linear-gradient-123);}.cls-42{fill:url(#linear-gradient-129);}.cls-43{fill:url(#linear-gradient-122);}.cls-44{fill:url(#linear-gradient-121);}.cls-45{fill:url(#linear-gradient-101);}.cls-46{fill:url(#linear-gradient-100);}.cls-47{fill:url(#linear-gradient-125);}.cls-48{fill:url(#linear-gradient-124);}.cls-49{fill:url(#linear-gradient-120);}.cls-50{fill:url(#linear-gradient-157);}.cls-51{fill:url(#linear-gradient-154);}.cls-52{fill:url(#linear-gradient-152);}.cls-53{fill:url(#linear-gradient-151);}.cls-54{fill:url(#linear-gradient-156);}.cls-55{fill:url(#linear-gradient-150);}.cls-56{fill:url(#linear-gradient-153);}.cls-57{fill:url(#linear-gradient-161);}.cls-58{fill:url(#linear-gradient-162);}.cls-59{fill:url(#linear-gradient-160);}.cls-60{fill:url(#linear-gradient-159);}.cls-61{fill:url(#linear-gradient-158);}.cls-62{fill:url(#linear-gradient-144);}.cls-63{fill:url(#linear-gradient-145);}.cls-64{fill:url(#linear-gradient-149);}.cls-65{fill:url(#linear-gradient-146);}.cls-66{fill:url(#linear-gradient-143);}.cls-67{fill:url(#linear-gradient-169);}.cls-68{fill:url(#linear-gradient-147);}.cls-69{fill:url(#linear-gradient-142);}.cls-70{fill:url(#linear-gradient-168);}.cls-71{fill:url(#linear-gradient-170);}.cls-72{fill:url(#linear-gradient-65);}.cls-72,.cls-73,.cls-74,.cls-75,.cls-76,.cls-77,.cls-78,.cls-79,.cls-80,.cls-81,.cls-82,.cls-83,.cls-84,.cls-85,.cls-86,.cls-87{mix-blend-mode:multiply;opacity:.42;}.cls-73{fill:url(#linear-gradient-97);}.cls-74{fill:url(#linear-gradient-96);}.cls-75{fill:url(#linear-gradient-94);}.cls-76{fill:url(#linear-gradient-95);}.cls-77{fill:url(#linear-gradient-98);}.cls-88{fill:url(#linear-gradient-42);opacity:.36;}.cls-18{fill:url(#linear-gradient-22);}.cls-19{fill:url(#linear-gradient-77);}.cls-20{fill:url(#linear-gradient-99);}.cls-21{fill:url(#linear-gradient-83);}.cls-22{fill:url(#linear-gradient-81);}.cls-89{fill:url(#linear-gradient-8);}.cls-90{fill:url(#linear-gradient-9);}.cls-91{fill:url(#linear-gradient-3);}.cls-92{fill:url(#linear-gradient-4);}.cls-93{fill:url(#linear-gradient-2);}.cls-94{fill:url(#linear-gradient-6);}.cls-95{fill:url(#linear-gradient-7);}.cls-96{fill:url(#linear-gradient-5);}.cls-97{fill:url(#linear-gradient-19);}.cls-97,.cls-98{opacity:.13;}.cls-98{fill:url(#linear-gradient-40);}.cls-6{fill:url(#linear-gradient-75);}.cls-7{fill:url(#linear-gradient-69);}.cls-8{fill:url(#linear-gradient-70);}.cls-9{fill:url(#linear-gradient-90);}.cls-99{fill:url(#linear-gradient-59);}.cls-100{fill:url(#linear-gradient-57);}.cls-101{fill:url(#linear-gradient-58);}.cls-102{fill:url(#linear-gradient-55);}.cls-103{fill:url(#linear-gradient-56);}.cls-104{fill:url(#linear-gradient-53);}.cls-105{fill:url(#linear-gradient-54);}.cls-106{fill:url(#linear-gradient-51);}.cls-107{fill:url(#linear-gradient-52);}.cls-108{fill:url(#linear-gradient-50);}.cls-109{fill:url(#linear-gradient-78);}.cls-110{fill:url(#linear-gradient-79);}.cls-111{fill:url(#linear-gradient-74);}.cls-112{fill:url(#linear-gradient-76);}.cls-113{fill:url(#linear-gradient-71);}.cls-114{fill:url(#linear-gradient-72);}.cls-115{fill:url(#linear-gradient-73);}.cls-116{fill:url(#linear-gradient-68);}.cls-117{fill:url(#linear-gradient-67);}.cls-118{fill:url(#linear-gradient-64);}.cls-119{fill:url(#linear-gradient-63);}.cls-120{fill:url(#linear-gradient-66);}.cls-121{fill:url(#linear-gradient-60);}.cls-122{fill:url(#linear-gradient-62);}.cls-123{fill:url(#linear-gradient-61);}.cls-124{fill:url(#linear-gradient-91);}.cls-125{fill:url(#linear-gradient-92);}.cls-126{fill:url(#linear-gradient-93);}.cls-127{fill:url(#linear-gradient-80);}.cls-128{fill:url(#linear-gradient-88);}.cls-129{fill:url(#linear-gradient-89);}.cls-130{fill:url(#linear-gradient-87);}.cls-131{fill:url(#linear-gradient-86);}.cls-132{fill:url(#linear-gradient-85);}.cls-133{fill:url(#linear-gradient-84);}.cls-134{fill:url(#linear-gradient-82);}.cls-135{fill:url(#linear-gradient-41);}.cls-136{fill:url(#linear-gradient-43);}.cls-137{fill:url(#linear-gradient-45);}.cls-138{fill:url(#linear-gradient-46);}.cls-139{fill:url(#linear-gradient-44);}.cls-140{fill:url(#linear-gradient-49);}.cls-141{fill:url(#linear-gradient-47);}.cls-142{fill:url(#linear-gradient-48);}.cls-143{fill:url(#linear-gradient-14);}.cls-144{fill:url(#linear-gradient-18);}.cls-145{fill:url(#linear-gradient-20);}.cls-146{fill:url(#linear-gradient-21);}.cls-147{fill:url(#linear-gradient-23);}.cls-148{fill:url(#linear-gradient-15);}.cls-149{fill:url(#linear-gradient-16);}.cls-150{fill:url(#linear-gradient-17);}.cls-151{fill:url(#linear-gradient-13);}.cls-152{fill:url(#linear-gradient-12);}.cls-153{fill:url(#linear-gradient-10);}.cls-154{fill:url(#linear-gradient-11);}.cls-155{fill:url(#linear-gradient-27);}.cls-156{fill:url(#linear-gradient-24);}.cls-157{fill:url(#linear-gradient-26);}.cls-158{fill:url(#linear-gradient-38);}.cls-159{fill:url(#linear-gradient-35);}.cls-160{fill:url(#linear-gradient-37);}.cls-161{fill:url(#linear-gradient-34);}.cls-162{fill:url(#linear-gradient-39);}.cls-163{fill:url(#linear-gradient-36);}.cls-164{fill:url(#linear-gradient-25);}.cls-165{fill:url(#linear-gradient-28);}.cls-166{fill:url(#linear-gradient-29);}.cls-167{fill:url(#linear-gradient-33);}.cls-168{fill:url(#linear-gradient-30);}.cls-169{fill:url(#linear-gradient-32);}.cls-170{fill:url(#linear-gradient-31);}.cls-171{isolation:isolate;}.cls-78{fill:url(#linear-gradient-115);}.cls-79{fill:url(#linear-gradient-116);}.cls-80{fill:url(#linear-gradient-114);}.cls-81{fill:url(#linear-gradient-128);}.cls-82{fill:url(#linear-gradient-117);}.cls-83{fill:url(#linear-gradient-167);}.cls-84{fill:url(#linear-gradient-165);}.cls-85{fill:url(#linear-gradient-164);}.cls-86{fill:url(#linear-gradient-163);}.cls-87{fill:url(#linear-gradient-166);}</style><linearGradient id="linear-gradient" x1="627.13" y1="126.39" x2="871.12" y2="653.86" gradientTransform="matrix(1, 0, 0, 1, 0, 0)" gradientUnits="userSpaceOnUse"><stop offset=".06" stop-color="#fff"/><stop offset=".19" stop-color="#fcfdff"/><stop offset=".26" stop-color="#f5f8ff"/><stop offset=".31" stop-color="#e8f0ff"/><stop offset=".35" stop-color="#d5e5ff"/><stop offset=".36" stop-color="#ccdfff"/><stop offset=".6" stop-color="#a5c6ff"/><stop offset=".73" stop-color="#96bdff"/></linearGradient><linearGradient id="linear-gradient-2" x1="-5690.12" y1="196.08" x2="-5725.01" y2="217.27" gradientTransform="translate(-5032.47) rotate(-180) scale(1 -1)" gradientUnits="userSpaceOnUse"><stop offset=".19" stop-color="#ffd33d"/><stop offset="1" stop-color="#f1535b"/></linearGradient><linearGradient id="linear-gradient-3" x1="-5693.29" y1="85.73" x2="-5652.76" y2="368.26" xlink:href="#linear-gradient-2"/><linearGradient id="linear-gradient-4" x1="-5696.49" y1="102.97" x2="-5589.16" y2="505.31" xlink:href="#linear-gradient-2"/><linearGradient id="linear-gradient-5" x1="-5670.77" y1="73.1" x2="-5708.59" y2="109.21" xlink:href="#linear-gradient-2"/><linearGradient id="linear-gradient-6" x1="-5657.91" y1="95.07" x2="-5696.52" y2="129.56" xlink:href="#linear-gradient-2"/><linearGradient id="linear-gradient-7" x1="-5635.3" y1="105.96" x2="-5668.24" y2="131.44" xlink:href="#linear-gradient-2"/><linearGradient id="linear-gradient-8" x1="-5617.18" y1="121.13" x2="-5644.46" y2="136.57" xlink:href="#linear-gradient-2"/><linearGradient id="linear-gradient-9" x1="-5614" y1="118.02" x2="-5640" y2="141.96" xlink:href="#linear-gradient-2"/><linearGradient id="linear-gradient-10" x1="698.91" y1="99.72" x2="741.34" y2="372.13" gradientTransform="matrix(1, 0, 0, 1, 0, 0)" gradientUnits="userSpaceOnUse"><stop offset="0" stop-color="#8e3bcb"/><stop offset=".9" stop-color="#0f1536"/></linearGradient><linearGradient id="linear-gradient-11" x1="661.35" y1="90.61" x2="721.6" y2="283.19" gradientTransform="matrix(1, 0, 0, 1, 0, 0)" xlink:href="#linear-gradient-2"/><linearGradient id="linear-gradient-12" x1="649.38" y1="114.69" x2="670.94" y2="250.05" xlink:href="#linear-gradient-10"/><linearGradient id="linear-gradient-13" x1="630.17" y1="117.75" x2="651.74" y2="253.11" xlink:href="#linear-gradient-10"/><linearGradient id="linear-gradient-14" x1="614.28" y1="120.29" x2="635.84" y2="255.64" xlink:href="#linear-gradient-10"/><linearGradient id="linear-gradient-15" x1="920.1" y1="187.18" x2="616.4" y2="293.87" gradientTransform="matrix(1, 0, 0, 1, 0, 0)" gradientUnits="userSpaceOnUse"><stop offset=".06" stop-color="#fff"/><stop offset=".17" stop-color="#ccdfff"/><stop offset=".6" stop-color="#a5c6ff"/><stop offset=".73" stop-color="#96bdff"/></linearGradient><linearGradient id="linear-gradient-16" x1="562.76" y1="20.85" x2="733.2" y2="251.45" xlink:href="#linear-gradient-15"/><linearGradient id="linear-gradient-17" x1="652.68" y1="163.21" x2="603.73" y2="389.98" xlink:href="#linear-gradient"/><linearGradient id="linear-gradient-18" x1="-5635.68" y1="177.33" x2="-5702.24" y2="578.96" gradientTransform="translate(-5032.47) rotate(-180) scale(1 -1)" gradientUnits="userSpaceOnUse"><stop offset=".27" stop-color="#ccdfff"/><stop offset=".6" stop-color="#a5c6ff"/><stop offset=".73" stop-color="#96bdff"/></linearGradient><linearGradient id="linear-gradient-19" x1="575.93" y1="274.4" x2="640.54" y2="274.4" xlink:href="#linear-gradient-10"/><linearGradient id="linear-gradient-20" x1="571.72" y1="254.49" x2="572.44" y2="252.87" gradientTransform="matrix(1, 0, 0, 1, 0, 0)" gradientUnits="userSpaceOnUse"><stop offset=".06" stop-color="#f4cc98"/><stop offset=".1" stop-color="#aa6834"/><stop offset=".2" stop-color="#a56034"/><stop offset=".42" stop-color="#9f5634"/><stop offset=".7" stop-color="#9d5334"/></linearGradient><linearGradient id="linear-gradient-21" x1="648.85" y1="165.71" x2="602.93" y2="203.16" gradientTransform="matrix(1, 0, 0, 1, 0, 0)" gradientUnits="userSpaceOnUse"><stop offset=".18" stop-color="#f2ce96"/><stop offset=".22" stop-color="#f2cd97"/><stop offset=".74" stop-color="#ffc4a6"/></linearGradient><linearGradient id="linear-gradient-22" x1="615.84" y1="102.73" x2="598.86" y2="212.92" gradientTransform="matrix(1, 0, 0, 1, 0, 0)" gradientUnits="userSpaceOnUse"><stop offset=".39" stop-color="#aa6834"/><stop offset=".43" stop-color="#a36031"/><stop offset=".63" stop-color="#854127"/><stop offset=".74" stop-color="#7a3524"/></linearGradient><linearGradient id="linear-gradient-23" x1="52.13" y1="82.39" x2="341.7" y2="708.4" xlink:href="#linear-gradient"/><linearGradient id="linear-gradient-24" x1="117.37" y1="196.08" x2="82.49" y2="217.27" gradientTransform="matrix(1, 0, 0, 1, 0, 0)" xlink:href="#linear-gradient-2"/><linearGradient id="linear-gradient-25" x1="114.2" y1="85.73" x2="154.73" y2="368.26" gradientTransform="matrix(1, 0, 0, 1, 0, 0)" xlink:href="#linear-gradient-2"/><linearGradient id="linear-gradient-26" x1="111" y1="102.97" x2="218.33" y2="505.31" gradientTransform="matrix(1, 0, 0, 1, 0, 0)" xlink:href="#linear-gradient-2"/><linearGradient id="linear-gradient-27" x1="136.73" y1="73.1" x2="98.9" y2="109.21" gradientTransform="matrix(1, 0, 0, 1, 0, 0)" xlink:href="#linear-gradient-2"/><linearGradient id="linear-gradient-28" x1="149.58" y1="95.07" x2="110.97" y2="129.56" gradientTransform="matrix(1, 0, 0, 1, 0, 0)" xlink:href="#linear-gradient-2"/><linearGradient id="linear-gradient-29" x1="172.19" y1="105.96" x2="139.25" y2="131.44" gradientTransform="matrix(1, 0, 0, 1, 0, 0)" xlink:href="#linear-gradient-2"/><linearGradient id="linear-gradient-30" x1="190.31" y1="121.13" x2="163.03" y2="136.57" gradientTransform="matrix(1, 0, 0, 1, 0, 0)" xlink:href="#linear-gradient-2"/><linearGradient id="linear-gradient-31" x1="193.49" y1="118.02" x2="167.49" y2="141.96" gradientTransform="matrix(1, 0, 0, 1, 0, 0)" xlink:href="#linear-gradient-2"/><linearGradient id="linear-gradient-32" x1="105.04" y1="38.24" x2="66.08" y2="149.03" gradientTransform="matrix(1, 0, 0, 1, 0, 0)" xlink:href="#linear-gradient-2"/><linearGradient id="linear-gradient-33" x1="130.89" y1="47.33" x2="91.93" y2="158.12" gradientTransform="matrix(1, 0, 0, 1, 0, 0)" xlink:href="#linear-gradient-2"/><linearGradient id="linear-gradient-34" x1="152.75" y1="55.02" x2="113.79" y2="165.81" gradientTransform="matrix(1, 0, 0, 1, 0, 0)" xlink:href="#linear-gradient-2"/><linearGradient id="linear-gradient-35" x1="170.97" y1="61.43" x2="132.01" y2="172.21" gradientTransform="matrix(1, 0, 0, 1, 0, 0)" xlink:href="#linear-gradient-2"/><linearGradient id="linear-gradient-36" x1="186" y1="66.71" x2="147.04" y2="177.5" gradientTransform="matrix(1, 0, 0, 1, 0, 0)" xlink:href="#linear-gradient-2"/><linearGradient id="linear-gradient-37" x1="159.77" y1="205.61" x2="-49.7" y2="279.19" xlink:href="#linear-gradient-15"/><linearGradient id="linear-gradient-38" x1="191.69" y1="120.71" x2="128.79" y2="412.06" xlink:href="#linear-gradient"/><linearGradient id="linear-gradient-39" x1="171.81" y1="177.33" x2="105.25" y2="578.96" gradientTransform="matrix(1, 0, 0, 1, 0, 0)" xlink:href="#linear-gradient-18"/><linearGradient id="linear-gradient-40" x1="137.03" y1="287.81" x2="216.23" y2="287.81" xlink:href="#linear-gradient-10"/><linearGradient id="linear-gradient-41" x1="378.76" y1="24.86" x2="389.12" y2="495.11" xlink:href="#linear-gradient"/><linearGradient id="linear-gradient-42" x1="379.45" y1="48.29" x2="388.21" y2="137.13" xlink:href="#linear-gradient-10"/><linearGradient id="linear-gradient-43" x1="460.08" y1="89.5" x2="414.25" y2="375.17" gradientTransform="translate(559.85 -301.19) rotate(83.6)" xlink:href="#linear-gradient-10"/><linearGradient id="linear-gradient-44" x1="467.66" y1="63.51" x2="436.89" y2="222.99" gradientTransform="translate(560.8 -300.36) rotate(83.6)" xlink:href="#linear-gradient-2"/><linearGradient id="linear-gradient-45" x1="486.99" y1="100.06" x2="411.65" y2="223.74" gradientTransform="translate(560.8 -300.36) rotate(83.6)" xlink:href="#linear-gradient-10"/><linearGradient id="linear-gradient-46" x1="376.94" y1="115.95" x2="395.3" y2="576.86" xlink:href="#linear-gradient"/><linearGradient id="linear-gradient-47" x1="391.3" y1="113.56" x2="369.97" y2="428.32" gradientTransform="matrix(1, 0, 0, 1, 0, 0)" xlink:href="#linear-gradient-18"/><linearGradient id="linear-gradient-48" x1="302.38" y1="132.5" x2="284.02" y2="403.48" gradientTransform="matrix(1, 0, 0, 1, 0, 0)" xlink:href="#linear-gradient-18"/><linearGradient id="linear-gradient-49" x1="480" y1="144.73" x2="461.64" y2="415.71" gradientTransform="matrix(1, 0, 0, 1, 0, 0)" xlink:href="#linear-gradient-18"/><linearGradient id="linear-gradient-50" x1="332.66" y1="94.21" x2="330.98" y2="208.17" gradientTransform="matrix(1, 0, 0, 1, 0, 0)" xlink:href="#linear-gradient-2"/><linearGradient id="linear-gradient-51" x1="331.17" y1="28.63" x2="331.17" y2="301.11" gradientTransform="matrix(1, 0, 0, 1, 0, 0)" xlink:href="#linear-gradient-2"/><linearGradient id="linear-gradient-52" x1="336.22" y1="81.87" x2="336.22" y2="386.4" gradientTransform="matrix(1, 0, 0, 1, 0, 0)" xlink:href="#linear-gradient-2"/><linearGradient id="linear-gradient-53" x1="443.74" y1="-151.81" x2="250" y2="518.73" xlink:href="#linear-gradient-10"/><linearGradient id="linear-gradient-54" x1="433.71" y1="-61.4" x2="311.46" y2="225.83" xlink:href="#linear-gradient-10"/><linearGradient id="linear-gradient-55" x1="329.16" y1="1.97" x2="326.18" y2="122.6" xlink:href="#linear-gradient"/><linearGradient id="linear-gradient-56" x1="332.23" y1="-20.23" x2="324.68" y2="162.97" gradientTransform="matrix(1, 0, 0, 1, 0, 0)" xlink:href="#linear-gradient-2"/><linearGradient id="linear-gradient-57" x1="311.9" y1="-3.29" x2="310.24" y2="78.87" gradientTransform="matrix(1, 0, 0, 1, 0, 0)" xlink:href="#linear-gradient-2"/><linearGradient id="linear-gradient-58" x1="312.15" y1="-3.31" x2="310.49" y2="78.86" gradientTransform="matrix(1, 0, 0, 1, 0, 0)" xlink:href="#linear-gradient-2"/><linearGradient id="linear-gradient-59" x1="312.39" y1="-3.32" x2="310.74" y2="78.84" gradientTransform="matrix(1, 0, 0, 1, 0, 0)" xlink:href="#linear-gradient-2"/><linearGradient id="linear-gradient-60" x1="371.32" y1="45.76" x2="314.45" y2="160.83" xlink:href="#linear-gradient"/><linearGradient id="linear-gradient-61" x1="388.54" y1="17.01" x2="347.54" y2="91.41" gradientTransform="matrix(1, 0, 0, 1, 0, 0)" xlink:href="#linear-gradient-2"/><linearGradient id="linear-gradient-62" x1="505.68" y1="-6.65" x2="405.2" y2="82.66" gradientTransform="matrix(1, 0, 0, 1, 0, 0)" xlink:href="#linear-gradient-2"/><linearGradient id="linear-gradient-63" x1="614.09" y1="-81.2" x2="229.39" y2="212.52" gradientTransform="matrix(1, 0, 0, 1, 0, 0)" xlink:href="#linear-gradient-2"/><linearGradient id="linear-gradient-64" x1="-4831.7" y1="314.13" x2="-4827.31" y2="394.86" gradientTransform="translate(-4214.81) rotate(-180) scale(1 -1) skewX(2.96)" xlink:href="#linear-gradient-21"/><linearGradient id="linear-gradient-65" x1="-4815.26" y1="348.6" x2="-4808.55" y2="404.36" gradientTransform="translate(-4214.81) rotate(-180) scale(1 -1) skewX(2.96)" xlink:href="#linear-gradient-21"/><linearGradient id="linear-gradient-66" x1="-4791.68" y1="301.97" x2="-4786.48" y2="397.58" gradientTransform="translate(-4214.81) rotate(-180) scale(1 -1) skewX(2.96)" xlink:href="#linear-gradient-21"/><linearGradient id="linear-gradient-67" x1="-4695.97" y1="169.64" x2="-4743.5" y2="411" gradientTransform="translate(-4214.81) rotate(-180) scale(1 -1) skewX(2.96)" xlink:href="#linear-gradient-20"/><linearGradient id="linear-gradient-68" x1="-4688.3" y1="179.73" x2="-4756.02" y2="403.7" gradientTransform="translate(-4214.81) rotate(-180) scale(1 -1) skewX(2.96)" gradientUnits="userSpaceOnUse"><stop offset=".15" stop-color="#f5cc8f"/><stop offset=".16" stop-color="#f4cc98"/><stop offset=".39" stop-color="#aa6834"/><stop offset=".43" stop-color="#a36031"/><stop offset=".63" stop-color="#854127"/><stop offset=".74" stop-color="#7a3524"/></linearGradient><linearGradient id="linear-gradient-69" x1="-4650.78" y1="190.48" x2="-4737.72" y2="302.66" xlink:href="#linear-gradient-68"/><linearGradient id="linear-gradient-70" x1="-4745.38" y1="228.16" x2="-4735.85" y2="337.55" xlink:href="#linear-gradient-68"/><linearGradient id="linear-gradient-71" x1="-4706.87" y1="223.99" x2="-4645.23" y2="417.76" gradientTransform="translate(-4214.81) rotate(-180) scale(1 -1) skewX(2.96)" gradientUnits="userSpaceOnUse"><stop offset=".14" stop-color="#f5cd8f"/><stop offset=".37" stop-color="#f4cc98"/><stop offset=".55" stop-color="#aa6834"/><stop offset=".75" stop-color="#9d5334"/></linearGradient><linearGradient id="linear-gradient-72" x1="-4734.22" y1="232.69" x2="-4672.59" y2="426.46" xlink:href="#linear-gradient-71"/><linearGradient id="linear-gradient-73" x1="-4747.38" y1="236.87" x2="-4685.74" y2="430.64" xlink:href="#linear-gradient-71"/><linearGradient id="linear-gradient-74" x1="601.86" y1="126.07" x2="561.84" y2="254.82" xlink:href="#linear-gradient-20"/><linearGradient id="linear-gradient-75" x1="-4770.81" y1="291.25" x2="-4871.57" y2="361.99" xlink:href="#linear-gradient-68"/><linearGradient id="linear-gradient-76" x1="-4790.49" y1="413.36" x2="-4801.02" y2="-104.85" xlink:href="#linear-gradient-71"/><linearGradient id="linear-gradient-77" x1="619.06" y1="144.14" x2="623.58" y2="211.44" gradientTransform="translate(-62.03) skewX(-2.96)" xlink:href="#linear-gradient-22"/><linearGradient id="linear-gradient-78" x1="-4792.33" y1="123.42" x2="-4796.98" y2="148.02" gradientTransform="translate(-4214.81) rotate(-180) scale(1 -1) skewX(2.96)" gradientUnits="userSpaceOnUse"><stop offset=".15" stop-color="#ffd33d"/><stop offset=".16" stop-color="#fdd250"/><stop offset=".2" stop-color="#f8cf77"/><stop offset=".24" stop-color="#f5cd8f"/><stop offset=".26" stop-color="#f4cc98"/><stop offset=".48" stop-color="#aa6834"/><stop offset=".7" stop-color="#9d5334"/></linearGradient><linearGradient id="linear-gradient-79" x1="575.43" y1="117.92" x2="535.37" y2="246.77" gradientTransform="matrix(1, 0, 0, 1, 0, 0)" gradientUnits="userSpaceOnUse"><stop offset=".08" stop-color="#aa6834"/><stop offset=".73" stop-color="#9d5334"/></linearGradient><linearGradient id="linear-gradient-80" x1="-4796.91" y1="226.56" x2="-4759.7" y2="39" gradientTransform="translate(-4214.81) rotate(-180) scale(1 -1) skewX(2.96)" gradientUnits="userSpaceOnUse"><stop offset=".28" stop-color="#f4cc98"/><stop offset=".51" stop-color="#aa6834"/><stop offset=".75" stop-color="#9d5334"/></linearGradient><linearGradient id="linear-gradient-81" x1="534.04" y1="123.9" x2="528.22" y2="161.66" xlink:href="#linear-gradient-22"/><linearGradient id="linear-gradient-82" x1="-4743.83" y1="125.64" x2="-4752.19" y2="163.85" xlink:href="#linear-gradient-78"/><linearGradient id="linear-gradient-83" x1="-4813.62" y1="234.94" x2="-4788.57" y2="343.95" xlink:href="#linear-gradient-68"/><linearGradient id="linear-gradient-84" x1="-4711.83" y1="332.31" x2="-4737.99" y2="390.97" gradientTransform="translate(-3262.88 -2556.49) rotate(-148.47) scale(1 -1) skewX(2.93)" gradientUnits="userSpaceOnUse"><stop offset="0" stop-color="#fff"/><stop offset="1" stop-color="#000"/></linearGradient><linearGradient id="linear-gradient-85" x1="-4704.6" y1="314.06" x2="-4729.77" y2="350.9" gradientTransform="translate(-2761.81 -3153.67) rotate(-138.96) scale(1 -1) skewX(2.93)" xlink:href="#linear-gradient-84"/><linearGradient id="linear-gradient-86" x1="-4800.33" y1="196.08" x2="-4829.1" y2="260.6" gradientTransform="translate(-3449.38 -2433.78) rotate(-149.05) scale(1 -1) skewX(2.96)" xlink:href="#linear-gradient-84"/><linearGradient id="linear-gradient-87" x1="-4795.12" y1="179.05" x2="-4822.8" y2="219.57" gradientTransform="translate(-2744.16 -3287.06) rotate(-135.74) scale(1 -1) skewX(2.96)" xlink:href="#linear-gradient-84"/><linearGradient id="linear-gradient-88" x1="-4798.56" y1="179.14" x2="-4798.19" y2="199.77" gradientTransform="translate(-4214.81) rotate(-180) scale(1 -1) skewX(2.96)" gradientUnits="userSpaceOnUse"><stop offset=".23" stop-color="#a42c38"/><stop offset=".52" stop-color="#9d2e39"/><stop offset="1" stop-color="#99303a"/></linearGradient><linearGradient id="linear-gradient-89" x1="-4798.51" y1="176.55" x2="-4795.97" y2="214.38" gradientTransform="translate(-4214.81) rotate(-180) scale(1 -1) skewX(2.96)" gradientUnits="userSpaceOnUse"><stop offset=".31" stop-color="#ff5e7b"/><stop offset=".4" stop-color="#f45974"/><stop offset=".58" stop-color="#d74c64"/><stop offset=".81" stop-color="#a8374a"/><stop offset="1" stop-color="#7b2331"/></linearGradient><linearGradient id="linear-gradient-90" x1="-4846.17" y1="264.19" x2="-4707.7" y2="348.61" xlink:href="#linear-gradient-68"/><linearGradient id="linear-gradient-91" x1="1412.79" y1="105.12" x2="1400.21" y2="220.49" gradientTransform="translate(-916.82 18.24) rotate(1.82) skewX(-2.96)" gradientUnits="userSpaceOnUse"><stop offset=".46" stop-color="#ffd33d"/><stop offset="1" stop-color="#f1535b"/></linearGradient><linearGradient id="linear-gradient-92" x1="991.9" y1="747" x2="997.63" y2="797.11" gradientTransform="translate(-616.95 -329.24) rotate(-12.24) scale(1.01 .99) skewX(-2.66)" xlink:href="#linear-gradient-91"/><linearGradient id="linear-gradient-93" x1="-2869.9" y1="1648.85" x2="-2951.48" y2="1677.03" gradientTransform="translate(-2792.26 1011.39) rotate(137.51) scale(1.03 -.97) skewX(.18)" gradientUnits="userSpaceOnUse"><stop offset="0" stop-color="#ffd33d"/><stop offset="1" stop-color="#f1535b"/></linearGradient><linearGradient id="linear-gradient-94" x1="-4808.17" y1="366.6" x2="-4807.4" y2="380.77" gradientTransform="translate(-4214.81) rotate(-180) scale(1 -1) skewX(2.96)" xlink:href="#linear-gradient-21"/><linearGradient id="linear-gradient-95" x1="-4800.92" y1="368.92" x2="-4800.31" y2="380.06" gradientTransform="translate(-4214.81) rotate(-180) scale(1 -1) skewX(2.96)" xlink:href="#linear-gradient-21"/><linearGradient id="linear-gradient-96" x1="-4845.18" y1="364.63" x2="-4844.3" y2="380.83" gradientTransform="translate(-4214.81) rotate(-180) scale(1 -1) skewX(2.96)" xlink:href="#linear-gradient-21"/><linearGradient id="linear-gradient-97" x1="-4849.47" y1="364.63" x2="-4848.59" y2="380.83" gradientTransform="translate(-4214.81) rotate(-180) scale(1 -1) skewX(2.96)" xlink:href="#linear-gradient-21"/><linearGradient id="linear-gradient-98" x1="-4841.05" y1="367.03" x2="-4840.33" y2="380.26" gradientTransform="translate(-4214.81) rotate(-180) scale(1 -1) skewX(2.96)" xlink:href="#linear-gradient-21"/><linearGradient id="linear-gradient-99" x1="478.73" y1="298.44" x2="573.08" y2="225.95" xlink:href="#linear-gradient-22"/><linearGradient id="linear-gradient-100" x1="341.3" y1="248.86" x2="331.33" y2="276.1" gradientTransform="matrix(1, 0, 0, 1, 0, 0)" gradientUnits="userSpaceOnUse"><stop offset=".02" stop-color="#f2ce96"/><stop offset=".07" stop-color="#f2cd97"/><stop offset=".59" stop-color="#ffc4a6"/></linearGradient><linearGradient id="linear-gradient-101" x1="426.7" y1="231.15" x2="439.29" y2="166.86" xlink:href="#linear-gradient-21"/><linearGradient id="linear-gradient-102" x1="351.87" y1="80.9" x2="337.04" y2="328.08" gradientTransform="matrix(1, 0, 0, 1, 0, 0)" gradientUnits="userSpaceOnUse"><stop offset=".16" stop-color="#f4cc98"/><stop offset=".2" stop-color="#aa6834"/><stop offset=".5" stop-color="#9d5334"/></linearGradient><linearGradient id="linear-gradient-103" x1="315.81" y1="232.92" x2="338.24" y2="236.88" gradientTransform="matrix(1, 0, 0, 1, 0, 0)" xlink:href="#linear-gradient-68"/><linearGradient id="linear-gradient-104" x1="432.61" y1="130.11" x2="401.78" y2="295.91" xlink:href="#linear-gradient-102"/><linearGradient id="linear-gradient-105" x1="433.51" y1="168.81" x2="413.64" y2="258.88" gradientTransform="matrix(1, 0, 0, 1, 0, 0)" xlink:href="#linear-gradient-68"/><linearGradient id="linear-gradient-106" x1="391.47" y1="83.28" x2="376.64" y2="330.45" xlink:href="#linear-gradient-102"/><linearGradient id="linear-gradient-107" x1="377.62" y1="125.02" x2="376.85" y2="372.86" gradientTransform="matrix(1, 0, 0, 1, 0, 0)" gradientUnits="userSpaceOnUse"><stop offset=".15" stop-color="#f5cc8f"/><stop offset=".16" stop-color="#f4cc98"/><stop offset=".32" stop-color="#aa6834"/><stop offset=".56" stop-color="#854127" stop-opacity="0"/><stop offset=".74" stop-color="#7a3524"/></linearGradient><linearGradient id="linear-gradient-108" x1="366.48" y1="273.04" x2="366.48" y2="340.78" gradientTransform="matrix(1, 0, 0, 1, 0, 0)" xlink:href="#linear-gradient-68"/><linearGradient id="linear-gradient-109" x1="386.82" y1="273.04" x2="386.82" y2="340.78" gradientTransform="matrix(1, 0, 0, 1, 0, 0)" xlink:href="#linear-gradient-68"/><linearGradient id="linear-gradient-110" x1="380.01" y1="169.97" x2="376.12" y2="225.63" gradientTransform="matrix(1, 0, 0, 1, 0, 0)" gradientUnits="userSpaceOnUse"><stop offset="0" stop-color="#a36031"/><stop offset=".6" stop-color="#854127"/><stop offset=".74" stop-color="#7a3524"/></linearGradient><linearGradient id="linear-gradient-111" x1="354.98" y1="303.73" x2="351.56" y2="352.58" xlink:href="#linear-gradient-100"/><linearGradient id="linear-gradient-112" x1="403.55" y1="310.06" x2="400.7" y2="350.84" xlink:href="#linear-gradient-100"/><linearGradient id="linear-gradient-113" x1="384.72" y1="82.88" x2="369.89" y2="330.04" xlink:href="#linear-gradient-102"/><linearGradient id="linear-gradient-114" x1="323.96" y1="276.88" x2="326.86" y2="276.88" xlink:href="#linear-gradient-21"/><linearGradient id="linear-gradient-115" x1="432.44" y1="171.94" x2="433.9" y2="171.94" xlink:href="#linear-gradient-21"/><linearGradient id="linear-gradient-116" x1="337.11" y1="339.77" x2="344.21" y2="339.77" xlink:href="#linear-gradient-21"/><linearGradient id="linear-gradient-117" x1="410.84" y1="339.69" x2="416.5" y2="339.69" xlink:href="#linear-gradient-21"/><linearGradient id="linear-gradient-118" x1="383.67" y1="146.73" x2="378.47" y2="300.67" gradientTransform="matrix(1, 0, 0, 1, 0, 0)" gradientUnits="userSpaceOnUse"><stop offset=".15" stop-color="#f5cc8f"/><stop offset=".16" stop-color="#f4cc98"/><stop offset=".39" stop-color="#aa6834"/><stop offset=".43" stop-color="#a36031"/><stop offset=".63" stop-color="#854127"/><stop offset=".88" stop-color="#7a3524"/></linearGradient><linearGradient id="linear-gradient-119" x1="384.95" y1="146.78" x2="379.76" y2="300.71" gradientTransform="matrix(1, 0, 0, 1, 0, 0)" gradientUnits="userSpaceOnUse"><stop offset=".15" stop-color="#f5cc8f"/><stop offset=".16" stop-color="#f4cc98"/><stop offset=".39" stop-color="#aa6834"/><stop offset=".43" stop-color="#a36031"/><stop offset=".63" stop-color="#854127"/><stop offset=".97" stop-color="#7a3524"/></linearGradient><linearGradient id="linear-gradient-120" x1="407.64" y1="173.68" x2="387.19" y2="277.17" gradientTransform="matrix(1, 0, 0, 1, 0, 0)" gradientUnits="userSpaceOnUse"><stop offset=".15" stop-color="#f5cc8f"/><stop offset=".16" stop-color="#f4cc98"/><stop offset=".31" stop-color="#a36031"/><stop offset=".46" stop-color="#854127"/><stop offset=".74" stop-color="#7a3524"/></linearGradient><linearGradient id="linear-gradient-121" x1="401.65" y1="211.22" x2="379.22" y2="394.41" gradientTransform="matrix(1, 0, 0, 1, 0, 0)" gradientUnits="userSpaceOnUse"><stop offset=".14" stop-color="#f5cd8f"/><stop offset=".31" stop-color="#f4cc98"/><stop offset=".51" stop-color="#aa6834"/><stop offset=".75" stop-color="#9d5334"/></linearGradient><linearGradient id="linear-gradient-122" x1="381.45" y1="208.75" x2="359.03" y2="391.94" xlink:href="#linear-gradient-121"/><linearGradient id="linear-gradient-123" x1="370.43" y1="207.4" x2="348.01" y2="390.59" xlink:href="#linear-gradient-121"/><linearGradient id="linear-gradient-124" x1="165.3" y1="214.87" x2="142.77" y2="236.34" xlink:href="#linear-gradient-21"/><linearGradient id="linear-gradient-125" x1="174.16" y1="198.39" x2="174.16" y2="255.21" xlink:href="#linear-gradient-20"/><linearGradient id="linear-gradient-126" x1="198.89" y1="139.03" x2="176.27" y2="265.45" gradientTransform="matrix(1, 0, 0, 1, 0, 0)" xlink:href="#linear-gradient-68"/><linearGradient id="linear-gradient-127" x1="172.47" y1="312.92" x2="176.88" y2="393.95" xlink:href="#linear-gradient-21"/><linearGradient id="linear-gradient-128" x1="188.98" y1="347.53" x2="195.71" y2="403.5" xlink:href="#linear-gradient-21"/><linearGradient id="linear-gradient-129" x1="212.64" y1="300.72" x2="217.86" y2="396.69" xlink:href="#linear-gradient-21"/><linearGradient id="linear-gradient-130" x1="308.72" y1="167.89" x2="261.01" y2="410.16" xlink:href="#linear-gradient-20"/><linearGradient id="linear-gradient-131" x1="316.42" y1="178.02" x2="248.44" y2="402.83" gradientTransform="matrix(1, 0, 0, 1, 0, 0)" xlink:href="#linear-gradient-68"/><linearGradient id="linear-gradient-132" x1="354.08" y1="188.81" x2="266.81" y2="301.41" gradientTransform="matrix(1, 0, 0, 1, 0, 0)" xlink:href="#linear-gradient-68"/><linearGradient id="linear-gradient-133" x1="259.12" y1="226.63" x2="268.69" y2="336.43" gradientTransform="matrix(1, 0, 0, 1, 0, 0)" xlink:href="#linear-gradient-68"/><linearGradient id="linear-gradient-134" x1="297.78" y1="222.44" x2="359.65" y2="416.94" gradientTransform="matrix(1, 0, 0, 1, 0, 0)" xlink:href="#linear-gradient-71"/><linearGradient id="linear-gradient-135" x1="270.32" y1="231.18" x2="332.19" y2="425.68" gradientTransform="matrix(1, 0, 0, 1, 0, 0)" xlink:href="#linear-gradient-71"/><linearGradient id="linear-gradient-136" x1="257.11" y1="235.38" x2="318.98" y2="429.88" gradientTransform="matrix(1, 0, 0, 1, 0, 0)" xlink:href="#linear-gradient-71"/><linearGradient id="linear-gradient-137" x1="252.67" y1="89.33" x2="208.83" y2="355.63" xlink:href="#linear-gradient-20"/><linearGradient id="linear-gradient-138" x1="233.6" y1="289.96" x2="132.45" y2="360.97" gradientTransform="matrix(1, 0, 0, 1, 0, 0)" xlink:href="#linear-gradient-68"/><linearGradient id="linear-gradient-139" x1="213.84" y1="412.53" x2="203.27" y2="-107.64" gradientTransform="matrix(1, 0, 0, 1, 0, 0)" xlink:href="#linear-gradient-71"/><linearGradient id="linear-gradient-140" x1="237.13" y1="138.71" x2="226.11" y2="205.65" gradientTransform="matrix(1, 0, 0, 1, 0, 0)" xlink:href="#linear-gradient-68"/><linearGradient id="linear-gradient-141" x1="223.21" y1="205.21" x2="208.04" y2="289.95" gradientTransform="matrix(1, 0, 0, 1, 0, 0)" xlink:href="#linear-gradient-68"/><linearGradient id="linear-gradient-142" x1="212" y1="121.5" x2="207.33" y2="146.19" gradientTransform="matrix(1, 0, 0, 1, 0, 0)" xlink:href="#linear-gradient-78"/><linearGradient id="linear-gradient-143" x1="235.66" y1="101.64" x2="216.79" y2="179.57" gradientTransform="matrix(1, 0, 0, 1, 0, 0)" xlink:href="#linear-gradient-78"/><linearGradient id="linear-gradient-144" x1="207.4" y1="225.03" x2="244.75" y2="36.76" gradientTransform="matrix(1, 0, 0, 1, 0, 0)" xlink:href="#linear-gradient-80"/><linearGradient id="linear-gradient-145" x1="154.99" y1="207.62" x2="167.69" y2="234.28" xlink:href="#linear-gradient-21"/><linearGradient id="linear-gradient-146" x1="232.03" y1="138.82" x2="189.44" y2="378.87" xlink:href="#linear-gradient-20"/><linearGradient id="linear-gradient-147" x1="260.68" y1="123.72" x2="252.29" y2="162.08" gradientTransform="matrix(1, 0, 0, 1, 0, 0)" xlink:href="#linear-gradient-78"/><linearGradient id="linear-gradient-148" x1="190.63" y1="233.44" x2="215.77" y2="342.86" gradientTransform="matrix(1, 0, 0, 1, 0, 0)" xlink:href="#linear-gradient-68"/><linearGradient id="linear-gradient-149" x1="460.76" y1="-348.38" x2="432.18" y2="-284.3" gradientTransform="translate(-379.14 -16.96) rotate(55.49)" xlink:href="#linear-gradient-84"/><linearGradient id="linear-gradient-150" x1="467.34" y1="-369.31" x2="439.84" y2="-329.07" gradientTransform="translate(-343.25 427.2) rotate(12.22)" xlink:href="#linear-gradient-84"/><linearGradient id="linear-gradient-151" x1="205" y1="194.24" x2="176.12" y2="258.99" gradientTransform="translate(229.57 -109.33) rotate(55.49)" xlink:href="#linear-gradient-84"/><linearGradient id="linear-gradient-152" x1="208.82" y1="176.27" x2="181.03" y2="216.94" gradientTransform="matrix(1, 0, 0, 1, 0, 0)" xlink:href="#linear-gradient-84"/><linearGradient id="linear-gradient-153" x1="205.75" y1="177.43" x2="206.11" y2="198.14" gradientTransform="matrix(1, 0, 0, 1, 0, 0)" xlink:href="#linear-gradient-88"/><linearGradient id="linear-gradient-154" x1="205.79" y1="174.83" x2="208.34" y2="212.8" gradientTransform="matrix(1, 0, 0, 1, 0, 0)" xlink:href="#linear-gradient-89"/><linearGradient id="linear-gradient-155" x1="157.95" y1="262.79" x2="296.94" y2="347.54" gradientTransform="matrix(1, 0, 0, 1, 0, 0)" xlink:href="#linear-gradient-68"/><linearGradient id="linear-gradient-156" x1="234.56" y1="146.61" x2="273.42" y2="217.65" gradientTransform="translate(353.56 -105.85) rotate(75.65) scale(1.01 .99) skewX(-.01)" gradientUnits="userSpaceOnUse"><stop offset=".06" stop-color="#fff"/><stop offset=".34" stop-color="#ccdfff"/><stop offset=".6" stop-color="#a5c6ff"/><stop offset=".73" stop-color="#96bdff"/></linearGradient><linearGradient id="linear-gradient-157" x1="402.49" y1="32.93" x2="353.76" y2="93.84" gradientTransform="translate(234.1 -203.43) rotate(77.53) scale(.98 1.02) skewX(-.87)" xlink:href="#linear-gradient-156"/><linearGradient id="linear-gradient-158" x1="229.2" y1="169.97" x2="255.18" y2="234.11" gradientTransform="translate(7.66 7.66) rotate(.58) scale(1.01 .99) skewX(-.01)" xlink:href="#linear-gradient-156"/><linearGradient id="linear-gradient-159" x1="204.9" y1="151.89" x2="203.18" y2="174.08" gradientTransform="translate(15.32 15.32) rotate(1.15) scale(1.02 .98) skewX(-.05)" xlink:href="#linear-gradient-156"/><linearGradient id="linear-gradient-160" x1="-3589.4" y1="261.84" x2="-3602.03" y2="377.64" gradientTransform="translate(-3298.93 18.24) rotate(178.19) scale(1 -1)" xlink:href="#linear-gradient-91"/><linearGradient id="linear-gradient-161" x1="-3896.19" y1="-326.79" x2="-3890.43" y2="-276.5" gradientTransform="translate(-3580.85 -329.24) rotate(-167.63) scale(1 -1)" xlink:href="#linear-gradient-91"/><linearGradient id="linear-gradient-162" x1="736.86" y1="-1820.82" x2="654.97" y2="-1792.53" gradientTransform="translate(-1474.81 1011.39) rotate(43.87)" xlink:href="#linear-gradient-93"/><linearGradient id="linear-gradient-163" x1="196.1" y1="365.59" x2="196.87" y2="379.82" xlink:href="#linear-gradient-21"/><linearGradient id="linear-gradient-164" x1="203.37" y1="367.92" x2="203.98" y2="379.11" xlink:href="#linear-gradient-21"/><linearGradient id="linear-gradient-165" x1="158.94" y1="363.62" x2="159.83" y2="379.88" xlink:href="#linear-gradient-21"/><linearGradient id="linear-gradient-166" x1="154.64" y1="363.62" x2="155.53" y2="379.88" xlink:href="#linear-gradient-21"/><linearGradient id="linear-gradient-167" x1="163.09" y1="366.02" x2="163.81" y2="379.3" xlink:href="#linear-gradient-21"/><linearGradient id="linear-gradient-168" x1="642.45" y1="152.18" x2="510.31" y2="301.96" xlink:href="#linear-gradient-20"/><linearGradient id="linear-gradient-169" x1="574.3" y1="246.77" x2="640.98" y2="195.54" xlink:href="#linear-gradient-21"/><linearGradient id="linear-gradient-170" x1="226.63" y1="135.17" x2="-58.3" y2="308.22" xlink:href="#linear-gradient-15"/></defs><g class="cls-171"><g id="Layer_2"><g id="Layer_1-2"><g><g><polygon class="cls-23" points="749.66 97 666.06 283.61 666.06 388.2 610.11 340.69 577.21 312.75 575.93 234.5 575.89 231.99 614.28 134.2 749.66 97"/><path class="cls-93" d="M702.75,160.16l2.3,1.3,1.52,3.21c.45,.95,.47,2.05,.04,3l-39.73,89.79c-.6,1.35-1.76,2.39-3.19,2.79-1.21,.34-2.77,.57-4.36,.25l43.41-100.35Z"/><path class="cls-91" d="M587.87,229.6l34.47,15.08,35.33,15.46c2.2,.97,4.76-.03,5.74-2.23l1.93-4.34,39.54-88.98c1.34-3.03-1.04-6.39-4.34-6.13l-74.51,5.94-15.1,1.2c-1.67,.13-3.11,1.21-3.72,2.77l-6.79,17.46-14.86,38.18c-.85,2.18,.17,4.65,2.32,5.59Z"/><path class="cls-92" d="M600.41,185.83l21.93,58.85,35.33,15.46c2.2,.97,4.76-.03,5.74-2.23l1.93-4.34-39.31-89.16-15.1,1.2c-1.67,.13-3.11,1.21-3.72,2.77l-6.79,17.46Z"/><path class="cls-96" d="M692.88,147.24h0c1.32,1.86,3.43,2.95,6.16,2.93,6.52-.06,14.11-6.45,16.95-14.27,1.25-3.44,1.39-6.58,.58-9.01t0,0c-1.02-3.11-3.55-5.06-7.2-5.02-6.52,.05-14.11,6.44-16.96,14.26-1.65,4.54-1.35,8.56,.47,11.13Z"/><path class="cls-94" d="M667.54,150.65c1.1,1.49,2.84,2.35,5.07,2.33,5.47-.05,11.84-5.42,14.24-11.98,1.01-2.78,1.15-5.34,.54-7.36-.81-2.73-2.96-4.47-6.11-4.44-5.47,.05-11.84,5.42-14.24,11.98-1.41,3.89-1.12,7.33,.5,9.47Z"/><path class="cls-95" d="M646.55,153.29c.88,1.07,2.22,1.7,3.91,1.68,4.37-.04,9.46-4.32,11.38-9.56,.77-2.11,.9-4.05,.51-5.62-.59-2.33-2.35-3.82-4.96-3.8-4.37,.04-9.46,4.32-11.37,9.57-1.17,3.21-.89,6.03,.53,7.73Z"/><path class="cls-89" d="M628.75,156.28c.75,.82,1.84,1.3,3.2,1.29,3.7-.04,8.01-3.66,9.63-8.11,.62-1.7,.75-3.28,.47-4.57-.45-2.08-1.96-3.42-4.24-3.4-3.7,.04-8.01,3.66-9.63,8.1-1.02,2.81-.72,5.27,.56,6.7Z"/><path class="cls-90" d="M614.08,158.38c.62,.61,1.49,.95,2.54,.94,3.1-.03,6.7-3.07,8.06-6.78,.48-1.34,.62-2.59,.43-3.62-.31-1.84-1.6-3.06-3.58-3.04-3.1,.03-6.7,3.06-8.06,6.78-.89,2.44-.58,4.57,.61,5.74Z"/><path class="cls-153" d="M692.88,147.24h0c1.32,1.86,3.43,2.95,6.16,2.93,6.52-.06,14.11-6.45,16.95-14.27,1.25-3.44,1.39-6.58,.58-9.01t0,0c-1.32-1.85-3.43-2.94-6.16-2.92-6.52,.06-14.11,6.45-16.95,14.27-1.25,3.44-1.39,6.58-.58,9.01Z"/><path class="cls-154" d="M667.54,150.65c1.1,1.49,2.84,2.35,5.07,2.33,5.47-.05,11.84-5.42,14.24-11.98,1.01-2.78,1.15-5.34,.54-7.36-1.1-1.48-2.84-2.35-5.07-2.33-5.47,.05-11.84,5.42-14.24,11.98-1.02,2.78-1.15,5.34-.55,7.36Z"/><path class="cls-152" d="M646.55,153.29c.88,1.07,2.22,1.7,3.91,1.68,4.37-.04,9.46-4.32,11.38-9.56,.77-2.11,.9-4.05,.51-5.62-.89-1.08-2.23-1.71-3.92-1.69-4.37,.04-9.45,4.32-11.37,9.57-.77,2.11-.9,4.05-.51,5.62Z"/><path class="cls-151" d="M628.75,156.28c.75,.82,1.84,1.3,3.2,1.29,3.7-.04,8.01-3.66,9.63-8.11,.62-1.7,.75-3.28,.47-4.57-.75-.82-1.84-1.3-3.2-1.29-3.7,.04-8.01,3.66-9.63,8.1-.63,1.71-.75,3.29-.47,4.58Z"/><path class="cls-143" d="M614.08,158.38c.62,.61,1.49,.95,2.54,.94,3.1-.03,6.7-3.07,8.06-6.78,.48-1.34,.62-2.59,.43-3.62-.62-.6-1.48-.94-2.53-.93-3.1,.03-6.7,3.06-8.06,6.78-.49,1.34-.62,2.59-.44,3.62Z"/><polygon class="cls-148" points="775.02 97 775.02 388.2 666.07 388.2 666.07 283.61 749.67 97 775.02 97"/><path class="cls-149" d="M775.02,121.14V388.2h-78.88c-.5-28.34,1.13-87.97,20.94-128.9,18.53-38.26,43.97-102.26,57.94-138.16Z"/><polygon class="cls-150" points="666.06 283.61 666.06 388.2 610.11 340.69 577.21 312.75 575.93 234.5 575.89 231.99 578.47 233.46 602.54 247.25 666.06 283.61"/><polygon class="cls-144" points="657.18 291.33 590.08 253.13 590.08 309.85 657.18 362.6 657.18 291.33"/></g><path class="cls-97" d="M640.54,208.12s-12.77,10.92-23.67,21.88c-2.95,2.98-5.77,5.95-8.15,8.72-2.83,3.26-5.05,6.22-6.18,8.53-.45,.89-.72,1.67-.81,2.35-.32,2.28,.21,6.12,1.24,10.87,3.17,14.88,11.03,38.78,12.11,52.31,.47,5.76-.12,11.16-1.11,15.84-1.07,5-2.6,9.18-3.85,12.07l-32.9-27.94-1.28-78.25,2.54-1.04,9.43-3.85,25.02-10.22,27.62-11.28Z"/><path class="cls-145" d="M631.57,185.29c-.54,1.49-5.22,.53-5.22,.53,0,0,3.09,1.59,2.77,3.51-.31,1.92-5.32-2.01-8.08-1.38-2.77,.64-2.66,3.29-1.07,4.36,.29,.19,.64,.27,1.05,.27,.12,0,.23,0,.35-.02,.27-.03,.55-.08,.85-.15l.32-.08c.32-.09,.65-.2,.98-.31h0c.95-.32,1.88-.7,2.59-.86,.12-.04,.21-.05,.31-.06,.17-.03,.32-.04,.46-.02,1.38,.17-1.13,4.79-7.46,9.72-.12,.09-.25,.28-.4,.54-.04,.09-.1,.18-.15,.29-.11,.21-.21,.45-.34,.72-.13,.28-.26,.59-.4,.93h0c-.12,.3-.25,.61-.38,.94-3.91,9.61-13.96,36.33-41.11,44.81-30.22,9.45-30.79-26.93-8.14-32.88,0,0,3.15-.99,7.49-2.98,4.12-1.89,9.29-4.67,13.86-8.35,2.07-1.66,4.02-3.51,5.69-5.54,2.54-3.09,6.14-6.86,9.95-10.53,8.22-7.92,17.46-15.4,19.49-14.73,.55,.17,.98,.53,.67,1.01-.87,1.39-1.87,3.36-3.12,4.05,.43-.07,6.78-1.15,9.05,.9,0,0,.21,1.92-3.09,1.81,0,0,3.62,2.02,3.09,3.52Z"/><path class="cls-146" d="M631.57,185.29c-.54,1.49-5.22,.53-5.22,.53,0,0,3.09,1.59,2.77,3.51-.31,1.92-5.32-2.01-8.08-1.38-2.77,.64-2.66,3.29-1.07,4.36,.29,.19,.64,.27,1.05,.27,.12,0,.22,0,.35-.02,.27-.03,.55-.08,.85-.15,.11-.02,.21-.04,.32-.08,.32-.09,.65-.2,.98-.3,0,0,0,0,0,0h0c.95-.32,1.88-.7,2.59-.86,.12-.04,.21-.05,.31-.06,.17-.03,.32-.04,.46-.02,1.38,.17-1.13,4.79-7.46,9.72-.12,.09-.25,.28-.4,.54-.05,.09-.1,.18-.15,.29-.11,.21-.21,.45-.34,.72-.13,.28-.26,.59-.4,.93h0c-.12,.3-.25,.61-.38,.94-.17-.02-.35-.04-.54-.07-1.56-.18-3.49-.36-4.41-.28-1.68,.16-1.78-3.62-1.89-5-.11-1.39-1.89,1.6-1.89,1.6-.55-.21-1.04-.96-1.45-1.96-1.41-3.37-2.08-9.76-2.08-9.76,8.22-7.92,17.46-15.4,19.49-14.73,.55,.17,.98,.53,.67,1.01-.87,1.39-1.87,3.36-3.12,4.05,.43-.07,6.78-1.15,9.05,.9,0,0,.21,1.92-3.09,1.81,0,0,3.62,2.02,3.09,3.52Z"/><path class="cls-18" d="M619.43,200.8c-.12,.09-.25,.28-.4,.54-.04,.09-.1,.18-.15,.29-.11,.21-.21,.45-.34,.72-.13,.28-.26,.59-.4,.93h0l-.92,.87-7.29,6.86-28.73,8.85-8.22-1.9,3.02-4.79c4.12-1.89,9.29-4.67,13.86-8.35,7.37-.18,12.41-1.17,18.06-3.87,8.25-3.95,14.29-7.95,15.62-8.92,0,0,0,0,0,0h0c.95-.32,1.88-.7,2.59-.86,.12-.04,.21-.05,.31-.06,.17-.03,.32-.04,.46-.02,1.38,.17-1.13,4.79-7.46,9.72Z"/><g><polygon class="cls-147" points="199.13 231.99 197.81 312.75 108.95 388.2 108.95 283.61 25.36 97 160.73 134.2 199.13 231.99"/><path class="cls-156" d="M72.27,160.16l-2.3,1.3-1.52,3.21c-.45,.95-.47,2.05-.04,3l39.73,89.79c.6,1.35,1.76,2.39,3.19,2.79,1.21,.34,2.77,.57,4.36,.25"/><path class="cls-164" d="M187.15,229.6l-34.47,15.08-35.33,15.46c-2.2,.97-4.76-.03-5.74-2.23l-1.93-4.34-39.54-88.98c-1.34-3.03,1.04-6.39,4.34-6.13l74.51,5.94,15.1,1.2c1.67,.13,3.11,1.21,3.72,2.77l6.79,17.46,14.86,38.18c.85,2.18-.17,4.65-2.32,5.59Z"/><path class="cls-157" d="M174.61,185.83l-21.93,58.85-35.33,15.46c-2.2,.97-4.76-.03-5.74-2.23l-1.93-4.34,39.31-89.16,15.1,1.2c1.67,.13,3.11,1.21,3.72,2.77l6.79,17.46Z"/><path class="cls-155" d="M82.14,147.24h0c-1.32,1.86-3.43,2.95-6.16,2.93-6.52-.06-14.11-6.45-16.95-14.27-1.25-3.44-1.39-6.58-.58-9.01t0,0c1.02-3.11,3.55-5.06,7.2-5.02,6.52,.05,14.11,6.44,16.96,14.26,1.65,4.54,1.35,8.56-.47,11.13Z"/><path class="cls-165" d="M107.48,150.65c-1.1,1.49-2.84,2.35-5.07,2.33-5.47-.05-11.84-5.42-14.24-11.98-1.01-2.78-1.15-5.34-.54-7.36,.81-2.73,2.96-4.47,6.11-4.44,5.47,.05,11.84,5.42,14.24,11.98,1.41,3.89,1.12,7.33-.5,9.47Z"/><path class="cls-166" d="M128.47,153.29c-.88,1.07-2.22,1.7-3.91,1.68-4.37-.04-9.46-4.32-11.38-9.56-.77-2.11-.9-4.05-.51-5.62,.59-2.33,2.35-3.82,4.96-3.8,4.37,.04,9.46,4.32,11.37,9.57,1.17,3.21,.89,6.03-.53,7.73Z"/><path class="cls-168" d="M146.27,156.28c-.75,.82-1.84,1.3-3.2,1.29-3.7-.04-8.01-3.66-9.63-8.11-.62-1.7-.75-3.28-.47-4.57,.45-2.08,1.96-3.42,4.24-3.4,3.7,.04,8.01,3.66,9.63,8.1,1.02,2.81,.72,5.27-.56,6.7Z"/><path class="cls-170" d="M160.94,158.38c-.62,.61-1.49,.95-2.54,.94-3.1-.03-6.7-3.07-8.06-6.78-.48-1.34-.62-2.59-.43-3.62,.31-1.84,1.6-3.06,3.58-3.04,3.1,.03,6.7,3.06,8.06,6.78,.89,2.44,.58,4.57-.61,5.74Z"/><path class="cls-169" d="M82.14,147.24h0c-1.32,1.86-3.43,2.95-6.16,2.93-6.52-.06-14.11-6.45-16.95-14.27-1.25-3.44-1.39-6.58-.58-9.01t0,0c1.32-1.85,3.43-2.94,6.16-2.92,6.52,.06,14.11,6.45,16.95,14.27,1.25,3.44,1.39,6.58,.58,9.01Z"/><path class="cls-167" d="M107.48,150.65c-1.1,1.49-2.84,2.35-5.07,2.33-5.47-.05-11.84-5.42-14.24-11.98-1.01-2.78-1.15-5.34-.54-7.36,1.1-1.48,2.84-2.35,5.07-2.33,5.47,.05,11.84,5.42,14.24,11.98,1.02,2.78,1.15,5.34,.55,7.36Z"/><path class="cls-161" d="M128.47,153.29c-.88,1.07-2.22,1.7-3.91,1.68-4.37-.04-9.46-4.32-11.38-9.56-.77-2.11-.9-4.05-.51-5.62,.89-1.08,2.23-1.71,3.92-1.69,4.37,.04,9.45,4.32,11.37,9.57,.77,2.11,.9,4.05,.51,5.62Z"/><path class="cls-159" d="M146.27,156.28c-.75,.82-1.84,1.3-3.2,1.29-3.7-.04-8.01-3.66-9.63-8.11-.62-1.7-.75-3.28-.47-4.57,.75-.82,1.84-1.3,3.2-1.29,3.7,.04,8.01,3.66,9.63,8.1,.63,1.71,.75,3.29,.47,4.58Z"/><path class="cls-163" d="M160.94,158.38c-.62,.61-1.49,.95-2.54,.94-3.1-.03-6.7-3.07-8.06-6.78-.48-1.34-.62-2.59-.43-3.62,.62-.6,1.48-.94,2.53-.93,3.1,.03,6.7,3.06,8.06,6.78,.49,1.34,.62,2.59,.44,3.62Z"/><polygon class="cls-160" points="108.95 283.61 108.95 388.2 0 388.2 0 97 25.36 97 108.95 283.61"/><polygon class="cls-158" points="199.13 231.99 197.81 312.75 108.95 388.2 108.95 283.61 199.13 231.99"/><polygon class="cls-162" points="117.83 291.33 184.94 253.13 184.94 309.85 117.83 362.6 117.83 291.33"/></g><path class="cls-98" d="M138.06,234.66c-2.03,2.11-.43,5.99-.43,5.99,0,0,6.55,2.43,14.44,4.36,9.24,2.26,21.76,11.25,21.31,19.63-.32,5.93-16.38,26.7-13.52,52.3,2.86,25.6,9.52,33.41,9.52,33.41l46.84-26.35-36.52-92.9s-23.53-15.23-41.65,3.56Z"/><g><g><path class="cls-135" d="M525.11,214.97H240.79l29.39-123.16c.9-3.81,4.31-6.5,8.23-6.5h207.75c.39,0,.78,.03,1.15,.09,3.38,.46,6.21,2.93,7.05,6.32l30.74,123.25Z"/><path class="cls-88" d="M487.31,85.41l-20.73,27.2h-166.94l-20.74-27.29h207.25c.39,0,.78,.03,1.15,.09Z"/><ellipse class="cls-136" cx="448.37" cy="162.5" rx="34.7" ry="38.37" transform="translate(236.87 589.95) rotate(-83.6)"/><ellipse class="cls-139" cx="448.38" cy="163.45" rx="28.42" ry="31.43" transform="translate(235.94 590.8) rotate(-83.6)"/><ellipse class="cls-137" cx="448.38" cy="163.45" rx="12.33" ry="13.64" transform="translate(235.94 590.8) rotate(-83.6)"/><rect class="cls-138" x="240.79" y="214.98" width="284.32" height="103.67"/><rect class="cls-141" x="249.36" y="222.93" width="267.16" height="27.98" rx="7.21" ry="7.21"/><rect class="cls-142" x="251.93" y="259.81" width="80.52" height="46.17" rx="7.41" ry="7.41"/><rect class="cls-140" x="430.22" y="262.15" width="80.52" height="46.17" rx="7.41" ry="7.41"/><g><path class="cls-108" d="M396,199.04h-129.65c-2.49,0-4.33-2.31-3.78-4.73l14.73-65.31c.4-1.77,1.97-3.03,3.78-3.03h106.25c1.95,0,3.59,1.44,3.85,3.37l8.67,65.31c.31,2.32-1.5,4.39-3.85,4.39Z"/><path class="cls-106" d="M396.01,196.22h-129.66c-2.49,0-4.33-2.31-3.79-4.73l14.73-65.3c.39-1.77,1.97-3.03,3.79-3.03h106.25c1.47,0,2.77,.82,3.42,2.05,.21,.4,.36,.84,.42,1.32l8.67,65.31c.31,2.32-1.49,4.39-3.84,4.39Z"/><path class="cls-107" d="M390.75,125.21l-60.37,71.01h-48.7l64.86-73.06h40.8c1.47,0,2.77,.82,3.42,2.05Z"/></g></g><g><path class="cls-104" d="M470.48,6.4V106.22c0,3.53-2.86,6.39-6.4,6.39h-160.94c-3.54,0-6.4-2.86-6.4-6.39V6.4c0-3.54,2.86-6.4,6.4-6.4h160.94c3.54,0,6.4,2.86,6.4,6.4Z"/><path class="cls-105" d="M470.48,85.87v20.34c0,3.53-2.86,6.39-6.4,6.39h-160.94c-3.54,0-6.4-2.86-6.4-6.39V6.4c0-3.54,2.86-6.4,6.4-6.4h13.66c12.58,24.44,45.33,74.56,104.83,81.4,19.85,2.29,35.92,3.67,48.85,4.47Z"/><rect class="cls-102" x="274.3" y="17.56" width="108.65" height="11.7" rx="5.22" ry="5.22"/><rect class="cls-103" x="275.53" y="42.71" width="106.2" height="48.94" rx="5.08" ry="5.08"/><rect class="cls-100" x="282.88" y="52.58" width="55.63" height="7.45" rx="3.33" ry="3.33"/><rect class="cls-101" x="282.88" y="64.83" width="55.63" height="7.45" rx="3.33" ry="3.33"/><rect class="cls-99" x="282.88" y="77.07" width="55.63" height="7.45" rx="3.33" ry="3.33"/><circle class="cls-121" cx="359.37" cy="69.94" r="11.47"/><circle class="cls-123" cx="359.37" cy="69.94" r="6.39"/><path class="cls-122" d="M455.06,64.83c0,16.46-13.35,29.81-29.81,29.81s-30.72-14.27-29.77-31.5c.79-14.34,11.97-26.25,26.23-27.91,3.51-.41,6.92-.2,10.14,.53,2.46,.56,3.83,3.21,2.89,5.55l-7.9,19.59c-.68,1.69,.79,3.46,2.57,3.1l21.7-4.39c1.92-.39,3.71,1.01,3.86,2.96,.06,.75,.09,1.5,.09,2.26Z"/><path class="cls-119" d="M458.55,52.31c.25,1.12-.47,2.23-1.59,2.46h0l-22.3,4.51c-1.6,.32-2.92-1.26-2.31-2.77l8.51-21.11,.12-.3c.38-.95,1.42-1.5,2.41-1.22,10.62,2.96,14.13,13.86,15.15,18.44Z"/></g></g><g><path class="cls-118" d="M568.35,375.46c-.13,1.21,.78,2.23,1.99,2.23h48.4c.81,0,1.35-.9,.94-1.57-6.23-10.29-30.36-13.08-30.36-13.08l-3.83-6.65-12.31-2.31-.83-.16-2.43,9.69-.48,1.89-1.08,9.95Z"/><path class="cls-72" d="M568.35,375.46c-.13,1.21,.78,2.23,1.99,2.23h17.18s0-.03-.01-.05c-5.11-8.91-13.5-12.87-17.59-14.03l-.48,1.89-1.08,9.95Z"/><path class="cls-120" d="M557.34,361.07l-2.97,5.11s15.77-.92,25.96,8.79c1.14,1.08,.27,3.06-1.33,3.05l-50.42-.58c-1.61-.02-2.76-1.45-2.44-3.05l1.93-9.65,1.75-15.52,16.31,3.37,10.84,2.84,.38,5.64Z"/><g><path class="cls-117" d="M476.53,218.59c3.51,7.54,10.89,25.44,8.66,38.69-1.32,7.85-4.94,18.08-7.89,28.79-1.7,6.18-3.19,12.53-3.88,18.67-.74,6.53-.59,12.85,1.14,18.5,3.24,10.57,11.55,16.43,21.6,16.39,.57,0,1.15-.03,1.73-.07,5.91-.41,12.32-2.8,18.63-7.41l-1.62-7.5-4.33-20.02s-7.82,2.46-8.16-5.69c-.12-2.86,.3-5.55,.84-8.07,.84-3.86,1.98-7.33,1.93-10.39,0-.43-.48-.45-.75-.09-1.54,2.04-3.54,4.78-4.77,6.38,.12-.52,2.77-12.24,1.8-25.15h0c-.38-5.13-1.34-10.45-3.26-15.32-.13-.33-.63-.22-.64,.14-.05,1.6-.27,4.14-1.14,6.86h0c-.09,.31-.19,.6-.3,.9,0,0,0-.05-.01-.13h0c-.09-.88-.67-5.81-2.33-11.95-2.36-8.7-6.89-19.83-15.31-25.23-1.08-.69-2.47,.54-1.92,1.7Z"/><path class="cls-116" d="M497.89,339.56c5.91-.41,12.32-2.8,18.63-7.41l-1.62-7.5-4.33-20.02s-7.82,2.46-8.16-5.69c-.12-2.86,.3-5.55,.84-8.07,.04-.18,.08-.36,.12-.54,.82-3.64,1.86-6.93,1.81-9.85,0-.43-.48-.45-.75-.09-1.55,2.05-3.55,4.8-4.78,6.4-.06,.09-.54,.73-1.27,1.84,0,.01-.01,.03-.02,.03-2.91,4.4-9.93,16-12.82,29.17-1.99,9.08,.97,18.31,12.35,21.72Z"/><path class="cls-7" d="M480.68,228.61c3.12,8.58,6.02,19.69,4.52,28.67-2.08,12.39-9.88,30.67-11.77,47.45,2.58-8.13,7.47-17.15,13.78-26.58,8.59-12.81,9.21-24.85,9.21-24.85-.09,.3-.19,.6-.3,.9,0,0-1.66-17.15-9.67-29.15-2.16-3.25-4.8-6.12-7.99-8.17-1.08-.69-2.47,.54-1.92,1.7,1.13,2.43,2.67,5.94,4.15,10.02Z"/><path class="cls-8" d="M501.59,323.14c3.47,2.44,8.43,2.46,13.31,1.51l-4.33-20.02s-7.82,2.46-8.16-5.69c-.12-2.86,.3-5.55,.84-8.07,0,0-11.19,25.59-1.67,32.27Z"/><path class="cls-113" d="M476.53,218.59c1.13,2.43,2.67,5.94,4.15,10.02,1.83-1.96,4.07-3,5.76-3.56-2.16-3.25-4.8-6.12-7.99-8.17-1.08-.69-2.47,.54-1.92,1.7Z"/><path class="cls-114" d="M495.34,259.69c3.56-2.5,6,1.72,6.11,1.93-.38-5.13-1.34-10.44-3.26-15.32-.13-.33-.63-.22-.64,.14-.05,1.6-.27,4.14-1.14,6.86h0c-.09,.31-.19,.6-.3,.9,0,0,0-.05-.01-.13-.25,3.01-.76,5.62-.76,5.62Z"/><path class="cls-115" d="M498.36,288.69c.11-.06,1.42-.77,3.05,0,.86,.42,1.53,1.1,1.97,1.64,.82-3.64,1.86-6.93,1.81-9.85,0-.43-.48-.45-.75-.09-1.55,2.05-3.55,4.8-4.78,6.4-.06,.09-.54,.73-1.27,1.84,0,.01-.01,.03-.02,.03,0,.01,0,.02,0,.03Z"/></g><path class="cls-111" d="M606.78,323.15c-2.86,22.04-17.45,39.89-17.45,39.89,0,0-3.21,1.08-4.54,.9-1.26-.19-.13-1.46-.04-1.57-.59,.3-1.28,.5-2.04,.62-3.28,.52-7.65-.4-9.15-.76-.33-.08-.52-.13-.52-.13-1.48,2.85-3.6,3.42-3.6,3.42,1.07-5.88-1.07-12.34-1.07-12.34-.28,.15-.59,.3-.93,.47-.4,.18-.83,.36-1.28,.54-3,1.17-6.88,2.23-6.88,2.23-.52,2.66-1.98,5.12-3.79,7.03-1.81,1.9-2.35-2.47-2.35-2.47,0,0-1.61,1.64-4.8,2.68-1.02,.33-2.2,.6-3.54,.74-5.54,.56-13.52-3.04-13.52-3.04-.34,3.04-3.2,3.04-3.2,3.04,.59-3.98-2.08-7.6-2.08-7.6-9.76-9.69-19.3-30.97-19.07-46.35,.14-9.53,3.06-27.28,6.09-42.79,1.86-9.54,3.77-18.24,5.09-23.66,3.11-12.77,3.03-32.35,3.03-32.35-1.58,4.38-5.16,4.56-5.08,3.23,.07-1.33,3.68-5.51,3.82-15.2,.24-15.8,1.32-25.65,2.27-31.41,.29-1.71,.55-3.06,.8-4.1,.47-2.01,.79-2.85,.79-2.85l3.79,2.05,24.03,12.99,27.64,14.96s-.73,1.47-1.65,3.74c-.8,1.99-1.73,4.57-2.42,7.32-.34,1.36-.62,2.76-.8,4.14-.21,1.57-.27,3.11-.14,4.56,.3,3.42,1.69,8.37,3.88,14.28,2.45,6.67,5.93,14.54,10.01,22.82,.7,1.42,1.42,2.86,2.16,4.31,.36,.71,.72,1.41,1.08,2.1,1.58,3.08,3.17,6.46,4.68,10.07,4.1,9.76,7.71,21.13,9.68,32.45,1.58,9,2.14,17.96,1.09,26.06Z"/><path class="cls-6" d="M584.74,362.37c-.09,.1-1.22,1.38,.04,1.56,1.32,.19,4.54-.89,4.54-.89,0,0,14.6-17.85,17.45-39.9,1.05-8.09,.49-17.06-1.09-26.06-.25,6.68-1.19,11.03-3.49,15.12-2.53,4.49-4.24,9.62-5.12,12.64-.17,.59,.58,.95,.98,.47,1.63-2,4.02-4.72,5.23-5.03,0,0-.73,4.08-7.2,12.89-4.57,6.22-10.83,20.68-13.39,29.81,.76-.12,1.45-.31,2.04-.62Z"/><path class="cls-112" d="M535.36,187.27s2.73,10,5.43,19.01c2.69,9.01,6.05,40.28,6.36,49.77,.14,4.44,.62,15.59,3.55,26.92,3.34,12.87,9.84,25.95,22.61,29.68,12.44,3.63,19.52-1.43,22.69-8.33,2.03-4.39,2.47-9.54,1.7-13.65-2.35-12.62-13.08-37.63-22.18-58.92-9.09-21.28-4.21-30.41-4.21-30.41l-35.95-14.07Z"/><path class="cls-19" d="M523.53,161.9c-1.07,3.47-1.01,7.13,.08,10.48,1.12,3.46,2.07,7.23,2.18,10.37,.27,8.15,3.99,5.99,3.99,5.99,11.29,21.98,36.32,19.32,44.56,17.76,.54-4.18,2.02-8.49,3.21-11.46l-25.99-18.7-27.83-15.04s-.07,.19-.2,.59Z"/><path class="cls-109" d="M563.69,141.44s3.44-2.28,11.55-.89c9.16,1.57,10.21,6.55,8.12,8.78-2.1,2.23-19.67-7.89-19.67-7.89Z"/><path class="cls-110" d="M593.95,176.45s-.6,20.55-18.82,25.91c-.55,.16-1.1,.3-1.68,.44-23.1,5.3-40.38-10.36-41.37-20.8,0,0-3.11,1.51-3.12-1.34-.02-2.86,1.83-6.05,1.83-6.05-3.22-2.66-5.48-6.3-6.44-10.42-.05-.2-.1-.39-.14-.6l-.47-2.28s.54-1.5,1.67-3.65c2.35-4.46,7.26-11.69,15.22-13.85,0,0-3.61-1.85-2.39-2.52,1.17-.66,4.81,.92,4.99,1-.04-.2-1.74-8.4-.58-8.07,1.16,.34,3.47,4.38,3.52,6.73,0,0,1.48-5.72,2.57-4.05,1.09,1.69,.14,3.71-.25,4.89,0,0,13.16-3.75,28.21,3.95,15.82,8.08,17.11,11.2,16,13.22,0,0,1.15,1.16,2.1,2.68,1,1.57,1.79,3.52,.87,4.9,0,0,2.95,7.9-1.7,9.93Z"/><path class="cls-127" d="M528.96,180.66c.02,2.86,3.12,1.34,3.12,1.34,.98,10.43,18.27,26.1,41.37,20.8,19.87-4.56,20.51-26.35,20.51-26.35,4.65-2.02,1.69-9.93,1.69-9.93,.93-1.38,.14-3.32-.86-4.9-.4,2.32-1.48,5.62-4.34,7.41-4.73,2.96-8.53,2.64-10.83,1.79-2.31-.85-5.59,1.11-6.58,3.41-.98,2.29-6.22,9.05-17.87,5.75-10.07-2.86-18.4-6.99-24.59-5.77l.2,.38s-1.85,3.19-1.83,6.06Z"/><path class="cls-22" d="M534.34,153.64s-1.82,7.21-6.82,9.72c-.94,.47-2,.78-3.19,.83-.43,.04-.88,.02-1.33-.03-.02,0-.04,0-.06,0,.47-2.01,.79-2.85,.79-2.85,0,0,.54-1.5,1.67-3.65,3.32-2.21,7.4-4.11,8.94-4.02Z"/><path class="cls-134" d="M533.18,147.75s-8.97,2.93-11.73,6.16-2.03,6.61,2.28,7.4c4.31,.79,8.18-2.02,9.92-5.51,.9-1.81,2.04-7.74-.46-8.05Z"/><path class="cls-21" d="M542.63,299.4c.61,.67,10.41,11.59,15.74,23.16,5.51,11.95,.9,33.83,.9,33.83,0,0,5.13-1.38,8.16-2.77,.3-.15,.61-.31,.94-.47,8.25-4.02,13.11-11.26,15.08-14.75-3.98,5.57-14,13.03-18.05-1.99-7.96-29.46-21.83-36.21-22.76-37.02Z"/><path d="M574.33,166.56c-2.61,.79-2.95,3.96-3.29,7.25s2.59,3.5,3.69,2.75c0,0,2,1.91,4.17,.89,2.06-.97,1.42-3.23,1.42-3.23,0,0,2.6-.76,1.74-3.14-.73-2.02-5.58-5.17-7.73-4.52Z"/><g><ellipse class="cls-133" cx="582" cy="161.25" rx="3.89" ry="5.14" transform="translate(11.89 360.51) rotate(-34.75)"/><ellipse cx="583.11" cy="161.96" rx="2.8" ry="3.69" transform="translate(-4.54 306.56) rotate(-29.35)"/><ellipse class="cls-132" cx="580.79" cy="160.68" rx="1.31" ry="1.25" transform="translate(52.7 450.95) rotate(-44.26)"/></g><g><ellipse class="cls-131" cx="563.32" cy="165.49" rx="4.27" ry="5.66" transform="translate(-4.9 313.27) rotate(-30.95)"/><ellipse cx="564.71" cy="166.05" rx="3.08" ry="4.06" transform="translate(-16.32 260.23) rotate(-25.59)"/><ellipse class="cls-130" cx="561.95" cy="164.64" rx="1.45" ry="1.37" transform="translate(44.59 438.92) rotate(-44.26)"/></g><path class="cls-128" d="M566.04,184.54s.29,2.16,1.37,4.34c1.21,2.46,3.41,4.96,7.31,4.46,1.54-.2,2.78-.87,3.77-1.82,3.71-3.52,3.95-10.79,3.95-10.79-.85,1.26-3.59,.1-3.59,.1-3.28,4.71-12.8,3.7-12.8,3.7Z"/><path class="cls-129" d="M567.41,188.88c1.21,2.46,3.41,4.96,7.31,4.46,1.54-.2,2.78-.87,3.77-1.82-2.12-1.26-6.43-3.34-11.08-2.65Z"/><path d="M579.8,153.06c-.24,0-.47-.09-.65-.28-.08-.08-1.65-1.61-5.41-1.19-.48,.06-.93-.3-.99-.79-.06-.49,.3-.93,.79-.99,4.74-.53,6.82,1.65,6.91,1.74,.34,.36,.32,.93-.05,1.27-.17,.16-.39,.24-.61,.24Z"/><path d="M550.54,159.9c-.08,0-.17-.01-.25-.04-.47-.14-.74-.64-.6-1.11,1.17-3.98,5.58-5.87,5.77-5.94,.45-.19,.98,.02,1.17,.48,.19,.45-.02,.98-.48,1.17-.04,.02-3.82,1.65-4.75,4.8-.11,.39-.47,.64-.86,.64Z"/><path d="M570.02,185.54c-3.82,0-7.26-1.01-7.46-1.07-.35-.11-.56-.48-.45-.83,.11-.36,.48-.56,.84-.45,.07,.02,6.96,2.04,11.76,.3,1.8-.65,2.98-1.61,3.51-2.86,.74-1.75-.06-3.54-.07-3.56-.15-.34,0-.73,.33-.89,.33-.15,.73,0,.89,.33,.04,.09,1.05,2.32,.09,4.62-.67,1.61-2.12,2.83-4.3,3.62-1.62,.58-3.42,.79-5.14,.79Z"/><path d="M580.58,181.96c-.68,0-1.36-.18-2.04-.53-.33-.17-.46-.58-.28-.91,.17-.33,.57-.46,.91-.29,.78,.41,1.52,.49,2.26,.24,1.82-.61,2.95-2.99,2.97-3.02,.16-.33,.56-.48,.89-.32,.33,.16,.48,.56,.32,.89-.06,.12-1.38,2.92-3.75,3.72-.42,.14-.85,.21-1.28,.21Z"/><path class="cls-9" d="M506.93,310.42c-.22,15.39,9.31,36.66,19.07,46.36,0,0,2.66,3.61,2.08,7.6,0,0,2.85,0,3.2-3.04,0,0,7.98,3.61,13.52,3.04,1.34-.14,2.52-.41,3.54-.74,.74-10.01-2.12-26.2-9.4-35.73-8.82-11.55-11.65-17.36-11.65-17.36,7.27,1.76,14.6,11.78,11.26-1.25-2.96-11.56-20.46-24.11-25.53-41.66-3.03,15.51-5.95,33.26-6.08,42.79Z"/><path class="cls-124" d="M463.27,236.71l1.72,2.44c.24,.32,.29,.79,.11,1.18l-1.13,2.91c-.38,1.01,.51,1.97,1.55,1.61l2.93-.99c5.39,6.12,1.87,24.22,1.87,24.22,9.25-14.92,4.41-27.44,4.41-27.44l2.58-1.78c.9-.61,.75-1.96-.24-2.24l-2.88-.87c-.39-.1-.69-.42-.8-.84l-.78-2.93c-.26-1.01-1.61-1.21-2.27-.34l-1.89,2.55c-.28,.32-.67,.57-1.06,.54h-3.07c-.98-.05-1.62,1.17-1.05,1.98Z"/><path class="cls-125" d="M486.96,212.9l1.67,1.39c.23,.18,.35,.5,.29,.8l-.29,2.23c-.09,.77,.72,1.28,1.4,.84l1.92-1.21c4.96,3.31,5.67,16.56,5.67,16.56,3.95-12.05-1.76-19.92-1.76-19.92l1.53-1.7c.54-.59,.19-1.5-.57-1.52l-2.22-.09c-.3,0-.57-.17-.72-.44l-1.08-1.9c-.37-.66-1.37-.55-1.68,.17l-.9,2.11c-.14,.27-.37,.52-.67,.56l-2.2,.54c-.71,.15-.95,1.11-.4,1.58Z"/><path class="cls-126" d="M464.03,202.54l.69,2.94c.14,.4,0,.84-.25,1.18l-2.02,2.38c-.68,.83-.2,2.08,.81,2.1l3.08,.12c.45,0,.77,.24,.97,.58l1.56,2.56c.5,.91,1.86,.71,2.27-.29l1.22-2.9c.2-.39,.5-.67,.9-.83l3.03-.78c1.03-.32,1.41-1.6,.61-2.24l-2.34-1.85c-.32-.23-.51-.69-.43-1.08l.33-3.03c.13-1.07-1-1.71-1.94-1.16l-2.6,1.75c-.35,.22-.81,.32-1.19,.15l-2.79-1.12c-1.15-.42-2.17,.52-1.91,1.54Z"/><path class="cls-75" d="M576.4,377.99s-1.74-3.3-5.92-4.34c0,0,3.18,2.48,3.31,4.37l2.61-.03Z"/><path class="cls-76" d="M568.81,377.9s-2.13-3.28-5.06-3.45c0,0,2.55,1.95,2.87,3.45h2.19Z"/><path class="cls-74" d="M607.95,372.73s4.04,1.56,4.91,4.96h-1.78s-.41-2.81-3.13-4.96Z"/><path class="cls-73" d="M612.24,372.73s4.04,1.56,4.91,4.96h-1.78s-.41-2.81-3.13-4.96Z"/><path class="cls-77" d="M604.35,373.64s3.3,1.27,4.01,4.05h-1.46s-.33-2.3-2.55-4.05Z"/></g><path class="cls-20" d="M588.08,248.15c-6.82,2.01-16.09,3.43-27.93,2.43-28.91-2.44-30.17-25.25-30.17-25.25h48.09c2.45,6.67,5.93,14.54,10.01,22.82Z"/><g><path class="cls-46" d="M336.38,273.91s-.77,8.36-.85,10.5c-.04,1.15-.71,1.59-1.31,1.74-.52,.13-.99,.06-.99,.06-.41,1.45-2.28,1.1-2.28,1.1-.18,.08-.36,.15-.52,.2-1.5,.47-2.21-.2-2.21-.2-.18,0-.34-.03-.49-.08-1.32-.38-1.78-1.99-1.78-1.99-.33-.3-.59-.68-.77-1.12-.86-2.01-.3-5.1-.3-5.1,0,0-.58,.06-.93-.42-.29-.39-.43-1.15,.04-2.62,1.03-3.24,4.24-4.98,4.24-4.98l.8-5.31,7.35,8.21Z"/><path class="cls-45" d="M429.27,186.81s-1.14-5.56-.59-10.94,3.07-8.36,4.56-8.36,0,4.18,0,4.18c0,0,2.7-7.81,5.3-7.25,0,0,1.76-.84,2.97,.37,0,0,1.4-.19,1.68,1.77,0,0,1.67-.37,2.42,3.07,.74,3.44,1.3,12.68-4.1,20.94l-4.21,5.47-7.88-1.4-.16-7.86Z"/><path class="cls-40" d="M356.26,229.11l-19.88,44.8c-1.12-.41-2.06-.83-2.84-1.24-3.66-1.92-4.06-3.7-4.06-3.7-.66,1.48-1.25,2.04-1.25,2.04-4.27-22.52,16.07-53.85,23.27-64.07,1.51-2.15,2.45-3.36,2.45-3.36l2.31,25.52Z"/><path class="cls-16" d="M356.26,229.11l-19.88,44.8c-1.12-.41-2.06-.83-2.84-1.24,.27-3.69-1.2-15.31,5.45-27.68,10.14-18.87,11.28-34.47,12.51-38.03,.13-.38,.2-.58,.2-.58l1.02-4.3,1.23,1.51,2.31,25.52Z"/><path class="cls-39" d="M441.52,190.59s-.59,5.18-2.02,12.36h0c-2.04,10.27-5.8,24.64-12,33.76-10.53,15.49-17.97,16.18-17.97,16.18,0,0-2.83-4.3-5.77-10.7-2.96-6.48-6.04-15.11-6.38-23.63-.69-16.95,2.93-14.97,2.93-14.97,0,0,2.81,10.37,10.91,8.78,8.11-1.59,18.05-25.56,18.05-25.56,0,0,.14,1.86,1.29,3.32,0,0-.23-1.7,.32-2.39,0,0,.56,2.15,2.81,2.97,2.24,.82,5.87,1.35,7.83-.12Z"/><path class="cls-17" d="M439.5,202.96c-2.04,10.27-5.8,24.63-12,33.75-10.53,15.49-17.97,16.18-17.97,16.18,0,0-2.83-4.3-5.77-10.7,4.52-.84,23.48-6.28,35.74-39.23Z"/><path class="cls-38" d="M418.59,341.39h-32.57c-1.15,0-2.08-.93-2.09-2.08,0-.57-.02-1.26-.04-2.01-.01-.3-.03-.61-.04-.93-.07-1.33-.19-2.83-.38-4.37-.09-.72-.2-1.45-.33-2.18-.64-3.6-1.77-7.1-3.75-8.98,0,0-.76,.28-2.17,.28s-2.16-.28-2.16-.28c-2.35,2.2-3.49,6.66-4.05,10.87-.16,1.22-.27,2.43-.35,3.56-.06,.86-.1,1.67-.13,2.4-.02,.61-.03,1.16-.03,1.64-.01,1.15-.94,2.08-2.09,2.08h-32.57c-1.17,0-1.84-1.38-1.08-2.28,3.51-4.2,10.59-5.82,14.92-6.43,2.16-.3,3.65-.36,3.65-.36-11.54-10.24-17.25-25.72-17.77-42.99-.44-14.31,2.68-29.85,8.98-44.65,9.28-21.8,9.36-35.04,8.4-41.43-.49-3.18-1.23-4.67-1.23-4.67l25.52,4.36,19.81-3.39,5.71-.98s-.99,1.99-1.43,6.28c-.12,1.14-.2,2.44-.2,3.92-.04,7.41,1.65,19.12,8.8,35.9,6.93,16.25,10,33.41,8.75,48.85-1.27,15.56-6.95,29.38-17.55,38.78,0,0,5.6,.21,10.97,2.08,2.91,1.01,5.75,2.51,7.6,4.72,.75,.9,.09,2.28-1.08,2.28Z"/><path class="cls-3" d="M401.11,332.32s5.6,.21,10.97,2.08c-.75,1.31-1.24,2.15-1.24,2.15l-26.95,.75c-.01-.3-.03-.61-.04-.93-.07-1.33-.19-2.83-.38-4.37-.09-.72-.2-1.45-.33-2.18-.64-3.6-1.77-7.1-3.75-8.98,0,0-.76,.28-2.17,.28s-2.16-.28-2.16-.28c-2.35,2.2-3.49,6.66-4.05,10.87-.16,1.22-.27,2.43-.35,3.56-.06,.86-.1,1.67-.13,2.4l-17.81,.49-3.04-5.48c2.16-.3,3.65-.36,3.65-.36-11.54-10.24-17.25-25.72-17.77-42.99,5.15-12.91,17.02-31.97,42.32-31.97,28.23,0,37.74,23.73,40.78,36.17-1.27,15.56-6.95,29.38-17.55,38.78Z"/><path class="cls-15" d="M357.91,312.75c2.53,2.35,11.43,7.9,17.14,8.09-2.35,2.2-3.49,6.66-4.05,10.87-.16,1.22-.27,2.43-.35,3.56l-3.68-.3s2.78-5.29,1.54-10.58c-1.06-4.54-8.3-9.41-10.61-11.63Z"/><path class="cls-14" d="M379.39,320.84s7.51-1.66,14.87-7.42c-3.96,3.97-8.92,9.61-9.15,13.23-.39,6.08,.9,9.9,.9,9.9l-2.17-.18c-.07-1.33-.19-2.83-.38-4.37-.09-.72-.2-1.45-.33-2.18-.64-3.6-1.77-7.1-3.75-8.98Z"/><path class="cls-35" d="M351.7,198.58s8.81,15.47,25.52,15.56c16.71,.09,26.83-11.55,26.83-11.55l-52.35-4.02Z"/><path class="cls-32" d="M371,331.7c-.38,2.95-.49,5.77-.5,7.6-.01,1.15-.94,2.08-2.09,2.08h-32.57c-1.17,0-1.84-1.38-1.08-2.28,5.27-6.3,18.56-6.79,18.56-6.79,0,0,8.52,1.22,12.45-.61,0,0,.2,.95-.41,1.56,0,0,4.02,0,5.64-1.56Z"/><path class="cls-33" d="M418.59,341.39h-32.57c-1.15,0-2.08-.93-2.09-2.08-.01-1.77-.11-4.47-.47-7.32,3.35,2.34,7.33,1.81,7.33,1.81-.85-.59-1.7-1.48-1.7-1.48,5.21,2.29,12.01,0,12.01,0,0,0,13.3,.49,18.57,6.79,.75,.9,.09,2.28-1.08,2.28Z"/><path d="M330.8,186.81c6.76-2,14.6-2,20.9,1.45-6.74-2.25-13.9-2.21-20.9-1.45h0Z"/><path d="M335.93,193.39c4.8-2.24,10.58-3.65,15.77-1.99-5.29-.41-10.62,.94-15.77,1.99h0Z"/><path d="M343.21,198.58c2.17-2.85,6.18-5.03,9.77-3.8-3.66,.09-6.71,1.91-9.77,3.8h0Z"/><path d="M407.41,185.91c5.46-2.03,12.34-3.54,17.84-1-5.83-1.31-12.03,.18-17.84,1h0Z"/><path d="M406.01,188.91c5.16-1.5,11.64-1.09,15.62,2.89-4.68-2.88-10.27-3.12-15.62-2.89h0Z"/><path d="M404.82,192.21c4.8-.11,10.11,2.07,12.56,6.37-3.42-3.43-7.94-5.21-12.56-6.37h0Z"/><path class="cls-36" d="M418.9,168.96c-.63-4.51-10.46-8.65-10.46-8.65-10.74-10.91-28.74-10.91-28.74-10.91,0,0,1.99-3.03,3.77-3.14,0,0-3.49-.52-6.25,1.88,0,0-.55-4.19-.55-5.44s-2.62,2.09-2.62,4.19c0,0-3.31-1.88-5.52-.94,0,0,2.7,2.51,2.91,4.08,0,0-11.93,.52-20.82,10.28,0,0-9.84,4.14-10.46,8.65-.63,4.51,6.38,3.77,7.95,2.73,0,0-4.81,5.34-4.5,7.43,.31,2.09,3.56,.9,3.56,.9,0,0-3.24,5.49-2.2,7.37s2.93,.87,2.93,.87c0,0,1.63,22.05,29.33,22.05h4.61c27.7,0,29.33-22.05,29.33-22.05,0,0,1.88,1.01,2.93-.87,1.05-1.88-2.2-7.37-2.2-7.37,0,0,3.24,1.2,3.56-.9,.31-2.09-4.5-7.43-4.5-7.43,1.57,1.04,8.58,1.78,7.95-2.73Z"/><path d="M436,173.16s-.06,0-.1-.01c-.18-.05-.28-.24-.22-.42l2.54-8.39c.05-.18,.24-.28,.42-.22,.18,.05,.28,.24,.22,.42l-2.54,8.39c-.04,.14-.18,.24-.32,.24Z"/><path d="M439.05,174.14s-.06,0-.09-.01c-.18-.05-.28-.23-.23-.41l2.47-8.99c.05-.18,.23-.28,.41-.24,.18,.05,.28,.23,.23,.41l-2.47,8.99c-.04,.15-.18,.25-.32,.25Z"/><path d="M442.04,174.79s-.07,0-.1-.02c-.18-.06-.27-.24-.22-.42,1.2-3.79,1.15-7.73,1.15-7.76,0-.19,.14-.34,.33-.34h0c.18,0,.33,.15,.34,.33,0,.16,.06,4.08-1.18,7.98-.05,.14-.18,.23-.32,.23Z"/><path class="cls-80" d="M326.86,274.73c-.81,1.02-1.97,4.3-1.97,4.3,0,0-.58,.06-.93-.42,.68-1.4,2.49-3.43,2.9-3.88Z"/><path class="cls-78" d="M433.25,171.69s-.81,2.56-.81,3.82c0,0-.06-4.61,1.46-7.13v.94l-.65,2.38Z"/><path d="M333.24,286.54c-.16,0-.3-.11-.33-.27-.02-.11-.52-2.67,.29-6.75,.04-.18,.21-.3,.4-.26,.18,.04,.3,.21,.26,.4-.78,3.93-.3,6.46-.29,6.48,.04,.18-.08,.36-.26,.4-.02,0-.04,0-.07,0Z"/><path d="M330.96,287.65c-.13,0-.25-.08-.31-.2-.04-.09-.94-2.24-.42-4.94,.03-.18,.21-.31,.39-.27,.18,.03,.3,.21,.27,.39-.47,2.49,.37,4.53,.38,4.55,.07,.17,0,.37-.18,.44-.04,.02-.09,.03-.13,.03Z"/><path d="M328.23,287.65c-.17,0-.31-.12-.33-.29-.02-.12-.38-3.09,.3-4.9,.07-.17,.26-.26,.43-.2,.17,.07,.26,.26,.2,.43-.62,1.65-.26,4.55-.26,4.58,.02,.18-.11,.35-.29,.37-.01,0-.03,0-.04,0Z"/><path d="M325.96,285.58c-.17,0-.32-.13-.33-.31-.01-.15-.28-3.82,.95-5.69,.1-.16,.31-.2,.47-.1,.15,.1,.2,.31,.1,.47-1.1,1.67-.84,5.23-.84,5.27,.01,.18-.12,.35-.31,.36h-.03Z"/><path class="cls-79" d="M344.21,338.2s-4.6,1.37-5.29,3.19h-1.82s2.66-3.67,7.1-3.19Z"/><path class="cls-82" d="M410.84,337.99s5.1,.74,5.65,3.39h-1.35s-1.05-2.24-4.3-3.39Z"/><g><path class="cls-31" d="M397.27,249.46c-1.3,18.12,4.28,33.02-3.83,50.86-.18,.41-.37,.82-.58,1.25-.31,.63-.65,1.25-1.02,1.82-3.13,4.92-8.41,8.01-14.03,9.03-10.38,1.86-21.94-3.38-23.5-17.41-1.34-12.02,2-22.39,5.54-29.61h0c2.02-4.12,4.12-7.23,5.45-9.02,.4-.53,1.25-.23,1.22,.44-.2,3.58,.11,6.31,.39,7.9h0c.18,1.05,.35,1.62,.35,1.62-.17-2.44,.02-4.85,.48-7.21,1.06-5.48,3.52-10.59,5.96-14.59h0c1.67-2.74,3.31-4.97,4.48-6.45,.58-.72,1.75-.34,1.78,.58,.08,1.89,.24,4.35,.51,5.79,.21,1.13,.51,1.63,.89,.8,0,0,0-.02,0-.02,.6-1.33,1.22-2.62,1.85-3.85,7.42-14.71,16.11-23.15,20.96-27.06,1.02-.82,2.45,.25,1.97,1.45-3.46,8.53-8.07,22.6-8.86,33.67Z"/><path class="cls-37" d="M393.44,300.32c-.18,.41-.37,.82-.58,1.25-.31,.63-.65,1.25-1.02,1.82-3.13,4.92-8.41,8.01-14.03,9.03,.31-4.85-.09-12.25-3.63-20.5-6.25-14.56-6.92-25.57-6.92-25.57,0,0,.37-3.27,.48-7.21,1.78-9.23,7.54-17.39,10.44-21.04,.58-.72,1.75-.34,1.78,.58,.14,3.35,.52,8.5,1.4,6.59,0,0,0-.02,0-.02,.6-1.33,1.22-2.62,1.85-3.85l10.23,58.93Z"/><path class="cls-49" d="M406.13,215.78c-1.44,3.54-3.06,8.02-4.54,12.84-.02,.06-.02,.1-.03,.13,0,.02-.02,.02-.02,.04-2.06,6.78-3.82,14.23-4.28,20.66-1.33,18.54,4.54,33.71-4.41,52.11-.31,.63-.65,1.25-1.02,1.82-.04-7.15-5.37-15.21-8.11-29.79-4.06-21.68-2.47-27.98-2.38-28.33,0,0,0-.02,0-.02,4.33-9.53,9.27-16.7,13.71-21.93,3.54-4.17,6.76-7.1,9.09-8.98,1.02-.82,2.45,.25,1.97,1.45Z"/><path class="cls-44" d="M406.13,215.78c-1.44,3.54-3.06,8.02-4.54,12.84,.21-.74,.9-3.76-1.31-4.86-1.32-.66-3.47-.63-5.21-.45,3.54-4.17,6.76-7.1,9.09-8.98,1.02-.82,2.45,.25,1.97,1.45Z"/><path class="cls-43" d="M380.46,244.46c-.67-.58-1.6-1.32-2.4-1.73-.8-.41-2.78,.72-4.38,1.8,1.67-2.74,3.31-4.96,4.48-6.44,.58-.72,1.75-.34,1.78,.58,.08,1.89,.24,4.35,.51,5.79Z"/><path class="cls-41" d="M366.91,264.72h0s-1.19-1.15-3.14-1.64c-1.05-.26-2.65,1.04-3.92,2.31,2.02-4.12,4.12-7.22,5.45-9.01,.4-.53,1.25-.23,1.22,.44-.2,3.58,.11,6.31,.39,7.9Z"/></g></g><g><g><path class="cls-48" d="M144.63,223.92s-8.25,3.91-8.88,10.16c-.63,6.26,2,7.26,4.44,6.88,0,0,1.38,1.01,2.32,.07,.87-.87,1.16-6.09,3.04-7.48,.28-.21,.66-.26,.99-.15,.62,.2,1.47,.77,.41,2.37-2.24,3.39-3.44,4.76-1.94,5.07,1.5,.31,4.14-2.8,4.14-2.8,0,0,7.19-2.46,7.25-2.71s-2.13-8.76-2.13-8.76l-4.38-2.65s-3.96-.28-5.26,0Z"/><path class="cls-47" d="M204.13,217.3c-.95,17.51-10.11,31.55-10.11,31.55-.64,.21-1.3,.38-1.98,.5-6.12,1.14-13.59-.95-19.5-3.52-3.5-1.52-6.44-3.2-8.23-4.47-.91-.65-1.99-1.18-3.13-1.6-5.26-1.95-12.03-1.71-12.03-1.71,0,0,.7-.53,2.18-3.58,1.48-3.05-2.09-6.97-3.31-8.01-1.22-1.05,2.09-.7,2.09-.7-1.66-1.22-5.93-1.91-5.93-1.91,5.75-1.39,12.11-2.62,32.68,2.26,8.05,1.91,13.99,.83,18.22-1.14,6.59-3.07,9.07-8.26,9.04-7.66Z"/><path class="cls-13" d="M204.13,217.3c-.95,17.51-10.11,31.55-10.11,31.55-.64,.21-1.3,.38-1.98,.5-2.14-.33-3.55-2.61-3.55-2.61l-15.95-.91c-3.5-1.52-6.44-3.2-8.23-4.47-.91-.65-1.99-1.18-3.13-1.6,3.07-1.16,7.27-2.35,12.97-3.35,12.21-2.14,18.27-7.88,20.93-11.44,6.59-3.07,9.07-8.26,9.04-7.66Z"/><path class="cls-34" d="M201.72,374.49c.07,1.22-.89,2.24-2.11,2.24h-48.59c-.81,0-1.31-.91-.86-1.58,6.79-10.33,31.15-13.13,31.15-13.13l4.19-6.67,12.48-2.32,.84-.16,1.94,9.73,.38,1.9,.57,9.99Z"/><path class="cls-81" d="M201.72,374.49c.07,1.22-.89,2.24-2.11,2.24h-17.24s0-.03,.01-.05c5.59-8.95,14.22-12.92,18.39-14.08l.38,1.9,.57,9.99Z"/><path class="cls-42" d="M213.52,360.04l2.72,5.13s-15.78-.92-26.52,8.83c-1.2,1.09-.43,3.08,1.18,3.06l50.64-.58c1.62-.02,2.85-1.46,2.61-3.06l-1.43-9.69-.95-15.58-16.55,3.38-11.03,2.85-.67,5.66Z"/><g><path class="cls-25" d="M302.02,217.03c-3.91,7.57-12.25,25.53-10.7,38.84,.91,7.88,4.02,18.14,6.43,28.89,1.39,6.2,2.55,12.57,2.93,18.74,.41,6.56-.07,12.89-2.11,18.57-3.8,10.61-12.44,16.49-22.53,16.45-.57,0-1.15-.03-1.73-.07-5.91-.41-12.22-2.81-18.32-7.44l2.02-7.53,5.38-20.09s7.72,2.47,8.49-5.71c.27-2.87-.01-5.57-.43-8.1-.64-3.87-1.61-7.36-1.4-10.43,.03-.43,.51-.45,.76-.09,1.44,2.05,3.31,4.8,4.46,6.41-.09-.52-2.14-12.28-.5-25.24h0c.65-5.15,1.89-10.49,4.07-15.38,.14-.33,.64-.22,.64,.14-.03,1.61,.06,4.15,.79,6.88h0c.08,.31,.16,.61,.26,.91,0,0,0-.05,.02-.13h0c.14-.88,.97-5.84,2.96-12,2.82-8.74,7.94-19.9,16.68-25.33,1.13-.7,2.45,.54,1.84,1.71Z"/><path class="cls-27" d="M274.31,338.45c-5.91-.41-12.22-2.81-18.32-7.44l2.02-7.53,5.38-20.09s7.72,2.47,8.49-5.71c.27-2.87-.01-5.57-.43-8.1-.03-.18-.06-.36-.09-.54-.63-3.66-1.51-6.96-1.31-9.89,.03-.43,.51-.45,.76-.09,1.45,2.06,3.32,4.82,4.47,6.42,.06,.09,.5,.74,1.18,1.85,0,.01,.01,.03,.02,.03,2.69,4.42,9.14,16.06,11.36,29.28,1.53,9.11-1.92,18.37-13.52,21.8Z"/><path class="cls-1" d="M297.34,227.09c-3.58,8.61-7.07,19.76-6.02,28.78,1.45,12.43,8.32,30.78,9.36,47.63-2.17-8.16-6.61-17.22-12.45-26.68-7.95-12.86-7.95-24.94-7.95-24.94,.08,.3,.16,.6,.26,.9,0,0,2.55-17.22,11.22-29.26,2.34-3.26,5.13-6.14,8.44-8.2,1.13-.7,2.45,.54,1.84,1.71-1.26,2.44-2.99,5.96-4.68,10.06Z"/><path class="cls-2" d="M271.45,321.97c-3.61,2.45-8.59,2.47-13.44,1.51l5.38-20.09s7.72,2.47,8.49-5.71c.27-2.87-.01-5.57-.43-8.1,0,0,9.91,25.68,0,32.39Z"/><path class="cls-29" d="M302.02,217.03c-1.26,2.44-2.99,5.96-4.68,10.06-1.73-1.97-3.93-3.01-5.6-3.57,2.34-3.26,5.13-6.14,8.44-8.2,1.13-.7,2.45,.54,1.84,1.71Z"/><path class="cls-26" d="M281.01,258.28c-3.45-2.51-6.11,1.72-6.24,1.93,.65-5.14,1.89-10.48,4.07-15.37,.14-.33,.64-.22,.64,.14-.03,1.61,.06,4.15,.79,6.88h0c.08,.31,.16,.61,.26,.91,0,0,0-.05,.02-.13,.1,3.02,.47,5.64,.47,5.64Z"/><path class="cls-28" d="M276.48,287.39c-.11-.06-1.39-.78-3.06,0-.89,.42-1.59,1.11-2.06,1.64-.63-3.66-1.51-6.96-1.31-9.89,.03-.43,.51-.45,.76-.09,1.45,2.06,3.32,4.82,4.47,6.42,.06,.09,.5,.74,1.18,1.85,0,.01,.01,.03,.02,.03,0,.01,0,.02,0,.03Z"/></g><path class="cls-24" d="M266.75,309.2c-.57,15.45-11.25,36.8-21.55,46.53,0,0-2.86,3.62-2.48,7.62,0,0-2.86,0-3.05-3.05,0,0-8.2,3.62-13.73,3.05-1.34-.14-2.51-.41-3.51-.74-3.15-1.05-4.68-2.69-4.68-2.69,0,0-.76,4.39-2.48,2.48-1.72-1.91-3.05-4.38-3.43-7.05,0,0-3.84-1.05-6.8-2.24-.44-.18-.86-.36-1.25-.54-.34-.16-.64-.31-.91-.47,0,0-2.48,6.49-1.72,12.39,0,0-2.1-.57-3.43-3.43,0,0-.19,.05-.53,.13-1.52,.36-5.96,1.29-9.22,.77-.76-.12-1.44-.32-2.02-.62,.09,.11,1.15,1.38-.13,1.57-1.34,.19-4.51-.89-4.51-.89,0,0-13.73-17.92-15.45-40.05-.63-8.12,.39-17.12,2.44-26.16,2.58-11.37,6.79-22.78,11.41-32.58,1.7-3.62,3.47-7.01,5.22-10.11,.4-.7,.8-1.41,1.19-2.11,9.72-17.34,17.14-33.6,18.26-41.56,.2-1.45,.22-3,.09-4.57-.32-4.19-1.59-8.53-2.63-11.5-.8-2.28-1.46-3.76-1.46-3.76l28.52-15.01,28.71-15.1s.65,1.91,1.23,6.97c.66,5.78,1.24,15.67,.66,31.53-.36,9.72,3.05,13.92,3.05,15.26s-3.57,1.14-4.93-3.24c0,0-1.11,19.65,1.36,32.47,1.05,5.44,2.51,14.17,3.88,23.75,2.24,15.57,4.24,33.38,3.89,42.95Z"/><path class="cls-4" d="M185.95,361.35c.09,.11,1.15,1.38-.13,1.57-1.34,.19-4.51-.89-4.51-.89,0,0-13.73-17.92-15.45-40.05-.63-8.12,.39-17.12,2.44-26.16-.1,6.7,.62,11.07,2.72,15.18,2.31,4.5,3.75,9.66,4.48,12.69,.14,.6-.63,.96-1,.47-1.53-2.01-3.79-4.74-4.99-5.05,0,0,.52,4.09,6.56,12.94,4.26,6.25,9.8,20.76,11.89,29.92-.76-.12-1.44-.32-2.02-.62Z"/><path class="cls-30" d="M244.6,185.58s-3.26,10.03-6.43,19.08c-3.17,9.05-8.16,40.43-8.96,49.95-.37,4.46-1.43,15.65-4.96,27.02-4.02,12.91-11.22,26.05-24.24,29.8-12.68,3.64-19.52-1.43-22.34-8.36-1.81-4.41-1.98-9.57-1-13.7,3.01-12.67,15.09-37.77,25.32-59.14,10.22-21.36,5.8-30.53,5.8-30.53l36.82-14.12Z"/><path class="cls-10" d="M258.85,166.5c-1.87,4.31-4.02,10.07-4.41,14.55-.7,8.18-4.32,6.01-4.32,6.01-12.47,22.06-37.45,19.39-45.64,17.83-.32-4.19-1.59-8.53-2.63-11.5l27.06-18.77,28.71-15.1s.65,1.91,1.23,6.97Z"/><path class="cls-11" d="M246.31,261.15s-11.98,14.66-34.84,15.62c-18.92,.8-28.88-9.85-31.76-13.53,1.7-3.62,3.47-7.01,5.22-10.11,.4-.7,.8-1.41,1.19-2.11l60.18,10.12Z"/><path class="cls-69" d="M218.54,139.59s-3.34-2.29-11.55-.89c-9.27,1.58-10.59,6.58-8.6,8.82,1.99,2.24,20.15-7.92,20.15-7.92Z"/><path class="cls-66" d="M249.85,172.87s1.69,3.2,1.52,6.08c-.16,2.87-3.2,1.35-3.2,1.35-1.53,10.47-19.69,26.2-42.6,20.88-19.7-4.57-19.22-26.45-19.22-26.45-4.57-2.03-1.18-9.97-1.18-9.97-.86-1.38,.03-3.34,1.12-4.91,1.05-1.51,2.26-2.68,2.26-2.68-1.01-2.03,.45-5.15,16.74-13.27,15.51-7.72,28.53-3.96,28.53-3.96-.34-1.18-1.18-3.21,0-4.9,1.18-1.68,2.37,4.06,2.37,4.06,.16-2.37,2.7-6.42,3.88-6.76,1.17-.34-.96,7.9-1.01,8.1,.19-.08,3.91-1.66,5.06-1.01,1.18,.68-2.53,2.53-2.53,2.53,11.66,3.21,16.05,17.57,16.05,17.57l-7.55,12.97-.22,.38Z"/><path class="cls-62" d="M251.37,178.95c-.16,2.87-3.2,1.35-3.2,1.35-1.53,10.47-19.69,26.2-42.6,20.88-19.7-4.57-19.22-26.45-19.22-26.45-4.57-2.03-1.18-9.97-1.18-9.97-.86-1.38,.03-3.34,1.12-4.91,.28,2.33,1.19,5.64,3.97,7.44,4.59,2.97,8.42,2.65,10.78,1.8,2.36-.86,5.55,1.12,6.43,3.42,.87,2.3,5.77,9.09,17.64,5.78,10.26-2.87,18.84-7.01,24.98-5.79l-.22,.38s1.69,3.2,1.52,6.08Z"/><path class="cls-63" d="M182.07,234.71s-5.88-3.96-13.13-2.9c-7.25,1.06-13.34,7.06-14.02,9.67-.68,2.61,3.21,.47,4.95-1.37,0,0-3.02,3.26-2.43,4.95,.57,1.65,3.39-1.98,3.39-1.98,0,0-3.5,4.6-2.19,5.62,.97,.76,4.2-1.83,4.2-1.83,0,0-3.15,3.45-1.82,4.16,2.25,1.21,5.18-3.43,8.12-2.2l2.94,1.23,10,1.37s4.27-4.53,4.66-5.88c.39-1.35,.29-5.41,0-6.19s-4.66-4.64-4.66-4.64Z"/><path class="cls-65" d="M253.85,242.18c1.3-10.05-10.56-16.55-18.17-9.87-4.63,4.06-11.61,7.82-21.7,8.09-22.42,.6-31.91-5.69-31.91-5.69,0,0,.17,1.03,.86,2.59,0,0-3.62-1.03-3.62,0s2.76,7.07,0,9.66c-2.76,2.59-7.24,3.1-7.24,3.1,0,0,4.51,3.99,7.24,6.73,3.97,3.97,14.15,17.36,37.95,16.43,22.25-.86,30.58-12.83,33.34-18.46,1.2-2.45,2.57-7.32,3.25-12.58Z"/><path class="cls-68" d="M248.83,145.92s8.85,2.94,11.46,6.18c2.61,3.24,1.7,6.64-2.67,7.43-4.37,.79-8.1-2.03-9.67-5.53-.81-1.82-1.64-7.77,.88-8.08Z"/><path class="cls-12" d="M231.48,298.14c-.64,.67-11.05,11.63-17,23.25-6.15,11.99-2.66,33.96-2.66,33.96,0,0-5.08-1.39-8.05-2.78-.3-.15-.6-.31-.91-.47-8.07-4.04-12.57-11.3-14.37-14.81,3.7,5.59,13.37,13.08,18.22-2,9.51-29.57,23.79-36.34,24.76-37.16Z"/><path d="M206.55,164.8c2.58,.79,2.76,3.98,2.92,7.28,.16,3.3-2.78,3.51-3.84,2.76,0,0-2.11,1.92-4.23,.9-2.01-.97-1.26-3.24-1.26-3.24,0,0-2.57-.76-1.58-3.15,.84-2.03,5.87-5.19,7.99-4.53Z"/><g><ellipse class="cls-64" cx="198.72" cy="159.88" rx="5.76" ry="4.14" transform="translate(-55.56 179.68) rotate(-43.27)"/><ellipse cx="199.12" cy="161.17" rx="4.12" ry="2.99" transform="translate(-54.01 200.52) rotate(-47.82)"/><circle class="cls-55" cx="199.08" cy="158.22" r="1.4"/></g><g><ellipse class="cls-53" cx="218.7" cy="163.53" rx="5.82" ry="4.19" transform="translate(-39.95 251.11) rotate(-55.49)"/><ellipse cx="219.37" cy="164.71" rx="4.17" ry="3.02" transform="translate(-32.87 272.54) rotate(-60.05)"/><circle class="cls-52" cx="218.7" cy="161.8" r="1.41"/></g><path class="cls-56" d="M213.94,182.85s-.41,2.16-1.6,4.36c-1.34,2.47-3.68,4.98-7.57,4.48-1.54-.2-2.75-.87-3.69-1.82-3.55-3.53-3.4-10.83-3.4-10.83,.79,1.27,3.6,.1,3.6,.1,3.05,4.72,12.66,3.72,12.66,3.72Z"/><path class="cls-51" d="M212.34,187.2c-1.34,2.47-3.68,4.98-7.57,4.48-1.54-.2-2.75-.87-3.69-1.82,2.19-1.27,6.62-3.35,11.26-2.66Z"/><path d="M201.81,151.24c-.23,0-.46-.09-.63-.26-.35-.35-.35-.91,0-1.26,.09-.09,2.29-2.26,7-1.73,.49,.06,.84,.5,.79,.99-.06,.49-.5,.85-.99,.79-3.79-.43-5.46,1.15-5.52,1.22-.17,.17-.4,.26-.63,.26Z"/><path d="M230.82,158.11c-.4,0-.77-.27-.87-.68-.76-3.14-4.45-4.76-4.48-4.78-.45-.2-.66-.72-.47-1.18,.19-.45,.72-.66,1.17-.47,.19,.08,4.54,1.99,5.52,6,.12,.48-.18,.96-.66,1.08-.07,.02-.14,.03-.21,.03Z"/><path d="M209.93,183.85c-1.73,0-3.52-.2-5.12-.79-2.11-.78-3.5-1.97-4.11-3.56-.91-2.35,.24-4.64,.29-4.73,.17-.33,.57-.46,.9-.29,.33,.17,.46,.57,.29,.9h0s-.93,1.87-.23,3.64c.47,1.2,1.59,2.14,3.32,2.77,4.73,1.74,11.75-.29,11.82-.31,.36-.1,.73,.1,.83,.45,.1,.36-.1,.73-.45,.83-.21,.06-3.71,1.07-7.54,1.07Z"/><path d="M199.52,180.26c-.46,0-.91-.08-1.36-.25-2.29-.85-3.46-3.61-3.51-3.73-.14-.34,.02-.73,.36-.88,.34-.14,.74,.02,.88,.36,0,.02,1,2.35,2.74,2.99,.74,.27,1.51,.2,2.35-.22,.33-.17,.74-.03,.9,.29,.17,.33,.04,.73-.3,.9-.7,.35-1.39,.53-2.07,.53Z"/><path class="cls-5" d="M266.75,309.2c-.57,15.45-11.25,36.8-21.55,46.53,0,0-2.86,3.62-2.48,7.62,0,0-2.86,0-3.05-3.05,0,0-8.2,3.62-13.73,3.05-1.34-.14-2.51-.41-3.51-.74-.22-10.05,3.48-26.29,11.29-35.87,9.45-11.6,12.59-17.42,12.59-17.42-7.39,1.76-15.26,11.83-11.24-1.26,3.57-11.61,21.78-24.2,27.79-41.82,2.24,15.57,4.24,33.38,3.89,42.95Z"/><ellipse class="cls-54" cx="254.49" cy="176.03" rx="16.56" ry="15.98" transform="translate(18.83 376.56) rotate(-75.07)"/><ellipse class="cls-50" cx="257.23" cy="175.66" rx="13.75" ry="13.27" transform="translate(21.22 378.93) rotate(-75.07)"/><ellipse cx="257.23" cy="175.66" rx="6.63" ry="6.4" transform="translate(21.22 378.93) rotate(-75.07)"/><path class="cls-61" d="M229.29,187.98c-3.02,.09-6.32,.02-9.91-.26-1.28-.1-2.23-1.2-2.13-2.46,.1-1.25,1.22-2.19,2.51-2.09,14.3,1.14,23.23-1.35,28.21-3.63,5.31-2.44,7.34-5.17,7.36-5.19,.74-1.02,2.19-1.27,3.23-.55,1.05,.72,1.31,2.11,.59,3.15-.33,.47-7.51,10.34-29.86,11.04Z"/><path class="cls-60" d="M221.13,189.52l-3.62-.21c-2.1-.12-3.69-1.89-3.57-3.94l.03-.49c.13-2.05,1.93-3.62,4.02-3.49l3.62,.21c2.1,.12,3.69,1.89,3.57,3.94l-.03,.49c-.13,2.05-1.93,3.62-4.02,3.49Z"/><path class="cls-59" d="M314.39,235.22l-1.85,2.45c-.26,.32-.33,.79-.18,1.18l.99,2.93c.33,1.01-.62,1.98-1.64,1.61l-2.89-.99c-5.73,6.14-3.13,24.31-3.13,24.31-8.51-14.97-3-27.55-3-27.55l-2.5-1.79c-.87-.61-.66-1.97,.36-2.24l2.94-.87c.39-.1,.71-.42,.84-.84l.93-2.94c.31-1.02,1.68-1.21,2.29-.34l1.76,2.56c.27,.32,.64,.58,1.04,.54h3.08c.98-.05,1.57,1.17,.95,1.99Z"/><path class="cls-57" d="M291.85,211.32l-1.74,1.4c-.24,.18-.37,.5-.33,.8l.17,2.24c.05,.78-.79,1.29-1.45,.85l-1.86-1.22c-5.15,3.32-6.55,16.62-6.55,16.62-3.34-12.1,2.8-20,2.8-20l-1.45-1.71c-.51-.59-.11-1.51,.65-1.52l2.23-.09c.3,0,.58-.17,.75-.44l1.18-1.91c.4-.66,1.41-.56,1.68,.17l.79,2.12c.13,.28,.35,.52,.64,.57l2.18,.54c.7,.15,.9,1.12,.32,1.58Z"/><path class="cls-58" d="M315.4,200.91l-.84,2.95c-.16,.4-.04,.85,.19,1.18l1.91,2.39c.64,.83,.1,2.09-.92,2.11l-3.1,.12c-.45,0-.79,.24-1,.58l-1.7,2.57c-.55,.91-1.9,.71-2.26-.29l-1.07-2.91c-.18-.39-.46-.67-.86-.83l-3.01-.79c-1.02-.32-1.33-1.61-.5-2.25l2.45-1.85c.33-.23,.55-.69,.49-1.08l-.17-3.04c-.08-1.07,1.09-1.71,2.01-1.17l2.52,1.76c.34,.22,.8,.32,1.19,.15l2.86-1.13c1.18-.42,2.15,.52,1.84,1.54Z"/><path class="cls-86" d="M193.52,377.02s1.92-3.31,6.17-4.36c0,0-3.32,2.49-3.55,4.39l-2.62-.03Z"/><path class="cls-85" d="M201.14,376.94s2.31-3.29,5.26-3.47c0,0-2.66,1.96-3.06,3.47h-2.2Z"/><path class="cls-84" d="M162.12,371.75s-4.14,1.57-5.19,4.98h1.79s.56-2.82,3.4-4.98Z"/><path class="cls-87" d="M157.81,371.75s-4.14,1.57-5.19,4.98h1.79s.56-2.82,3.4-4.98Z"/><path class="cls-83" d="M165.68,372.66s-3.38,1.28-4.24,4.07h1.46s.45-2.3,2.77-4.07Z"/></g><path d="M140.19,241.3h0c-.19,0-.34-.15-.34-.34,0-.28,.04-6.82,3-9.27,.14-.12,.35-.1,.47,.04,.12,.14,.1,.35-.04,.47-2.72,2.25-2.76,8.69-2.76,8.75,0,.19-.15,.34-.34,.34Z"/><path d="M159.87,240.44c-.09,0-.17-.03-.24-.1-.13-.13-.13-.34,0-.47,.1-.1,2.39-2.36,4.97-3.24,.17-.06,.37,.03,.43,.21,.06,.17-.03,.37-.21,.43-2.43,.83-4.69,3.06-4.71,3.08-.07,.06-.15,.1-.24,.1Z"/><path d="M160.83,243.41c-.1,0-.2-.04-.26-.13-.12-.15-.09-.36,.05-.47,.49-.39,4.8-3.77,6.82-3.52,.18,.02,.31,.19,.29,.37-.02,.18-.17,.32-.37,.29-1.44-.19-5.05,2.38-6.31,3.38-.06,.05-.14,.07-.21,.07Z"/><path d="M162.84,247.2c-.08,0-.17-.03-.23-.09-.13-.13-.14-.34-.01-.47,.1-.11,2.57-2.69,4.8-2.69,.19,0,.34,.15,.34,.34s-.15,.34-.34,.34c-1.94,0-4.28,2.46-4.31,2.48-.07,.07-.15,.1-.24,.1Z"/></g><path class="cls-70" d="M648.58,204.47s-14.59,6.08-23.15,12.18c-.41,.3-.81,.58-1.19,.88-8.31,6.38-44.4,33.18-72.71,28.58-24.26-3.95-22.21-21.46-20.77-25.6,1.35-3.91,5.26-5.89,8.61-6.89,2.62-.78,5.4-.93,8.13-.6,18.31,2.17,49.59-.38,68.27-12.87,.06-.04,.12-.08,.17-.12,7.72-5.21,17.07-10.04,18.55-8.96,1.43,1.05-3.93,5.38-4.29,5.67,.54-.14,11.15-3.07,12.75-1.63,0,0,2.82,.45,2.96,2.82,0,0,2.37,.92,1.78,2.09-.57,1.13-5.82,3.63-6.2,3.82,.47-.09,6.8-1.39,7.1,.62Z"/><path d="M628.49,182.12s-.08,0-.11-.02c-3.2-1.15-5.53-.49-5.55-.48-.17,.06-.36-.05-.42-.23-.05-.18,.05-.36,.23-.42,.1-.03,2.56-.74,5.97,.5,.17,.06,.26,.26,.2,.43-.05,.14-.18,.22-.32,.22Z"/><path d="M626.36,186.16c-.05,0-.1-.01-.15-.04-2.12-1.09-3.74-.92-3.75-.92-.2,.02-.35-.11-.37-.29-.02-.18,.11-.35,.29-.37,.07-.01,1.82-.21,4.14,.99,.16,.08,.23,.29,.14,.45-.06,.12-.18,.18-.3,.18Z"/><path class="cls-67" d="M648.58,204.47s-14.59,6.08-23.15,12.18c-.32-.28-.67-.53-1.04-.75-2.62-1.59-2.02-1.85-.97-3.63,1.07-1.77-2.78-1.54-6.64-4.76-2.39-2-1.81-5.21-1.02-7.36,.06-.04,.12-.08,.17-.12,7.72-5.21,17.07-10.04,18.55-8.96,1.43,1.05-3.93,5.38-4.29,5.67,.54-.14,11.15-3.07,12.75-1.63,0,0,2.82,.45,2.96,2.82,0,0,2.37,.92,1.78,2.09-.57,1.13-5.82,3.63-6.2,3.82,.47-.09,6.8-1.39,7.1,.62Z"/><path d="M634.02,199.2c-.13,0-.26-.08-.31-.21-.07-.17,0-.37,.18-.44l8.92-3.74c.17-.07,.37,0,.44,.18,.07,.17,0,.37-.18,.44l-8.92,3.74s-.09,.03-.13,.03Z"/><path d="M637.12,201.28c-.14,0-.27-.09-.32-.23-.06-.18,.03-.37,.21-.43l8.78-3c.17-.06,.37,.03,.43,.21,.06,.18-.03,.37-.21,.43l-8.78,3s-.07,.02-.11,.02Z"/><path d="M636.73,205.73c-.14,0-.27-.09-.32-.23-.06-.18,.04-.37,.22-.42l4.72-1.53c.18-.06,.37,.04,.42,.22,.06,.18-.04,.37-.22,.42l-4.72,1.53s-.07,.02-.1,.02Z"/><path class="cls-71" d="M99.48,388.2H0V97H13.29c-.58,25.94-.38,140.28,44.65,206.5,25.36,37.3,36.63,65.63,41.55,84.71Z"/></g></g></g></g></svg>