<?xml version="1.0" encoding="utf-8"?>
<!-- Generator: Adobe Illustrator 23.0.1, SVG Export Plug-In . SVG Version: 6.00 Build 0)  -->
<svg version="1.1" id="Layer_1" xmlns="http://www.w3.org/2000/svg" xmlns:xlink="http://www.w3.org/1999/xlink" x="0px" y="0px"
     viewBox="0 0 161.45 154.86" style="enable-background:new 0 0 161.45 154.86;" xml:space="preserve">
<style type="text/css">
	.st0{fill:#b6db18;}
	.st1{fill:#581C87;}
</style>
    <g>
	<g>
		<g>
			<path class="st0" d="M126.81,122.66c0,0-9.13-44.75-19.18-68.5C94.75,23.74,76.91,5.38,67.99,1.56
				c-6.39-2.74-13.15-2.92-14.98,8.4c-1.83,11.32,6.58,14.8,8.77,15.16c2.19,0.37,12.06-0.36,16.26,1.83
				c4.2,2.19,16.26,11.87,23.75,29.59C109.27,74.26,126.81,122.66,126.81,122.66z"/>
            <path class="st0" d="M119.96,116.05c0,0-10.9-26.56-24.27-42.3c-9.7-11.43-24.6-19.96-32.63-23.43
				c-8.04-3.47-32.33-11.61-31.03-9.99c0.35,0.44,15.03,19.24,23.04,19.61c9.67,0.44,17.82-2.22,29.72,9.32
				C96.22,80.35,99.82,84.66,119.96,116.05z"/>
            <path class="st0" d="M104.13,114.64c0,0-4.68-15.29-8.97-20.84c-4.29-5.55-11.77-10.97-13.28-8.44
				c-1.51,2.53-1.34,6.92,1.21,7.15c2.55,0.23,6.19,0.11,8.81,2C96.6,97.87,104.13,114.64,104.13,114.64z"/>
            <path class="st0" d="M105.85,134.95c0,0-12.97-24.84-22.47-35.07c-9.5-10.23-17.35-16.99-22.47-19.54
				c-5.11-2.56-12.97-5.3-15.34-1.65c-2.37,3.65-1.1,12.24,4.75,12.79c5.47,0.51,7.58-2.44,11.87-1.83
				C76.26,91.66,103.66,130.75,105.85,134.95z"/>
		</g>
        <g>
			<g>
				<path class="st1" d="M28.58,143.02c-1.88,0.99-5.42,1.77-8.19,1.77C5.95,144.79,0,133.68,0,124.29
					c0-8.45,6.15-20.39,20.55-20.39c11.74,0,20.5,7.46,20.5,19.56c0,9.18-5.79,15.28-9.23,17.52l10.69,5.53
					c11.42,5.89,19.35,6.15,21.96,6.15c2.61,0,6.68-0.57,10.27-2.03c0.31-0.1,0.57-0.21,0.73-0.21c0.21,0,0.31,0.16,0.31,0.31
					c0,0.21-0.1,0.37-0.42,0.52c-2.97,1.36-8.81,3.6-16.53,3.6c-6.31,0-13.04-2.3-21.49-6.99L28.58,143.02z M21.64,142.81
					c4.69,0,14.39-2.71,14.39-17.89c0-12.52-7.61-19.25-15.86-19.25c-8.71,0-15.23,5.74-15.23,17.16
					C4.95,134.98,12.26,142.81,21.64,142.81z"/>
                <path class="st1" d="M45.51,126.81c0-5.73,0-6.77-0.09-7.94c-0.09-1.17-0.3-1.87-1.56-2.04c-0.3-0.04-0.95-0.09-1.3-0.09
					c-0.13,0-0.3-0.17-0.3-0.3c0-0.22,0.17-0.3,0.61-0.3c1.74,0,4.04,0.09,4.38,0.09c0.35,0,2.73-0.09,3.86-0.09
					c0.43,0,0.65,0.09,0.65,0.3c0,0.13-0.17,0.3-0.35,0.3c-0.26,0-0.48,0-0.95,0.09c-1,0.17-1.21,0.82-1.3,2.04
					c-0.09,1.17-0.09,2.21-0.09,7.94v5.16c0,5.34,1.17,7.55,2.82,9.02c1.87,1.69,3.51,2,5.68,2c2.34,0,4.6-1.04,5.9-2.6
					c1.78-2.13,2.17-5.16,2.17-8.94v-4.64c0-5.73-0.04-6.77-0.09-7.94c-0.04-1.17-0.26-1.87-1.52-2.04c-0.3-0.04-0.95-0.09-1.3-0.09
					c-0.17,0-0.3-0.17-0.3-0.3c0-0.22,0.17-0.3,0.61-0.3c1.69,0,3.9,0.09,4.12,0.09c0.26,0,2.08-0.09,3.21-0.09
					c0.43,0,0.61,0.09,0.61,0.3c0,0.13-0.13,0.3-0.3,0.3c-0.26,0-0.48,0-0.95,0.09c-1.04,0.22-1.26,0.82-1.34,2.04
					c-0.09,1.17-0.04,2.21-0.04,7.94v3.95c0,3.99-0.52,8.46-3.56,11.06c-2.78,2.39-5.73,2.69-7.98,2.69c-1.26,0-5.25-0.09-7.94-2.6
					c-1.87-1.74-3.34-4.3-3.34-9.68V126.81z"/>
                <path class="st1" d="M79.43,133.32c0,3.56,0,6.46,0.17,7.98c0.13,1.08,0.26,1.78,1.39,1.95c0.56,0.09,1.39,0.17,1.74,0.17
					c0.22,0,0.3,0.17,0.3,0.3c0,0.17-0.17,0.3-0.61,0.3c-2.13,0-4.6-0.13-4.77-0.13c-0.22,0-2.6,0.13-3.77,0.13
					c-0.39,0-0.61-0.09-0.61-0.3c0-0.13,0.09-0.3,0.3-0.3c0.35,0,0.82-0.09,1.17-0.17c0.74-0.17,0.87-0.87,1-1.95
					c0.17-1.52,0.22-4.43,0.22-7.98v-6.51c0-5.73,0-6.77-0.09-7.94c-0.09-1.26-0.39-1.82-1.21-2c-0.43-0.09-0.91-0.13-1.17-0.13
					c-0.17,0-0.3-0.17-0.3-0.3c0-0.22,0.17-0.3,0.61-0.3c1.26,0,3.64,0.09,3.86,0.09c0.17,0,2.65-0.09,3.82-0.09
					c0.43,0,0.61,0.09,0.61,0.3c0,0.13-0.17,0.3-0.3,0.3c-0.26,0-0.52,0-0.95,0.09c-1.04,0.22-1.26,0.74-1.34,2.04
					c-0.04,1.17-0.04,2.21-0.04,7.94V133.32z"/>
                <path class="st1" d="M99.65,105.93c0.63-1.72,0.83-2.03,1.15-2.03c0.31,0,0.52,0.26,1.15,1.88c0.78,1.98,8.97,23.52,12.15,31.45
					c1.88,4.64,3.39,5.48,4.48,5.79c0.78,0.26,1.56,0.31,2.09,0.31c0.31,0,0.52,0.05,0.52,0.31c0,0.31-0.47,0.42-1.04,0.42
					c-0.78,0-4.59,0-8.19-0.1c-0.99-0.05-1.56-0.05-1.56-0.37c0-0.21,0.16-0.31,0.37-0.37c0.31-0.1,0.63-0.57,0.31-1.41l-4.85-12.83
					c-0.1-0.21-0.21-0.31-0.47-0.31H94.54c-0.26,0-0.42,0.16-0.52,0.42l-3.13,9.23c-0.47,1.3-0.73,2.56-0.73,3.49
					c0,1.04,1.1,1.51,1.98,1.51h0.52c0.37,0,0.52,0.1,0.52,0.31c0,0.31-0.31,0.42-0.78,0.42c-1.25,0-3.49-0.16-4.07-0.16
					c-0.57,0-3.44,0.16-5.89,0.16c-0.68,0-0.99-0.1-0.99-0.42c0-0.21,0.21-0.31,0.47-0.31c0.37,0,1.1-0.05,1.51-0.1
					c2.4-0.31,3.44-2.3,4.38-4.9L99.65,105.93z M105.08,126.8c0.26,0,0.26-0.16,0.21-0.37l-4.95-14.08c-0.26-0.78-0.52-0.78-0.78,0
					l-4.59,14.08c-0.1,0.26,0,0.37,0.16,0.37H105.08z"/>
                <path class="st1" d="M122.18,126.81c0-5.73,0-6.77-0.09-7.94c-0.09-1.26-0.3-1.87-1.56-2.04c-0.3-0.04-0.95-0.09-1.3-0.09
					c-0.13,0-0.3-0.17-0.3-0.3c0-0.22,0.17-0.3,0.61-0.3c1.74,0,4.3,0.09,4.51,0.09c0.39,0,3.6-0.09,4.77-0.09
					c2.43,0,5.12,0.22,7.12,1.61c0.95,0.69,2.65,2.47,2.65,5.03c0,2.73-1.13,5.38-4.69,8.42c3.12,3.9,5.77,7.25,7.98,9.54
					c2.04,2.08,3.3,2.43,4.25,2.56c0.74,0.13,1.13,0.13,1.34,0.13c0.22,0,0.35,0.17,0.35,0.3c0,0.22-0.22,0.3-0.91,0.3h-2.39
					c-2.17,0-3.12-0.22-4.08-0.74c-1.65-0.87-3.04-2.65-5.21-5.42c-1.61-2-3.3-4.38-4.12-5.38c-0.17-0.17-0.26-0.22-0.52-0.22
					l-4.86-0.09c-0.17,0-0.26,0.09-0.26,0.3v0.87c0,3.56,0,6.42,0.17,7.94c0.13,1.08,0.35,1.78,1.52,1.95
					c0.52,0.09,1.35,0.17,1.69,0.17c0.26,0,0.3,0.17,0.3,0.3c0,0.17-0.17,0.3-0.61,0.3c-2.08,0-4.51-0.13-4.69-0.13
					c-0.04,0-2.6,0.13-3.77,0.13c-0.39,0-0.61-0.09-0.61-0.3c0-0.13,0.09-0.3,0.3-0.3c0.35,0,0.82-0.09,1.17-0.17
					c0.74-0.17,0.82-0.87,1-1.95c0.22-1.52,0.22-4.43,0.22-7.98V126.81z M125.48,129.93c0,0.22,0.09,0.35,0.26,0.48
					c0.56,0.3,2.52,0.56,4.21,0.56c0.91,0,1.95-0.04,2.86-0.65c1.3-0.87,2.3-2.82,2.3-5.64c0-4.6-2.52-7.25-6.59-7.25
					c-1.13,0-2.34,0.13-2.73,0.22c-0.17,0.09-0.3,0.22-0.3,0.43V129.93z"/>
                <path class="st1" d="M151.55,133.32c0,3.56,0,6.46,0.17,7.98c0.13,1.08,0.26,1.78,1.39,1.95c0.56,0.09,1.39,0.17,1.74,0.17
					c0.22,0,0.3,0.17,0.3,0.3c0,0.17-0.17,0.3-0.61,0.3c-2.13,0-4.6-0.13-4.77-0.13c-0.22,0-2.6,0.13-3.77,0.13
					c-0.39,0-0.61-0.09-0.61-0.3c0-0.13,0.09-0.3,0.3-0.3c0.35,0,0.82-0.09,1.17-0.17c0.74-0.17,0.87-0.87,1-1.95
					c0.17-1.52,0.22-4.43,0.22-7.98v-6.51c0-5.73,0-6.77-0.09-7.94c-0.09-1.26-0.39-1.82-1.22-2c-0.43-0.09-0.91-0.13-1.17-0.13
					c-0.17,0-0.3-0.17-0.3-0.3c0-0.22,0.17-0.3,0.61-0.3c1.26,0,3.64,0.09,3.86,0.09c0.17,0,2.65-0.09,3.82-0.09
					c0.43,0,0.61,0.09,0.61,0.3c0,0.13-0.17,0.3-0.3,0.3c-0.26,0-0.52,0-0.95,0.09c-1.04,0.22-1.26,0.74-1.34,2.04
					c-0.04,1.17-0.04,2.21-0.04,7.94V133.32z"/>
			</g>
		</g>
	</g>
        <g>
		<path class="st1" d="M160.74,120.36c-0.48,0.48-1.06,0.72-1.74,0.72c-0.68,0-1.26-0.24-1.73-0.72c-0.47-0.48-0.71-1.06-0.71-1.74
			c0-0.67,0.24-1.25,0.72-1.73c0.48-0.48,1.05-0.71,1.73-0.71c0.68,0,1.26,0.24,1.74,0.71s0.72,1.05,0.72,1.73
			C161.45,119.3,161.21,119.88,160.74,120.36z M157.51,117.14c-0.41,0.41-0.61,0.91-0.61,1.49c0,0.59,0.2,1.09,0.61,1.5
			c0.41,0.41,0.91,0.62,1.49,0.62s1.08-0.21,1.49-0.62c0.41-0.41,0.61-0.91,0.61-1.5c0-0.58-0.2-1.08-0.61-1.49
			c-0.41-0.41-0.91-0.62-1.49-0.62C158.42,116.51,157.92,116.72,157.51,117.14z M158.95,117.27c0.33,0,0.58,0.03,0.73,0.1
			c0.28,0.12,0.42,0.34,0.42,0.68c0,0.24-0.09,0.42-0.26,0.53c-0.09,0.06-0.22,0.1-0.39,0.13c0.21,0.03,0.36,0.12,0.46,0.26
			c0.1,0.14,0.15,0.28,0.15,0.42v0.2c0,0.06,0,0.13,0.01,0.2c0,0.07,0.01,0.12,0.02,0.14l0.02,0.03h-0.44c0-0.01,0-0.02-0.01-0.03
			c0-0.01,0-0.02-0.01-0.03l-0.01-0.09v-0.21c0-0.31-0.08-0.52-0.25-0.62c-0.1-0.06-0.28-0.09-0.53-0.09h-0.37v1.06h-0.47v-2.69
			H158.95z M159.46,117.7c-0.12-0.07-0.31-0.1-0.57-0.1h-0.41v0.98h0.43c0.2,0,0.35-0.02,0.45-0.06c0.19-0.07,0.28-0.21,0.28-0.42
			C159.64,117.89,159.58,117.76,159.46,117.7z"/>
	</g>
</g>
</svg>
