<?xml version="1.0" encoding="utf-8"?>
<!-- Generator: Adobe Illustrator 27.6.1, SVG Export Plug-In . SVG Version: 6.00 Build 0)  -->
<svg version="1.1" id="Layer_1" xmlns="http://www.w3.org/2000/svg" xmlns:xlink="http://www.w3.org/1999/xlink" x="0px" y="0px"
	 viewBox="0 0 1501.7 321.7" style="enable-background:new 0 0 1501.7 321.7;" xml:space="preserve">
<style type="text/css">
	.st0{fill:#0B0B0C;}
</style>
<g>
	<path class="st0" d="M653.6,318l-82.8-127.3c-0.9-1.3-0.2-3.1,1.3-3.6c12.8-4.2,24.1-10.1,33.7-17.8C626.6,152.7,637,128.5,637,97
		c0-29.6-10.4-53.1-31.2-70.7C585,8.8,556.4,0,520,0H380.6c-1.3,0-2.4,1.1-2.4,2.4v316.9c0,1.3,1.1,2.4,2.4,2.4h61.5
		c1.3,0,2.4-1.1,2.4-2.4V200.8c0-1.3,1.1-2.4,2.4-2.4h56.7c0.8,0,1.6,0.4,2,1.1l74.1,121c0.4,0.7,1.2,1.1,2,1.1h69.8
		C653.5,321.7,654.7,319.6,653.6,318z M444.5,56c0-1.3,1.1-2.4,2.4-2.4h65.4c18.8,0,32.9,3.8,42.2,11.5c9.3,7.6,13.9,19.4,13.9,35.3
		c0,15.9-4.6,27.7-13.9,35.3c-9.3,7.6-23.3,11.5-42.2,11.5h-65.4c-1.3,0-2.4-1.1-2.4-2.4L444.5,56L444.5,56z"/>
	<path class="st0" d="M805,2.4v316.9c0,1.3-1.1,2.4-2.4,2.4h-62.5c-1.3,0-2.4-1.1-2.4-2.4V2.4c0-1.3,1.1-2.4,2.4-2.4h62.5
		C803.9,0,805,1.1,805,2.4z"/>
	<path class="st0" d="M245.1,1.6l-87.4,240.2c-0.8,2.1-3.7,2.1-4.5,0L90.9,70.5c-0.6-1.6,0.6-3.2,2.2-3.2H153c1,0,2-0.7,2.3-1.7
		l20.1-62.5c0.5-1.5-0.6-3.1-2.3-3.1H2.4C0.7,0-0.4,1.6,0.2,3.2l115.7,316.9c0.3,0.9,1.2,1.6,2.2,1.6h75.1c1,0,1.9-0.6,2.2-1.6
		L310.8,3.2c0.6-1.6-0.6-3.2-2.2-3.2h-61.2C246.3,0,245.4,0.6,245.1,1.6z"/>
	<path class="st0" d="M1147.3,67.9H978.5c-1.3,0-2.4,1.1-2.4,2.4v54.5c0,1.3,1.1,2.4,2.4,2.4h132.2c1.3,0,2.4,1.1,2.4,2.4v62.5
		c0,1.3-1.1,2.4-2.4,2.4H978.5c-1.3,0-2.4,1.1-2.4,2.4v122.4c0,1.3-1.1,2.4-2.4,2.4h-62.5c-1.3,0-2.4-1.1-2.4-2.4V2.4
		c0-1.3,1.1-2.4,2.4-2.4h236c1.3,0,2.4,1.1,2.4,2.4v63.1C1149.7,66.8,1148.6,67.9,1147.3,67.9z"/>
	<path class="st0" d="M1501.4,3.6l-111.7,197.2c-0.2,0.4-0.3,0.8-0.3,1.2v117.4c0,1.3-1.1,2.4-2.4,2.4h-62.5c-1.3,0-2.4-1.1-2.4-2.4
		V201.9c0-0.4-0.1-0.8-0.3-1.2L1210,3.6c-0.9-1.6,0.2-3.6,2.1-3.6h61.8c0.9,0,1.7,0.5,2.1,1.2l77.7,137.1c0.9,1.6,3.2,1.6,4.2,0
		l77.7-137.1c0.4-0.8,1.2-1.2,2.1-1.2h61.8C1501.1,0,1502.3,2,1501.4,3.6z"/>
</g>
</svg>
